<svg xmlns="http://www.w3.org/2000/svg" viewBox="0 0 210 84"><defs><style>.a{fill:#03363d;}</style></defs><title>Artboard 1 copy</title><path class="a" d="M138.54,54.538a10.442,10.442,0,0,0,7.43-2.893l3.67,3.983C147.2,58.134,143.835,60,138.59,60c-8.991,0-14.8-5.974-14.8-14.071a13.781,13.781,0,0,1,13.982-14.072c8.928,0,13.982,6.81,13.549,16.256H130.24c.747,3.92,3.5,6.425,8.3,6.425m6.429-10.924c-.56-3.663-2.746-6.355-7.116-6.355a7.259,7.259,0,0,0-7.617,6.355Z"/><polygon class="a" points="0 54.244 16.237 37.704 0.38 37.704 0.38 32.516 23.764 32.516 23.764 37.811 7.523 54.351 23.981 54.351 23.981 59.538 0 59.538 0 54.244"/><path class="a" d="M42.213,54.538a10.44,10.44,0,0,0,7.43-2.893l3.67,3.983C50.877,58.134,47.508,60,42.263,60c-8.991,0-14.8-5.974-14.8-14.071A13.781,13.781,0,0,1,41.449,31.857c8.928,0,13.982,6.81,13.549,16.256H33.913c.747,3.92,3.5,6.425,8.3,6.425m6.429-10.921c-.56-3.662-2.746-6.355-7.116-6.355a7.26,7.26,0,0,0-7.617,6.355Z"/><path class="a" d="M90.075,45.945c0-8.649,6.442-14.048,13.531-14.048a11.655,11.655,0,0,1,8.988,4.058V20h5.752V59.468h-5.752V55.729A11.517,11.517,0,0,1,103.553,60,13.6,13.6,0,0,1,90.075,45.952m22.846-.054a8.558,8.558,0,1,0-8.554,8.811,8.558,8.558,0,0,0,8.554-8.811"/><path class="a" d="M155.071,53.729l5.195-2.7a7.708,7.708,0,0,0,6.929,3.943c3.249,0,4.928-1.672,4.928-3.565,0-2.161-3.14-2.649-6.549-3.345-4.6-.973-9.365-2.488-9.365-8.054,0-4.271,4.06-8.218,10.449-8.161,5.034,0,8.771,2.007,10.883,5.241l-4.815,2.642a6.985,6.985,0,0,0-6.061-3.08c-3.087,0-4.671,1.515-4.671,3.244,0,1.947,2.489,2.485,6.389,3.345,4.437.973,9.471,2.432,9.471,8.054,0,3.73-3.246,8.757-10.936,8.7-5.628,0-9.582-2.271-11.854-6.272"/><polygon class="a" points="193.448 47.457 188.897 52.431 188.897 59.458 183.162 59.458 183.162 20 188.897 20 188.897 45.835 201.078 32.429 208.064 32.429 197.505 43.999 208.334 59.458 201.838 59.458 193.448 47.457"/><path class="a" d="M72.733,31.884c-6.823,0-12.534,4.432-12.534,11.784V59.455h5.848V44.4c0-4.431,2.542-7.084,6.873-7.084s6.5,2.653,6.5,7.084V59.455h5.848V43.668c0-7.359-5.711-11.784-12.534-11.784"/><path class="a" d="M206.442,28.931a2.088,2.088,0,1,1,0,2.96,2.081,2.081,0,0,1,0-2.96Zm2.589,2.595a1.6,1.6,0,1,0-.006.006Zm-.941-2.458.631.632a.789.789,0,0,1,.123,1.134.667.667,0,0,1-.787.157l-.19.806-.417-.418.307-1.114.17.171a.333.333,0,0,0,.466.072.352.352,0,0,0,.041-.036.335.335,0,0,0-.041-.471l-.022-.017-.217-.247L206.989,30.9l-.37-.371Z"/></svg>