<?xml version="1.0" encoding="UTF-8"?>
<svg width="212px" height="54px" viewBox="0 0 212 54" version="1.1" xmlns="http://www.w3.org/2000/svg" xmlns:xlink="http://www.w3.org/1999/xlink">
    <!-- Generator: Sketch 42 (36781) - http://www.bohemiancoding.com/sketch -->
    <title>Combined Shape</title>
    <desc>Created with Sketch.</desc>
    <defs></defs>
    <g id="Design-(v2)" stroke="none" stroke-width="1" fill="none" fill-rule="evenodd">
        <g id="Company" transform="translate(-599.000000, -3728.000000)" fill-rule="nonzero" fill="#B6BABF">
            <path d="M625.760188,3735.70846 L625.760188,3766.629 C625.760188,3768.20899 624.493794,3769.48982 622.90708,3769.48982 C621.331352,3769.48982 620.053971,3768.21135 620.053971,3766.629 L620.053971,3735.76547 L603.323919,3745.42723 C601.961483,3746.21405 600.224342,3745.75577 599.431646,3744.38241 C598.644439,3743.01855 599.111782,3741.27449 600.473191,3740.48826 L621.267373,3728.47943 C621.548207,3728.31725 621.844962,3728.20797 622.146084,3728.1487 C622.893648,3727.89801 623.740748,3727.95692 624.476274,3728.3817 L645.270456,3740.39053 C646.632892,3741.17734 647.104696,3742.9113 646.312,3744.28467 C645.524793,3745.64853 643.781136,3746.11572 642.419727,3745.32949 L625.760188,3735.70846 Z M622.94431,3775.93659 L641.11966,3765.44016 L641.11966,3755.02414 C641.11966,3753.45902 642.383454,3752.19024 643.96691,3752.19024 C645.539402,3752.19024 646.81416,3753.46951 646.81416,3755.02414 L646.81416,3766.75366 C646.81416,3766.94774 646.794726,3767.13727 646.757659,3767.32038 C646.690707,3768.23144 646.188025,3769.09495 645.337485,3769.58614 L624.50928,3781.61462 C624.00734,3781.90449 623.454811,3782.02597 622.917389,3781.99541 C622.396613,3782.01606 621.863892,3781.89445 621.379341,3781.61462 L600.551135,3769.58614 C599.854471,3769.18381 599.38994,3768.53486 599.207498,3767.81332 C599.073693,3767.48532 599,3767.12745 599,3766.75366 L599,3755.02414 C599,3753.45902 600.263794,3752.19024 601.84725,3752.19024 C603.419742,3752.19024 604.694499,3753.46951 604.694499,3755.02414 L604.694499,3765.39716 L622.94431,3775.93659 Z M672.17371,3764.01651 L663.004523,3764.01651 L663.004523,3743.06545 L671.154912,3743.06545 C672.573246,3743.06545 673.796791,3743.23529 674.825583,3743.57499 C675.854375,3743.91468 676.628454,3744.37426 677.147845,3744.95374 C678.086742,3746.03277 678.556184,3747.25166 678.556184,3748.61044 C678.556184,3750.24896 678.026813,3751.46785 676.968057,3752.26713 C676.608479,3752.54688 676.358776,3752.72172 676.21894,3752.79166 C676.079104,3752.86159 675.829401,3752.97649 675.469823,3753.13634 C676.768299,3753.41609 677.802069,3754.00056 678.571166,3754.88976 C679.340263,3755.77896 679.724806,3756.88295 679.724806,3758.20177 C679.724806,3759.66045 679.2254,3760.94928 678.226572,3762.06827 C677.067933,3763.3671 675.050332,3764.01651 672.17371,3764.01651 Z M667.679011,3751.54778 L669.896396,3751.54778 C671.194871,3751.54778 672.158725,3751.40791 672.787986,3751.12816 C673.417247,3750.84841 673.731873,3750.24396 673.731873,3749.3148 C673.731873,3748.38563 673.442217,3747.7712 672.862898,3747.47147 C672.283578,3747.17173 671.304742,3747.02187 669.92636,3747.02187 L667.679011,3747.02187 L667.679011,3751.54778 Z M667.679011,3760.06009 L670.88523,3760.06009 C672.223658,3760.06009 673.227464,3759.89524 673.896678,3759.56553 C674.565893,3759.23583 674.900495,3758.58642 674.900495,3757.61729 C674.900495,3756.64817 674.545916,3756.00875 673.836749,3755.69903 C673.127582,3755.38931 671.99393,3755.23445 670.43576,3755.23445 L667.679011,3755.23445 L667.679011,3760.06009 Z M693.448622,3764.22632 C690.352258,3764.22632 687.745358,3763.19227 685.627845,3761.12412 C683.510331,3759.05598 682.45159,3756.48333 682.45159,3753.4061 C682.45159,3750.32887 683.510331,3747.75622 685.627845,3745.68808 C687.745358,3743.61994 690.352258,3742.58588 693.448622,3742.58588 C696.544986,3742.58588 699.151886,3743.61994 701.269399,3745.68808 C703.386913,3747.75622 704.445654,3750.32887 704.445654,3753.4061 C704.445654,3756.48333 703.386913,3759.05598 701.269399,3761.12412 C699.151886,3763.19227 696.544986,3764.22632 693.448622,3764.22632 Z M697.883392,3748.64041 C696.6848,3747.32159 695.211552,3746.6622 693.463604,3746.6622 C691.715657,3746.6622 690.242409,3747.32159 689.043816,3748.64041 C687.845224,3749.95922 687.245936,3751.55277 687.245936,3753.42109 C687.245936,3755.28941 687.845224,3756.87796 689.043816,3758.18678 C690.242409,3759.4956 691.715657,3760.15001 693.463604,3760.15001 C695.211552,3760.15001 696.6848,3759.4956 697.883392,3758.18678 C699.081985,3756.87796 699.681272,3755.28941 699.681272,3753.42109 C699.681272,3751.55277 699.081985,3749.95922 697.883392,3748.64041 Z M720.177102,3743.06545 L725.810459,3743.06545 L719.278163,3753.16632 L726.349823,3764.01651 L720.656537,3764.01651 L716.191802,3757.12274 L711.757032,3764.01651 L706.123675,3764.01651 L713.165371,3753.28621 L706.60311,3743.06545 L712.206502,3743.06545 L716.191802,3749.26984 L720.177102,3743.06545 Z M744.328622,3743.06545 L744.328622,3747.23168 L733.900919,3747.23168 L733.900919,3751.54778 L743.279859,3751.54778 L743.279859,3755.53418 L733.900919,3755.53418 L733.900919,3759.88025 L744.658233,3759.88025 L744.658233,3764.01651 L729.226431,3764.01651 L729.226431,3743.06545 L744.328622,3743.06545 Z M764.824452,3745.80797 C766.822107,3747.63633 767.820919,3750.179 767.820919,3753.43607 C767.820919,3756.69315 766.847078,3759.27079 764.899364,3761.16908 C762.951652,3763.06738 759.980185,3764.01651 755.984876,3764.01651 L748.823322,3764.01651 L748.823322,3743.06545 L756.224594,3743.06545 C759.960207,3743.06545 762.826798,3743.97961 764.824452,3745.80797 Z M761.393498,3758.26171 C762.54215,3757.18268 763.116466,3755.61412 763.116466,3753.55597 C763.116466,3751.49782 762.54215,3749.91426 761.393498,3748.80526 C760.244848,3747.69626 758.481944,3747.14176 756.104735,3747.14176 L753.497809,3747.14176 L753.497809,3759.88025 L756.464311,3759.88025 C758.601801,3759.88025 760.244848,3759.34074 761.393498,3758.26171 Z M780.555901,3760.06009 C781.874352,3760.06009 782.918111,3759.57553 783.687208,3758.6064 C784.456306,3757.63727 784.840848,3756.31348 784.840848,3754.63499 L784.840848,3743.06545 L789.515336,3743.06545 L789.515336,3754.78485 C789.515336,3757.82212 788.676334,3760.15499 786.998304,3761.78353 C785.320274,3763.41206 783.172828,3764.22632 780.555901,3764.22632 C777.938975,3764.22632 775.786533,3763.40707 774.098516,3761.76854 C772.410498,3760.13001 771.566502,3757.80214 771.566502,3754.78485 L771.566502,3743.06545 L776.240989,3743.06545 L776.240989,3754.63499 C776.240989,3756.31348 776.630526,3757.63727 777.409611,3758.6064 C778.188697,3759.57553 779.23745,3760.06009 780.555901,3760.06009 Z M808.797597,3744.93875 C810.265873,3746.18763 811,3748.10588 811,3750.69355 C811,3753.28123 810.245897,3755.1745 808.737668,3756.37342 C807.229438,3757.57234 804.927177,3758.17179 801.830813,3758.17179 L799.044099,3758.17179 L799.044099,3764.01651 L794.369611,3764.01651 L794.369611,3743.06545 L801.770883,3743.06545 C804.987106,3743.06545 807.329321,3743.68988 808.797597,3744.93875 Z M805.366643,3753.1813 C805.925986,3752.55187 806.205654,3751.63271 806.205654,3750.4238 C806.205654,3749.21488 805.841087,3748.35567 805.111943,3747.84613 C804.3828,3747.33658 803.249148,3747.08182 801.710954,3747.08182 L799.044099,3747.08182 L799.044099,3754.12545 L802.190389,3754.12545 C803.748559,3754.12545 804.8073,3753.81074 805.366643,3753.1813 Z" id="Combined-Shape"></path>
        </g>
    </g>
</svg>