<?xml version="1.0" encoding="UTF-8"?>
<svg height="50px" viewBox="0 0 7012 4031" version="1.1" xmlns="http://www.w3.org/2000/svg" xmlns:xlink="http://www.w3.org/1999/xlink">
    <!-- Generator: Sketch 42 (36781) - http://www.bohemiancoding.com/sketch -->
    <title>heha</title>
    <desc>Created with Sketch.</desc>
    <defs></defs>
    <g id="Page-1" stroke="none" stroke-width="1" fill="none" fill-rule="evenodd">
        <g id="heha">
            <g id="Layer_2">
                <g id="Layer_1-2">
                    <path d="M1366.1,531.09 C1366.72,481.79 1397.49,387.49 1509.47,383.42 L1730.14,375.54 L1735.74,76.54 C1735.60496,72.8610938 1734.0747,69.3715134 1731.46,66.78 C1728.77448,64.1784545 1725.19854,62.6980147 1721.46,62.64 L1716.95,62.57 C1582.45,60.31 1476.22,58.57 1397.16,58.57 C1151.44,58.57 1133.26,72.8 1131.5,161.42 L1108.19,1415.42 C1108.19552,1419.56256 1106.51443,1423.52887 1103.53378,1426.40576 C1100.55312,1429.28266 1096.52976,1430.82222 1092.39,1430.67 L657.78,1423.26 C653.654805,1423.18905 649.72715,1421.48056 646.862762,1418.51113 C643.998373,1415.54169 642.432396,1411.55507 642.51,1407.43 L668,58.55 C668,55.48 666.34,51.82 663.44,48.84 C660.630963,46.1899771 656.93134,44.6880089 653.07,44.63 C517.53,42.37 410.47,40.63 330.37,40.63 C83.37,40.63 65.19,54.89 63.74,143.71 L0,3556.27 C0.0432069552,3559.93231 1.53115086,3563.42934 4.14,3566 C6.81162664,3568.6264 10.3939218,3570.12022 14.14,3570.17 C150.4,3572.46 258.04,3574.27 338.3,3574.27 C584.18,3574.27 602.36,3560.04 604.01,3471.45 L632,1977 C632.157999,1968.53485 639.063374,1961.75397 647.53,1961.75 L647.8,1961.75 L1082.29,1969.15 C1086.41519,1969.22095 1090.34285,1970.92944 1093.20724,1973.89887 C1096.07163,1976.86831 1097.6376,1980.85493 1097.56,1984.98 L1067.76,3574.35 C1067.73288,3577.97666 1069.12125,3581.47092 1071.63,3584.09 C1074.14738,3586.69518 1077.59774,3588.19189 1081.22,3588.25 C1217.36,3590.53 1324.91,3592.32 1405.45,3592.32 C1436.9,3592.32 1464.6,3592.08 1489.07,3591.5 L1366.11,531.91 C1366.10333,531.636667 1366.1,531.363333 1366.1,531.09 Z" id="Shape" fill="#B6BABF"></path>
                    <path d="M4873.27,89 C4873.25899,81.4714032 4867.1586,75.3710148 4859.63,75.36 C4441.09,75.36 4341.63,75.36 4303.97,113.1 C4286.07,131.01 4286.11,155.54 4286.17,183.95 L4286.17,1433.95 C4286.17,1442.53251 4279.21251,1449.49 4270.63,1449.49 L3849.13,1449.49 C3840.54749,1449.49 3833.59,1442.53251 3833.59,1433.95 L3833.59,89 C3833.5791,81.4908461 3827.50906,75.3984724 3820,75.36 C3401.56,75.36 3302.14,75.36 3264.46,113.1 C3246.62,130.98 3246.67,155.52 3246.72,183.93 L3246.72,3586.93 C3246.73101,3594.4586 3252.8314,3600.55899 3260.36,3600.57 C3678.81,3600.57 3778.23,3600.57 3815.91,3562.86 C3833.75,3544.96 3833.7,3520.47 3833.65,3492.11 L3833.65,2002.11 C3833.65,1993.52749 3840.60749,1986.57 3849.19,1986.57 L4270.69,1986.57 C4279.27251,1986.57 4286.23,1993.52749 4286.23,2002.11 L4286.23,3586.92 C4286.24101,3594.4486 4292.3414,3600.54899 4299.87,3600.56 C4352.81,3600.56 4400.62,3600.56 4443.87,3600.48 L4873.33,1470.31 L4873.27,89 Z" id="Shape" fill="#B6BABF"></path>
                    <path d="M6252.09,55.88 C6240,68.47 6235.32,85 6236.4,111.21 L6337.53,2301.29 L6376.17,2301.29 C6784.62,2301.29 6865.91,2286.23 6880.17,2113.29 C6909.37,1634.08 7003.29,98 7011.66,0.17 C6968.2,0.06 6927.3,0 6888.58,0 C6458.43,0 6297.6,8.44 6252.09,55.88 Z" id="Shape" fill="#B6BABF"></path>
                    <path d="M2861.28,3339.27 L2860.75,3325.71 L2141.51,3351.39 C2132.97378,3351.65555 2125.80885,3345.01194 2125.43,3336.48 L2082.86,2273.62 C2082.69792,2269.4867 2084.18935,2265.45917 2087.00438,2262.42832 C2089.8194,2259.39748 2093.72601,2257.61313 2097.86,2257.47 L2600,2239.35 C2619.9,2238.64 2645.24,2235.11 2664.78,2213.98 C2710.04,2165.16 2704.78,2035.17 2691.94,1721.15 L2691.33,1706.47 L2076.63,1728.4 C2068.08313,1728.70422 2060.8968,1722.04524 2060.55,1713.5 L2029.15,935.8 C2028.98519,931.665011 2030.4754,927.634885 2033.29071,924.601852 C2036.10603,921.568818 2040.0142,919.783087 2044.15,919.64 L2681.87,896.84 C2707.47,895.91 2736.26,892.14 2755.65,871.18 C2797.11,826.46 2792.65,715.97 2779.37,387.97 L2778.78,373.59 L1783.98,409.11 L1783.98,409.11 L1733.87,410.9 L1514.87,418.72 C1406.24,422.72 1401.65,527.06 1401.46,535.36 L1524.36,3594.68 L1526.73,3653.49 L1536.35,3892.92 L2763.79,3848.92 C2792.91,3847.92 2820.65,3845.23 2840.01,3824.37 C2879.1,3782.23 2875,3679.53 2861.28,3339.27 Z" id="Shape" fill="#B6BABF"></path>
                    <path d="M5581.36,2171.45 C5534.23,1993.98 5486.44,1760.19 5439.31,1476.58 C5438.01201,1468.83461 5431.13927,1463.275 5423.29362,1463.62375 C5415.44797,1463.9725 5409.09564,1470.11999 5408.49,1477.95 C5385.56,1780.95 5360.69,2012.37 5332.49,2185.39 L5262.11,2625.12 C5261.38965,2629.61316 5262.67489,2634.19628 5265.6265,2637.65971 C5268.57811,2641.12314 5272.89947,2643.11881 5277.45,2643.12 L5278.3,2643.12 L5680,2621 C5684.66051,2620.74429 5688.95927,2618.40731 5691.70802,2614.63504 C5694.45678,2610.86276 5695.3644,2606.05474 5694.18,2601.54 L5581.36,2171.45 Z" id="Shape" fill-rule="nonzero"></path>
                    <path d="M6673,3803.74 L6587.63,3524.62 C6316.81,3519.92 6237.87,3390.85 6238.35,3170.42 C6238.64,3048.42 6291.28,2936.34 6387.43,2870 L5633.71,405.65 L5625.25,404.37 C5585.83,398.37 5534.86,395.37 5473.76,395.37 C5434.37,395.37 5391.27,396.66 5345.66,399.2 C5290.35,402.2 5122.13,411.37 5104.21,528.4 L4912.86,1477.6 L4478.59,3635.75 L4477.76,3635.75 L4399.33,4024.8 L4415.05,4025.7 C4468.33,4028.76 4528.68,4030.31 4594.42,4030.31 C4661.69,4030.31 4733.63,4028.57 4786.88,4025.64 C5017.88,4013.01 5045.25,3979.32 5059.99,3893.33 L5172.46,3200.71 C5173.64039,3193.51694 5179.66177,3188.111 5186.94,3187.71 L5831.94,3152.28 C5839.29385,3151.87711 5845.92057,3156.69161 5847.81,3163.81 L6055.3,3945.27 L6065.66,3945.39 C6217.77,3946.98 6327.98,3941.07 6405.66,3936.92 C6561.48,3928.36 6639.44,3908.49 6666.34,3870.49 C6678.9,3852.6 6681,3831.41 6673,3803.74 Z M5696,2614.66 C5693.25401,2618.43207 5688.95851,2620.77073 5684.3,2621.03 L5282.58,2643.11 L5281.73,2643.11 C5277.17947,2643.10881 5272.85811,2641.11314 5269.9065,2637.64971 C5266.95489,2634.18628 5265.66965,2629.60316 5266.39,2625.11 L5336.77,2185.38 C5365.02,2012.38 5389.89,1780.97 5412.77,1477.94 C5413.37564,1470.10999 5419.72797,1463.9625 5427.57362,1463.61375 C5435.41927,1463.265 5442.29201,1468.82461 5443.59,1476.57 C5490.72,1760.19 5538.51,1993.97 5585.64,2171.44 L5698.43,2601.55 C5699.61403,2606.07208 5698.69954,2610.88692 5695.94,2614.66 L5696,2614.66 Z" id="Shape" fill="#B6BABF"></path>
                    <path d="M6587.19,3497 C6471.27,3494.35 6393.86,3469 6343.56,3417.2 C6293.26,3365.4 6269.92,3287 6270.17,3170.5 C6270.52,3019.98 6342.7,2938.34 6403.24,2896.34 L6430.04,2879.66 C6482.2,2850.66 6542.73,2835.28 6605.12,2835.28 L6606.3,2835.28 C6730.1,2835.58 6816.3,2865.34 6869.95,2926.28 C6917.61,2980.42 6940.63,3060.9 6940.34,3172.28 C6940.14,3262.28 6909.03,3343.87 6852.72,3402.04 C6797.72,3458.88 6720.87,3491.54 6630.51,3496.49 L6630.25,3496.49 C6627.59,3496.62 6606.08,3496.84 6587.19,3497 Z" id="Shape" fill="#B6BABF"></path>
                </g>
            </g>
        </g>
    </g>
</svg>