<?xml version="1.0" encoding="UTF-8"?>
<svg width="126px" height="42px" viewBox="0 0 63 21" version="1.1" xmlns="http://www.w3.org/2000/svg" xmlns:xlink="http://www.w3.org/1999/xlink">
    <!-- Generator: Sketch 46.2 (44496) - http://www.bohemiancoding.com/sketch -->
    <title>Shape</title>
    <desc>Created with Sketch.</desc>
    <defs></defs>
    <g id="Page-1" stroke="none" stroke-width="1" fill="none" fill-rule="evenodd">
        <g id="rift-white" fill-rule="nonzero" fill="#B6BABF">
            <path d="M25,0 L25,20 C26.5,20 28,20 29.43,20 C29.88,20 30,19.89 30,19.46 C30,13.1533333 30,6.84333333 30,0.53 C30,0.44 30,0.33 30,0.26 C30,0.19 29.8,0 29.7,0 C28.15,0 26.59,0 25,0 Z M57.81,20 L57.81,4.79 L63,4.79 L63,0 L45,0 C46.4,1.43 47.82,2.86 49.22,4.32 C49.5125143,4.66239963 49.9509861,4.84447693 50.4,4.81 C51.24,4.81 52.08,4.81 52.99,4.81 L52.99,20 L57.81,20 Z M47,4.82 C46.88,4.67 46.83,4.6 46.77,4.55 C45.29,3.1 43.77,1.64 42.33,0.21 C42.1721948,0.0803741738 41.9742186,0.00966837974 41.77,0.01 L31.42,0.01 L31,0 L31,20 L31.44,20 C32.77,20 34.1,20 35.44,20 C35.83,20 35.93,19.89 35.92,19.52 C35.92,17.58 35.92,15.63 35.86,13.69 C35.86,13.31 35.98,13.21 36.35,13.21 C38.75,13.21 41.14,13.21 43.54,13.21 L44,13.21 L44,8.41 L37.56,8.41 C37.1,8.41 36.64,8.41 36.19,8.41 C36.08,8.41 35.88,8.28 35.88,8.2 C35.88,7.1 35.88,5.99 35.88,4.83 L47,4.82 Z M24,20 L17.31,13.23 L18.16,13.23 C19.2783013,13.2273563 20.3496007,12.7798882 21.1375422,11.9863185 C21.9254838,11.1927488 22.3653157,10.1182918 22.36,9 C22.36,7.42 22.36,5.85 22.36,4.27 C22.3900024,3.13903706 21.9580787,2.04463659 21.163766,1.23900352 C20.3694533,0.433370445 19.2812742,-0.0139959706 18.15,4.44035e-16 L0,4.44035e-16 L0,20 L4.72,20 L4.72,4.79 L17.66,4.79 C17.66,5.85 17.66,6.88 17.66,7.92 C17.66,8.35 17.55,8.48 17.12,8.47 C13.59,8.47 10.06,8.47 6.54,8.47 L5.89,8.47 L6.19,8.81 C9.81,12.47 13.43,16.1366667 17.05,19.81 C17.2106939,19.9505164 17.4165394,20.0285957 17.63,20.03 C19.63,20.03 21.57,20.03 23.54,20.03 L24,20 Z" id="Shape"></path>
        </g>
    </g>
</svg>