<?xml version="1.0" encoding="UTF-8"?>
<svg width="200px" height="41px" viewBox="0 0 200 41" version="1.1" xmlns="http://www.w3.org/2000/svg" xmlns:xlink="http://www.w3.org/1999/xlink">
    <!-- Generator: Sketch 42 (36781) - http://www.bohemiancoding.com/sketch -->
    <title>Zendesk</title>
    <desc>Created with Sketch.</desc>
    <defs></defs>
    <g id="Page-1" stroke="none" stroke-width="1" fill="none" fill-rule="evenodd">
        <g id="zendesk" fill-rule="nonzero" fill="#B6BABF">
            <g id="Design-(v2)">
                <g id="Company">
                    <g id="Section">
                        <g id="Logos">
                            <g id="Zendesk">
                                <path d="M197.00591,40.4602108 C196.286631,40.4602108 195.386811,40.1005915 194.846991,39.5608023 L185.131315,28.4068397 L182.253477,30.7458062 L182.253477,37.582536 C182.253477,39.2008227 180.993297,40.4602108 179.374559,40.4602108 C177.755099,40.4602108 176.496,39.2008227 176.496,37.582536 L176.496,3.03998867 C176.496,1.4209813 177.755099,0.16195354 179.374559,0.16195354 C180.993297,0.16195354 182.253477,1.4209813 182.253477,3.03998867 L182.253477,24.0892465 L194.487351,14.5542912 C195.027171,14.1943116 195.566631,14.0141416 196.10645,14.0141416 C197.00591,14.0141416 197.725189,14.3741212 198.265369,15.0937201 C198.625009,15.6335093 198.985009,16.1732986 198.985009,16.7134482 C198.985009,17.6124963 198.625009,18.3320952 197.90573,18.8718844 L189.629333,25.3482742 L199.164468,36.3224272 C199.524108,36.8622164 199.884829,37.4020057 199.884829,38.1216045 C199.524108,39.381353 198.265369,40.4602108 197.00591,40.4602108" id="Fill-33"></path>
                                <path d="M159.224036,40.81983 C156.345477,40.81983 152.567099,39.9204215 149.688541,38.3017745 C148.789081,37.7616249 148.249261,36.8622164 148.249261,36.1429779 C148.249261,35.7829983 148.429081,35.602468 148.429081,35.2432091 C148.789081,34.3438006 149.508721,33.803651 150.22836,33.803651 C150.588,33.803651 151.12782,33.983821 151.487459,34.1632703 C153.646018,35.4226584 156.165658,36.3224272 158.684216,36.3224272 C161.562775,36.3224272 164.801333,35.4226584 164.801333,33.2638618 C164.801333,31.4650448 163.181874,30.9252555 157.244577,28.7664589 C152.207459,26.9676419 149.688541,24.808485 149.688541,21.2104907 C149.688541,16.8928975 154.006739,14.0141416 159.763856,14.0141416 C163.721694,14.0141416 166.240252,14.9139105 168.579712,15.9938493 C169.659351,16.5329178 170.198811,17.2528771 170.198811,18.1526459 C170.198811,18.5122652 170.198811,18.6920748 170.018991,19.0520544 C169.659351,19.9514629 168.759532,20.6707014 167.860072,20.6707014 C167.500432,20.6707014 167.320252,20.6707014 166.960252,20.4912521 C164.801333,19.4113133 162.642054,18.8718844 160.123495,18.8718844 C157.065477,18.8718844 155.085658,19.5918436 155.085658,21.3906606 C155.085658,23.3692873 156.705477,23.7289065 161.022955,25.1681042 C166.420793,26.9676419 170.198811,28.7664589 170.198811,33.2638618 C170.378631,37.2218357 166.420793,40.81983 159.224036,40.81983" id="Fill-31"></path>
                                <path d="M124.680468,24.9891594 C125.220649,21.0308252 127.919027,18.512049 131.877225,18.512049 C135.655604,18.512049 138.534162,21.3908048 139.253081,24.9891594 L124.680468,24.9891594 Z M144.830739,27.507215 C144.830739,19.7714371 139.253081,14.0142858 131.877225,14.0142858 C124.501009,14.0142858 118.563351,19.951607 118.563351,27.507215 C118.563351,34.8833736 124.501009,41.0001441 132.057045,41.0001441 C136.195063,41.0001441 140.333441,39.2006065 142.85164,36.502381 C143.391459,35.9625917 143.751459,35.2433532 143.751459,34.523394 C143.751459,33.9839651 143.572,33.4441759 143.212,33.0845566 C142.67218,32.5447674 141.95218,32.1851481 141.232901,32.1851481 C140.692721,32.1851481 140.152901,32.3645974 139.793261,32.7242167 C137.634342,34.7032036 135.115423,35.9625917 132.057045,35.9625917 C127.739207,35.9625917 124.680468,33.0845566 124.320829,29.125862 L142.67218,29.125862 C143.751459,29.125862 144.830739,28.2264535 144.830739,27.507215 L144.830739,27.507215 Z" id="Fill-28"></path>
                                <path d="M99.6723604,35.7831785 C94.9948829,35.7831785 91.9365045,32.0050142 91.9365045,27.327081 C91.9365045,22.6498686 94.9948829,18.8717042 99.6723604,18.8717042 C104.530018,18.8717042 107.408937,22.4700589 107.408937,27.327081 C107.408937,32.1851841 104.350198,35.7831785 99.6723604,35.7831785 M113.165694,37.7614448 L113.165694,3.04016884 C113.165694,1.42116147 111.906595,0.16213371 110.287495,0.16213371 C108.668036,0.16213371 107.408937,1.42116147 107.408937,3.04016884 L107.408937,18.331915 C105.969658,15.6333292 102.731459,13.8345122 98.9530811,13.8345122 C91.3963243,13.8345122 86.1786667,19.5916635 86.1786667,27.327081 C86.1786667,35.0628589 91.3963243,40.8200102 98.9530811,40.8200102 C102.550919,40.8200102 105.789838,39.2006425 107.408937,36.322247 L107.408937,37.7614448 C107.408937,39.3811728 108.668036,40.6402006 110.287495,40.6402006 C111.906595,40.6402006 113.346234,39.3811728 113.165694,37.7614448" id="Fill-26"></path>
                                <path d="M69.2671351,13.6546305 C62.6101982,13.6546305 57.0329009,18.8719925 57.0329009,25.8878112 L57.0329009,37.9415427 C57.0329009,39.5609104 58.2923604,40.8199381 59.9118198,40.8199381 C61.5309189,40.8199381 62.790018,39.5609104 62.790018,37.9415427 L62.790018,26.0679812 C62.790018,22.1100073 64.9492973,18.8719925 69.2671351,18.8719925 C73.4051532,18.8719925 75.7442523,22.1100073 75.7442523,26.0679812 L75.7442523,37.9415427 C75.7442523,39.5609104 77.0033514,40.8199381 78.6224505,40.8199381 C80.2419099,40.8199381 81.5013694,39.5609104 81.5013694,37.9415427 L81.5013694,25.8878112 C81.5013694,18.8719925 76.1038919,13.6546305 69.2671351,13.6546305" id="Fill-35"></path>
                                <path d="M31.8449009,24.9891594 C32.3847207,21.0308252 35.0834595,18.512049 39.0412973,18.512049 C42.9998559,18.512049 45.8780541,21.3908048 46.4178739,24.9891594 L31.8449009,24.9891594 Z M51.9951712,27.507215 C51.9951712,19.7714371 46.4178739,14.0142858 39.0412973,14.0142858 C31.6647207,14.0142858 25.7277838,19.951607 25.7277838,27.507215 C25.7277838,34.8833736 31.6647207,41.0001441 39.2214775,41.0001441 C43.3594955,41.0001441 47.4975135,39.2006065 50.0164324,36.502381 C50.5558919,35.9625917 50.9158919,35.2433532 50.9158919,34.523394 C50.9158919,33.9839651 50.7357117,33.4441759 50.3760721,33.0845566 C50.0164324,32.5447674 49.2967928,32.1851481 48.5771532,32.1851481 C48.0373333,32.1851481 47.4975135,32.3645974 47.1375135,32.7242167 C44.9785946,34.7032036 42.460036,35.9625917 39.4012973,35.9625917 C35.0834595,35.9625917 32.0250811,33.0845566 31.6647207,29.125862 L50.0164324,29.125862 C51.0957117,29.125862 52.1753514,28.2264535 51.9951712,27.507215 L51.9951712,27.507215 Z" id="Fill-23"></path>
                                <path d="M21.9494414,18.6920027 L7.91664865,35.2434973 L19.9707027,35.2434973 C21.2301622,35.2434973 22.3098018,36.3223551 22.3098018,37.5824639 C22.3098018,38.8411313 21.2301622,39.9203495 19.9707027,39.9203495 L2.33935135,39.9203495 C1.07953153,39.9203495 -0.000108108108,38.6609614 -0.000108108108,37.4019336 C-0.000108108108,36.8621444 0.180072072,36.1432662 0.719891892,35.6027563 L14.753045,19.0519823 L2.51917117,19.0519823 C1.25935135,19.0519823 0.180072072,17.9720435 0.180072072,16.7133761 C0.180072072,15.4536276 1.25935135,14.3744095 2.51917117,14.3744095 L19.7908829,14.3744095 C21.409982,14.3744095 22.4896216,15.6334373 22.4896216,17.072635 C22.4896216,17.7925942 22.3098018,18.3320231 21.9494414,18.6920027" id="Fill-20"></path>
                            </g>
                        </g>
                    </g>
                </g>
            </g>
        </g>
    </g>
</svg>