<?xml version="1.0" encoding="UTF-8"?>
<svg width="24px" height="23px" viewBox="0 0 24 23" version="1.1" xmlns="http://www.w3.org/2000/svg" xmlns:xlink="http://www.w3.org/1999/xlink">
    <!-- Generator: Sketch 54.1 (76490) - https://sketchapp.com -->
    <title>LinkedIn</title>
    <desc>Created with Sketch.</desc>
    <g id="Symbols" stroke="none" stroke-width="1" fill="none" fill-rule="evenodd">
        <g id="Social-/-LinkedIn" transform="translate(0.000000, -1.000000)" fill="#35363D" fill-rule="nonzero">
            <path d="M4.98,3.5 C4.98,4.881 3.87,6 2.5,6 C1.13,6 0.02,4.881 0.02,3.5 C0.02,2.12 1.13,1 2.5,1 C3.87,1 4.98,2.12 4.98,3.5 Z M5,8 L0,8 L0,24 L5,24 L5,8 Z M12.982,8 L8.014,8 L8.014,24 L12.983,24 L12.983,15.601 C12.983,10.931 19.012,10.549 19.012,15.601 L19.012,24 L24,24 L24,13.869 C24,5.989 15.078,6.276 12.982,10.155 L12.982,8 Z" id="LinkedIn"></path>
        </g>
    </g>
</svg>