<svg width="368" height="91" xmlns="http://www.w3.org/2000/svg" xmlns:xlink="http://www.w3.org/1999/xlink"><defs><path id="a" d="M.119.387h99.83v43.214H.119z"/></defs><g fill="none" fill-rule="evenodd"><path d="M128.896 59.855c-1.338-1.436-2.7-2.944-3.627-4.65-1.59-2.923-1.1-4.15 1.995-5.805 1.52-.814 2.86-1.597 2.516-3.631-6.018-1.02-8.465 2.138-8.751 11.52-4.443 1.453-9.116 2.6-13.8 1.712-5.705-1.081-11.06-1.348-16.068 2.136-.52.36-1.301.346-1.897.49-.374 1.642-.368 3.22-1.061 4.38-2.76 4.618-11.062 4.17-13.561-.638-.417-.802-.684-1.684-1.107-2.483-2.113-3.989-4.235-4.355-7.613-1.248-1.198 1.102-2.218 2.395-3.348 3.572-1.254 1.309-2.422 2.736-3.835 3.849-3.88 3.058-6.22 2.337-7.523-2.31-.485-1.728-.612-3.561-.864-5.353-.622-4.406-1.22-8.813-1.837-13.288-4.305.005-5.254 2.919-6.293 5.223-3.173 7.034-7.653 13.19-12.52 19.056-4.16 5.016-8.37 10.11-14.375 13.12-4.062 2.035-6.744 1.534-8.572-2.534-1.663-3.701-2.998-7.925-3.014-11.925-.067-16.017 5.504-30.26 15.588-42.567 4.359-5.32 9.586-9.957 16.42-12.188 6.283-2.05 11.256.26 13.458 6.454.662 1.86 1.01 3.866 1.256 5.835.527 4.221.893 8.462 1.365 13.087.818-.657 1.515-.934 1.566-1.3 1.048-7.486.892-14.896-2.672-21.759-2.155-4.149-5.762-6.29-10.617-6.416-4.011-.106-7.495 1.247-10.801 3.193-9.014 5.303-15.53 12.953-20.44 22.08C2.722 48.887-.646 60.974.105 74.03c.254 4.422 1.384 8.622 4.084 12.22 2.947 3.922 6.583 5.186 10.976 3.343 2.793-1.171 5.707-2.704 7.767-4.844 5.27-5.475 10.11-11.365 15.086-17.121a72.64 72.64 0 004.056-5.107c1.15-1.603 2.13-3.328 3.65-5.736.682 4.611.895 8.09 1.75 11.4 1.605 6.214 7.062 8.438 12.142 5.003 2.073-1.4 3.765-3.371 5.593-5.123 1.36-1.306 2.66-2.675 4.238-4.27 2.148 4.404 3.746 8.41 8.48 9.444 4.774 1.044 7.938-1.341 10.216-5.218.83.44 1.273.738 1.76.916.625.23 1.285.36 1.905.525.489-.677.866-1.072 1.096-1.537 2.932-5.959 3.908-6.425 10.582-5.549 6.886.906 13.709 1.044 20.357-2.92 2.859 3.032 5.706 5.84 8.296 8.866 2.204 2.575 1.748 4.728-1.43 5.907-2.303.852-4.993 1.5-7.361 1.17-5.918-.823-11.807-2.105-17.625-6.992 5.675 10.157 18.66 14.106 27.442 9.299 4.875-2.67 5.806-6.898 2.213-11.264-1.95-2.37-4.383-4.332-6.481-6.587M260.45 61.667C253.405 41.927 248.36 21.845 250.391 0c-3.372.34-3.58 2.382-3.915 4.313-.743 4.284-1.332 8.6-2.249 12.847-1.723 7.974-3.318 16.016-7.257 23.297-1.334 2.466-2.44 5.274-6.404 6.262-1.163-2.428-2.654-4.7-3.368-7.195-1.642-5.746-2.876-11.607-4.333-17.408-.926-3.686-1.81-7.395-3.039-10.982-.298-.87-1.84-1.641-2.9-1.781-.519-.068-1.519 1.33-1.81 2.224-.56 1.712-.883 3.524-1.104 5.32a417.228 417.228 0 00-3.126 50.48c-.004 3.428.42 6.889 1.018 10.269.374 2.119 1.131 4.43 3.69 4.59-.583-3.513-1.6-6.684-1.542-9.836.22-11.967.647-23.935 1.284-35.888.302-5.675 1.25-11.315 1.906-16.971 1.307 1.497 1.73 3.02 2.111 4.554 1.486 5.982 2.75 12.029 4.511 17.928 1.131 3.79 2.575 8.209 7.214 8.672 4.957.495 7.142-3.86 9.033-7.51 2.072-4.001 3.486-8.344 5.193-12.535.427-1.05.88-2.088 1.703-4.034 3.636 20.196 8.261 38.884 20.105 55.713 0-1.247.14-1.805-.02-2.255-2.193-6.144-4.453-12.263-6.644-18.407M174.74 47.228l-5.872 1.366c-.35-.667-.591-1.328-1.004-1.854-.375-.478-.938-.808-1.811-1.527l-1.59 4.978c-5.643 2.763-11.993 4.256-16.612 9.051 6.189-.285 11.017-4.336 16.666-6.032 1.702 4.59-.086 9.662 2.26 13.998.95-.379 1.566-.508 1.567-.643.049-4.973.04-9.946.04-15.28l6.63-3.415-.273-.642" fill="#FFF"/><path d="M115.123 49.116c.238.132 1.607-.913 1.667-1.5.134-1.317-.228-2.685-.388-4.033l-1.352-.556c-.637 1.354-1.524 2.663-1.787 4.086-.106.57 1.068 1.565 1.86 2.003" fill="#FFF"/><g transform="translate(268 35.427)"><mask id="b" fill="#fff"><use xlink:href="#a"/></mask><path d="M74.236 28.536c1.511-1.415 2.848-2.22 3.481-3.401.51-.95.626-2.68.071-3.464-.553-.781-2.339-1.36-3.265-1.054-1.445.475-3.1 1.5-3.81 2.772-1.554 2.786-3.946 3.338-6.723 3.824-7.844 1.37-15.149-.276-22.152-3.663-1.868-.904-3.52-2.248-5.95-3.831 3.996-3.511 7.324-6.515 10.742-9.412 3.478-2.95 7.73-5.014 10.871-8.546-2.408-2.646-3.79-.83-5.08.159-6.473 4.96-12.887 9.999-19.307 15.029-1.379 1.08-2.698 2.24-4.399 3.658-.49-1.256-.87-2.03-1.1-2.845-1.378-4.88-2.657-9.79-4.138-14.637-.245-.802-1.32-1.352-2.01-2.018-.483.85-1.36 1.7-1.363 2.553-.004 1.604.543 3.202.783 4.814 1.062 7.125-.418 13.79-4.299 19.762-3.778 5.81-8.528 5.71-12.499.046-.98-1.397-1.82-2.89-2.686-4.275-.574.273-.798.305-.872.428-.18.302-.459.674-.406.966.91 5.108 3.912 8.553 8.773 10.118 4.722 1.52 7.348-2 10.092-4.861.728-.76 1.164-1.833 1.62-2.816 1.135-2.456 2.205-4.943 3.591-8.072 2.526 5.88 4.634 11.084 7 16.167 1.131 2.434 2.668 4.7 4.216 6.905.352.5 1.506.438 2.79.759-2.5-5.098-4.759-9.428-6.756-13.875-1.203-2.68-1.19-5.293 2.213-6.931 1.296.842 2.612 1.765 3.99 2.584 7.016 4.168 14.545 6.487 22.773 6.075 6.902-.345 8.536-.126 14.65 2.38 5.944 2.439 17.293 1.972 24.872-1.232-8.998.163-17.705 1.452-25.713-4.066" fill="#FFF" mask="url(#b)"/></g><path d="M266.855 47.712c1.562-1.847 1.425-3.24-.26-4.962-1.612 1.843-2.1 3.258.26 4.962" fill="#FFF"/></g></svg>