<?xml version="1.0" encoding="UTF-8"?>
<svg width="24px" height="19px" viewBox="0 0 24 19" version="1.1" xmlns="http://www.w3.org/2000/svg" xmlns:xlink="http://www.w3.org/1999/xlink">
    <!-- Generator: Sketch 54.1 (76490) - https://sketchapp.com -->
    <title>Twitter</title>
    <desc>Created with Sketch.</desc>
    <g id="Symbols" stroke="none" stroke-width="1" fill="none" fill-rule="evenodd">
        <g id="Social-/-Twitter" transform="translate(0.000000, -3.000000)" fill="#35363D" fill-rule="nonzero">
            <path d="M24,5.24933347 C23.117,5.63120386 22.168,5.88838187 21.172,6.00430681 C22.189,5.41104389 22.97,4.47098031 23.337,3.35069729 C22.386,3.90012305 21.332,4.2995283 20.21,4.51481747 C19.313,3.58254717 18.032,3 16.616,3 C13.437,3 11.101,5.88935603 11.819,8.88879204 C7.728,8.68908942 4.1,6.77973749 1.671,3.87771739 C0.381,6.03353158 1.002,8.85372231 3.194,10.2818396 C2.388,10.2565115 1.628,10.0412223 0.965,9.68175759 C0.911,11.9038146 2.546,13.9826702 4.914,14.4453958 C4.221,14.6285377 3.462,14.6714007 2.69,14.5272252 C3.316,16.4326805 5.134,17.8189089 7.29,17.8578753 C5.22,19.4389356 2.612,20.145201 0,19.84516 C2.179,21.2060603 4.768,22 7.548,22 C16.69,22 21.855,14.4785172 21.543,7.73246514 C22.505,7.05542453 23.34,6.21082855 24,5.24933347 Z" id="Twitter"></path>
        </g>
    </g>
</svg>