<?xml version="1.0" encoding="utf-8"?>
<!-- Generator: Adobe Illustrator 23.1.1, SVG Export Plug-In . SVG Version: 6.00 Build 0)  -->
<svg version="1.1" id="Layer_1" xmlns="http://www.w3.org/2000/svg" xmlns:xlink="http://www.w3.org/1999/xlink" x="0px" y="0px"
	 viewBox="0 0 200 200" style="enable-background:new 0 0 200 200;" xml:space="preserve">
<style type="text/css">
	.st0{fill:#FFFFFF;}
	.st1{fill:#542E91;}
	.st2{fill:#FDDC06;}
</style>
<g>
	<path class="st0" d="M132.3,37.7C132.3,37.7,132.3,37.7,132.3,37.7c-2.9,0-9.4,0.3-18.2,1.2c-0.5-0.2-1-0.3-1.6-0.3
		c-0.3,0-0.6,0-0.9,0.1l-1,0.2c-0.5,0.1-1,0.3-1.5,0.5c-7.8,0.9-16,2.1-24.5,3.5C78.1,44,67,46,60.4,47.2c-2.5-3.1-5.1-4.2-6-4.5
		c-1.1-0.4-2.2-0.6-3.4-0.6c-1.2,0-2.3,0.2-3.3,0.6c-0.5,0.2-1.6,0.7-2.5,1.8c0,0-0.1,0-0.1,0C44.1,44.2,43,44,41.8,44
		c-1.2,0-2.3,0.2-3.3,0.6c-0.6,0.3-2.6,1.2-3.4,3.5c-0.5,1.4-0.4,2.9,0.3,4.2c-2.3,1.3-4,3.7-4.2,6l0,0.1c0,0.2,0,0.6,0,1.1
		c-3.7,0.8-7.3,1.5-10.6,2.3l-0.4,0.1c-1.7,0.3-3.1,1.2-4,2.7c-0.1,0.2-0.3,0.5-0.5,0.9c-0.5,0.5-1,1.1-1.3,1.8
		c-0.1,0.1-0.1,0.4-0.8,2.4c-0.6,0.6-1.1,1.3-1.4,2.3c-0.7,0.9-1,2.1-0.9,3.3c0,0.4,0.1,0.8,0.2,1.2c-0.1,0.4-0.3,0.9-0.4,1.3
		c-0.3,1.2-1.3,6.3-1.4,9c-0.1,1.8-0.3,6-0.3,7.9c-0.3,0.8-0.6,1.9-0.6,3.3c0,1.3,0.3,2.3,0.6,3.1l1.1,17.2
		c-0.1,0.2-0.1,0.4-0.2,0.6c-0.2,0.7-0.2,1.4-0.1,2.8c0.1,0.9,0.1,1.7,0.6,2.6c0,0.3,0,0.5,0,0.8c0.1,0.8,0.8,5.6,1.1,6.7
		c0.1,0.5,0.3,0.9,0.4,1.3c0.2,1.2,0.4,2.1,0.5,2.8c-1.2,1.7-1.2,3.9-1.2,5c0,2.1,0.5,5.1,1.2,6.5c0.5,1.1,1.6,3.5,4.2,4.3
		c0.5,0.2,1.1,0.2,1.7,0.2c0.7,0,1.3-0.1,1.9-0.2c0.2,0,0.6-0.1,0.7-0.1c0.8,0,2-0.2,4.4-0.6c0.6-0.1,1.3-0.2,1.6-0.3
		c0.1,0,0.1,0,0.2,0l5.6-0.9c3.2,6.4,9.9,10.6,17.3,10.6c1,0,2-0.1,3-0.2c8.5-1.3,14.9-8,16.2-16.2c20.9-3.3,46.3-7.3,67.7-10.7
		c3.2,6.6,9.9,10.9,17.5,10.9c1,0,2-0.1,3-0.2c8.6-1.3,15.1-8.2,16.2-16.5c8.7-1.4,8.9-1.4,9.1-1.5c1.4-0.3,7.4-2.4,8.4-6.8
		c0.3-1.5,0.2-3.5-0.5-5.9c-0.9-3.2-1.8-4.5-2.7-5.2c0-0.3,0.1-0.6,0.1-1c0.1-0.7-0.1-1.5-0.3-2.2c-0.2-0.5-0.5-1.3-1-2
		c0-0.4-0.1-0.8-0.1-1.2c-0.1-0.3-0.2-1.1-0.3-1.8c0.1-1.3,0.2-3.8-0.5-6.7c-0.5-1.8-1.1-3.8-2.2-5.2c-0.5-2.7-1.3-6.7-1.8-8.1
		c-1.2-3.1-1.6-4.3-3-5.3l-0.1,0c0,0-0.1,0-0.1-0.1c-0.2-0.4-0.5-0.8-0.7-1.1c-0.2-0.3-0.4-0.6-0.7-0.8c-0.9-0.9-1.6-1.5-2.1-1.8
		c-0.3-0.2-0.6-0.4-0.9-0.5c-0.4-0.4-0.9-0.7-1.4-1l-13.5-17c0-0.2-0.1-0.3-0.2-0.5c-0.2-0.6-0.6-1.1-1-1.6
		c-0.2-0.6-0.4-1.1-0.8-1.6c-0.4-0.5-1-1.1-1.9-1.6c-0.2-0.2-0.5-0.5-0.7-0.7c-1-1-1.7-1.7-2.4-2.1c-1.1-1.3-2.1-2.1-3.4-2.3
		c-0.4-0.1-0.7-0.1-1.3-0.1c-1.3,0-4,0.2-6.4,0.5c-0.4,0-1.1,0.1-2,0.2c-0.2,0-0.4,0-0.6,0c-0.5-1.9-1.9-3.7-3.7-4.4
		C134.4,37.7,133.6,37.7,132.3,37.7L132.3,37.7L132.3,37.7z"/>
	<path class="st1" d="M185.3,111.3c-0.7-0.5-2.6-0.4-2.6-0.4l0-2c0,0,0.6-0.6,0.8-0.7c0.2-0.1,0.3-1.6,0.3-1.6s-0.6-1.5-0.9-1.5
		c-0.3,0-0.6-0.2-0.6-0.2l-0.3-1.3c0,0,0.5-0.2,0.4-0.9c-0.2-0.7-0.5-2.7-0.5-2.7s0.5-2.4-0.4-5.6c-0.8-3.3-1.5-3.8-2-4
		c0,0-1.3-7.4-1.9-8.9c-0.6-1.5-1.1-3-1.3-3.1s-1.1-0.7-1.3-1.1c-0.2-0.4-0.9-1.5-0.9-1.5s-1.1-1-1.5-1.3c-0.4-0.3-0.8-0.3-0.8-0.3
		s-0.9-0.9-1.1-0.9c-0.3,0-0.5-0.1-0.5-0.1L155.2,54c0,0,0-0.4-0.1-0.7c-0.1-0.3-0.8-0.8-0.9-0.9c-0.2-0.1-0.5-0.3-0.5-0.3
		s0.4-0.6,0.3-0.8c-0.2-0.2-0.6-0.5-0.7-0.4c-0.1,0-2.7-2.7-2.9-2.7c-0.1,0-0.5-0.1-0.5-0.1s-1.2-1.6-1.6-1.7
		c-0.4-0.1-3.3,0.1-6.2,0.4c-2,0.3-8.1,0.4-27.5,3.1c-0.2-0.2-0.4-0.3-0.6-0.3l-0.3-1.7c0.4-0.2,0.6-0.6,0.5-1l0-0.2
		c9.9-1.2,18.4-1.7,19.7-1.8c1.6-0.1,0.4-2.3-0.3-2.6c-0.4-0.2-7.8-0.1-20.6,1.3l0,0c0-0.2-0.3-0.4-0.5-0.4l-1,0.2
		c-0.2,0-0.4,0.2-0.4,0.4c-7.1,0.8-15.7,2-25.7,3.6c-6.2,1-17.2,3-27,4.8c-1.8-3.3-4.1-4.8-5.4-5.2c-1.4-0.5-2.6-0.4-3.3-0.1
		c-0.6,0.3-0.9,0.6-1.1,1c-0.2,0.4,0.1,0.6,0.4,0.8c0.3,0.1,1.6,0.6,2.4,1.4c0.8,0.8,1.4,1.5,1.1,3.2c-0.2,0-0.5,0.1-0.7,0.1
		c-0.1-0.2-0.3-0.4-0.5-0.3l-1,0.2c-0.2,0-0.4,0.3-0.4,0.5c-0.3,0.1-0.6,0.1-0.8,0.2c-1.7-3.2-4.1-4.7-5.3-5.1
		c-1.4-0.5-2.6-0.4-3.3-0.1c-0.6,0.3-0.9,0.6-1.1,1c-0.2,0.4,0.1,0.6,0.4,0.8c0.3,0.1,1.6,0.6,2.4,1.4c0.8,0.8,1.3,1.4,1.1,3.1
		c-2.9,0.5-4.8,0.9-5.1,1c-1.3,0.3-2.5,1.7-2.5,2.6c0,0.9-0.2,1.7,2.8,1.1c0.8-0.1,5.3-1,11.7-2.1c0.1,0.3,0.4,0.5,0.8,0.6l0.2,1
		c-0.4,0.2-0.6,0.6-0.5,1l0,0.2c-20,3.7-29.1,5.9-29.6,6c-0.6,0.1-0.9,0.4-1.2,0.7c-0.2,0.4-0.8,1.5-0.8,1.5s-0.6,0.2-0.7,0.5
		c-0.1,0.3-1.1,3.5-1.1,3.5s-0.9,0.4-0.9,0.9c-0.1,0.4,0.1,0.8,0.1,0.8s-0.9,0.3-0.8,0.8c0,0.6,0.5,1.2,0.5,1.2s-0.6,1.6-0.8,2.6
		c-0.2,1-1.2,5.9-1.3,8.2c-0.2,2.3-0.4,8.8-0.4,8.8s-0.6,0.7-0.6,1.9c0,1.2,0.3,1.7,0.5,1.8l1.3,20.2c0,0-0.4,0-0.5,0.2
		c-0.1,0.2,0.1,2.2,0.2,2.3c0.1,0.1,0.5,0.2,0.5,0.2l0.1,1.2c0,0-0.3,0.5-0.3,0.9c0,0.5,0.8,5.1,1,6.1c0.2,1,0.4,1,0.4,1
		s0.8,4.8,1,5.3c0.2,0.6,0.4,1.1,0.4,1.1s-0.7,0.2-1.4,0.3c-0.5,0.1-0.5,1-0.5,2.4c0,1.7,0.5,3.9,0.8,4.6c0.3,0.7,0.8,1.6,1.4,1.8
		s2.1-0.2,3-0.2c0.9,0,4.8-0.7,5.6-0.8c0,0,3.4-0.5,9.2-1.5c1.9,7.3,9.1,12.2,16.7,11c7.7-1.2,13-8,12.6-15.6
		c22.8-3.6,51.6-8.2,75-11.9c1.8,7.5,9.1,12.5,16.8,11.3c7.8-1.2,13.2-8.2,12.6-15.9c7.6-1.2,12.3-2,12.5-2c1.1-0.2,4.6-1.8,4.9-3.4
		S186,111.8,185.3,111.3z M53.6,59.7l0-0.2c-0.1-0.4-0.4-0.7-0.8-0.7l-0.2-1c0.3-0.1,0.5-0.4,0.5-0.8c17.9-3.2,46.7-8.3,53.3-9.4
		c1.6-0.3,3.3-0.5,4.9-0.7l0.1,0.4c0.1,0.4,0.4,0.7,0.8,0.7l0.3,1.7c-0.2,0.1-0.3,0.2-0.4,0.4c-7.4,1.1-16.6,2.5-27.9,4.3
		C72.1,56.4,62,58.2,53.6,59.7z"/>
</g>
<g>
	<g>
		<path class="st0" d="M55.6,97.9L54.8,98c-2,0.3-3.5-1.3-4.5-4.7s-2.3-5.4-3.8-5.8c-2.5,2.2-3,2.9-3.5,4.7
			c-0.6,2.7-0.2,5.2-0.1,7.2c0,0-0.1,0.2-0.2,0.4c-0.1,0.1-0.3,0.2-0.9,0.6c-0.7,0.3-0.4,0.3-1.1,0.4c-0.7,0.1-1.2-0.5-1.5-0.8
			c-0.3-0.4-0.4-0.8-0.7-1.4c-0.7-1.4-1.5-4.4-2.4-8.8c-0.6-3.1-0.6-1.3-1.3-6c-0.7-4.8-0.7-4.3-1-6.6c-0.1-0.6,0-1.1,0.1-1.5
			c0.1-0.4,0.4-0.6,0.7-0.6c1.4-0.2,2.4-0.6,3.6,2.8c0.8,2.4,1.4,4.1,1.8,6.2c0.5,2.2,0.2,0.4,0.5,2.8c0.7-1.5,1.4-2.7,2.1-3.6
			c1.1-1.5,2.3-1.5,3.3-1.7c2.4-0.4,4.6,1.8,6.6,6.3C54.3,91.5,55.3,94.9,55.6,97.9z"/>
		<path class="st0" d="M76.8,83c0.5,3.1-1.1,6.2-4.6,9.4c-3.2,2.9-6.5,4.6-9.8,5c-1.8,0.3-3.1,0-4-0.8c-0.9-0.8-1.4-2.2-1.7-4
			c-0.4-2.4-0.1-4.7,0.7-6.8c0.8-2.3,2.2-4.3,4-5.9c0.6-0.7,1.1-1.3,1.5-1.6c0.6-0.7,1.2-1,1.8-1.1c2.6-0.4,5-0.2,7.4,0.7
			C74.8,79,76.4,80.7,76.8,83z M72.9,84c-0.1-0.9-0.7-1.6-1.7-2.1c-1-0.5-2-0.6-2.9-0.4c-2,0.3-3.9,1.6-5.6,3.7s-2.5,4.2-2.2,6
			c0.1,0.8,0.5,1.3,1.1,1.5c0.6,0.2,1.4,0.3,2.2,0.1c1.7-0.3,3.7-1.4,5.8-3.3C72.1,87.4,73.1,85.6,72.9,84z"/>
		<path class="st0" d="M85,94.1l-1.1,0.3c-0.4,0.1-0.9,0.1-1.3,0c-0.4-0.1-0.7-0.2-0.9-0.5c0-0.1-0.5-1.9-1.3-5.3
			c-1.1-4.8-1.2-3.7-1.6-5.4c-0.8-3.6-1.2-4.9-1.2-5.4l-1.2-7.1c-0.1-0.3-0.1-0.6-0.1-0.8c-0.1-0.5-0.1-1-0.1-1.4
			c0-0.4,0.2-0.7,0.6-0.9c0.9,0.2,1.7,0.6,2.2,1.2c0.5,0.5,0.9,1.3,1.2,2.3c0.3,1,0.6,2.1,0.9,3.3c0.3,1.2,0.5,2.5,0.7,3.9
			c0,0.3-0.1-0.3,0-0.2c0.1,0.7,0.2,1.3,0.3,1.9c0.1,0.6,0.2,1.3,0.3,1.9c0.3,1.9,0.1,0.2,1,4C84.2,89.4,84.7,92.2,85,94.1z"/>
		<path class="st0" d="M87.3,69.3c0.1,0.5,0,0.9-0.1,1.3c-0.2,0.4-0.5,0.7-1,0.7c-0.6,0.1-1.2-0.2-1.8-0.9c-0.6-0.7-0.9-1.5-1-2.2
			c-0.1-0.5,0-0.9,0.1-1.4c0.1-0.4,0.4-0.7,0.9-0.8c0.6-0.1,1.2,0.2,1.9,1C86.8,68,87.2,68.6,87.3,69.3z M91.8,82.4
			c0.3,2.1,0.6,3.9,0.7,5.3c0.1,1.5,0.1,3.1,0.1,4.7c-1.5,0-2.5-0.4-3.2-1.2C89.4,91.1,88.9,90,88,88c-0.2-0.4-0.4-1-0.5-1.6
			c-0.2-0.6-0.3-1.3-0.4-1.9c-0.1-0.8-0.3-2-0.4-3.6c-0.1-1.6-0.3-2.8-0.4-3.6c0.3,0,0.8-0.3,1.5-0.6c0.4-0.2,0.7-0.3,0.9-0.4
			c0.4-0.1,1,0.5,1.7,1.6s1.2,2,1.3,2.5L91.8,82.4L91.8,82.4z"/>
		<path class="st0" d="M109.9,68.2c0.5,3.3,0.5,2.9,0.8,4.9c1.2,8.1,1.8,12.6,2,13.4c-0.2,0-0.7,0-1.6,0c-0.9,0-1.6,0-2,0.1
			c-1.2,1.1-2.3,2-3.4,2.9c-1.1,0.8-2.4,1.4-3.8,1.6c-1.7,0.3-3.3-0.2-4.7-1.4c-1.4-1.2-2.3-2.6-2.6-4.4c-0.3-2.1,0.2-4.4,1.6-7
			c1.5-2.8,3.3-4.4,5.2-4.7c0.6-0.1,1.2-0.1,1.7-0.1s1.2,0.1,2.1,0.2c0.1-0.6,0.1-1.2-0.3-4.7c-0.5-3.6,0-4.5,0.8-5.7
			c1.2,0.3,2.1,0.8,2.8,1.6C109.4,65.9,109.8,67,109.9,68.2z M107,79.2c-0.1-0.6-0.4-1.1-0.8-1.5c-0.4-0.4-1-0.5-1.6-0.4
			c-1.3,0.2-2.5,1.2-3.6,3c-1,1.8-1.5,3.4-1.3,4.7c0.1,0.6,0.3,1.1,0.7,1.5c0.4,0.4,0.9,0.6,1.5,0.4c1.1-0.2,2.2-1.2,3.4-3.2
			C106.6,81.8,107.2,80.3,107,79.2z"/>
		<path class="st0" d="M130.9,81.3c0.2,1,0.2,2,0.2,2.8c0,0.9-0.1,1.7-0.3,2.6c-1.2-0.1-2.2-0.6-3-1.3c-0.3-0.3-1-1.2-2.1-2.6
			c-0.1,0.3-1,1.3-2.8,2.9c-1.8,1.6-2.9,2.5-3.3,2.6c-1.6,0.3-2.8-0.1-3.7-1c-0.9-0.9-1.5-2.2-1.7-3.8c-0.4-2.3,0.4-5.7,2.3-10.3
			c2-4.8,4-7.4,5.7-7.7c2-0.3,3.7,0.9,5,3.5C128.8,71.6,129.9,75.8,130.9,81.3z M124.1,71.2c0-0.2-0.1-0.4-0.1-0.6
			c-0.1-0.3-0.2-0.6-0.3-1c-0.3,0-0.6,0.2-1,0.6c-0.4,0.3-0.7,0.7-1,1c-0.5,0.8-1.2,2.5-2.1,5.1c-0.8,2.7-1.2,4.5-1.1,5.3l0.1,0.5
			c2-0.8,3.5-2.3,4.5-4.5C124.2,75.6,124.5,73.4,124.1,71.2z"/>
		<path class="st0" d="M147.5,66.4c0.1,0.9-0.3,4.1-1.4,9.5c-1,4.7-0.1,2.3-1.4,7.7c-1.3,5.5-1.3,4.7-1.8,5.9
			c-0.2,0.5-0.5,1-0.9,1.3c-0.3,0.3-0.8,0.5-1.3,0.6c-0.7,0.1-1.3,0.1-1.9-0.2c-0.5-0.2-0.9-0.7-1-1.3c-0.1-0.9,0.3-2.3,0.6-3.4
			s0.6-1.5,0.9-2.7c0.3-1.2,0.3-1.3,0.1-2.5c-0.3-1.7-1.7-3.4-3.3-5.1c-1.5-1.5-3-3-4.5-4.5c-1.7-1.9-2.7-3.7-2.9-5.4
			c2.5,0,5.1,1.7,7.9,5c1.8,2.2,3.2,3.7,4.1,4.3c0.6-2.1,1-4.3,1.3-6.5c0.3-2,0.5-4.2,0.7-6.5l0.6-0.5c1.1,0,2,0.5,2.8,1.4
			C146.9,64.3,147.3,65.2,147.5,66.4z"/>
	</g>
	<g>
		<path class="st2" d="M62,122.6c0.3,1.5-0.9,3-3.4,4.5c-2,1.2-4,1.9-5.7,2.2c-3,0.5-5.4,0.2-7.5-0.8c-2.5-1.2-3.9-3.2-4.4-5.9
			c-0.4-2.7,0.3-5.3,2.2-7.9s4.3-4.1,6.9-4.6c1.8-0.3,3.6,0.1,5.4,1.2c1.8,1.1,2.9,2.6,3.2,4.4c0.3,2.1-2.4,3.9-8,5.4
			c-3.3,0.8-5.2,1.3-5.9,1.5l0.1,0.8c0.1,0.8,0.9,1.3,2.4,1.7c1.2,0.3,2.3,0.4,3.2,0.2c1.2-0.2,2.6-0.7,4.2-1.6
			c1.6-0.9,3.3-1.8,4.9-2.8c0.5-0.1,1.1,0,1.6,0.4C61.6,121.6,61.9,122.1,62,122.6z M54.4,115.9c-0.1-0.7-0.7-1.2-1.6-1.5
			c-1-0.3-1.9-0.4-2.7-0.3c-1,0.2-1.9,0.6-2.7,1.4c-0.5,0.5-1.1,1.3-1.9,2.5c1.4,0.1,3,0,4.7-0.2c0.7-0.1,1.4-0.3,2.2-0.5
			c0.8-0.2,1.5-0.5,2.2-0.7L54.4,115.9z"/>
		<path class="st2" d="M79.9,122.3l0.3,2c-1.3-0.1-2.6-0.6-3.9-1.5c-3.1-2.2-5.6-3.2-5.9-3.3c-0.5,1.3-1.4,3-2.6,4.9
			c-0.6,1-1.2,1.9-1.7,2.9c-0.3-0.2-0.6-0.5-1.2-0.9c-1-0.7-1.5-1.3-1.5-1.9c-0.1-0.8,0.6-2.7,2.2-5.4c0.8-1.3,1.1-2.4,0.9-3.4
			c-0.2-1.1-2.7-2.2-4.1-3.9c-1.5-1.6-2.2-2.7-2.3-3.2s-0.1-0.9,0.1-1.4c0.1-0.4,0.4-0.7,0.8-0.9c0.5,0.1,1.2,0.6,2.1,1.5
			c2.4,2.3,5.4,3.4,5.9,3.7c0.6-2.4,1-3.7,1-3.9c0.7-1.8,1.6-2.8,2.6-3c0.4-0.1,0.8,0,1.1,0.3c0.3,0.3,0.5,0.9,0.6,1.7
			c0.2,1.3,0.1,2.7-0.4,4.1s-0.9,2.9-1.4,4.3c0.1,0.3,2.3,1.6,5,4C79,120,79.7,121.1,79.9,122.3z"/>
		<path class="st2" d="M97.1,103.4h-0.3h-0.3c-0.2,0.2-0.2,0.5-0.2,0.7c0,0.1,0.1,0.4,0.3,0.6c-0.1,1.3-1.3,2.2-3.8,2.6
			c-2.5,0.5-4.1,1.3-4.7,2.4c-0.1,0.5,0,1,0.1,1.6c0,0.2,0.1,0.5,0.2,1c0.1,0.4,0.1,0.8,0.2,1.1c0.1,0.6,0.2,2.2,0.2,4.7
			c0,1.2,0.1,2.1,0.2,2.8c0.1,0.9,0.4,1.7,0.8,2.4l-0.9,0.1c-1.1,0.2-2-0.1-2.6-0.7c-0.8-0.7-1.3-2.2-1.7-4.3
			c-0.1-0.7-0.2-1.6-0.3-2.6c-0.2-2.3-0.3-3.7-0.4-4.3c-0.3-1.8-1.7-2.6-4.2-2.4c-2.5,0.2-4-0.7-4.3-2.7c0-0.2-0.1-0.4-0.1-0.6
			c0-0.2,0-0.6,0.1-1.1c1.4,0,2.2,0,2.4,0c1,0,1.8-0.1,2.5-0.2c1.5-0.2,2.5-0.9,3-1.9c0.4-0.8,0.4-1.7,0.3-2.3
			c-0.1-0.6-0.3-1-0.3-1.1c-0.1-0.8-0.1-0.8,0-1.4c1.3,0.1,2.2-0.2,3,0.7c0.9,1.1,1,1.3,1.2,1.6c0.2,0.3,0.2,0.7,0.3,1
			c0,0.1,0.1,0.3,0.2,0.5c0.1,0.2,0.2,0.3,0.2,0.4c0.3,0.1,0.7,0.2,1.1,0.2c0.4,0,0.8,0,1.3-0.1c0.3-0.1,0.7-0.1,1.3-0.3
			c0.6-0.1,1-0.2,1.2-0.2c1-0.1,1.8-0.1,2.4,0.1C96,102.1,96.5,102.6,97.1,103.4z"/>
		<path class="st2" d="M116.1,102.5c0,0.3,0,0.6-0.2,1c-0.2,0.3-0.4,0.5-0.7,0.6c-0.2,0-0.7,0-1.5-0.2c-0.5-0.1-0.8-0.1-1.1,0
			c-2,0.3-3.8,1.9-5.3,4.8c-0.8,1.3-2,4.1-3.6,8.1c-1.2,2.9-2.1,4.5-2.8,4.6c-1.4,0.2-2.7-1.6-3.8-5.3c-0.7-2.5-1.4-5-2-7.5
			l-2.3-5.3c0.3-0.2,0.7-0.4,1.1-0.8c0.4-0.4,0.7-0.6,0.9-0.8c1.7,0.9,2.8,1.6,3.3,2.1c0.4,0.4,0.6,0.9,0.7,1.5
			c0.1,0.8,0.3,1.4,0.4,1.8c0.1,0.4,0.5,1.1,1.2,2c1.1-1.9,2.2-3.8,3.3-5.7c1.2-1.7,3.2-2.8,5.6-3.2c1.5-0.2,2.9-0.2,4.1,0
			C114.9,100.4,115.9,101.3,116.1,102.5z"/>
		<path class="st2" d="M131.8,111c0.2,1,0.2,2,0.3,2.8c0,0.9-0.1,1.7-0.3,2.6c-1.2-0.1-2.2-0.6-3-1.3c-0.3-0.3-1-1.2-2.1-2.6
			c-0.1,0.3-1,1.3-2.8,2.9c-1.8,1.6-2.9,2.5-3.4,2.6c-1.6,0.3-2.8-0.1-3.7-1c-0.9-0.9-1.5-2.2-1.7-3.8c-0.4-2.3,0.4-5.7,2.3-10.3
			c2-4.8,4-7.4,5.8-7.7c2-0.3,3.7,0.9,5,3.5C129.7,101.3,130.8,105.4,131.8,111z M125,100.9c0-0.2-0.1-0.4-0.1-0.6
			c-0.1-0.2-0.2-0.6-0.3-1c-0.3,0-0.6,0.2-1,0.6c-0.4,0.3-0.7,0.7-1,1c-0.6,0.8-1.2,2.5-2.1,5.1s-1.2,4.5-1.1,5.2l0.1,0.5
			c2-0.8,3.5-2.3,4.5-4.5C125.1,105.3,125.4,103.1,125,100.9z"/>
		<path class="st2" d="M154.2,105.5c0.5,3.1-1.5,5.6-6,7.6c-2.7,1.2-6.2,2.1-10.7,2.8c-2.1,0.3-2.9,0.3-3.9,0.2
			c-1.8-0.2-2.8-1.2-3.1-2.8l-0.1-1.5c1.1-0.2,2.8-0.3,4.9-0.4s3.2-0.1,4.3-0.3c1.9-0.3,3.4-0.7,4.5-1.3c1.5-0.7,2.6-1.7,3.6-3
			l-0.5-0.3c-0.6,0.1-1.2,0.1-1.9,0c-0.7-0.1-1.4-0.2-2.1-0.3c-3-0.1-5-0.6-6.3-1.5c-1.1-0.8-1.8-1.9-2-3.4c-0.3-2,0.5-3.8,2.3-5.5
			c1.7-1.5,3.5-2.5,5.5-2.8c1.3-0.2,2.5-0.1,3.5,0.4c1,0.4,1.8,1.3,2.3,2.4c-3,0.8-4.7,1.3-4.9,1.4c-1.9,0.7-3.2,1.8-4,3.1
			c5.5,0.4,8.3,0.7,8.4,0.7C151.8,101.8,153.8,103.3,154.2,105.5z"/>
	</g>
</g>
</svg>
