<svg xmlns="http://www.w3.org/2000/svg" viewBox="0 0 184 124" fill-rule="nonzero"><title>Holiday Extras logo</title><path d="M124.3.7c-2.9 0-9.4.3-18.2 1.2-.5-.2-1-.3-1.6-.3-.3 0-.6 0-.9.1l-1 .2c-.5.1-1 .3-1.5.5-7.8.9-16 2.1-24.5 3.5l-24.2 4.3c-2.5-3.1-5.1-4.2-6-4.5-1.1-.4-2.2-.6-3.4-.6s-2.3.2-3.3.6c-.5.2-1.6.7-2.5 1.8h-.1c-1-.3-2.1-.5-3.3-.5s-2.3.2-3.3.6c-.6.3-2.6 1.2-3.4 3.5-.5 1.4-.4 2.9.3 4.2-2.3 1.3-4 3.7-4.2 6v1.2l-10.6 2.3-.4.1c-1.7.3-3.1 1.2-4 2.7-.1.2-.3.5-.5.9-.5.5-1 1.1-1.3 1.8-.1.1-.1.4-.8 2.4-.6.6-1.1 1.3-1.4 2.3-.7.9-1 2.1-.9 3.3 0 .4.1.8.2 1.2-.1.4-.3.9-.4 1.3-.3 1.2-1.3 6.3-1.4 9-.1 1.8-.3 6-.3 7.9A9.26 9.26 0 0 0 .8 61c0 1.3.3 2.3.6 3.1l1.1 17.2c-.1.2-.1.4-.2.6-.2.7-.2 1.4-.1 2.8.1.9.1 1.7.6 2.6v.8c.1.8.8 5.6 1.1 6.7.1.5.3.9.4 1.3l.5 2.8c-1.2 1.7-1.2 3.9-1.2 5 0 2.1.5 5.1 1.2 6.5.5 1.1 1.6 3.5 4.2 4.3.5.2 1.1.2 1.7.2.7 0 1.3-.1 1.9-.2.2 0 .6-.1.7-.1.8 0 2-.2 4.4-.6.6-.1 1.3-.2 1.6-.3h.2l5.6-.9c3.2 6.4 9.9 10.6 17.3 10.6 1 0 2-.1 3-.2 8.5-1.3 14.9-8 16.2-16.2l67.7-10.7c3.2 6.6 9.9 10.9 17.5 10.9 1 0 2-.1 3-.2 8.6-1.3 15.1-8.2 16.2-16.5l9.1-1.5c1.4-.3 7.4-2.4 8.4-6.8.3-1.5.2-3.5-.5-5.9-.9-3.2-1.8-4.5-2.7-5.2 0-.3.1-.6.1-1 .1-.7-.1-1.5-.3-2.2-.2-.5-.5-1.3-1-2 0-.4-.1-.8-.1-1.2-.1-.3-.2-1.1-.3-1.8.1-1.3.2-3.8-.5-6.7-.5-1.8-1.1-3.8-2.2-5.2-.5-2.7-1.3-6.7-1.8-8.1-1.2-3.1-1.6-4.3-3-5.3h-.1s-.1 0-.1-.1c-.2-.4-.5-.8-.7-1.1s-.4-.6-.7-.8c-.9-.9-1.6-1.5-2.1-1.8-.3-.2-.6-.4-.9-.5-.4-.4-.9-.7-1.4-1l-13.5-17c0-.2-.1-.3-.2-.5-.2-.6-.6-1.1-1-1.6-.2-.6-.4-1.1-.8-1.6s-1-1.1-1.9-1.6l-.7-.7c-1-1-1.7-1.7-2.4-2.1-1.1-1.3-2.1-2.1-3.4-2.3-.4-.1-.7-.1-1.3-.1-1.3 0-4 .2-6.4.5-.4 0-1.1.1-2 .2h-.6c-.5-1.9-1.9-3.7-3.7-4.4-.9-.4-1.7-.4-3-.4z" fill="#fff"/><path d="M177.3 74.3c-.7-.5-2.6-.4-2.6-.4v-2s.6-.6.8-.7.3-1.6.3-1.6-.6-1.5-.9-1.5-.6-.2-.6-.2l-.3-1.3s.5-.2.4-.9c-.2-.7-.5-2.7-.5-2.7s.5-2.4-.4-5.6c-.8-3.3-1.5-3.8-2-4l-1.9-8.9-1.3-3.1c-.2-.1-1.1-.7-1.3-1.1s-.9-1.5-.9-1.5l-1.5-1.3c-.4-.3-.8-.3-.8-.3s-.9-.9-1.1-.9c-.3 0-.5-.1-.5-.1l-15-19.2s0-.4-.1-.7-.8-.8-.9-.9c-.2-.1-.5-.3-.5-.3s.4-.6.3-.8c-.2-.2-.6-.5-.7-.4-.1 0-2.7-2.7-2.9-2.7-.1 0-.5-.1-.5-.1s-1.2-1.6-1.6-1.7-3.3.1-6.2.4c-2 .3-8.1.4-27.5 3.1-.2-.2-.4-.3-.6-.3l-.3-1.7c.4-.2.6-.6.5-1v-.2c9.9-1.2 18.4-1.7 19.7-1.8 1.6-.1.4-2.3-.3-2.6-.4-.2-7.8-.1-20.6 1.3 0-.2-.3-.4-.5-.4l-1 .2c-.2 0-.4.2-.4.4-7.1.8-15.7 2-25.7 3.6-6.2 1-17.2 3-27 4.8-1.8-3.3-4.1-4.8-5.4-5.2-1.4-.5-2.6-.4-3.3-.1-.6.3-.9.6-1.1 1s.1.6.4.8c.3.1 1.6.6 2.4 1.4s1.4 1.5 1.1 3.2c-.2 0-.5.1-.7.1-.1-.2-.3-.4-.5-.3l-1 .2c-.2 0-.4.3-.4.5-.3.1-.6.1-.8.2-1.7-3.2-4.1-4.7-5.3-5.1-1.4-.5-2.6-.4-3.3-.1-.6.3-.9.6-1.1 1s.1.6.4.8c.3.1 1.6.6 2.4 1.4s1.3 1.4 1.1 3.1c-2.9.5-4.8.9-5.1 1-1.3.3-2.5 1.7-2.5 2.6s-.2 1.7 2.8 1.1c.8-.1 5.3-1 11.7-2.1.1.3.4.5.8.6l.2 1c-.4.2-.6.6-.5 1v.2c-20 3.7-29.1 5.9-29.6 6-.6.1-.9.4-1.2.7-.2.4-.8 1.5-.8 1.5s-.6.2-.7.5-1.1 3.5-1.1 3.5-.9.4-.9.9c-.1.4.1.8.1.8s-.9.3-.8.8c0 .6.5 1.2.5 1.2S7.6 41 7.4 42s-1.2 5.9-1.3 8.2c-.2 2.3-.4 8.8-.4 8.8s-.6.7-.6 1.9.3 1.7.5 1.8l1.3 20.2s-.4 0-.5.2.1 2.2.2 2.3.5.2.5.2l.1 1.2s-.3.5-.3.9c0 .5.8 5.1 1 6.1s.4 1 .4 1 .8 4.8 1 5.3c.2.6.4 1.1.4 1.1s-.7.2-1.4.3c-.5.1-.5 1-.5 2.4 0 1.7.5 3.9.8 4.6s.8 1.6 1.4 1.8 2.1-.2 3-.2 4.8-.7 5.6-.8c0 0 3.4-.5 9.2-1.5 1.9 7.3 9.1 12.2 16.7 11 7.7-1.2 13-8 12.6-15.6l75-11.9c1.8 7.5 9.1 12.5 16.8 11.3 7.8-1.2 13.2-8.2 12.6-15.9l12.5-2c1.1-.2 4.6-1.8 4.9-3.4s-.9-6.5-1.6-7zM45.6 22.7v-.2c-.1-.4-.4-.7-.8-.7l-.2-1c.3-.1.5-.4.5-.8l53.3-9.4c1.6-.3 3.3-.5 4.9-.7l.1.4c.1.4.4.7.8.7l.3 1.7a.78.78 0 0 0-.4.4l-27.9 4.3-30.6 5.3z" fill="#542e91"/><path d="M47.6 60.9l-.8.1c-2 .3-3.5-1.3-4.5-4.7s-2.3-5.4-3.8-5.8c-2.5 2.2-3 2.9-3.5 4.7-.6 2.7-.2 5.2-.1 7.2l-.2.4c-.1.1-.3.2-.9.6-.7.3-.4.3-1.1.4s-1.2-.5-1.5-.8c-.3-.4-.4-.8-.7-1.4-.7-1.4-1.5-4.4-2.4-8.8-.6-3.1-.6-1.3-1.3-6l-1-6.6c-.1-.6 0-1.1.1-1.5s.4-.6.7-.6c1.4-.2 2.4-.6 3.6 2.8l1.8 6.2c.5 2.2.2.4.5 2.8.7-1.5 1.4-2.7 2.1-3.6 1.1-1.5 2.3-1.5 3.3-1.7 2.4-.4 4.6 1.8 6.6 6.3 1.8 3.6 2.8 7 3.1 10zM68.8 46c.5 3.1-1.1 6.2-4.6 9.4-3.2 2.9-6.5 4.6-9.8 5-1.8.3-3.1 0-4-.8s-1.4-2.2-1.7-4c-.4-2.4-.1-4.7.7-6.8.8-2.3 2.2-4.3 4-5.9.6-.7 1.1-1.3 1.5-1.6.6-.7 1.2-1 1.8-1.1 2.6-.4 5-.2 7.4.7 2.7 1.1 4.3 2.8 4.7 5.1zm-3.9 1c-.1-.9-.7-1.6-1.7-2.1s-2-.6-2.9-.4c-2 .3-3.9 1.6-5.6 3.7s-2.5 4.2-2.2 6c.1.8.5 1.3 1.1 1.5s1.4.3 2.2.1c1.7-.3 3.7-1.4 5.8-3.3 2.5-2.1 3.5-3.9 3.3-5.5zM77 57.1l-1.1.3c-.4.1-.9.1-1.3 0s-.7-.2-.9-.5c0-.1-.5-1.9-1.3-5.3-1.1-4.8-1.2-3.7-1.6-5.4l-1.2-5.4-1.2-7.1c-.1-.3-.1-.6-.1-.8-.1-.5-.1-1-.1-1.4s.2-.7.6-.9c.9.2 1.7.6 2.2 1.2.5.5.9 1.3 1.2 2.3l.9 3.3c.3 1.2.5 2.5.7 3.9 0 .3-.1-.3 0-.2l.6 3.8c.3 1.9.1.2 1 4l1.6 8.2zm2.3-24.8c.1.5 0 .9-.1 1.3-.2.4-.5.7-1 .7-.6.1-1.2-.2-1.8-.9s-.9-1.5-1-2.2c-.1-.5 0-.9.1-1.4.1-.4.4-.7.9-.8.6-.1 1.2.2 1.9 1 .5 1 .9 1.6 1 2.3zm4.5 13.1l.7 5.3.1 4.7c-1.5 0-2.5-.4-3.2-1.2 0-.1-.5-1.2-1.4-3.2-.2-.4-.4-1-.5-1.6-.2-.6-.3-1.3-.4-1.9l-.8-7.2c.3 0 .8-.3 1.5-.6l.9-.4c.4-.1 1 .5 1.7 1.6s1.2 2 1.3 2.5l.1 2zm18.1-14.2l.8 4.9 2 13.4h-1.6l-2 .1-3.4 2.9c-1.1.8-2.4 1.4-3.8 1.6-1.7.3-3.3-.2-4.7-1.4s-2.3-2.6-2.6-4.4c-.3-2.1.2-4.4 1.6-7 1.5-2.8 3.3-4.4 5.2-4.7.6-.1 1.2-.1 1.7-.1s1.2.1 2.1.2c.1-.6.1-1.2-.3-4.7-.5-3.6 0-4.5.8-5.7 1.2.3 2.1.8 2.8 1.6.9 1 1.3 2.1 1.4 3.3zm-2.9 11c-.1-.6-.4-1.1-.8-1.5s-1-.5-1.6-.4c-1.3.2-2.5 1.2-3.6 3-1 1.8-1.5 3.4-1.3 4.7.1.6.3 1.1.7 1.5s.9.6 1.5.4c1.1-.2 2.2-1.2 3.4-3.2 1.3-1.9 1.9-3.4 1.7-4.5zm23.9 2.1c.2 1 .2 2 .2 2.8 0 .9-.1 1.7-.3 2.6-1.2-.1-2.2-.6-3-1.3-.3-.3-1-1.2-2.1-2.6-.1.3-1 1.3-2.8 2.9s-2.9 2.5-3.3 2.6c-1.6.3-2.8-.1-3.7-1s-1.5-2.2-1.7-3.8c-.4-2.3.4-5.7 2.3-10.3 2-4.8 4-7.4 5.7-7.7 2-.3 3.7.9 5 3.5 1.6 2.6 2.7 6.8 3.7 12.3zm-6.8-10.1c0-.2-.1-.4-.1-.6-.1-.3-.2-.6-.3-1-.3 0-.6.2-1 .6-.4.3-.7.7-1 1-.5.8-1.2 2.5-2.1 5.1-.8 2.7-1.2 4.5-1.1 5.3l.1.5c2-.8 3.5-2.3 4.5-4.5 1.1-2 1.4-4.2 1-6.4zm23.4-4.8c.1.9-.3 4.1-1.4 9.5-1 4.7-.1 2.3-1.4 7.7-1.3 5.5-1.3 4.7-1.8 5.9-.2.5-.5 1-.9 1.3-.3.3-.8.5-1.3.6-.7.1-1.3.1-1.9-.2-.5-.2-.9-.7-1-1.3-.1-.9.3-2.3.6-3.4s.6-1.5.9-2.7.3-1.3.1-2.5c-.3-1.7-1.7-3.4-3.3-5.1l-4.5-4.5c-1.7-1.9-2.7-3.7-2.9-5.4 2.5 0 5.1 1.7 7.9 5 1.8 2.2 3.2 3.7 4.1 4.3.6-2.1 1-4.3 1.3-6.5l.7-6.5.6-.5c1.1 0 2 .5 2.8 1.4.8.8 1.2 1.7 1.4 2.9z" fill="#fff"/><g fill="#fddc06"><path d="M54 85.6c.3 1.5-.9 3-3.4 4.5-2 1.2-4 1.9-5.7 2.2-3 .5-5.4.2-7.5-.8-2.5-1.2-3.9-3.2-4.4-5.9-.4-2.7.3-5.3 2.2-7.9s4.3-4.1 6.9-4.6c1.8-.3 3.6.1 5.4 1.2s2.9 2.6 3.2 4.4c.3 2.1-2.4 3.9-8 5.4l-5.9 1.5.1.8c.1.8.9 1.3 2.4 1.7 1.2.3 2.3.4 3.2.2 1.2-.2 2.6-.7 4.2-1.6l4.9-2.8c.5-.1 1.1 0 1.6.4.4.3.7.8.8 1.3zm-7.6-6.7c-.1-.7-.7-1.2-1.6-1.5-1-.3-1.9-.4-2.7-.3-1 .2-1.9.6-2.7 1.4-.5.5-1.1 1.3-1.9 2.5 1.4.1 3 0 4.7-.2.7-.1 1.4-.3 2.2-.5s1.5-.5 2.2-.7l-.2-.7zm25.5 6.4l.3 2c-1.3-.1-2.6-.6-3.9-1.5-3.1-2.2-5.6-3.2-5.9-3.3-.5 1.3-1.4 3-2.6 4.9l-1.7 2.9c-.3-.2-.6-.5-1.2-.9-1-.7-1.5-1.3-1.5-1.9-.1-.8.6-2.7 2.2-5.4.8-1.3 1.1-2.4.9-3.4-.2-1.1-2.7-2.2-4.1-3.9-1.5-1.6-2.2-2.7-2.3-3.2s-.1-.9.1-1.4c.1-.4.4-.7.8-.9.5.1 1.2.6 2.1 1.5 2.4 2.3 5.4 3.4 5.9 3.7l1-3.9c.7-1.8 1.6-2.8 2.6-3 .4-.1.8 0 1.1.3s.5.9.6 1.7c.2 1.3.1 2.7-.4 4.1L64.5 78c.1.3 2.3 1.6 5 4 1.5 1 2.2 2.1 2.4 3.3zm17.2-18.9h-.6c-.2.2-.2.5-.2.7 0 .1.1.4.3.6-.1 1.3-1.3 2.2-3.8 2.6-2.5.5-4.1 1.3-4.7 2.4-.1.5 0 1 .1 1.6 0 .2.1.5.2 1 .1.4.1.8.2 1.1.1.6.2 2.2.2 4.7 0 1.2.1 2.1.2 2.8.1.9.4 1.7.8 2.4l-.9.1c-1.1.2-2-.1-2.6-.7-.8-.7-1.3-2.2-1.7-4.3l-.3-2.6-.4-4.3c-.3-1.8-1.7-2.6-4.2-2.4s-4-.7-4.3-2.7c0-.2-.1-.4-.1-.6s0-.6.1-1.1h2.4c1 0 1.8-.1 2.5-.2 1.5-.2 2.5-.9 3-1.9.4-.8.4-1.7.3-2.3s-.3-1-.3-1.1c-.1-.8-.1-.8 0-1.4 1.3.1 2.2-.2 3 .7l1.2 1.6c.2.3.2.7.3 1 0 .1.1.3.2.5s.2.3.2.4c.3.1.7.2 1.1.2s.8 0 1.3-.1c.3-.1.7-.1 1.3-.3l1.2-.2c1-.1 1.8-.1 2.4.1.5.4 1 .9 1.6 1.7z"/><path d="M108.1 65.5c0 .3 0 .6-.2 1-.2.3-.4.5-.7.6-.2 0-.7 0-1.5-.2-.5-.1-.8-.1-1.1 0-2 .3-3.8 1.9-5.3 4.8-.8 1.3-2 4.1-3.6 8.1-1.2 2.9-2.1 4.5-2.8 4.6-1.4.2-2.7-1.6-3.8-5.3l-2-7.5-2.3-5.3c.3-.2.7-.4 1.1-.8s.7-.6.9-.8c1.7.9 2.8 1.6 3.3 2.1.4.4.6.9.7 1.5.1.8.3 1.4.4 1.8s.5 1.1 1.2 2l3.3-5.7c1.2-1.7 3.2-2.8 5.6-3.2 1.5-.2 2.9-.2 4.1 0 1.5.2 2.5 1.1 2.7 2.3zm15.7 8.5c.2 1 .2 2 .3 2.8 0 .9-.1 1.7-.3 2.6-1.2-.1-2.2-.6-3-1.3-.3-.3-1-1.2-2.1-2.6-.1.3-1 1.3-2.8 2.9s-2.9 2.5-3.4 2.6c-1.6.3-2.8-.1-3.7-1s-1.5-2.2-1.7-3.8c-.4-2.3.4-5.7 2.3-10.3 2-4.8 4-7.4 5.8-7.7 2-.3 3.7.9 5 3.5 1.5 2.6 2.6 6.7 3.6 12.3zM117 63.9c0-.2-.1-.4-.1-.6-.1-.2-.2-.6-.3-1-.3 0-.6.2-1 .6-.4.3-.7.7-1 1-.6.8-1.2 2.5-2.1 5.1s-1.2 4.5-1.1 5.2l.1.5c2-.8 3.5-2.3 4.5-4.5 1.1-1.9 1.4-4.1 1-6.3z"/><path d="M146.2 68.5c.5 3.1-1.5 5.6-6 7.6-2.7 1.2-6.2 2.1-10.7 2.8-2.1.3-2.9.3-3.9.2-1.8-.2-2.8-1.2-3.1-2.8l-.1-1.5c1.1-.2 2.8-.3 4.9-.4s3.2-.1 4.3-.3c1.9-.3 3.4-.7 4.5-1.3 1.5-.7 2.6-1.7 3.6-3l-.5-.3c-.6.1-1.2.1-1.9 0l-2.1-.3c-3-.1-5-.6-6.3-1.5-1.1-.8-1.8-1.9-2-3.4-.3-2 .5-3.8 2.3-5.5 1.7-1.5 3.5-2.5 5.5-2.8 1.3-.2 2.5-.1 3.5.4 1 .4 1.8 1.3 2.3 2.4-3 .8-4.7 1.3-4.9 1.4-1.9.7-3.2 1.8-4 3.1l8.4.7c3.8.8 5.8 2.3 6.2 4.5z"/></g></svg>