<svg xmlns="http://www.w3.org/2000/svg" viewBox="0 0 146 84"><defs><style>.a{fill:#48ced3;}.b{fill:#fff;}.c{fill:none;}</style></defs><title>Artboard 1 copy 3</title><path class="a" d="M28.446,11.069a3.025,3.025,0,0,1,2.985-3.078l4.6-.164L36.142,1.6a.3.3,0,0,0-.089-.2.308.308,0,0,0-.207-.087h-.094c-2.8-.047-5.013-.084-6.659-.084-5.116,0-5.5.3-5.532,2.143L23.076,29.5a.318.318,0,0,1-.329.318L13.7,29.663a.323.323,0,0,1-.318-.33L13.91,1.22a.3.3,0,0,0-.1-.2A.319.319,0,0,0,13.6.93C10.777.883,8.548.846,6.88.846c-5.143,0-5.522.3-5.552,2.148L0,74.12a.292.292,0,0,0,.086.2.3.3,0,0,0,.208.087c2.837.048,5.078.085,6.749.085,5.12,0,5.5-.3,5.533-2.143L13.159,41.2a.323.323,0,0,1,.323-.318h.006l9.047.154a.327.327,0,0,1,.227.1.322.322,0,0,1,.091.231L22.232,74.5a.287.287,0,0,0,.281.29c2.835.047,5.074.084,6.751.084.655,0,1.232,0,1.741-.017L28.446,11.086Z"/><path class="a" d="M101.474,1.855a.284.284,0,0,0-.284-.284c-8.715,0-10.786,0-11.571.786a1.935,1.935,0,0,0-.37,1.477V29.886a.324.324,0,0,1-.324.324H80.149a.324.324,0,0,1-.324-.324V1.855a.284.284,0,0,0-.284-.284c-8.713,0-10.783,0-11.568.786A1.935,1.935,0,0,0,67.6,3.833V74.759a.284.284,0,0,0,.284.284c8.713,0,10.783,0,11.568-.786a1.931,1.931,0,0,0,.369-1.474V41.728a.324.324,0,0,1,.324-.324h8.776a.324.324,0,0,1,.324.324V74.759a.284.284,0,0,0,.284.284h3l8.943-44.4Z"/><path class="b" d="M101.562,72.87V34.009L93.28,75.129c5.68-.017,7.252-.122,7.913-.784A1.933,1.933,0,0,0,101.562,72.87Z"/><path class="a" d="M130.184,1.165a1.448,1.448,0,0,0-.327,1.153l2.106,45.646h.8c8.5,0,10.2-.313,10.494-3.917.609-9.989,2.565-42,2.739-44.043-.905,0-1.757,0-2.563,0C134.48,0,131.132.176,130.184,1.165Z"/><path class="a" d="M59.579,69.6l-.011-.282-14.977.535a.325.325,0,0,1-.334-.311L43.37,47.387a.325.325,0,0,1,.312-.337l10.456-.377a1.819,1.819,0,0,0,1.348-.529c.943-1.018.832-3.727.566-10.272l-.013-.306-12.8.457a.323.323,0,0,1-.335-.31L42.251,19.5a.325.325,0,0,1,.312-.337l13.279-.475a2.1,2.1,0,0,0,1.536-.535c.863-.932.77-3.235.494-10.071l-.012-.3-20.715.74h0L36.1,8.564l-4.559.163a2.4,2.4,0,0,0-2.362,2.431L31.74,74.921l.05,1.225.2,4.991,25.558-.916a2.118,2.118,0,0,0,1.587-.512C59.95,78.83,59.864,76.689,59.579,69.6Z"/><path class="c" d="M116.218,45.258c-.982-3.7-1.977-8.572-2.958-14.483a.324.324,0,0,0-.642.029c-.477,6.315-.995,11.138-1.583,14.744l-1.466,9.165a.324.324,0,0,0,.32.375h.017l8.365-.46a.324.324,0,0,0,.3-.406Z"/><path class="a" d="M138.948,79.278,137.17,73.46c-5.639-.1-7.283-2.787-7.273-7.382a7.5,7.5,0,0,1,3.1-6.261L117.308,8.455l-.176-.027a21.741,21.741,0,0,0-3.155-.188c-.82,0-1.717.027-2.667.08-1.152.063-4.654.254-5.028,2.693L102.3,30.8,93.255,75.777h-.017l-1.633,8.108.327.019c1.109.064,2.366.1,3.735.1,1.4,0,2.9-.036,4.007-.1,4.811-.264,5.38-.966,5.687-2.758L107.7,66.71a.324.324,0,0,1,.3-.272l13.43-.738a.322.322,0,0,1,.33.24l4.32,16.287.216,0c3.168.033,5.462-.09,7.079-.177,3.244-.178,4.868-.592,5.428-1.385A1.523,1.523,0,0,0,138.948,79.278ZM118.6,54.5a.323.323,0,0,1-.243.133l-8.365.46h-.018a.324.324,0,0,1-.319-.375l1.465-9.165c.588-3.606,1.106-8.429,1.584-14.744a.323.323,0,0,1,.641-.029c.982,5.911,1.977,10.784,2.958,14.483l2.349,8.964A.321.321,0,0,1,118.6,54.5Z"/><path class="a" d="M137.161,72.884c-2.413-.055-4.025-.583-5.073-1.663s-1.533-2.713-1.528-5.141a6.586,6.586,0,0,1,2.771-5.715l.558-.347a7.5,7.5,0,0,1,3.646-.925h.025c2.577.006,4.373.626,5.489,1.9.993,1.128,1.472,2.806,1.466,5.128a6.483,6.483,0,0,1-6.451,6.757h-.006C138,72.877,137.555,72.881,137.161,72.884Z"/></svg>