<svg xmlns="http://www.w3.org/2000/svg" viewBox="0 0 146 84">
  <path d="M28.446 11.069a3.025 3.025 0 012.985-3.078l4.6-.164.111-6.227a.3.3 0 00-.089-.2.308.308 0 00-.207-.087h-.094c-2.8-.047-5.013-.084-6.659-.084-5.116 0-5.5.3-5.532 2.143L23.076 29.5a.318.318 0 01-.329.318l-9.047-.155a.323.323 0 01-.318-.33L13.91 1.22a.3.3 0 00-.1-.2.319.319 0 00-.21-.09C10.777.883 8.548.846 6.88.846c-5.143 0-5.522.3-5.552 2.148L0 74.12a.292.292 0 00.086.2.3.3 0 00.208.087c2.837.048 5.078.085 6.749.085 5.12 0 5.5-.3 5.533-2.143l.583-31.149a.323.323 0 01.323-.318h.006l9.047.154a.327.327 0 01.227.1.322.322 0 01.091.231L22.232 74.5a.287.287 0 00.281.29c2.835.047 5.074.084 6.751.084.655 0 1.232 0 1.741-.017l-2.559-63.771zm73.028-9.214a.284.284 0 00-.284-.284c-8.715 0-10.786 0-11.571.786a1.935 1.935 0 00-.37 1.477v26.052a.324.324 0 01-.324.324h-8.776a.324.324 0 01-.324-.324V1.855a.284.284 0 00-.284-.284c-8.713 0-10.783 0-11.568.786a1.935 1.935 0 00-.373 1.476v70.926a.284.284 0 00.284.284c8.713 0 10.783 0 11.568-.786a1.931 1.931 0 00.369-1.474V41.728a.324.324 0 01.324-.324h8.776a.324.324 0 01.324.324v33.031a.284.284 0 00.284.284h3l8.943-44.4z" fill="#48ced3"/>
  <path d="M130.184 1.165a1.448 1.448 0 00-.327 1.153l2.106 45.646h.8c8.5 0 10.2-.313 10.494-3.917.609-9.989 2.565-42 2.739-44.043h-2.563C134.48 0 131.132.176 130.184 1.165zM59.579 69.6l-.011-.282-14.977.535a.325.325 0 01-.334-.311l-.887-22.155a.325.325 0 01.312-.337l10.456-.377a1.819 1.819 0 001.348-.529c.943-1.018.832-3.727.566-10.272l-.013-.306-12.8.457a.323.323 0 01-.335-.31L42.251 19.5a.325.325 0 01.312-.337l13.279-.475a2.1 2.1 0 001.536-.535c.863-.932.77-3.235.494-10.071l-.012-.3-20.715.74-1.045.042-4.559.163a2.4 2.4 0 00-2.362 2.431l2.561 63.763.05 1.225.2 4.991 25.558-.916a2.118 2.118 0 001.587-.512c.815-.879.729-3.02.444-10.109z" fill="#48ced3"/>
  <path d="M138.948 79.278l-1.778-5.818c-5.639-.1-7.283-2.787-7.273-7.382a7.5 7.5 0 013.1-6.261L117.308 8.455l-.176-.027a21.741 21.741 0 00-3.155-.188c-.82 0-1.717.027-2.667.08-1.152.063-4.654.254-5.028 2.693L102.3 30.8l-9.045 44.977h-.017l-1.633 8.108.327.019c1.109.064 2.366.1 3.735.1 1.4 0 2.9-.036 4.007-.1 4.811-.264 5.38-.966 5.687-2.758L107.7 66.71a.324.324 0 01.3-.272l13.43-.738a.322.322 0 01.33.24l4.32 16.287h.216c3.168.033 5.462-.09 7.079-.177 3.244-.178 4.868-.592 5.428-1.385a1.523 1.523 0 00.145-1.387zM118.6 54.5a.323.323 0 01-.243.133l-8.365.46h-.018a.324.324 0 01-.319-.375l1.465-9.165c.588-3.606 1.106-8.429 1.584-14.744a.323.323 0 01.641-.029c.982 5.911 1.977 10.784 2.958 14.483l2.349 8.964a.321.321 0 01-.052.273z" fill="#48ced3"/>
  <path d="M137.161 72.884c-2.413-.055-4.025-.583-5.073-1.663s-1.533-2.713-1.528-5.141a6.586 6.586 0 012.771-5.715l.558-.347a7.5 7.5 0 013.646-.925h.025c2.577.006 4.373.626 5.489 1.9.993 1.128 1.472 2.806 1.466 5.128a6.483 6.483 0 01-6.451 6.757h-.006c-.058-.001-.503.003-.897.006z" fill="#48ced3"/>
</svg>