<svg width="500" height="620" xmlns="http://www.w3.org/2000/svg">
  <path d="M296 0l8 2-5 13-36 47 7 1-8 14-1 7 26-11 20 4 7-4 25 4 6-2 10 21-29 66-30 9v5l14-6 15 14-7 12 2 6 25 12 8 16 6 2 23 71 26 13 6 14 13 10-7 5 15 30 8 38-10 9 8 9 6-1 5-11 20 1 17 5 11 11v27l-10 22-8 7-2 8-15 5-10 21 33 2-1 16-16 7-3 8-25 7-3 4-22-6-25 5-16-7-10 9-20 1-18 8-21-10-14 3-12 20-5 12-29-11-16 7-9 12-10 7-12-8h-8l1-5 22-10 6-15 13-7 7-13 2-11 14-3-2-8 15-4 27 4 6-3 3-13 16-12 7-12-2-1-12 13-17 13-19-2-10-11-14 5-6-6v-6l-6-3-13 7h-5l-2-7 5-2-3-5h-8l-4-3 8-8 22-8 15-14 3-22-9-17-13 7-7-2 16-13-13-18 6-8h9l14 11 23-8 15 6-2-22 8-10-3-12 8-16-5-5-15 9-15-32 10-26-6-2-19 12-16-8-5 11-12-10-4 3-9-12 12-11v-12l7-20-10-19 6-9-6-2-7 18-13-20-1 9 2 12-11 30h-11l10-29-3-18 9-18-1-12 16-32-23 21-13-11 9-4-13-4 14-9-2-11 8-18-8-25 9-26 16-2-9-12 1-4 16-37 17 5 36-3 21-5zM130 256l15 9-13 14h9l20-12h22v9l17 25-4 5h4l5 16-5 17-9-2-3 11-18 6 11 32-4 15 6 24-6 23-13 20 6 5-2 7-15-4-17 8-18 3-3 7-18 12-7-4-2 8-28 9-6 6-18 2-12-5-4-8 13-12-21 4-4-12 16-12-20 2-4-2 10-9 18 3-6-12 9-8 23-4 9-4H28l12-8 8-25 15-8-3-2-18 4-9-8-13-2-8-13 8-3 4-10 12-5-3-6-7 2-18-8 18-4-12-11 10-12 24 3 3 9 12-6h18l-9-6 23-18-10 3-18-8 21-11v-19l15-9 12-2 6 16 3-18 6-7zm40-50l1 9 6 10-9 8-7-3-2-7 2-2-1-4h-4l3-8 5 1 6-4zm20-14l1 1-6 13-1 5-6 9-5-11 6-4-1-4 12-9zm-19-39l8 10 13 6-4 10-28 4v-8l13-3-6-7-7-4 11-8zm-4-77l8 10-3 7v12l18 6-13 16-5-9-10-4 1-8-13-3-3-11 16-2-1-11 5-3zm-37 26l6 7-3 5 2 9h-9l-2-12 1-8 5-1z" fill="#3614AB" fill-rule="evenodd"/>
</svg>