<svg width="128" height="19" xmlns="http://www.w3.org/2000/svg"><path d="M61.727211 2.990726c.5831657.1168082 1.0424978.4608758 1.3764136 1.0300176.2834723.4845155.4249118 1.053856.4249118 1.7066308 0 .502593-.5416241 2.2199511-1.6256635 5.1510811-.9515018 2.5624294-.2290726 1.2312534-1.4375391 4.1542387-1.2096535 2.9235812-1.1319113 2.5356112-1.4990604 3.1373321-.1665622.2685794-.3582473.473391-.5742639.61662-.217797.1422358-.4753553.2133537-.7760377.2133537-.3843593 0-.7174838-.084229-1.0013518-.2516938-.2834723-.1672661-.4247139-.4354481-.4247139-.8043474 0-.501401.3438066-1.2399941.6249052-1.8337689.2809007-.5931789.4622992-.7751454.7509148-1.3987182.2886156-.6233742.2735815-.7080005.2735815-1.3949437 0-.9722095-.6320266-2.0189139-1.3655336-3.1407093-.6844482-.9553239-1.3679074-1.9181967-2.05196-2.8898102-.7505192-1.1712601-1.1263723-2.2612709-1.1263723-3.2658609 1.3847219.2342123 2.6855692 1.406863 3.9029375 3.5169588.7839504 1.3742838 1.4096469 2.2861026 1.876496 2.7394295.4840592-1.0892163.9176749-2.2435908 1.3018364-3.4666994.3339157-1.0556439.6581385-2.2441868.975042-3.5688073l.3754574-.2503032zm50.116052.0041717c1.118064 0 1.948501.7948121 2.488939 2.3834428.542811 1.5898227.814018 3.9820062.814018 7.17516 0 .1242054-.001822.2462681-.005447.3661654.5388.0309006 1.206432.0897375 2.002612.1765555 1.233985.1342897 1.734067.2010372 2.350664.2010372 1.034387 0 1.893904-.1001213 2.576968-.3017544.850812-.2507006 1.584517-.6861487 2.20151-1.3065431l-.249646-.2256701c-.317299 0-.667238-.0544311-1.050806-.1638891-.383568-.1086633-.750717-.2218957-1.100261-.3387039-1.602716-.318044-2.711483-.7783238-3.32808-1.3820313-.534305-.5192798-.800567-1.196489-.800567-2.0354021 0-1.1055058.583364-2.051493 1.75108-2.8387562 1.034387-.7038288 2.142363-1.0552466 3.32808-1.0552466.733705 0 1.359204.1680608 1.8761.5021957.516106.3357241.858924.8460646 1.025486 1.5332065-1.734859.1998452-2.685569.318044-2.851736.3516164-1.10026.2352055-1.91784.6784011-2.451947 1.3313747 3.002473.7199197 4.528239 1.0888189 4.578484 1.1055058C126.999835 9.1930806 128 10.1990611 128 11.487328c0 1.759274-1.334872 2.9823826-4.002637 3.6691272-1.568693.4020743-3.618674.6029129-6.154298.6029129-1.201147 0-1.625861-.0762829-2.126537-.2260675-.375654-.1126152-.677061-.2748339-.904257-.4866809-.047507.1571763-.103937.3127664-.166727.4670142-.6344-.1656769-1.142791-.4986199-1.524974-.9976371-.151133-.1827611-.450826-.7234954-.90185-1.6218058-.066466.1682593-.667238.6245661-1.801127 1.370112-1.133494.7453474-1.818338 1.1178224-2.051564 1.1178224-.885233 0-1.530316-.293411-1.939205-.8800343-.408295-.5854314-.613234-1.3389235-.613234-2.261271 0-1.3063443.717089-3.1401133 2.15166-5.5028961 1.518051-2.4946887 2.810392-3.7430263 3.878013-3.7430263zm-35.293989.6384719c.245689.0866128.586924.4267074 1.024694 1.0184957 1.103426 1.4891054 2.711483 2.334574 2.973789 2.5364058.542811-1.2419807.849626-1.9291226.919456-2.0590419.543206-.9398289 1.112327-1.4092468 1.707757-1.4092468.244898 0 .432825.0969429.564967.2922191.131548.1950776.196037.5246435.196037.9867111 0 .7374012-.187531 1.4775836-.564571 2.2227322-.37704.7437582-.766938 1.4930785-1.169497 2.2441868 0 .1875288 1.113515 1.0620008 2.414758 2.6232174.608486.7379971.912531 1.4247417.912531 2.0604324v1.1053072c-.719462-.1722325-1.383535-.5635795-1.997164-1.1706641-1.506182-1.4889068-2.808612-2.2698131-2.985065-2.3417256-.402558.6787985-1.016188 1.5087721-1.838713 2.489921-.402954.4759734-.805908.9533373-1.207477 1.4293107-.123241-.1448183-.308002-.3484379-.5529-.6082765-.455178-.4781586-.681877-.8619568-.681877-1.1511961 0-.4781586.56833-1.4265296 1.707758-2.8443185.525008-.650391.788105-1.2437686.788105-1.7791393 0-.6374786-1.254558-1.4628832-1.910125-2.4760152-.65715-1.0129334-.985527-1.6712706-.985527-1.9748129 0-.2759295.053411-.5256367.157661-.7499163.105041-.2242797.279318-.3726737.525403-.4445862zM70.140979 4.805027c1.017573 0 1.975602.3863807 2.877452 1.1587449.901058.7727615 1.351093 1.6631258 1.351093 2.6714901 0 1.1764251-1.634763 1.9408431-4.903894 2.2934528-1.851966.1513739-2.9943618.2437477-3.4271863.2773201v.477364c0 .437236.3831723.8152733 1.1497143 1.1353038.651809.2689766 1.234183.4026703 1.751476.4026703.651017 0 1.459299-.1764042 2.427417-.5284179.96713-.3514177 1.959777-.719721 2.977548-1.1049098.300682 0 .582572.1170068.850813.3510204.265273.2354042.399195.5037849.399195.8057379 0 .8540108-.750717 1.5743278-2.252151 2.1599578-1.21816.4692192-2.343741.7034315-3.37793.7034315-1.667601 0-3.0353105-.3599599-4.1027333-1.0828594-1.2509973-.8565932-1.8768916-2.0816883-1.8768916-3.676676 0-1.5282401.6387524-2.9174229 1.9152682-4.1675484C67.175498 5.4299904 68.59009 4.805027 70.140979 4.805027zM24.4694886.0762829c.4844548.1843503.8508127.4769667 1.1020408.8794383.1997956.3353269.349939.795408.4494411 1.3814353.1002935.586822.1669579 1.2149639.2003891 1.8840283.0332333.670455.0504434 1.3983209.0504434 2.18618V8.442171c0 1.0723307.0621147.1168081.1867397 2.2608736.1250206 2.1438669.1877287 3.751767.1877287 4.8240977l-.6253009.0500607c-.2498433 0-.4838613-.0345657-.7006692-.1001213-.2162145-.0675422-.3746662-.184549-.4751575-.352411-.0164188-.065953-.0995021-1.0967651-.2504368-3.0894568-.1999934-2.797039-.3333223-2.1359207-.399789-3.1405106-.1282889-1.9706584-.1948602-2.7464617-.2004065-3.0737576l-.0003782-4.5386384c0-.3021517.029277-.561593.087831-.7795157.0583561-.2177241.1877287-.3605558.3875243-.4265087zM89.535591.9672431c.68346.1509765 1.199565.0858183 1.550889.6573439.416208.6720443.440935.8158693.493356 1.0073711.05262.1911045.053609.3690979.053609.586822 0 .0846263.024332.1897139.074182.3158588.049454.1257475.083083.2060035.100095.2391786.181201.1015118.376644.1686567.584946.2022291.207115.034367.443507.049862.709373.049862.165771 0 .415417-.0077475.747157-.0248317.331146-.0158923.564175-.0250303.697108-.0250303.319779 0 .601557.0301479.84502.0904834.040321-.0263983.077265-.0501706.11123-.071214.096369.0717602.18885.1417267.277441.2098998.024731.0105246.048712.0228484.072102.0356357.169387.0907489.323764.222069.463301.3935096.385344.3266075.655915.5991614.812226.8194677.166958.2354042.250437.5290138.250437.8812262 0 .4535256.02077.8007716.062114 1.0441219.042135.2437477.196037.6414517.462893 1.1947012.767334-.9545293 1.534667-1.9092572 2.302397-2.8637865.8338-.8375225 1.968085-1.2568797 3.401866-1.2568797.834196 0 1.576802.1263435 2.227424.3772427.932709.3687006 1.400349.903674 1.400349 1.6071055 0 .1680607-.066862.3353269-.200191.502593-.134911.167862-.284659.2518924-.450826.2518924-.099304 0-.375062-.0756869-.824898-.2264648-.250437-.084229-.441924-.1257476-.575649-.1257476-1.083842 0-2.218522.7453474-3.403053 2.2364393-.533711.6700577-1.434176 2.0606311-2.701197 4.1705282-.90086 1.5073816-1.543767 2.2622643-1.926543 2.2622643-.783951 0-1.31786-1.0967651-1.600739-3.2920832-.150737-1.440038-.30088-2.8890155-.45043-4.3467337l-.250283-.9817866c-.261989.0469983-.559162.0754171-.891519.0852641-1.401339.0419158-2.327124.3389026-2.777555.8895696-.066466.2679834-.100095.5681486-.100095.9030781v1.1519907c0 .3512191-.095744 1.2284723-.29099 2.6317595-.089611.6511856-.13412 1.1702668-.13412 1.554065 0 .4841182.074973.9517482.225314 1.4036845h-.500676c-.617388 0-1.075731-.2020304-1.37582-.6017209-.350334-.4688219-.525007-1.312304-.525007-2.5328301 0-.4014784.025123-.8764585.074973-1.4287148.116316-1.2705868.174673-2.0642069.174673-2.380463 0-.9688919-.631105-1.5299113-1.896027-1.6844207l-.204992-.0210182c-1.401734-.1172055-2.101415-.7429635-2.101415-1.8802539v-.3512191c.016221-.1005186.057961-.3085086.125219-.6265526.783159.1344883 1.225874.209182 1.325179.2268621.533909.0836331.993241.1255489 1.376611.1255489.851208 0 1.451189-.2522897 1.801523-.7572665.282483-.4193572.351917-.9050646.34262-1.2264857-.009297-.3218184-.064884-.5854314-.064884-.6195998 0-.4543202.033233-.4294885.101282-.7824955zM49.7485755 2.9887395c1.1172728 0 1.9477102.794812 2.48973 2.3834428.5414262 1.5898226.8132273 3.9822048.8132273 7.1751599 0 .5689432-.0385744 1.0921961-.1135472 1.5687654-.0743793.4759735-.2037519.9394317-.3873265 1.391368-.6338069-.1656768-1.1427911-.4982225-1.5249744-.997637-.1509347-.1827611-.4516171-.7230982-.9020474-1.6216072-.0664666.1680607-.6670403.6243674-1.8009297 1.3699134-1.1346806.7459433-1.8187333 1.118021-2.0521578 1.118021-.8844416 0-1.5307111-.2932123-1.9386106-.8798357-.4088886-.5858287-.6126405-1.3387248-.6126405-2.2612709 0-1.3063444.7164946-3.1405107 2.1508687-5.5032935 1.5182486-2.4946886 2.8111832-3.7430262 3.8784081-3.7430262zM40.8665738.4219397c.6344004.2512965 1.0929412.6323136 1.3768092 1.14325.2824832.5109364.4251096 1.1349065.4251096 1.8717117l-.0002195.4589361c-.0014595 1.3765124-.010157 1.3059002-.0249033 2.3567764-.0666645 4.6083601-.1008869 7.1384091-.1008869 7.5907427-.0989087-.0162896-.3914807-.0625758-.874353-.1372694-.4848505-.075687-.8514061-.1132324-1.1016451-.1132324-.7346939.4861047-1.4381326.9126134-2.1142725 1.2811153-.6751509.368502-1.4052949.5520577-2.1888497.5520577-.9505126 0-1.768092-.3841956-2.4521446-1.1553679-.6832613-.7701789-1.0254855-1.6412738-1.0254855-2.6126887 0-1.1716574.5087864-2.4195976 1.5259635-3.7432248 1.0848307-1.4072603 2.1935973-2.1104931 3.328278-2.1104931.3501368 0 .6539843.0250303.9125317.0746936.2591408.0512526.629455.1432291 1.1133164.2777174.1000956-.3355255.1792226-.6505897.2375787-2.65381.0583561-2.0024256.3786225-2.4611162.963173-3.0809146zM16.8363082 4.3735519c1.4379347 0 2.7783455.3549935 4.020441 1.0618021 1.4703768.8387144 2.2050707 1.9160115 2.2050707 3.2318912 0 1.7596713-1.1192509 3.3633997-3.3577527 4.810192-2.026046 1.2985968-3.98701 1.9485906-5.8824964 1.9485906-1.0126273 0-1.7198246-.2628184-2.1200092-.7884551-.4013715-.52663-.6003758-1.3160784-.6003758-2.3687425 0-1.3327652.3309485-2.5824934.9920543-3.749979.6620949-1.1674857 1.5639444-2.1381059 2.7087138-2.9106688.4080973-.3460541.7192641-.5993371.93172-.7642194.3920741-.3118857.7600145-.4704111 1.1026343-.4704111zM2.384955 2.3159006c.2324355 1.376469.3859418 2.3868199.4348027 3.5829117.0496522 1.2326439.0676535.2417611.0027694 1.583863.5291616-.7596503 1.0146055-1.3510413 1.4581122-1.7755635.7198575-.7062126 1.3568296-.6094685 1.9548316-.6094685 1.3366523 0 2.3706439 1.3691189 3.1007879 4.1075551.581781 2.1553888.8318223 4.0986157.7483433 5.8296809h-.4219445c-1.1081732 0-1.7896541-1.0061791-2.0456299-3.0209213-.2543932-2.0135502-.7687184-3.2054703-1.5421845-3.5771507-1.5607794.9980344-1.9115097 1.2993915-2.3366193 2.3510623-.575253 1.4207687-.5550756 2.9150391-.7121426 3.974656 0 0-.052026.114027-.1234381.1827611-.0716099.0673435-.1511325.1092593-.5432066.2312325-.3930632.1209799-.24925.1430304-.6529953.1430304-.4045366 0-.6167947-.38797-.7376611-.5826503-.1426264-.2276567-.1699252-.4771653-.2753619-.8482497-.2585473-.8484484-.4310441-2.5433587-.5200619-5.0869161-.0583562-1.7300719-.215621-.7413743-.1626059-3.4698779.0512347-2.7275103-.002176-2.4450253.0609277-3.7515683C.0878992 1.227479.1506074.9581051.256044.7725628.3618764.5870206.5023267.4940509.6779886.4940509c.7742573 0 1.3781939-.1217745 1.7069664 1.8218497zm27.7747514 3.7384572c.2160166 0 .478916.3480407.7871155 1.043526.3085951.6952867.4630905 1.1857618.4630905 1.470432l.0001979 1.1066978c0 1.173048-.029277 2.1750554-.0880288 3.0050291-.0583561.8301723-.1875309 1.7044456-.3881177 2.6269917-.7999737-.1001213-1.342389-.4181653-1.6252679-.9559199-.0502456-.0997239-.225314-.74495-.5257987-1.9352808-.0662688-.268182-.1169101-.5824516-.1493521-.943206-.0340246-.3605559-.0506413-.7159467-.0506413-1.068159 0-.4354482.0332334-1.0981557.1002935-1.9863348.0658732-.8883777.0996999-1.55923.0996999-2.0111664.1669579 0 .4589364-.0752896.8763312-.2266635.2328311-.0834344.3997889-.1259462.500478-.1259462zm8.7559921 1.9601125c-.7511127 0-1.4931259.4439902-2.2268306 1.3321693-.7350895.8873845-1.1008539 1.7169608-1.1008539 2.4873385 0 .3353268.0913916.6273472.2757575.8792397.1833767.2522897.4413306.3766467.7742573.3766467.6015627 0 1.3180574-.4851115 2.1524512-1.4573209.8334048-.9708189 1.2504039-1.7584794 1.2504039-2.3621869 0-.3512191-.1034585-.6486031-.3129471-.8917548-.2079061-.2415625-.4791138-.3641316-.8122383-.3641316zm-20.3886449-.9573104c-1.1263724 0-2.2707461.5027916-3.4305496 1.5081761-1.161386 1.0055832-1.7407932 2.0602338-1.7407932 3.1643491 0 .4447848.163595.7574652.490785.9390343.3265966.1811719.7265834.2719564 1.2001582.2719564.9807788 0 2.1573967-.4278993 3.5304474-1.2856844 1.5030167-.9396303 2.2539315-1.8699239 2.2539315-2.79247 0-.5272259-.2445023-.9606875-.734496-1.2985968-.4905872-.3367175-1.0134186-.5067647-1.5694833-.5067647zm93.6922604-1.6247857c-.150737 0-.345785.0758856-.588111.2268621-.242327.1503806-.446672.3097006-.61363.4771654-.366951.3855861-.900663 1.281314-1.600343 2.687581-.701262 1.4080549-1.051201 2.3544394-1.051201 2.8397495v.2759295c1.167518-.2677847 2.118822-.954132 2.852527-2.0588432.733111-1.1063005 1.10026-2.2785539 1.10026-3.5181507 0-.1009159-.004154-.2222931-.012265-.3643302-.00811-.1426331-.037189-.3307578-.087237-.5659634zM50.1236373 5.426216c-.1495499 0-.3461804.0758855-.5873199.2268621-.2427219.1503806-.4470673.3097005-.6134318.477364-.3671491.3853874-.9006626 1.2811153-1.6009363 2.6873823-.7006692 1.4078562-1.0513995 2.3544394-1.0513995 2.8395509v.2761281c1.1677162-.2679833 2.1190201-.9543306 2.8531205-2.0594392.733507-1.1059031 1.1004583-2.2779578 1.1004583-3.5177533 0-.1007172-.0047476-.2216971-.0128582-.3641316-.0079127-.1426331-.036794-.3307578-.0876331-.5659633zM69.865024 7.0154427c-.566352 0-1.108569.1851449-1.625862.5530509-.300286.2179227-.717088.6203944-1.2509969 1.2058258.7540799.1839529 1.6100359.2759294 2.5654939.2759294.384755 0 .800567-.0244343 1.243678-.0748923.444298-.049862.868221-.1168081 1.270384-.2010371v-.3770441h-.001385c0-.4014784-.2538-.7322362-.762586-.9922734-.508391-.2594413-.987505-.3895592-1.438726-.3895592zM28.7324538 0c.3507303 0 .6589298.2387813.9265767.7161453.2664601.4777613.3999868.9175798.3999868 1.3188595 0 .2685793-.0668622.5077579-.1999934.7165426-.134318.2095793-.3339157.3138723-.6005736.3138723-.3501368 0-.6466651-.2214985-.8889915-.665886-.2411394-.4431956-.3624015-.8756639-.3624015-1.2940279 0-.2673874.058554-.5178892.1754641-.7538894C28.2986402.1172055 28.4824126 0 28.7324538 0z" fill="#BECEFD" fill-rule="nonzero"/></svg>