<svg width="82" height="20" xmlns="http://www.w3.org/2000/svg">
  <g fill="none" fill-rule="evenodd">
    <path d="M0 0h81.333v20H0z"/>
    <path d="M33.685 4.293v12.051c0 4.063-4.56 3.232-4.999 3.169V16.99c1.567.341 1.908-.272 1.908-1.047V4.293h3.091zM40.691 4c3.659 0 5.676 3.268 5.445 6.755h-8.212c0 1.729 1.009 2.91 2.824 2.91a2.668 2.668 0 002.45-1.498h2.708c-.49 2.074-2.478 3.776-5.215 3.776-2.738 0-5.792-1.529-5.792-5.822s3.17-6.12 5.792-6.12zm11.525 0c2.881 0 4.87 1.454 4.87 3.586h-2.882c-.115-.808-.663-1.528-2.003-1.528s-1.916.49-1.916 1.095c0 2.046 7.146.893 7.146 4.87 0 2.16-1.584 3.92-5.186 3.92-3.601 0-5.272-1.845-5.272-3.985h2.938c.144 1.432 1.296 1.938 2.42 1.938 1.124 0 1.988-.634 1.988-1.441 0-2.219-7.116-.922-7.116-4.87 0-3.111 3.37-3.585 5.013-3.585zm23.45 0C80.063 4.001 81 7.384 81 8.37h-3.05c-.204-1.298-.92-2.041-2.248-2.041-1.84 0-2.726 1.806-2.726 3.645 0 2.622 1.329 3.646 2.76 3.646 1.43 0 2.35-1.227 2.35-2.283h2.998c-.442 3.169-2.861 4.608-5.416 4.608s-5.758-1.473-5.758-5.971S73.521 4 75.667 4zm-51.383 0c3.756 0 4.752 1.774 4.752 3.102v6.72c0 .844.409 1.804.408 1.803h-3.142c-.128-.368-.205-1.088-.205-1.088-.894.97-2.453 1.405-3.756 1.405s-3.935-.434-3.935-3.424c0-2.989 2.914-3.27 5.136-3.551 2.223-.281 2.428-.69 2.428-1.38s-.46-1.507-1.942-1.507c-1.866 0-2.198 1.2-2.198 1.712h-3.066C18.968 4.753 21.983 4 24.283 4zM62.325.948V4.33h2.338v2.046h-2.338v5.967c0 .998 1.026 1.122 2.354.918v2.376s-.829.153-1.882.153c-2.177 0-3.52-.69-3.52-2.83V6.375h-1.846V4.33h1.846V.948h3.048zm6.468 3.345v11.344h-3.04V4.293h3.04zM13.34 4c2.935 0 3.976 2.012 3.975 4.119v7.507h-3.077V8.405c0-1.184-.757-1.988-1.893-1.988-1.964 0-2.083 2.035-2.083 2.603v6.607H7.09V8.428c0-1.42-.615-1.965-1.68-1.965-1.68 0-2.367 1.491-2.367 2.746v6.418H0V4.263h2.897v1.672C3.579 5.146 4.534 4 6.664 4c2.438 0 3.148 1.941 3.148 1.941s1.16-1.94 3.527-1.94zm12.588 6.092s-.597.477-2.215.613c-1.618.136-2.231.817-2.231 1.823 0 1.004 1.038 1.396 2.044 1.396 1.005 0 2.282-.766 2.402-2.18.068-.63 0-1.652 0-1.652zm14.599-3.716c-2.313 0-2.544 2.103-2.515 2.42h5.013s-.185-2.42-2.498-2.42zM33.686 0v2.58h-3.092V0h3.092zm35.107.025v2.53h-3.04V.025h3.04z" fill="#BECEFD" fill-rule="nonzero"/>
  </g>
</svg>