<svg width="82" height="20" xmlns="http://www.w3.org/2000/svg"><g fill="none" fill-rule="evenodd"><path d="M0 0h81.3333333v20H0z"/><path d="M33.6853333 4.29266667V16.344c0 4.0626667-4.56 3.232-4.9993333 3.1686667v-2.5213334c1.5673333.3406667 1.908-.272 1.908-1.0473333h-.0006667V4.29266667h3.092zm7.0053334-.29133334c3.6593333 0 5.676 3.268 5.4453333 6.75466667h-8.212c0 1.7286667 1.0086667 2.91 2.824 2.91 1.8153333 0 2.4493333-1.498 2.4493333-1.498H45.906c-.49 2.074-2.478 3.776-5.2153333 3.776-2.7373334 0-5.7913334-1.5286667-5.7913334-5.822 0-4.29333333 3.1693334-6.12066667 5.7913334-6.12066667zm11.5253333 0c2.8813333 0 4.8693333 1.45333334 4.8693333 3.58533334H54.204c-.1153333-.80733334-.6626667-1.52733334-2.0026667-1.52733334-1.34 0-1.916.48933334-1.916 1.09466667 0 2.046 7.1453334.89333333 7.146 4.87 0 2.1606667-1.5846666 3.92-5.186 3.92-3.6013333 0-5.2726666-1.8453333-5.2726666-3.9853333h2.9386666c.144 1.4326666 1.296 1.938 2.42 1.938 1.1233334 0 1.988-.634 1.988-1.4406667 0-2.2186667-7.1166666-.922-7.1166666-4.86933333 0-3.112 3.3706666-3.58533334 5.0133333-3.58533334zm23.4506667 0c4.3953333 0 5.332 3.38266667 5.332 4.368h-3.0493334c-.2046666-1.298-.92-2.04133333-2.2486666-2.04133333-1.8393334 0-2.7253334 1.806-2.7253334 3.64466667 0 2.62266663 1.3286667 3.64600003 2.7593334 3.64600003 1.4306666 0 2.3506666-1.2266667 2.3506666-2.2826667h2.998c-.4426666 3.1686667-2.8613333 4.608-5.4166666 4.608-2.5546667 0-5.7573334-1.4733333-5.7573334-5.97133333 0-4.498 3.6113334-5.97133334 5.7573334-5.97133334zm-51.384 0c3.756 0 4.7526666 1.77333334 4.7526666 3.102v6.71999997c0 .8433334.4086667 1.8033334.4080008 1.8026667h-3.1426674c-.128-.368-.2046667-1.088-.2046667-1.088-.894.9706667-2.4526667 1.4053333-3.756 1.4053333-1.3026667 0-3.9346667-.4346666-3.9346667-3.424 0-2.9893333 2.9133334-3.26999997 5.136-3.5513333 2.2226667-.28133333 2.4273334-.69 2.4273334-1.38s-.46-1.50733333-1.942-1.50733333c-1.8653334 0-2.1973334 1.20066666-2.1973334 1.712h-3.066c.2046667-3.04 3.22-3.79133334 5.5193334-3.79133334zM62.3253333.948V4.33h2.3373334v2.046h-2.3373334v5.9666667c0 .998 1.0253334 1.1226666 2.354.9186666v2.376S63.85 15.79 62.7973333 15.79c-2.1773333 0-3.52-.69-3.52-2.8306667V6.376h-1.8466666V4.33h1.8466666V.948h3.048zm6.468 3.34466667V15.6373333h-3.0406666V4.29266667h3.0406666zm-55.4546666-.29133334c2.9353333 0 3.9766666 2.012 3.9753346 4.11866667v7.5073333h-3.076668V8.40466667c0-1.18333334-.7573333-1.988-1.8933333-1.988-1.964 0-2.0826667 2.03533333-2.0826667 2.60333333v6.6073333H7.09V8.428c0-1.42-.61533333-1.96466667-1.68066667-1.96466667-1.68 0-2.36666666 1.49066667-2.36666666 2.74533334v6.41800003H0V4.26333333h2.89666667v1.67133334C3.57866667 5.146 4.534 4.00133333 6.664 4.00133333 9.102 4.00133333 9.812 5.942 9.812 5.942s1.16-1.94066667 3.5266667-1.94066667zm12.588 6.09133337S25.33 10.57 23.712 10.706c-1.618.136-2.2313333.8173333-2.2313333 1.8226667 0 1.0046666 1.0386666 1.3966666 2.044 1.3966666 1.0053333 0 2.2826666-.7666666 2.402-2.1806666.068-.63 0-1.652 0-1.652zM40.526 6.37666667c-2.3133333 0-2.544 2.10333333-2.5153333 2.42H43.024s-.1846667-2.42-2.498-2.42zM33.686 0v2.58066667h-3.092V0h3.092zm35.1073333.02533333v2.52933334h-3.0406666V.02533333h3.0406666z" fill="#BECEFD" fill-rule="nonzero"/></g></svg>