<svg width="454" height="443" xmlns="http://www.w3.org/2000/svg"><g fill-rule="nonzero" fill="none"><g fill="#3614AB"><path d="M409.998 171.677c-.09 3.699-3.07 6.495-6.77 6.315-3.43-.18-6.228-3.067-6.228-6.495 0-3.608 2.979-6.585 6.68-6.495 3.7.09 6.408 2.887 6.318 6.675zM388 171.5c0 3.7-2.888 6.588-6.499 6.498-3.61-.09-6.59-3.159-6.499-6.678.09-3.43 2.979-6.228 6.409-6.318 3.7-.09 6.589 2.708 6.589 6.498zM403.501 297c3.7 0 6.499 2.798 6.499 6.59-.09 3.52-2.708 6.318-6.228 6.408-3.61.09-6.68-2.798-6.77-6.409-.09-3.52 2.888-6.589 6.499-6.589zM426.501 297c3.7 0 6.499 2.798 6.499 6.59-.09 3.52-2.708 6.318-6.228 6.408-3.61.09-6.68-2.798-6.77-6.409-.09-3.52 2.888-6.589 6.499-6.589zM381.59 310c-3.61 0-6.678-2.979-6.588-6.59 0-3.61 3.068-6.498 6.678-6.408 3.52.09 6.228 2.798 6.318 6.319.09 3.79-2.708 6.679-6.408 6.679zM359.59 310c-3.61 0-6.678-2.979-6.588-6.59 0-3.61 3.068-6.498 6.678-6.408 3.52.09 6.228 2.798 6.318 6.319.09 3.79-2.708 6.679-6.408 6.679zM336.5 309.998c-3.61-.09-6.588-3.159-6.498-6.678.09-3.61 3.249-6.408 6.859-6.318 3.52.18 6.137 2.888 6.137 6.498.09 3.7-2.798 6.588-6.498 6.498zM322 303.455c0 3.766-2.798 6.545-6.499 6.545-3.61 0-6.59-3.048-6.499-6.634.09-3.407 2.888-6.276 6.318-6.366 3.792 0 6.68 2.78 6.68 6.455zM293.767 77.002c3.699.09 6.405 2.979 6.224 6.77-.09 3.52-2.886 6.228-6.404 6.228-3.608 0-6.675-2.979-6.585-6.59.09-3.61 3.157-6.498 6.765-6.408zM293.633 297c3.676 0 6.455 2.888 6.365 6.68-.09 3.52-2.779 6.318-6.275 6.318-3.586.09-6.633-2.888-6.723-6.499 0-3.52 3.048-6.499 6.633-6.499zM277.998 303.41c.09 3.79-2.798 6.678-6.409 6.588-3.61 0-6.589-3.068-6.589-6.588.09-3.43 2.888-6.318 6.318-6.408 3.701-.09 6.59 2.617 6.68 6.408zM248.545 297c3.676 0 6.455 2.798 6.455 6.59 0 3.52-2.69 6.318-6.186 6.408-3.586.09-6.635-2.708-6.814-6.319 0-3.61 2.959-6.679 6.545-6.679zM227.5 309.998c-3.61-.09-6.588-3.159-6.498-6.678.09-3.61 3.249-6.408 6.859-6.318 3.52.18 6.137 2.888 6.137 6.498.09 3.7-2.798 6.588-6.498 6.498zM227.5 331.998c-3.61-.09-6.588-3.159-6.498-6.678.09-3.61 3.249-6.408 6.859-6.318 3.52.18 6.137 2.888 6.137 6.498.09 3.7-2.798 6.588-6.498 6.498zM336.414 77.002c3.699-.09 6.586 2.706 6.586 6.405 0 3.608-2.616 6.404-6.045 6.585-3.609.18-6.767-2.616-6.947-6.224-.18-3.609 2.797-6.676 6.406-6.766zM359.414 77.002c3.699-.09 6.586 2.706 6.586 6.495 0 3.608-2.616 6.405-6.045 6.495-3.609.18-6.767-2.616-6.947-6.224-.18-3.609 2.797-6.676 6.406-6.766zM205.77 309.998c-3.61.09-6.678-2.798-6.768-6.409-.09-3.61 2.888-6.589 6.498-6.589 3.52 0 6.317 2.618 6.498 6.138.09 3.791-2.527 6.77-6.227 6.86zM365.998 171.59c-.09 3.7-2.978 6.498-6.679 6.408-3.43-.09-6.227-2.979-6.317-6.409-.09-3.61 2.978-6.589 6.588-6.589 3.7 0 6.498 2.888 6.408 6.59zM387.998 83.676c-.09 3.7-3.07 6.496-6.68 6.316-3.43-.18-6.228-3.068-6.318-6.406 0-3.609 2.979-6.586 6.59-6.586 3.7 0 6.498 2.887 6.408 6.676zM336.414 165.002c3.699-.09 6.586 2.706 6.586 6.405 0 3.608-2.616 6.404-6.045 6.585-3.609.18-6.767-2.616-6.947-6.224-.18-3.609 2.797-6.676 6.406-6.766zM182.77 309.998c-3.61.09-6.678-2.798-6.768-6.409-.09-3.61 2.888-6.589 6.498-6.589 3.52 0 6.317 2.618 6.498 6.138.09 3.791-2.527 6.77-6.227 6.86zM167 303.586c0 3.7-2.958 6.586-6.633 6.406-3.407-.09-6.275-2.977-6.365-6.406-.09-3.609 2.869-6.586 6.454-6.586 3.765 0 6.544 2.797 6.544 6.586zM321.998 171.234c.09 3.789-2.618 6.676-6.319 6.766-3.61 0-6.679-2.887-6.679-6.496 0-3.428 2.798-6.315 6.228-6.495 3.7-.18 6.68 2.526 6.77 6.225zM300 171.41c0 3.792-2.798 6.59-6.499 6.59-3.61-.09-6.59-3.069-6.499-6.68.09-3.43 2.979-6.228 6.409-6.318 3.7-.09 6.589 2.708 6.589 6.409zM278 171.499c0 3.7-2.887 6.59-6.586 6.499-3.61-.09-6.587-3.16-6.406-6.77.18-3.43 2.977-6.228 6.496-6.228 3.7 0 6.496 2.798 6.496 6.499zM403.77 89.998c-3.61.09-6.678-2.798-6.768-6.409-.09-3.61 2.888-6.589 6.498-6.589 3.52 0 6.317 2.618 6.498 6.138.09 3.791-2.527 6.77-6.227 6.86zM433 83.5c0 3.7-2.888 6.588-6.499 6.498-3.61-.09-6.59-3.159-6.499-6.678.09-3.43 2.979-6.228 6.409-6.318 3.7-.09 6.589 2.708 6.589 6.498zM433 61.5c0 3.7-2.888 6.588-6.499 6.498-3.61-.09-6.59-3.159-6.499-6.678.09-3.43 2.979-6.228 6.409-6.318 3.7-.09 6.589 2.708 6.589 6.498zM447.77 67.998c-3.61.09-6.678-2.798-6.768-6.409-.09-3.61 2.978-6.589 6.588-6.589 3.52 0 6.318 2.708 6.408 6.228.09 3.791-2.617 6.68-6.227 6.77zM255 171.5c0 3.7-2.888 6.588-6.499 6.498-3.61-.09-6.59-3.159-6.499-6.678.09-3.43 2.979-6.228 6.409-6.318 3.7-.09 6.589 2.708 6.589 6.498zM227.5 177.998c-3.61-.09-6.588-3.159-6.498-6.678.09-3.61 3.249-6.408 6.859-6.318 3.52.18 6.137 2.888 6.137 6.498.09 3.7-2.798 6.588-6.498 6.498zM433 237.5c0 3.7-2.887 6.588-6.586 6.498-3.61-.09-6.587-3.159-6.406-6.769.18-3.43 2.977-6.227 6.496-6.227 3.7-.09 6.496 2.798 6.496 6.498zM403.676 244c-3.609 0-6.676-2.98-6.676-6.5 0-3.611 3.067-6.5 6.676-6.5 3.519.09 6.226 2.708 6.316 6.32.18 3.7-2.617 6.68-6.316 6.68zM387.998 237.676c-.09 3.7-3.07 6.496-6.68 6.316-3.43-.18-6.228-3.068-6.318-6.406 0-3.609 2.979-6.586 6.59-6.586 3.7 0 6.498 2.887 6.408 6.676zM212 171.586c0 3.7-2.958 6.586-6.633 6.406-3.407-.09-6.275-2.977-6.365-6.406-.09-3.609 2.869-6.586 6.454-6.586 3.765 0 6.544 2.797 6.544 6.586zM359.676 244c-3.609 0-6.676-2.98-6.676-6.5 0-3.611 3.067-6.5 6.676-6.5 3.519.09 6.226 2.708 6.316 6.32.18 3.791-2.617 6.68-6.316 6.68zM342.998 237.59c-.09 3.7-2.978 6.498-6.679 6.408-3.43-.18-6.227-2.978-6.317-6.408-.09-3.61 2.978-6.588 6.588-6.588 3.7-.09 6.498 2.798 6.408 6.588zM188.998 171.32c.09 3.792-2.708 6.68-6.408 6.68-3.61 0-6.678-2.979-6.588-6.59 0-3.43 2.888-6.318 6.317-6.408 3.7-.09 6.589 2.618 6.679 6.319zM166.998 171.676c-.09 3.7-3.07 6.496-6.68 6.316-3.43-.18-6.228-3.068-6.318-6.406 0-3.609 2.979-6.586 6.59-6.586 3.7 0 6.498 2.887 6.408 6.676zM139.633 165c3.676 0 6.455 2.888 6.365 6.68-.09 3.52-2.779 6.318-6.275 6.318-3.586.09-6.633-2.888-6.723-6.499 0-3.52 3.048-6.499 6.633-6.499zM124 171.455c0 3.766-2.798 6.545-6.499 6.545-3.61 0-6.59-3.048-6.499-6.634.09-3.407 2.888-6.276 6.318-6.366 3.792 0 6.68 2.78 6.68 6.455zM315.77 243.998c-3.61.09-6.678-2.798-6.768-6.409-.09-3.61 2.978-6.589 6.588-6.589 3.52 0 6.318 2.708 6.408 6.228.09 3.791-2.617 6.68-6.227 6.77zM293.501 231c3.7 0 6.499 2.798 6.499 6.59-.09 3.52-2.708 6.318-6.228 6.408-3.61.09-6.68-2.798-6.77-6.409-.09-3.61 2.888-6.589 6.499-6.589zM278 237.63c0 3.674-2.979 6.541-6.59 6.362-3.43-.09-6.318-2.867-6.408-6.362-.09-3.584 2.888-6.54 6.499-6.63 3.7.09 6.499 2.867 6.499 6.63zM433 216.41c0 3.792-2.798 6.59-6.499 6.59-3.61 0-6.59-3.069-6.499-6.68.09-3.43 2.979-6.228 6.409-6.318 3.7-.09 6.589 2.708 6.589 6.409zM101 128.5c0 3.7-2.888 6.588-6.499 6.498-3.61-.09-6.59-3.159-6.499-6.678.09-3.43 2.979-6.228 6.409-6.318 3.7-.09 6.589 2.708 6.589 6.498zM101 171.5c0 3.7-2.887 6.588-6.586 6.498-3.61-.09-6.587-3.249-6.406-6.769.18-3.43 3.067-6.227 6.496-6.227 3.7-.09 6.496 2.708 6.496 6.498zM79 171.5c0 3.7-2.887 6.588-6.586 6.498-3.61-.09-6.587-3.249-6.406-6.769.18-3.43 3.067-6.227 6.496-6.227 3.7-.09 6.496 2.708 6.496 6.498zM58 171.5c0 3.7-2.887 6.588-6.586 6.498-3.61-.09-6.587-3.249-6.406-6.769.18-3.43 3.067-6.227 6.496-6.227 3.7-.09 6.496 2.708 6.496 6.498zM248.324 231.002c3.699-.09 6.586 2.706 6.676 6.405 0 3.608-2.526 6.404-6.045 6.585-3.609.18-6.767-2.616-6.947-6.224-.18-3.518 2.707-6.676 6.316-6.766zM227.59 231c3.7 0 6.498 2.888 6.408 6.68-.09 3.52-2.798 6.318-6.227 6.318-3.61.09-6.679-2.888-6.77-6.409-.09-3.61 2.98-6.589 6.59-6.589zM211.998 237.59c-.09 3.7-2.978 6.498-6.679 6.408-3.43-.18-6.227-2.978-6.317-6.408-.09-3.61 2.978-6.588 6.588-6.588 3.7-.09 6.498 2.798 6.408 6.588zM212 216.63c0 3.674-2.979 6.541-6.59 6.362-3.43-.09-6.318-2.867-6.408-6.362-.09-3.584 2.888-6.54 6.499-6.63 3.7.09 6.499 2.867 6.499 6.63zM233.998 216.32c.09 3.792-2.708 6.68-6.408 6.68-3.61 0-6.678-2.979-6.588-6.59 0-3.43 2.798-6.318 6.317-6.408 3.7-.09 6.589 2.618 6.679 6.319zM124 128.5c0 3.7-2.888 6.588-6.499 6.498-3.61-.09-6.59-3.159-6.499-6.678.09-3.43 2.979-6.228 6.409-6.318 3.7-.09 6.589 2.708 6.589 6.498zM146 128.5c0 3.7-2.888 6.588-6.499 6.498-3.61-.09-6.59-3.159-6.499-6.678.09-3.43 2.979-6.228 6.409-6.318 3.7-.09 6.589 2.708 6.589 6.498zM248.766 210.002c3.7.09 6.406 2.979 6.225 6.77-.09 3.52-2.887 6.228-6.405 6.228-3.609 0-6.586-2.979-6.586-6.59 0-3.61 3.067-6.498 6.766-6.408zM410 282.41c0 3.792-2.798 6.59-6.499 6.59-3.61-.09-6.59-3.069-6.499-6.68.09-3.43 2.979-6.228 6.409-6.318 3.7-.09 6.589 2.708 6.589 6.409zM381.324 276.002c3.699-.09 6.586 2.706 6.676 6.405 0 3.608-2.526 6.404-6.045 6.585-3.609.18-6.767-2.616-6.947-6.224-.18-3.518 2.707-6.676 6.316-6.766zM359.413 288.998c-3.609-.09-6.586-3.248-6.405-6.766.18-3.608 3.247-6.404 6.946-6.224 3.518.18 6.134 2.977 6.044 6.495 0 3.789-2.977 6.585-6.585 6.495zM343 282.5c0 3.7-2.888 6.588-6.499 6.498-3.61-.09-6.59-3.159-6.499-6.678.09-3.43 2.979-6.228 6.409-6.318 3.7-.09 6.589 2.708 6.589 6.498zM315.324 276.002c3.699-.09 6.586 2.706 6.676 6.405 0 3.608-2.526 6.404-6.045 6.585-3.609.18-6.767-2.616-6.947-6.224-.18-3.518 2.707-6.676 6.316-6.766zM299.998 282.677c-.09 3.699-3.07 6.495-6.77 6.315-3.43-.18-6.228-3.067-6.228-6.495 0-3.608 2.979-6.585 6.68-6.495 3.7.09 6.408 2.887 6.318 6.675zM278 282.499c0 3.7-2.887 6.59-6.586 6.499-3.61-.09-6.587-3.16-6.406-6.77.18-3.43 2.977-6.228 6.496-6.228 3.7 0 6.496 2.798 6.496 6.499zM254.998 282.324c.09 3.789-2.708 6.676-6.319 6.676-3.61 0-6.679-2.887-6.679-6.496 0-3.428 2.798-6.315 6.228-6.495 3.7-.18 6.68 2.526 6.77 6.315zM233.998 282.32c.09 3.792-2.708 6.68-6.408 6.68-3.61 0-6.678-2.979-6.588-6.59 0-3.43 2.798-6.318 6.317-6.408 3.7-.09 6.589 2.618 6.679 6.319zM205.77 288.998c-3.61.09-6.678-2.798-6.768-6.409-.09-3.61 2.978-6.589 6.588-6.589 3.52 0 6.318 2.708 6.408 6.228.09 3.791-2.617 6.68-6.227 6.77zM182.59 276c3.7 0 6.498 2.888 6.408 6.68-.09 3.52-2.798 6.318-6.318 6.318-3.61.09-6.678-2.888-6.678-6.499-.09-3.52 2.978-6.499 6.588-6.499zM167 282.41c0 3.792-2.798 6.59-6.499 6.59-3.61 0-6.59-3.069-6.499-6.68.09-3.43 2.979-6.228 6.409-6.318 3.7-.09 6.589 2.708 6.589 6.409zM189 237.41c0 3.79-2.799 6.678-6.41 6.588-3.61 0-6.59-3.069-6.59-6.588.09-3.43 2.889-6.318 6.32-6.408 3.7-.09 6.59 2.617 6.68 6.408zM343 216.41c0 3.79-2.799 6.678-6.41 6.588-3.61 0-6.59-3.069-6.59-6.588.09-3.43 2.889-6.318 6.32-6.408 3.7-.09 6.59 2.617 6.68 6.408zM365.998 216.324c.09 3.789-2.708 6.676-6.319 6.676-3.61 0-6.679-2.977-6.679-6.496 0-3.428 2.798-6.315 6.228-6.496 3.791-.18 6.68 2.617 6.77 6.316zM205.766 122.002c3.7.09 6.406 2.979 6.225 6.77-.09 3.52-2.887 6.228-6.405 6.228-3.609 0-6.586-2.979-6.586-6.59 0-3.61 3.067-6.498 6.766-6.408zM182.766 122.002c3.7.09 6.406 2.979 6.225 6.77-.09 3.52-2.887 6.228-6.405 6.228-3.609 0-6.586-2.979-6.586-6.59 0-3.61 3.067-6.498 6.766-6.408zM227.324 122.002c3.699-.09 6.586 2.706 6.676 6.405 0 3.608-2.526 6.404-6.045 6.585-3.609.18-6.767-2.616-6.947-6.224-.18-3.518 2.707-6.676 6.316-6.766zM139.633 276c3.676 0 6.455 2.888 6.365 6.68-.09 3.52-2.779 6.318-6.275 6.318-3.586.09-6.633-2.888-6.723-6.499 0-3.52 3.048-6.499 6.633-6.499zM6.766 288.998c-3.608.09-6.676-2.869-6.766-6.454C0 278.958 2.977 276 6.586 276c3.518 0 6.315 2.69 6.405 6.185.18 3.855-2.526 6.723-6.225 6.813zM242.031 127.877c.453-3.596 3.618-6.203 7.236-5.844 3.617.36 6.06 3.507 5.698 7.283-.362 3.416-3.437 5.934-6.964 5.664-3.528-.27-6.331-3.596-5.97-7.103zM242.031 16.877c.453-3.596 3.618-6.203 7.236-5.844 3.617.36 6.06 3.507 5.698 7.283-.362 3.416-3.437 5.934-6.964 5.664-3.528-.27-6.331-3.596-5.97-7.103zM293.77 134.998c-3.61.09-6.678-2.798-6.768-6.409-.09-3.61 2.978-6.589 6.588-6.589 3.52 0 6.318 2.708 6.408 6.228.09 3.791-2.617 6.68-6.227 6.77zM322 128.5c0 3.7-2.888 6.588-6.499 6.498-3.61-.09-6.59-3.159-6.499-6.678.09-3.43 2.979-6.228 6.409-6.318 3.7-.09 6.589 2.708 6.589 6.498zM336.59 122c3.7 0 6.498 2.888 6.408 6.68-.09 3.52-2.798 6.318-6.227 6.318-3.61.09-6.679-2.888-6.77-6.409-.09-3.61 2.98-6.589 6.59-6.589zM365.998 128.324c.09 3.789-2.708 6.676-6.319 6.676-3.61 0-6.679-2.977-6.679-6.496 0-3.428 2.798-6.315 6.228-6.496 3.791-.18 6.68 2.617 6.77 6.316zM381.501 135c-3.61 0-6.59-3.068-6.499-6.676.09-3.61 3.16-6.496 6.77-6.316 3.52.09 6.138 2.797 6.228 6.406 0 3.699-2.798 6.586-6.499 6.586zM166.998 237.41c.09 3.79-2.798 6.678-6.409 6.588-3.61 0-6.589-3.069-6.589-6.588.09-3.43 2.888-6.318 6.318-6.408 3.701-.09 6.59 2.617 6.68 6.408zM139.633 231c3.676 0 6.455 2.888 6.365 6.68-.09 3.52-2.779 6.318-6.275 6.318-3.586.09-6.633-2.888-6.723-6.499 0-3.52 3.048-6.499 6.633-6.499zM117.324 231.002c3.699-.09 6.586 2.706 6.676 6.405 0 3.608-2.526 6.404-6.045 6.585-3.609.18-6.767-2.616-6.947-6.224-.18-3.518 2.707-6.676 6.316-6.766zM94.68 231.002c3.7.09 6.408 2.979 6.318 6.77-.09 3.52-2.888 6.228-6.408 6.228-3.61 0-6.678-2.979-6.588-6.59 0-3.52 3.068-6.498 6.678-6.408zM72.59 231c3.7 0 6.498 2.888 6.408 6.68-.09 3.52-2.798 6.318-6.227 6.318-3.61.09-6.679-2.888-6.77-6.409-.09-3.61 2.98-6.589 6.59-6.589zM52.129 231.019c3.6.27 6.121 3.333 5.851 7.117-.27 3.423-3.24 6.035-6.751 5.855-3.6-.18-6.481-3.423-6.211-6.937.27-3.603 3.42-6.306 7.111-6.035zM29.129 231.019c3.6.27 6.121 3.333 5.851 7.117-.27 3.423-3.24 6.035-6.751 5.855-3.6-.18-6.481-3.423-6.211-6.937.27-3.603 3.42-6.306 7.111-6.035zM381.766 23.998c-3.608.09-6.676-2.869-6.766-6.454 0-3.586 2.977-6.544 6.586-6.544 3.518 0 6.315 2.69 6.405 6.185.18 3.855-2.526 6.723-6.225 6.813zM409.998 128.676c-.09 3.7-3.07 6.496-6.68 6.316-3.43-.18-6.228-3.068-6.318-6.406 0-3.609 2.979-6.586 6.59-6.586 3.7 0 6.498 2.887 6.408 6.676zM72.59 223c-3.61 0-6.59-2.979-6.59-6.59a6.573 6.573 0 016.77-6.408c3.522.09 6.23 2.798 6.23 6.319 0 3.79-2.799 6.679-6.41 6.679zM409.998 216.59c-.09 3.7-2.978 6.498-6.679 6.408-3.43-.09-6.227-2.979-6.317-6.409-.09-3.61 2.978-6.589 6.588-6.589 3.7 0 6.498 2.888 6.408 6.59zM100.998 216.32c.09 3.792-2.708 6.68-6.408 6.68-3.61 0-6.678-2.979-6.588-6.59 0-3.43 2.798-6.318 6.317-6.408 3.7-.09 6.589 2.618 6.679 6.319zM124 216.5c0 3.7-2.888 6.588-6.499 6.498-3.61-.09-6.59-3.159-6.499-6.678.09-3.43 2.979-6.228 6.409-6.318 3.7-.09 6.589 2.708 6.589 6.498zM447.5 254c3.7 0 6.588 2.797 6.498 6.496 0 3.519-2.617 6.316-6.137 6.496-3.61.18-6.769-2.707-6.859-6.316-.09-3.518 2.888-6.676 6.498-6.676zM432.998 260.41c.09 3.79-2.798 6.678-6.409 6.588-3.61 0-6.589-3.068-6.589-6.588.09-3.43 2.888-6.318 6.318-6.408 3.701-.09 6.59 2.617 6.68 6.408zM410 260.586c0 3.7-2.958 6.586-6.633 6.406-3.407-.09-6.275-2.977-6.365-6.406-.09-3.609 2.869-6.586 6.454-6.586 3.765 0 6.544 2.797 6.544 6.586zM375.031 259.877c.453-3.596 3.618-6.203 7.236-5.844 3.617.36 6.06 3.507 5.698 7.283-.362 3.416-3.437 5.934-6.964 5.664-3.528-.27-6.331-3.596-5.97-7.103zM365.998 260.234c.09 3.789-2.618 6.676-6.319 6.766-3.61 0-6.679-2.887-6.679-6.496 0-3.428 2.798-6.315 6.228-6.495 3.7-.18 6.68 2.526 6.77 6.225zM336.414 254.002c3.699-.09 6.586 2.706 6.586 6.495 0 3.608-2.616 6.405-6.045 6.495-3.609.18-6.767-2.616-6.947-6.224-.18-3.609 2.797-6.676 6.406-6.766zM315.77 266.998c-3.61.09-6.678-2.798-6.768-6.409-.09-3.61 2.888-6.589 6.498-6.589 3.52 0 6.317 2.618 6.498 6.138.09 3.791-2.527 6.77-6.227 6.86zM293.324 254.002c3.699-.09 6.586 2.706 6.676 6.405 0 3.608-2.526 6.404-6.045 6.585-3.609.18-6.767-2.616-6.947-6.224-.18-3.518 2.707-6.676 6.316-6.766zM272.129 254.019c3.6.27 6.121 3.333 5.851 7.117-.27 3.423-3.24 6.035-6.751 5.855-3.6-.18-6.481-3.423-6.211-6.937.27-3.603 3.42-6.306 7.111-6.035zM249.129 254.019c3.6.27 6.121 3.333 5.851 7.117-.27 3.423-3.24 6.035-6.751 5.855-3.6-.18-6.481-3.423-6.211-6.937.27-3.603 3.42-6.306 7.111-6.035zM234 260.586c0 3.7-2.958 6.586-6.633 6.406-3.407-.09-6.275-2.977-6.365-6.406-.09-3.609 2.869-6.586 6.454-6.586 3.765 0 6.544 2.797 6.544 6.586zM205.414 254.002c3.699-.09 6.586 2.706 6.586 6.495 0 3.608-2.616 6.405-6.045 6.495-3.609.18-6.767-2.616-6.947-6.224-.18-3.609 2.797-6.676 6.406-6.766zM182.501 267c-3.61 0-6.59-3.048-6.499-6.633.09-3.586 3.16-6.455 6.77-6.365 3.52.09 6.228 2.779 6.228 6.365 0 3.764-2.798 6.633-6.499 6.633zM403.676 156c-3.609 0-6.676-2.98-6.676-6.5 0-3.611 3.067-6.5 6.676-6.5 3.519.09 6.226 2.708 6.316 6.32.18 3.791-2.617 6.68-6.316 6.68zM167 260.455c0 3.766-2.798 6.545-6.499 6.545-3.61 0-6.59-3.048-6.499-6.634.09-3.407 2.888-6.276 6.318-6.366 3.792 0 6.68 2.78 6.68 6.455zM336.766 46.998c-3.608.09-6.676-2.869-6.766-6.454 0-3.586 2.977-6.544 6.586-6.544 3.518 0 6.315 2.69 6.405 6.185.18 3.855-2.526 6.723-6.225 6.813zM227.766 46.998c-3.608.09-6.676-2.869-6.766-6.454 0-3.586 2.977-6.544 6.586-6.544 3.518 0 6.315 2.69 6.405 6.185.18 3.855-2.526 6.723-6.225 6.813zM359.414 34.002c3.699-.09 6.586 2.706 6.586 6.495 0 3.608-2.616 6.405-6.045 6.495-3.609.18-6.767-2.616-6.947-6.224-.18-3.609 2.797-6.676 6.406-6.766zM381.545 34c3.676 0 6.455 2.798 6.455 6.59 0 3.52-2.69 6.318-6.186 6.408-3.586.09-6.635-2.708-6.814-6.319 0-3.61 2.959-6.679 6.545-6.679zM146 260.5c0 3.7-2.887 6.588-6.586 6.498-3.61-.09-6.587-3.249-6.406-6.769.18-3.43 3.067-6.227 6.496-6.227 3.7-.09 6.496 2.708 6.496 6.498zM124 260.41c0 3.792-2.798 6.59-6.499 6.59-3.61 0-6.59-3.069-6.499-6.68.09-3.43 2.979-6.228 6.409-6.318 3.7-.09 6.589 2.708 6.589 6.409zM101 260.41c0 3.7-2.887 6.678-6.496 6.588-3.61-.09-6.677-3.249-6.496-6.678.09-3.43 2.977-6.228 6.406-6.318 3.699-.09 6.586 2.708 6.586 6.408zM381.68 155.998c-3.611.09-6.68-2.888-6.68-6.498 0-3.61 2.979-6.588 6.59-6.498 3.52 0 6.318 2.707 6.408 6.227.09 3.79-2.618 6.679-6.319 6.769zM365.998 149.234c.09 3.789-2.618 6.676-6.319 6.766-3.61 0-6.679-2.887-6.679-6.496 0-3.428 2.798-6.315 6.228-6.495 3.7-.18 6.68 2.526 6.77 6.225zM277.998 216.677c-.09 3.699-3.07 6.495-6.77 6.315-3.43-.18-6.228-3.067-6.228-6.495 0-3.608 2.979-6.585 6.68-6.495 3.7.09 6.408 2.887 6.318 6.675zM94.59 99c3.7 0 6.498 2.888 6.408 6.68-.09 3.52-2.798 6.318-6.227 6.318-3.61.09-6.679-2.888-6.77-6.409-.09-3.61 2.98-6.589 6.59-6.589zM117.633 99c3.676 0 6.455 2.888 6.365 6.68-.09 3.52-2.779 6.318-6.275 6.318-3.586.09-6.633-2.888-6.723-6.499 0-3.52 3.048-6.499 6.633-6.499zM117.633 77.002c3.676 0 6.455 2.888 6.365 6.678-.09 3.52-2.779 6.318-6.275 6.318-3.586.09-6.633-2.888-6.723-6.498 0-3.52 3.048-6.588 6.633-6.498zM139.501 112c-3.61 0-6.59-3.068-6.499-6.676.09-3.61 3.16-6.496 6.77-6.316 3.52.09 6.138 2.797 6.228 6.406 0 3.699-2.798 6.586-6.499 6.586zM336.766 143.002c3.7.09 6.406 2.979 6.225 6.77-.09 3.52-2.887 6.228-6.405 6.228-3.609 0-6.586-2.979-6.586-6.59 0-3.61 3.067-6.498 6.766-6.408zM293.77 222.998c-3.61.09-6.678-2.798-6.768-6.409-.09-3.61 2.888-6.589 6.498-6.589 3.52 0 6.317 2.618 6.498 6.138.09 3.791-2.527 6.77-6.227 6.86zM293.766 99.002c3.7.09 6.406 2.979 6.225 6.77-.09 3.52-2.887 6.228-6.405 6.228-3.609 0-6.586-2.979-6.586-6.59 0-3.61 3.067-6.498 6.766-6.408zM315.77 111.998c-3.61.09-6.678-2.798-6.768-6.409-.09-3.61 2.978-6.589 6.588-6.589 3.52 0 6.318 2.708 6.408 6.228.09 3.791-2.617 6.68-6.227 6.77zM343 105.41c0 3.792-2.798 6.59-6.499 6.59-3.61 0-6.59-3.069-6.499-6.68.09-3.43 2.979-6.228 6.409-6.318 3.7-.09 6.589 2.708 6.589 6.409zM366 105.63c0 3.674-2.979 6.541-6.59 6.362-3.43-.09-6.318-2.957-6.408-6.362-.09-3.584 2.888-6.54 6.499-6.63 3.7.09 6.499 2.867 6.499 6.63zM375.031 104.877c.453-3.596 3.618-6.203 7.236-5.844 3.617.36 6.06 3.507 5.698 7.283-.362 3.416-3.437 5.934-6.964 5.664-3.528-.27-6.331-3.596-5.97-7.103zM403.77 111.998c-3.61.09-6.678-2.798-6.768-6.409-.09-3.61 2.978-6.589 6.588-6.589 3.52 0 6.318 2.708 6.408 6.228.09 3.791-2.617 6.68-6.227 6.77zM321.998 149.239c.09 3.786-2.708 6.67-6.319 6.761-3.61 0-6.679-2.885-6.679-6.49 0-3.426 2.798-6.311 6.228-6.491 3.7-.27 6.68 2.434 6.77 6.22zM432.998 105.677c-.09 3.699-3.07 6.495-6.77 6.315-3.43-.18-6.228-3.067-6.228-6.495 0-3.608 2.979-6.585 6.68-6.495 3.7.09 6.408 2.887 6.318 6.675zM293.766 143.002c3.7.09 6.406 2.979 6.225 6.77-.09 3.52-2.887 6.228-6.405 6.228-3.609 0-6.586-2.979-6.586-6.59 0-3.61 3.067-6.498 6.766-6.408zM322 61.59c-.09 3.7-2.979 6.498-6.68 6.408-3.43-.09-6.318-2.979-6.318-6.409-.09-3.61 2.888-6.589 6.59-6.589 3.7 0 6.408 2.888 6.408 6.59zM342.998 61.32c.09 3.792-2.708 6.68-6.408 6.68-3.61 0-6.678-2.979-6.588-6.59 0-3.43 2.798-6.318 6.317-6.408 3.7-.09 6.589 2.618 6.679 6.319zM359.633 55c3.676 0 6.455 2.888 6.365 6.68-.09 3.52-2.779 6.318-6.275 6.318-3.586.09-6.633-2.888-6.723-6.499 0-3.52 3.048-6.499 6.633-6.499zM403.954 55c3.428 0 6.134 2.818 6.044 6.454 0 3.726-2.887 6.635-6.585 6.544-3.609-.091-6.586-3.181-6.405-6.817.09-3.636 2.977-6.181 6.946-6.181zM271.414 155.998c-3.61-.09-6.587-3.157-6.406-6.766.18-3.608 3.248-6.404 6.857-6.224 3.519.18 6.135 2.887 6.135 6.495 0 3.699-2.887 6.585-6.586 6.495zM248.501 155.998c-3.61-.09-6.59-3.159-6.499-6.678.09-3.61 3.16-6.408 6.86-6.318 3.52.18 6.138 2.888 6.138 6.498 0 3.7-2.888 6.588-6.499 6.498zM146 216.5c0 3.7-2.887 6.588-6.586 6.498-3.61-.09-6.587-3.159-6.406-6.769.18-3.43 2.977-6.227 6.496-6.227 3.7-.09 6.496 2.798 6.496 6.498zM234 149.63c0 3.674-2.979 6.541-6.59 6.362-3.43-.09-6.318-2.957-6.408-6.362-.09-3.584 2.888-6.54 6.499-6.63 3.7.09 6.499 2.867 6.499 6.63zM205.676 156c-3.609 0-6.676-2.98-6.676-6.5 0-3.611 3.067-6.5 6.676-6.5 3.519.09 6.226 2.708 6.316 6.32.18 3.791-2.617 6.68-6.316 6.68zM182.5 155.998c-3.61-.09-6.588-3.159-6.498-6.678.09-3.61 3.249-6.408 6.859-6.318 3.52.18 6.137 2.888 6.137 6.498.09 3.7-2.798 6.588-6.498 6.498zM161.129 143.019c3.6.27 6.121 3.333 5.851 7.117-.27 3.423-3.24 6.035-6.751 5.855-3.6-.18-6.481-3.423-6.211-6.937.27-3.603 3.42-6.306 7.111-6.035zM322 216.63c0 3.674-2.979 6.541-6.59 6.362-3.43-.09-6.318-2.867-6.408-6.362-.09-3.584 2.888-6.54 6.499-6.63 3.7.09 6.499 2.867 6.499 6.63zM167 216.5c0 3.7-2.887 6.588-6.586 6.498-3.61-.09-6.587-3.159-6.406-6.769.18-3.43 2.977-6.227 6.496-6.227 3.7-.09 6.496 2.798 6.496 6.498zM139.324 143.002c3.699-.09 6.586 2.706 6.676 6.405 0 3.608-2.526 6.404-6.045 6.585-3.609.18-6.767-2.616-6.947-6.224-.18-3.518 2.707-6.676 6.316-6.766zM381.59 223c-3.61 0-6.59-2.979-6.59-6.59a6.573 6.573 0 016.77-6.408c3.522.09 6.23 2.798 6.23 6.319 0 3.79-2.799 6.679-6.41 6.679zM117.766 143.002c3.7.09 6.406 2.979 6.225 6.77-.09 3.52-2.887 6.228-6.405 6.228-3.609 0-6.586-2.979-6.586-6.59 0-3.61 3.067-6.498 6.766-6.408zM94.77 155.998c-3.61.09-6.678-2.798-6.768-6.409-.09-3.61 2.888-6.589 6.498-6.589 3.52 0 6.317 2.618 6.498 6.138.09 3.791-2.527 6.77-6.227 6.86zM182.414 210.002c3.699-.09 6.586 2.706 6.586 6.405 0 3.608-2.616 6.404-6.045 6.585-3.609.18-6.767-2.616-6.947-6.224-.18-3.609 2.797-6.676 6.406-6.766zM72.676 156c-3.609 0-6.676-2.98-6.676-6.5 0-3.611 3.067-6.5 6.676-6.5 3.519.09 6.226 2.708 6.316 6.32.18 3.791-2.617 6.68-6.316 6.68zM454 216.5c0 3.7-2.887 6.588-6.586 6.498-3.61-.09-6.587-3.249-6.406-6.769.18-3.43 3.067-6.227 6.496-6.227 3.7-.09 6.496 2.708 6.496 6.498zM94.633 188c3.676 0 6.455 2.888 6.365 6.68-.09 3.52-2.779 6.318-6.275 6.318-3.586.09-6.633-2.888-6.723-6.499 0-3.52 3.048-6.499 6.633-6.499zM72.633 188c3.676 0 6.455 2.888 6.365 6.68-.09 3.52-2.779 6.318-6.275 6.318-3.586.09-6.633-2.888-6.723-6.499 0-3.52 3.048-6.499 6.633-6.499zM117.414 200.998c-3.61-.09-6.587-3.157-6.406-6.766.18-3.608 3.248-6.404 6.857-6.224 3.519.18 6.135 2.887 6.135 6.495 0 3.699-2.887 6.585-6.586 6.495zM139.766 188.002c3.7.09 6.406 2.979 6.225 6.77-.09 3.52-2.887 6.228-6.405 6.228-3.609 0-6.586-2.979-6.586-6.59 0-3.61 3.067-6.498 6.766-6.408zM160.413 200.998c-3.609-.09-6.586-3.248-6.405-6.766.18-3.608 3.247-6.404 6.946-6.224 3.518.18 6.134 2.977 6.044 6.495 0 3.789-2.977 6.585-6.585 6.495zM189 194.41c0 3.792-2.798 6.59-6.499 6.59-3.61-.09-6.59-3.069-6.499-6.68.09-3.43 2.979-6.228 6.409-6.318 3.7-.09 6.589 2.708 6.589 6.409zM212 194.5c0 3.7-2.888 6.588-6.499 6.498-3.61-.09-6.59-3.159-6.499-6.678.09-3.43 2.979-6.228 6.409-6.318 3.7-.09 6.589 2.708 6.589 6.498zM233.998 194.32c.09 3.792-2.708 6.68-6.408 6.68-3.61 0-6.678-2.979-6.588-6.59 0-3.43 2.798-6.318 6.317-6.408 3.7-.09 6.589 2.618 6.679 6.319zM248.766 200.998c-3.608.09-6.676-2.869-6.766-6.454 0-3.586 2.977-6.544 6.586-6.544 3.518 0 6.315 2.69 6.405 6.185.18 3.855-2.526 6.723-6.225 6.813zM278 194.59c-.09 3.7-2.979 6.498-6.68 6.408-3.43-.09-6.318-2.979-6.318-6.409-.09-3.61 2.888-6.589 6.59-6.589 3.7 0 6.408 2.888 6.408 6.59zM300 194.41c0 3.79-2.799 6.678-6.41 6.588-3.61 0-6.59-3.069-6.59-6.588.09-3.43 2.889-6.318 6.32-6.408 3.7-.09 6.59 2.617 6.68 6.408zM315.5 188c3.7 0 6.588 2.797 6.498 6.496 0 3.519-2.617 6.316-6.137 6.496-3.61.18-6.769-2.707-6.859-6.316-.09-3.518 2.888-6.676 6.498-6.676zM342.998 194.676c-.09 3.7-3.07 6.496-6.68 6.316-3.43-.18-6.228-3.068-6.318-6.406 0-3.609 2.979-6.586 6.59-6.586 3.7 0 6.498 2.887 6.408 6.676zM359.59 188c3.7 0 6.498 2.888 6.408 6.68-.09 3.52-2.798 6.318-6.318 6.318-3.61.09-6.678-2.888-6.678-6.499-.09-3.52 2.978-6.499 6.588-6.499zM387.998 194.676c-.09 3.7-3.07 6.496-6.68 6.316-3.43-.18-6.228-3.068-6.318-6.406 0-3.609 2.979-6.586 6.59-6.586 3.7 0 6.498 2.887 6.408 6.676zM410 194.499c0 3.7-2.887 6.59-6.586 6.499-3.61-.09-6.587-3.16-6.406-6.77.18-3.43 2.977-6.228 6.496-6.228 3.7 0 6.496 2.798 6.496 6.499zM433 194.586c0 3.7-2.958 6.586-6.633 6.406-3.407-.09-6.275-2.977-6.365-6.406-.09-3.609 2.869-6.586 6.454-6.586 3.765 0 6.544 2.797 6.544 6.586zM160.766 319.002c3.7.09 6.406 2.979 6.225 6.77-.09 3.52-2.887 6.228-6.405 6.228-3.609 0-6.586-2.979-6.586-6.59 0-3.61 3.067-6.498 6.766-6.408zM182.766 319.002c3.7.09 6.406 2.979 6.225 6.77-.09 3.52-2.887 6.228-6.405 6.228-3.609 0-6.586-2.979-6.586-6.59 0-3.61 3.067-6.498 6.766-6.408zM248.5 319c3.7 0 6.588 2.797 6.498 6.496 0 3.519-2.617 6.316-6.137 6.496-3.61.18-6.769-2.707-6.859-6.316-.09-3.518 2.888-6.676 6.498-6.676zM277.998 325.32c.09 3.792-2.708 6.68-6.408 6.68-3.61 0-6.678-2.979-6.588-6.59 0-3.43 2.798-6.318 6.317-6.408 3.7-.09 6.589 2.618 6.679 6.319zM300 325.59c-.09 3.7-2.979 6.498-6.68 6.408-3.43-.09-6.318-2.979-6.318-6.409-.09-3.61 2.888-6.589 6.59-6.589 3.7 0 6.408 2.888 6.408 6.59zM315.501 332c-3.61 0-6.59-3.048-6.499-6.633.09-3.586 3.16-6.455 6.77-6.365 3.52.09 6.228 2.779 6.228 6.365 0 3.764-2.798 6.633-6.499 6.633zM342.998 326.59c-.09 3.7-2.978 6.498-6.679 6.408-3.43-.18-6.227-2.978-6.317-6.408-.09-3.61 2.978-6.588 6.588-6.588 3.7-.09 6.498 2.798 6.408 6.588zM366 325.586c0 3.7-2.958 6.586-6.633 6.406-3.407-.09-6.275-2.977-6.365-6.406-.09-3.609 2.869-6.586 6.454-6.586 3.765 0 6.544 2.797 6.544 6.586zM387.998 325.41c.09 3.79-2.798 6.678-6.409 6.588-3.61 0-6.589-3.068-6.589-6.588.09-3.43 2.888-6.318 6.318-6.408 3.701-.09 6.59 2.617 6.68 6.408zM387.998 370.41c.09 3.79-2.798 6.678-6.409 6.588-3.61 0-6.589-3.068-6.589-6.588.09-3.43 2.888-6.318 6.318-6.408 3.701-.09 6.59 2.617 6.68 6.408zM387.998 391.41c.09 3.79-2.798 6.678-6.409 6.588-3.61 0-6.589-3.069-6.589-6.588.09-3.43 2.888-6.318 6.318-6.408 3.701-.09 6.59 2.708 6.68 6.408zM387.998 436.409c.09 3.79-2.798 6.68-6.409 6.589-3.61 0-6.589-3.069-6.589-6.59.09-3.43 2.888-6.318 6.318-6.408 3.701 0 6.59 2.708 6.68 6.409zM387.998 348.409c.09 3.79-2.798 6.68-6.409 6.589-3.61 0-6.589-3.069-6.589-6.59.09-3.43 2.888-6.318 6.318-6.408 3.701 0 6.59 2.708 6.68 6.409zM403.77 331.998c-3.61.09-6.678-2.798-6.768-6.409-.09-3.61 2.978-6.589 6.588-6.589 3.52 0 6.318 2.708 6.408 6.228.09 3.791-2.617 6.68-6.227 6.77zM433 325.41c0 3.702-2.798 6.59-6.499 6.59-3.61-.09-6.59-3.069-6.499-6.68.09-3.43 2.979-6.228 6.409-6.318 3.7-.09 6.589 2.708 6.589 6.409zM299.998 348.32c.09 3.792-2.708 6.68-6.408 6.68-3.61 0-6.678-2.979-6.588-6.59 0-3.43 2.798-6.318 6.317-6.408 3.7-.09 6.589 2.618 6.679 6.319zM299.998 370.324c.09 3.789-2.708 6.676-6.408 6.676-3.61 0-6.678-2.977-6.588-6.586 0-3.428 2.798-6.316 6.317-6.406 3.7-.18 6.589 2.617 6.679 6.316zM366 348.499c0 3.7-2.887 6.59-6.586 6.499-3.61-.09-6.587-3.16-6.406-6.77.18-3.43 2.977-6.228 6.496-6.228 3.7 0 6.496 2.798 6.496 6.499zM366 370.499c0 3.7-2.887 6.59-6.586 6.499-3.61-.09-6.587-3.16-6.406-6.77.18-3.43 2.977-6.228 6.496-6.228 3.7 0 6.496 2.798 6.496 6.499zM366 391.5c0 3.7-2.887 6.588-6.586 6.498-3.61-.09-6.587-3.159-6.406-6.769.18-3.43 2.977-6.227 6.496-6.227 3.7-.09 6.496 2.708 6.496 6.498zM366 414.499c0 3.7-2.887 6.59-6.586 6.499-3.61-.09-6.587-3.16-6.406-6.77.18-3.43 2.977-6.228 6.496-6.228 3.7 0 6.496 2.798 6.496 6.499zM325.676 100.998c-3.699.09-6.586-2.69-6.676-6.365 0-3.675 2.887-6.633 6.496-6.633 3.428 0 6.316 2.779 6.496 6.185.18 3.586-2.707 6.634-6.316 6.813zM304.676 100.998c-3.699.09-6.586-2.69-6.676-6.365 0-3.675 2.887-6.633 6.496-6.633 3.428 0 6.316 2.779 6.496 6.185.18 3.586-2.707 6.634-6.316 6.813zM354.998 94.72c-.09 3.584-3.157 6.451-6.765 6.272-3.699-.09-6.405-3.046-6.224-6.81.18-3.404 3.066-6.182 6.494-6.182 3.608.18 6.585 3.226 6.495 6.72zM370.232 88.008c3.518-.18 6.676 2.793 6.766 6.396.09 3.424-2.616 6.307-6.044 6.577-3.698.27-6.765-2.432-6.946-6.126-.18-3.604 2.616-6.667 6.224-6.847zM398.998 94.59c-.09 3.61-3.068 6.498-6.678 6.408-3.7-.09-6.408-2.978-6.318-6.769.09-3.52 2.978-6.227 6.408-6.227 3.61-.09 6.678 2.978 6.588 6.588zM415.676 100.998c-3.699.09-6.586-2.69-6.676-6.365 0-3.675 2.887-6.633 6.496-6.633 3.428 0 6.316 2.779 6.496 6.185.18 3.586-2.707 6.634-6.316 6.813zM436.324 88c3.609 0 6.676 2.959 6.676 6.545S440.023 101 436.324 101c-3.519-.09-6.226-2.69-6.316-6.276-.18-3.676 2.617-6.634 6.316-6.724z"/><path d="M442.998 226.41c.09 3.611-2.887 6.59-6.495 6.59-3.518 0-6.314-2.618-6.495-6.138-.18-3.7 2.616-6.77 6.225-6.86 3.518-.09 6.675 2.888 6.765 6.409zM392.499 233c-3.7 0-6.499-2.778-6.499-6.54.09-3.495 2.798-6.273 6.228-6.452 3.52-.18 6.68 2.777 6.77 6.361.09 3.585-2.888 6.631-6.499 6.631zM370.686 220.002c3.603.18 6.486 3.315 6.306 6.809-.18 3.583-3.243 6.36-6.937 6.18-3.693-.178-6.306-3.135-6.036-6.897.27-3.494 3.243-6.181 6.667-6.092zM354.998 226.414c.09 3.609-2.867 6.586-6.54 6.586-3.493 0-6.27-2.616-6.45-6.135-.179-3.7 2.598-6.767 6.182-6.857 3.673-.18 6.718 2.797 6.808 6.406zM325.499 220c3.61.09 6.59 3.158 6.499 6.676-.09 3.61-3.16 6.496-6.77 6.316-3.52-.09-6.228-2.887-6.228-6.406 0-3.609 2.888-6.586 6.499-6.586zM304.32 233c-3.7-.09-6.408-2.959-6.318-6.724.09-3.497 2.979-6.186 6.409-6.276 3.61 0 6.589 3.048 6.589 6.545 0 3.586-3.069 6.455-6.68 6.455zM282.499 220c3.61.09 6.59 3.158 6.499 6.676-.09 3.61-3.16 6.496-6.77 6.316-3.52-.09-6.228-2.797-6.228-6.406 0-3.609 2.888-6.586 6.499-6.586zM259.323 233c-3.699-.09-6.495-2.98-6.315-6.68.09-3.521 2.887-6.32 6.405-6.32 3.608 0 6.675 2.98 6.585 6.59 0 3.521-2.977 6.41-6.675 6.41zM237.586 232.998c-3.699.09-6.586-2.688-6.586-6.45 0-3.494 2.616-6.271 6.135-6.54 3.519-.18 6.767 2.688 6.857 6.271.18 3.583-2.797 6.63-6.406 6.719zM216.499 220c3.61.09 6.59 3.158 6.499 6.676-.09 3.61-3.16 6.496-6.77 6.316-3.52-.18-6.138-2.887-6.228-6.406 0-3.609 2.888-6.586 6.499-6.586zM194.499 233c-3.7 0-6.499-2.778-6.499-6.54.09-3.495 2.798-6.273 6.228-6.452 3.52-.18 6.68 2.777 6.77 6.361.09 3.585-2.888 6.631-6.499 6.631zM171.586 232.998c-3.699.09-6.586-2.706-6.586-6.405 0-3.518 2.616-6.314 6.135-6.585 3.519-.18 6.767 2.706 6.857 6.315.18 3.518-2.707 6.585-6.406 6.675zM149.586 232.998c-3.699.09-6.586-2.688-6.586-6.45 0-3.494 2.616-6.271 6.135-6.54 3.519-.18 6.767 2.688 6.857 6.271.18 3.583-2.797 6.63-6.406 6.719zM128.41 233c-3.7-.09-6.498-2.979-6.408-6.68.09-3.52 2.889-6.318 6.319-6.318 3.61-.09 6.679 2.979 6.679 6.499 0 3.61-2.979 6.499-6.59 6.499zM105.59 232.998c-3.702.09-6.59-2.797-6.59-6.495a6.46 6.46 0 016.138-6.495c3.52-.18 6.68 2.796 6.86 6.314.09 3.609-2.798 6.586-6.409 6.676zM89.998 117.59c-.09 3.61-3.068 6.498-6.678 6.408-3.7-.09-6.408-2.978-6.318-6.769.09-3.52 2.978-6.227 6.408-6.227 3.61-.09 6.678 2.978 6.588 6.588zM100.008 117.185c.18-3.496 2.957-6.185 6.451-6.185 3.584 0 6.541 3.048 6.541 6.633a6.525 6.525 0 01-6.72 6.365c-3.763-.18-6.45-3.048-6.272-6.813zM128.323 124c-3.699-.09-6.495-2.98-6.315-6.68.09-3.521 2.887-6.32 6.405-6.32 3.608 0 6.675 2.98 6.585 6.59 0 3.521-2.977 6.41-6.675 6.41zM89.998 226.367c.09 3.585-2.887 6.543-6.495 6.633-3.518 0-6.314-2.6-6.494-6.096-.18-3.675 2.525-6.723 6.224-6.902 3.518-.09 6.675 2.779 6.765 6.365zM244 117.544c0 3.585-2.979 6.544-6.59 6.454-3.52 0-6.318-2.69-6.408-6.185-.09-3.676 2.708-6.723 6.319-6.813 3.52 0 6.679 3.048 6.679 6.544zM266 117.544c0 3.585-2.979 6.544-6.59 6.454-3.52 0-6.318-2.69-6.408-6.185-.09-3.676 2.708-6.723 6.319-6.813 3.52 0 6.679 3.048 6.679 6.544zM266 94.544c0 3.585-2.979 6.544-6.59 6.454-3.52 0-6.318-2.69-6.408-6.185-.09-3.676 2.708-6.723 6.319-6.813 3.52 0 6.679 3.048 6.679 6.544zM266 72.544c0 3.585-2.979 6.544-6.59 6.454-3.52 0-6.318-2.69-6.408-6.185-.09-3.676 2.708-6.723 6.319-6.813 3.52 0 6.679 2.958 6.679 6.544zM244 27.544c0 3.585-2.979 6.544-6.59 6.454-3.52 0-6.318-2.69-6.408-6.185-.09-3.676 2.708-6.723 6.319-6.813 3.52 0 6.679 3.048 6.679 6.544zM223 117.544c0 3.585-2.979 6.544-6.59 6.454-3.52 0-6.318-2.69-6.408-6.185-.09-3.676 2.708-6.723 6.319-6.813 3.52 0 6.679 3.048 6.679 6.544zM223 72.544c0 3.585-2.979 6.544-6.59 6.454-3.52 0-6.318-2.69-6.408-6.185-.09-3.676 2.708-6.723 6.319-6.813 3.52 0 6.679 3.048 6.679 6.544zM223 50.544c0 3.585-2.979 6.544-6.59 6.454-3.52 0-6.318-2.69-6.408-6.185-.09-3.676 2.708-6.723 6.319-6.813 3.52 0 6.679 2.958 6.679 6.544zM68.998 226.414c.09 3.609-2.867 6.586-6.54 6.586-3.493 0-6.27-2.616-6.45-6.135-.179-3.7 2.598-6.767 6.182-6.857 3.673-.18 6.718 2.797 6.808 6.406zM304.232 111.008c3.518-.18 6.676 2.793 6.766 6.396.09 3.424-2.616 6.307-6.044 6.577-3.698.27-6.765-2.432-6.946-6.126-.18-3.604 2.616-6.667 6.224-6.847zM331.998 117.59a6.57 6.57 0 01-6.765 6.408c-3.699-.09-6.405-3.069-6.224-6.77.18-3.52 3.066-6.228 6.494-6.228 3.518 0 6.585 3.069 6.495 6.59zM342.008 117.185c.18-3.496 2.957-6.185 6.451-6.185 3.584 0 6.541 3.048 6.541 6.633a6.525 6.525 0 01-6.72 6.365c-3.763-.18-6.45-3.048-6.272-6.813zM370.32 111.002c3.611-.09 6.68 2.979 6.68 6.499 0 3.61-2.979 6.499-6.59 6.499-3.52 0-6.227-2.708-6.408-6.228-.09-3.701 2.708-6.68 6.319-6.77zM398.998 117.41c.09 3.611-2.887 6.59-6.495 6.59-3.518 0-6.314-2.618-6.495-6.138-.18-3.7 2.616-6.77 6.225-6.86 3.518-.09 6.675 2.888 6.765 6.409zM421.998 117.72c-.09 3.584-3.157 6.451-6.765 6.272-3.699-.09-6.405-3.046-6.224-6.81.18-3.404 3.066-6.182 6.494-6.182 3.608.18 6.585 3.226 6.495 6.72zM436.499 111c3.61.09 6.59 3.158 6.499 6.676-.09 3.61-3.16 6.496-6.77 6.316-3.52-.09-6.228-2.887-6.228-6.406 0-3.609 2.888-6.586 6.499-6.586zM415.499 220c3.61.09 6.59 3.158 6.499 6.676-.09 3.61-3.16 6.496-6.77 6.316-3.52-.09-6.228-2.797-6.228-6.406 0-3.609 2.888-6.586 6.499-6.586zM90 138.633c0 3.586-3.069 6.455-6.68 6.365-3.7-.09-6.408-2.958-6.318-6.723.09-3.496 2.979-6.185 6.409-6.275 3.61.09 6.589 3.137 6.589 6.633zM111.998 138.59c-.09 3.61-3.068 6.498-6.678 6.408-3.7-.09-6.408-2.978-6.318-6.769.18-3.52 2.978-6.227 6.408-6.227 3.61-.09 6.678 2.978 6.588 6.588zM135 138.633c0 3.586-3.069 6.455-6.68 6.365-3.7-.09-6.408-2.958-6.318-6.723.09-3.496 2.979-6.185 6.409-6.275 3.61.09 6.589 3.137 6.589 6.633zM171.232 132.008c3.518-.18 6.676 2.793 6.766 6.396.09 3.424-2.616 6.307-6.044 6.577-3.698.27-6.765-2.432-6.946-6.126-.18-3.604 2.616-6.667 6.224-6.847zM200.998 138.59a6.57 6.57 0 01-6.765 6.408c-3.699-.09-6.405-3.069-6.224-6.769.18-3.52 2.976-6.227 6.404-6.227 3.608-.09 6.675 2.978 6.585 6.588zM223 138.633c0 3.586-3.069 6.455-6.68 6.365-3.7-.09-6.408-2.958-6.318-6.723.09-3.496 2.979-6.185 6.409-6.275 3.61.09 6.589 3.137 6.589 6.633zM243.998 138.414c.09 3.609-2.867 6.586-6.54 6.586-3.493 0-6.27-2.616-6.45-6.135-.179-3.7 2.598-6.767 6.182-6.857 3.673-.18 6.718 2.797 6.808 6.406zM259.499 145c-3.7 0-6.499-2.778-6.499-6.54 0-3.495 2.708-6.273 6.228-6.452 3.52-.18 6.68 2.777 6.77 6.361.09 3.585-2.888 6.541-6.499 6.631zM288.982 138.945c-.27 3.604-3.42 6.307-7.021 6.036-3.69-.27-6.211-3.243-5.941-7.027.27-3.423 3.33-6.126 6.661-5.945 3.69.27 6.572 3.423 6.301 6.936zM310.998 138.68c-.09 3.61-3.157 6.408-6.855 6.318-3.699-.18-6.315-3.159-6.134-6.859.18-3.43 3.157-6.227 6.585-6.137 3.518 0 6.494 3.159 6.404 6.678zM332 138.633c0 3.586-3.069 6.455-6.68 6.365-3.7-.09-6.408-2.958-6.318-6.723.09-3.496 2.979-6.185 6.409-6.275 3.61.09 6.589 3.137 6.589 6.633zM354.998 138.68c-.09 3.61-3.157 6.408-6.855 6.318-3.699-.18-6.315-3.159-6.134-6.859.18-3.43 3.157-6.227 6.585-6.137 3.518 0 6.494 3.159 6.404 6.678zM376.998 138.59c-.09 3.61-3.068 6.498-6.678 6.408-3.7-.09-6.408-2.978-6.318-6.769.18-3.52 2.978-6.227 6.408-6.227 3.61-.09 6.678 2.978 6.588 6.588zM392.41 145c-3.7 0-6.498-2.869-6.408-6.633.09-3.496 2.798-6.275 6.319-6.365 3.61-.09 6.679 2.869 6.679 6.454a6.545 6.545 0 01-6.59 6.544zM68.998 160.59c-.09 3.61-3.068 6.498-6.678 6.408-3.7-.09-6.408-2.978-6.318-6.769.18-3.52 2.978-6.227 6.408-6.227 3.61-.09 6.678 2.978 6.588 6.588zM83.324 154c3.609 0 6.676 2.959 6.676 6.545S87.023 167 83.324 167c-3.519-.09-6.226-2.69-6.316-6.276-.18-3.676 2.617-6.634 6.316-6.724zM111.998 160.41c.09 3.611-2.887 6.59-6.495 6.59-3.518 0-6.314-2.618-6.495-6.138-.18-3.7 2.616-6.77 6.225-6.86 3.518-.09 6.675 2.888 6.765 6.409zM128.499 154c3.61.09 6.59 3.158 6.499 6.676-.09 3.61-3.16 6.496-6.77 6.316-3.52-.09-6.138-2.887-6.228-6.406 0-3.609 2.888-6.586 6.499-6.586zM149.499 167c-3.7 0-6.499-2.778-6.499-6.54 0-3.495 2.708-6.273 6.228-6.452 3.52-.18 6.68 2.777 6.77 6.361.09 3.585-2.888 6.541-6.499 6.631zM171.586 166.998c-3.699.09-6.586-2.688-6.586-6.45 0-3.494 2.616-6.271 6.135-6.54 3.519-.18 6.767 2.688 6.857 6.271.18 3.583-2.797 6.63-6.406 6.719zM194.499 154c3.61.09 6.59 3.158 6.499 6.676-.09 3.61-3.16 6.496-6.77 6.316-3.52-.09-6.138-2.887-6.228-6.406 0-3.609 2.888-6.586 6.499-6.586zM216.676 166.998c-3.699.09-6.586-2.69-6.676-6.365 0-3.675 2.887-6.633 6.496-6.633 3.428 0 6.316 2.779 6.496 6.185.18 3.586-2.707 6.634-6.316 6.813zM244 160.456a6.545 6.545 0 01-6.59 6.544c-3.52 0-6.318-2.6-6.408-6.185-.09-3.676 2.618-6.723 6.319-6.813 3.52-.09 6.679 2.869 6.679 6.454zM265.998 160.59c-.09 3.61-3.068 6.498-6.678 6.408-3.7-.09-6.408-2.978-6.318-6.769.09-3.52 2.978-6.227 6.408-6.227 3.61-.09 6.678 2.978 6.588 6.588zM288.998 160.41c.09 3.611-2.887 6.59-6.495 6.59-3.518 0-6.314-2.618-6.495-6.138-.18-3.7 2.616-6.77 6.225-6.86 3.518-.09 6.675 2.888 6.765 6.409zM304.41 167c-3.7-.09-6.498-2.979-6.408-6.68.09-3.52 2.889-6.318 6.319-6.318 3.61-.09 6.679 2.979 6.679 6.499 0 3.61-2.979 6.499-6.59 6.499zM331.998 160.68c-.09 3.61-3.157 6.408-6.855 6.318-3.699-.18-6.315-3.159-6.134-6.859.18-3.43 3.157-6.227 6.585-6.137 3.518 0 6.494 3.159 6.404 6.678zM354.998 160.677c-.09 3.609-3.157 6.495-6.765 6.315-3.699-.18-6.405-3.067-6.224-6.856.18-3.428 3.066-6.224 6.494-6.134 3.608 0 6.585 3.067 6.495 6.675zM370.232 154.008c3.518-.18 6.676 2.793 6.766 6.396.09 3.424-2.616 6.307-6.044 6.577-3.698.27-6.765-2.432-6.946-6.126-.18-3.604 2.616-6.667 6.224-6.847zM392.676 166.998c-3.699.09-6.586-2.69-6.676-6.365 0-3.675 2.887-6.633 6.496-6.633 3.428 0 6.316 2.779 6.496 6.185.18 3.586-2.707 6.634-6.316 6.813zM442.998 205.367c.09 3.585-2.796 6.543-6.495 6.633-3.518 0-6.314-2.6-6.494-6.096-.18-3.675 2.525-6.723 6.224-6.902 3.518-.09 6.675 2.779 6.765 6.365zM421.998 205.59c-.09 3.61-3.068 6.498-6.678 6.408-3.7-.09-6.408-2.978-6.318-6.769.18-3.52 2.978-6.227 6.408-6.227 3.61-.09 6.678 2.978 6.588 6.588zM392.586 211.998c-3.699.09-6.586-2.706-6.586-6.405 0-3.518 2.616-6.314 6.135-6.585 3.519-.18 6.767 2.706 6.857 6.315.18 3.518-2.707 6.585-6.406 6.675zM376.998 205.41c.09 3.611-2.887 6.59-6.495 6.59-3.518 0-6.314-2.618-6.495-6.138-.18-3.7 2.616-6.77 6.225-6.86 3.518-.09 6.675 2.888 6.765 6.409zM348.232 199.008c3.518-.18 6.676 2.793 6.766 6.396.09 3.424-2.616 6.307-6.044 6.577-3.698.27-6.765-2.432-6.946-6.126-.18-3.604 2.616-6.667 6.224-6.847zM319.008 205.185c.18-3.496 2.957-6.185 6.451-6.185 3.584 0 6.541 3.048 6.541 6.633a6.525 6.525 0 01-6.72 6.365c-3.763-.18-6.45-3.048-6.272-6.813zM304.676 211.998c-3.699.09-6.586-2.69-6.676-6.365 0-3.675 2.887-6.633 6.496-6.633 3.428 0 6.316 2.779 6.496 6.185.18 3.586-2.707 6.634-6.316 6.813zM289 205.544c0 3.585-2.979 6.544-6.59 6.454-3.52 0-6.318-2.69-6.408-6.185-.09-3.676 2.708-6.723 6.319-6.813 3.52 0 6.679 3.048 6.679 6.544zM223 314.456a6.545 6.545 0 01-6.59 6.544c-3.52 0-6.318-2.6-6.408-6.185-.09-3.676 2.708-6.723 6.319-6.813 3.52-.09 6.679 2.869 6.679 6.454zM259.499 199c3.61.09 6.59 3.158 6.499 6.676-.09 3.61-3.16 6.496-6.77 6.316-3.52-.09-6.228-2.797-6.228-6.406 0-3.609 2.888-6.586 6.499-6.586zM244 205.633c0 3.586-2.979 6.455-6.68 6.365-3.7-.09-6.408-2.958-6.318-6.723.09-3.496 2.979-6.275 6.409-6.275 3.61.09 6.589 3.137 6.589 6.633zM216.232 199.008c3.518-.18 6.676 2.793 6.766 6.396.09 3.424-2.616 6.307-6.044 6.577-3.698.27-6.765-2.432-6.946-6.126-.18-3.604 2.616-6.667 6.224-6.847zM200.998 205.68c-.09 3.61-3.157 6.408-6.855 6.318-3.699-.18-6.315-3.159-6.134-6.859.18-3.43 3.157-6.227 6.585-6.137 3.518 0 6.494 3.159 6.404 6.678zM177.998 205.41c.09 3.611-2.887 6.59-6.495 6.59-3.518 0-6.314-2.618-6.495-6.138-.18-3.7 2.616-6.77 6.225-6.86 3.518-.09 6.675 2.888 6.765 6.409zM149.32 212c-3.7-.09-6.408-2.959-6.318-6.724.09-3.497 2.979-6.186 6.409-6.276 3.61 0 6.589 3.048 6.589 6.545 0 3.586-3.069 6.455-6.68 6.455zM135 205.501c0 3.61-2.979 6.499-6.68 6.499-3.52-.09-6.228-2.708-6.318-6.228-.09-3.701 2.708-6.68 6.409-6.77 3.52-.09 6.589 2.888 6.589 6.499zM111.998 205.59a6.546 6.546 0 01-6.722 6.408c-3.675-.09-6.363-2.978-6.274-6.769.18-3.52 2.958-6.227 6.364-6.227 3.674-.09 6.722 2.978 6.632 6.588zM83.323 212c-3.699-.09-6.495-2.98-6.315-6.68.09-3.521 2.887-6.32 6.405-6.32 3.608 0 6.675 2.98 6.585 6.59 0 3.521-2.977 6.41-6.675 6.41zM62.323 212c-3.699-.09-6.495-2.98-6.315-6.68.09-3.521 2.887-6.32 6.405-6.32 3.608 0 6.675 2.98 6.585 6.59 0 3.521-2.977 6.41-6.675 6.41zM89.998 183.59c-.09 3.61-3.068 6.498-6.678 6.408-3.7-.09-6.408-2.978-6.318-6.769.18-3.52 2.978-6.227 6.408-6.227 3.61-.09 6.678 2.978 6.588 6.588zM105.32 189c-3.7-.09-6.408-2.959-6.318-6.724.09-3.497 2.979-6.186 6.409-6.276 3.61 0 6.589 3.048 6.589 6.545 0 3.586-3.069 6.455-6.68 6.455zM135 182.633c0 3.586-2.979 6.455-6.68 6.365-3.7-.09-6.408-2.958-6.318-6.723.09-3.496 2.979-6.275 6.409-6.275 3.61.09 6.589 3.137 6.589 6.633zM149.499 176c3.61.09 6.59 3.158 6.499 6.676-.09 3.61-3.16 6.496-6.77 6.316-3.52-.09-6.228-2.797-6.228-6.406 0-3.609 2.888-6.586 6.499-6.586zM178 182.456a6.545 6.545 0 01-6.59 6.544c-3.52 0-6.318-2.6-6.408-6.185-.09-3.676 2.618-6.723 6.319-6.813 3.52-.09 6.679 2.869 6.679 6.454zM193.879 188.968c-3.687-.27-6.205-3.327-5.845-7.104.27-3.417 3.327-6.115 6.744-5.845 3.597.27 6.474 3.417 6.204 6.924-.36 3.687-3.506 6.385-7.103 6.025zM216.41 189c-3.7 0-6.498-2.869-6.408-6.633.09-3.496 2.798-6.275 6.319-6.365 3.61-.09 6.679 2.869 6.679 6.454a6.545 6.545 0 01-6.59 6.544zM244 183.501c0 3.61-2.979 6.499-6.68 6.499-3.52-.09-6.228-2.708-6.318-6.228-.09-3.701 2.708-6.68 6.409-6.77 3.52-.09 6.589 2.888 6.589 6.499zM265.998 182.41c.09 3.611-2.887 6.59-6.495 6.59-3.518 0-6.314-2.618-6.495-6.138-.18-3.7 2.616-6.77 6.225-6.86 3.518-.09 6.675 2.888 6.765 6.409zM288.998 182.367c.09 3.585-2.796 6.543-6.495 6.633-3.518 0-6.314-2.6-6.494-6.096-.18-3.675 2.525-6.723 6.224-6.902 3.518-.09 6.675 2.779 6.765 6.365zM310.998 183.414c.09 3.609-2.887 6.586-6.495 6.586-3.518 0-6.314-2.616-6.495-6.135-.18-3.7 2.616-6.767 6.225-6.857 3.608-.18 6.675 2.797 6.765 6.406zM331.998 182.72c-.09 3.584-3.157 6.451-6.765 6.272-3.699-.09-6.405-3.046-6.224-6.81.18-3.404 3.066-6.182 6.494-6.182 3.608.18 6.585 3.226 6.495 6.72zM354.998 183.414c.09 3.609-2.867 6.586-6.54 6.586-3.493 0-6.27-2.616-6.45-6.135-.179-3.7 2.598-6.767 6.182-6.857 3.673-.18 6.718 2.797 6.808 6.406zM376.998 183.59a6.57 6.57 0 01-6.765 6.408c-3.699-.09-6.405-3.069-6.224-6.77.18-3.52 3.066-6.228 6.494-6.228 3.518 0 6.585 3.069 6.495 6.59zM398.998 183.328c.09 3.607-2.796 6.582-6.495 6.672-3.518 0-6.404-2.524-6.494-6.04-.18-3.697 2.525-6.763 6.133-6.943 3.609-.27 6.766 2.705 6.856 6.311zM171.686 308.002c3.603.18 6.486 3.315 6.306 6.809-.18 3.583-3.243 6.36-6.937 6.18-3.693-.178-6.306-3.135-6.036-6.897.27-3.494 3.243-6.181 6.667-6.092zM415.499 300c-3.7 0-6.499-2.778-6.499-6.54.09-3.495 2.798-6.273 6.228-6.452 3.52-.18 6.68 2.777 6.77 6.361.09 3.585-2.888 6.631-6.499 6.631zM392.32 287.002c3.611-.09 6.68 2.979 6.68 6.499 0 3.61-2.979 6.499-6.59 6.499-3.52 0-6.227-2.708-6.408-6.228-.09-3.701 2.708-6.68 6.319-6.77zM376.982 293.945c-.27 3.604-3.42 6.307-7.021 6.036-3.69-.27-6.211-3.243-5.941-7.027.27-3.423 3.33-6.126 6.661-5.945 3.69.27 6.572 3.423 6.301 6.936zM354.998 293.41c.09 3.611-2.887 6.59-6.495 6.59-3.518 0-6.314-2.618-6.495-6.138-.18-3.7 2.616-6.77 6.225-6.86 3.518-.09 6.675 2.888 6.765 6.409zM332 293.633c0 3.586-3.069 6.455-6.68 6.365-3.7-.09-6.408-2.958-6.318-6.723.09-3.496 2.979-6.185 6.409-6.275 3.61.09 6.589 3.137 6.589 6.633zM310.998 293.367c.09 3.585-2.887 6.543-6.495 6.633-3.518 0-6.314-2.6-6.494-6.096-.18-3.675 2.525-6.723 6.224-6.902 3.518-.09 6.675 2.779 6.765 6.365zM282.32 300c-3.7-.09-6.408-2.959-6.318-6.724.09-3.497 2.979-6.186 6.409-6.276 3.61 0 6.589 3.048 6.589 6.545 0 3.586-3.069 6.455-6.68 6.455zM259.499 300c-3.7 0-6.499-2.888-6.499-6.59.09-3.52 2.798-6.318 6.228-6.408 3.52-.09 6.68 2.888 6.77 6.409.09 3.61-2.888 6.589-6.499 6.589zM243.998 293.677c-.09 3.609-3.157 6.495-6.765 6.315-3.699-.18-6.405-3.067-6.224-6.856.18-3.428 3.066-6.224 6.494-6.134 3.608 0 6.585 3.067 6.495 6.675zM237.232 308.008c3.518-.18 6.676 2.793 6.766 6.396.09 3.424-2.616 6.307-6.044 6.577-3.698.27-6.765-2.432-6.946-6.126-.18-3.604 2.616-6.667 6.224-6.847zM265.982 314.945c-.27 3.604-3.42 6.307-7.021 6.036-3.69-.27-6.211-3.243-5.941-7.027.27-3.423 3.33-6.126 6.661-5.945 3.69.27 6.572 3.423 6.301 6.936zM282.232 308.008c3.518-.18 6.676 2.793 6.766 6.396.09 3.424-2.616 6.307-6.044 6.577-3.698.27-6.765-2.432-6.946-6.126-.18-3.604 2.616-6.667 6.224-6.847zM304.324 308c3.609 0 6.676 2.959 6.676 6.545S308.023 321 304.324 321c-3.519-.09-6.226-2.69-6.316-6.276-.18-3.676 2.617-6.634 6.316-6.724zM325.324 308.002c3.609-.09 6.676 2.958 6.676 6.544 0 3.585-2.977 6.454-6.676 6.454-3.519-.09-6.226-2.69-6.316-6.185-.18-3.765 2.617-6.723 6.316-6.813zM348.232 308.008c3.518-.18 6.676 2.793 6.766 6.396.09 3.424-2.616 6.307-6.044 6.577-3.698.27-6.765-2.432-6.946-6.126-.18-3.604 2.616-6.667 6.224-6.847zM370.586 320.998c-3.699.09-6.586-2.688-6.586-6.45 0-3.494 2.616-6.271 6.135-6.54 3.519-.18 6.767 2.688 6.857 6.271.18 3.583-2.797 6.63-6.406 6.719zM398.998 314.59c-.09 3.61-3.068 6.498-6.678 6.408-3.7-.09-6.408-2.978-6.318-6.769.09-3.52 2.978-6.227 6.408-6.227 3.61-.09 6.678 2.978 6.588 6.588zM421.998 314.677c-.09 3.609-3.157 6.495-6.765 6.315-3.699-.18-6.405-3.067-6.224-6.856.18-3.428 3.066-6.224 6.494-6.134 3.608 0 6.585 3.067 6.495 6.675zM442.998 314.677c-.09 3.609-3.157 6.495-6.765 6.315-3.699-.18-6.405-3.067-6.224-6.856.18-3.428 3.066-6.224 6.494-6.134 3.608 0 6.585 3.067 6.495 6.675zM222.998 293.59c-.09 3.61-3.068 6.498-6.678 6.408-3.7-.09-6.408-2.978-6.318-6.769.18-3.52 2.978-6.227 6.408-6.227 3.61-.09 6.678 2.978 6.588 6.588zM200.998 293.59a6.57 6.57 0 01-6.765 6.408c-3.699-.09-6.405-3.069-6.224-6.77.18-3.52 3.066-6.228 6.494-6.228 3.518 0 6.585 3.069 6.495 6.59zM171.586 299.998c-3.699.09-6.586-2.688-6.586-6.45 0-3.494 2.616-6.271 6.135-6.54 3.519-.18 6.767 2.688 6.857 6.271.18 3.583-2.797 6.63-6.406 6.719zM171.499 344c-3.7 0-6.499-2.778-6.499-6.54 0-3.495 2.708-6.273 6.228-6.452 3.52-.18 6.68 2.777 6.77 6.361.09 3.585-2.888 6.541-6.499 6.631zM288.998 337.414c.09 3.609-2.887 6.586-6.495 6.586-3.518 0-6.314-2.616-6.495-6.135-.18-3.7 2.616-6.767 6.225-6.857 3.608-.18 6.675 2.797 6.765 6.406zM310.998 337.41c.09 3.611-2.887 6.59-6.495 6.59-3.518 0-6.314-2.618-6.495-6.138-.18-3.7 2.616-6.77 6.225-6.86 3.518-.09 6.675 2.888 6.765 6.409zM310.998 359.41c.09 3.611-2.887 6.59-6.495 6.59-3.518 0-6.314-2.618-6.495-6.138-.18-3.7 2.616-6.77 6.225-6.86 3.518-.09 6.675 2.888 6.765 6.409zM331.998 337.68c-.09 3.61-3.157 6.408-6.855 6.318-3.699-.18-6.315-3.159-6.134-6.859.18-3.43 3.157-6.227 6.585-6.137 3.518 0 6.494 3.159 6.404 6.678zM354.982 337.945c-.27 3.604-3.42 6.307-7.021 6.036-3.69-.27-6.211-3.243-5.941-7.027.27-3.423 3.33-6.126 6.661-5.945 3.69.27 6.572 3.423 6.301 6.936zM377 337.633c0 3.586-3.069 6.455-6.68 6.365-3.7-.09-6.408-2.958-6.318-6.723.09-3.496 2.979-6.185 6.409-6.275 3.61.09 6.589 3.137 6.589 6.633zM392.32 344c-3.7-.09-6.408-2.959-6.318-6.724.09-3.497 2.979-6.186 6.409-6.276 3.61 0 6.589 3.048 6.589 6.545 0 3.586-3.069 6.455-6.68 6.455zM421.998 337.41c.09 3.611-2.887 6.59-6.495 6.59-3.518 0-6.314-2.618-6.495-6.138-.18-3.7 2.616-6.77 6.225-6.86 3.518-.09 6.675 2.888 6.765 6.409zM415.32 278c-3.7-.09-6.408-2.959-6.318-6.724.09-3.497 2.979-6.186 6.409-6.276 3.61 0 6.589 3.048 6.589 6.545 0 3.586-3.069 6.455-6.68 6.455zM392.232 265.008c3.518-.18 6.676 2.793 6.766 6.396.09 3.424-2.616 6.307-6.044 6.577-3.698.27-6.765-2.432-6.946-6.126-.18-3.604 2.616-6.667 6.224-6.847zM282.499 366c-3.7 0-6.499-2.888-6.499-6.59.09-3.52 2.798-6.318 6.228-6.408 3.52-.09 6.68 2.888 6.77 6.409.09 3.61-2.888 6.589-6.499 6.589zM364.008 359.185c.18-3.496 2.957-6.185 6.451-6.185 3.584 0 6.541 3.048 6.541 6.633a6.525 6.525 0 01-6.72 6.365c-3.763-.18-6.45-3.048-6.272-6.813zM342.002 359.185c.18-3.496 2.958-6.185 6.454-6.185 3.586 0 6.544 3.048 6.544 6.633a6.527 6.527 0 01-6.723 6.365c-3.675-.18-6.364-3.048-6.275-6.813zM364.008 381.185c.18-3.496 2.957-6.185 6.451-6.185 3.584 0 6.541 3.048 6.541 6.633a6.525 6.525 0 01-6.72 6.365c-3.763-.18-6.45-3.137-6.272-6.813zM364.008 425.185c.18-3.496 2.957-6.185 6.451-6.185 3.584 0 6.541 3.048 6.541 6.633a6.525 6.525 0 01-6.72 6.365c-3.763-.18-6.45-3.048-6.272-6.813zM386.008 381.185c.18-3.496 2.957-6.185 6.451-6.185 3.584 0 6.541 3.048 6.541 6.633a6.525 6.525 0 01-6.72 6.365c-3.763-.18-6.45-3.137-6.272-6.813zM377 271.633c0 3.586-3.069 6.455-6.68 6.365-3.7-.09-6.408-2.958-6.318-6.723.09-3.496 2.979-6.185 6.409-6.275 3.61.09 6.589 3.137 6.589 6.633zM354.998 271.59c-.09 3.61-3.068 6.498-6.678 6.408-3.7-.09-6.408-2.978-6.318-6.769.09-3.52 2.978-6.227 6.408-6.227 3.61-.09 6.678 2.978 6.588 6.588zM331.998 271.367c.09 3.585-2.887 6.543-6.495 6.633-3.518 0-6.314-2.6-6.494-6.096-.18-3.675 2.525-6.723 6.224-6.902 3.518-.09 6.675 2.779 6.765 6.365zM304.41 278c-3.7-.09-6.498-2.979-6.408-6.68.09-3.52 2.889-6.318 6.319-6.318 3.61-.09 6.679 2.979 6.679 6.499 0 3.61-2.979 6.499-6.59 6.499zM282.499 265c3.61.09 6.59 3.158 6.499 6.676-.09 3.61-3.16 6.496-6.77 6.316-3.52-.09-6.228-2.797-6.228-6.406 0-3.609 2.888-6.586 6.499-6.586zM265.998 271.41c.09 3.611-2.887 6.59-6.495 6.59-3.518 0-6.314-2.618-6.495-6.138-.18-3.7 2.616-6.77 6.225-6.86 3.518-.09 6.675 2.888 6.765 6.409zM243.998 271.59a6.57 6.57 0 01-6.765 6.408c-3.699-.09-6.405-3.069-6.224-6.769.18-3.52 2.976-6.227 6.404-6.227 3.608-.09 6.675 2.978 6.585 6.588zM222.998 271.328c.09 3.607-2.777 6.582-6.45 6.672-3.494 0-6.36-2.524-6.54-6.04-.179-3.697 2.509-6.763 6.092-6.943 3.673-.27 6.808 2.705 6.898 6.311zM200.998 271.41c.09 3.611-2.887 6.59-6.495 6.59-3.518 0-6.314-2.618-6.495-6.138-.18-3.7 2.616-6.77 6.225-6.86 3.518-.09 6.675 2.888 6.765 6.409zM171.41 278c-3.7 0-6.498-2.869-6.408-6.633.09-3.496 2.798-6.275 6.319-6.365 3.61-.09 6.679 2.869 6.679 6.454a6.545 6.545 0 01-6.59 6.544zM155.998 271.41c.09 3.611-2.887 6.59-6.495 6.59-3.518 0-6.314-2.618-6.495-6.138-.18-3.7 2.616-6.77 6.225-6.86 3.518-.09 6.675 2.888 6.765 6.409zM111.998 271.41c.09 3.611-2.887 6.59-6.495 6.59-3.518 0-6.314-2.618-6.495-6.138-.18-3.7 2.616-6.77 6.225-6.86 3.518-.09 6.675 2.888 6.765 6.409zM134.998 271.41c.09 3.611-2.887 6.59-6.495 6.59-3.518 0-6.314-2.618-6.495-6.138-.18-3.7 2.616-6.77 6.225-6.86 3.518-.09 6.675 2.888 6.765 6.409zM17.686 265.002c3.603.18 6.486 3.315 6.306 6.809-.18 3.583-3.243 6.36-6.937 6.18-3.693-.178-6.306-3.135-6.036-6.897.27-3.494 3.243-6.181 6.667-6.092zM376.998 27.59c-.09 3.61-3.068 6.498-6.678 6.408-3.7-.09-6.408-2.978-6.318-6.769.09-3.52 2.978-6.227 6.408-6.227 3.61-.09 6.678 2.978 6.588 6.588zM376.998 6.59c-.09 3.61-3.068 6.498-6.678 6.408-3.7-.09-6.408-2.978-6.318-6.769.09-3.52 2.978-6.227 6.408-6.227 3.61-.09 6.678 2.978 6.588 6.588zM398.998 27.59a6.57 6.57 0 01-6.765 6.408c-3.699-.09-6.405-3.069-6.224-6.77.18-3.52 3.066-6.228 6.494-6.228 3.518 0 6.585 3.069 6.495 6.59zM348.41 57c-3.7-.09-6.498-2.979-6.408-6.68.09-3.52 2.889-6.318 6.319-6.318 3.61-.09 6.679 2.979 6.679 6.499 0 3.61-2.979 6.499-6.59 6.499zM370.586 56.998c-3.699.09-6.586-2.688-6.586-6.45 0-3.494 2.616-6.271 6.135-6.54 3.519-.18 6.767 2.688 6.857 6.271.18 3.583-2.797 6.63-6.406 6.719zM443 248.456a6.545 6.545 0 01-6.59 6.544c-3.52 0-6.318-2.6-6.408-6.185-.09-3.676 2.618-6.723 6.319-6.813 3.52-.09 6.679 2.869 6.679 6.454zM443 271.456a6.545 6.545 0 01-6.59 6.544c-3.52 0-6.318-2.6-6.408-6.185-.09-3.676 2.618-6.723 6.319-6.813 3.52-.09 6.679 2.869 6.679 6.454zM421.998 248.72c-.09 3.584-3.157 6.451-6.765 6.272-3.699-.09-6.405-3.046-6.224-6.81.18-3.404 3.066-6.182 6.494-6.182 3.608.18 6.585 3.226 6.495 6.72zM398.998 248.68c-.09 3.61-3.157 6.408-6.855 6.318-3.699-.18-6.315-3.159-6.134-6.859.18-3.43 3.157-6.227 6.585-6.137 3.518 0 6.494 3.159 6.404 6.678zM370.32 255c-3.7-.09-6.408-2.959-6.318-6.724.09-3.497 2.979-6.186 6.409-6.276 3.61 0 6.589 3.048 6.589 6.545 0 3.586-3.069 6.455-6.68 6.455zM348.32 255c-3.7-.09-6.408-2.959-6.318-6.724.09-3.497 2.979-6.186 6.409-6.276 3.61 0 6.589 3.048 6.589 6.545 0 3.586-3.069 6.455-6.68 6.455zM325.324 242c3.609 0 6.676 2.959 6.676 6.545S329.023 255 325.324 255c-3.519-.09-6.226-2.69-6.316-6.276-.18-3.676 2.617-6.634 6.316-6.724zM310.998 248.367c.09 3.585-2.796 6.543-6.495 6.633-3.518 0-6.314-2.6-6.494-6.096-.18-3.675 2.525-6.723 6.224-6.902 3.518-.09 6.675 2.779 6.765 6.365zM288.998 248.41c.09 3.611-2.887 6.59-6.495 6.59-3.518 0-6.314-2.618-6.495-6.138-.18-3.7 2.616-6.77 6.225-6.86 3.518-.09 6.675 2.888 6.765 6.409zM260.551 242.002c3.629.09 6.623 3.248 6.441 6.766-.181 3.608-3.266 6.404-6.894 6.224-3.72-.18-6.35-3.157-6.079-6.946.182-3.428 3.175-6.134 6.532-6.044zM237.232 242.008c3.518-.18 6.676 2.793 6.766 6.396.09 3.424-2.616 6.307-6.044 6.577-3.698.27-6.765-2.432-6.946-6.126-.18-3.604 2.616-6.667 6.224-6.847zM222.998 248.677c-.09 3.609-3.157 6.495-6.765 6.315-3.699-.18-6.405-3.067-6.224-6.856.18-3.428 3.066-6.224 6.494-6.134 3.608 0 6.585 3.067 6.495 6.675zM194.41 242c3.61 0 6.678 2.959 6.588 6.545 0 3.586-2.978 6.455-6.678 6.455-3.52-.09-6.228-2.69-6.318-6.276-.09-3.676 2.708-6.634 6.408-6.724zM177.998 248.367c.09 3.585-2.796 6.543-6.495 6.633-3.518 0-6.314-2.6-6.494-6.096-.18-3.675 2.525-6.723 6.224-6.902 3.518-.09 6.675 2.779 6.765 6.365zM155.998 248.59a6.546 6.546 0 01-6.722 6.408c-3.675-.09-6.363-2.978-6.274-6.769.18-3.52 2.958-6.227 6.364-6.227 3.674-.09 6.722 2.978 6.632 6.588zM128.41 242c3.61 0 6.678 2.959 6.588 6.545 0 3.586-2.978 6.455-6.678 6.455-3.52-.09-6.228-2.69-6.318-6.276-.09-3.676 2.708-6.634 6.408-6.724zM112 248.456a6.545 6.545 0 01-6.59 6.544c-3.52 0-6.318-2.6-6.408-6.185-.09-3.676 2.618-6.723 6.319-6.813 3.52-.09 6.679 2.869 6.679 6.454zM331.982 72.945c-.27 3.604-3.42 6.307-7.021 6.036-3.69-.27-6.211-3.243-5.941-7.027.27-3.423 3.33-6.126 6.661-5.945 3.69.27 6.572 3.423 6.301 6.936zM348.41 79c-3.7-.09-6.498-2.979-6.408-6.68.09-3.52 2.889-6.318 6.319-6.318 3.61-.09 6.679 2.979 6.679 6.499 0 3.61-2.979 6.499-6.59 6.499zM376.998 72.59c-.09 3.61-3.068 6.498-6.678 6.408-3.7-.09-6.408-2.978-6.318-6.769.09-3.52 2.978-6.227 6.408-6.227 3.61-.09 6.678 2.978 6.588 6.588zM398.998 72.59c-.09 3.61-3.068 6.498-6.678 6.408-3.7-.09-6.408-2.978-6.318-6.769.18-3.52 2.978-6.227 6.408-6.227 3.61-.09 6.678 2.978 6.588 6.588zM415.686 66.002c3.603.18 6.486 3.315 6.306 6.809-.18 3.583-3.243 6.36-6.937 6.18-3.693-.178-6.306-3.135-6.036-6.897.27-3.494 3.243-6.181 6.667-6.092zM442.998 72.367c.09 3.585-2.887 6.543-6.495 6.633-3.518 0-6.314-2.6-6.494-6.096-.18-3.675 2.525-6.723 6.224-6.902 3.518-.09 6.675 2.779 6.765 6.365zM83.324 242c3.609 0 6.676 2.959 6.676 6.545S87.023 255 83.324 255c-3.519-.09-6.226-2.69-6.316-6.276-.18-3.676 2.617-6.634 6.316-6.724zM62.496 255c-4.15-.451-6.496-2.707-6.496-6.586 0-3.7 3.068-6.586 6.676-6.406 3.61.18 6.496 3.338 6.316 6.857-.18 3.338-3.068 6.135-6.496 6.135zM46.998 248.59c-.09 3.61-3.068 6.498-6.678 6.408-3.7-.09-6.408-2.978-6.318-6.769.18-3.52 2.978-6.227 6.408-6.227 3.61-.09 6.678 2.978 6.588 6.588zM35 260.59c-.09 3.61-3.069 6.498-6.68 6.408-3.7-.09-6.408-2.979-6.318-6.77.18-3.52 2.979-6.228 6.409-6.228 3.61 0 6.589 3.069 6.589 6.59zM105.586 100.998c-3.699.09-6.586-2.706-6.586-6.405 0-3.518 2.616-6.314 6.135-6.585 3.519-.18 6.767 2.706 6.857 6.315.18 3.518-2.707 6.585-6.406 6.675zM321.99 348.744c.091 1.348-.453 2.787-1.995 3.686-.454.27-.998.629-1.36 1.078-1.996 1.888-4.173 1.888-6.35.54-2.359-1.349-3.447-3.506-3.266-6.113.273-3.506 3.266-6.023 6.803-5.933 3.447.09 6.168 2.877 6.168 6.742zM194.306 111.002c3.705-.09 6.867 3.225 6.687 6.898-.271 3.583-3.344 6.27-6.958 6.092-3.886-.27-6.506-3.494-5.964-7.346.361-2.509 3.795-5.555 6.235-5.644zM354.372 381.25c.1 0 .3 0 .3.1v.4c-.1 0-.3 0-.3-.1-.1-.1 0-.3 0-.4zM24.864 189.35c-.2.2-.3.4-.5.6-.1-.2-.3-.5-.2-.6.1-.2.4-.2.6-.3 0 0 0 .2.1.3zM58 216.41c0 3.702-2.799 6.59-6.5 6.59-3.43 0-6.5-2.979-6.5-6.228 0-3.7 2.799-6.77 6.41-6.77 3.701-.09 6.59 2.708 6.59 6.409z"/></g><g fill="#809FFF" stroke="#FFF" stroke-width="2"><path d="M17.648 200.002c1.526.079 2.897.784 3.87 1.835.972 1.048 1.551 2.445 1.475 3.923a5.462 5.462 0 01-1.83 3.817 5.658 5.658 0 01-4.06 1.416c-1.557-.076-2.893-.729-3.806-1.772-.913-1.043-1.394-2.467-1.28-4.05.114-1.48.8-2.79 1.82-3.721a5.458 5.458 0 013.811-1.448zM17.648 178.002c1.526.079 2.897.784 3.87 1.835.972 1.048 1.551 2.445 1.475 3.923a5.462 5.462 0 01-1.83 3.817 5.658 5.658 0 01-4.06 1.416c-1.557-.076-2.893-.729-3.806-1.772-.913-1.043-1.394-2.467-1.28-4.05.114-1.48.8-2.79 1.82-3.721a5.458 5.458 0 013.811-1.448zM28.41 211.002c1.589-.038 2.986.527 3.988 1.502 1 .973 1.602 2.347 1.602 3.907 0 1.577-.591 2.984-1.586 3.992C31.431 221.4 30.06 222 28.5 222c-1.452 0-2.822-.637-3.834-1.608-1.002-.96-1.666-2.256-1.666-3.62 0-1.596.603-3.057 1.603-4.113.965-1.02 2.301-1.657 3.807-1.657zM6.41 211.002c1.589-.038 2.986.527 3.988 1.502 1 .973 1.602 2.347 1.602 3.907 0 1.577-.591 2.984-1.586 3.992C9.431 221.4 8.06 222 6.5 222c-1.452 0-2.822-.637-3.834-1.608-1.002-.96-1.666-2.256-1.666-3.62 0-1.596.603-3.057 1.603-4.113.965-1.02 2.301-1.657 3.807-1.657z"/></g></g></svg>