<svg width="45" height="64" xmlns="http://www.w3.org/2000/svg">
  <path d="M22.128 0C12.15 0 5.688 4.088.614 11.378a3.003 3.003 0 00.648 4.11l5.392 4.088a3 3 0 004.156-.518c3.131-3.923 5.454-6.181 10.345-6.181 3.845 0 8.602 2.474 8.602 6.203 0 2.82-2.327 4.267-6.124 6.396-4.428 2.482-10.287 5.572-10.287 13.3V40a3 3 0 003 3h9.058a3 3 0 003-3v-.722c0-5.357 15.659-5.58 15.659-20.078C44.063 8.282 32.738 0 22.128 0zm-1.253 46.682c-4.774 0-8.659 3.885-8.659 8.66 0 4.774 3.885 8.658 8.659 8.658 4.774 0 8.659-3.884 8.659-8.659 0-4.774-3.884-8.659-8.659-8.659z" fill="#210386" fill-rule="nonzero"/>
</svg>
