<svg width="103" height="13" xmlns="http://www.w3.org/2000/svg"><path d="M30.0640549 0c2.4766805 0 4.5633028 1.6655202 5.1881534 3.9011178.1287571.4508455.1931358.920321.1931358 1.3897965v2.4218974c0 .4582975-.0643787.912869-.1893486 1.3562625C34.6387186 11.3270278 32.5331613 13 30.04512 13c-2.4880417 0-4.601173-1.6729722-5.2222368-3.9309258-.1173962-.4396675-.2196443-.879335-.2196443-1.3562625V5.2909143c0-.4881055.1060353-.942677.2310052-1.3897965C25.4628819 1.6617942 27.5911609 0 30.0640549 0zM80.513993 0c2.478412 0 4.566493 1.6655202 5.19557 3.9011178.128848.4508455.193271.920321.193271 1.3897965v2.4218974c0 .4582975-.060634.912869-.185691 1.3562625C85.099434 11.3270278 82.988615 13 80.502624 13c-2.485991 0-4.604389-1.6729722-5.225887-3.9309258-.121268-.4396675-.216008-.879335-.216008-1.3562625V5.2909143c0-.4881055.09853-.942677.223587-1.3897965C75.913394 1.6617942 78.035581 0 80.513993 0zM5.3613166 0c1.0174825 0 1.9139262.1749714 2.6628539.5211913.760275.3499427 1.3579041.8115693 1.773975 1.362543.4236358.5658648.6581485 1.1652348.6884083 1.7683276v.1824169H7.0180353s-.0869966-.1861397-.4047235-.3834479c-.3177269-.1973081-.7375803-.3052692-1.2557777-.3052692-.5749343 0-1.0174825.0930699-1.3087321.2717641-.155081.0967926-.2572075.2196449-.2572075.5100229 0 .3052692.3252918.4132302.7186679.5733104.3933762.1600802.9910053.3536655 1.7777576.5695876 1.0174825.2680413 1.8042347.5323597 2.4056464.8078465.6884082.3164376 1.2217355.7259451 1.5810694 1.2210768.3744638.5137457.563587 1.1577892.5673695 1.9209622 0 1.2471363-.5484572 2.2820733-1.584852 2.9894043C8.2927253 12.6649484 7.0104704 13 5.4445308 13c-1.0439598 0-1.9744456-.1600802-2.7687628-.4765178-.8283594-.3313287-1.478943-.7855097-1.9290561-1.3513745-.4652429-.580756-.7148855-1.2210768-.7451451-1.906071v-.0260596c-.0037825-.0260596 0-.0558419.0037824-.0819015h3.4609535c.0718668.1749714.2269478.3462199.4765903.5137457.310162.2047537.8283594.3164376 1.5054202.3164376.9380508 0 1.3881639-.1861398 1.5999818-.327606.2269478-.1489118.3177269-.3238831.3177269-.5956472 0-.1675257-.0453896-.2382589-.0945616-.2866552-.0945616-.0930699-.2912496-.2382589-.6997556-.3908935-.4236358-.1600802-1.0817844-.3611111-1.9555333-.6030927-.9380508-.2494273-1.675631-.5137457-2.2543478-.8078465-.6505837-.327606-1.1498688-.7520046-1.4940729-1.2583048-.351769-.5211912-.5295448-1.161512-.5295448-1.9097938-.0075649-.7184994.2231654-1.4183848.6505836-1.9991408C1.4086429 1.2322451 2.0176194.7780641 2.7930243.4579038 3.5268221.1526346 4.3892236 0 5.3613166 0zm10.320835 0c.6732005 0 1.0535398.6354625 1.0535398.6354625l3.0160911 5.2312184V.0037825h3.1796367l.0038035 11.3399802c0 .7565031-.5629021 1.2368825-1.1904624 1.2368825h-1.9739608l-4.1152716-7.0468256v5.7834655c0 .7716331-.551492 1.2633601-1.1866588 1.2633601h-1.9587477V0zM69.162377 0v9.4515644h4.230336v1.8312879c0 .63187-.411943 1.2977929-1.219985 1.2977929H65.88664V0h3.275737zm-8.504604 0c2.424879 0 4.394859 2.0129032 4.394859 4.4571428 0 2.4442397-1.96622 4.434441-4.394859 4.434441h-2.921134v2.4253214c0 .7718651-.545128 1.26374-1.172965 1.26374h-1.9361436V0zM38.2290772 0c.5125396 0 1.036386.2874711 1.2172823.9304987.0716046.2609936.742429 2.4586348 1.432097 4.7394914L42.5291366.0037825h2.4647145c.5050028 0 .9647814.366904 1.1306031.9342812.0753735.2572111.7348916 2.4737649 1.4207912 4.765969L49.2034628.0037825h3.3390473S49.214769 11.302155 49.1469325 11.5177584c-.0339179.1059105-.0753735.2042558-.1243661.3026012-.1695905.382034-.5653015.7602856-1.1192968.7602856H46.27897l-.3844051-1.2520126-1.6845984-5.662425c-.8441834 2.8822765-1.726054 5.8704634-1.7675092 5.9763738-.1846652.4803794-.5125401.9380638-1.2851189.9380638l-1.5526946-.0075651L35.8623482 0zM88.686567 0c.51254 0 1.036386.2875576 1.217282.9307786.071605.261072.742429 2.4593742 1.432097 4.7409168L92.986626 0h2.464715c.505003 0 .964781.3670143 1.130603.9345622.075374.2572884.734892 2.4745089 1.420791 4.7674024L99.660953 0H103s-3.327741 11.3017705-3.395578 11.5174388c-.033918.1021586-.075373.2043172-.124366.3026922-.16959.3821489-.565301.7605142-1.119297.7605142H96.73646l-.388174-1.2523891-1.684598-5.664128c-.844184 2.8831433-1.726054 5.8722289-1.76751 5.9781712-.184665.4805239-.512539.9383459-1.285118.9383459l-1.548926-.0037837L86.319838 0zM30.0413328 3.3943824c-.549111 0-1.0792874.2123817-1.4731327.5887073-.3711232.3651476-.6513595.8644311-.6513595 1.4196045v2.3138435c0 .4955574.2310056.927773.5339633 1.2780166.4089934.4545715.9959741.7191172 1.613251.7265692.6210633 0 1.1815355-.2906276 1.5602328-.7265692.3143188-.3539696.4885198-.8085411.4885198-1.2780166 0-.3601796-.0052598-1.4293335-.007013-2.0236816l-.0005611-.2901619c0-.5626254-.2423661-1.0544569-.6248505-1.4196045-.3862713-.3725996-.9012996-.5812554-1.4390501-.5887073zm50.4537122 0c-.549495 0-1.080042.2123817-1.474163.5887073-.375172.3651476-.648025.8644311-.648025 1.4196045v2.3138435c0 .4955574.227378.927773.530547 1.2780166.40549.4545715.992881.7191172 1.610589.7265692.621498 0 1.182362-.2906276 1.561324-.7265692.314539-.3539696.488861-.8085411.488861-1.2780166 0-.4322155-.007579-1.885354-.003789-2.3138435 0-.5626254-.242536-1.0544569-.625288-1.4196045-.386542-.3725996-.90193-.5812554-1.440056-.5887073zm-19.848551-.1971959H57.73288v2.4972108h2.928652c.68047 0 1.221839-.5675479 1.218118-1.2486054v-.011351c0-.6848411-.552686-1.2372544-1.233156-1.2372544z" fill="#BECEFD" fill-rule="nonzero"/></svg>