<svg width="95" height="18" xmlns="http://www.w3.org/2000/svg"><path d="M62.522878 5.4006336c4.103363 0 6.426212 3.0487398 6.227202 7.2775792h-9.688954c.343325 1.7549281 1.608621 2.8763809 3.81473 2.8763809 1.269357.0252613 2.49727-.4404479 3.414872-1.2951549l1.686754 1.7831323c-1.121438 1.1219005-2.668013 1.957282-5.078646 1.957282-4.132318 0-6.802169-2.6744745-6.802169-6.2993859-.036496-1.6744488.627457-3.291397 1.839364-4.4794711 1.211908-1.1880741 2.867615-1.8451677 4.586847-1.8203625zm-43.8800464.0000268c4.102767 0 6.4252786 3.0487334 6.2262981 7.2775638h-9.6893862c.3432758 1.7549243 1.6083875 2.8763747 3.8141762 2.8763747 1.2691904.0253595 2.4969625-.4403628 3.414377-1.2951521l1.6865093 1.7831285c-1.1194378 1.121898-2.6676257 1.9572778-5.0779093 1.9572778-4.1317179 0-6.8011817-2.6744688-6.8011817-6.2993725-.036505-1.6747606.6276006-3.2919876 1.8397349-4.4801141 1.2121343-1.1881267 2.8680826-1.8450022 4.5873817-1.8197061zM53.833333 0v17.7601541h-2.668494v-1.6825077c-1.0235342 1.2266146-2.5674791 1.9340701-4.1943419 1.9222067-1.7001503-.0142018-3.3225612-.6930589-4.4996437-1.8830676-1.1770824-1.1900088-1.8091994-2.7904381-1.7531321-4.4386787v-.0031499c0-3.8919523 2.9886022-6.3214413 6.2773636-6.3214413 1.6000126-.0197589 3.1268739.6488971 4.1697541 1.8260541V0h2.668494zm21.578949 5.400229c2.29827 0 4.004395.898423 4.968628 2.3461061l-2.198286 1.1826774c-.616648-.8984039-1.663496-1.4200015-2.767146-1.3787458-1.409368 0-2.132543.6781818-2.132543 1.4521596 0 .8715643 1.136352 1.1123972 2.916895 1.4973716 2.02571.4355584 4.323979 1.0886721 4.323979 3.6053309 0 1.6697149-1.481959 3.920025-4.992825 3.8945093-2.56946 0-4.374656-1.0166013-5.411936-2.8076279l.003196.0035812 2.371774-1.2086409c.638187 1.1188712 1.856416 1.7985928 3.163431 1.7650633 1.483329 0 2.249875-.748462 2.249875-1.5958535 0-.9673603-1.433565-1.185811-2.989942-1.4973717-2.100127-.4355584-4.275585-1.1137402-4.275585-3.6053308 0-1.9118907 1.85359-3.6787446 4.770485-3.6532288zm-42.6144374-.0002731c3.0780997 0 5.6545363 2.022217 5.6545363 5.3852668v7.2146304h-2.6382422v-6.8801078c0-2.024959-.9785136-3.2373752-2.9323829-3.2373752-1.9538692 0-3.1006565 1.2124162-3.1006565 3.2373752v6.8801078h-2.6382422v-7.2146304c0-3.3598507 2.5764367-5.3852668 5.6545364-5.3852668zm-22.0389462 0v2.3807907l-7.3529401 7.4368796h7.4511845v2.3322306H0v-2.380341l7.3511292-7.4368796H.172041V5.3999559h10.5868574zM85.465458 0v11.4907129l5.691712-5.9626281h3.264288l-4.933813 5.1460247 5.059974 6.8757473h-3.03533l-3.920324-5.3377219-2.126507 2.2123013v3.1254206h-2.679744V0h2.679744zM47.2697159 7.9174001c-2.1770441.0416506-3.913282 1.7763308-3.8917778 3.8882863.0215043 2.1119554 1.7927257 3.8129715 3.9701935 3.8129715 1.0733132 0 2.1008861-.4215654 2.8485193-1.1685277.7476328-.7469622 1.1516221-1.7557057 1.1198921-2.7963228-.064373-2.1111353-1.8697827-3.7780578-4.0468271-3.7364073zm-32.0918106 2.7480333h6.7703926c-.257342-1.6394216-1.261895-2.8450368-3.2700817-2.8450368-1.753605-.0971444-3.2841938 1.1469113-3.5003109 2.8450368zm43.8813817-.0013587h6.771376c-.257379-1.6398728-1.262078-2.8450428-3.270556-2.8450428-1.753937-.0973698-3.284885 1.1468001-3.50082 2.8450428zm35.676415-6.7999899c.352397.3513515.352397.9204055 0 1.2717569-.352397.3513515-.924063.3522676-1.277595.0020474-.171254-.1685048-.267631-.3982296-.267631-.6379258 0-.2396962.096377-.4694211.267631-.6379258.353532-.3502202.925198-.3493041 1.277595.0020473zm-1.137619.1424611c-.270308.2690724-.270598.7052358-.000649.9746647.269949.269429.708115.2702964.979139.0019384l.002598-.0025862c.26959-.269785.268719-.7059476-.001948-.974663-.270666-.2687155-.708832-.2684264-.97914.0006461zm.573625-.0854572l.27323.2724116c.073983.0565499.121521.1407526.131579.2330631.010059.0923105-.018237.1847011-.078319.255726-.085731.0956652-.224734.1232683-.340779.0676719l-.082272.3474109-.180566-.1801709.132935-.4801685.073612.0737063c.022593.0307916.056566.0513689.094422.0571912.037856.0058223.076484-.0035889.10736-.026157.006312-.0047074.012248-.0098953.017753-.0155171.051246-.0609948.04331-.1517524-.017753-.2030156l-.009526-.0073275-.093964-.1064647-.504456.501289-.160214-.1599125.636958-.6297362z" fill="#BECEFD" fill-rule="nonzero"/></svg>