<svg width="103" height="13" xmlns="http://www.w3.org/2000/svg">
  <path d="M30.064 0c2.477 0 4.563 1.666 5.188 3.901.129.451.193.92.193 1.39v2.422c0 .458-.064.913-.189 1.356-.617 2.258-2.723 3.931-5.21 3.931-2.489 0-4.602-1.673-5.223-3.93-.118-.44-.22-.88-.22-1.357V5.29c0-.488.106-.943.231-1.39C25.463 1.661 27.591 0 30.064 0zm50.45 0c2.478 0 4.566 1.666 5.196 3.901.128.451.193.92.193 1.39v2.422c0 .458-.06.913-.186 1.356C85.1 11.327 82.99 13 80.503 13s-4.605-1.673-5.226-3.93c-.122-.44-.216-.88-.216-1.357V5.29c0-.488.098-.943.223-1.39.63-2.24 2.752-3.901 5.23-3.901zM5.361 0C6.38 0 7.275.175 8.024.521c.76.35 1.358.812 1.774 1.363.424.566.658 1.165.689 1.768v.182H7.018s-.087-.186-.405-.383c-.317-.197-.737-.305-1.255-.305-.575 0-1.018.093-1.31.272-.154.096-.256.22-.256.51 0 .305.325.413.718.573.394.16.991.354 1.778.57 1.018.267 1.804.532 2.406.807.688.317 1.221.726 1.58 1.221.375.514.564 1.158.568 1.921 0 1.247-.548 2.282-1.585 2.99-.964.655-2.247.99-3.812.99-1.044 0-1.975-.16-2.77-.477-.828-.33-1.478-.785-1.928-1.35C.28 10.59.032 9.95.002 9.265V9.24a.298.298 0 01.003-.082h3.461c.072.175.227.346.477.514.31.205.828.316 1.505.316.938 0 1.388-.186 1.6-.327.227-.15.318-.324.318-.596 0-.168-.045-.238-.095-.287-.094-.093-.29-.238-.7-.39-.423-.16-1.081-.362-1.955-.604-.938-.25-1.675-.513-2.254-.807-.65-.328-1.15-.752-1.494-1.259-.352-.521-.53-1.161-.53-1.91a3.315 3.315 0 01.65-1.999c.42-.577 1.03-1.03 1.805-1.351C3.527.153 4.389 0 5.361 0zm10.321 0c.673 0 1.054.635 1.054.635l3.016 5.232V.004h3.18l.003 11.34c0 .756-.563 1.237-1.19 1.237H19.77l-4.115-7.047v5.783c0 .772-.552 1.264-1.187 1.264H12.51V0zm53.48 0v9.452h4.23v1.83c0 .633-.411 1.299-1.22 1.299h-6.285V0h3.275zm-8.504 0c2.425 0 4.395 2.013 4.395 4.457s-1.967 4.435-4.395 4.435h-2.921v2.425c0 .772-.545 1.264-1.173 1.264h-1.936V0zM38.229 0c.513 0 1.036.287 1.217.93.072.261.743 2.46 1.432 4.74L42.53.004h2.465c.505 0 .965.367 1.13.934.076.257.735 2.474 1.421 4.766l1.658-5.7h3.34s-3.328 11.298-3.396 11.514a2.124 2.124 0 01-.124.302c-.17.382-.566.76-1.12.76H46.28l-.384-1.251-1.685-5.663c-.844 2.882-1.726 5.87-1.768 5.977-.184.48-.512.938-1.285.938l-1.552-.008L35.862 0zm50.458 0c.512 0 1.036.288 1.217.93.071.262.742 2.46 1.432 4.742L92.986 0h2.465c.505 0 .965.367 1.13.935.076.257.736 2.474 1.422 4.767L99.66 0H103s-3.328 11.302-3.396 11.517a2.324 2.324 0 01-.124.303c-.17.382-.565.76-1.12.76h-1.624l-.388-1.252-1.684-5.664c-.844 2.883-1.726 5.872-1.768 5.978-.184.48-.512.939-1.285.939l-1.549-.004L86.32 0zM30.04 3.394c-.549 0-1.079.213-1.473.59-.37.364-.651.864-.651 1.419v2.314c0 .495.23.927.534 1.278.409.454.996.719 1.613.726.621 0 1.182-.29 1.56-.726.315-.354.489-.809.489-1.278 0-.36-.005-1.43-.007-2.024v-.29c0-.563-.243-1.055-.626-1.42a2.113 2.113 0 00-1.439-.589zm50.454 0c-.55 0-1.08.213-1.474.59-.375.364-.648.864-.648 1.419v2.314c0 .495.227.927.53 1.278.406.454.993.719 1.611.726a2.08 2.08 0 001.561-.726c.315-.354.49-.809.49-1.278 0-.433-.008-1.886-.005-2.314 0-.563-.242-1.055-.625-1.42a2.115 2.115 0 00-1.44-.589zm-19.849-.197h-2.913v2.497h2.929c.68 0 1.221-.567 1.218-1.248v-.012c0-.684-.553-1.237-1.234-1.237z" fill="#BECEFD"/>
</svg>