<?xml version="1.0" encoding="UTF-8"?>
<svg width="14px" height="16px" viewBox="0 0 14 16" version="1.1" xmlns="http://www.w3.org/2000/svg" xmlns:xlink="http://www.w3.org/1999/xlink">
    <title>api</title>
    <g id="Page-1" stroke="none" stroke-width="1" fill="none" fill-rule="evenodd">
        <g id="api" fill="#767B93" fill-rule="nonzero">
            <path d="M7,1.5 C10.0364688,1.5 12.5,2.36634375 12.5,3.4285625 L12.5,3.57140625 C12.5,4.63365625 10.0364687,5.5 7,5.5 C3.96353125,5.5 1.5,4.63365625 1.5,3.5714375 L1.5,3.42859375 C1.5,2.36634375 3.96353125,1.5 7,1.5 M12.5,5.7193125 L12.5,6.54428125 C12.5,7.6065 10.0364688,8.47284375 7,8.47284375 C3.96353125,8.47284375 1.5,7.6065 1.5,6.54428125 L1.5,5.7193125 C2.68165625,6.5931875 4.84440625,7 7,7 C9.15559375,7 11.3183438,6.5931875 12.5,5.7193125 M12.5,8.7193125 L12.5,9.557875 C12.5,10.6200938 10.0364688,11.4864375 7,11.4864375 C3.96353125,11.4864375 1.5,10.6200625 1.5,9.55784375 L1.5,8.71928125 C2.68165625,9.5931875 4.84440625,10 7,10 C9.15559375,10 11.3183438,9.5931875 12.5,8.7193125 M12.5,11.7193125 L12.5,12.5714375 C12.5,13.6336562 10.0364687,14.5 7,14.5 C3.96353125,14.5 1.5,13.6336562 1.5,12.5714375 L1.5,11.7193125 C2.68165625,12.5931875 4.84440625,13 7,13 C9.15559375,13 11.3183438,12.5931875 12.5,11.7193125 M7,0 C4.282875,0 0,0.726875 0,3.4285625 L0,12.5714063 C0,15.2736875 4.2821875,16 7,16 C9.717125,16 14,15.273125 14,12.5714375 L14,3.4285625 C14,0.7263125 9.7178125,0 7,0 Z" id="Icon"></path>
        </g>
    </g>
</svg>