<?xml version="1.0" encoding="UTF-8"?>
<svg width="16px" height="12px" viewBox="0 0 16 12" version="1.1" xmlns="http://www.w3.org/2000/svg" xmlns:xlink="http://www.w3.org/1999/xlink">
    <title>data-2</title>
    <g id="Page-1" stroke="none" stroke-width="1" fill="none" fill-rule="evenodd">
        <g id="data-2" fill="#767B93" fill-rule="nonzero">
            <path d="M12.4,9 L13.1,9 C13.3,9 13.5,8.8 13.5,8.6 L13.5,1.4 C13.5,1.2 13.3,1 13.1,1 L12.4,1 C12.2,1 12,1.2 12,1.4 L12,8.6 C12,8.8 12.2,9 12.4,9 Z M6.4,9 L7.1,9 C7.3,9 7.5,8.8 7.5,8.6 L7.5,2.4 C7.5,2.2 7.3,2 7.1,2 L6.4,2 C6.2,2 6,2.2 6,2.4 L6,8.6 C6,8.8 6.2,9 6.4,9 L6.4,9 Z M9.4,9 L10.1,9 C10.3,9 10.5,8.8 10.5,8.6 L10.5,4.4 C10.5,4.2 10.3,4 10.1,4 L9.4,4 C9.2,4 9,4.2 9,4.4 L9,8.6 C9,8.8 9.2,9 9.4,9 L9.4,9 Z M15.5,10.5 L1.5,10.5 L1.5,0.5 C1.5,0.22375 1.27625,0 1,0 L0.5,0 C0.22375,0 0,0.22375 0,0.5 L0,11 C0,11.5521875 0.4478125,12 1,12 L15.5,12 C15.77625,12 16,11.77625 16,11.5 L16,11 C16,10.72375 15.77625,10.5 15.5,10.5 Z M3.4,9 L4.1,9 C4.3,9 4.5,8.8 4.5,8.6 L4.5,6.4 C4.5,6.2 4.3,6 4.1,6 L3.4,6 C3.2,6 3,6.2 3,6.4 L3,8.6 C3,8.8 3.2,9 3.4,9 L3.4,9 Z" id="Icon"></path>
        </g>
    </g>
</svg>