<?xml version="1.0" encoding="UTF-8"?>
<svg width="12px" height="16px" viewBox="0 0 12 16" version="1.1" xmlns="http://www.w3.org/2000/svg" xmlns:xlink="http://www.w3.org/1999/xlink">
    <title>ear-2</title>
    <g id="Page-1" stroke="none" stroke-width="1" fill="none" fill-rule="evenodd">
        <g id="ear-2" fill="#767B93" fill-rule="nonzero">
            <path d="M6,2.875 C4.2775,2.875 2.875,4.276875 2.875,6 C2.875,7.171875 3.828125,8.125 5,8.125 C5.4825,8.125 5.875,8.5175 5.875,9 C5.875,9.4825 5.4825,9.875 5,9.875 L4.375,9.875 C4.168125,9.875 4,10.0434375 4,10.25 L4,10.75 C4,10.9565625 4.168125,11.125 4.375,11.125 L5,11.125 C6.171875,11.125 7.125,10.171875 7.125,9 C7.125,7.828125 6.171875,6.875 5,6.875 C4.5175,6.875 4.125,6.4825 4.125,6 C4.125,4.96625 4.9659375,4.125 6,4.125 C7.0340625,4.125 7.875,4.96625 7.875,6 L7.875,6.625 C7.875,6.8315625 8.043125,7 8.25,7 L8.75,7 C8.956875,7 9.125,6.8315625 9.125,6.625 L9.125,6 C9.125,4.276875 7.7225,2.875 6,2.875 Z M6,0 C2.68625,0 0,2.68625 0,6 L0,11.5 C0,13.9853125 2.0146875,16 4.5,16 C6.9853125,16 9,13.9853125 9,11.5 L9,11.190625 C10.7915625,10.1528125 12,8.219375 12,6 C12,2.68625 9.31375,0 6,0 Z M8.248125,9.8928125 L7.5,10.32625 L7.5,11.5003125 C7.5,13.154375 6.154375,14.5003125 4.5,14.5003125 C2.845625,14.5003125 1.5,13.154375 1.5,11.5003125 L1.5,6 C1.5,3.51875 3.51875,1.5 6,1.5 C8.48125,1.5 10.5,3.51875 10.5,6 C10.5,7.5965625 9.6371875,9.088125 8.248125,9.8928125 Z" id="Icon"></path>
        </g>
    </g>
</svg>