<?xml version="1.0" encoding="UTF-8"?>
<svg width="16px" height="16px" viewBox="0 0 16 16" version="1.1" xmlns="http://www.w3.org/2000/svg" xmlns:xlink="http://www.w3.org/1999/xlink">
    <title>flip-cards</title>
    <g id="Page-1" stroke="none" stroke-width="1" fill="none" fill-rule="evenodd">
        <g id="flip-cards" fill="#767B93" fill-rule="nonzero">
            <path d="M3.5,13.25 C3.9140625,13.25 4.25,12.9140625 4.25,12.5 C4.25,12.085625 3.9140625,11.75 3.5,11.75 C3.0859375,11.75 2.75,12.085625 2.75,12.5 C2.75,12.9140625 3.0859375,13.25 3.5,13.25 Z M15,9 L11.9496875,9 L14.1065625,6.843125 C14.4971875,6.4525 14.4971875,5.819375 14.1065625,5.4290625 L10.5709375,1.8934375 C10.375625,1.698125 10.1196875,1.600625 9.86375,1.600625 C9.6078125,1.600625 9.351875,1.698125 9.1565625,1.8934375 L7,4.0503125 L7,1 C7,0.4478125 6.5521875,0 6,0 L1,0 C0.4478125,0 0,0.4478125 0,1 L0,12.5 C0,14.433125 1.566875,16 3.5,16 L15,16 C15.5521875,16 16,15.5521875 16,15 L16,10 C16,9.4478125 15.5521875,9 15,9 Z M5.5,12.5 C5.5,13.05875 5.2684375,13.5634375 4.8978125,13.9265625 C4.78375,14.038125 4.6571875,14.130625 4.523125,14.209375 C4.49625,14.2253125 4.468125,14.239375 4.440625,14.2540625 C4.3009375,14.3271875 4.155625,14.38875 4.0025,14.428125 C3.84125,14.4703125 3.675,14.4996875 3.500625,14.4996875 L3.5,14.4996875 C2.3971875,14.4996875 1.5,13.6025 1.5,12.4996875 L1.5,9.4996875 L5.5,9.4996875 L5.5,12.5 Z M5.5,8 L1.5,8 L1.5,5.5 L5.5,5.5 L5.5,8 Z M5.5,4 L1.5,4 L1.5,1.5 L5.5,1.5 L5.5,4 Z M7,6.1715625 L9.8640625,3.3075 L12.6925,6.1359375 L7,11.8284375 L7,6.1715625 Z M14.5,14.5 L6.4496875,14.5 L10.4496875,10.5 L14.5,10.5 L14.5,14.5 Z" id="Icon"></path>
        </g>
    </g>
</svg>