<?xml version="1.0" encoding="UTF-8"?>
<svg width="16px" height="14px" viewBox="0 0 16 14" version="1.1" xmlns="http://www.w3.org/2000/svg" xmlns:xlink="http://www.w3.org/1999/xlink">
    <title>html-tags</title>
    <g id="Page-1" stroke="none" stroke-width="1" fill="none" fill-rule="evenodd">
        <g id="html-tags" fill="#767B93" fill-rule="nonzero">
            <path d="M6.52361111,13.991568 L5.44583333,13.6825893 C5.32916667,13.6497774 5.25972222,13.5267328 5.29305556,13.4118912 L9.20416667,0.158619163 C9.2375,0.0437775237 9.3625,-0.0245805948 9.47916667,0.00823130207 L10.5569444,0.317209998 C10.6736111,0.350021894 10.7430556,0.473066508 10.7097222,0.587908147 L6.79861111,13.8411802 C6.76527778,13.9587561 6.64305556,14.0243799 6.52361111,13.991568 Z M4.2125,10.6803008 L4.96805556,9.88734659 C5.05416667,9.79711387 5.04583333,9.65492898 4.95416667,9.57289924 L2.00694444,6.99989966 L4.95416667,4.42690008 C5.04861111,4.34487034 5.05416667,4.20268545 4.96805556,4.11245274 L4.2125,3.31949856 C4.12916667,3.23200017 3.9875,3.22653152 3.89861111,3.30856126 L0.0708333333,6.84130883 C-0.0236111111,6.92880722 -0.0236111111,7.07372643 0.0708333333,7.16122482 L3.89861111,10.6912381 C3.9875,10.7732678 4.12638889,10.7677992 4.2125,10.6803008 Z M12.1041667,10.6912381 L15.9291667,7.16122482 C16.0236111,7.07372643 16.0236111,6.92880722 15.9291667,6.84130883 L12.1041667,3.30856126 C12.0152778,3.22653152 11.8736111,3.22926585 11.7902778,3.31949856 L11.0347222,4.11245274 C10.9486111,4.20268545 10.9569444,4.34487034 11.0486111,4.42690008 L13.9958333,6.99989966 L11.0486111,9.57289924 C10.9541667,9.65492898 10.9486111,9.79711387 11.0347222,9.88734659 L11.7902778,10.6803008 C11.8763889,10.7677992 12.0152778,10.7732678 12.1041667,10.6912381 Z" id="Icon"></path>
        </g>
    </g>
</svg>