<?xml version="1.0" encoding="UTF-8"?>
<svg width="16px" height="13px" viewBox="0 0 16 13" version="1.1" xmlns="http://www.w3.org/2000/svg" xmlns:xlink="http://www.w3.org/1999/xlink">
    <title>lightbulb</title>
    <g id="Page-1" stroke="none" stroke-width="1" fill="none" fill-rule="evenodd">
        <g id="lightbulb" fill="#767B93" fill-rule="nonzero">
            <path d="M1.11825,8.08025 C0.927,8.19075 0.86125,8.43525 0.97175,8.62675 L1.17175,8.97325 C1.28225,9.1645 1.527,9.23025 1.71825,9.11975 L4.04975,7.77375 C3.78828585,7.46808083 3.56319549,7.13308798 3.379,6.7755 L1.11825,8.08025 Z M2.8115,4.2 L0.4,4.2 C0.179,4.2 0,4.379 0,4.6 L0,5 C0,5.221 0.179,5.4 0.4,5.4 L2.90525,5.4 C2.8281908,5.00490434 2.79673495,4.60226943 2.8115,4.2 L2.8115,4.2 Z M6.0015,11.5692083 C6.0015,11.6545208 6.02475,11.7376667 6.0685,11.808625 L6.68125,12.806375 C6.7555,12.9271667 6.8805,12.99975 7.01425,12.99975 L8.9855,12.99975 C9.1195,12.99975 9.2445,12.9271667 9.3185,12.806375 L9.93125,11.808625 C9.97475,11.7376667 9.998,11.65425 9.99825,11.5692083 L9.9995,10.39975 L6.0005,10.39975 L6.0015,11.5692083 Z M1.11825,1.5195 L3.09275,2.6595 C3.227,2.27725 3.417,1.9225 3.63375,1.58625 L1.71825,0.48025 C1.527,0.36975 1.28225,0.43525 1.17175,0.62675 L0.97175,0.97325 C0.86125,1.1645 0.927,1.40925 1.11825,1.5195 Z M14.88175,1.5195 C15.073,1.409 15.13875,1.1645 15.02825,0.973 L14.82825,0.6265 C14.71775,0.43525 14.473,0.3695 14.28175,0.48 L12.3665,1.58575 C12.5835,1.921 12.7605,2.28325 12.8965,2.6655 L14.88175,1.5195 Z M14.88175,8.08025 L12.6075,6.76725 C12.42425,7.123 12.2125,7.46425 11.9485,7.7725 L14.28175,9.1195 C14.473,9.23 14.71775,9.1645 14.82825,8.973 L15.02825,8.6265 C15.13875,8.4355 15.073,8.19075 14.88175,8.08025 L14.88175,8.08025 Z M15.6,4.2 L13.18975,4.2 C13.19225,4.267 13.2,4.3325 13.2,4.4 C13.2,4.7385 13.16125,5.07225 13.097,5.4 L15.6,5.4 C15.821,5.4 16,5.221 16,5 L16,4.6 C16,4.379 15.821,4.2 15.6,4.2 Z M8,2 C6.6765,2 5.6,3.0765 5.6,4.4 C5.6,4.621 5.779,4.8 6,4.8 C6.221,4.8 6.4,4.621 6.4,4.4 C6.4,3.5175 7.118,2.8 8,2.8 C8.221,2.8 8.4,2.621 8.4,2.4 C8.4,2.179 8.221,2 8,2 Z M8,0 C5.443,0 3.6,2.07425 3.6,4.4 C3.6,5.50925 4.01125,6.52125 4.689,7.2945 C5.105,7.76925 5.7575,8.7645 5.9995,9.5985 L5.9995,9.6 L7.1995,9.6 L7.1995,9.597 C7.19925,9.47775 7.1815,9.35925 7.14575,9.24525 C7.006,8.8 6.57525,7.626 5.5915,6.5035 C5.07825,5.91775 4.8035,5.175 4.80125,4.4 C4.79625,2.559 6.293,1.2 8,1.2 C9.7645,1.2 11.2,2.6355 11.2,4.4 C11.2,5.17425 10.919,5.92125 10.40875,6.5035 C9.431,7.61875 8.99825,8.79025 8.85625,9.24 C8.81960214,9.35563323 8.80088504,9.47619834 8.80075,9.5975 L8.80075,9.6 L10.00075,9.6 L10.00075,9.59875 C10.24275,8.7645 10.89525,7.76925 11.31125,7.29475 C11.98875,6.52125 12.4,5.50925 12.4,4.4 C12.4,1.97 10.43,0 8,0 Z" id="Icon"></path>
        </g>
    </g>
</svg>