<?xml version="1.0" encoding="UTF-8"?>
<svg width="16px" height="13px" viewBox="0 0 16 13" version="1.1" xmlns="http://www.w3.org/2000/svg" xmlns:xlink="http://www.w3.org/1999/xlink">
    <title>prototype-2</title>
    <g id="Page-1" stroke="none" stroke-width="1" fill="none" fill-rule="evenodd">
        <g id="prototype-2" fill="#767B93" fill-rule="nonzero">
            <path d="M16,6.703125 L16,6.296875 C16,6.07242187 15.821,5.890625 15.6,5.890625 L8.6,5.890625 L8.6,4.0625 L10.4,4.0625 C10.84175,4.0625 11.2,3.69865234 11.2,3.25 L11.2,0.8125 C11.2,0.363847656 10.84175,0 10.4,0 L5.6,0 C5.15825,0 4.8,0.363847656 4.8,0.8125 L4.8,3.25 C4.8,3.69865234 5.15825,4.0625 5.6,4.0625 L7.4,4.0625 L7.4,5.890625 L0.4,5.890625 C0.179,5.890625 0,6.07242187 0,6.296875 L0,6.703125 C0,6.92757812 0.179,7.109375 0.4,7.109375 L3,7.109375 L3,8.9375 L1.6,8.9375 C1.15825,8.9375 0.8,9.30134766 0.8,9.75 L0.8,12.1875 C0.8,12.6361523 1.15825,13 1.6,13 L5.6,13 C6.04175,13 6.4,12.6361523 6.4,12.1875 L6.4,9.75 C6.4,9.30134766 6.04175,8.9375 5.6,8.9375 L4.2,8.9375 L4.2,7.109375 L11.8,7.109375 L11.8,8.9375 L10.4,8.9375 C9.95825,8.9375 9.6,9.30134766 9.6,9.75 L9.6,12.1875 C9.6,12.6361523 9.95825,13 10.4,13 L14.4,13 C14.84175,13 15.2,12.6361523 15.2,12.1875 L15.2,9.75 C15.2,9.30134766 14.84175,8.9375 14.4,8.9375 L13,8.9375 L13,7.109375 L15.6,7.109375 C15.821,7.109375 16,6.92757812 16,6.703125 Z M6,1.21875 L10,1.21875 L10,2.84375 L6,2.84375 L6,1.21875 Z M5.2,10.15625 L5.2,11.78125 L2,11.78125 L2,10.15625 L5.2,10.15625 Z M14,10.15625 L14,11.78125 L10.8,11.78125 L10.8,10.15625 L14,10.15625 Z" id="Icon"></path>
        </g>
    </g>
</svg>