<?xml version="1.0" encoding="UTF-8"?>
<svg width="16px" height="16px" viewBox="0 0 16 16" version="1.1" xmlns="http://www.w3.org/2000/svg" xmlns:xlink="http://www.w3.org/1999/xlink">
    <title>wireframe</title>
    <g id="Page-1" stroke="none" stroke-width="1" fill="none" fill-rule="evenodd">
        <path d="M15,5 C15.5521875,5 16,4.5521875 16,4 L16,1 C16,0.4478125 15.5521875,0 15,0 L12,0 C11.4478125,0 11,0.4478125 11,1 L11,1.5 L5,1.5 L5,1 C5,0.4478125 4.5521875,0 4,0 L1,0 C0.4478125,0 0,0.4478125 0,1 L0,4 C0,4.5521875 0.4478125,5 1,5 L1.5,5 L1.5,11 L1,11 C0.4478125,11 0,11.4478125 0,12 L0,15 C0,15.5521875 0.4478125,16 1,16 L4,16 C4.5521875,16 5,15.5521875 5,15 L5,14.5 L11,14.5 L11,15 C11,15.5521875 11.4478125,16 12,16 L15,16 C15.5521875,16 16,15.5521875 16,15 L16,12 C16,11.4478125 15.5521875,11 15,11 L14.5,11 L14.5,5 L15,5 Z M12.5,1.5 L14.5,1.5 L14.5,3.5 L12.5,3.5 L12.5,1.5 Z M1.5,1.5 L3.5,1.5 L3.5,3.5 L1.5,3.5 L1.5,1.5 Z M3.5,14.5 L1.5,14.5 L1.5,12.5 L3.5,12.5 L3.5,14.5 Z M14.5,14.5 L12.5,14.5 L12.5,12.5 L14.5,12.5 L14.5,14.5 Z M13,11 L12,11 C11.4478125,11 11,11.4478125 11,12 L11,13 L5,13 L5,12 C5,11.4478125 4.5521875,11 4,11 L3,11 L3,5 L4,5 C4.5521875,5 5,4.5521875 5,4 L5,3 L11,3 L11,4 C11,4.5521875 11.4478125,5 12,5 L13,5 L13,11 Z" id="wireframe" fill="#9E87E9" fill-rule="nonzero"></path>
    </g>
</svg>