<?xml version="1.0" encoding="UTF-8" standalone="no"?>
<svg width="38px" height="48px" viewBox="0 0 38 48" version="1.1" xmlns="http://www.w3.org/2000/svg" xmlns:xlink="http://www.w3.org/1999/xlink">
    <!-- Generator: Sketch 3.8.3 (29802) - http://www.bohemiancoding.com/sketch -->
    <title>design</title>
    <desc>Created with Sketch.</desc>
    <defs></defs>
    <g id="Page-1" stroke="none" stroke-width="1" fill="none" fill-rule="evenodd">
        <g id="design" fill="#65C39C">
            <path d="M37,48 L23,48 C22.447,48 22,47.552 22,47 L22,1 C22,0.448 22.447,0 23,0 L37,0 C37.553,0 38,0.448 38,1 L38,47 C38,47.552 37.553,48 37,48 L37,48 L37,48 Z M24,46 L36,46 L36,2 L24,2 L24,46 L24,46 L24,46 Z" id="Shape"></path>
            <rect id="Rectangle-path" x="23" y="8" width="5" height="2"></rect>
            <rect id="Rectangle-path" x="23" y="14" width="5" height="2"></rect>
            <rect id="Rectangle-path" x="23" y="20" width="5" height="2"></rect>
            <rect id="Rectangle-path" x="23" y="26" width="5" height="2"></rect>
            <rect id="Rectangle-path" x="23" y="32" width="5" height="2"></rect>
            <rect id="Rectangle-path" x="23" y="38" width="5" height="2"></rect>
            <path d="M9,46 L5,46 C2.243,46 0,43.757 0,41 L0,12 C0,11.803 0.059,11.609 0.168,11.445 L6.168,2.445 C6.539,1.888 7.461,1.888 7.832,2.445 L13.832,11.445 C13.941,11.609 14,11.803 14,12 L14,41 C14,43.757 11.757,46 9,46 L9,46 L9,46 Z M2,12.303 L2,41 C2,42.654 3.346,44 5,44 L9,44 C10.654,44 12,42.654 12,41 L12,12.303 L7,4.803 L2,12.303 L2,12.303 L2,12.303 Z" id="Shape"></path>
            <path d="M13,40 L1,40 C0.447,40 0,39.552 0,39 C0,38.448 0.447,38 1,38 L13,38 C13.553,38 14,38.448 14,39 C14,39.552 13.553,40 13,40 L13,40 L13,40 Z" id="Shape"></path>
            <path d="M13,36 L1,36 C0.447,36 0,35.552 0,35 C0,34.448 0.447,34 1,34 L13,34 C13.553,34 14,34.448 14,35 C14,35.552 13.553,36 13,36 L13,36 L13,36 Z" id="Shape"></path>
            <path d="M5,36 C4.447,36 4,35.552 4,35 L4,16 C4,15.448 4.447,15 5,15 C5.553,15 6,15.448 6,16 L6,35 C6,35.552 5.553,36 5,36 L5,36 L5,36 Z" id="Shape"></path>
            <path d="M9,36 C8.447,36 8,35.552 8,35 L8,16 C8,15.448 8.447,15 9,15 C9.553,15 10,15.448 10,16 L10,35 C10,35.552 9.553,36 9,36 L9,36 L9,36 Z" id="Shape"></path>
            <rect id="Rectangle-path" x="4" y="7" width="6" height="2"></rect>
            <path d="M4,17 C1.794,17 0,15.206 0,13 C0,12.448 0.447,12 1,12 C1.553,12 2,12.448 2,13 C2,14.103 2.897,15 4,15 C5.103,15 6,14.103 6,13 C6,12.448 6.447,12 7,12 C7.553,12 8,12.448 8,13 C8,15.206 6.206,17 4,17 L4,17 L4,17 Z" id="Shape"></path>
            <path d="M10,17 C7.794,17 6,15.206 6,13 C6,12.448 6.447,12 7,12 C7.553,12 8,12.448 8,13 C8,14.103 8.897,15 10,15 C11.103,15 12,14.103 12,13 C12,12.448 12.447,12 13,12 C13.553,12 14,12.448 14,13 C14,15.206 12.206,17 10,17 L10,17 L10,17 Z" id="Shape"></path>
        </g>
    </g>
</svg>