<?xml version="1.0" encoding="UTF-8" standalone="no"?>
<svg width="40px" height="44px" viewBox="0 0 40 44" version="1.1" xmlns="http://www.w3.org/2000/svg" xmlns:xlink="http://www.w3.org/1999/xlink">
    <!-- Generator: Sketch 3.8.3 (29802) - http://www.bohemiancoding.com/sketch -->
    <title>development</title>
    <desc>Created with Sketch.</desc>
    <defs></defs>
    <g id="Page-1" stroke="none" stroke-width="1" fill="none" fill-rule="evenodd">
        <path d="M0,26 L0,17 L0,9 C0,3.953 8.785,0 20,0 C31.215,0 40,3.953 40,9 L40,17 L40,26 L40,35 C40,40.047 31.215,44 20,44 C8.785,44 0,40.047 0,35 L0,26 L0,26 Z M2,29.98841 C5.213863,32.98182 11.986621,35 20,35 C28.013379,35 34.786137,32.98182 38,29.98841 L38,35 C38,39.125 28.514,42 20,42 C11.486,42 2,39.125 2,35 L2,29.98841 L2,29.98841 Z M38,20.98841 C34.786137,23.98182 28.013379,26 20,26 C11.986621,26 5.213863,23.98182 2,20.98841 L2,26 C2,30.125 11.486,33 20,33 C28.514,33 38,30.125 38,26 L38,20.98841 L38,20.98841 Z M2,12.98841 C5.213863,15.98182 11.986621,18 20,18 C28.013379,18 34.786137,15.98182 38,12.98841 L38,17 C38,21.125 28.514,24 20,24 C11.486,24 2,21.125 2,17 L2,12.98841 L2,12.98841 Z M20,2 C11.486,2 2,4.875 2,9 C2,13.125 11.486,16 20,16 C28.514,16 38,13.125 38,9 C38,4.875 28.514,2 20,2 L20,2 L20,2 Z" id="development" fill="#65C39C"></path>
    </g>
</svg>