<?xml version="1.0" encoding="UTF-8" standalone="no"?>
<svg width="40px" height="44px" viewBox="0 0 40 44" version="1.1" xmlns="http://www.w3.org/2000/svg" xmlns:xlink="http://www.w3.org/1999/xlink">
    <!-- Generator: Sketch 3.8.3 (29802) - http://www.bohemiancoding.com/sketch -->
    <title>Combined Shape</title>
    <desc>Created with Sketch.</desc>
    <defs></defs>
    <g id="Chat" stroke="none" stroke-width="1" fill="none" fill-rule="evenodd">
        <g id="Home" transform="translate(-178.000000, -1106.000000)" fill="#74936F">
            <path d="M178,1132 L178,1123 L178,1115 C178,1109.953 186.785,1106 198,1106 C209.215,1106 218,1109.953 218,1115 L218,1123 L218,1132 L218,1141 C218,1146.047 209.215,1150 198,1150 C186.785,1150 178,1146.047 178,1141 L178,1132 Z M180,1135.98841 C183.213863,1138.98182 189.986621,1141 198,1141 C206.013379,1141 212.786137,1138.98182 216,1135.98841 L216,1141 C216,1145.125 206.514,1148 198,1148 C189.486,1148 180,1145.125 180,1141 L180,1135.98841 Z M216,1126.98841 C212.786137,1129.98182 206.013379,1132 198,1132 C189.986621,1132 183.213863,1129.98182 180,1126.98841 L180,1132 C180,1136.125 189.486,1139 198,1139 C206.514,1139 216,1136.125 216,1132 L216,1126.98841 Z M180,1118.98841 C183.213863,1121.98182 189.986621,1124 198,1124 C206.013379,1124 212.786137,1121.98182 216,1118.98841 L216,1123 C216,1127.125 206.514,1130 198,1130 C189.486,1130 180,1127.125 180,1123 L180,1118.98841 Z M198,1108 C189.486,1108 180,1110.875 180,1115 C180,1119.125 189.486,1122 198,1122 C206.514,1122 216,1119.125 216,1115 C216,1110.875 206.514,1108 198,1108 L198,1108 Z" id="Combined-Shape"></path>
        </g>
    </g>
</svg>