<?xml version="1.0" encoding="UTF-8"?>
<svg width="77px" height="47px" viewBox="0 0 77 47" version="1.1" xmlns="http://www.w3.org/2000/svg" xmlns:xlink="http://www.w3.org/1999/xlink">
    <!-- Generator: Sketch 41.2 (35397) - http://www.bohemiancoding.com/sketch -->
    <title>Combined Shape</title>
    <desc>Created with Sketch.</desc>
    <defs></defs>
    <g id="December-2016-(design)" stroke="none" stroke-width="1" fill="none" fill-rule="evenodd">
        <g id="About" transform="translate(-314.000000, -131.000000)" fill="#8da3b9">
            <path d="M324.744186,168.064259 C324.626934,165.443402 326.28566,158.709372 328.325581,152.709023 C330.791376,147.235232 335.220249,139.43316 335.488372,135.547289 C335.220249,132.786032 333.096663,130.71983 329.22093,131.031043 C329.9395,132.673902 329.094829,135.09832 328.325581,137.353787 C326.396322,141.306939 323.751245,147.39742 322.953488,150.902525 C320.67953,156.216073 318.860514,163.647113 318.476744,168.967508 C317.410504,168.874992 315.464418,169.216389 314,169.870757 C314.094653,173.607694 316.813771,175.006721 320.267442,175.290252 C324.217705,174.963671 331.750312,173.723429 337.27907,174.387003 C341.926794,174.319922 344.971894,175.437021 346.232558,177.096751 C347.467488,176.607182 348.029802,175.819866 348.023256,174.387003 C347.993182,169.529152 332.623399,168.066652 324.744186,168.064259 Z M372.197674,158.128518 C371.639056,158.937325 371.186182,160.271172 370.406977,161.741515 C369.492875,162.715227 368.201226,163.443197 367.72093,163.548013 C366.42479,163.443197 365.930745,162.715028 365.930233,161.741515 C365.930745,158.600372 369.563396,150.00957 370.406977,147.289528 C371.2242,146.312066 370.748869,145.898904 370.406977,145.48303 C369.498193,145.898904 367.955779,146.367726 365.930233,147.289528 C365.167417,144.984603 363.57615,143.568164 361.453488,143.676532 C355.926524,143.568164 351.681043,152.027098 350.709302,158.128518 C348.917502,160.985974 344.821732,163.408285 341.755814,163.548013 C339.75757,163.408285 338.682608,161.293601 339.069767,159.031767 C338.682608,158.304316 338.760024,157.644176 339.069767,157.225269 C339.866307,157.232012 341.234978,157.56298 342.651163,157.225269 C347.798808,157.56298 350.826707,153.114165 350.709302,148.192777 C350.826707,145.134227 346.08659,143.288866 343.546512,143.676532 C337.409673,143.288866 332.802326,153.014416 332.802326,159.031767 C332.802326,164.335952 335.579853,166.979307 339.965116,167.16101 C343.85334,166.979307 348.252471,164.065432 350.709302,161.741515 C350.972084,165.112999 352.340164,166.979307 355.186047,167.16101 C357.166365,166.979307 359.454772,164.36089 360.55814,161.741515 C360.589027,164.72657 361.795577,166.979307 364.139535,167.16101 C366.215195,166.979307 368.189013,165.849747 369.511628,164.451262 C368.6149,168.590456 367.625037,172.659227 367.72093,175.290252 C367.625037,176.48042 368.545757,178 370.406977,178 C371.86185,178 373.386929,176.979166 373.988372,176.193502 C373.010879,175.225176 372.86176,174.373318 373.093023,171.677256 C373.89437,168.852996 376.002336,161.961123 377.569767,157.225269 C378.34452,157.011766 379.215206,156.992814 380.255814,157.225269 C382.919364,157.123685 386.241957,157.736743 386.523256,159.031767 C387.752066,158.367557 388.213411,157.734948 388.313953,157.225269 C388.213411,154.079338 383.159493,153.201944 379.360465,152.709023 C381.232755,147.489107 385.071653,140.47933 386.523256,140.063535 C387.044682,140.47933 387.102203,141.029347 387.418605,141.870033 C387.102203,142.590622 385.929732,146.115161 384.732558,147.289528 C384.824433,148.089397 385.72447,148.463457 386.523256,148.192777 C389.441433,148.463457 391,144.55229 391,141.870033 C391,139.54827 387.508195,137.353787 384.732558,137.353787 C380.356554,137.353787 376.511746,146.101196 373.988372,153.612272 C372.142163,153.900987 371.048093,154.296792 370.406977,154.515522 C369.692423,154.956134 369.900048,155.626449 370.406977,156.32202 C370.629297,156.444592 372.051352,157.769062 372.197674,158.128518 Z M345.337209,146.386279 C345.953841,146.386279 346.232558,146.935651 346.232558,148.192777 C346.232558,150.54531 343.558717,155.418771 339.965116,155.418771 C339.880618,155.418771 339.468084,155.364988 339.069767,155.418771 C340.509978,151.00937 343.525472,146.386279 345.337209,146.386279 Z M361.453488,156.32202 C359.909864,160.369575 358.406104,162.644764 356.976744,162.644764 C356.28881,162.644764 356.081395,161.556011 356.081395,160.838266 C356.081395,156.567909 360.208956,147.289528 363.244186,147.289528 C364.006312,147.289528 364.671907,147.813432 365.034884,148.192777 C364.239654,150.380697 363.435921,152.765463 361.453488,156.32202 Z" id="Combined-Shape"></path>
        </g>
    </g>
</svg>