<?xml version="1.0" encoding="utf-8"?>
<!DOCTYPE svg PUBLIC "-//W3C//DTD SVG 1.1//EN" "http://www.w3.org/Graphics/SVG/1.1/DTD/svg11.dtd">
<svg version="1.1" id="Layer_1" xmlns="http://www.w3.org/2000/svg" xmlns:xlink="http://www.w3.org/1999/xlink" x="0px" y="0px"
	 width="40px" height="76px" viewBox="0 0 40 76" enable-background="new 0 0 40 76" xml:space="preserve">
<g>
	<path fill="#ffffff" stroke="#ffffff" stroke-width="0" d="M20,4c3.229,0,7.239,4.689,10.464,12.237C33.879,24.23,36,34.485,36,43c0,16.742-8.088,19-16,19S4,59.742,4,43
		c0-8.515,2.121-18.77,5.536-26.763C12.761,8.689,16.771,4,20,4 M20,0C8.954,0,0,24.774,0,43s8.954,23,20,23s20-4.774,20-23
		S31.046,0,20,0L20,0z"/>
</g>
<line fill="#ffffff" stroke="#ffffff" stroke-width="4" stroke-linecap="round" stroke-linejoin="round" stroke-miterlimit="10" x2="20" y2="24" x1="20" y1="74"/>
<g>
	
		<line fill="#ffffff" stroke="#ffffff" stroke-width="4" stroke-linecap="round" stroke-linejoin="round" stroke-miterlimit="10" x1="20" y1="56" x2="12" y2="48"/>
	
		<line fill="#ffffff" stroke="#ffffff" stroke-width="4" stroke-linecap="round" stroke-linejoin="round" stroke-miterlimit="10" x1="20" y1="56" x2="28" y2="48"/>
</g>
<g>
	
		<line fill="#ffffff" stroke="#ffffff" stroke-width="4" stroke-linecap="round" stroke-linejoin="round" stroke-miterlimit="10" x2="12" y2="34" x1="20" y1="42"/>
	
		<line fill="#ffffff" stroke="#ffffff" stroke-width="4" stroke-linecap="round" stroke-linejoin="round" stroke-miterlimit="10" x1="20" y1="42" x2="28" y2="34"/>
</g>
</svg>
