<svg width="42px" height="32px" viewBox="72 80 42 32" version="1.1" xmlns="http://www.w3.org/2000/svg" xmlns:xlink="http://www.w3.org/1999/xlink">
  <path d="M112.369009,91.5438298 L111.92242,90.9116596 L111.809968,90.7525106 C109.584984,87.669617 106.792493,85.0825532 103.675347,83.1982979 C100.214243,81.1062128 96.501307,80.0001702 92.9377425,80 C92.1717506,80 91.4028796,80.0508936 90.6514522,80.1513191 C88.5030167,80.4381277 86.3383232,81.1203404 84.2178312,82.179234 C83.3178796,82.6285957 82.4177586,83.1504681 81.5427022,83.7307234 C81.423307,83.8098723 81.2995086,83.8907234 81.1731699,83.9731064 C80.4029441,84.475234 79.5302586,85.0444255 78.924307,85.7283404 C78.2716135,86.4253617 78.1037828,87.3594894 78.4755167,88.2294468 C78.8638473,89.1387234 79.7512667,89.7494468 80.6835651,89.7494468 C81.1536941,89.7494468 81.6177264,89.5942128 82.0262103,89.3009362 C82.2648312,89.1293617 82.5009119,88.957617 82.7359764,88.786383 C84.0261215,87.8481702 85.2441215,86.9617021 86.6614522,86.2885106 C88.7524764,85.2948085 90.9080248,84.7909787 93.0676377,84.7909787 C94.3242506,84.7909787 95.5710409,84.9662979 96.7736296,85.3116596 C99.3925328,86.0643404 101.959444,87.532766 104.402896,89.6760851 C106.404162,91.4314894 107.839275,93.1171064 108.790372,94.828766 C109.022218,95.244766 109.288444,95.7217021 109.259823,96.029617 C109.217315,96.4862979 108.89842,97.0122553 108.617122,97.4765957 C105.84292,102.057021 100.926549,105.735149 96.073178,106.877617 C95.1026054,107.106213 94.1027344,107.222128 93.1015086,107.222128 C88.3602506,107.222128 83.3407425,104.618894 79.3307586,100.079489 C78.8086377,99.4885106 78.3598473,98.9283404 77.9755812,98.3875745 L96.4244199,98.3875745 C98.0212667,98.3875745 98.8565248,97.2011915 98.8565248,96.0292766 C98.8565248,94.860766 97.9907828,93.6188936 96.3859764,93.6188936 L92.7069119,93.6188936 L79.3724199,93.6188936 L74.9134764,93.6188936 C74.8577586,93.6188936 74.8017022,93.6182128 74.745307,93.6175319 C74.6829844,93.6166809 74.6201538,93.6158298 74.5576619,93.6158298 C74.2602748,93.6158298 73.9092022,93.6328511 73.5610086,93.7588085 C72.248678,94.2333617 71.728928,95.4995745 72.1350409,97.2325106 C72.521678,98.8825532 73.5156215,100.363915 74.4370812,101.595404 C75.5346699,103.062638 76.8425973,104.474723 78.3247909,105.79234 C81.9037667,108.973106 85.8952909,111.027574 89.8681861,111.733277 C90.8645006,111.910468 91.8855409,112 92.9030248,112 C95.9067022,112 98.9408635,111.238468 101.921001,109.73634 C104.578686,108.396766 107.16592,106.456681 109.402589,104.125957 C111.404194,102.04017 113.333315,99.7451915 113.889476,97.0997447 C114.280517,95.2406809 113.57888,93.5162553 112.647089,92.0013617 C112.593912,91.8617872 112.492807,91.7188085 112.369009,91.5438298 Z" id="Leaf" stroke="none" fill="#96BE92" fill-rule="evenodd"></path>
</svg>