<?xml version="1.0" encoding="UTF-8" standalone="no"?>
<svg width="83px" height="91px" viewBox="0 0 83 91" version="1.1" xmlns="http://www.w3.org/2000/svg" xmlns:xlink="http://www.w3.org/1999/xlink">
    <!-- Generator: Sketch 3.8.3 (29802) - http://www.bohemiancoding.com/sketch -->
    <title>Group</title>
    <desc>Created with Sketch.</desc>
    <defs></defs>
    <g id="Chat" stroke="none" stroke-width="1" fill="none" fill-rule="evenodd">
        <g id="Home" transform="translate(-516.000000, -1985.000000)" fill="#8CC84B">
            <g id="Group" transform="translate(516.000000, 1985.000000)">
                <path d="M37.7552067,0.970835472 C40.0229412,-0.320674909 42.9770937,-0.326545411 45.2428613,0.970835472 C56.6425058,7.37946654 68.0460842,13.7783134 79.4437618,20.1908582 C81.5875873,21.3923542 83.0213937,23.7659937 82.9997585,26.2237771 L82.9997585,64.7812326 C83.015493,67.3407712 81.4400764,69.7711589 79.1782423,70.9452594 C67.8159672,77.3186673 56.4595924,83.6999028 45.0992842,90.0733109 C42.7843461,91.3902601 39.7711893,91.2885045 37.5290231,89.8639296 C34.1225043,87.8992683 30.7100847,85.9443913 27.3035657,83.9816869 C26.6073141,83.568795 25.8225559,83.2400468 25.3308529,82.5688529 C25.7655184,81.9857161 26.5424093,81.9133134 27.1737561,81.6589248 C28.5957614,81.2088531 29.9017248,80.4867816 31.2076883,79.7862348 C31.5381127,79.5611992 31.9413093,79.6472997 32.257966,79.8488537 C35.1708152,81.5102054 38.0580957,83.2204786 40.980779,84.8661756 C41.6042585,85.2242763 42.2356052,84.7487656 42.7686115,84.4532837 C53.9184707,78.1835878 65.0820979,71.9373742 76.2299905,65.6657213 C76.643021,65.4680812 76.8711714,65.0317073 76.8377354,64.5816355 C76.8456027,51.8622151 76.8397023,39.1408378 76.8416689,26.4214173 C76.8888725,25.9106837 76.5918839,25.4410435 76.1277161,25.2316623 C64.8047773,18.8876068 53.4877389,12.5337671 42.1667667,6.18775467 C41.7616035,5.91379793 41.2384313,5.9118411 40.8332682,6.18579785 C29.512296,12.5337671 18.1972244,18.8934773 6.87625231,25.2375328 C6.41405141,25.446914 6.10329504,25.9087268 6.15836579,26.4214173 C6.16033262,39.1408378 6.15836579,51.8622151 6.15836579,64.5835921 C6.11902955,65.0336642 6.3629143,65.4602538 6.77397806,65.6539804 C9.79500188,67.3583828 12.8199593,69.051044 15.8429499,70.7495759 C17.5462095,71.6614605 19.636931,72.2035036 21.51327,71.5049138 C23.1693261,70.91395 24.3297454,69.2330297 24.2982764,67.4836201 C24.3140109,54.8385594 24.2904091,42.1915418 24.3100772,29.5484379 C24.2687742,28.9868266 24.8037472,28.5230569 25.3524878,28.5758915 C26.8039953,28.5661073 28.2574697,28.5563231 29.7089772,28.5798051 C30.3147554,28.5661073 30.7317196,29.170769 30.6569808,29.7362939 C30.6510804,42.461585 30.6727153,55.1868759 30.6471467,67.9121667 C30.6510804,71.3033598 29.2507099,74.9939486 26.0979097,76.6533438 C22.2134553,78.655185 17.4124662,78.2305519 13.5752153,76.3108978 C10.2532692,74.6612869 7.08276762,72.7142372 3.81982588,70.947216 C1.55209121,69.7789863 -0.0154582574,67.3388143 0.000276241696,64.7812326 L0.000276241696,26.2237771 C-0.0233255068,23.715116 1.46751828,21.2984262 3.67821538,20.1145416 C15.0385237,13.7352631 26.3968652,7.35207087 37.7552067,0.970835472 L37.7552067,0.970835472 L37.7552067,0.970835472 Z" id="Shape"></path>
                <path d="M47.6278373,28.1257471 C52.5452583,27.8082276 57.8101592,27.9375874 62.235643,30.3699433 C65.6616353,32.2339002 67.56106,36.1460537 67.6215759,39.9680474 C67.5259214,40.4835264 66.9890851,40.767726 66.4990999,40.7324461 C65.0720911,40.730486 63.6450827,40.752046 62.218074,40.722646 C61.612913,40.746166 61.261529,40.1856071 61.1853958,39.6485679 C60.7754482,37.8198908 59.7818127,36.0088541 58.0678406,35.1268553 C55.4363663,33.8038577 52.3851836,33.8704976 49.515549,33.8979375 C47.4209113,34.0096573 45.1681507,34.1919368 43.3936624,35.428695 C42.0310739,36.3655732 41.6172219,38.2569704 42.1033028,39.7798876 C42.5620539,40.8735659 43.8192271,41.2263652 44.8480009,41.5517249 C50.7746745,43.1079622 57.0546839,42.9531225 62.868134,45.0013191 C65.275113,45.8362776 67.6293844,47.4591548 68.4531844,49.9895106 C69.5307613,53.3803049 69.0583454,57.4335783 66.6552705,60.1560137 C64.7070426,62.3962899 61.8686422,63.615408 59.0380504,64.277887 C55.2723871,65.1206855 51.3642183,65.1422454 47.5399914,64.7678862 C43.9441635,64.3562867 40.2019262,63.4076484 37.4259939,60.9478523 C35.0522013,58.8780957 33.8926344,55.6539013 34.0078104,52.5414263 C34.0351402,52.0161472 34.5563596,51.649628 35.0580576,51.6927479 C36.4948268,51.6809877 37.9315963,51.6770679 39.3683657,51.694708 C39.9422925,51.6535479 40.3678572,52.1513871 40.3971392,52.6943062 C40.6626292,54.4367433 41.3146414,56.2654204 42.8275438,57.2983384 C45.7479338,59.1897352 49.412086,59.0603756 52.7560888,59.1132956 C55.5261644,58.9898156 58.635911,58.9525756 60.8964802,57.1140988 C62.0892331,56.0655004 62.442569,54.3113035 62.1204673,52.8021059 C61.7710356,51.5281081 60.4435857,50.9342291 59.3035404,50.5461496 C53.4530001,48.6880729 47.1027137,49.3623118 41.3087851,47.2611952 C38.9564656,46.4262368 36.6822316,44.8484392 35.7783942,42.4219632 C34.5173169,38.988049 35.0951481,34.7407359 37.7500478,32.1104204 C40.3385753,29.4938248 44.0749566,28.4863865 47.6278373,28.1257471 L47.6278373,28.1257471 L47.6278373,28.1257471 Z" id="Shape"></path>
            </g>
        </g>
    </g>
</svg>