<?xml version="1.0" encoding="UTF-8" standalone="no"?>
<svg width="72px" height="64px" viewBox="0 0 72 64" version="1.1" xmlns="http://www.w3.org/2000/svg" xmlns:xlink="http://www.w3.org/1999/xlink">
    <!-- Generator: Sketch 3.8.3 (29802) - http://www.bohemiancoding.com/sketch -->
    <title>react</title>
    <desc>Created with Sketch.</desc>
    <defs></defs>
    <g id="Chat" stroke="none" stroke-width="1" fill="none" fill-rule="evenodd">
        <g id="Home" transform="translate(-741.000000, -1999.000000)">
            <g id="Group-3" transform="translate(72.000000, 1985.000000)">
                <g id="react" transform="translate(669.000000, 14.000000)">
                    <g id="Background" fill="#000000" fill-opacity="0">
                        <rect id="Rectangle-path" x="0" y="0" width="72" height="64"></rect>
                    </g>
                    <g id="Layer_1" transform="translate(0.378947, 0.627451)" fill="#00D8FF">
                        <path d="M41.8984421,31.3258667 C41.8984421,34.802698 39.0612632,37.6213333 35.5615579,37.6213333 C32.0618526,37.6213333 29.2246737,34.802698 29.2246737,31.3258667 C29.2246737,27.8490353 32.0618526,25.0304 35.5615579,25.0304 C39.0612632,25.0304 41.8984421,27.8490353 41.8984421,31.3258667 L41.8984421,31.3258667 Z" id="Shape"></path>
                        <path d="M35.5615579,20.031749 C43.7490395,20.031749 51.5266689,21.1785227 57.439558,23.2008091 C64.0064923,25.4467526 68.0122105,28.767335 68.0122105,31.3258667 C68.0122105,34.0512024 63.686135,37.5893402 56.6618297,39.9014865 C51.0696913,41.7421942 43.5877261,42.7454745 35.5615579,42.7454745 C27.1298662,42.7454745 19.5635068,41.761744 14.0362462,39.8848021 C10.5759177,38.7097876 7.71828635,37.1827527 5.75958727,35.5163271 C3.99950816,34.0188838 3.11090526,32.5321605 3.11090526,31.3258667 C3.11090526,28.7587291 6.96335309,25.4842692 13.38866,23.2587379 C19.3040225,21.2099903 27.2720146,20.031749 35.5615579,20.031749 L35.5615579,20.031749 Z M35.5615579,17.0199843 C26.9499659,17.0199843 18.6482497,18.247574 12.3906577,20.4148505 C4.87746167,23.0171937 0.0793263158,27.0954582 0.0793263158,31.3258667 C0.0793263158,35.6951171 5.23021094,40.077396 13.0557269,42.7346854 C18.937894,44.7321461 26.8223933,45.7572392 35.5615579,45.7572392 C43.8903388,45.7572392 51.6870625,44.711752 57.6153022,42.7604132 C65.7506748,40.0825439 71.0437895,35.7535004 71.0437895,31.3258667 C71.0437895,27.0801665 66.0908666,22.9743888 58.426372,20.3530709 C52.1763288,18.2154733 44.0683027,17.0199843 35.5615579,17.0199843 L35.5615579,17.0199843 Z" id="Shape"></path>
                        <path d="M25.6586846,25.7150608 C29.7488721,18.6689545 34.6343384,12.5483267 39.3516334,8.46985005 C44.5907094,3.94032484 49.4873055,2.15181826 51.7182682,3.42994289 C54.094706,4.7913971 55.0187253,10.2821328 53.5256608,17.482254 C52.3369656,23.2144999 49.4740216,30.1547789 45.4644254,37.0621726 C41.2521929,44.3186029 36.6145338,50.3387352 32.2165277,54.1579402 C29.4632606,56.5489525 26.7041552,58.2453779 24.2725688,59.0985331 C22.0875667,59.8651709 20.3472447,59.8871732 19.295326,59.2845322 C17.0568971,58.0020348 16.1262753,53.0508355 17.3956248,46.4093499 C18.5641705,40.2951924 21.5173221,32.849387 25.6586874,25.7150559 L25.6586846,25.7150608 Z M23.0325126,24.2104657 C18.7302564,31.6219633 15.6534105,39.3796403 14.4172586,45.8475328 C12.933001,53.6134594 14.0920724,59.7800818 17.7808365,61.8935422 C21.5908489,64.0762865 27.9852632,61.832719 34.211704,56.425508 C38.8920965,52.3610802 43.7247616,46.0878111 48.090604,38.5667566 C52.2513715,31.3989376 55.2347514,24.1667008 56.4948856,18.0899546 C58.2241241,9.7509129 57.0935479,3.03276826 53.2327156,0.820908791 C49.5306072,-1.30003919 43.4761785,0.911371618 37.3614705,6.19793818 C32.3751922,10.5089723 27.2821953,16.8895994 23.0325154,24.2104608 L23.0325126,24.2104657 Z" id="Shape"></path>
                        <path d="M17.4676655,16.6804985 C16.1340381,9.90915311 17.0198019,4.80137008 19.2486354,3.51954195 C21.6227931,2.15405431 26.8725632,4.10090919 32.4057415,8.98185959 C36.8110267,12.867688 41.4335053,18.7977803 45.4548318,25.6986611 C49.6792706,32.9480414 52.6131734,39.9462737 53.7474182,45.6390379 C54.4575176,49.2028916 54.5589724,52.4248827 54.0886022,54.9438197 C53.6659328,57.2073085 52.815972,58.7161655 51.7650789,59.3205591 C49.528711,60.60676 44.7460995,58.9350542 39.5882796,54.5256329 C34.840013,50.4663536 29.821584,44.205982 25.6681506,37.0785502 C21.5661713,30.0392048 18.6684488,22.7775287 17.4676671,16.680507 L17.4676655,16.6804985 Z M14.4925013,17.2588185 C15.7617518,23.7034936 18.7825692,31.2736448 23.0445133,38.5875035 C27.3593047,45.9918311 32.5879168,52.514401 37.6108804,56.8085179 C43.6419664,61.9644947 49.598644,64.0465816 53.2839371,61.9270613 C57.0902261,59.737974 58.3271761,53.1138309 56.7212956,45.0542225 C55.5142226,38.9959343 52.4569576,31.7034463 48.0784709,24.189711 C43.9055343,17.0286564 39.0885911,10.8490891 34.4185693,6.72974093 C28.0101691,1.07673616 21.5868327,-1.30533081 17.7297726,0.91304236 C14.0311898,3.04014047 12.9359751,9.35572858 14.492503,17.2588269 L14.4925013,17.2588185 Z" id="Shape"></path>
                    </g>
                </g>
            </g>
        </g>
    </g>
</svg>