<?xml version="1.0" encoding="UTF-8" standalone="no"?>
<svg width="89px" height="84px" viewBox="0 0 89 84" version="1.1" xmlns="http://www.w3.org/2000/svg" xmlns:xlink="http://www.w3.org/1999/xlink">
    <!-- Generator: Sketch 3.8.3 (29802) - http://www.bohemiancoding.com/sketch -->
    <title>Shape</title>
    <desc>Created with Sketch.</desc>
    <defs></defs>
    <g id="Chat" stroke="none" stroke-width="1" fill="none" fill-rule="evenodd">
        <g id="Home" transform="translate(-553.000000, -1985.000000)" fill="#764ABC">
            <g id="Group-3" transform="translate(72.000000, 1985.000000)">
                <path d="M542.667597,58.6648792 C545.952028,58.3270779 548.443665,55.5120645 548.330409,52.1340484 C548.217153,48.7560323 545.385747,46.0536192 541.988059,46.0536192 L541.761547,46.0536192 C538.250603,46.1662199 535.532454,49.093834 535.64571,52.5844504 C535.758966,54.2734586 536.438504,55.7372655 537.45781,56.7506704 C533.607098,64.2949062 527.717773,69.8123324 518.883786,74.4289544 C512.881206,77.5817695 506.652112,78.7077747 500.423019,77.9195711 C495.326488,77.2439678 491.36252,74.991957 488.870882,71.2761396 C485.246683,65.758713 484.906914,59.7908848 487.964833,53.8230563 C490.116701,49.5442359 493.514388,46.3914208 495.666257,44.8150133 C495.213232,43.3512064 494.533695,40.8739946 494.193926,39.0723861 C477.771771,50.8954425 479.470614,66.8847186 484.453889,74.4289544 C488.191345,80.0589813 495.779513,83.549598 504.160475,83.549598 C506.4256,83.549598 508.690725,83.3243967 510.955849,82.7613941 C525.452648,79.9463806 536.438504,71.38874 542.667597,58.6648792 L542.667597,58.6648792 Z M562.600695,44.702413 C553.993221,34.680965 541.308522,29.1635389 526.811723,29.1635389 L524.999623,29.1635389 C523.980317,27.1367293 521.828449,25.7855228 519.450068,25.7855228 L519.223555,25.7855228 C515.712612,25.8981233 512.994462,28.8257373 513.107718,32.3163539 C513.220974,35.69437 516.05238,38.3967828 519.450068,38.3967828 L519.67658,38.3967828 C522.168217,38.2841825 524.320086,36.7077749 525.226136,34.5683647 L527.264748,34.5683647 C535.872222,34.5683647 544.026672,37.0455765 551.388328,41.8873995 C557.05114,45.6032172 561.128364,50.4450402 563.393489,56.3002681 C565.318845,61.0294907 565.205589,65.6461127 563.166977,69.5871314 C559.995802,75.55496 554.672759,78.8203754 547.650871,78.8203754 C543.120622,78.8203754 538.816885,77.4691688 536.55176,76.4557642 C535.305941,77.5817695 533.040816,79.383378 531.455229,80.5093836 C536.325247,82.7613941 541.308522,84 546.065284,84 C556.937883,84 564.979077,78.0321718 568.036995,72.0643432 C571.321426,65.5335121 571.094914,54.2734586 562.600695,44.702413 L562.600695,44.702413 Z M505.066525,60.5790884 C505.179781,63.9571045 508.011187,66.6595176 511.408874,66.6595176 L511.635387,66.6595176 C515.14633,66.546917 517.86448,63.6193029 517.751224,60.1286865 C517.637968,56.7506704 514.806562,54.0482573 511.408874,54.0482573 L511.182362,54.0482573 C510.955849,54.0482573 510.616081,54.0482573 510.389568,54.1608579 C505.746062,46.5040215 503.820706,38.1715818 504.500244,29.1635389 C504.953269,22.4075067 507.218394,16.5522788 511.182362,11.7104558 C514.466793,7.54423593 520.809142,5.51742628 525.11288,5.40482573 C537.118041,5.17962468 542.214572,20.0428955 542.554341,26.0107239 C544.026672,26.3485255 546.518309,27.1367293 548.217153,27.6997319 C546.858078,9.45844505 535.532454,0 524.659855,0 C514.466793,0 505.066525,7.31903485 501.329069,18.1286863 C496.119282,32.541555 499.516969,46.3914208 505.859319,57.313673 C505.293037,58.1018766 504.953269,59.3404825 505.066525,60.5790884 L505.066525,60.5790884 Z" id="Shape"></path>
            </g>
        </g>
    </g>
</svg>