<?xml version="1.0" encoding="UTF-8" standalone="no"?>
<svg width="72px" height="92px" viewBox="0 0 72 92" version="1.1" xmlns="http://www.w3.org/2000/svg" xmlns:xlink="http://www.w3.org/1999/xlink">
    <!-- Generator: Sketch 3.8.3 (29802) - http://www.bohemiancoding.com/sketch -->
    <title>logo-rails</title>
    <desc>Created with Sketch.</desc>
    <defs>
        <linearGradient x1="8.87396402e-15%" y1="50%" x2="99.9996878%" y2="50%" id="linearGradient-1">
            <stop stop-color="#AA2237" offset="8%"></stop>
            <stop stop-color="#B4313D" offset="98.2%"></stop>
        </linearGradient>
        <linearGradient x1="0%" y1="49.9994644%" x2="100%" y2="49.9994644%" id="linearGradient-2">
            <stop stop-color="#B83A41" offset="3.7%"></stop>
            <stop stop-color="#BF4A50" offset="89.6%"></stop>
        </linearGradient>
        <linearGradient x1="49.9992818%" y1="100%" x2="49.9992818%" y2="0.00106823911%" id="linearGradient-3">
            <stop stop-color="#A92237" offset="3.7%"></stop>
            <stop stop-color="#972235" offset="93.9%"></stop>
        </linearGradient>
        <linearGradient x1="50.0005418%" y1="100%" x2="50.0005418%" y2="0%" id="linearGradient-4">
            <stop stop-color="#BC4245" offset="3.7%"></stop>
            <stop stop-color="#A42136" offset="93.9%"></stop>
        </linearGradient>
        <linearGradient x1="50%" y1="100%" x2="50%" y2="0%" id="linearGradient-5">
            <stop stop-color="#CC5057" offset="3.7%"></stop>
            <stop stop-color="#B73840" offset="89.6%"></stop>
        </linearGradient>
        <linearGradient x1="-9.58741013%" y1="69.3763326%" x2="50.9379818%" y2="49.6939267%" id="linearGradient-6">
            <stop stop-color="#D4575F" offset="8%"></stop>
            <stop stop-color="#B63540" offset="94.5%"></stop>
        </linearGradient>
        <linearGradient x1="0%" y1="49.9994603%" x2="100%" y2="49.9994603%" id="linearGradient-7">
            <stop stop-color="#C04B51" offset="0%"></stop>
            <stop stop-color="#B83A41" offset="100%"></stop>
        </linearGradient>
        <linearGradient x1="0%" y1="50.0005427%" x2="100.001548%" y2="50.0005427%" id="linearGradient-8">
            <stop stop-color="#BA4044" offset="0%"></stop>
            <stop stop-color="#B4303C" offset="100%"></stop>
        </linearGradient>
        <linearGradient x1="-21.0343813%" y1="39.0984891%" x2="55.7934333%" y2="50.7923664%" id="linearGradient-9">
            <stop stop-color="#972136" offset="0%"></stop>
            <stop stop-color="#9F2236" offset="100%"></stop>
        </linearGradient>
        <linearGradient x1="39.1599786%" y1="5.68686838%" x2="129.601926%" y2="82.3366918%" id="linearGradient-10">
            <stop stop-color="#B22C3A" offset="3.7%"></stop>
            <stop stop-color="#C04D53" offset="93.9%"></stop>
        </linearGradient>
        <linearGradient x1="50%" y1="100%" x2="50%" y2="0%" id="linearGradient-11">
            <stop stop-color="#B22C3A" offset="3.7%"></stop>
            <stop stop-color="#9B2135" offset="93.9%"></stop>
        </linearGradient>
        <linearGradient x1="0%" y1="50%" x2="100%" y2="50%" id="linearGradient-12">
            <stop stop-color="#FFFFFF" offset="3.7%"></stop>
            <stop stop-color="#F4E6D9" offset="74.2%"></stop>
        </linearGradient>
        <linearGradient x1="15.6271449%" y1="13.5388002%" x2="97.8973515%" y2="80.1917079%" id="linearGradient-13">
            <stop stop-color="#FFFFFF" offset="3.7%"></stop>
            <stop stop-color="#F4E6D9" offset="89.6%"></stop>
        </linearGradient>
    </defs>
    <g id="Chat" stroke="none" stroke-width="1" fill="none" fill-rule="evenodd">
        <g id="Home" transform="translate(-72.000000, -1985.000000)">
            <g id="Group-3" transform="translate(72.000000, 1985.000000)">
                <g id="logo-rails">
                    <path d="M71.9858571,81.6171121 C71.9858571,87.3464766 67.3562143,91.9888224 61.6482857,91.9888224 L0.0368571429,91.9888224 L0.0368571429,10.5636636 C0.0368571429,4.83623364 4.66585714,0.192168224 10.3755,0.192168224 L71.9858571,0.192168224 L71.9858571,81.6171121 L71.9858571,81.6171121 Z" id="Shape" fill="#80152A"></path>
                    <path d="M70.3270714,80.642729 C70.3270714,86.1558505 66.2012143,90.2967103 60.7013571,90.2967103 L1.69542857,90.2967103 L1.69542857,11.5399813 C1.69542857,6.02492523 5.82064286,1.886 11.3213571,1.886 L70.3272857,1.886 L70.3272857,80.642729 L70.3270714,80.642729 Z" id="Shape" fill="url(#linearGradient-1)"></path>
                    <polygon id="Shape" fill="#8A2034" points="16.7247857 1.96617757 16.9463571 22.0309907 2.08135714 27.0232804"></polygon>
                    <polygon id="Shape" fill="url(#linearGradient-2)" points="16.7247857 1.96617757 16.9463571 22.0309907 36.5637857 13.8281589"></polygon>
                    <polygon id="Shape" fill="#AE2338" points="8.6025 41.8228131 16.9463571 22.0309907 2.08135714 27.0232804"></polygon>
                    <polygon id="Shape" fill="url(#linearGradient-3)" points="8.6025 41.8228131 16.836 61.9450187 1.91678571 57.1223271"></polygon>
                    <polygon id="Shape" fill="#8A2034" points="16.7524286 90.1595701 16.836 61.9450187 1.91678571 57.1223271"></polygon>
                    <polygon id="Shape" fill="#8C2033" points="16.7524286 90.1595701 1.91678571 90.1630093 1.91678571 57.1223271"></polygon>
                    <polygon id="Shape" fill="url(#linearGradient-4)" points="16.7524286 90.1595701 16.836 61.9450187 36.5282143 70.0730467"></polygon>
                    <polygon id="Shape" fill="url(#linearGradient-5)" points="56.2354286 2.0768785 56.4559286 22.1436262 36.5637857 13.8281589"></polygon>
                    <polygon id="Shape" fill="url(#linearGradient-6)" points="56.2354286 2.0768785 56.4559286 22.1436262 70.2739286 27.0785234"></polygon>
                    <polygon id="Shape" fill="url(#linearGradient-7)" points="64.5662143 42.0566822 56.4559286 22.1436262 70.2739286 27.0785234"></polygon>
                    <polygon id="Shape" fill="url(#linearGradient-8)" points="64.5662143 42.0566822 56.4027857 61.8592523 70.2454286 56.9011402"></polygon>
                    <polygon id="Shape" fill="url(#linearGradient-9)" points="56.5665 90.1058318 56.4027857 61.8592523 70.2454286 56.9011402"></polygon>
                    <polygon id="Shape" fill="url(#linearGradient-10)" points="56.5665 90.1058318 56.4027857 61.8592523 36.5415 70.0659533"></polygon>
                    <polygon id="Shape" fill="url(#linearGradient-11)" points="56.5665 90.1058318 16.7586429 90.1630093 36.5415 70.0659533"></polygon>
                    <path d="M38.5797857,47.982514 L43.0564286,50.0402617 L42.6010714,46.8400374 L38.5174286,44.6376262 L38.5797857,47.982514 L38.5797857,47.982514 Z M4.62407143,58.7020187 L10.4539286,59.3679439 L11.7252857,53.9330654 L6.14357143,52.9389065 L4.62407143,58.7020187 L4.62407143,58.7020187 Z M25.3596429,21.0637009 L21.5475,18.2347009 L18.8946429,21.8525794 L23.0802857,24.4726449 L25.3596429,21.0637009 L25.3596429,21.0637009 Z M37.0467857,11.5417009 L34.6022143,8.34147664 L31.1629286,10.3779439 L34.0221429,13.4977757 L37.0467857,11.5417009 L37.0467857,11.5417009 Z M49.6448571,9.29651402 L48.8584286,6.6801028 L44.7145714,6.34628037 L45.9156429,9.21440187 L49.6448571,9.29651402 L49.6448571,9.29651402 Z M63.6550714,12.5822897 L60.1746429,10.0871121 L60.1746429,11.7078598 L63.5303571,13.7890374 L63.6550714,12.5822897 L63.6550714,12.5822897 Z M16.6146429,35.8223925 L11.8489286,33.7429346 L10.2323571,38.4815794 L15.1236429,40.3110467 L16.6146429,35.8223925 L16.6146429,35.8223925 Z M40.3431429,33.6788785 L39.4926429,36.611486 L42.5599286,39.440271 L43.3266429,36.7148785 L40.3431429,33.6788785 L40.3431429,33.6788785 Z M59.9254286,20.5658692 L62.4735,20.690757 L62.4949286,19.504 L59.8418571,18.9631776 L59.9254286,20.5658692 L59.9254286,20.5658692 Z M49.3283571,10.6707103 C37.0688571,10.0727103 15.1234286,21.7276916 11.9723571,68.4843271 L42.033,68.4843271 C35.2924286,50.968215 36.0743571,37.7515981 40.7091429,28.7953551 C47.4490714,15.7696168 57.4808571,14.9076542 66.8470714,20.3977757 C67.1781429,19.6088972 67.6335,18.6093645 67.6335,18.6093645 C62.2885714,13.455 57.285,11.0580561 49.3283571,10.6707103 L49.3283571,10.6707103 Z M50.2285714,20.3764953 L51.3460714,23.0571776 L53.4186429,21.9364112 L52.6519286,19.462514 L50.2285714,20.3764953 L50.2285714,20.3764953 Z M43.4301429,26.4663364 L45.7095,29.6076636 L47.1186429,27.5497009 L45.1294286,24.4513645 L43.4301429,26.4663364 L43.4301429,26.4663364 Z M46.9118571,63.0124766 L45.5027143,59.5820374 L40.3005,58.6057196 L41.6704286,62.5535514 L46.9118571,63.0124766 L46.9118571,63.0124766 Z" id="Shape" fill="#F7DEE1"></path>
                    <g id="Group" transform="translate(19.500000, 10.747664)" fill="#FFFFFF">
                        <path d="M0.0664285714,10.1928692 L3.66128571,8.68647664 L2.0475,7.48703738 L0.0664285714,10.1928692 Z M14.5221429,2.75011215 L15.4765714,2.13276636 L12.1103571,0.119514019 L14.5221429,2.75011215 Z" id="Shape"></path>
                    </g>
                    <g id="Group" transform="translate(4.714286, 52.878505)" fill="#D7C4C9">
                        <path d="M1.42907143,0.0601869159 L0.0803571429,5.17371028 L3.27878571,6.20720561 L5.73964286,6.4892243 L7.01078571,1.05434579 L1.42907143,0.0601869159 Z M8.95907143,1.33636449 C8.59714286,3.38014019 8.27764286,5.51290654 8.00357143,7.73509346 L12.1217143,9.06651402 L8.95907143,1.33636449 L8.95907143,1.33636449 Z" id="Shape"></path>
                    </g>
                    <g id="Group" transform="translate(4.500000, 58.037383)" fill="#C2C3C6">
                        <path d="M0.294642857,0.0148317757 L0.124071429,0.664635514 L3.49307143,1.0483271 L0.294642857,0.0148317757 Z M12.336,3.90763551 L8.21785714,2.57621495 C7.911,5.08385981 7.6575,7.70392523 7.47235714,10.4471589 L12.3165,10.4471589 L12.336,3.90763551 L12.336,3.90763551 Z" id="Shape"></path>
                    </g>
                    <polygon id="Shape" fill="#DDC3C8" points="16.8165 68.4845421 32.6813571 68.4845421 16.836 61.9450187"></polygon>
                    <path d="M61.1108571,10.7581963 L60.1746429,10.0871121 L60.1746429,11.7078598 L62.4276429,13.105271 L61.1108571,10.7581963 L61.1108571,10.7581963 Z M63.6282857,15.2434112 C61.3669286,13.638785 59.0181429,12.4911495 56.3438571,11.7398879 L56.4027857,17.2121682 C59.6837143,17.2158224 63.0662143,18.2740374 66.372,20.1303738 L63.6282857,15.2434112 L63.6282857,15.2434112 Z M59.9254286,20.5658692 L62.4735,20.690757 L62.4949286,19.504 L59.8418571,18.9631776 L59.9254286,20.5658692 L59.9254286,20.5658692 Z" id="Shape" fill="url(#linearGradient-12)"></path>
                    <path d="M56.3438571,11.7398879 C54.2462143,11.1474766 51.9492857,10.7958131 49.3285714,10.6707103 C45.7270714,10.4957383 41.2862143,11.3791963 36.7339286,13.8995234 L49.2147857,19.1183738 C51.5061429,17.8101682 53.9260714,17.208729 56.403,17.2121682 L56.3438571,11.7398879 L56.3438571,11.7398879 Z M49.6448571,9.29651402 L48.8584286,6.6801028 L48.5738571,6.65516822 L45.5901429,8.43627103 L45.9158571,9.21461682 L49.6448571,9.29651402 L49.6448571,9.29651402 Z M51.2800714,19.9784019 L53.04,20.7156916 L52.6519286,19.462729 L51.2800714,19.9784019 L51.2800714,19.9784019 Z" id="Shape" fill="url(#linearGradient-13)"></path>
                    <path d="M17.1117857,79.0185421 L17.1117857,76.7944206 C17.1117857,75.6076636 15.9321429,73.4764019 13.7757857,73.4764019 L6.75128571,73.4764019 L6.75128571,86.8073738 L10.3435714,86.8073738 L10.3435714,82.9253178 L13.2447857,86.8073738 L17.5549286,86.8073738 L14.1833571,82.3150654 C14.1831429,82.3150654 17.1117857,81.7351215 17.1117857,79.0185421 L17.1117857,79.0185421 Z M13.5765,79.6825327 L10.3150714,79.6825327 L10.3150714,76.9926075 L13.5765,76.9926075 L13.5765,79.6825327 L13.5765,79.6825327 Z M27.5295,73.4179346 L24.2680714,73.4179346 C22.6382143,73.4179346 20.9256429,74.9172336 20.9256429,76.8840561 L20.9256429,86.7486916 L24.4611429,86.7486916 L24.4611429,84.1464673 L27.639,84.1464673 L27.639,86.7486916 L31.2321429,86.7486916 L31.2321429,76.8571869 C31.2321429,74.9170187 29.4910714,73.4179346 27.5295,73.4179346 L27.5295,73.4179346 Z M27.639,80.5696449 L24.4611429,80.5696449 L24.4611429,76.9945421 L27.639,76.9945421 L27.639,80.5696449 L27.639,80.5696449 Z M60.5269286,78.2279439 L57.0662143,78.2279439 L57.0662143,76.7731402 L63.1373571,76.7731402 L63.1373571,73.4678037 L57.0447857,73.4678037 C54.9098571,73.4678037 53.4383571,75.1704486 53.4383571,76.8767477 L53.4383571,78.2902804 C53.4383571,80.348028 55.2835714,81.7830561 57.0042857,81.7830561 L60.2155714,81.7830561 L60.2155714,83.4038037 L53.6680714,83.4038037 L53.6680714,86.769972 L60.1317857,86.769972 C62.0590714,86.769972 63.801,85.3151682 63.801,83.5501869 L63.801,81.7830561 C63.801,79.639757 62.1019286,78.2279439 60.5269286,78.2279439 L60.5269286,78.2279439 Z M46.0401429,73.4465234 L42.4778571,73.4465234 L42.4778571,86.7916822 L51.3672857,86.7916822 L51.3672857,83.2146449 L46.0399286,83.2146449 L46.0399286,73.4465234 L46.0401429,73.4465234 Z M35.0584286,86.7916822 L38.6224286,86.7916822 L38.6224286,73.4465234 L35.0584286,73.4465234 L35.0584286,86.7916822 L35.0584286,86.7916822 Z" id="Shape" fill="#FFFFFF"></path>
                </g>
            </g>
        </g>
    </g>
</svg>