<?xml version="1.0" encoding="UTF-8" standalone="no"?><svg width="304" height="215" viewBox="0 0 304 215" xmlns="http://www.w3.org/2000/svg" xmlns:xlink="http://www.w3.org/1999/xlink"><view id="design" viewBox="184 112 58 68"/><svg width="58" height="68" viewBox="-10 -10 58 68" x="184" y="112"><title>Group</title><g fill="#74936F" fill-rule="evenodd"><path d="M37 48H23a1 1 0 0 1-1-1V1a1 1 0 0 1 1-1h14a1 1 0 0 1 1 1v46a1 1 0 0 1-1 1zm-13-2h12V2H24v44z"/><path d="M23 8h5v2h-5zM23 14h5v2h-5zM23 20h5v2h-5zM23 26h5v2h-5zM23 32h5v2h-5zM23 38h5v2h-5zM9 46H5c-2.757 0-5-2.243-5-5V12c0-.197.059-.391.168-.555l6-9c.371-.557 1.293-.557 1.664 0l6 9c.109.164.168.358.168.555v29c0 2.757-2.243 5-5 5zM2 12.303V41c0 1.654 1.346 3 3 3h4c1.654 0 3-1.346 3-3V12.303l-5-7.5-5 7.5z"/><path d="M13 40H1a1 1 0 1 1 0-2h12a1 1 0 1 1 0 2zM13 36H1a1 1 0 1 1 0-2h12a1 1 0 1 1 0 2z"/><path d="M5 36a1 1 0 0 1-1-1V16a1 1 0 1 1 2 0v19a1 1 0 0 1-1 1zM9 36a1 1 0 0 1-1-1V16a1 1 0 1 1 2 0v19a1 1 0 0 1-1 1zM4 7h6v2H4z"/><path d="M4 17c-2.206 0-4-1.794-4-4a1 1 0 1 1 2 0c0 1.103.897 2 2 2s2-.897 2-2a1 1 0 1 1 2 0c0 2.206-1.794 4-4 4z"/><path d="M10 17c-2.206 0-4-1.794-4-4a1 1 0 1 1 2 0c0 1.103.897 2 2 2s2-.897 2-2a1 1 0 1 1 2 0c0 2.206-1.794 4-4 4z"/></g></svg><view id="development" viewBox="242 112 60 64"/><svg width="60" height="64" viewBox="-10 -10 60 64" x="242" y="112"><title>Combined Shape</title><path d="M0 26V9c0-5.047 8.785-9 20-9s20 3.953 20 9v26c0 5.047-8.785 9-20 9S0 40.047 0 35v-9zm2 3.988C5.214 32.982 11.987 35 20 35s14.786-2.018 18-5.012V35c0 4.125-9.486 7-18 7S2 39.125 2 35v-5.012zm36-9C34.786 23.982 28.013 26 20 26S5.214 23.982 2 20.988V26c0 4.125 9.486 7 18 7s18-2.875 18-7v-5.012zm-36-8C5.214 15.982 11.987 18 20 18s14.786-2.018 18-5.012V17c0 4.125-9.486 7-18 7S2 21.125 2 17v-4.012zM20 2C11.486 2 2 4.875 2 9s9.486 7 18 7 18-2.875 18-7-9.486-7-18-7z" fill="#74936F" fill-rule="evenodd"/></svg><view id="nodejs" viewBox="92 0 103 111"/><svg width="103" height="111" viewBox="-10 -10 103 111" x="92"><title>Group</title><g fill="#8CC84B" fill-rule="evenodd"><path d="M37.755.97c2.268-1.29 5.222-1.297 7.488 0 11.4 6.41 22.803 12.808 34.2 19.22 2.145 1.202 3.578 3.576 3.557 6.034V64.78c.015 2.56-1.56 4.99-3.822 6.164C67.816 77.32 56.46 83.7 45.1 90.073c-2.315 1.317-5.328 1.216-7.57-.21-3.406-1.964-6.819-3.919-10.225-5.881-.697-.413-1.481-.742-1.973-1.413.435-.583 1.211-.656 1.843-.91 1.422-.45 2.728-1.172 4.034-1.873.33-.225.733-.139 1.05.063 2.913 1.661 5.8 3.371 8.723 5.017.623.358 1.255-.117 1.788-.413 11.15-6.27 22.313-12.516 33.461-18.787a1.1 1.1 0 0 0 .608-1.084c.008-12.72.002-25.441.004-38.16.047-.511-.25-.981-.714-1.19-11.323-6.344-22.64-12.698-33.961-19.044a1.185 1.185 0 0 0-1.334-.002c-11.32 6.348-22.636 12.707-33.957 19.052-.462.209-.773.67-.718 1.183.002 12.72 0 25.441 0 38.163-.039.45.205.876.616 1.07 3.021 1.704 6.046 3.397 9.069 5.096 1.703.911 3.794 1.454 5.67.755 1.656-.591 2.817-2.272 2.785-4.021.016-12.645-.008-25.292.012-37.936-.041-.561.494-1.025 1.042-.972 1.452-.01 2.905-.02 4.357.004.606-.014 1.023.59.948 1.156-.006 12.726.016 25.45-.01 38.176.004 3.391-1.396 7.082-4.55 8.741-3.884 2.002-8.685 1.578-12.522-.342-3.322-1.65-6.492-3.597-9.755-5.364C1.552 69.78-.015 67.34 0 64.781V26.224c-.023-2.509 1.468-4.926 3.678-6.11C15.038 13.736 26.397 7.353 37.755.972z"/><path d="M47.628 28.126c4.917-.318 10.182-.188 14.608 2.244 3.426 1.864 5.325 5.776 5.386 9.598-.096.516-.633.8-1.123.764-1.427-.002-2.854.02-4.28-.01-.606.024-.957-.536-1.034-1.073-.41-1.83-1.403-3.64-3.117-4.522-2.632-1.323-5.683-1.257-8.552-1.23-2.095.113-4.348.295-6.122 1.532-1.363.937-1.777 2.828-1.29 4.35.458 1.095 1.715 1.447 2.744 1.773 5.927 1.556 12.207 1.401 18.02 3.45 2.407.834 4.761 2.457 5.585 4.988 1.078 3.39.605 7.444-1.798 10.166-1.948 2.24-4.786 3.46-7.617 4.122-3.766.843-7.674.864-11.498.49-3.596-.412-7.338-1.36-10.114-3.82-2.374-2.07-3.533-5.294-3.418-8.407.027-.525.548-.891 1.05-.848 1.437-.012 2.874-.016 4.31.002.574-.041 1 .456 1.03 1 .265 1.742.917 3.57 2.43 4.603 2.92 1.892 6.584 1.762 9.928 1.815 2.77-.123 5.88-.16 8.14-1.999 1.193-1.048 1.547-2.803 1.224-4.312-.349-1.274-1.676-1.868-2.816-2.256-5.851-1.858-12.201-1.184-17.995-3.285-2.353-.835-4.627-2.413-5.53-4.839-1.262-3.434-.684-7.681 1.971-10.312 2.589-2.616 6.325-3.624 9.878-3.984z"/></g></svg><view id="react" viewBox="92 112 92 84"/><svg width="92" height="84" viewBox="-10 -10 92 84" x="92" y="112"><title>react</title><g fill="none" fill-rule="evenodd"><path fill="none" d="M0 0h72v64H0z" fill-opacity="0"/><g transform="translate(.379 .627)" fill="#00D8FF"><path d="M41.898 31.326c0 3.477-2.837 6.295-6.336 6.295-3.5 0-6.337-2.818-6.337-6.295s2.837-6.296 6.337-6.296c3.5 0 6.336 2.819 6.336 6.296z"/><path d="M35.562 20.032c8.187 0 15.965 1.147 21.878 3.169 6.566 2.246 10.572 5.566 10.572 8.125 0 2.725-4.326 6.263-11.35 8.575-5.592 1.841-13.074 2.844-21.1 2.844-8.432 0-15.998-.983-21.526-2.86-3.46-1.175-6.318-2.702-8.276-4.369-1.76-1.497-2.65-2.984-2.65-4.19 0-2.567 3.853-5.842 10.279-8.067 5.915-2.049 13.883-3.227 22.173-3.227zm0-3.012c-8.612 0-16.914 1.228-23.171 3.395C4.877 23.017.079 27.095.079 31.325c0 4.37 5.151 8.752 12.977 11.41 5.882 1.997 13.766 3.022 22.506 3.022 8.328 0 16.125-1.045 22.053-2.997 8.136-2.677 13.429-7.006 13.429-11.434 0-4.246-4.953-8.352-12.618-10.973-6.25-2.138-14.358-3.333-22.864-3.333z"/><path d="M25.659 25.715c4.09-7.046 8.975-13.167 13.693-17.245 5.239-4.53 10.135-6.318 12.366-5.04 2.377 1.361 3.3 6.852 1.808 14.052-1.189 5.732-4.052 12.673-8.062 19.58-4.212 7.257-8.85 13.277-13.247 17.096-2.754 2.391-5.513 4.087-7.944 4.94-2.185.767-3.926.79-4.978.187-2.238-1.283-3.169-6.234-1.9-12.876 1.17-6.114 4.122-13.56 8.264-20.694zm-2.626-1.505c-4.303 7.412-7.38 15.17-8.616 21.638-1.484 7.765-.325 13.932 3.364 16.046 3.81 2.182 10.204-.061 16.43-5.468 4.681-4.065 9.514-10.338 13.88-17.86 4.16-7.167 7.144-14.4 8.404-20.476 1.73-8.34.599-15.057-3.262-17.27C49.53-1.3 43.476.912 37.36 6.199 32.375 10.509 27.282 16.89 23.033 24.21z"/><path d="M17.468 16.68c-1.334-6.77-.448-11.879 1.78-13.16 2.375-1.366 7.625.58 13.158 5.462 4.405 3.886 9.028 9.816 13.049 16.717 4.224 7.249 7.158 14.247 8.292 19.94.71 3.564.812 6.786.342 9.305-.423 2.263-1.273 3.772-2.324 4.377-2.236 1.286-7.019-.386-12.177-4.795-4.748-4.06-9.766-10.32-13.92-17.447-4.102-7.04-7-14.301-8.2-20.398zm-2.975.579c1.269 6.444 4.29 14.015 8.552 21.329 4.314 7.404 9.543 13.926 14.566 18.22 6.031 5.156 11.988 7.239 15.673 5.12 3.806-2.19 5.043-8.814 3.437-16.874-1.207-6.058-4.264-13.35-8.643-20.864-4.172-7.161-8.99-13.34-13.66-17.46C28.01 1.077 21.588-1.305 17.73.913c-3.699 2.127-4.794 8.443-3.237 16.346z"/></g></g></svg><view id="redux" viewBox="195 0 109 104"/><svg width="109" height="104" viewBox="-10 -10 109 104" x="195"><title>Shape</title><path d="M61.668 58.665a6.318 6.318 0 0 0 5.662-6.531c-.113-3.378-2.944-6.08-6.342-6.08h-.226a6.315 6.315 0 0 0-6.116 6.53c.113 1.69.793 3.153 1.812 4.167-3.85 7.544-9.74 13.061-18.574 17.678-6.003 3.153-12.232 4.279-18.461 3.49-5.097-.675-9.06-2.927-11.552-6.643-3.624-5.517-3.964-11.485-.906-17.453 2.152-4.279 5.55-7.432 7.701-9.008-.453-1.464-1.132-3.941-1.472-5.743C-3.228 50.895-1.53 66.885 3.454 74.43c3.737 5.63 11.326 9.12 19.706 9.12 2.266 0 4.53-.225 6.796-.788 14.497-2.815 25.483-11.372 31.712-24.096zM81.6 44.702c-8.608-10.021-21.292-15.538-35.79-15.538H44c-1.02-2.027-3.172-3.378-5.55-3.378h-.226a6.315 6.315 0 0 0-6.116 6.53c.113 3.378 2.944 6.08 6.342 6.08h.227c2.491-.112 4.643-1.688 5.55-3.828h2.038c8.607 0 16.762 2.478 24.123 7.32 5.663 3.715 9.74 8.557 12.005 14.412 1.926 4.73 1.813 9.346-.226 13.287-3.171 5.968-8.494 9.233-15.516 9.233-4.53 0-8.834-1.35-11.1-2.364-1.245 1.126-3.51 2.927-5.096 4.053C55.325 82.761 60.31 84 65.065 84c10.873 0 18.914-5.968 21.972-11.936 3.284-6.53 3.058-17.79-5.436-27.362zM24.067 60.58c.113 3.378 2.944 6.08 6.342 6.08h.226a6.315 6.315 0 0 0 6.116-6.53c-.113-3.378-2.944-6.08-6.342-6.08h-.227c-.226 0-.566 0-.792.112-4.644-7.657-6.57-15.99-5.89-24.997.453-6.756 2.718-12.612 6.682-17.454 3.285-4.166 9.627-6.193 13.93-6.305C56.119 5.18 61.216 20.043 61.555 26.01c1.473.338 3.964 1.126 5.663 1.689C65.858 9.458 54.532 0 43.66 0 33.467 0 24.067 7.319 20.33 18.129c-5.21 14.413-1.813 28.262 4.53 39.185-.567.788-.907 2.026-.793 3.265z" fill="#764ABC" fill-rule="evenodd"/></svg><view id="ruby-on-rails" viewBox="0 0 92 112"/><svg width="92" height="112" viewBox="-10 -10 92 112"><title>logo-rails</title><defs><linearGradient x1="0%" y1="50%" y2="50%" id="fa"><stop stop-color="#AA2237" offset="8%"/><stop stop-color="#B4313D" offset="98.2%"/></linearGradient><linearGradient x1="0%" y1="49.999%" y2="49.999%" id="fb"><stop stop-color="#B83A41" offset="3.7%"/><stop stop-color="#BF4A50" offset="89.6%"/></linearGradient><linearGradient x1="49.999%" y1="100%" x2="49.999%" y2=".001%" id="fc"><stop stop-color="#A92237" offset="3.7%"/><stop stop-color="#972235" offset="93.9%"/></linearGradient><linearGradient x1="50.001%" y1="100%" x2="50.001%" y2="0%" id="fd"><stop stop-color="#BC4245" offset="3.7%"/><stop stop-color="#A42136" offset="93.9%"/></linearGradient><linearGradient x1="50%" y1="100%" x2="50%" y2="0%" id="fe"><stop stop-color="#CC5057" offset="3.7%"/><stop stop-color="#B73840" offset="89.6%"/></linearGradient><linearGradient x1="-9.587%" y1="69.376%" x2="50.938%" y2="49.694%" id="ff"><stop stop-color="#D4575F" offset="8%"/><stop stop-color="#B63540" offset="94.5%"/></linearGradient><linearGradient x1="0%" y1="49.999%" y2="49.999%" id="fg"><stop stop-color="#C04B51" offset="0%"/><stop stop-color="#B83A41" offset="100%"/></linearGradient><linearGradient x1="0%" y1="50.001%" x2="100.002%" y2="50.001%" id="fh"><stop stop-color="#BA4044" offset="0%"/><stop stop-color="#B4303C" offset="100%"/></linearGradient><linearGradient x1="-21.034%" y1="39.098%" x2="55.793%" y2="50.792%" id="fi"><stop stop-color="#972136" offset="0%"/><stop stop-color="#9F2236" offset="100%"/></linearGradient><linearGradient x1="39.16%" y1="5.687%" x2="129.602%" y2="82.337%" id="fj"><stop stop-color="#B22C3A" offset="3.7%"/><stop stop-color="#C04D53" offset="93.9%"/></linearGradient><linearGradient x1="50%" y1="100%" x2="50%" y2="0%" id="fk"><stop stop-color="#B22C3A" offset="3.7%"/><stop stop-color="#9B2135" offset="93.9%"/></linearGradient><linearGradient x1="0%" y1="50%" y2="50%" id="fl"><stop stop-color="#FFF" offset="3.7%"/><stop stop-color="#F4E6D9" offset="74.2%"/></linearGradient><linearGradient x1="15.627%" y1="13.539%" x2="97.897%" y2="80.192%" id="fm"><stop stop-color="#FFF" offset="3.7%"/><stop stop-color="#F4E6D9" offset="89.6%"/></linearGradient></defs><g fill="none" fill-rule="evenodd"><path d="M71.986 81.617c0 5.73-4.63 10.372-10.338 10.372H.037V10.564C.037 4.836 4.666.192 10.375.192h61.61v81.425z" fill="#80152A"/><path d="M70.327 80.643c0 5.513-4.126 9.654-9.626 9.654H1.695V11.54c0-5.515 4.126-9.654 9.626-9.654h59.006v78.757z" fill="url(#fa)"/><path fill="#8A2034" d="M16.725 1.966l.221 20.065-14.865 4.992z"/><path fill="url(#fb)" d="M16.725 1.966l.221 20.065 19.618-8.203z"/><path fill="#AE2338" d="M8.602 41.823l8.344-19.792-14.865 4.992z"/><path fill="url(#fc)" d="M8.602 41.823l8.234 20.122-14.92-4.823z"/><path fill="#8A2034" d="M16.752 90.16l.084-28.215-14.92-4.823z"/><path fill="#8C2033" d="M16.752 90.16l-14.835.003v-33.04z"/><path fill="url(#fd)" d="M16.752 90.16l.084-28.215 19.692 8.128z"/><path fill="url(#fe)" d="M56.235 2.077l.22 20.067-19.891-8.316z"/><path fill="url(#ff)" d="M56.235 2.077l.22 20.067 13.819 4.935z"/><path fill="url(#fg)" d="M64.566 42.057l-8.11-19.913 13.818 4.935z"/><path fill="url(#fh)" d="M64.566 42.057l-8.163 19.802 13.842-4.958z"/><path fill="url(#fi)" d="M56.566 90.106l-.163-28.247 13.842-4.958z"/><path fill="url(#fj)" d="M56.566 90.106l-.163-28.247-19.861 8.207z"/><path fill="url(#fk)" d="M56.566 90.106l-39.807.057L36.54 70.066z"/><path d="M38.58 47.983l4.476 2.057-.455-3.2-4.084-2.202.063 3.345zM4.624 58.702l5.83.666 1.271-5.435-5.581-.994-1.52 5.763zM25.36 21.064l-3.813-2.83-2.652 3.619 4.185 2.62 2.28-3.41zm11.687-9.522l-2.445-3.2-3.44 2.036 2.86 3.12 3.025-1.956zm12.598-2.245l-.787-2.617-4.143-.334 1.2 2.868 3.73.083zm14.01 3.285l-3.48-2.495v1.62l3.355 2.082.125-1.207zm-47.04 23.24l-4.766-2.08-1.617 4.74 4.892 1.829 1.49-4.489zm23.728-2.143l-.85 2.932 3.067 2.83.767-2.726-2.984-3.036zm19.582-13.113l2.549.125.02-1.187-2.652-.54.083 1.602zM49.328 10.67c-12.26-.598-34.205 11.057-37.356 57.813h30.061c-6.74-17.516-5.959-30.732-1.324-39.689 6.74-13.025 16.772-13.887 26.138-8.397.331-.79.787-1.789.787-1.789-5.345-5.154-10.349-7.55-18.306-7.938zm.9 9.705l1.118 2.681 2.073-1.12-.767-2.474-2.423.913zm-6.798 6.09l2.28 3.142 1.409-2.058-1.99-3.099-1.699 2.015zm3.482 36.546l-1.41-3.43-5.202-.976 1.37 3.948 5.242.458z" fill="#F7DEE1"/><path d="M19.566 20.94l3.595-1.506-1.614-1.2-1.98 2.707zm14.456-7.442l.955-.618-3.367-2.013 2.412 2.63z" fill="#FFF"/><path d="M6.143 52.939l-1.348 5.113 3.198 1.034 2.46.282 1.272-5.435-5.582-.994zm7.53 1.276a123.183 123.183 0 0 0-.955 6.399l4.118 1.331-3.163-7.73z" fill="#D7C4C9"/><path d="M4.795 58.052l-.17.65 3.368.384-3.198-1.034zm12.041 3.893l-4.118-1.331c-.307 2.507-.56 5.127-.746 7.87h4.845l.019-6.539z" fill="#C2C3C6"/><path fill="#DDC3C8" d="M16.817 68.485H32.68l-15.845-6.54z"/><path d="M61.11 10.758l-.935-.67v1.62l2.253 1.397-1.317-2.347zm2.518 4.485c-2.261-1.604-4.61-2.752-7.284-3.503l.059 5.472c3.28.004 6.663 1.062 9.969 2.918l-2.744-4.887zm-3.703 5.323l2.549.125.02-1.187-2.652-.54.083 1.602z" fill="url(#fl)"/><path d="M56.344 11.74c-2.098-.593-4.395-.944-7.015-1.07-3.602-.174-8.043.71-12.595 3.23l12.48 5.218a14.258 14.258 0 0 1 7.189-1.906l-.06-5.472zm-6.7-2.443l-.786-2.617-.284-.025-2.984 1.781.326.779 3.729.082zm1.636 10.681l1.76.738-.388-1.253-1.372.515z" fill="url(#fm)"/><path d="M17.112 79.019v-2.225c0-1.186-1.18-3.318-3.336-3.318H6.75v13.331h3.593v-3.882l2.9 3.882h4.31l-3.37-4.492s2.928-.58 2.928-3.296zm-3.535.664h-3.262v-2.69h3.261v2.69zm13.952-6.265h-3.26c-1.63 0-3.343 1.5-3.343 3.466v9.865h3.535v-2.603h3.178v2.603h3.593v-9.892c0-1.94-1.74-3.44-3.703-3.44zm.11 7.152h-3.178v-3.575h3.178v3.575zm32.888-2.342h-3.46v-1.455h6.07v-3.305h-6.092c-2.135 0-3.607 1.702-3.607 3.409v1.413c0 2.058 1.846 3.493 3.566 3.493h3.212v1.62h-6.548v3.367h6.464c1.927 0 3.669-1.455 3.669-3.22v-1.767c0-2.143-1.7-3.555-3.274-3.555zM46.04 73.447h-3.562v13.345h8.89v-3.577H46.04v-9.768zM35.058 86.792h3.564V73.447h-3.564v13.345z" fill="#FFF"/></g></svg><view id="webpack" viewBox="0 112 92 103"/><svg width="92" height="103" viewBox="-10 -10 92 103" y="112"><title>webpack</title><g fill="none" fill-rule="evenodd"><path fill="#A2BDE9" d="M36.01.128L.083 20.833v41.41l35.925 20.705 35.926-20.705v-41.41z"/><path fill="#6F95DB" d="M36.01 21.13L18.193 31.398v20.536L36.01 62.202l17.816-10.268V31.398z"/><path d="M36 0L0 20.846l36 19.567 36-19.44zM36 43.099L0 62.154l36 20.718 35.872-20.846z" opacity=".059" fill="#FFF"/></g></svg></svg>