<?xml version="1.0" encoding="UTF-8"?>
<svg width="16px" height="12px" viewBox="0 0 16 12" version="1.1" xmlns="http://www.w3.org/2000/svg" xmlns:xlink="http://www.w3.org/1999/xlink">
    <title>brackets</title>
    <g id="Page-1" stroke="none" stroke-width="1" fill="none" fill-rule="evenodd">
        <g id="brackets" fill="#767B93" fill-rule="nonzero">
            <path d="M5.77823236,0 L3.33428795,0 C2.47535408,0 1.7790506,0.671572875 1.7790506,1.5 L1.7790506,3.575625 C1.77906135,3.85985512 1.66197526,4.13244216 1.45356164,4.33339286 L0.196041158,5.54464286 C0.0705416006,5.66526549 0,5.82911691 0,6 C0,6.17088309 0.0705416006,6.33473451 0.196041158,6.45535714 L1.45245076,7.66714286 C1.66120377,7.86785237 1.77869319,8.14035167 1.7790506,8.42464286 L1.7790506,10.5 C1.7790506,11.3284271 2.47535408,12 3.33428795,12 L5.77823236,12 C6.02364204,12 6.22258589,11.808122 6.22258589,11.5714286 L6.22258589,11.1428571 C6.22258589,10.9061637 6.02364204,10.7142857 5.77823236,10.7142857 L3.33428795,10.7142857 C3.21158311,10.7142857 3.11211119,10.6183467 3.11211119,10.5 L3.11211119,8.42464286 C3.11199601,7.79936852 2.85447425,7.19972218 2.39614657,6.7575 L1.61047398,6 L2.39614657,5.2425 C2.85447425,4.80027782 3.11199601,4.20063148 3.11211119,3.57535714 L3.11211119,1.5 C3.11211119,1.38165327 3.21158311,1.28571429 3.33428795,1.28571429 L5.77823236,1.28571429 C6.02364204,1.28571429 6.22258589,1.09383632 6.22258589,0.857142857 L6.22258589,0.428571429 C6.22258589,0.191877964 6.02364204,0 5.77823236,0 Z M15.8039588,5.54464286 L14.5472715,4.33285714 C14.3388011,4.13198702 14.2214464,3.85956867 14.2209494,3.57535714 L14.2209494,1.5 C14.2209494,0.671572875 13.5246459,0 12.665712,0 L10.2217676,0 C9.97635796,0 9.77741411,0.191877964 9.77741411,0.428571429 L9.77741411,0.857142857 C9.77741411,1.09383632 9.97635796,1.28571429 10.2217676,1.28571429 L12.665712,1.28571429 C12.7884169,1.28571429 12.8878888,1.38165327 12.8878888,1.5 L12.8878888,3.57535714 C12.887821,4.20066659 13.1453706,4.8003778 13.6038534,5.2425 L14.3892483,6 L13.6038534,6.7575 C13.1453706,7.1996222 12.887821,7.79933341 12.8878888,8.42464286 L12.8878888,10.5 C12.8878888,10.6183467 12.7884169,10.7142857 12.665712,10.7142857 L10.2217676,10.7142857 C9.97635796,10.7142857 9.77741411,10.9061637 9.77741411,11.1428571 L9.77741411,11.5714286 C9.77741411,11.808122 9.97635796,12 10.2217676,12 L12.665712,12 C13.5246459,12 14.2209494,11.3284271 14.2209494,10.5 L14.2209494,8.424375 C14.2209387,8.14014488 14.3380247,7.86755784 14.5464384,7.66660714 L15.8039588,6.45535714 C15.9294584,6.33473451 16,6.17088309 16,6 C16,5.82911691 15.9294584,5.66526549 15.8039588,5.54464286 Z" id="Icon"></path>
        </g>
    </g>
</svg>