<?xml version="1.0" encoding="UTF-8"?>
<svg width="16px" height="13px" viewBox="0 0 16 13" version="1.1" xmlns="http://www.w3.org/2000/svg" xmlns:xlink="http://www.w3.org/1999/xlink">
    <title>journey-2</title>
    <g id="Page-1" stroke="none" stroke-width="1" fill="none" fill-rule="evenodd">
        <g id="journey-2" fill="#767B93" fill-rule="nonzero">
            <path d="M2.6,6.90625 L7.4,6.90625 L7.4,8.125 L8.6,8.125 L8.6,6.90625 L13.4,6.90625 L13.4,8.125 L14.6,8.125 L14.6,6.66275391 C14.6,6.12523437 14.1695,5.6875 13.63975,5.6875 L8.6,5.6875 L8.6,4.0625 L9.6,4.0625 C10.04175,4.0625 10.4,3.69865234 10.4,3.25 L10.4,0.8125 C10.4,0.363847656 10.04175,0 9.6,0 L6.4,0 C5.95825,0 5.6,0.363847656 5.6,0.8125 L5.6,3.25 C5.6,3.47445313 5.6895,3.67757813 5.83425,3.82458984 C5.979,3.97160156 6.179,4.0625 6.4,4.0625 L7.4,4.0625 L7.4,5.6875 L2.36025,5.6875 C1.8305,5.6875 1.4,6.12498047 1.4,6.66275391 L1.4,8.125 L2.6,8.125 L2.6,6.90625 Z M6.8,2.84375 L6.8,1.21875 L9.2,1.21875 L9.2,2.84375 L6.8,2.84375 Z M15.2,8.9375 L12.8,8.9375 C12.35825,8.9375 12,9.30134766 12,9.75 L12,12.1875 C12,12.6361523 12.35825,13 12.8,13 L15.2,13 C15.64175,13 16,12.6361523 16,12.1875 L16,9.75 C16,9.30134766 15.64175,8.9375 15.2,8.9375 Z M14.8,11.78125 L13.2,11.78125 L13.2,10.15625 L14.8,10.15625 L14.8,11.78125 Z M9.2,8.9375 L6.8,8.9375 C6.35825,8.9375 6,9.30134766 6,9.75 L6,12.1875 C6,12.6361523 6.35825,13 6.8,13 L9.2,13 C9.64175,13 10,12.6361523 10,12.1875 L10,9.75 C10,9.30134766 9.64175,8.9375 9.2,8.9375 Z M8.8,11.78125 L7.2,11.78125 L7.2,10.15625 L8.8,10.15625 L8.8,11.78125 Z M3.2,8.9375 L0.8,8.9375 C0.35825,8.9375 0,9.30134766 0,9.75 L0,12.1875 C0,12.6361523 0.35825,13 0.8,13 L3.2,13 C3.64175,13 4,12.6361523 4,12.1875 L4,9.75 C4,9.30134766 3.64175,8.9375 3.2,8.9375 Z M2.8,11.78125 L1.2,11.78125 L1.2,10.15625 L2.8,10.15625 L2.8,11.78125 Z" id="Icon"></path>
        </g>
    </g>
</svg>