<?xml version="1.0" encoding="UTF-8"?>
<svg width="16px" height="16px" viewBox="0 0 16 16" version="1.1" xmlns="http://www.w3.org/2000/svg" xmlns:xlink="http://www.w3.org/1999/xlink">
    <title>pen-2</title>
    <g id="Page-1" stroke="none" stroke-width="1" fill="none" fill-rule="evenodd">
        <g id="pen-2" fill="#767B93" fill-rule="nonzero">
            <path d="M15.4334375,2.9875 L13.0125,0.5665625 C12.635,0.18875 12.14,0 11.645,0 C11.15,0 10.655,0.18875 10.2775,0.5665625 L7.3884375,3.455625 L4.26875,4.3371875 C3.63150815,4.5173038 3.12472614,5.00115132 2.9153125,5.629375 L0,14.375 L1.625,16 L10.370625,13.0846875 C10.9988487,12.8752739 11.4826962,12.3684919 11.6628125,11.73125 L12.544375,8.6115625 L15.4334375,5.7225 C16.18875,4.9671875 16.18875,3.7428125 15.4334375,2.9875 Z M10.219375,11.3234375 C10.174375,11.4828125 10.0534375,11.609375 9.89625,11.661875 L2.6196875,14.0871875 L5.856875,10.85 C6.0525,10.9434375 6.26875,11 6.5,11 C7.3284375,11 8,10.3284375 8,9.5 C8,8.6715625 7.3284375,8 6.5,8 C5.6715625,8 5,8.6715625 5,9.5 C5,9.73125 5.0565625,9.9475 5.15,10.143125 L1.9128125,13.3803125 L4.3384375,6.10375 C4.3909375,5.9465625 4.5171875,5.8259375 4.676875,5.780625 L7.7965625,4.8990625 L7.829375,4.8896875 L11.110625,8.1709375 L11.1015625,8.2034375 L10.219375,11.3234375 Z M14.3728125,4.661875 L12.0475,6.9871875 L9.0128125,3.9525 L11.338125,1.6271875 C11.4096875,1.555625 11.7028125,1.378125 11.951875,1.6271875 L14.3728125,4.048125 C14.5421875,4.2171875 14.5421875,4.4925 14.3728125,4.661875 L14.3728125,4.661875 Z" id="Icon"></path>
        </g>
    </g>
</svg>