<?xml version="1.0" encoding="UTF-8"?>
<svg width="91px" height="48px" viewBox="0 0 91 48" version="1.1" xmlns="http://www.w3.org/2000/svg" xmlns:xlink="http://www.w3.org/1999/xlink">
    <!-- Generator: Sketch 61 (89581) - https://sketch.com -->
    <title>Holiday extras</title>
    <desc>Created with Sketch.</desc>
    <g id="Symbols" stroke="none" stroke-width="1" fill="none" fill-rule="evenodd">
        <g id="Brands-/-Logos-/-Holiday-Extras" fill="#8C8CD9" fill-rule="nonzero">
            <path d="M27.9768782,31.8070034 C28.349063,31.8070034 28.5617401,31.914598 28.933925,32.2911793 C29.0934327,32.5063685 29.0934327,32.8829498 29.0934327,33.3671257 C29.0934327,33.9588962 28.9870943,34.4430721 28.8275864,35.08864 C28.7212479,35.1962346 28.7212479,35.5728159 28.4554016,36.0569918 C28.1895552,36.5411677 27.8705396,37.1329382 27.2325085,37.8861007 C26.6476465,38.4778712 26.3818002,38.9620471 26.3818002,39.3386284 C26.3818002,39.7152096 26.4881387,40.0917909 26.9666621,40.4145748 C27.9237089,41.4905212 29.0402635,42.5126703 29.9973103,43.4810221 C30.3694951,43.965198 30.4758337,44.3417793 30.5821723,44.7183605 L30.8480186,45.794307 C31.1138649,46.0632936 31.1138649,46.2784828 30.9543571,46.3860775 L30.9543571,47.4082266 C29.731464,47.13924 28.7744172,46.6550641 28.0300474,45.9556989 C25.9564461,44.0189954 24.6272144,42.8892516 24.148691,42.781657 C23.563829,43.7500088 22.553613,44.7183605 21.383889,46.0632936 C20.3205037,47.13924 19.6824725,47.8924025 19.6824725,47.9999971 L19.5520058,47.8699727 C19.3467826,47.6689367 18.9503726,47.2964937 18.4595794,46.9240507 C17.981056,46.5474695 17.7152097,46.0632936 17.7152097,45.6867123 C17.7152097,45.451349 17.7567482,45.2159857 17.8528059,44.9543542 L17.906,44.822 L17.9178434,44.8147892 C18.0294093,44.7362848 18.1311981,44.6625798 18.2230161,44.5964167 L18.3532409,44.5031713 C18.5659179,44.12659 18.7254258,43.8576034 18.8317642,43.7500088 C18.8925291,43.6577848 18.9185712,43.5304278 18.9098905,43.3779759 L18.897,43.266 L18.9860615,43.1682445 C19.0375294,43.1130484 19.0922937,43.0560233 19.1507799,42.9968462 C20.2141652,41.7595078 20.9585349,41.0601427 21.0648735,40.5221694 C21.3307198,40.0379935 21.4370583,39.6614123 21.4370583,39.284831 C21.4370583,38.9082498 21.3307198,38.4240739 21.171212,37.939898 C21.171212,37.8323033 20.9053657,37.4557221 20.7990272,37.0791408 C20.5331808,36.5949649 20.0546574,35.8418025 19.4697955,35.1424373 C18.8849335,34.3892748 18.6190872,33.7975042 18.6190872,33.3133283 L18.6190872,32.8291524 C18.7254258,32.7215578 18.7254258,32.4525712 18.8849335,32.2373819 C18.9912721,31.8608007 19.2571184,31.753206 19.6293033,31.753206 C19.8951496,31.753206 20.2141652,32.0221927 20.4800116,32.2373819 C20.7458579,32.6139632 21.2243813,33.0981391 21.5433969,33.6899096 C21.9155817,34.1740855 22.1282588,34.765856 22.6067823,35.1424373 C23.0853056,35.6266132 23.563829,36.0031944 24.2018602,36.4873703 C24.6803836,35.5190185 25.1589071,34.6582614 25.4247534,34.0126935 C26.0096153,32.9367471 26.4881387,32.1835846 27.1261699,31.914598 C27.3920162,31.8070034 27.8705396,31.6456114 27.9768782,31.8070034 Z M69.5552449,32.2373819 C70.2996146,32.5063685 70.8844766,33.582315 71.1503229,35.0348426 C71.7351848,36.110789 71.7351848,37.2405328 71.7351848,38.2088846 C71.8415233,38.9620471 71.7351848,39.6614123 71.7351848,40.4145748 C71.8415233,42.620265 72.1073697,43.8576034 72.0010311,44.0727927 C72.0010311,44.1803873 72.1073697,44.3417793 72.1073697,44.4493739 C72.6922316,44.4493739 74.1809711,44.5569685 76.360911,44.8259552 C77.5838042,44.9335498 78.540851,44.9335498 79.1257129,44.9335498 C80.4549448,44.9335498 81.5714991,44.8259552 82.3690383,44.5569685 C83.4324238,44.1803873 84.4426398,43.5886168 85.1338397,42.8354542 L84.8679933,42.5664676 L84.2831318,42.5664676 C84.0172854,42.5664676 83.6982702,42.2974811 83.3260846,42.2974811 C82.8475615,42.1898864 82.4753767,42.0284945 82.1031919,42.0284945 C80.8802984,41.7595078 79.9232519,41.5443186 79.33839,41.1677373 C78.2750046,40.6835614 77.6369735,39.9303989 77.15845,39.0696418 C76.8926037,38.4778712 76.7862652,37.9936953 76.7862652,37.3481275 C76.7862652,36.0031944 77.5306349,34.765856 78.8598666,33.7975042 C80.2954368,32.8291524 81.7841759,32.3449766 83.3260846,32.3449766 C84.2831318,32.3449766 85.0275013,32.6139632 85.7718709,32.9367471 C86.3567333,33.420923 86.8352564,34.0126935 87.1011028,34.8734506 C85.3996861,35.1424373 84.1767934,35.2500319 83.3260846,35.3576265 C81.8905151,35.6266132 80.8802984,36.2183837 80.08276,37.0791408 C83.8577774,37.939898 85.8782101,38.4240739 86.1440565,38.5316686 C88.6961811,39.5000204 89.9190738,40.7373587 89.9190738,42.3512784 C90.4507666,42.781657 90.4507666,43.3196301 90.3444282,43.6424141 C90.0785818,44.7183605 89.2810427,45.5791177 88.05815,46.2246856 C86.8352564,46.8164561 84.6553166,47.300632 81.6246687,47.6772132 C80.5612832,47.7848079 79.8169134,47.7848079 79.0725436,47.9461998 L77.2647886,47.9461998 C76.0418954,47.9461998 75.0848486,47.8386051 74.2341404,47.6772132 C73.3834321,47.5158212 72.7985701,47.300632 72.4263853,46.8164561 C72.3200467,46.7088615 72.3200467,46.5474695 72.160539,46.3322802 L72.1600605,46.5601118 C72.1557537,47.2452207 72.1126866,47.9085417 71.6820156,47.5696186 C71.4161692,48.4303757 70.0869375,46.977848 69.7679219,46.3322802 C69.5020756,46.2246856 69.2893985,43.1582382 68.5450288,44.2341846 C68.5450288,44.2341846 68.5450288,44.3417793 68.4386902,44.3417793 C68.1728439,44.7183605 67.8538284,44.8259552 67.587982,44.9335498 C67.4816434,45.0411444 67.0031201,45.794307 65.5143806,46.6550641 C65.0358572,47.0316454 64.5573338,47.4082266 64.0788103,47.5158212 C63.9724719,47.6234159 63.7066255,47.6234159 63.4939485,47.6234159 C62.7495787,47.6234159 62.0583782,47.6234159 61.5798548,47.13924 C60.7291465,46.8702534 60.5164695,46.1708882 60.3569617,45.5253203 C59.8784383,45.0411444 59.9847768,44.2879819 60.0911154,43.5886168 C59.9847768,42.3512784 60.1974539,41.1139399 60.9418236,40.0379935 C61.0481622,39.5538176 62.0052089,37.5633167 64.3446567,34.5506667 C64.9295186,33.6899096 65.195365,32.8291524 65.7802269,32.6139632 C66.3650888,31.8608007 67.2157971,31.3766248 67.8538284,31.6456114 C68.3323517,31.3766248 69.18306,31.6456114 69.5552449,32.2373819 Z M41.0033485,30.0854891 L41.0033485,30.9462462 C41.0033485,31.3228275 41.0033485,31.5380168 41.1096871,31.6994087 C41.2160256,31.8070034 41.4818719,31.9683953 41.9603953,31.9683953 C42.4389188,31.9683953 42.5452573,32.0759899 42.7047651,31.9683953 L43.1832885,31.9683953 C43.4491349,31.9683953 43.6618119,31.9683953 44.0339967,31.8608007 C44.4061817,31.753206 44.6188587,31.8608007 44.884705,31.753206 C45.3632284,31.753206 45.8417518,31.8608007 46.2139367,32.0221927 L46.2139367,31.6456114 C46.2139367,30.7848542 46.5861215,30.8924489 46.6924601,30.7848542 C46.9583065,30.5158676 47.5431684,30.8924489 47.7558455,30.7848542 C47.8621839,30.8924489 48.2343689,31.1614355 48.9787386,31.5380168 C49.457262,31.8070034 49.8294469,32.1297873 49.9357854,32.6139632 C50.0421239,32.8829498 50.2016317,33.582315 50.3079703,34.4430721 C50.4143088,35.3038293 50.6801551,36.0569918 50.8928322,36.5411677 C50.9991707,36.272181 51.637202,35.5728159 52.4879102,34.4430721 C53.7108034,32.8291524 54.7741887,31.9683953 55.8907433,31.6456114 C56.635113,31.3766248 57.4858213,31.2690301 58.4428681,31.2690301 L59.7720998,31.2690301 C59.7720998,31.2690301 60.5164695,31.3766248 61.1013314,31.5380168 C61.5798548,31.6456114 62.0583782,31.914598 62.4305631,32.3987739 C62.9090865,32.7753552 63.1749329,33.2595311 63.1749329,33.7437069 C63.2812713,34.0126935 63.0685943,34.2278828 62.6964095,34.6044641 L62.3242246,34.7120587 C62.2178861,34.7120587 61.9520397,34.6044641 61.5798548,34.4430721 C61.4735163,34.3354775 61.3140085,34.3354775 61.20767,34.3354775 L60.2506231,34.3354775 C59.2935764,34.3354775 58.6555451,34.6044641 58.0706833,34.8196534 C57.4858213,35.1962346 57.0072979,35.7880051 56.3692666,36.5411677 C54.6146809,38.7468579 53.1791107,40.7373587 51.7435404,42.781657 C51.265017,43.6424141 50.9991707,44.2341846 50.7864937,44.6107659 C50.4143088,45.2025364 49.9357854,45.471523 49.457262,45.5791177 C48.9787386,45.5791177 48.6065537,45.3101311 48.2343689,44.7183605 C47.7558455,44.12659 47.4899991,43.4810221 47.4899991,42.781657 C47.3988518,42.1360891 47.3858308,41.4114721 47.3839706,40.607806 L47.3836606,39.446223 C47.3836606,38.4778712 47.1178142,37.1329382 46.9051372,35.7880051 C46.7987987,35.5190185 46.6392908,35.1962346 46.6392908,34.927248 C46.3734445,35.3038293 46.267106,35.5190185 46.1607674,35.5190185 L45.2037207,35.7880051 C44.7251973,35.8955998 43.9808275,35.8955998 43.0237807,35.8955998 C42.0667339,35.8955998 41.2160256,36.1645864 40.7375022,36.4873703 C40.4716559,36.5949649 40.2589788,36.8639516 40.1526402,37.0791408 C40.0463018,37.3481275 39.8867939,37.5633167 39.8867939,38.0474926 C39.8867939,38.4240739 39.8867939,38.5316686 39.9931325,38.9082498 C40.099471,39.1772364 40.099471,39.3924257 39.9931325,39.6614123 C39.9931325,40.2531828 39.9931325,41.0063453 39.8867939,41.8671025 C39.6209476,43.803806 39.4082705,45.0411444 39.5146091,45.3101311 C39.5146091,46.0632936 39.6209476,46.6550641 39.7804554,47.0316454 L39.1955935,47.0316454 C38.6107315,47.0316454 38.1322081,46.9240507 37.8663618,46.7626587 C37.494177,46.4936721 37.2814999,46.1708882 37.0156536,45.4177257 C36.7498072,44.6645632 36.6434687,43.803806 36.6434687,42.9430489 C36.6434687,42.458873 36.6434687,41.5981158 36.909315,40.4683721 C37.0156536,39.3924257 37.1751613,38.6392632 37.1751613,37.9936953 C37.1751613,37.0253436 36.909315,36.272181 36.324453,36.1645864 C36.2181146,36.1645864 35.4737448,36.0569918 34.0381746,35.7880051 C33.1874663,35.7880051 32.6026044,35.4114239 32.2304195,35.0348426 C31.8582347,34.6582614 31.6455576,34.0664908 31.6455576,33.3133283 L31.6455576,32.9367471 C31.6455576,32.8291524 31.6455576,32.5601658 31.7518961,32.0759899 C32.3367581,32.1835846 32.8152815,32.1835846 33.5596512,32.3449766 C34.1445132,32.4525712 34.7825443,32.4525712 35.3674063,32.4525712 C36.2181146,32.4525712 36.8029764,32.3449766 37.1751613,32.1835846 C37.6536847,31.914598 38.0258696,31.591814 38.1322081,30.9462462 C38.2385467,30.4620703 38.2385467,29.9778945 38.2385467,29.3323266 C38.2385467,26.8576498 41.0033485,28.2563802 41.0033485,30.0854891 Z M11.4412362,31.591814 C12.3982829,31.591814 13.3553298,31.8608007 14.0996995,32.3449766 C14.8440693,32.8291524 15.5352697,33.582315 16.2796394,34.5506667 C16.8645014,35.5190185 17.1303477,36.3797757 17.2366863,37.1329382 C17.2366863,38.7468579 15.801116,39.7152096 12.5046215,40.0917909 C10.2183431,40.4683721 8.03840312,40.5759668 5.85846315,40.8449534 L5.85846315,41.5981158 C5.85846315,41.9746971 6.23064802,42.458873 6.81550995,42.9430489 C7.40037189,43.3196301 8.03840312,43.6962114 8.41058798,43.6962114 L9.73981966,43.6962114 C10.4841894,43.6962114 11.4412362,43.4272248 12.6641293,43.2120355 C13.1426527,42.9430489 13.7275146,42.8354542 14.2592073,42.620265 C14.5250536,42.5126703 15.003577,42.2436837 15.588439,42.0284945 C16.3328087,41.6519132 16.8113321,41.5443186 17.183517,41.4367239 C17.6620404,41.4367239 18.0342252,41.5443186 18.2469024,41.9208998 C18.6190872,42.2974811 18.7254258,42.6740623 18.8317642,42.9968462 C18.8621467,43.0890702 18.8838484,43.1769026 18.8968695,43.2590886 L18.897,43.266 L18.8411221,43.3286681 C18.5240206,43.6916924 18.3476049,43.9809068 18.1659787,44.3070262 L18.0873945,44.4493739 C18.0209329,44.5704179 17.9644406,44.6847372 17.9170867,44.794013 L17.906,44.822 L17.7431859,44.9358026 C17.1973599,45.3075844 16.455507,45.7487861 15.5352697,46.0094962 C14.206038,46.4936721 12.8768064,46.8702534 11.4412362,46.7626587 C9.63348111,46.7626587 8.19791087,46.4936721 6.70917142,45.794307 C5.27360121,45.0411444 4.26338515,43.965198 3.67852321,42.620265 C3.41267688,41.8671025 3.19999981,41.0063453 3.19999981,40.1455882 C3.19999981,37.939898 4.05070808,36.0031944 5.75212462,34.2816801 C7.55987969,32.5601658 9.3676348,31.591814 11.4412362,31.591814 Z M68.4386902,33.8513016 L68.1728439,33.8513016 L67.8006591,34.1202882 C67.5348127,34.3892748 67.2157971,34.3892748 66.9499508,34.7120587 C66.6841044,34.8196534 66.577766,35.3038293 66.3650888,35.6804105 C65.6207191,37.0253436 65.0358572,38.1550873 64.7700109,38.8544525 C64.0256411,40.1993855 63.812964,41.4367239 63.812964,42.2974811 L63.812964,42.6740623 C63.812964,44.2879819 66.7372737,41.5981158 67.2157971,39.7152096 C68.4386902,38.6392632 68.6513673,36.6487623 68.5450288,34.927248 C68.6513673,34.7120587 68.8108751,33.9588962 68.4386902,33.8513016 Z M8.62326501,35.8955998 C8.25108015,36.272181 7.55987969,36.9715462 6.92184849,37.9936953 C7.98523383,38.3702766 9.20812697,38.4778712 10.5373587,38.3702766 C11.7602518,38.5316686 12.8768064,38.3702766 14.0465303,38.1550873 L14.0465303,37.7785061 C14.1528688,37.2943302 13.9401917,36.7025596 13.4616683,36.1645864 C12.8768064,35.6804105 12.5046215,35.4114239 12.1324366,35.1962346 C11.7602518,35.08864 11.2817284,35.08864 10.9095435,34.927248 C10.0588352,34.8196534 9.31446552,35.3038293 8.62326501,35.8955998 Z M81.7542919,5.86862346 C82.0216375,5.86862346 82.3424519,5.97481988 82.7167359,6.34650738 C83.1979582,6.82439131 83.5722422,7.30227523 83.7861182,7.93945379 C83.9732604,8.40406313 83.9966532,8.9906325 83.9995773,9.6280185 L83.999995,9.90408773 C83.999995,10.3819716 83.999995,10.966052 83.7326494,11.6032305 C83.4653038,12.8244895 82.9840815,14.3643376 82.1285759,16.2227751 C81.1661312,18.5059983 80.5245016,19.9927483 80.3106256,20.8423197 C79.722465,22.4352661 79.0808355,23.8689179 78.4926752,25.4618643 C78.2253295,26.0459447 78.011453,26.3114357 78.011453,26.4176322 C78.011453,26.4176322 78.011453,26.5238286 77.9045148,26.8955161 C77.5302309,28.116775 77.155947,28.9663464 77.0490088,29.1787393 C76.6747249,30.0283107 75.9796263,30.2407036 75.2310586,30.3999982 C75.1241203,30.3999982 74.8567747,30.3999982 74.6428982,30.2938018 C74.1616761,30.1876053 73.7873922,30.0283107 73.6804539,29.7097214 C73.5735157,29.4442303 73.30617,29.1256411 73.4131083,28.7539536 C73.4131083,28.3822661 73.4131083,28.2760697 73.5200466,27.9043822 C73.6269848,27.9043822 74.4824908,25.621159 74.8567747,24.6653911 C74.9637129,24.3999001 75.7122807,22.4883643 75.7122807,22.1166768 C75.7122807,21.7449893 75.8192189,21.5325965 75.7122807,21.160909 C75.8192189,19.7272572 75.3379968,18.2405072 74.4824908,16.435168 C73.6269848,15.0015162 72.7714788,13.5147662 71.9159728,11.974918 C70.9535286,10.2757752 70.5792447,8.57663237 70.5792447,7.14298059 C71.8090345,7.51466809 72.878417,8.20494487 73.8408613,9.32000736 C74.3220834,10.0633824 75.0706511,11.231543 75.9261572,12.9306859 C76.7816632,14.6298287 77.3698235,15.691793 78.011453,16.5413644 C78.5996134,15.2139091 79.2412429,13.6209626 79.8294032,12.2935073 C80.5779712,10.5943645 80.8987856,9.05451626 81.1661312,7.83325737 C81.1661312,7.08988238 81.2730696,6.50580203 81.2730696,6.24031096 C81.3800079,5.97481988 81.6473535,5.86862346 81.7542919,5.86862346 Z M67.3710972,8.84212339 C68.119665,9.21381089 68.7078253,10.2757752 68.8147636,11.974918 C69.4029239,13.196177 69.2959857,14.5236323 69.2959857,15.4794001 C69.4029239,16.2227751 69.2959857,17.178543 69.2959857,17.921918 C69.2959857,20.4706322 69.4029239,21.6918911 69.4029239,22.0104804 C69.5098622,23.0724447 69.5098622,23.8158197 69.2959857,24.4529982 C69.1890474,25.1963732 69.2959857,26.8955161 68.7078253,26.3645339 C68.4404797,27.3203018 67.1037516,25.621159 66.7829368,24.9308822 C66.5155912,24.8246857 66.4086529,21.3202036 65.7135543,22.4883643 C65.7135543,22.4883643 65.7135543,22.5945608 65.6066161,22.5945608 C65.3392704,22.9662482 65.0184557,23.0724447 64.7511101,23.1786411 C64.4837645,23.2848376 64.0025423,24.0282126 62.6658142,24.9839804 C62.0776538,25.4618643 61.70337,25.8335518 61.2221479,25.9397482 C60.9548022,26.0459447 60.847864,26.0459447 60.6339875,26.0459447 C59.8854197,26.1521411 59.1903211,26.0459447 58.709099,25.3025697 C57.9605313,25.0370786 57.7466547,24.2406054 57.4793091,23.4972304 C57.1050252,22.9131501 57.1050252,22.0635786 57.3723709,21.3202036 C57.2654326,19.9927483 57.4793091,18.5590965 58.3348151,17.3378376 C58.3882842,16.9130519 59.4041976,14.6298287 61.9707156,11.231543 C62.558876,10.2757752 62.9331598,9.42620376 63.5747893,9.05451626 C64.1629497,8.31114126 65.0184557,7.83325737 65.6600852,8.0987484 C66.1413073,7.83325737 66.9968133,8.20494487 67.3710972,8.84212339 Z M38.6581772,8.20494487 C39.032461,8.20494487 39.2463376,8.78902524 39.5136832,10.1164805 C39.8879671,11.3377395 39.9949053,12.1873109 39.9949053,12.7713912 L39.8879671,14.205043 C39.7810288,16.6475608 39.7810288,18.4529001 39.6206215,19.9927483 C39.5136832,21.5856947 39.3532758,23.1255429 39.032461,24.6122929 C38.0700169,24.3468018 37.4283874,23.8689179 37.1075726,22.9131501 C37.0006344,22.647659 36.7332887,21.4794983 36.5194122,19.408668 C36.430297,19.0104313 36.4154445,18.427826 36.4129691,17.9681331 L36.412474,15.9041859 C36.5194122,14.7360251 36.6263505,13.8864537 36.6263505,13.0368823 C36.8936961,10.2757752 37.0006344,8.78902524 36.8936961,8.68282876 C37.1610417,8.78902524 37.3749182,8.68282876 37.6422638,8.57663237 C37.9096094,8.4704359 38.123486,8.31114126 38.3908316,8.31114126 C38.4977698,8.20494487 38.4977698,8.20494487 38.6581772,8.20494487 Z M21.0668351,8.0987484 C21.3341808,8.20494487 21.6549955,8.20494487 22.1362176,8.3642395 C22.6174398,8.4704359 22.9917237,8.4704359 23.3660075,8.735927 C24.2215135,9.0014181 25.1839578,9.32000736 26.146402,9.79789126 C27.2157845,10.3819716 28.0712905,11.1253466 28.4455744,11.974918 C28.5525126,12.3466055 28.8198583,12.8244895 28.8198583,13.196177 C28.9267965,13.6740609 28.9267965,14.1519448 28.9267965,14.6298287 C28.8198583,15.5855966 28.6594509,16.5413644 28.3386362,17.5502305 C27.9643523,18.3998019 27.4831301,19.1431769 26.8949698,19.6210608 C25.6651799,20.895418 24.2215135,21.7449893 22.9917237,22.5945608 C21.3876499,23.4441322 19.8370453,24.0282126 18.2329716,24.2937036 C17.6448112,24.3999001 17.1635891,24.3999001 16.6288978,24.3999001 C15.6664535,24.3999001 15.0248241,24.134409 14.5436019,23.8158197 C13.7950342,23.4441322 13.5811577,22.7538554 13.4742194,22.0104804 C13.3672812,21.160909 13.2068739,20.417534 13.3672812,19.7272572 C13.4742194,17.8157216 13.8485033,15.9572841 14.8109476,14.1519448 C15.7733918,12.3466055 17.0031817,11.0191502 18.446848,9.90408773 C18.446848,9.90408773 18.8211319,9.63859663 19.5162305,8.94831987 C19.9974526,8.57663237 20.3717365,8.20494487 20.585613,8.20494487 L21.0668351,8.0987484 Z M53.8968777,1.24907887 C54.859322,1.72696279 55.5009515,2.20484672 55.714828,3.05441814 C56.0891119,3.63849849 56.0891119,4.4880699 56.0891119,5.60313239 C56.0891119,5.97481988 56.0891119,6.55890024 55.9821736,7.40847165 C55.9821736,8.25804311 55.8752354,8.84212339 55.8752354,9.0014181 L55.287075,22.4352661 C54.431569,22.3290697 53.576063,22.0635786 52.6136188,22.0635786 C52.2393349,22.0635786 51.7581128,22.3290697 51.3838289,22.647659 C50.7956685,23.1255429 50.3144464,23.6034268 50.154039,23.6034268 C49.6728169,23.8689179 49.0846565,23.9751143 48.5499653,24.1875072 C47.9618049,24.2937036 47.4805828,24.4529982 46.9458915,24.2937036 C46.4646694,24.2937036 45.876509,24.1875072 45.2348795,23.9220161 C44.7536574,23.6565251 44.2724353,23.1786411 43.8981515,22.7007572 C42.9357072,21.4794983 42.4544851,20.152043 42.5614233,18.8245876 C42.5614233,17.8688197 42.9357072,17.0192483 43.309991,16.169677 C43.7912131,15.3732037 44.2724353,14.3643376 45.1279413,13.4085698 C45.876509,12.5589984 46.5716076,11.8156234 47.2132372,11.6032305 C47.8013976,11.1253466 48.5499653,11.0191502 49.2985331,11.0191502 C49.8866934,11.0191502 50.9026068,11.2846412 51.9719893,11.6032305 C52.2393349,11.0191502 52.3462731,9.32000736 52.4532114,6.66509667 C52.5601497,4.01018598 53.2017791,2.04555208 53.8968777,1.24907887 Z M0.748567747,0.0278199537 C1.01591337,0.0278199537 1.22978987,0.293311022 1.49713549,0.611900304 C1.76448112,0.983587797 2.08529587,1.46147172 2.24570324,1.93935564 C2.72692537,3.26681099 3.10120924,4.70046276 3.20814749,6.55890024 C3.47549311,8.3642395 3.58243136,7.62086451 3.47549311,11.0191502 L3.36855486,13.939552 C3.95671523,12.8775876 4.59834473,12.0280162 5.1865051,11.3908377 C5.93507285,10.5412663 6.79057884,10.0633824 7.48567747,10.0633824 C7.85996134,10.0633824 8.07383784,10.1695788 8.34118342,10.3288734 C8.71546732,10.4350699 8.92934387,10.8067574 9.19668945,11.1784449 C10.2660719,12.6120966 11.0146397,14.5767305 11.6562692,17.2316412 C12.1374914,19.408668 12.4048369,21.6918911 12.2444296,23.8689179 L11.7632075,23.8689179 C11.1750471,23.8689179 10.5334176,23.7627215 10.3195411,23.4972304 C9.94525717,23.1255429 9.57097335,22.5414626 9.46403512,21.3202036 C9.3570968,20.0989447 9.08975122,18.8776858 8.87587467,17.5502305 C8.60852909,15.9572841 8.02036872,14.8953198 7.27180097,14.4174359 C6.52323322,16.0103822 5.8281346,17.4440341 5.07956685,19.0369805 C4.49140648,21.2140072 4.01018435,24.9839804 1.92488849,24.2406054 C1.55060462,24.134409 1.17632075,24.2406054 0.962444247,22.5414626 C0.695098622,21.638793 0.320814749,20.7892215 0.320814749,20.0458465 C0.213876499,17.6564269 0.10693825,15.0015162 0.10693825,11.974918 C0.10693825,9.05451626 -1.42108547e-13,9.32000736 0.10693825,6.29340917 L0.10693825,3.74469491 C-1.42108547e-13,2.52343599 -1.42108547e-13,1.83315922 -1.42108547e-13,1.46147172 C0.10693825,0.39950745 0.374283874,-0.131474687 0.748567747,0.0278199537 Z M32.1884131,1.14288244 C32.2953514,1.14288244 32.7765735,1.40837351 33.1508574,2.09865029 C33.5251412,2.57653421 33.6320794,3.16061456 33.7390177,4.27567705 L33.7398753,10.9503447 C33.7499782,11.393044 33.845956,15.6582573 33.845956,17.921918 C33.845956,20.4706322 33.9528942,22.5414626 33.845956,24.1875072 L33.0973882,24.2937036 C32.7231044,24.2937036 32.6161661,24.1875072 32.5092278,24.1875072 C32.134944,24.0813107 31.9210675,23.8158197 31.9210675,23.6034268 L31.9745366,22.5945608 C31.8675983,21.5325965 31.8675983,20.3113376 31.8675983,19.1962751 L31.8673975,14.934575 C31.8653889,13.9404296 31.8432942,12.3079886 31.6002528,9.79789126 C31.4933144,8.4704359 31.4933144,7.35537344 31.6002528,6.55890024 L31.6008955,2.89177244 C31.6037879,2.30007243 31.6196961,1.92487431 31.707191,1.62076637 C31.8141292,1.24907887 31.8141292,1.03668601 32.1884131,1.14288244 Z M50.8491376,15.1077126 C49.8866934,15.1077126 48.9242492,15.5855966 47.9083358,16.9130519 C46.8389533,18.1343108 46.304262,19.3555697 46.304262,20.3113376 L46.304262,21.160909 C46.304262,21.160909 46.5716076,21.638793 46.7854842,21.7449893 C46.9458915,22.0104804 47.2132372,22.1166768 47.587521,22.1166768 C48.0687431,22.1166768 48.5499653,21.8511858 49.4054713,21.2671055 C49.7797551,21.0016143 50.2609772,20.5237305 50.7421994,19.9396501 C51.1164833,19.5679626 51.4907672,19.0900787 51.8115819,18.6121947 C52.1858658,18.0281144 52.292804,17.5502305 52.3997422,16.9130519 C52.292804,16.435168 52.1323967,16.0634805 51.8115819,15.5855966 C51.5442363,15.3201055 51.2234215,15.2139091 50.8491376,15.1077126 Z M66.6759986,11.709427 L66.3017147,11.709427 L65.9274308,12.0811145 C65.6600852,12.3466055 65.1788631,12.3466055 64.9649866,12.6651948 C64.5907027,12.7713912 64.4837645,13.2492751 64.2164188,13.7271591 C63.3609129,15.0546145 62.5054068,16.0103822 62.1311229,16.8599537 C61.275617,18.1874091 60.7943949,19.408668 60.7943949,20.0989447 L60.7943949,20.4706322 C60.847864,22.0104804 64.2698879,19.4617662 64.9649866,17.7626233 C66.4086529,16.7006591 66.7829368,14.7360251 66.6759986,13.0368823 C66.9433442,12.452802 67.0502825,11.6032305 66.6759986,11.709427 Z M23.8472296,11.6032305 C23.2590693,11.6032305 22.5105015,11.709427 21.9223412,11.974918 C21.1737734,12.2404091 20.585613,12.5589984 19.9974526,13.0368823 C19.4092923,13.5147662 18.6607246,14.2581412 18.0725642,15.2139091 C17.4844038,16.2758733 17.1101199,17.1254447 17.1101199,17.8688197 C17.1101199,18.3467037 17.2170582,18.8245876 17.5913421,19.1962751 C17.9656259,19.5679626 18.446848,19.674159 19.1954158,19.7803555 C20.4252057,19.8865519 21.9758103,19.3024715 23.8472296,18.0812126 C25.9325255,16.7537572 26.8949698,15.5324984 26.8949698,14.205043 C27.001908,13.461668 26.6276241,12.7713912 25.9325255,12.2935073 C25.5582416,12.1873109 25.1839578,11.974918 24.9166121,11.8687216 C24.5423283,11.7625252 24.3284517,11.6032305 23.8472296,11.6032305 Z M39.032461,1.08978423 C39.5136832,1.08978423 40.1018435,1.3552753 40.6365348,1.83315922 C41.1177569,2.31104314 41.3851026,2.89512349 41.3851026,3.42610563 C41.4920408,3.79779313 41.1177569,4.16948062 40.9038804,4.38187347 C40.5295965,4.4880699 40.3157201,4.4880699 40.0483744,4.64736455 C39.460214,4.64736455 38.9789919,4.38187347 38.4443007,3.90398955 C37.9630786,3.37300741 37.695733,2.89512349 37.695733,2.31104314 C37.695733,1.93935564 37.9630786,1.56766815 38.1769551,1.3552753 C38.4443007,1.24907887 38.7651154,1.08978423 39.032461,1.08978423 Z" id="Holiday-extras"></path>
        </g>
    </g>
</svg>