<?xml version="1.0" encoding="UTF-8"?>
<svg width="84px" height="48px" viewBox="0 0 84 48" version="1.1" xmlns="http://www.w3.org/2000/svg" xmlns:xlink="http://www.w3.org/1999/xlink">
    <!-- Generator: Sketch 61 (89581) - https://sketch.com -->
    <title>HEHA!</title>
    <desc>Created with Sketch.</desc>
    <g id="Symbols" stroke="none" stroke-width="1" fill="none" fill-rule="evenodd">
        <g id="Brands-/-Logos-/-HEHA!" fill="#8C8CD9" fill-rule="nonzero">
            <path d="M65.6252634,4.80112243 C66.2299719,4.79316245 66.8344611,4.8289882 67.4339401,4.90831576 L67.4339401,4.90831576 L67.5348361,4.92371055 L76.5289183,34.2091563 C75.3814345,35.0352846 74.7167123,36.3705589 74.7517716,37.7790363 C74.7487761,39.1480268 75.0046658,40.2199887 75.7109006,40.9396895 C75.3652282,40.3398884 75.2028529,39.5317441 75.2050457,38.4531399 C75.1382762,37.1456539 75.7371182,35.8945948 76.7919177,35.1379573 L77.1114681,34.9366679 C77.751157,34.5810523 78.4697431,34.3963851 79.1994274,34.3999821 L79.2137442,34.3999821 C80.6895176,34.4035703 81.7180351,34.7632226 82.3571367,35.5022503 C82.9257991,36.1565856 83.2001086,37.1299673 83.1966726,38.4769235 C83.2393374,39.4983483 82.8696311,40.493348 82.1726879,41.2328002 C81.4757447,41.9722525 80.511636,42.3924218 79.5023705,42.3965542 L79.4220396,42.3966861 C79.3350788,42.397181 79.1897453,42.3984178 79.0469563,42.3995512 L79.9404668,45.3053765 C80.0428592,45.5668623 80.011896,45.8614433 79.8573421,46.0962124 C79.5363092,46.548363 78.6053136,46.7844163 76.7456156,46.8859079 C75.8186329,46.9355134 74.5035444,47.0056451 72.6874151,46.9868293 L72.6874151,46.9868293 L72.5635881,46.9868293 L70.0870481,37.7003518 C70.0648024,37.6157477 69.9856474,37.5584914 69.897868,37.5635093 L69.897868,37.5635093 L62.1988099,37.9843001 C62.1120612,37.9896092 62.0406128,38.0540392 62.0268279,38.1393884 L62.0268279,38.1393884 L60.6859421,46.3704676 C60.5099472,47.3922253 60.1837548,47.7924898 57.4257378,47.9430166 C56.7911244,47.9795079 55.9312147,48.0000343 55.1286323,48.0000343 C54.3438214,48.0000343 53.623217,47.9795079 52.9874572,47.9430166 L52.9874572,47.9430166 L52.7999969,47.9321832 L53.7361519,43.3091858 L53.7458975,43.3091858 L53.767,43.199 L53.5999968,43.2000346 L58.3858889,20.000036 L58.385,20.364 L58.931153,17.664322 L61.2139266,6.38222405 C61.4283307,4.99156164 63.4359333,4.88265778 64.0963439,4.84673661 C64.6409534,4.81651722 65.1551794,4.80112243 65.6252634,4.80112243 Z M4.06664962,0.80055095 C4.95721393,0.80393757 6.10571396,0.823676361 7.52586973,0.848148673 C7.5694262,0.849891992 7.61081939,0.868253319 7.64207802,0.899696734 C7.67409692,0.92907274 7.69392115,0.970110001 7.69741529,1.01424797 L7.69741529,1.01424797 L7.40523446,17.1161436 C7.4041972,17.1654069 7.42219069,17.213063 7.45522515,17.2485448 C7.48825961,17.2840266 7.53360513,17.3044021 7.581207,17.3051531 L7.581207,17.3051531 L12.5875705,17.3939304 C12.6352868,17.3956398 12.681626,17.3772078 12.7159558,17.3428635 C12.7502856,17.3085193 12.7696587,17.2612111 12.7696301,17.2117938 L12.7696301,17.2117938 L13.0380159,2.24681936 C13.0557239,1.19122964 13.268219,1.01940278 16.0992742,1.01940278 L16.3554758,1.01991658 C17.2354673,1.0233032 18.3755982,1.04304199 19.7841835,1.0675143 L19.7841835,1.0675143 L19.8362005,1.0675143 C19.8790809,1.06861368 19.9199843,1.08640711 19.9507487,1.1173441 C19.9805196,1.1477441 19.9981083,1.18865392 20,1.23189534 L20,1.23189534 L19.943,4.482 L20.7805588,4.45204156 L21.3815644,4.4277651 L33.2952783,4.00003696 L33.3021798,4.17344026 C33.4609142,8.12472351 33.5144009,9.45588287 33.018068,9.99458908 C32.7768909,10.2127431 32.4585168,10.3241916 32.1346761,10.303825 L32.1346761,10.303825 L24.4975915,10.5783802 C24.3945569,10.5824518 24.3142656,10.6696119 24.3181525,10.7731699 L24.3181525,10.7731699 L24.6937091,20.1444624 C24.6977599,20.2473758 24.7839701,20.3275527 24.886376,20.3236458 L24.886376,20.3236458 L32.2479757,20.0594948 L32.2554523,20.2363661 C32.4084356,24.0194482 32.4722745,25.58528 31.9299315,26.1736952 C31.7247529,26.3790604 31.4440554,26.4897683 31.1546631,26.4794631 L31.1546631,26.4794631 L25.1411563,26.6973732 C25.0381217,26.7014448 24.9578304,26.7886049 24.9617174,26.892163 L24.9617174,26.892163 L25.4718532,39.6979968 C25.4762141,39.8006209 25.5617819,39.8806963 25.663945,39.8777582 L25.663945,39.8777582 L34.2775917,39.5685224 L34.2839181,39.7315215 C34.4478287,43.8290415 34.4972895,45.0665631 34.0285626,45.5746347 C33.7773863,45.7945645 33.447546,45.9015121 33.1158393,45.8705764 L33.1158393,45.8705764 L18.4167951,46.4000344 L18.3017701,43.5151815 L18.2730139,42.807118 L16.799882,5.95140212 C16.7946046,5.53477122 16.9726041,5.158556 17.2587935,4.90046447 C16.8633062,4.93806169 16.4919696,5.12116664 16.213257,5.41862954 C15.9032652,5.74947604 15.7334023,6.19452208 15.7412419,6.65532399 L15.7412419,6.65532399 L15.7412419,6.66506085 L17.1573229,43.1902977 C16.8756561,43.2000346 16.5563601,43.2000346 16.1939009,43.2000346 C15.2658947,43.2000346 14.0268931,43.1788426 12.4580813,43.1519231 C12.3710181,43.1500439 12.3016543,43.0759509 12.3025835,42.9858238 L12.3025835,42.9858238 L12.646228,24.0086919 C12.6472048,23.9593956 12.6290694,23.9117471 12.5958711,23.8763853 C12.5628919,23.8409589 12.51777,23.8203851 12.4702555,23.8191096 L12.4702555,23.8191096 L7.46389198,23.7309052 C7.3629272,23.7308931 7.28334386,23.811989 7.28183233,23.9130417 L7.28183233,23.9130417 L6.95921601,41.7538252 C6.94095471,42.8094149 6.73067305,42.9812418 3.89740445,42.9812418 C2.97271854,42.9812418 1.73261015,42.9600498 0.162691596,42.9325574 C0.119524144,42.9320691 0.0782382013,42.9141956 0.0475900586,42.8827277 C0.0180530331,42.8523212 0.00100346388,42.8112822 -1.77635684e-13,42.7681764 L-1.77635684e-13,42.7681764 L0.734879044,2.03031751 C0.751480227,0.971864017 0.961208511,0.800037147 3.80720469,0.800037147 Z M45.9769401,0.800037147 C46.0657808,0.800037147 46.1378004,0.873414863 46.1378004,0.963930866 L46.1378004,0.963930866 L46.1378004,17.1403563 C46.1378004,17.1899458 46.1571351,17.2375042 46.1915512,17.2725692 C46.2259672,17.3076343 46.2726453,17.3273336 46.321317,17.3273336 L46.321317,17.3273336 L51.2921255,17.3273336 C51.3934789,17.3273336 51.4756421,17.243621 51.4756421,17.1403563 L51.4756421,17.1403563 L51.4756421,2.10599308 C51.428236,1.80463106 51.5039641,1.49663215 51.6852136,1.25363033 C52.0793187,0.851581827 53.0456862,0.805894497 56.6976539,0.800702755 L58.2391363,0.800037147 C58.2817991,0.800037147 58.3227145,0.817304474 58.3528816,0.848040505 C58.3830488,0.878776543 58.3999965,0.920463548 58.3999965,0.963930866 L58.3999965,0.963930866 L58.3988637,17.5772138 L53.3334648,43.2000346 L51.6342368,43.2000346 C51.545396,43.2000346 51.4733765,43.1266569 51.4733765,43.0361409 L51.4733765,43.0361409 L51.4733765,23.9742626 C51.4733765,23.8709979 51.3912133,23.7872854 51.2898599,23.7872854 L51.2898599,23.7872854 L46.3190513,23.7872854 C46.2176979,23.7872854 46.1355347,23.8709979 46.1355347,23.9742626 L46.1355347,23.9742626 L46.1355347,41.89581 C46.182889,42.1965403 46.1073657,42.5039134 45.9265297,42.7464414 C45.4818983,43.2000346 44.309431,43.2000346 39.3743062,43.2000346 C39.2854656,43.2000346 39.213446,43.1266569 39.213446,43.0361409 L39.213446,43.0361409 L39.213446,2.10541599 C39.1666802,1.8040026 39.2430203,1.49622032 39.4247167,1.25363033 C39.8188217,0.851581827 40.7847442,0.805894497 44.435822,0.800702755 Z M65.0718209,17.4985078 C64.9779456,17.502732 64.9021369,17.5762241 64.8954867,17.6694536 C64.6214621,21.2701231 64.3245066,24.0200882 63.987422,26.0761475 L63.987422,26.0761475 L63.1475769,31.3018224 C63.1390337,31.3551292 63.1543596,31.4094857 63.1895254,31.4506016 C63.2246911,31.4917173 63.2761784,31.5154788 63.330451,31.5156388 L63.330451,31.5156388 L63.3407699,31.5156388 L68.1361997,31.2533573 C68.1917295,31.2501723 68.2428784,31.2223285 68.2755051,31.1775237 C68.3086795,31.1328266 68.3196462,31.0755621 68.3053153,31.0218653 L68.3053153,31.0218653 L66.9586966,25.9107961 C66.3963157,23.8017103 65.825909,21.0232364 65.2629548,17.6529185 C65.2478675,17.5606671 65.1656962,17.4942837 65.0718209,17.4985078 Z M83.999995,-9.9475983e-14 C83.905215,1.19281787 82.8397591,19.8814483 82.5080303,25.7132165 C82.3478847,27.8173002 81.4218751,28.0000355 76.7918265,28.0000355 L76.7918265,28.0000355 L76.3560571,28.0000355 L75.2088946,1.35103282 C75.1747789,1.10961058 75.239725,0.864169896 75.3870153,0.677889499 C75.8775825,0.129362344 77.5479951,0.00920217449 81.8950587,0.000494844779 Z" id="HEHA!"></path>
        </g>
    </g>
</svg>