<?xml version="1.0" encoding="UTF-8"?>
<svg width="168px" height="32px" viewBox="0 0 168 32" version="1.1" xmlns="http://www.w3.org/2000/svg" xmlns:xlink="http://www.w3.org/1999/xlink">
    <!-- Generator: Sketch 61 (89581) - https://sketch.com -->
    <title>Zendesk</title>
    <desc>Created with Sketch.</desc>
    <g id="Symbols" stroke="none" stroke-width="1" fill="none" fill-rule="evenodd">
        <g id="Brands-/-Logos-/-Zendesk" fill="#8C8CD9" fill-rule="nonzero">
            <path d="M95.1999943,7.10542736e-14 L95.1999943,31.5738631 L90.480973,31.5738631 L90.480973,28.582714 C88.6709339,30.7633798 85.9405893,32.0210887 83.063611,32 C80.0570296,31.9747502 77.1879243,30.7678834 75.106347,28.6522951 C73.0247696,26.5367068 71.9069208,23.6914761 72.0060714,20.7612469 L72.0060714,20.755647 C72.0060714,13.8365647 77.2911781,9.51743815 83.1070926,9.51743815 C85.9365885,9.48231095 88.6367219,10.6710423 90.480973,12.7637829 L90.480973,7.10542736e-14 L95.1999943,7.10542736e-14 Z M110.566768,9.60120415 C117.82324,9.60120415 121.931014,15.02123 121.579082,22.5392276 L104.444932,22.5392276 C105.052076,25.659125 107.289651,27.6528349 111.190981,27.6528349 C113.435738,27.6977443 115.607205,26.8698102 117.229913,25.3503188 L120.212804,28.5203574 C118.229629,30.5148633 115.494634,31.9999981 111.231619,31.9999981 C103.923942,31.9999981 99.2025213,27.2453381 99.2025213,20.8009991 C99.1379805,17.8241771 100.312128,14.9495793 102.455291,12.8374304 C104.598454,10.7252816 107.526442,9.55710575 110.566768,9.60120415 Z M32.968374,9.60125183 C40.223793,9.60125183 44.3309713,15.0212661 43.9790899,22.5392478 L26.8441764,22.5392478 C27.4512326,25.6591385 29.6884826,27.6528442 33.5892455,27.6528442 C35.8337084,27.6979281 38.0049262,26.8699707 39.6273013,25.350333 L42.6097596,28.5203649 C40.6301225,30.5148664 37.8922745,31.9999981 33.6298785,31.9999981 C26.323262,31.9999981 21.6025262,27.2453483 21.6025262,20.8010229 C21.5379701,17.8236465 22.7123883,14.9485531 24.855952,12.836311 C26.9995158,10.7240688 29.9279294,9.55628055 32.968374,9.60125183 Z M133.360659,9.60048479 C137.424968,9.60048479 140.442116,11.1976942 142.147284,13.7713739 L138.25979,15.8739286 C137.169297,14.2767531 135.31803,13.349461 133.36631,13.422805 C130.873955,13.422805 129.595078,14.6284714 129.595078,16.004443 C129.595078,17.5539032 131.604626,17.982054 134.753375,18.6664586 C138.335683,19.4407908 142.399992,20.6018913 142.399992,25.0759875 C142.399992,28.0443937 139.779264,32.0449774 133.570575,31.9996158 C129.026688,31.9996158 125.83434,30.19231 123.999993,27.0082369 L124.005645,27.0146034 L128.19994,24.8658912 C129.328523,26.8550116 131.482866,28.0634154 133.794218,28.0038069 C136.417368,28.0038069 137.772945,26.673197 137.772945,25.166711 C137.772945,23.4469454 135.237798,23.0585856 132.485468,22.5046953 C128.771559,21.7303631 124.924433,20.5246968 124.924433,16.0951664 C124.924433,12.696222 128.202362,9.55512311 133.360659,9.60048479 Z M58.0003954,9.59999943 C63.4437714,9.59999943 67.9999971,13.195081 67.9999971,19.1738845 L67.9999971,19.1738845 L67.9999971,31.9999981 L63.3344731,31.9999981 L63.3344731,19.7685963 C63.3344731,16.16864 61.6040491,14.013216 58.1487859,14.013216 C54.6935226,14.013216 52.66552,16.16864 52.66552,19.7685963 L52.66552,19.7685963 L52.66552,31.9999981 L47.9999971,31.9999981 L47.9999971,19.1738845 C47.9999971,13.2007682 52.5562217,9.59999943 57.9995977,9.59999943 L57.9995977,9.59999943 Z M19.0262613,9.59999943 L19.0262613,13.8325505 L6.02316798,27.0537768 L19.1999989,27.0537768 L19.1999989,31.1999981 L8.38440428e-13,31.1999981 L8.38440428e-13,26.9682465 L12.9998908,13.7470201 L0.304240839,13.7470201 L0.304240839,9.59999943 L19.0262613,9.59999943 Z M151.138907,6.57252031e-14 L151.138907,20.4280996 L161.204249,9.82778589 L166.976885,9.82778589 L158.251826,18.9763484 L167.19999,31.1999981 L161.832249,31.1999981 L154.899467,21.7106379 L151.138907,25.6436499 L151.138907,31.1999981 L146.399991,31.1999981 L146.399991,6.57252031e-14 L151.138907,6.57252031e-14 Z M83.5927558,14.075492 C79.7428255,14.149538 76.6724259,17.233439 76.7104545,20.9880569 C76.7484831,24.7426748 79.8807482,27.7667278 83.7314278,27.7667278 C85.6294973,27.7667278 87.4466788,27.0172721 88.7688091,25.6893285 C90.0909386,24.3613849 90.805361,22.5680485 90.749249,20.7180476 C90.6354114,16.9648878 87.4426868,14.001446 83.5927558,14.075492 Z M26.8409258,18.9609241 L38.8138298,18.9609241 C38.3587408,16.0463731 36.5822683,13.90304 33.0309488,13.90304 C29.929837,13.7303373 27.2231117,15.9420098 26.8409258,18.9609241 Z M104.441681,18.9585086 L116.416323,18.9585086 C115.961168,16.0431555 114.184438,13.9006138 110.632603,13.9006138 C107.530906,13.7275105 104.823544,15.939386 104.441681,18.9585086 Z M167.5326,6.86953981 C168.155787,7.49416964 168.155787,8.50582941 167.5326,9.13045922 C166.909414,9.7550891 165.898468,9.75671774 165.273275,9.13409906 C164.970425,8.83453259 164.79999,8.4261295 164.79999,7.99999952 C164.79999,7.57386956 164.970425,7.16546647 165.273275,6.86589998 C165.898468,6.24328132 166.909414,6.24490997 167.5326,6.86953981 Z M165.520811,7.12280593 C165.042793,7.6011608 165.042279,8.37656862 165.519663,8.85555731 C165.997047,9.334546 166.771908,9.33608808 167.251192,8.85900331 L167.255787,8.85440563 C167.732536,8.37478398 167.730995,7.59937751 167.252343,7.12165726 C166.773692,6.64393702 165.998829,6.64445104 165.520811,7.12280593 Z M166.535221,6.97088082 L167.018406,7.45517197 C167.14924,7.55570594 167.233307,7.70540092 167.251094,7.86950983 C167.268882,8.03361872 167.218843,8.19786991 167.112592,8.32413742 C166.960984,8.49421037 166.715168,8.54328293 166.509952,8.44444398 L166.36446,9.06206842 L166.045145,8.74176196 L166.280228,7.88812214 L166.410405,8.01915664 C166.45036,8.07389768 166.510438,8.11047992 166.577384,8.12083072 C166.64433,8.1311816 166.71264,8.1144504 166.767242,8.07432904 C166.778404,8.06596032 166.788901,8.0567372 166.798637,8.0467428 C166.889261,7.93830679 166.875226,7.77695855 166.767242,7.6858233 L166.750396,7.67279648 L166.584228,7.48352447 L165.692137,8.37471214 L165.408811,8.09042096 L166.535221,6.97088082 Z" id="Zendesk"></path>
        </g>
    </g>
</svg>