<svg viewBox="0 0 24 19" version="1.1" xmlns="http://www.w3.org/2000/svg" xmlns:xlink="http://www.w3.org/1999/xlink">
  <g stroke="none" stroke-width="1" fill="none" fill-rule="evenodd">
    <g class="share__fill" transform="translate(-1536.000000, -737.000000)" fill="#35363D" fill-rule="nonzero">
      <g transform="translate(80.000000, 70.000000)">
        <g transform="translate(1456.000000, 667.000000)">
          <path id= "Twitter" d="M24,2.24933347 C23.117,2.63120386 22.168,2.88838187 21.172,3.00430681 C22.189,2.41104389 22.97,1.47098031 23.337,0.350697293 C22.386,0.900123052 21.332,1.2995283 20.21,1.51481747 C19.313,0.58254717 18.032,0 16.616,0 C13.437,0 11.101,2.88935603 11.819,5.88879204 C7.728,5.68908942 4.1,3.77973749 1.671,0.877717391 C0.381,3.03353158 1.002,5.85372231 3.194,7.28183962 C2.388,7.25651148 1.628,7.04122231 0.965,6.68175759 C0.911,8.9038146 2.546,10.9826702 4.914,11.4453958 C4.221,11.6285377 3.462,11.6714007 2.69,11.5272252 C3.316,13.4326805 5.134,14.8189089 7.29,14.8578753 C5.22,16.4389356 2.612,17.145201 0,16.84516 C2.179,18.2060603 4.768,19 7.548,19 C16.69,19 21.855,11.4785172 21.543,4.73246514 C22.505,4.05542453 23.34,3.21082855 24,2.24933347 Z"></path>
        </g>
      </g>
    </g>
  </g>
</svg>
  