<svg xmlns="http://www.w3.org/2000/svg" viewBox="0 0 326 65">
    <defs>
        <style>
            .cls-1 {
                fill: #333
            }
        </style>
    </defs>
    <g id="Layer_2" data-name="Layer 2">
        <g id="Layer_2-2" data-name="Layer 2">
            <path class="cls-1" d="M4 65a4 4 0 01-3.54-5.86l30-57a4 4 0 117.08 3.72l-30 57A4 4 0 014 65zM18 65a4 4 0 01-3.54-5.86l30-57a4 4 0 017.08 3.72l-30 57A4 4 0 0118 65zM46 65a4 4 0 01-3.54-5.86l15-28.5a4 4 0 017.08 3.72l-15 28.5A4 4 0 0146 65zM32 65a4 4 0 01-3.54-5.86l15-28.5a4 4 0 117.08 3.72l-15 28.5A4 4 0 0132 65zM99 50V0H85v64h42V50H99zM213.53 46.73A9.84 9.84 0 01205 52c-5.52 0-10-4.92-10-11s4.48-11 10-11a9.84 9.84 0 018.53 5.27l12.5-4A23 23 0 00205 17c-12.7 0-23 10.75-23 24s10.3 24 23 24a23 23 0 0021-14.27zM312 0v22.25C309.32 19 305.43 17 300 17c-12.7 0-21 10.75-21 24s8.3 24 21 24c5.43 0 9.32-2 12-5.25V64h14V0zm-10 52c-5.52 0-10-4.92-10-11s4.48-11 10-11 10 4.93 10 11-4.48 11-10 11zM163 18v4.25C160.32 19 156.43 17 151 17c-12.7 0-21 10.75-21 24s8.3 24 21 24c5.43 0 9.32-2 12-5.25V64h14V18zm-10 34c-5.52 0-10-4.92-10-11s4.48-11 10-11 10 4.93 10 11-4.48 11-10 11zM259.36 48.39A9.54 9.54 0 01252 52a10.07 10.07 0 01-9.31-7h32a25.11 25.11 0 00.32-4c0-13.25-10.3-24-23-24s-23 10.75-23 24 10.3 24 23 24a22.83 22.83 0 0020.16-12.51zM252 30a9.93 9.93 0 018.9 6h-17.8a9.94 9.94 0 018.9-6z" />
        </g>
    </g>
</svg>