<?xml version="1.0" standalone="no"?>
<!DOCTYPE svg PUBLIC "-//W3C//DTD SVG 20010904//EN"
 "http://www.w3.org/TR/2001/REC-SVG-20010904/DTD/svg10.dtd">
<svg version="1.0" xmlns="http://www.w3.org/2000/svg"
 width="16.000000pt" height="16.000000pt" viewBox="0 0 16.000000 16.000000"
 preserveAspectRatio="xMidYMid meet">
<metadata>
Created by potrace 1.11, written by Peter Selinger 2001-2013
</metadata>
<g transform="translate(0.000000,16.000000) scale(0.006154,-0.006154)"
fill="#000000" stroke="none">
<path d="M603 1969 c4 -40 -24 -122 -120 -349 -74 -175 -99 -242 -132 -355
-24 -84 -58 -249 -66 -324 -3 -30 -8 -58 -10 -61 -3 -4 -27 -10 -55 -14 -89
-12 -94 -19 -61 -92 14 -30 30 -47 62 -62 40 -20 55 -22 179 -17 74 2 146 7
160 9 52 11 276 14 343 4 79 -11 169 -41 187 -63 31 -37 77 11 66 69 -18 96
-272 168 -599 170 l-99 1 6 53 c15 141 89 366 191 587 93 199 122 284 120 342
-4 75 -47 118 -128 129 l-47 7 3 -34z"/>
<path d="M2235 1801 c-79 -36 -157 -148 -246 -354 -51 -118 -51 -117 -71 -121
-7 -1 -30 -8 -50 -15 -47 -16 -49 -37 -8 -76 32 -31 32 -33 3 -112 -18 -50
-82 -90 -126 -79 -24 6 -27 11 -27 50 0 57 28 149 97 313 30 73 52 137 48 143
-8 14 -41 12 -95 -4 l-45 -14 -25 34 c-68 91 -181 83 -282 -19 -55 -56 -122
-186 -147 -286 -20 -82 -45 -115 -126 -166 -153 -97 -258 -64 -258 81 0 24 2
46 4 49 3 2 25 -1 49 -6 128 -29 267 50 300 169 31 117 13 166 -80 217 -45 24
-67 29 -122 30 -60 0 -71 -3 -118 -36 -117 -82 -217 -284 -212 -429 3 -107 33
-171 98 -211 97 -60 290 -11 412 104 17 17 33 26 33 19 1 -7 2 -15 3 -19 14
-56 20 -71 34 -89 40 -48 96 -57 152 -23 36 22 100 86 100 101 0 22 18 -5 24
-35 17 -91 128 -111 230 -42 20 13 36 22 36 20 0 -3 -9 -38 -20 -79 -29 -103
-30 -111 -37 -193 -5 -67 -4 -73 20 -97 30 -30 64 -33 113 -10 49 23 59 39 41
64 -24 34 -12 104 54 325 17 55 33 107 36 115 4 8 13 35 22 60 l16 45 60 0
c84 1 165 -14 197 -36 26 -19 26 -19 46 6 22 27 20 58 -6 87 -24 28 -124 56
-211 60 -23 1 -41 6 -41 11 0 15 75 169 118 243 46 78 86 124 107 124 31 0 7
-100 -41 -174 -27 -40 -23 -54 19 -57 9 -1 24 -2 32 -3 54 -4 120 95 120 181
0 43 -5 57 -29 82 -58 61 -138 81 -201 52z m-1136 -273 c18 -48 -37 -167 -96
-212 -26 -19 -103 -35 -103 -21 0 25 85 177 118 213 44 47 69 53 81 20z m546
-24 c18 -19 18 -21 -35 -155 -45 -114 -104 -236 -128 -265 -10 -12 -28 -25
-40 -28 -89 -29 -4 308 108 425 39 42 69 49 95 23z"/>
</g>
</svg>
