<?xml version="1.0" standalone="no"?>
<!DOCTYPE svg PUBLIC "-//W3C//DTD SVG 20010904//EN"
 "http://www.w3.org/TR/2001/REC-SVG-20010904/DTD/svg10.dtd">
<svg version="1.0" xmlns="http://www.w3.org/2000/svg"
 width="400.000000pt" height="400.000000pt" viewBox="0 0 400.000000 400.000000"
 preserveAspectRatio="xMidYMid meet">
<metadata>
Created by potrace 1.11, written by Peter Selinger 2001-2013
</metadata>
<g transform="translate(0.000000,400.000000) scale(0.100000,-0.100000)"
fill="#000000" stroke="none">
<path d="M1830 2741 c-171 -37 -369 -135 -477 -236 -44 -42 -53 -56 -53 -85 0
-41 29 -94 61 -110 47 -26 84 -15 181 53 128 89 222 133 328 155 44 9 213 9
260 1 153 -28 352 -149 494 -300 79 -83 146 -183 146 -218 0 -47 -80 -163
-185 -266 -55 -56 -184 -155 -199 -155 -4 0 -23 -11 -44 -24 -42 -26 -170 -72
-228 -82 -110 -19 -241 -5 -352 36 -165 62 -294 159 -452 343 l-32 37 452 0
c447 0 453 0 491 22 28 16 42 31 49 57 13 48 13 57 -6 92 -30 59 -30 59 -631
59 -526 0 -549 -1 -580 -20 -21 -13 -36 -32 -44 -59 -27 -91 20 -204 156 -370
39 -48 131 -135 203 -193 390 -311 834 -320 1230 -25 112 83 244 215 313 312
61 87 83 150 83 235 0 66 -4 83 -33 140 -79 152 -239 325 -406 437 -107 72
-276 145 -390 168 -77 16 -251 14 -335 -4z"/>
</g>
</svg>
