<svg xmlns="http://www.w3.org/2000/svg" width="12" height="12">
    <path d="M10.714 0h-9.43C.576 0 0 .576 0 1.286v9.43C0 11.424.576 12 1.286 12h9.43c.7 0 1.286-.576 1.286-1.286v-9.43C12 .576 11.424 0 10.714 0zM6 2.304c.62 0 1.125.504 1.125 1.125S6.62 4.554 6 4.554 4.875 4.05 4.875 3.43 5.38 2.304 6 2.304zm1.5 6.804a.32.32 0 0 1-.321.321H4.82a.32.32 0 0 1-.321-.321v-.643a.32.32 0 0 1 .321-.321h.32V6.43h-.32a.32.32 0 0 1-.321-.321v-.643a.32.32 0 0 1 .321-.321h1.714a.32.32 0 0 1 .321.321v2.68h.32a.32.32 0 0 1 .321.321v.643z" fill="#e4e9f9" fill-rule="nonzero"/>
</svg>