<svg width="40" height="22" xmlns="http://www.w3.org/2000/svg">
  <g fill="none" fill-rule="evenodd">
    <path fill-rule="nonzero" d="M0-9h40v40H0z"/>
    <path d="M33.143 8.715a1.929 1.929 0 11-3.857-.001 1.929 1.929 0 013.857 0M29.286 12.572a1.929 1.929 0 11-3.858 0 1.929 1.929 0 013.858 0" fill="#9999E6"/>
    <path d="M28.643 1H10.915c-5.192 0-9.66 3.99-9.904 9.176-.262 5.539 4.152 10.11 9.632 10.11a9.618 9.618 0 007.365-3.422 2.145 2.145 0 011.636-.775c.626 0 1.217.278 1.62.757a9.619 9.619 0 007.595 3.438c5.003-.11 9.182-4.178 9.417-9.175A9.644 9.644 0 0028.643 1zM10 7.429v6.429M13.214 10.643H6.785" stroke="#9999E6" stroke-width="2" stroke-linecap="round" stroke-linejoin="round"/>
  </g>
</svg>