<?xml version="1.0" encoding="UTF-8"?>
<svg width="60px" height="60px" viewBox="0 0 60 60" version="1.1" xmlns="http://www.w3.org/2000/svg" xmlns:xlink="http://www.w3.org/1999/xlink" preserveAspectRatio="xMinYMin meet">
  <g stroke="none" stroke-width="1" fill="none" fill-rule="evenodd" stroke-linecap="round" stroke-linejoin="round">
    <path d="M9,6 C9,8.761 6.761,11 4,11 C6.761,11 9,13.239 9,16 C9,13.239 11.239,11 14,11 C11.239,11 9,8.761 9,6 Z" stroke="#66CC88" stroke-width="2"></path>
    <path d="M33.8281,41.625 C34.1751,40.175 35.6241,39 37.0571,39 L50.9871,39 C52.4231,39 53.8661,40.176 54.2101,41.625 L57.9551,57.422 C58.1621,58.293 57.6351,59 56.7671,59 L31.2301,59 C30.3691,59 29.8371,58.3 30.0451,57.431 L33.8281,41.625 Z" stroke="#66CC88" stroke-width="2"></path>
    <path d="M37,48 L38.224,43.194 C38.25,43.087 38.361,43 38.471,43 L43.726,43" stroke="#66CC88" stroke-width="2"></path>
    <path d="M19.8281,21.625 C20.1751,20.175 21.6241,19 23.0561,19 L36.9871,19 C38.4231,19 39.8661,20.176 40.2101,21.625 L43.9551,37.422 C44.1621,38.293 43.6351,39 42.7671,39 L17.2311,39 C16.3691,39 15.8371,38.3 16.0451,37.431 L19.8281,21.625 Z" stroke="#66CC88" stroke-width="2"></path>
    <path d="M23,28 L24.224,23.194 C24.25,23.087 24.361,23 24.47,23 L29.726,23" stroke="#66CC88" stroke-width="2"></path>
    <path d="M5.8281,41.625 C6.1751,40.175 7.6241,39 9.0561,39 L22.9871,39 C24.4231,39 25.8661,40.176 26.2101,41.625 L29.9551,57.422 C30.1611,58.293 29.6351,59 28.7681,59 L3.2311,59 C2.3691,59 1.8371,58.3 2.0451,57.431 L5.8281,41.625 Z" stroke="#66CC88" stroke-width="2"></path>
    <path d="M9,48 L10.224,43.194 C10.25,43.087 10.361,43 10.47,43 L15.726,43" stroke="#66CC88" stroke-width="2"></path>
    <path d="M35.1426,1 C35.1426,3.957 32.7456,6.354 29.7886,6.354 C32.7456,6.354 35.1426,8.75 35.1426,11.707 C35.1426,8.75 37.5386,6.354 40.4966,6.354 C37.5386,6.354 35.1426,3.957 35.1426,1 Z" stroke="#66CC88" stroke-width="2"></path>
    <path d="M53.1426,16 C53.1426,18.957 50.7456,21.354 47.7886,21.354 C50.7456,21.354 53.1426,23.75 53.1426,26.707 C53.1426,23.75 55.5386,21.354 58.4966,21.354 C55.5386,21.354 53.1426,18.957 53.1426,16 Z" stroke="#66CC88" stroke-width="2"></path>
  </g>
</svg>
