<?xml version="1.0" encoding="UTF-8"?>
<svg width="60px" height="53px" viewBox="0 0 60 53" version="1.1" xmlns="http://www.w3.org/2000/svg" xmlns:xlink="http://www.w3.org/1999/xlink">
    <!-- Generator: Sketch 55.1 (78136) - https://sketchapp.com -->
    <title>leaves</title>
    <desc>Created with Sketch.</desc>
    <g id="Page-1" stroke="none" stroke-width="1" fill="none" fill-rule="evenodd">
        <g id="Desktop-HD" transform="translate(-164.000000, -711.000000)" fill="#66CC88" fill-rule="nonzero">
            <path d="M215.878906,711 C204.640625,711 195.207031,720.393304 192.769531,732.968973 C188.667969,724.380134 180.96875,718.571429 172.121094,718.571429 L164,718.571429 L164,720.464286 C164,736.115848 174.652344,748.857143 187.753906,748.857143 L192.125,748.857143 L192.125,763.053571 C192.125,763.574107 192.546875,764 193.0625,764 L194.9375,764 C195.453125,764 195.875,763.574107 195.875,763.053571 L195.875,741.285714 L200.246094,741.285714 C213.347656,741.285714 224,728.54442 224,712.892857 L224,711 L215.878906,711 Z M187.753906,745.071429 C177.242188,745.071429 168.59375,735.039286 167.808594,722.357143 L172.121094,722.357143 C182.632812,722.357143 191.269531,732.389286 192.066406,745.071429 L187.753906,745.071429 Z M200.246094,737.5 L195.933594,737.5 C196.71875,724.817857 205.367188,714.785714 215.878906,714.785714 L220.191406,714.785714 C219.40625,727.467857 210.757812,737.5 200.246094,737.5 L200.246094,737.5 Z" id="leaves"></path>
        </g>
    </g>
</svg>