<?xml version="1.0" encoding="UTF-8"?>
<svg viewBox="0 0 58 58" version="1.1" xmlns="http://www.w3.org/2000/svg" xmlns:xlink="http://www.w3.org/1999/xlink" preserveAspectRatio="xMinYMin meet">
  <g stroke="none" stroke-width="1" fill="none" fill-rule="evenodd" stroke-linejoin="round">
    <g transform="translate(-1.000000, -1.000000)" stroke="#66CC88" stroke-width="2">
      <path d="M21,21 C21,16.038 25.038,12 30,12 C34.962,12 39,16.038 39,21 C39,25.962 34.962,30 30,30 C25.038,30 21,25.962 21,21 Z" stroke-linecap="round"></path>
      <path d="M46.5796,42.168 C46.3386,41.997 40.5536,38 29.9996,38 C19.4466,38 13.6626,41.997 13.4206,42.168 C13.1576,42.353 12.9996,42.665 12.9996,43 L12.9996,49 C12.9996,52.361 15.2076,58 29.9996,58 C44.7906,58 46.9996,52.361 46.9996,49 L46.9996,43 C46.9996,42.665 46.8426,42.353 46.5796,42.168 Z" stroke-linecap="round"></path>
      <path d="M26,45 L26,50" stroke-linecap="round"></path>
      <path d="M34,45 L34,50" stroke-linecap="round"></path>
      <path d="M3,30.9272 C3.363,30.9752 3.733,31.0002 4.109,31.0002 C9.012,31.0002 13,26.7892 13,21.6142 C13,18.4832 11.541,15.7062 9.304,14.0002" stroke-linecap="round"></path>
      <path d="M57,30.9272 C56.637,30.9752 56.267,31.0002 55.891,31.0002 C50.988,31.0002 47,26.7892 47,21.6142 C47,18.4832 48.459,15.7062 50.696,14.0002" stroke-linecap="round"></path>
      <path d="M47,47 C48.69,46.996 49.518,46.993 49.567,46.993 C49.738,46.993 49.91,46.946 50.063,46.848 C55.628,43.308 58.003,39.186 58.002,33.017 C58.002,32.529 57.721,29.098 57.639,28.585 C56.853,23.708 54.82,18.871 51.76,14.596 C49.77,11.924 45.313,2 30.002,2 L30,2"></path>
      <path d="M13.002,47 C11.311,46.996 10.484,46.993 10.435,46.993 C10.264,46.993 10.092,46.946 9.939,46.848 C4.374,43.308 1.999,39.186 2,33.017 C2,32.529 2.281,29.098 2.363,28.585 C3.149,23.708 5.182,18.871 8.242,14.596 C10.232,11.924 14.689,2 30,2 L30.002,2"></path>
    </g>
  </g>
</svg>
