<?xml version="1.0" encoding="UTF-8"?>
<svg width="76px" height="76px" viewBox="0 0 76 76" version="1.1" xmlns="http://www.w3.org/2000/svg" xmlns:xlink="http://www.w3.org/1999/xlink">
    <!-- Generator: Sketch 42 (36781) - http://www.bohemiancoding.com/sketch -->
    <title>javascript</title>
    <desc>Created with Sketch.</desc>
    <defs></defs>
    <g id="Design-(v2)" stroke="none" stroke-width="1" fill="none" fill-rule="evenodd">
        <g id="Project-planner" transform="translate(-1259.000000, -2219.000000)" fill="#B6BABF">
            <g id="Logos" transform="translate(465.000000, 2214.000000)">
                <g id="Unofficial_JavaScript_logo_2" transform="translate(794.000000, 5.000000)">
                    <path d="M0,0 L76,0 L76,76 L0,76 L0,0 Z M51.0526984,59.3753016 L45.2489524,62.7470476 C47.3455873,66.8896508 51.6305397,70.0502857 58.2630476,70.0502857 C65.0463492,70.0502857 70.0973333,66.527746 70.0973333,60.0979048 C70.0973333,54.1337143 66.6713016,51.4809524 60.6033651,48.8788571 L58.8179683,48.1140317 C55.7538413,46.7870476 54.4268571,45.9196825 54.4268571,43.7772063 C54.4268571,42.0436825 55.7526349,40.7166984 57.8444444,40.7166984 C59.8952381,40.7166984 61.2161905,41.5816508 62.4406349,43.7772063 L68.0019048,40.2064127 C65.6495238,36.0686349 62.3851429,34.4883175 57.8444444,34.4883175 C51.4664762,34.4883175 47.3853968,38.5657778 47.3853968,43.9219683 C47.3853968,49.7365714 50.8090159,52.4870476 55.9625397,54.6826032 L57.7479365,55.4486349 C61.0050794,56.8733333 62.9473016,57.7406984 62.9473016,60.1895873 C62.9473016,62.2331429 61.0569524,63.712127 58.0977778,63.712127 C54.5752381,63.712127 52.5835556,61.8748571 51.0526984,59.3753016 Z M25.8243175,59.9941587 L20.0109206,63.5136825 C21.6949841,67.0778413 25.0064127,70.0370159 30.7245079,70.0370159 C37.0530159,70.0370159 41.3886349,66.6713016 41.3886349,59.276381 L41.3886349,34.8960635 L34.2470476,34.8960635 L34.2470476,59.179873 C34.2470476,62.7494603 32.7668571,63.6674921 30.4205079,63.6674921 C27.9667937,63.6674921 26.9462222,61.9846349 25.8243175,59.9941587 Z" id="javascript"></path>
                </g>
            </g>
        </g>
    </g>
</svg>