<?xml version="1.0" encoding="UTF-8"?>
<svg width="79px" height="70px" viewBox="0 0 79 70" version="1.1" xmlns="http://www.w3.org/2000/svg" xmlns:xlink="http://www.w3.org/1999/xlink">
    <!-- Generator: Sketch 42 (36781) - http://www.bohemiancoding.com/sketch -->
    <title>React</title>
    <desc>Created with Sketch.</desc>
    <defs></defs>
    <g id="Design-(v2)" stroke="none" stroke-width="1" fill="none" fill-rule="evenodd">
        <g id="Project-planner" transform="translate(-1060.000000, -2222.000000)" fill="#B6BABF">
            <g id="Logos" transform="translate(465.000000, 2214.000000)">
                <g id="React" transform="translate(595.000000, 8.000000)">
                    <path d="M46.5380285,34.9902664 C46.5380285,38.8613642 43.3806993,41.9996277 39.4860836,41.9996277 C35.591468,41.9996277 32.4341388,38.8613642 32.4341388,34.9902664 C32.4341388,31.1191686 35.591468,27.9809051 39.4860836,27.9809051 C43.3806993,27.9809051 46.5380285,31.1191686 46.5380285,34.9902664 Z" id="Shape"></path>
                    <path d="M39.4860836,22.4154161 C48.5974492,22.4154161 57.2527144,23.6922318 63.8328201,25.9438419 C71.1407741,28.4444714 75.5985018,32.1416019 75.5985018,34.9902664 C75.5985018,38.0246503 70.7842674,41.9640066 62.9673322,44.5383461 C56.744171,46.5877868 48.417933,47.7048373 39.4860836,47.7048373 C30.1029511,47.7048373 21.6827957,46.6095534 15.5318333,44.5197697 C11.6810377,43.2115108 8.50094825,41.5113128 6.32122753,39.6559176 C4.36253926,37.9886669 3.37366548,36.3333518 3.37366548,34.9902664 C3.37366548,32.13202 7.66082754,28.4862423 14.8111728,26.0083397 C21.394031,23.7272679 30.2611396,22.4154161 39.4860836,22.4154161 Z M39.4860836,19.0621227 C29.9027506,19.0621227 20.6642601,20.4289189 13.7005549,22.8419606 C5.33956196,25.7394048 0,30.2801373 0,34.9902664 C0,39.854982 5.73211582,44.7342035 14.4406711,47.6928247 C20.9865882,49.9167939 29.7607826,51.0581307 39.4860836,51.0581307 C48.7546929,51.0581307 57.4312071,49.8940871 64.0283954,47.72147 C73.081772,44.7399351 78.9721673,39.9199858 78.9721673,34.9902664 C78.9721673,30.2631115 73.4603514,25.6917459 64.9309872,22.7731753 C57.9756826,20.393178 48.9527384,19.0621227 39.4860836,19.0621227 Z" id="Shape" fill-rule="nonzero"></path>
                    <path d="M43.7038352,9.54241858 C49.534094,4.49925334 54.9832272,2.50793334 57.465934,3.930995 C60.1105315,5.44683567 61.1388181,11.560211 59.4772747,19.576813 C58.1544459,25.9590852 54.9684443,33.6863794 50.5064011,41.3770592 C45.8188559,49.4563556 40.6578785,56.1591601 35.7635968,60.4114561 C32.6996481,63.0736049 29.6292024,64.9624019 26.9232333,65.9123034 C24.4916732,66.7658765 22.5549715,66.7903738 21.3843531,66.1193944 C18.8933376,64.6914641 17.8577035,59.1788077 19.2702877,51.7841896 C20.5706933,44.9766976 23.8570816,36.6865512 28.4657629,28.7431998 C33.0174883,20.8980831 38.4542357,14.0833871 43.7038352,9.54241858 Z M15.9558395,51.1586634 C14.3040968,59.8052321 15.593959,66.6711385 19.698967,69.0242614 C23.9389052,71.454525 31.0548719,68.9565411 37.9839108,62.936162 C43.1924437,58.4108353 48.5704318,51.4261889 53.4289203,43.0522603 C58.0591932,35.0716235 61.3792208,27.019264 62.7815499,20.2534257 C64.7059175,10.9687517 63.4477659,3.48878148 59.1512732,1.02610112 C55.0314151,-1.33535856 48.2937983,1.12682227 41.4891002,7.01287598 C35.9401651,11.8127736 30.2724691,18.9169524 25.5432509,27.0679863 C20.7555205,35.3199399 17.3314801,43.9573235 15.9558395,51.1586634 Z" id="Shape" fill-rule="nonzero"></path>
                    <path d="M19.3504593,18.6841493 C17.8663423,11.144936 18.8520566,5.45793957 21.3323939,4.03075443 C23.9744541,2.51042295 29.8166137,4.67804768 35.9741616,10.1124891 C40.8765438,14.4389635 46.0206277,21.0415176 50.4957249,28.7249459 C55.1968538,36.7963929 58.4618212,44.5882121 59.7240554,50.9265256 C60.5142831,54.8945139 60.6271862,58.481873 60.103739,61.2864529 C59.6333751,63.8066173 58.6875038,65.4865759 57.5180269,66.1595066 C55.0293048,67.5915605 49.7070185,65.7302862 43.9671848,60.8208444 C38.6831188,56.3012502 33.0984051,49.3309637 28.4762939,41.3952939 C23.911443,33.5576994 20.6867385,25.4725623 19.3504593,18.6841493 Z M41.7666538,63.3626046 C48.4782939,69.1032599 55.1071292,71.4214517 59.2082746,69.0615815 C63.4440692,66.6242557 64.820598,59.2489466 63.0335082,50.2753931 C61.6902279,43.530106 58.2879778,35.4106629 53.4154182,27.0448835 C48.771603,19.0717782 43.411111,12.1914591 38.214119,7.60498421 C31.0825882,1.31093886 23.9344358,-1.34125023 19.6421411,1.12868247 C15.5262064,3.49698968 14.3074065,10.5287541 16.0395745,19.3280497 C17.4520468,26.50353 20.8137363,34.9321227 25.5566026,43.0753598 C30.3582796,51.3193248 36.1768937,58.5815425 41.7666538,63.3626046 Z" id="Shape" fill-rule="nonzero"></path>
                </g>
            </g>
        </g>
    </g>
</svg>