<?xml version="1.0" encoding="UTF-8"?>
<svg width="79px" height="75px" viewBox="0 0 79 75" version="1.1" xmlns="http://www.w3.org/2000/svg" xmlns:xlink="http://www.w3.org/1999/xlink">
    <!-- Generator: Sketch 42 (36781) - http://www.bohemiancoding.com/sketch -->
    <title>Redux</title>
    <desc>Created with Sketch.</desc>
    <defs></defs>
    <g id="Design-(v2)" stroke="none" stroke-width="1" fill="none" fill-rule="evenodd">
        <g id="Project-planner" transform="translate(-663.000000, -2219.000000)" fill="#B6BABF">
            <g id="Logos" transform="translate(465.000000, 2214.000000)">
                <path d="M252.6,57.4 L252.6,57.4 C247.1,68.7 237.4,76.3 224.6,78.8 C222.6,79.3 220.6,79.5 218.6,79.5 C211.2,79.5 204.5,76.4 201.2,71.4 C196.8,64.7 195.3,50.5 209.8,40 C210.1,41.6 210.7,43.8 211.1,45.1 C209.2,46.5 206.2,49.3 204.3,53.1 C201.6,58.4 201.9,63.7 205.1,68.6 C207.3,71.9 210.8,73.9 215.3,74.5 C220.8,75.2 226.3,74.2 231.6,71.4 C239.4,67.3 244.6,62.4 248,55.7 C247.1,54.8 246.5,53.5 246.4,52 C246.3,48.9 248.7,46.3 251.8,46.2 L252,46.2 C255,46.2 257.5,48.6 257.6,51.6 C257.7,54.6 255.5,57.1 252.6,57.4 Z M270.2,45 C277.7,53.5 277.9,63.5 275,69.3 C272.3,74.6 265.2,79.9 255.6,79.9 C251.4,79.9 247,78.8 242.7,76.8 C244.1,75.8 246.1,74.2 247.2,73.2 C249.2,74.1 253,75.3 257,75.3 C263.2,75.3 267.9,72.4 270.7,67.1 C272.5,63.6 272.6,59.5 270.9,55.3 C268.9,50.1 265.3,45.8 260.3,42.5 C253.8,38.2 246.6,36 239,36 L237.2,36 C236.4,37.9 234.5,39.3 232.3,39.4 L232.1,39.4 C229.1,39.4 226.6,37 226.5,34 C226.4,30.9 228.8,28.3 231.9,28.2 L232.1,28.2 C234.2,28.2 236.1,29.4 237,31.2 L238.6,31.2 C251.4,31.2 262.6,36.1 270.2,45 Z M219.4,59.1 L219.4,59.1 C219.3,58 219.6,56.9 220.1,56.2 C214.5,46.5 211.5,34.2 216.1,21.4 C219.4,11.8 227.7,5.3 236.7,5.3 C246.3,5.3 256.3,13.7 257.5,29.9 C256,29.4 253.8,28.7 252.5,28.4 C252.2,23.1 247.7,9.9 237.1,10.1 C233.3,10.2 227.7,12 224.8,15.7 C221.3,20 219.3,25.2 218.9,31.2 C218.3,39.2 220,46.6 224.1,53.4 C224.3,53.3 224.6,53.3 224.8,53.3 L225,53.3 C228,53.3 230.5,55.7 230.6,58.7 C230.7,61.8 228.3,64.4 225.2,64.5 L225,64.5 C222,64.5 219.5,62.1 219.4,59.1 Z" id="Redux"></path>
            </g>
        </g>
    </g>
</svg>