<?xml version="1.0" encoding="UTF-8"?>
<svg width="78px" height="75px" viewBox="0 0 78 75" version="1.1" xmlns="http://www.w3.org/2000/svg" xmlns:xlink="http://www.w3.org/1999/xlink">
    <!-- Generator: Sketch 42 (36781) - http://www.bohemiancoding.com/sketch -->
    <title>ruby</title>
    <desc>Created with Sketch.</desc>
    <defs></defs>
    <g id="Design-(v2)" stroke="none" stroke-width="1" fill="none" fill-rule="evenodd">
        <g id="Project-planner" transform="translate(-465.000000, -2219.000000)" fill="#B6BABF">
            <g id="Logos" transform="translate(465.000000, 2214.000000)">
                <path d="M55.4804923,50.3027636 L55.4804923,50.3027636 C61.2694177,59.9709558 67.0100801,69.5581764 72.901674,79.3988734 C55.6059761,77.0304524 38.646364,74.708678 21.3787463,72.3437775 C32.9092116,64.8926245 44.1430789,57.6306988 55.4804923,50.3027636 Z M77.7771128,17.8762542 L77.7771128,17.8762542 L78,17.9422637 L74.9611871,78.8391128 C73.9380119,77.5717303 73.1377239,76.2559409 72.3470885,74.9348706 C67.3356359,66.5719064 62.3364684,58.1992607 57.296058,49.8530188 C56.8871389,49.1770815 57.2635901,48.8285513 57.5540455,48.3884879 C62.7690802,40.5078331 67.9885024,32.6306988 73.2096796,24.7526844 C74.7295248,22.4590741 76.254635,20.1681042 77.7771128,17.8762542 Z M8.98217982,43.8998416 C7.8896814,42.8630523 6.86913869,41.7488118 5.74417244,40.5817638 C7.75454505,37.5638092 9.67453425,34.6303468 11.6559491,31.7382503 C12.2535325,30.8651646 12.9537845,30.0352051 13.7224822,29.3091005 C16.6182612,26.5719064 19.553528,23.8760782 22.4905499,21.1864108 C24.3140131,19.5176905 25.9918099,17.6034149 28.051323,16.3043478 C32.1668392,13.7070938 36.4964675,11.4530892 40.7462425,9.07146629 C41.0182702,8.92008449 41.4096391,8.74669952 41.6588516,8.83383207 C43.4945999,9.47632459 45.3084106,10.1830664 47.2222572,10.9021299 C45.6172937,14.0996303 44.0684907,17.2055976 42.4916074,20.2974828 C42.3301458,20.6116881 42.0133651,20.8519627 41.7439699,21.1010385 C37.352916,25.1566626 32.9618621,29.2114064 28.5629106,33.2573491 C27.2334848,34.478965 26.048848,35.9866221 24.5079426,36.826263 C19.7790478,39.4059145 14.9141391,41.7356099 10.0799433,44.1189931 C9.80703807,44.2536525 9.21822968,44.1242739 8.98217982,43.8998416 Z M26.649064,39.9454321 L26.649064,39.9454321 C35.6593241,42.8709734 44.5756908,45.7657103 53.5201377,48.6701285 C42.2810053,55.9338145 30.9664072,63.2459074 19.3841688,70.7305052 C21.8534785,60.2657983 24.2455675,50.1346594 26.649064,39.9454321 Z M45.8112231,22.8348882 C55.4875124,21.2136948 65.0391954,19.6136244 74.8242957,17.9739482 C68.3825038,27.6817462 62.0837458,37.1730329 55.6568716,46.8553072 L45.8112231,22.8348882 Z M27.052718,37.861292 L27.052718,37.861292 L43.6472865,22.6421405 C46.901089,30.5896849 50.0882009,38.3717655 53.3885114,46.4363668 C44.50198,43.5433902 35.8646611,40.7313853 27.052718,37.861292 Z M9.34634596,49.8415772 L9.34634596,49.8415772 C12.1780668,57.1695124 14.903609,64.2246083 17.6835568,71.4205246 C11.7621276,71.5956698 6.03550536,71.7655342 0.12899379,71.9406795 L9.34634596,49.8415772 Z M17.8924039,66.2955466 L17.8924039,66.2955466 C15.3844838,59.7958106 12.8239132,53.1948601 10.4239267,46.9353987 C15.1291288,44.4824855 19.7079696,42.0955818 24.5079426,39.5942616 C22.3554136,48.7273367 20.2169247,57.4573139 18.1100261,66.2480197 L17.8924039,66.2955466 Z M71.2817928,16.5490231 L71.2817928,16.5490231 L71.2765278,16.7329695 C62.6067411,18.0505193 53.9351994,19.3689491 45.2057421,20.6953001 C45.2399649,20.4708678 45.2311898,20.3529308 45.2759428,20.2622778 C46.7220772,17.3481781 48.1910269,14.4437599 49.6143461,11.5182186 C49.9100666,10.910051 50.2751103,10.9971836 50.7779228,11.1309629 C54.8065656,12.2038374 58.8404734,13.2547087 62.8708712,14.3170217 C65.6771443,15.0563281 68.4781523,15.8044358 71.2817928,16.5490231 Z M55.0198002,9.89350466 L55.0198002,9.89350466 L55.054023,9.67875374 C61.3747187,8.27319134 67.6954145,6.86762894 74.0924534,5.444464 L77.8674962,16.2330576 C70.0760958,14.0714663 62.547948,11.9829255 55.0198002,9.89350466 Z M61.9363244,79.7386024 L61.8950815,80 C42.4064891,78.1913396 22.9152642,76.3844394 3.42579426,74.576659 C3.66710917,74.3152614 3.90930159,74.2659743 4.15237152,74.2589333 C6.50936009,74.1841225 8.86722617,74.0943496 11.2250923,74.0538638 C14.0945459,74.0054568 16.9999775,73.7044534 19.8299433,74.0309805 C27.6336288,74.9331104 35.4057241,76.1063193 43.1918594,77.1721528 L61.9363244,79.7386024 Z M0.513342633,65.1953881 C0.427346773,65.3978173 0.286067861,65.5738426 0.169359194,65.7621898 L0,65.6812181 L4.59902349,42.9114593 C5.75294753,44.1137124 6.73224732,45.1989086 7.78789038,46.2066538 C8.28192782,46.6775216 8.3003555,47.0744587 8.04763298,47.6615033 C5.52567276,53.5011442 3.02652777,59.3504665 0.513342633,65.1953881 Z M50.0153677,8.35064249 L50.0153677,8.35064249 C48.2945729,8.79598662 46.9669022,8.23182538 45.2425974,7.47579651 L63.596571,5 L63.6378139,5.20947016 C63.3657862,5.28780144 63.0955135,5.37933462 62.8199757,5.44182362 C58.548263,6.39852139 54.2511025,7.25400458 50.0153677,8.35064249 Z" id="ruby"></path>
            </g>
        </g>
    </g>
</svg>