<?xml version="1.0" encoding="UTF-8"?>
<svg width="10px" height="16px" viewBox="0 0 10 16" version="1.1" xmlns="http://www.w3.org/2000/svg" xmlns:xlink="http://www.w3.org/1999/xlink">
    <title>Path</title>
    <g id="1680-wide" stroke="none" stroke-width="1" fill="none" fill-rule="evenodd">
        <g id="Holiday-Extras-(dark)" transform="translate(-268.000000, -8405.000000)" fill="#F6F7FA" fill-rule="nonzero">
            <g id="Group-82" transform="translate(240.000000, 8050.000000)">
                <g id="Group-92" transform="translate(0.000000, 297.000000)">
                    <g id="Group-89" transform="translate(0.000000, 33.000000)">
                        <g id="Group-88">
                            <g id="Group-93" transform="translate(15.000000, 15.000000)">
                                <path d="M22.8769798,20.5576955 L22.1953891,19.857422 C22.0284689,19.6859264 21.7607011,19.6894992 21.600736,19.8645676 L19,22.7478368 L19,10.4287389 C19,10.1929325 18.7144079,10 18.4848927,10 L17.5111916,10 C17.2816764,10 17,10.1929325 17,10.4287389 L17,22.7478368 L14.3988259,19.8645676 C14.2353832,19.6930721 13.9676154,19.6894992 13.8041727,19.857422 L13.122582,20.5576955 C12.9591393,20.7256183 12.9591393,20.9971529 13.122582,21.1650756 L17.7059318,25.8740579 C17.8693745,26.0419807 18.1336648,26.0419807 18.2971075,25.8740579 L22.8804573,21.1650756 C23.0404225,20.9971529 23.0404225,20.7256183 22.8769798,20.5576955 Z" id="Path"></path>
                            </g>
                        </g>
                    </g>
                </g>
            </g>
        </g>
    </g>
</svg>