<svg width="40" height="30" xmlns="http://www.w3.org/2000/svg">
  <g fill="none" fill-rule="evenodd">
    <path fill-rule="nonzero" d="M0-5h40v40H0z"/>
    <path d="M38.572 26.32C25.963 22.538 13.455 31.018 1 26.788V3.467c12.455 4.23 24.963-4.25 37.572-.468v23.32zM6.83 27.921c0-3.22-2.61-5.86-5.83-6.964M1 9.297C4.22 10.4 6.83 7.82 6.83 4.6M32.742 24.71c0-3.22 1.962-5.324 5.183-4.22M38.572 8.83c-3.22-1.104-5.83-3.306-5.83-6.526" stroke="#9999E6" stroke-width="2" stroke-linecap="round" stroke-linejoin="round"/>
    <path d="M24.969 15.001c0 3.578-2.32 6.478-5.183 6.478-2.862 0-5.182-2.9-5.182-6.478 0-3.577 2.32-6.478 5.182-6.478 2.863 0 5.183 2.9 5.183 6.478z" stroke="#9999E6" stroke-width="2" stroke-linecap="round" stroke-linejoin="round"/>
  </g>
</svg>