<?xml version="1.0" encoding="UTF-8"?>
<svg width="40px" height="30px" viewBox="0 0 40 30" version="1.1" xmlns="http://www.w3.org/2000/svg" xmlns:xlink="http://www.w3.org/1999/xlink">
    <title>Icon</title>
    <desc>Created with Sketch.</desc>
    <g id="Page-1" stroke="none" stroke-width="1" fill="none" fill-rule="evenodd">
        <g id="Icon-/-Money" transform="translate(0.000000, -5.000000)">
            <g id="Icon">
                <rect id="Background" fill-rule="nonzero" x="0" y="0" width="40" height="40"></rect>
                <path d="M38.5724007,31.3198679 C25.9629735,27.5380114 13.454603,36.0177135 1,31.7875795 L1,8.46677904 C13.454603,12.6969131 25.9629735,4.21721096 38.5724007,7.99906743 L38.5724007,31.3198679 Z" id="Stroke-33" stroke="#9999E6" stroke-width="2" stroke-linecap="round" stroke-linejoin="round"></path>
                <path d="M6.83020011,32.9210351 C6.83020011,29.7008213 4.22021386,27.0603884 1,25.957185" id="Stroke-35" stroke="#9999E6" stroke-width="2" stroke-linecap="round" stroke-linejoin="round"></path>
                <path d="M1,14.2967848 C4.22021386,15.3999882 6.83020011,12.8204486 6.83020011,9.60023472" id="Stroke-37" stroke="#9999E6" stroke-width="2" stroke-linecap="round" stroke-linejoin="round"></path>
                <path d="M32.7422006,29.7106178 C32.7422006,26.4904039 34.7043868,24.3864643 37.9246007,25.4896678" id="Stroke-39" stroke="#9999E6" stroke-width="2" stroke-linecap="round" stroke-linejoin="round"></path>
                <path d="M38.5724007,13.8292675 C35.3521868,12.7260641 32.7422006,10.5235441 32.7422006,7.30397802" id="Stroke-41" stroke="#9999E6" stroke-width="2" stroke-linecap="round" stroke-linejoin="round"></path>
                <path d="M24.9686004,20.0010526 C24.9686004,23.5788521 22.6488286,26.4790527 19.7862003,26.4790527 C16.9242199,26.4790527 14.6038003,23.5788521 14.6038003,20.0010526 C14.6038003,16.4239009 16.9242199,13.5230525 19.7862003,13.5230525 C22.6488286,13.5230525 24.9686004,16.4239009 24.9686004,20.0010526 Z" id="Stroke-43" stroke="#9999E6" stroke-width="2" stroke-linecap="round" stroke-linejoin="round"></path>
            </g>
        </g>
    </g>
</svg>