<?xml version="1.0" encoding="UTF-8"?>
<svg width="60px" height="42px" viewBox="0 0 60 42" version="1.1" xmlns="http://www.w3.org/2000/svg" xmlns:xlink="http://www.w3.org/1999/xlink">
    <!-- Generator: Sketch 55.1 (78136) - https://sketchapp.com -->
    <title>cash</title>
    <desc>Created with Sketch.</desc>
    <g id="Page-1" stroke="none" stroke-width="1" fill="none" fill-rule="evenodd">
        <g id="Desktop-HD" transform="translate(-1244.000000, -798.000000)" fill="#66CC88" fill-rule="nonzero">
            <path d="M1274,808.5 C1269.02938,808.5 1265,813.200625 1265,819 C1265,824.798437 1269.02938,829.5 1274,829.5 C1278.96875,829.5 1283,824.800313 1283,819 C1283,813.200625 1278.97062,808.5 1274,808.5 Z M1274,826.5 C1270.69156,826.5 1268,823.135313 1268,819 C1268,814.864687 1270.69156,811.5 1274,811.5 C1277.30844,811.5 1280,814.864687 1280,819 C1280,823.135313 1277.30844,826.5 1274,826.5 Z M1302.23375,800.105625 C1298.59719,798.580312 1294.95781,798 1291.32031,798 C1279.77312,797.999063 1268.22688,803.844375 1256.67969,803.844375 C1250.59437,803.844375 1248.39687,802.40625 1247.02344,802.40625 C1245.41,802.40625 1244,803.655 1244,805.388438 L1244,835.131562 C1244,836.315625 1244.67781,837.437812 1245.76625,837.893438 C1249.40281,839.419688 1253.04219,840 1256.67969,840 C1268.22688,840 1279.77312,834.154688 1291.32031,834.154688 C1297.40563,834.154688 1299.60219,835.59375 1300.97656,835.59375 C1302.59,835.59375 1304,834.345 1304,832.611562 L1304,802.868438 C1304,801.683437 1303.32219,800.562188 1302.23375,800.105625 Z M1247.08906,805.430625 C1248.98469,806.0325 1250.93563,806.417812 1252.96438,806.639063 C1252.77969,809.77125 1250.22406,812.267812 1247.06844,812.304375 L1247.08906,805.430625 Z M1247,835.131562 L1247.01219,831.143438 C1250.16031,831.15 1252.71969,833.61 1252.95406,836.715 C1250.84938,836.43 1248.86375,835.922812 1247,835.131562 Z M1300.91094,832.569375 C1299.02094,831.969375 1297.07656,831.584062 1295.05437,831.362813 C1295.32531,828.315938 1297.83781,825.912187 1300.93156,825.876562 L1300.91094,832.569375 Z M1300.94,822.8625 C1296.2525,822.894375 1292.44719,826.54875 1292.07312,831.16875 C1285.44219,831.034688 1279.2125,832.651875 1273.26688,834.156562 C1266.22906,835.937812 1261.40375,837.0825 1255.97844,836.956875 C1255.86313,832.08 1251.90219,828.143438 1247.02062,828.132187 L1247.05906,815.319375 C1251.8075,815.2875 1255.65781,811.539375 1255.94469,806.833125 C1262.55687,806.965312 1268.79031,805.349062 1274.73219,803.845312 C1281.74375,802.069687 1286.59063,800.918437 1292.00281,801.043125 C1292.01969,806.005312 1296.035,810.0375 1300.97844,810.049688 L1300.94,822.8625 L1300.94,822.8625 Z M1300.98781,807.0375 C1297.77781,807.030938 1295.17156,804.474375 1295.02719,801.283125 C1297.13937,801.567188 1299.13156,802.075312 1301,802.868438 L1300.98781,807.0375 Z" id="cash"></path>
        </g>
    </g>
</svg>