<?xml version="1.0" encoding="UTF-8"?>
<svg width="60px" height="53px" viewBox="0 0 60 53" version="1.1" xmlns="http://www.w3.org/2000/svg" xmlns:xlink="http://www.w3.org/1999/xlink">
    <!-- Generator: Sketch 55.1 (78136) - https://sketchapp.com -->
    <title>coins</title>
    <desc>Created with Sketch.</desc>
    <g id="Page-1" stroke="none" stroke-width="1" fill="none" fill-rule="evenodd">
        <g id="Desktop-HD" transform="translate(-781.000000, -830.000000)" fill="#66CC88" fill-rule="nonzero">
            <path d="M820.375,830 C814.679688,830 809.523438,831.064732 805.785156,832.768304 C805.679688,832.815625 799.75,835.252679 799.75,839.464286 L799.75,841.439955 C789.917969,841.854018 781,845.545089 781,850.821429 L781,873.535714 C781,878.764732 790.234375,883 801.625,883 C813.015625,883 822.25,878.764732 822.25,873.535714 L822.25,871.595536 C832.761719,871.157812 841,867.11183 841,862.178571 L841,839.464286 C841,835.087054 833.722656,830 820.375,830 Z M818.5,873.535714 C818.5,875.180134 812.582031,879.214286 801.625,879.214286 C790.667969,879.214286 784.75,875.180134 784.75,873.535714 L784.75,867.608705 C788.476562,870.045759 794.640625,871.642857 801.625,871.642857 C808.609375,871.642857 814.773438,870.045759 818.5,867.608705 L818.5,873.535714 Z M818.5,862.178571 C818.5,863.822991 812.582031,867.857143 801.625,867.857143 C790.667969,867.857143 784.75,863.822991 784.75,862.178571 L784.75,856.251562 C788.476562,858.688616 794.640625,860.285714 801.625,860.285714 C808.609375,860.285714 814.773438,858.688616 818.5,856.251562 L818.5,862.178571 Z M801.625,856.5 C792.132812,856.5 784.433594,853.956473 784.433594,850.821429 C784.433594,847.686384 792.132812,845.142857 801.625,845.142857 C811.117188,845.142857 818.816406,847.686384 818.816406,850.821429 C818.816406,853.956473 811.117188,856.5 801.625,856.5 Z M837.25,862.178571 C837.25,863.728348 831.976562,867.336607 822.25,867.77433 L822.25,860.191071 C828.4375,859.930804 833.863281,858.463839 837.25,856.251562 L837.25,862.178571 Z M837.25,850.821429 C837.25,852.371205 831.964844,855.955804 822.25,856.405357 L822.25,850.821429 C822.25,850.158929 822.050781,849.520089 821.769531,848.89308 C828.167969,848.691964 833.769531,847.177679 837.25,844.89442 L837.25,850.821429 Z M820.375,845.142857 C819.519531,845.142857 818.734375,845.083705 817.925781,845.036384 C813.601562,842.469196 807.964844,841.700223 804.378906,841.487277 C803.640625,840.860268 803.195312,840.185938 803.195312,839.464286 C803.195312,836.329241 810.894531,833.785714 820.386719,833.785714 C829.878906,833.785714 837.578125,836.329241 837.578125,839.464286 C837.578125,842.59933 829.867188,845.142857 820.375,845.142857 Z" id="coins"></path>
        </g>
    </g>
</svg>