<?xml version="1.0" encoding="UTF-8"?>
<svg width="39px" height="35px" viewBox="0 0 39 35" version="1.1" xmlns="http://www.w3.org/2000/svg" xmlns:xlink="http://www.w3.org/1999/xlink">
    <title>Stack of coins icon</title>
    <g id="Page-1" stroke="none" stroke-width="1" fill="none" fill-rule="evenodd" stroke-linecap="round" stroke-linejoin="round">
        <g id="coins" transform="translate(1.000000, 1.000000)" stroke="#9999E6" stroke-width="2">
            <g id="group" transform="translate(0.000000, 8.000000)">
                <ellipse id="Oval" cx="12" cy="5" rx="12" ry="5"></ellipse>
                <path d="M0,12 C0,14.7614237 5.372583,17 12,17 C18.627417,17 24,14.7614237 24,12" id="Path"></path>
                <path d="M0,5 L0,20 C0,22.7614237 5.372583,25 12,25 C18.627417,25 24,22.7614237 24,20 C24,18.1590508 24,13.1590508 24,5" id="Path"></path>
            </g>
            <g id="group" transform="translate(12.500000, 0.000000)">
                <path d="M12.5,17 C19.127417,17 24.5,14.7614237 24.5,12" id="Path"></path>
                <path d="M0.5,5 L0.5,8 M12.5,25 C19.127417,25 24.5,22.7614237 24.5,20 C24.5,18.1590508 24.5,13.1590508 24.5,5" id="Shape"></path>
                <path d="M8.97499789,9.78080052 C10.0896004,9.92330687 11.273305,10 12.5,10 C19.127417,10 24.5,7.76142375 24.5,5 C24.5,2.23857625 19.127417,0 12.5,0 C5.872583,0 0.5,2.23857625 0.5,5 C0.5,6.15836195 1.4453782,7.22472184 3.03219063,8.07243637" id="Path"></path>
            </g>
        </g>
    </g>
</svg>