<?xml version="1.0" encoding="UTF-8"?>
<svg width="60px" height="60px" viewBox="0 0 60 60" version="1.1" xmlns="http://www.w3.org/2000/svg" xmlns:xlink="http://www.w3.org/1999/xlink">
    <!-- Generator: Sketch 55.1 (78136) - https://sketchapp.com -->
    <title>communicate</title>
    <desc>Created with Sketch.</desc>
    <g id="Page-1" stroke="none" stroke-width="1" fill="none" fill-rule="evenodd">
        <g id="Desktop-HD" transform="translate(-170.000000, -809.000000)" fill="#66CC88" fill-rule="nonzero">
            <path d="M222.5,809 L177.5,809 C173.363281,809 170,812.363281 170,816.5 L170,850.25 C170,854.386719 173.363281,857.75 177.5,857.75 L188.75,857.75 L188.75,867.59375 C188.75,868.425781 189.429688,869 190.15625,869 C190.4375,869 190.730469,868.917969 190.988281,868.71875 L205.625,857.75 L222.5,857.75 C226.636719,857.75 230,854.386719 230,850.25 L230,816.5 C230,812.363281 226.636719,809 222.5,809 Z M226.25,850.25 C226.25,852.3125 224.5625,854 222.5,854 L204.371094,854 L203.375,854.75 L192.5,862.90625 L192.5,854 L177.5,854 C175.4375,854 173.75,852.3125 173.75,850.25 L173.75,816.5 C173.75,814.4375 175.4375,812.75 177.5,812.75 L222.5,812.75 C224.5625,812.75 226.25,814.4375 226.25,816.5 L226.25,850.25 Z M208.882812,836.808594 C206.679688,839.398438 203.445312,840.875 200,840.875 C196.554688,840.875 193.320312,839.398438 191.117188,836.820312 C190.449219,836.035156 189.265625,835.953125 188.480469,836.609375 C187.683594,837.289062 187.601562,838.460938 188.269531,839.257812 C191.175781,842.667969 195.453125,844.625 200,844.625 C204.546875,844.625 208.824219,842.667969 211.742188,839.246094 C212.421875,838.460938 212.316406,837.277344 211.53125,836.597656 C210.746094,835.929688 209.5625,836.023438 208.882812,836.808594 L208.882812,836.808594 Z M192.5,830.5625 C194.058594,830.5625 195.3125,829.308594 195.3125,827.75 C195.3125,826.191406 194.058594,824.9375 192.5,824.9375 C190.941406,824.9375 189.6875,826.191406 189.6875,827.75 C189.6875,829.308594 190.941406,830.5625 192.5,830.5625 Z M207.5,830.5625 C209.058594,830.5625 210.3125,829.308594 210.3125,827.75 C210.3125,826.191406 209.058594,824.9375 207.5,824.9375 C205.941406,824.9375 204.6875,826.191406 204.6875,827.75 C204.6875,829.308594 205.941406,830.5625 207.5,830.5625 Z" id="communicate"></path>
        </g>
    </g>
</svg>