<?xml version="1.0" encoding="UTF-8"?>
<svg width="40px" height="40px" viewBox="0 0 40 40" version="1.1" xmlns="http://www.w3.org/2000/svg" xmlns:xlink="http://www.w3.org/1999/xlink">
    <title>Happy speech bubble icon</title>
    <g id="Page-1" stroke="none" stroke-width="1" fill="none" fill-rule="evenodd">
        <g id="Icon-/-Communicate">
            <g id="Icon">
                <rect id="Background" fill-rule="nonzero" x="0" y="0" width="40" height="40"></rect>
                <path d="M35.6440343,1.00006431 L3.65481457,1.00006431 C2.18859912,1.00006431 1.00019292,2.18847051 1.00019292,3.65468595 L1.00019292,29.2729424 C1.00019292,30.7385147 2.18859912,31.927564 3.65481457,31.927564 L6.64640853,31.927564 C6.64640853,31.927564 7.40781164,35.0683518 5.50173156,38.2985273 C5.50173156,38.2985273 14.4983781,38.2978843 15.776815,31.927564 L35.6440343,31.927564 C37.1096067,31.927564 38.2986559,30.7385147 38.2986559,29.2729424 L38.2986559,3.65468595 C38.2986559,2.18847051 37.1096067,1.00006431 35.6440343,1.00006431 Z" id="Stroke-1" stroke="#9999E6" stroke-width="2" stroke-linecap="round" stroke-linejoin="round"></path>
                <path d="M9.97304559,12.5453534 C9.97304559,11.1087195 11.138301,9.94346405 12.575578,9.94346405 C14.0122119,9.94346405 15.1774673,11.1087195 15.1774673,12.5453534" id="Stroke-3" stroke="#9999E6" stroke-width="2" stroke-linecap="round" stroke-linejoin="round"></path>
                <path d="M24.1207385,12.5453534 C24.1207385,11.1087195 25.2859939,9.94346405 26.7232709,9.94346405 C28.1599048,9.94346405 29.3251602,11.1087195 29.3251602,12.5453534" id="Stroke-5" stroke="#9999E6" stroke-width="2" stroke-linecap="round" stroke-linejoin="round"></path>
                <path d="M24.7939757,19.5896826 C24.7939757,21.7536365 22.4904741,23.5079504 19.6493601,23.5079504 C16.8076031,23.5079504 14.5047445,21.7536365 14.5047445,19.5896826" id="Stroke-7" stroke="#9999E6" stroke-width="2" stroke-linecap="round" stroke-linejoin="round"></path>
            </g>
        </g>
    </g>
</svg>