<?xml version="1.0" encoding="UTF-8"?>
<svg width="60px" height="32px" viewBox="0 0 60 32" version="1.1" xmlns="http://www.w3.org/2000/svg" xmlns:xlink="http://www.w3.org/1999/xlink">
    <!-- Generator: Sketch 55.1 (78136) - https://sketchapp.com -->
    <title>game</title>
    <desc>Created with Sketch.</desc>
    <g id="Page-1" stroke="none" stroke-width="1" fill="none" fill-rule="evenodd">
        <g id="Desktop-HD" transform="translate(-1034.000000, -716.000000)" fill="#66CC88" fill-rule="nonzero">
            <path d="M1078.25,719.047619 C1085.3,719.047619 1091,724.838095 1091,732 C1091,739.161905 1085.3,744.952381 1078.25,744.952381 C1074.30312,744.952381 1070.75,742.666667 1069.15625,741.142857 L1058.84375,741.142857 C1057.25,742.666667 1054.80312,744.952381 1049.75,744.952381 C1042.7,744.952381 1037,739.161905 1037,732 C1037,724.838095 1042.7,719.047619 1049.75,719.047619 L1078.25,719.047619 L1078.25,719.047619 Z M1078.25,716 L1049.75,716 C1041.05,716 1034,723.161905 1034,732 C1034,740.838095 1041.05,748 1049.75,748 C1053.64062,748 1057.20312,746.561905 1059.95,744.190476 L1068.05,744.190476 C1070.79688,746.561905 1074.35938,748 1078.25,748 C1086.95,748 1094,740.838095 1094,732 C1094,723.161905 1086.95,716 1078.25,716 Z M1082,725.52381 C1080.13438,725.52381 1078.625,727.057143 1078.625,728.952381 C1078.625,730.847619 1080.13438,732.380952 1082,732.380952 C1083.86562,732.380952 1085.375,730.847619 1085.375,728.952381 C1085.375,727.057143 1083.86562,725.52381 1082,725.52381 Z M1076,731.619048 C1074.13438,731.619048 1072.625,733.152381 1072.625,735.047619 C1072.625,736.942857 1074.13438,738.47619 1076,738.47619 C1077.86562,738.47619 1079.375,736.942857 1079.375,735.047619 C1079.375,733.152381 1077.86562,731.619048 1076,731.619048 Z M1050.875,730.095238 L1050.875,725.714286 C1050.875,725.4 1050.62188,725.142857 1050.3125,725.142857 L1047.6875,725.142857 C1047.37812,725.142857 1047.125,725.4 1047.125,725.714286 L1047.125,730.095238 L1042.8125,730.095238 C1042.50312,730.095238 1042.25,730.352381 1042.25,730.666667 L1042.25,733.333333 C1042.25,733.647619 1042.50312,733.904762 1042.8125,733.904762 L1047.125,733.904762 L1047.125,738.285714 C1047.125,738.6 1047.37812,738.857143 1047.6875,738.857143 L1050.3125,738.857143 C1050.62188,738.857143 1050.875,738.6 1050.875,738.285714 L1050.875,733.904762 L1055.1875,733.904762 C1055.49688,733.904762 1055.75,733.647619 1055.75,733.333333 L1055.75,730.666667 C1055.75,730.352381 1055.49688,730.095238 1055.1875,730.095238 L1050.875,730.095238 Z" id="game"></path>
        </g>
    </g>
</svg>