<?xml version="1.0" encoding="UTF-8"?>
<svg width="40px" height="22px" viewBox="0 0 40 22" version="1.1" xmlns="http://www.w3.org/2000/svg" xmlns:xlink="http://www.w3.org/1999/xlink">
    <title>Gaming controller icon</title>
    <g id="Page-1" stroke="none" stroke-width="1" fill="none" fill-rule="evenodd">
        <g id="Icon-/-Controller" transform="translate(0.000000, -9.000000)">
            <g id="Icon">
                <rect id="Background" fill-rule="nonzero" x="0" y="0" width="40" height="40"></rect>
                <path d="M33.1434901,17.7145596 C33.1434901,18.7791689 32.2801023,19.6431995 31.2148502,19.6431995 C30.150241,19.6431995 29.2862103,18.7791689 29.2862103,17.7145596 C29.2862103,16.6493075 30.150241,15.7859197 31.2148502,15.7859197 C32.2801023,15.7859197 33.1434901,16.6493075 33.1434901,17.7145596" id="Fill-3" fill="#9999E6"></path>
                <path d="M29.2862103,21.5718394 C29.2862103,22.6364487 28.4228225,23.5004793 27.3575704,23.5004793 C26.2929612,23.5004793 25.4289305,22.6364487 25.4289305,21.5718394 C25.4289305,20.5065873 26.2929612,19.6431995 27.3575704,19.6431995 C28.4228225,19.6431995 29.2862103,20.5065873 29.2862103,21.5718394" id="Fill-5" fill="#9999E6"></path>
                <path d="M28.6433303,10 L10.9152723,10 C5.72273081,10 1.25471503,13.9897131 1.01106352,19.1764687 C0.74941137,24.7148796 5.16278235,29.2863991 10.6426912,29.2863991 C13.5973675,29.2863991 16.2396042,27.9562804 18.008167,25.8637061 C18.4176815,25.3789746 19.0104169,25.0890357 19.6442965,25.0890357 C20.2704616,25.0890357 20.8612683,25.3674028 21.2637112,25.8463483 C23.0759898,28 25.8101583,29.3506871 28.8586951,29.2838275 C33.861587,29.1745379 38.0409497,25.1063935 38.2756009,20.1086446 C38.5359673,14.5708766 34.1232392,10 28.6433303,10 Z" id="Stroke-27" stroke="#9999E6" stroke-width="2" stroke-linecap="round" stroke-linejoin="round"></path>
                <line x1="9.99981124" y1="16.4287997" x2="9.99981124" y2="22.8575994" id="Stroke-29" stroke="#9999E6" stroke-width="2" stroke-linecap="round" stroke-linejoin="round"></line>
                <line x1="13.2142111" y1="19.6431995" x2="6.78541139" y2="19.6431995" id="Stroke-31" stroke="#9999E6" stroke-width="2" stroke-linecap="round" stroke-linejoin="round"></line>
            </g>
        </g>
    </g>
</svg>