<?xml version="1.0" encoding="UTF-8"?>
<svg width="40px" height="41px" viewBox="0 0 40 41" version="1.1" xmlns="http://www.w3.org/2000/svg" xmlns:xlink="http://www.w3.org/1999/xlink">
    <title>Seedling leaves icon</title>
    <g id="Page-1" stroke="none" stroke-width="1" fill="none" fill-rule="evenodd">
        <g id="Icon-/-Leaves" transform="translate(0.000000, 1.000000)">
            <g id="Icon">
                <rect id="Background" fill-rule="nonzero" x="0" y="0" width="40" height="40"></rect>
                <line x1="1" y1="38.525" x2="39" y2="38.525" id="Stroke-1" stroke="#9999E6" stroke-width="2" stroke-linecap="round" stroke-linejoin="round"></line>
                <path d="M37.1,38.05 L34.2700774,30.465865 C33.204989,27.6111625 30.3329368,25.7 27.1087077,25.7 L12.8912923,25.7 C9.6664049,25.7 6.7943527,27.6111625 5.72992262,30.465865 L2.9,38.05" id="Stroke-3" stroke="#9999E6" stroke-width="2" stroke-linecap="round" stroke-linejoin="round"></path>
                <path d="M10.5803432,4.88040832 C10.3147028,5.55810629 10.690309,9.13672258 11.9688275,10.415273 C13.247346,11.6938234 15.2121573,11.8024671 16.3575244,10.6577339 C17.502229,9.51167571 17.3942505,7.54681531 16.1150696,6.26892734 C14.8372136,4.98971444 11.2586867,4.61476131 10.5803432,4.88040832 Z" id="Stroke-5" stroke="#9999E6" stroke-width="2" stroke-linecap="round" stroke-linejoin="round"></path>
                <path d="M33.1312279,1.16877213 C31.8575842,0.655375551 25.1814592,1.26856276 22.8239053,3.6261166 C20.4663515,5.98367044 20.3127264,9.65228944 22.4798902,11.8201098 C24.6477106,13.9872736 28.3163296,13.8336485 30.6738834,11.4760947 C33.0314372,9.11854083 33.6446244,2.4424158 33.1312279,1.16877213 Z" id="Stroke-7" stroke="#9999E6" stroke-width="2" stroke-linecap="round" stroke-linejoin="round"></path>
                <path d="M19.05,24.75 C19.05,12.1844236 16.2,11.45 16.2,11.45" id="Stroke-9" stroke="#9999E6" stroke-width="2" stroke-linecap="round" stroke-linejoin="round"></path>
                <path d="M28.55,4.8 L23.1619764,11.7516097 C23.1619764,11.7516097 20.95,17.280671 20.95,25.7" id="Stroke-11" stroke="#9999E6" stroke-width="2" stroke-linecap="round" stroke-linejoin="round"></path>
            </g>
        </g>
    </g>
</svg>