<?xml version="1.0" encoding="UTF-8"?>
<svg viewBox="0 0 60 60" version="1.1" xmlns="http://www.w3.org/2000/svg" xmlns:xlink="http://www.w3.org/1999/xlink" preserveAspectRatio="xMinYMin meet">
  <g stroke="none" stroke-width="1" fill="none" fill-rule="evenodd" stroke-linecap="round" stroke-linejoin="round">
    <path d="M1,59 L59,59" stroke="#66CC88" stroke-width="2"></path>
    <path d="M33.7383,17.0859 C37.0403,20.5689 41.6413,21.3909 45.8173,16.9859 C49.9933,12.5809 48.8603,1.1339 48.8603,1.1339 C48.8603,1.1339 38.0543,-0.0121 33.8793,4.3929 C29.7033,8.7969 30.4363,13.6029 33.7383,17.0859 Z" stroke="#66CC88" stroke-width="2"></path>
    <path d="M24.6196,16.6309 C26.2696,14.9799 26.6586,12.6789 24.5726,10.5909 C22.4856,8.5039 17.0636,9.0699 17.0636,9.0699 C17.0636,9.0699 16.5206,14.4729 18.6066,16.5609 C20.6936,18.6489 22.9696,18.2819 24.6196,16.6309 Z" stroke="#66CC88" stroke-width="2"></path>
    <path d="M30,29 C30,29 29.372,20.442 25,17" stroke="#66CC88" stroke-width="2"></path>
    <path d="M30,38 L30,28.234 C30,24.885 31.745,20.11 33.904,17.56 L42,8" stroke="#66CC88" stroke-width="2"></path>
    <path d="M7.0073,48.5898 C8.5373,43.2938 14.1733,38.9998 19.6003,38.9998 L40.3993,38.9998 C45.8243,38.9998 51.4623,43.2898 52.9923,48.5898 L56.0003,58.9998 L4.0003,58.9998 L7.0073,48.5898 Z" stroke="#66CC88" stroke-width="2"></path>
  </g>
</svg>
