<?xml version="1.0" encoding="UTF-8"?>
<svg width="40px" height="39px" viewBox="0 0 40 39" version="1.1" xmlns="http://www.w3.org/2000/svg" xmlns:xlink="http://www.w3.org/1999/xlink">
    <title>magic</title>
    <desc>Created with Sketch.</desc>
    <g id="Page-1" stroke="none" stroke-width="1" fill="none" fill-rule="evenodd">
        <g id="magic">
            <path d="M17.50022,7.5 L18.7502073,5 L21.2501833,3.75 L18.7502073,2.5 L17.50022,0 L16.250232,2.5 L13.7502567,3.75 L16.250232,5 L17.50022,7.5 Z M6.25032933,12.5 L8.333122,8.333594 L12.5002687,6.25 L8.333122,4.166406 L6.25032933,0 L4.16753733,4.166406 L0.000390666667,6.25 L4.16753733,8.333594 L6.25032933,12.5 Z M6.25032933,5 C6.940948,5 7.50031733,5.55937467 7.50031733,6.25 C7.50031733,6.94062533 6.940948,7.5 6.25032933,7.5 C5.55971133,7.5 5.000342,6.94062533 5.000342,6.25 C5.000342,5.55937467 5.55971133,5 6.25032933,5 Z M33.7500613,22.5 L31.6672687,26.666406 L27.500122,28.75 L31.6672687,30.833594 L33.7500613,35 L35.8328533,30.833594 L40,28.75 L35.8328533,26.666406 L33.7500613,22.5 Z M33.7500613,30 C33.0594427,30 32.5000733,29.4406253 32.5000733,28.75 C32.5000733,28.0593747 33.0594427,27.5 33.7500613,27.5 C34.4406793,27.5 35.0000487,28.0593747 35.0000487,28.75 C35.0000487,29.4406253 34.4406793,30 33.7500613,30 Z" id="stars" fill="#9999E6" fill-rule="nonzero"></path>
            <g id="wand" transform="translate(20.000000, 20.000000) rotate(-45.000000) translate(-20.000000, -20.000000) translate(0.000000, 15.000000)" stroke="#9999E6" stroke-linecap="round" stroke-linejoin="round" stroke-width="2">
                <rect id="Rectangle" x="0" y="0" width="40" height="10"></rect>
                <line x1="26.6666667" y1="0" x2="26.6666667" y2="10" id="Path"></line>
            </g>
        </g>
    </g>
</svg>