<?xml version="1.0" encoding="UTF-8"?>
<svg width="60px" height="60px" viewBox="0 0 60 60" version="1.1" xmlns="http://www.w3.org/2000/svg" xmlns:xlink="http://www.w3.org/1999/xlink">
    <!-- Generator: Sketch 55.1 (78136) - https://sketchapp.com -->
    <title>magic</title>
    <desc>Created with Sketch.</desc>
    <g id="Page-1" stroke="none" stroke-width="1" fill="none" fill-rule="evenodd">
        <g id="Desktop-HD" transform="translate(-599.000000, -734.000000)" fill="#66CC88" fill-rule="nonzero">
            <path d="M625.25033,745.25 L627.125311,741.5 L630.875275,739.625 L627.125311,737.75 L625.25033,734 L623.375348,737.75 L619.625385,739.625 L623.375348,741.5 L625.25033,745.25 Z M608.375494,752.75 L611.499683,746.500391 L617.750403,743.375 L611.499683,740.249609 L608.375494,734 L605.251306,740.249609 L599.000586,743.375 L605.251306,746.500391 L608.375494,752.75 Z M608.375494,741.5 C609.411422,741.5 610.250476,742.339062 610.250476,743.375 C610.250476,744.410938 609.411422,745.25 608.375494,745.25 C607.339567,745.25 606.500513,744.410938 606.500513,743.375 C606.500513,742.339062 607.339567,741.5 608.375494,741.5 Z M649.625092,767.75 L646.500903,773.999609 L640.250183,777.125 L646.500903,780.250391 L649.625092,786.5 L652.74928,780.250391 L659,777.125 L652.74928,773.999609 L649.625092,767.75 Z M649.625092,779 C648.589164,779 647.75011,778.160938 647.75011,777.125 C647.75011,776.089062 648.589164,775.25 649.625092,775.25 C650.661019,775.25 651.500073,776.089062 651.500073,777.125 C651.500073,778.160938 650.661019,779 649.625092,779 Z M657.901964,743.135937 L649.864152,735.098047 C649.131737,734.365625 648.171981,734 647.212224,734 C646.252468,734 645.292712,734.365625 644.560297,735.098047 L600.098622,779.561328 C598.633793,781.026172 598.633793,783.400391 600.098622,784.864063 L608.136434,792.901953 C608.868849,793.634375 609.828605,794 610.788361,794 C611.748118,794 612.707874,793.634375 613.440289,792.901953 L657.901964,748.439844 C659.365621,746.975 659.365621,744.600781 657.901964,743.135937 Z M610.788361,790.25 L602.750549,782.212109 L633.02916,751.930859 L641.068144,759.969922 L610.788361,790.25 Z M643.720071,757.317969 L635.681087,749.278906 L647.208709,737.75 L655.250037,745.787891 L643.720071,757.317969 Z" id="magic"></path>
        </g>
    </g>
</svg>