<?xml version="1.0" encoding="UTF-8"?>
<svg width="60px" height="53px" viewBox="0 0 60 53" version="1.1" xmlns="http://www.w3.org/2000/svg" xmlns:xlink="http://www.w3.org/1999/xlink">
    <!-- Generator: Sketch 55.1 (78136) - https://sketchapp.com -->
    <title>puzzle</title>
    <desc>Created with Sketch.</desc>
    <g id="Page-1" stroke="none" stroke-width="1" fill="none" fill-rule="evenodd">
        <g id="Desktop-HD" transform="translate(-346.000000, -813.000000)" fill="#66CC88" fill-rule="nonzero">
            <path d="M398.769167,839.5 C393.320521,839.5 391.267917,844.314822 389.679271,842.347301 C387.582917,839.750922 389.468021,831.24701 390.04125,828.689242 C386.475729,829.34874 375.745104,831.20198 372.975,828.914699 C371.243854,827.485148 376.236771,824.412184 376.236771,819.966498 C376.236667,815.693994 372.713229,813 368.379375,813 C363.841979,813 359.546875,815.650932 359.546875,820.124359 C359.546875,825.612758 364.327917,827.536596 362.083438,829.296465 C359.123438,831.616871 349.681875,829.616742 346,828.738619 L346,864.48391 C349.470312,865.313277 353.362604,866 357.058646,866 C361.462812,866 366,864.774479 366,860.397217 C366,857.359654 362.666667,856.170467 362.666667,852.75 C362.666667,850.220389 365.013958,849.4375 367.560208,849.4375 C371.591146,849.4375 372.666667,851.519613 372.666667,852.75 C372.666667,855.72949 369.096667,856.512586 369.096667,860.677227 C369.096667,862.100359 369.618854,863.311182 370.606875,864.178953 C374.268646,867.39508 381.723229,864.833068 390.094896,864.829549 C389.995104,864.474904 387.3025,855.85226 389.292604,853.245426 C391.03375,850.965701 394.352813,856.258352 398.930104,856.258352 C403.315313,856.258455 406,852.089156 406,847.78125 C406,843.347158 403.268021,839.5 398.769167,839.5 Z M398.93,852.945955 C395.804792,852.945955 394.62125,849.4375 390.439062,849.4375 C384.859271,849.4375 384.726458,856.163842 385.827396,861.633297 C382.036146,861.987734 374.678958,863.334473 372.814271,861.696855 C370.718021,859.85583 376,857.333568 376,852.75 C376,848.849221 372.529479,846.125 367.560208,846.125 C359.749687,846.125 356.843021,852.318236 361.709479,858.757736 C362.201771,859.40916 362.666667,860.024457 362.666667,860.397217 C362.666667,863.884658 352.874479,862.532641 349.333333,861.838672 L349.333333,832.871998 C355.922396,834.07868 366,834.749357 366,828.058004 C366,825.100873 362.880208,823.608695 362.880208,820.124359 C362.880208,817.569801 365.819271,816.3125 368.379375,816.3125 C370.466354,816.3125 372.903333,817.269398 372.903333,819.966395 C372.903333,823.012445 369.333333,824.184863 369.333333,828.310789 C369.333333,834.296891 379.838021,833.582943 385.814583,832.771588 C384.973125,838.391762 384.954063,846.125 390.696458,846.125 C393.732188,846.125 395.245833,842.8125 398.769167,842.8125 C401.369062,842.8125 402.666667,845.224518 402.666667,847.78125 C402.666667,851.343533 400.481562,852.945955 398.93,852.945955 Z" id="puzzle"></path>
        </g>
    </g>
</svg>