<?xml version="1.0" encoding="UTF-8"?>
<svg width="42px" height="37px" viewBox="0 0 42 37" version="1.1" xmlns="http://www.w3.org/2000/svg" xmlns:xlink="http://www.w3.org/1999/xlink">
    <title>puzzle</title>
    <desc>Created with Sketch.</desc>
    <g id="Page-1" stroke="none" stroke-width="1" fill="none" fill-rule="evenodd" stroke-linecap="round" stroke-linejoin="round">
        <g id="puzzle" transform="translate(1.000000, 1.000000)" stroke="#9999E6" stroke-width="1.48148148">
            <path d="M36.9851852,29.3673741 C34.6702163,29.3673741 33.7935185,26.7685185 30.6956015,26.7685185 C26.562423,26.7685185 26.464043,29.7509941 27.2795526,33.8024422 C24.4712193,34.0649881 19.0214504,35.0625726 17.6402007,33.8495222 C16.087423,32.4858 20,30.6174578 20,27.2222222 C20,24.3327563 17.4292437,22.3148148 13.7483022,22.3148148 C7.96273111,22.3148148 5.80964519,26.902397 9.41442889,31.672397 C9.77908963,32.1549333 10.123457,32.6107089 10.123457,32.8868274 C10.123457,35.470117 2.86998444,34.468623 0.246913333,33.9545719 L0.246913333,12.4977763 C5.12770074,13.3916148 11.5925926,13.8884126 11.5925926,8.93185481 C11.5925926,6.74138741 9.28163556,5.63607037 9.28163556,3.05508074 C9.28163556,1.16281556 12.4587193,0.231481481 14.3550926,0.231481481 C15.901003,0.231481481 19.7061726,0.940294815 19.7061726,2.93807037 C19.7061726,5.1944037 17.0617281,6.06286148 17.0617281,9.11910296 C17.0617281,13.5532526 22.8429785,13.0244022 27.2700615,12.4233985 C26.6467593,16.5864904 26.6326393,20.3148148 30.8862652,20.3148148 C33.1349541,20.3148148 34.2561726,17.8611111 36.8660496,17.8611111 C38.7918978,17.8611111 39.7530867,21.6477911 39.7530867,23.5416667 C39.7530867,26.1803948 38.1344904,29.3673741 36.9851852,29.3673741 Z"></path>
        </g>
    </g>
</svg>