<svg viewBox="0 0 58 48" xmlns="http://www.w3.org/2000/svg" preserveAspectRatio="xMinYMin meet">
  <path d="M14.48 0l5.553 2.182c-3.769 6.942-5.95 14.48-6.744 22.413C19.438 25.19 24 29.752 24 36.099 24 42.645 18.645 48 12.1 48 5.156 48 0 42.645 0 34.91.198 23.007 5.95 9.718 14.48 0zm34 0l5.553 2.182c-3.769 6.942-5.95 14.48-6.744 22.413C53.438 25.19 58 29.752 58 36.099 58 42.645 52.645 48 46.1 48 39.156 48 34 42.645 34 34.91 34.198 23.007 39.95 9.718 48.48 0z" fill="#E2E3E5" fill-rule="evenodd"/>
</svg>