<?xml version="1.0" encoding="UTF-8"?>
<svg width="60px" height="53px" viewBox="0 0 60 53" version="1.1" xmlns="http://www.w3.org/2000/svg" xmlns:xlink="http://www.w3.org/1999/xlink">
    <!-- Generator: Sketch 55.1 (78136) - https://sketchapp.com -->
    <title>robot</title>
    <desc>Created with Sketch.</desc>
    <g id="Page-1" stroke="none" stroke-width="1" fill="none" fill-rule="evenodd">
        <g id="Desktop-HD" transform="translate(-1244.000000, -702.000000)" fill="#66CC88" fill-rule="nonzero">
            <path d="M1260.66667,745.0625 L1267.33333,745.0625 L1267.33333,741.75 L1260.66667,741.75 L1260.66667,745.0625 Z M1264,725.1875 C1262.15625,725.1875 1260.66667,726.667773 1260.66667,728.5 C1260.66667,730.332227 1262.15625,731.8125 1264,731.8125 C1265.84375,731.8125 1267.33333,730.332227 1267.33333,728.5 C1267.33333,726.667773 1265.84375,725.1875 1264,725.1875 Z M1284,725.1875 C1282.15625,725.1875 1280.66667,726.667773 1280.66667,728.5 C1280.66667,730.332227 1282.15625,731.8125 1284,731.8125 C1285.84375,731.8125 1287.33333,730.332227 1287.33333,728.5 C1287.33333,726.667773 1285.84375,725.1875 1284,725.1875 Z M1300.66667,725.1875 L1297.33333,725.1875 L1297.33333,721.875 C1297.33333,716.388672 1292.85417,711.9375 1287.33333,711.9375 L1275.66667,711.9375 L1275.66667,703.65625 C1275.66667,702.745312 1274.91667,702 1274,702 C1273.08333,702 1272.33333,702.745312 1272.33333,703.65625 L1272.33333,711.9375 L1260.66667,711.9375 C1255.14583,711.9375 1250.66667,716.388672 1250.66667,721.875 L1250.66667,725.1875 L1247.33333,725.1875 C1245.48958,725.1875 1244,726.667773 1244,728.5 L1244,741.75 C1244,743.582227 1245.48958,745.0625 1247.33333,745.0625 L1250.66667,745.0625 L1250.66667,748.375 C1250.66667,752.029102 1253.65625,755 1257.33333,755 L1290.66667,755 C1294.34375,755 1297.33333,752.029102 1297.33333,748.375 L1297.33333,745.0625 L1300.66667,745.0625 C1302.51042,745.0625 1304,743.582227 1304,741.75 L1304,728.5 C1304,726.667773 1302.51042,725.1875 1300.66667,725.1875 Z M1250.66667,741.75 L1247.33333,741.75 L1247.33333,728.5 L1250.66667,728.5 L1250.66667,741.75 Z M1294,748.375 C1294,750.196875 1292.5,751.6875 1290.66667,751.6875 L1257.33333,751.6875 C1255.5,751.6875 1254,750.196875 1254,748.375 L1254,721.875 C1254,718.220898 1256.98958,715.25 1260.66667,715.25 L1287.33333,715.25 C1291.01042,715.25 1294,718.220898 1294,721.875 L1294,748.375 Z M1300.66667,741.75 L1297.33333,741.75 L1297.33333,728.5 L1300.66667,728.5 L1300.66667,741.75 Z M1280.66667,745.0625 L1287.33333,745.0625 L1287.33333,741.75 L1280.66667,741.75 L1280.66667,745.0625 Z M1270.66667,745.0625 L1277.33333,745.0625 L1277.33333,741.75 L1270.66667,741.75 L1270.66667,745.0625 Z" id="robot"></path>
        </g>
    </g>
</svg>