<?xml version="1.0" encoding="UTF-8"?>
<svg width="60px" height="48px" viewBox="0 0 60 48" version="1.1" xmlns="http://www.w3.org/2000/svg" xmlns:xlink="http://www.w3.org/1999/xlink">
    <!-- Generator: Sketch 55.1 (78136) - https://sketchapp.com -->
    <title>scales</title>
    <desc>Created with Sketch.</desc>
    <g id="Page-1" stroke="none" stroke-width="1" fill="none" fill-rule="evenodd">
        <g id="Desktop-HD" transform="translate(-333.000000, -713.000000)" fill="#66CC88" fill-rule="nonzero">
            <path d="M392.474869,739.164688 L382.251477,722.6675 C381.95429,722.223125 381.477105,722 380.99992,722 C380.522734,722 380.045549,722.223125 379.748363,722.6675 L369.524971,739.164688 C369.16216,739.706563 368.954036,740.357188 369.008411,741.005937 C369.521221,747.1625 374.694323,752 380.99992,752 C387.305517,752 392.478619,747.1625 392.991429,741.005937 C393.045803,740.357188 392.837679,739.706563 392.474869,739.164688 L392.474869,739.164688 Z M380.99992,749 C377.101812,749 373.72964,746.456563 372.489333,743 L389.476757,743 C388.218638,746.490312 384.869902,749 380.99992,749 Z M372.537145,740 L381.00367,726.335 L389.529257,740 L372.537145,740 Z M383.24991,758 L364.499993,758 L364.499993,724.788125 C367.083732,724.11875 368.999973,721.792812 368.999973,719 L383.24991,719 C383.664283,719 383.999906,718.664375 383.999906,718.25 L383.999906,716.75 C383.999906,716.335625 383.664283,716 383.24991,716 L368.145915,716 C368.131852,715.975625 367.736229,714.958437 366.35436,714.024688 C365.397177,713.377813 364.242182,713 363,713 C361.757818,713 360.602823,713.377813 359.64564,714.024688 C358.263771,714.958437 357.868148,715.975625 357.854085,716 L342.75009,716 C342.335717,716 342.000094,716.335625 342.000094,716.75 L342.000094,718.25 C342.000094,718.664375 342.335717,719 342.75009,719 L357.000027,719 C357.000027,721.792812 358.916268,724.11875 361.500007,724.788125 L361.500007,758 L342.75009,758 C342.335717,758 342.000094,758.335625 342.000094,758.75 L342.000094,760.25 C342.000094,760.664375 342.335717,761 342.75009,761 L383.24991,761 C383.664283,761 383.999906,760.664375 383.999906,760.25 L383.999906,758.75 C383.999906,758.335625 383.664283,758 383.24991,758 Z M360.000013,719 C360.000013,717.343438 361.343445,716 363,716 C364.656555,716 365.999987,717.343438 365.999987,719 C365.999987,720.656562 364.656555,722 363,722 C361.343445,722 360.000013,720.656562 360.000013,719 Z M356.991589,741.005937 C357.045964,740.357188 356.83784,739.706563 356.475029,739.164688 L346.251637,722.6675 C345.954451,722.223125 345.477266,722 345.00008,722 C344.522895,722 344.04571,722.223125 343.748523,722.6675 L333.525131,739.164688 C333.162321,739.706563 332.954197,740.357188 333.008571,741.005937 C333.521381,747.1625 338.694483,752 345.00008,752 C351.305677,752 356.478779,747.1625 356.991589,741.005937 Z M345.00383,726.335 L353.529417,740 L336.537306,740 L345.00383,726.335 Z M336.489493,743 L353.476917,743 C352.218798,746.490312 348.870063,749 345.00008,749 C341.101973,749 337.7298,746.456563 336.489493,743 Z" id="scales"></path>
        </g>
    </g>
</svg>