<?xml version="1.0" encoding="UTF-8"?>
<svg width="40px" height="39px" viewBox="0 0 40 39" version="1.1" xmlns="http://www.w3.org/2000/svg" xmlns:xlink="http://www.w3.org/1999/xlink">
    <title>Icon</title>
    <desc>Created with Sketch.</desc>
    <g id="Page-1" stroke="none" stroke-width="1" fill="none" fill-rule="evenodd">
        <g id="Icon-/-Scales">
            <g id="Icon">
                <rect id="Background" fill-rule="nonzero" x="0" y="0" width="40" height="40"></rect>
                <path d="M32.5194808,2.20010403 C32.5194808,2.86206405 31.9821408,3.39940406 31.3195108,3.39940406 C30.6568807,3.39940406 30.1195407,2.86206405 30.1195407,2.20010403 C30.1195407,1.53747401 30.6568807,1.000134 31.3195108,1.000134 C31.9821408,1.000134 32.5194808,1.53747401 32.5194808,2.20010403 Z" id="Stroke-1" stroke="#9999E6" stroke-width="2" stroke-linecap="round" stroke-linejoin="round"></path>
                <polyline id="Stroke-3" stroke="#9999E6" stroke-width="2" stroke-linecap="round" stroke-linejoin="round" points="35.8400679 21.1314905 31.3195778 3.39927006 26.4600676 21.1314905"></polyline>
                <path d="M38.5200679,21.1314905 C38.5200679,25.2017406 35.2203179,28.5014907 31.1500678,28.5014907 C27.0798176,28.5014907 23.7800676,25.2017406 23.7800676,21.1314905 L38.5200679,21.1314905 Z" id="Stroke-5" stroke="#9999E6" stroke-width="2" stroke-linecap="round" stroke-linejoin="round"></path>
                <path d="M9.73948022,2.20010403 C9.73948022,2.86206405 9.2021402,3.39940406 8.53951019,3.39940406 C7.87688017,3.39940406 7.33954016,2.86206405 7.33954016,2.20010403 C7.33954016,1.53747401 7.87688017,1.000134 8.53951019,1.000134 C9.2021402,1.000134 9.73948022,1.53747401 9.73948022,2.20010403 Z" id="Stroke-7" stroke="#9999E6" stroke-width="2" stroke-linecap="round" stroke-linejoin="round"></path>
                <polyline id="Stroke-9" stroke="#9999E6" stroke-width="2" stroke-linecap="round" stroke-linejoin="round" points="13.0600673 21.1314905 8.53957719 3.39927006 3.68006707 21.1314905"></polyline>
                <path d="M15.7400674,21.1314905 C15.7400674,25.2017406 12.4403173,28.5014907 8.37006718,28.5014907 C4.29981708,28.5014907 1.000067,25.2017406 1.000067,21.1314905 L15.7400674,21.1314905 Z" id="Stroke-11" stroke="#9999E6" stroke-width="2" stroke-linecap="round" stroke-linejoin="round"></path>
                <line x1="19.7600675" y1="2.37149003" x2="19.7600675" y2="37.8814909" id="Stroke-13" stroke="#9999E6" stroke-width="2" stroke-linecap="round" stroke-linejoin="round"></line>
                <line x1="11.5480113" y1="37.8814909" x2="27.9723917" y2="37.8814909" id="Stroke-15" stroke="#9999E6" stroke-width="2" stroke-linecap="round" stroke-linejoin="round"></line>
                <line x1="9.71006722" y1="2.37149003" x2="29.8100677" y2="2.37149003" id="Stroke-17" stroke="#9999E6" stroke-width="2" stroke-linecap="round" stroke-linejoin="round"></line>
            </g>
        </g>
    </g>
</svg>