<?xml version="1.0" encoding="UTF-8"?>
<svg width="60px" height="49px" viewBox="0 0 60 49" version="1.1" xmlns="http://www.w3.org/2000/svg" xmlns:xlink="http://www.w3.org/1999/xlink">
    <!-- Generator: Sketch 55.1 (78136) - https://sketchapp.com -->
    <title>tasks</title>
    <desc>Created with Sketch.</desc>
    <g id="Page-1" stroke="none" stroke-width="1" fill="none" fill-rule="evenodd">
        <g id="Desktop-HD" transform="translate(-781.000000, -723.000000)" fill="#66CC88" fill-rule="nonzero">
            <path d="M840.297047,732.661018 L804.212106,732.661018 C803.825482,732.661018 803.509153,732.343008 803.509153,731.95433 L803.509153,729.127576 C803.509153,728.738898 803.825482,728.420888 804.212106,728.420888 L840.297047,728.420888 C840.683671,728.420888 841,728.738898 841,729.127576 L841,731.95433 C841,732.343008 840.683671,732.661018 840.297047,732.661018 Z M841,750.799351 L841,747.972598 C841,747.583919 840.683671,747.26591 840.297047,747.26591 L804.212106,747.26591 C803.825482,747.26591 803.509153,747.583919 803.509153,747.972598 L803.509153,750.799351 C803.509153,751.18803 803.825482,751.506039 804.212106,751.506039 L840.297047,751.506039 C840.683671,751.506039 841,751.18803 841,750.799351 Z M841,769.644372 L841,766.817619 C841,766.428941 840.683671,766.110931 840.297047,766.110931 L804.212106,766.110931 C803.825482,766.110931 803.509153,766.428941 803.509153,766.817619 L803.509153,769.644372 C803.509153,770.033051 803.825482,770.351061 804.212106,770.351061 L840.297047,770.351061 C840.683671,770.351061 841,770.033051 841,769.644372 Z M789.028313,763.51974 C786.696851,763.51974 784.810593,765.416021 784.810593,767.75987 C784.810593,770.10372 786.696851,772 789.028313,772 C791.359775,772 793.19917,770.10372 793.19917,767.75987 C793.19917,765.416021 791.359775,763.51974 789.028313,763.51974 Z M801.0371,724.286762 L800.170124,723.415179 C799.619478,722.861607 798.72907,722.861607 798.178423,723.415179 L788.946302,732.743465 L784.447401,728.22066 C783.896754,727.667087 783.006346,727.667087 782.455699,728.22066 L781.412985,729.268914 C780.862338,729.822487 780.862338,730.717625 781.412985,731.271198 L787.774713,737.666727 C788.32536,738.220299 789.215768,738.220299 789.766414,737.666727 L789.789846,737.64317 L801.025384,726.300823 C801.587747,725.735473 801.587747,724.840334 801.0371,724.286762 Z M801.083964,743.131783 L800.216988,742.260201 C799.666341,741.706628 798.775934,741.706628 798.225287,742.260201 L788.993166,751.588486 L784.494264,747.065681 C783.943617,746.512109 783.05321,746.512109 782.502563,747.065681 L781.48328,748.113935 C780.932634,748.667508 780.932634,749.562646 781.48328,750.116219 L787.845009,756.511748 C788.395655,757.065321 789.286063,757.065321 789.83671,756.511748 L789.813278,756.488192 L801.09568,745.145845 C801.634611,744.580494 801.634611,743.685355 801.083964,743.131783 Z" id="tasks"></path>
        </g>
    </g>
</svg>