<?xml version="1.0" encoding="UTF-8"?>
<svg viewBox="0 0 60 60" version="1.1" xmlns="http://www.w3.org/2000/svg" xmlns:xlink="http://www.w3.org/1999/xlink" preserveAspectRatio="xMinYMin meet">
  <g stroke="none" stroke-width="1" fill="none" fill-rule="evenodd" stroke-linecap="round">
    <path d="M54.4814,14.4482 C49.3354,6.3632 40.2934,1.0002 30.0004,1.0002 C13.9834,1.0002 1.0004,13.9832 1.0004,30.0002 C1.0004,46.0162 13.9834,59.0002 30.0004,59.0002 C46.0164,59.0002 59.0004,46.0162 59.0004,30.0002 C59.0004,27.5872 58.7054,25.2432 58.1494,23.0022" stroke="#66CC88" stroke-width="2" stroke-linejoin="round"></path>
    <path d="M30,26 C32.209,26 34,27.791 34,30 C34,32.209 32.209,34 30,34 C27.791,34 26,32.209 26,30 C26,27.791 27.791,26 30,26 Z" stroke="#66CC88" stroke-width="2" stroke-linejoin="round"></path>
    <path d="M34.5,30 L50,30" stroke="#66CC88" stroke-width="2" stroke-linejoin="round"></path>
    <polyline stroke="#66CC88" stroke-width="2" stroke-linejoin="round" points="50 16 55 15 56 10"></polyline>
    <path d="M32,26 L32,13 C32,11.896 31.104,11 30,11 C28.896,11 28,11.896 28,13 L28,26" stroke="#66CC88" stroke-width="2"></path>
  </g>
</svg>
