<?xml version="1.0" encoding="UTF-8"?>
<svg width="60px" height="60px" viewBox="0 0 60 60" version="1.1" xmlns="http://www.w3.org/2000/svg" xmlns:xlink="http://www.w3.org/1999/xlink">
    <!-- Generator: Sketch 55.1 (78136) - https://sketchapp.com -->
    <title>time</title>
    <desc>Created with Sketch.</desc>
    <g id="Page-1" stroke="none" stroke-width="1" fill="none" fill-rule="evenodd">
        <g id="Desktop-HD" transform="translate(-1022.000000, -784.000000)" fill="#66CC88" fill-rule="nonzero">
            <path d="M1052,784 C1035.42742,784 1022,797.427419 1022,814 C1022,830.572581 1035.42742,844 1052,844 C1068.57258,844 1082,830.572581 1082,814 C1082,797.427419 1068.57258,784 1052,784 Z M1078.12903,814 C1078.12903,828.358871 1066.50403,840.129032 1052,840.129032 C1037.64113,840.129032 1025.87097,828.504032 1025.87097,814 C1025.87097,799.641129 1037.49597,787.870968 1052,787.870968 C1066.35887,787.870968 1078.12903,799.495968 1078.12903,814 Z M1060.11694,824.681452 L1050.29435,817.544355 C1049.91935,817.266129 1049.70161,816.830645 1049.70161,816.370968 L1049.70161,797.064516 C1049.70161,796.266129 1050.35484,795.612903 1051.15323,795.612903 L1052.84677,795.612903 C1053.64516,795.612903 1054.29839,796.266129 1054.29839,797.064516 L1054.29839,814.762097 L1062.82661,820.967742 C1063.47984,821.439516 1063.6129,822.346774 1063.14113,823 L1062.14919,824.366935 C1061.67742,825.008065 1060.77016,825.153226 1060.11694,824.681452 L1060.11694,824.681452 Z" id="time"></path>
        </g>
    </g>
</svg>