<svg width="81" height="16" xmlns="http://www.w3.org/2000/svg"><path d="M8.6062823.0011197c.3685834-.0169917.7177647.1604192.912396.4635672.1946314.3031479.2041696.6844602.0249229.9963531L1.9166034 15.4739021C1.7409446 15.7972963 1.3943784 16 1.0166176 16c-.3560087 0-.6860384-.1802308-.8701202-.4748933-.1840819-.2946625-.1954096-.6609555-.0298655-.9657282L7.7436297.5465163c.1639252-.3196774.4940692-.528405.8626526-.5453966zm3.7665943.1121913c.4696537.2490618.6564631.8309576.4207781 1.3106891L5.4677953 15.4725618C5.2990722 15.7967799 4.9661895 16 4.603344 16c-.3419524 0-.6589515-.1806899-.8357652-.4761032-.1768136-.2954131-.1876941-.6626394-.0286862-.9681885L11.0647519.5071466c.2577137-.4680494.838471-.6428973 1.3081247-.3938356zM81 0v15.7538452h-3.481105v-1.0461538C76.852512 15.5076914 75.885262 16 74.535091 16c-3.15786 0-5.221658-2.6461546-5.221658-5.9076929s2.063798-5.9076919 5.221658-5.9076919c1.350171 0 2.317421.4923076 2.983804 1.2923076V0H81zM15.5933948 7.3110923c.4726752.2441859.6606864.8146899.4234852 1.2850296l-3.6864949 6.8867656c-.1698086.3178708-.5048329.517-.8700128.5171115-.3441523-.0001051-.6631907-.1771516-.8411419-.4667814-.1779512-.2896299-.1889017-.6496669-.0288709-.9492342l3.6864949-6.8867657c.2593716-.4588864.8438652-.6303113 1.3165404-.3861254zm-4.1268713-.1099972c.3549709-.0166259.6912563.1569665.8786996.4535899.1874433.2966233.1966292.6697286.0240024.9749086L8.696566 15.4852253c-.1691714.3164338-.5029383.5146627-.8667476.5147737-.3428607-.0001046-.6607018-.1763507-.8379852-.4646712-.1772833-.2883205-.1881927-.6467298-.0287625-.9449429l3.6726595-6.8556317c.1578711-.3127969.4758224-.5170322.8307933-.5336581zM50.818038 3.9999998c2.2834.0250451 4.330272 1.4301583 5.196887 3.5674997l-3.088972 1c-.412192-.7955502-1.220214-1.3005844-2.107915-1.3174999-1.36409 0-2.471178 1.2299999-2.471178 2.7500002 0 1.5199995 1.107088 2.7499994 2.471178 2.7499994.887701-.0169155 1.695723-.5219496 2.107915-1.3174999l3.081559 1c-.865567 2.1348523-2.908783 3.5394599-5.189474 3.5675005-3.138396 0-5.68371-2.6875006-5.68371-6 0-3.3125002 2.545314-6 5.68371-6zm-13.3575744 0c1.3501715 0 2.3174214.5 2.9838044 1.3124999v-1.0625h3.4811051v11.4999994H40.444268v-1.0625c-.666383.8125007-1.6336329 1.3125007-2.9838044 1.3125007-3.1578596 0-5.2216576-2.6875006-5.2216576-6 0-3.3125002 2.063798-6 5.2216576-6zm25.2037154 0c3.226509 0 5.843284 2.6874998 5.843284 6 0 .3349333-.027132.6693342-.081298 1h-8.129786c.330807 1.0183794 1.279198 1.7200717 2.36526 1.7499994.729556-.0085494 1.416382-.340052 1.86985-.9024999l3.254455 1.0249999c-.979482 1.9021577-2.95484 3.1083698-5.121765 3.1275006-3.226509 0-5.843283-2.6875006-5.843283-6 0-3.3125002 2.616774-6 5.843283-6zM24.4477612 0v12.1874993h6.9850746v3.4124998H20.9552239V0h3.4925373zM75.032391 7.384615c-1.37255 0-2.486503 1.2110768-2.486503 2.7076921s1.113953 2.7076921 2.486503 2.7076921 2.486504-1.2135384 2.486504-2.7076921c0-1.4941538-1.113954-2.7076921-2.486504-2.7076921zm-37.0746266-.1346154c-1.3725501 0-2.4865037 1.2299999-2.4865037 2.7499998s1.1139536 2.7500002 2.4865037 2.7500002c1.37255 0 2.4865036-1.2325003 2.4865036-2.7500002s-1.1139536-2.7499998-2.4865036-2.7499998zm24.7038746 0c-.986841.0221732-1.87009.6081164-2.261097 1.5h4.522193c-.390495-.8923011-1.274055-1.4784501-2.261096-1.5z" fill="#BECEFD" fill-rule="nonzero"/></svg>