<svg width="50" height="16" xmlns="http://www.w3.org/2000/svg"><path d="M14.584817.0358423c1.8515881 0 3.354223 1.5125448 3.354223 3.3763441V7.218638l-.004966.1851661c-.0955974 1.7777889-1.5593885 3.191178-3.349257 3.191178h-.6979063l5.362484 5.390681-5.376727.0071684-9.1582396-9.204301h9.4430993V3.8422939l-10.3475288.0071685.0071215 12.1433691L.014243 16 0 .0358423zm8.7523145-.0143369l.0071215 15.9569892h-3.8171201l-.0071215-14.8817204-.0071215-1.0752688h3.8242416zM33.606324.0143369l3.81712 3.8422939-8.6810996.0071685v2.860215h6.3808576v3.8422939l-6.3808576.0071685.0071215 5.3978495h-3.8242416L24.9181028.0143369h8.6882212zM50 0v3.8494624h-4.116223l.014243 12.1075268-3.824241.0071685-.007122-12.1146953-2.542373.0071684L35.700043.0143369 50 0z" fill="#BECEFD" fill-rule="nonzero"/></svg>