<?xml version="1.0" encoding="UTF-8"?>
<svg width="76px" height="85px" viewBox="0 0 76 85" version="1.1" xmlns="http://www.w3.org/2000/svg" xmlns:xlink="http://www.w3.org/1999/xlink">
    <!-- Generator: Sketch 42 (36781) - http://www.bohemiancoding.com/sketch -->
    <title>node</title>
    <desc>Created with Sketch.</desc>
    <defs></defs>
    <g id="Design-(v2)" stroke="none" stroke-width="1" fill="none" fill-rule="evenodd">
        <g id="Project-planner" transform="translate(-1455.000000, -2214.000000)" fill="#B6BABF">
            <g id="Logos" transform="translate(465.000000, 2214.000000)">
                <path d="M1028,84.9999926 C1026.84565,85.0010055 1025.71105,84.7003017 1024.70853,84.1276525 L1014.225,77.9765361 C1012.66029,77.1097879 1013.42588,76.8022321 1013.94,76.6232905 C1015.60189,76.1102975 1017.19368,75.3927683 1018.67882,74.4871756 C1018.9328,74.3715149 1019.22837,74.3947541 1019.46118,74.5486867 L1027.51382,79.2906382 C1027.8182,79.4507205 1028.1818,79.4507205 1028.48618,79.2906382 L1059.89206,61.3126027 C1060.19045,61.1362362 1060.37328,60.8150109 1060.37265,60.4682222 L1060.37265,24.5121512 C1060.3635,24.1548587 1060.16569,23.8292177 1059.85294,23.6565869 L1028.48059,5.69532715 C1028.18028,5.52700226 1027.81413,5.52700226 1027.51382,5.69532715 L996.147059,23.6621788 C995.842105,23.8396542 995.653123,24.1647479 995.649706,24.5177432 L995.649706,60.4626303 C995.651856,60.810168 995.842278,61.1291749 996.147059,61.295827 L1004.74735,66.2279039 C1009.41353,68.5429604 1012.27471,65.8141015 1012.27471,63.0796507 L1012.27471,27.5821175 C1012.27469,27.3413927 1012.37101,27.1106866 1012.54216,26.9415225 C1012.71332,26.7723583 1012.94504,26.6788274 1013.18559,26.6818177 L1017.17,26.6818177 C1017.4101,26.6803301 1017.64096,26.7743481 1017.81178,26.9431881 C1017.98261,27.112028 1018.0794,27.3418586 1018.08088,27.5821175 L1018.08088,63.0740588 C1018.08088,69.2251751 1014.68882,72.7984145 1008.78206,72.7984145 C1006.96588,72.7984145 1005.54088,72.7984145 1001.55088,70.8468331 L993.313824,66.144025 C991.273136,64.9797291 990.009478,62.8132473 990,60.4626303 L990,24.5121512 C990.003416,22.1672254 991.25859,20.0028077 993.291471,18.8363484 L1024.69735,0.835945241 C1026.75626,-0.278648414 1029.23815,-0.278648414 1031.29706,0.835945241 L1062.70294,18.8363484 C1064.73629,20.0030787 1065.99313,22.1666936 1066,24.5121512 L1066,60.4570384 C1065.99167,62.8035609 1064.73549,64.9681698 1062.70294,66.1384331 L1031.29706,84.1276525 C1030.2928,84.7010019 1029.15621,85.001721 1028,84.9999926 L1028,84.9999926 Z M1037.69559,60.2333614 C1023.95412,60.2333614 1021.07618,53.9759985 1021.07618,48.7307739 C1021.07765,48.4919981 1021.17386,48.2635898 1021.34364,48.0957985 C1021.51342,47.9280073 1021.74285,47.8345783 1021.98147,47.836066 L1026.04412,47.836066 C1026.49034,47.8330356 1026.87222,48.1558269 1026.94382,48.5965677 C1027.55853,52.6954479 1029.38588,54.747684 1037.69559,54.747684 C1044.31206,54.747684 1047.12853,53.2658242 1047.12853,49.7820556 C1047.12853,47.7745549 1046.32941,46.2871031 1036.04706,45.3085164 C1027.45235,44.4641359 1022.13794,42.5852494 1022.13794,35.7631022 C1022.13794,29.4777797 1027.48029,25.7311907 1036.43265,25.7311907 C1046.49147,25.7311907 1051.47059,29.1925916 1052.07971,36.6242585 C1052.10024,36.8788736 1052.01307,37.1304288 1051.83941,37.3176571 C1051.66545,37.498866 1051.42552,37.601765 1051.17441,37.6028452 L1047.10059,37.6028452 C1046.67728,37.6050813 1046.30967,37.3117291 1046.21765,36.8982628 C1045.23971,32.5868894 1042.86471,31.2056842 1036.41029,31.2056842 C1029.18471,31.2056842 1028.34647,33.6996823 1028.34647,35.5729768 C1028.34647,37.837706 1029.33559,38.497553 1039.09265,39.7781036 C1048.74353,41.0418784 1053.32588,42.836886 1053.32588,49.5639705 C1053.32588,56.291055 1047.64265,60.2333614 1037.69559,60.2333614 Z" id="node"></path>
            </g>
        </g>
    </g>
</svg>