<?xml version="1.0" encoding="UTF-8"?>
<svg width="100px" height="51px" viewBox="0 0 100 51" version="1.1" xmlns="http://www.w3.org/2000/svg" xmlns:xlink="http://www.w3.org/1999/xlink">
    <!-- Generator: Sketch 42 (36781) - http://www.bohemiancoding.com/sketch -->
    <title>Keen</title>
    <desc>Created with Sketch.</desc>
    <defs></defs>
    <g id="Page-1" stroke="none" stroke-width="1" fill="none" fill-rule="evenodd">
        <g id="keen" fill-rule="nonzero" fill="#0A9EFF">
            <g id="Page-1">
                <g id="keen">
                    <g id="Design-(v2)">
                        <g id="Company">
                            <g id="Section">
                                <g id="Logos">
                                    <path d="M93.3037955,36.2449594 C65.6011846,36.8228894 43.9356159,38.063328 8.32785609,43.4150327 C2.7875116,44.247715 3.4454172,51.9153374 8.12006301,50.9091743 C42.0893422,43.8329636 71.0722223,40.7087831 93.1990737,39.9800112 C96.4176451,39.8740657 96.5690789,36.2449594 93.3037955,36.2449594 L93.3037955,36.2449594 Z M8.7260394,37.2113771 C8.15470361,31.7722961 9.18719526,26.3015461 10.651013,21.3915562 C12.2999023,28.7137432 14.9322864,35.7790158 21.2554408,35.7790158 C24.6375045,35.7790158 27.7095923,33.4412222 29.293364,31.2023787 C30.7569278,33.0670429 32.9576049,34.1089452 35.7623669,34.1089452 C41.4994611,34.1089452 47.0842329,29.8931327 51.2211809,23.890748 C51.7685259,28.9594653 54.7211677,32.0892419 59.5463586,32.0892419 C64.4478378,32.0892419 69.1975024,28.9631536 73.0479574,24.2987586 C72.5239686,25.5941413 72.0904845,26.9103823 72.0904845,27.7201714 C72.0904845,31.1409481 76.2455842,31.9292428 79.5607534,30.3811429 C79.8468654,19.2999932 88.1227925,10.2926005 90.4774414,10.2926005 C94.3730857,10.2926005 87.1877865,21.5164521 87.1877865,26.1482876 C87.1877865,30.2600624 90.9968609,31.8728998 94.8404617,29.907759 C93.8016233,20.4928646 100,13.0508689 100,8.45375498 C100,5.34852495 98.4633218,3.3360714 95.221394,3.3360714 C90.9968609,3.3360714 86.6684947,7.72511018 85.1061752,10.4057955 C85.1061752,10.4057955 85.595003,8.6964246 85.595003,6.96174375 C85.595003,3.5961654 81.7860556,2.79820463 77.6186429,4.77682688 C77.9404241,7.53496807 77.3176797,11.8277276 75.9241842,15.0565817 L75.9201218,15.03407 C72.595814,21.6263402 67.3325692,25.8590683 62.9002429,25.8590683 C60.1593292,25.8590683 58.7419698,24.3838456 58.678756,21.4833839 C65.9766464,20.8694603 72.111048,16.4403582 72.111048,10.7776855 C72.111048,6.91786485 69.410246,4.4597538 65.3307998,4.4597538 C60.1042392,4.4597538 54.3272874,10.6822964 52.0876411,17.0172709 C48.8727511,23.3098926 43.3029577,27.7326354 39.0074677,27.7326354 C36.2670617,27.7326354 34.8497023,26.2579216 34.7861077,23.3583501 C42.083998,22.7561277 48.2183998,18.4068978 48.2183998,12.7442251 C48.2183998,8.88440453 45.60531,6.3260715 41.5258637,6.3260715 C34.8709005,6.3260715 27.2342198,16.6301186 27.2342198,24.1938307 C27.2342198,25.9269853 27.4894865,27.4744492 27.977045,28.8030272 C21.3838993,36.4469932 17.7804604,23.7352003 16.9963811,15.4037978 C24.8592605,13.9369693 30.2988183,9.72370058 30.2988183,5.42763427 C30.2988183,2.40507473 28.6366008,0 24.4236186,0 C22.8266458,7.5385293 18.3172698,10.5074166 13.9729095,12.0696341 C15.2281726,8.84879265 16.2054473,6.3207297 16.2054473,4.84054673 C16.2054473,2.08660268 14.7144654,0.63363735 12.1694129,0.577294275 C6.97534789,0.577294275 0.70779116,7.2908994 0.70779116,11.1064595 C0.70779116,11.8544365 1.33713631,12.1568832 1.95619971,11.4068713 C3.20702002,9.5807442 6.04364289,6.14025368 8.10278714,6.63449587 C10.8916823,7.3038723 0,28.4161295 0,33.9326662 C0,38.7727043 4.98639889,38.8594448 8.7260394,37.2113771 L8.7260394,37.2113771 Z M40.531072,12.0503019 C43.6384477,12.0503019 40.1789533,18.9478171 35.269985,19.7083854 C36.3593436,15.6511733 39.0159723,12.0503019 40.531072,12.0503019 L40.531072,12.0503019 Z M64.4238471,10.1768619 C67.5312229,10.1768619 64.0717286,17.0742499 59.1626333,17.8348182 C60.251992,13.7777332 62.9087474,10.1768619 64.4238471,10.1768619 L64.4238471,10.1768619 Z" id="Keen"></path>
                                </g>
                            </g>
                        </g>
                    </g>
                </g>
            </g>
        </g>
    </g>
</svg>