<svg xmlns="http://www.w3.org/2000/svg" viewBox="0 0 326 65"><defs><style>.cls-1{fill:#333;}</style></defs><title>Asset 2</title><g id="Layer_2" data-name="Layer 2"><g id="Layer_2-2" data-name="Layer 2"><path class="cls-1" d="M4,65A4,4,0,0,1,.46,59.14l30-57a4,4,0,1,1,7.08,3.72l-30,57A4,4,0,0,1,4,65Z"/><path class="cls-1" d="M18,65a4,4,0,0,1-3.54-5.86l30-57a4,4,0,0,1,7.08,3.72l-30,57A4,4,0,0,1,18,65Z"/><path class="cls-1" d="M46,65a4,4,0,0,1-3.54-5.86l15-28.5a4,4,0,0,1,7.08,3.72l-15,28.5A4,4,0,0,1,46,65Z"/><path class="cls-1" d="M32,65a4,4,0,0,1-3.54-5.86l15-28.5a4,4,0,1,1,7.08,3.72l-15,28.5A4,4,0,0,1,32,65Z"/><polygon class="cls-1" points="99 50 99 0 85 0 85 64 127 64 127 50 99 50"/><path class="cls-1" d="M213.53,46.73A9.84,9.84,0,0,1,205,52c-5.52,0-10-4.92-10-11s4.48-11,10-11a9.84,9.84,0,0,1,8.53,5.27l12.5-4A23,23,0,0,0,205,17c-12.7,0-23,10.75-23,24s10.3,24,23,24a23,23,0,0,0,21-14.27Z"/><path class="cls-1" d="M312,0V22.25C309.32,19,305.43,17,300,17c-12.7,0-21,10.75-21,24s8.3,24,21,24c5.43,0,9.32-2,12-5.25V64h14V0ZM302,52c-5.52,0-10-4.92-10-11s4.48-11,10-11,10,4.93,10,11S307.52,52,302,52Z"/><path class="cls-1" d="M163,18v4.25C160.32,19,156.43,17,151,17c-12.7,0-21,10.75-21,24s8.3,24,21,24c5.43,0,9.32-2,12-5.25V64h14V18ZM153,52c-5.52,0-10-4.92-10-11s4.48-11,10-11,10,4.93,10,11S158.52,52,153,52Z"/><path class="cls-1" d="M259.36,48.39A9.54,9.54,0,0,1,252,52a10.07,10.07,0,0,1-9.31-7h32a25.11,25.11,0,0,0,.32-4c0-13.25-10.3-24-23-24s-23,10.75-23,24,10.3,24,23,24a22.83,22.83,0,0,0,20.16-12.51ZM252,30a9.93,9.93,0,0,1,8.9,6H243.1A9.94,9.94,0,0,1,252,30Z"/></g></g></svg>
