<?xml version="1.0" encoding="UTF-8"?>
<svg viewBox="0 0 58 48" version="1.1" xmlns="http://www.w3.org/2000/svg" xmlns:xlink="http://www.w3.org/1999/xlink" preserveAspectRatio="xMinYMin meet">
  <g stroke="none" stroke-width="1" fill="none" fill-rule="evenodd">
    <g transform="translate(-1362.000000, -3757.000000)" fill="#E2E3E5">
      <path d="M1376.47934,3757 L1382.03306,3759.18182 C1378.26446,3766.12397 1376.08264,3773.66116 1375.28926,3781.59504 C1381.43802,3782.19008 1386,3786.75207 1386,3793.09917 C1386,3799.64463 1380.64463,3805 1374.09917,3805 C1367.15702,3805 1362,3799.64463 1362,3791.90909 C1362.19835,3780.00826 1367.95041,3766.71901 1376.47934,3757 Z M1410.47934,3757 L1416.03306,3759.18182 C1412.26446,3766.12397 1410.08264,3773.66116 1409.28926,3781.59504 C1415.43802,3782.19008 1420,3786.75207 1420,3793.09917 C1420,3799.64463 1414.64463,3805 1408.09917,3805 C1401.15702,3805 1396,3799.64463 1396,3791.90909 C1396.19835,3780.00826 1401.95041,3766.71901 1410.47934,3757 Z" id="Icon"></path>
    </g>
  </g>
</svg>
