<svg width="128" height="19" xmlns="http://www.w3.org/2000/svg">
  <path d="M61.727 2.99c.583.118 1.043.462 1.377 1.03.283.485.425 1.055.425 1.707 0 .503-.542 2.22-1.626 5.151-.952 2.563-.23 1.232-1.438 4.155-1.21 2.923-1.132 2.535-1.499 3.137a1.964 1.964 0 01-.574.617 1.385 1.385 0 01-.776.213c-.384 0-.718-.084-1.001-.252-.284-.167-.425-.435-.425-.804 0-.501.344-1.24.625-1.834.28-.593.462-.775.75-1.399.29-.623.274-.708.274-1.394 0-.973-.632-2.02-1.365-3.141a429.296 429.296 0 01-2.052-2.89c-.75-1.171-1.127-2.261-1.127-3.266 1.385.234 2.686 1.407 3.903 3.517.784 1.374 1.41 2.286 1.877 2.74.484-1.09.918-2.244 1.302-3.467.334-1.056.658-2.244.975-3.569l.375-.25zm50.116.005c1.118 0 1.949.795 2.49 2.383.542 1.59.813 3.982.813 7.176 0 .124-.002.246-.005.366.539.03 1.206.09 2.002.176 1.234.135 1.734.201 2.351.201 1.034 0 1.894-.1 2.577-.301a5.078 5.078 0 002.202-1.307l-.25-.226c-.317 0-.667-.054-1.05-.164a24.82 24.82 0 01-1.101-.338c-1.603-.318-2.712-.779-3.328-1.382-.535-.52-.8-1.197-.8-2.036 0-1.105.583-2.051 1.75-2.838 1.035-.704 2.143-1.056 3.328-1.056.734 0 1.36.168 1.876.502.517.336.86.847 1.026 1.534-1.735.2-2.686.318-2.852.351-1.1.235-1.918.679-2.452 1.332 3.003.72 4.528 1.088 4.579 1.105 2 .72 3.001 1.726 3.001 3.014 0 1.76-1.335 2.983-4.003 3.67-1.568.402-3.618.602-6.154.602-1.201 0-1.626-.076-2.126-.226-.376-.112-.678-.275-.905-.486a5.333 5.333 0 01-.166.467 2.732 2.732 0 01-1.525-.998c-.152-.183-.451-.723-.902-1.622-.067.168-.668.625-1.801 1.37-1.134.746-1.819 1.118-2.052 1.118-.885 0-1.53-.293-1.94-.88-.407-.585-.612-1.339-.612-2.261 0-1.307.717-3.14 2.151-5.503 1.518-2.495 2.81-3.743 3.878-3.743zm-35.294.638c.246.087.587.427 1.025 1.019 1.103 1.489 2.711 2.334 2.974 2.536.543-1.242.85-1.929.92-2.059.542-.94 1.112-1.409 1.707-1.409a.64.64 0 01.565.292c.131.195.196.525.196.987 0 .737-.188 1.477-.565 2.223-.377.743-.767 1.493-1.17 2.244 0 .187 1.114 1.062 2.416 2.623.608.738.912 1.425.912 2.06v1.106c-.72-.172-1.383-.564-1.997-1.17-1.506-1.49-2.809-2.27-2.985-2.343-.403.68-1.016 1.51-1.839 2.49l-1.207 1.43a17.381 17.381 0 00-.553-.609c-.455-.478-.682-.862-.682-1.15 0-.479.568-1.427 1.708-2.845.525-.65.788-1.244.788-1.78 0-.637-1.255-1.462-1.91-2.475-.657-1.013-.986-1.672-.986-1.975 0-.276.054-.526.158-.75a.8.8 0 01.525-.445zm-6.408 1.172c1.018 0 1.976.386 2.877 1.159.901.773 1.352 1.663 1.352 2.671 0 1.177-1.635 1.941-4.904 2.294-1.852.151-2.995.243-3.428.277v.477c0 .438.384.816 1.15 1.136.652.269 1.234.402 1.752.402.65 0 1.459-.176 2.427-.528.967-.351 1.96-.72 2.978-1.105.3 0 .582.117.85.351.266.235.4.504.4.806 0 .854-.751 1.574-2.253 2.16-1.218.469-2.343.703-3.377.703-1.668 0-3.036-.36-4.103-1.083-1.251-.856-1.877-2.081-1.877-3.676 0-1.529.639-2.918 1.915-4.168 1.275-1.251 2.69-1.876 4.241-1.876zM24.469.076c.485.185.851.477 1.103.88.2.335.35.795.449 1.381.1.587.167 1.215.2 1.884.034.67.05 1.399.05 2.186v2.035c0 1.073.063.117.188 2.261s.187 3.752.187 4.824l-.625.05c-.25 0-.484-.034-.7-.1a.807.807 0 01-.476-.352c-.016-.066-.1-1.097-.25-3.09-.2-2.797-.334-2.136-.4-3.14-.128-1.971-.195-2.747-.2-3.074V1.282c0-.302.028-.561.087-.78a.574.574 0 01.387-.426zm65.067.891c.683.151 1.2.086 1.55.658.417.672.441.815.494 1.007.052.191.053.37.053.587 0 .084.025.19.075.316.05.125.083.206.1.239.18.101.376.168.585.202.207.034.443.05.709.05.166 0 .415-.008.747-.025.331-.016.564-.025.697-.025.32 0 .602.03.845.09.04-.026.078-.05.112-.07.096.071.188.141.277.21a1.537 1.537 0 01.535.43c.386.325.656.598.813.818.167.235.25.529.25.881 0 .454.02.8.062 1.044.042.244.196.642.463 1.195l2.302-2.864c.834-.837 1.969-1.257 3.402-1.257.835 0 1.577.127 2.228.377.932.37 1.4.904 1.4 1.608 0 .168-.067.335-.2.502-.135.168-.285.252-.45.252-.1 0-.376-.076-.826-.226-.25-.085-.442-.126-.575-.126-1.084 0-2.219.745-3.404 2.236-.533.67-1.434 2.06-2.7 4.17-.902 1.508-1.544 2.263-1.927 2.263-.784 0-1.318-1.097-1.601-3.292l-.45-4.347-.25-.982a6.11 6.11 0 01-.892.086c-1.402.042-2.327.339-2.778.89-.066.267-.1.567-.1.902v1.152c0 .352-.096 1.229-.29 2.632-.09.651-.135 1.17-.135 1.554 0 .484.075.952.225 1.404h-.5c-.618 0-1.076-.202-1.376-.602-.35-.469-.525-1.312-.525-2.533 0-.401.025-.876.075-1.428.116-1.271.174-2.065.174-2.38 0-.97-.63-1.53-1.896-1.685l-.205-.021c-1.401-.118-2.101-.743-2.101-1.88v-.352c.016-.1.058-.308.125-.626.783.134 1.226.209 1.325.227.534.083.994.125 1.377.125.851 0 1.451-.252 1.802-.757a2.15 2.15 0 00.342-1.227c-.01-.321-.065-.585-.065-.62 0-.454.034-.429.102-.782zM49.749 2.99c1.117 0 1.947.795 2.49 2.383.54 1.59.813 3.982.813 7.175 0 .57-.039 1.093-.114 1.57-.074.475-.204.939-.387 1.39a2.732 2.732 0 01-1.525-.997c-.151-.183-.452-.723-.902-1.622-.067.168-.667.625-1.801 1.37-1.135.746-1.819 1.118-2.052 1.118-.885 0-1.531-.293-1.94-.88-.408-.585-.612-1.338-.612-2.26 0-1.307.717-3.141 2.151-5.504 1.518-2.495 2.811-3.743 3.879-3.743zM40.867.422c.634.251 1.093.632 1.376 1.143.283.511.425 1.135.425 1.872v.459c-.001 1.376-.01 1.306-.025 2.357-.066 4.608-.1 7.138-.1 7.59l-.875-.137c-.485-.076-.851-.113-1.102-.113-.734.486-1.438.912-2.114 1.281a4.497 4.497 0 01-2.189.552c-.95 0-1.768-.384-2.452-1.155-.683-.77-1.025-1.642-1.025-2.613 0-1.172.509-2.42 1.526-3.743 1.085-1.408 2.193-2.11 3.328-2.11.35 0 .654.024.913.074.259.051.629.143 1.113.278.1-.336.179-.65.237-2.654.059-2.003.379-2.461.964-3.081zm-24.03 3.952c1.437 0 2.778.355 4.02 1.061 1.47.84 2.205 1.916 2.205 3.232 0 1.76-1.12 3.364-3.358 4.81-2.026 1.299-3.987 1.949-5.882 1.949-1.013 0-1.72-.263-2.12-.788-.402-.527-.6-1.317-.6-2.37 0-1.332.33-2.582.991-3.75a8.583 8.583 0 012.709-2.91c.408-.346.72-.6.932-.764.392-.312.76-.47 1.102-.47zM2.384 2.316c.232 1.376.386 2.387.435 3.583.05 1.232.067.242.003 1.584.529-.76 1.014-1.351 1.458-1.776.72-.706 1.356-.61 1.954-.61 1.337 0 2.371 1.37 3.101 4.108.582 2.156.832 4.099.749 5.83h-.422c-1.109 0-1.79-1.006-2.046-3.021C7.363 10 6.848 8.808 6.075 8.437c-1.56.998-1.912 1.3-2.337 2.35-.575 1.422-.555 2.916-.712 3.976 0 0-.052.114-.123.182-.072.068-.151.11-.544.232-.393.12-.249.143-.653.143s-.616-.388-.737-.583c-.143-.228-.17-.477-.276-.848-.258-.849-.43-2.544-.52-5.087-.058-1.73-.215-.742-.162-3.47C.062 2.604.009 2.887.07 1.58c.017-.353.08-.622.185-.807C.362.587.502.494.678.494c.774 0 1.378-.122 1.707 1.822zM30.16 6.054c.216 0 .479.348.787 1.044.308.695.463 1.186.463 1.47v1.107c0 1.173-.03 2.175-.088 3.005-.058.83-.187 1.704-.388 2.627-.8-.1-1.342-.418-1.625-.956-.05-.1-.226-.745-.526-1.935a6.328 6.328 0 01-.15-.943c-.033-.36-.05-.716-.05-1.069 0-.435.033-1.098.1-1.986.066-.888.1-1.56.1-2.011.167 0 .459-.075.876-.227.233-.083.4-.126.5-.126zm8.756 1.96c-.751 0-1.493.444-2.227 1.333-.735.887-1.101 1.717-1.101 2.487 0 .335.091.627.276.88.183.252.441.376.774.376.602 0 1.318-.485 2.152-1.457.834-.971 1.25-1.759 1.25-2.363 0-.35-.103-.648-.312-.891a1.023 1.023 0 00-.812-.365zm-20.389-.957c-1.126 0-2.27.503-3.43 1.508-1.162 1.006-1.741 2.06-1.741 3.165 0 .444.163.757.49.939.327.18.727.272 1.2.272.981 0 2.158-.428 3.531-1.286 1.503-.94 2.254-1.87 2.254-2.792 0-.528-.244-.961-.734-1.3a2.725 2.725 0 00-1.57-.506zm93.692-1.625c-.15 0-.345.076-.588.227-.242.15-.446.31-.613.477-.367.386-.901 1.282-1.6 2.688-.702 1.408-1.052 2.354-1.052 2.84v.276c1.168-.268 2.119-.954 2.853-2.06.733-1.105 1.1-2.278 1.1-3.517a3.937 3.937 0 00-.1-.93zm-62.095-.006c-.15 0-.347.076-.588.227a3.33 3.33 0 00-.613.477c-.367.386-.9 1.282-1.601 2.688-.7 1.408-1.051 2.354-1.051 2.84v.276c1.167-.268 2.119-.955 2.853-2.06.733-1.106 1.1-2.278 1.1-3.518a3.811 3.811 0 00-.1-.93zm19.741 1.59c-.566 0-1.109.185-1.626.552-.3.218-.717.62-1.25 1.206.753.184 1.61.276 2.565.276.384 0 .8-.024 1.243-.075.445-.05.869-.116 1.27-.2v-.378c0-.401-.254-.732-.763-.992s-.988-.39-1.439-.39zM28.732 0c.351 0 .66.239.927.716.266.478.4.918.4 1.319 0 .269-.067.508-.2.717-.134.21-.334.313-.6.313-.35 0-.647-.221-.89-.665-.24-.444-.362-.876-.362-1.294 0-.268.059-.518.176-.754.116-.235.3-.352.55-.352z" fill="#BECEFD"/>
</svg>