<svg width="81" height="16" xmlns="http://www.w3.org/2000/svg">
  <path d="M8.606.001c.369-.017.718.16.913.464a.955.955 0 01.025.996L1.917 15.474a1.022 1.022 0 01-.9.526c-.356 0-.686-.18-.87-.475a.955.955 0 01-.03-.966L7.744.547A1.02 1.02 0 018.606 0zm3.767.112a.99.99 0 01.42 1.311L5.469 15.473a.975.975 0 01-.865.527.975.975 0 01-.835-.476.994.994 0 01-.03-.968L11.066.507a.972.972 0 011.308-.394zM81 0v15.754h-3.481v-1.046c-.666.8-1.634 1.292-2.984 1.292-3.158 0-5.222-2.646-5.222-5.908s2.064-5.907 5.222-5.907c1.35 0 2.318.492 2.984 1.292V0H81zM15.593 7.311c.473.244.661.815.424 1.285l-3.687 6.887a.985.985 0 01-.87.517.987.987 0 01-.84-.467.952.952 0 01-.03-.949l3.687-6.887a.992.992 0 011.316-.386zm-4.126-.11a.984.984 0 01.878.454c.188.296.197.67.024.975l-3.672 6.855A.982.982 0 017.83 16a.983.983 0 01-.838-.465.948.948 0 01-.029-.945l3.673-6.855a.98.98 0 01.83-.534zM50.818 4a5.685 5.685 0 015.197 3.567l-3.089 1a2.429 2.429 0 00-2.108-1.317c-1.364 0-2.471 1.23-2.471 2.75s1.107 2.75 2.471 2.75a2.429 2.429 0 002.108-1.318l3.082 1A5.685 5.685 0 0150.818 16c-3.138 0-5.684-2.688-5.684-6 0-3.313 2.546-6 5.684-6zM37.46 4c1.35 0 2.318.5 2.984 1.312V4.25h3.481v11.5h-3.48v-1.063C39.777 15.5 38.81 16 37.46 16c-3.157 0-5.221-2.688-5.221-6 0-3.313 2.064-6 5.221-6zm25.204 0c3.227 0 5.843 2.687 5.843 6 0 .335-.027.67-.08 1h-8.13a2.553 2.553 0 002.365 1.75 2.438 2.438 0 001.87-.903l3.254 1.025c-.98 1.903-2.955 3.109-5.122 3.128-3.226 0-5.843-2.688-5.843-6 0-3.313 2.617-6 5.843-6zM24.448 0v12.187h6.985V15.6H20.955V0h3.493zm50.584 7.385c-1.372 0-2.486 1.21-2.486 2.707S73.66 12.8 75.032 12.8s2.487-1.214 2.487-2.708c0-1.494-1.114-2.707-2.487-2.707zM37.958 7.25c-1.373 0-2.487 1.23-2.487 2.75s1.114 2.75 2.487 2.75c1.372 0 2.486-1.233 2.486-2.75s-1.114-2.75-2.486-2.75zm24.704 0a2.526 2.526 0 00-2.261 1.5h4.522a2.523 2.523 0 00-2.261-1.5z" fill="#BECEFD"/>
</svg>