<svg width="95" height="18" xmlns="http://www.w3.org/2000/svg">
  <path d="M62.523 5.4c4.103 0 6.426 3.05 6.227 7.278h-9.689c.343 1.755 1.609 2.877 3.815 2.877a4.87 4.87 0 003.415-1.296l1.686 1.784C66.856 17.164 65.31 18 62.9 18c-4.132 0-6.802-2.675-6.802-6.3a6.086 6.086 0 011.839-4.479 6.422 6.422 0 014.587-1.82zm-43.88 0c4.103 0 6.425 3.05 6.226 7.278h-9.69c.344 1.755 1.61 2.877 3.815 2.877a4.868 4.868 0 003.414-1.296l1.687 1.784C22.975 17.164 21.427 18 19.017 18c-4.132 0-6.801-2.675-6.801-6.3a6.086 6.086 0 011.84-4.48 6.42 6.42 0 014.587-1.82zM53.833 0v17.76h-2.668v-1.682A5.41 5.41 0 0146.97 18a6.405 6.405 0 01-4.5-1.883 6.019 6.019 0 01-1.752-4.439v-.003c0-3.892 2.988-6.321 6.277-6.321a5.48 5.48 0 014.17 1.826V0h2.668zm21.58 5.4c2.298 0 4.004.899 4.968 2.346L78.183 8.93a3.21 3.21 0 00-2.768-1.379c-1.409 0-2.132.678-2.132 1.452 0 .872 1.136 1.113 2.917 1.498 2.026.435 4.324 1.088 4.324 3.605 0 1.67-1.482 3.92-4.993 3.895-2.57 0-4.375-1.017-5.412-2.808l.003.004 2.372-1.209a3.533 3.533 0 003.163 1.765c1.484 0 2.25-.748 2.25-1.596 0-.967-1.433-1.186-2.99-1.497-2.1-.436-4.275-1.114-4.275-3.606 0-1.911 1.853-3.678 4.77-3.653zm-42.615 0c3.078 0 5.654 2.022 5.654 5.385V18h-2.638v-6.88c0-2.025-.978-3.238-2.932-3.238s-3.1 1.213-3.1 3.238V18h-2.64v-7.215c0-3.36 2.577-5.385 5.655-5.385zm-22.04 0v2.38l-7.352 7.438h7.451v2.332H0v-2.38l7.351-7.437H.172V5.4h10.587zM85.466 0v11.49l5.692-5.962h3.264l-4.933 5.146 5.06 6.876h-3.036l-3.92-5.338-2.127 2.212v3.126h-2.68V0h2.68zM47.27 7.917c-2.177.042-3.914 1.777-3.892 3.889.021 2.112 1.793 3.813 3.97 3.813 1.073 0 2.101-.422 2.849-1.169a3.788 3.788 0 001.12-2.796c-.065-2.111-1.87-3.778-4.047-3.737zm-32.092 2.748h6.77c-.257-1.639-1.262-2.845-3.27-2.845-1.753-.097-3.284 1.147-3.5 2.845zm43.881 0h6.772c-.258-1.64-1.262-2.846-3.27-2.846-1.755-.097-3.286 1.147-3.502 2.845zm35.677-6.8a.897.897 0 010 1.27.907.907 0 01-1.546-.635.907.907 0 011.545-.636zm-1.138.142a.687.687 0 000 .974c.27.27.708.27.979.002l.002-.002a.687.687 0 00-.002-.975.695.695 0 00-.979 0zm.574-.086l.273.273a.34.34 0 01.053.488.29.29 0 01-.34.068l-.083.347-.18-.18.133-.48.073.074a.144.144 0 00.22.015.144.144 0 00-.018-.203l-.01-.007-.094-.107-.504.502-.16-.16.637-.63z" fill="#BECEFD"/>
</svg>