<svg width="24" height="16" xmlns="http://www.w3.org/2000/svg"><g fill-rule="nonzero" fill="none"><path d="M4.546 0h5.794c.808 0 1.311.726 1.123 1.619L8.765 14.368c-.19.89-1 1.616-1.81 1.616H1.164c-.808 0-1.312-.726-1.123-1.616L2.738 1.619C2.927.726 3.736 0 4.546 0" fill="#DD2423"/><path d="M9.858 0h6.662c.809 0 .444.726.254 1.619l-2.697 12.749c-.19.89-.13 1.616-.94 1.616H6.474c-.81 0-1.312-.726-1.122-1.616L8.05 1.619C8.241.726 9.05 0 9.858 0" fill="#16315E"/><path d="M16.256 0h5.794c.81 0 1.313.726 1.122 1.619l-2.697 12.749c-.19.89-1 1.616-1.81 1.616h-5.791c-.81 0-1.313-.726-1.123-1.616l2.697-12.749C14.637.726 15.446 0 16.256 0" fill="#036862"/><path d="M6.059 4.086c-.596.006-.772 0-.828-.015l-.425 2.156c-.086.413-.15.708-.363.898a.612.612 0 01-.428.164c-.264 0-.418-.145-.444-.419l-.005-.094.08-.556s.423-1.86.498-2.106a.195.195 0 00.006-.028c-.821.008-.967 0-.977-.015-.005.02-.025.135-.025.135l-.431 2.097-.037.178-.072.582c0 .172.03.313.092.432.196.378.756.435 1.073.435.408 0 .791-.096 1.05-.27.449-.292.566-.749.671-1.155l.049-.208s.434-1.932.508-2.183c.003-.014.004-.022.008-.028zm1.479 1.558c-.105 0-.296.028-.468.121-.063.036-.122.076-.184.117l.056-.224-.03-.037c-.365.081-.447.092-.784.144l-.028.02c-.04.358-.074.626-.22 1.328-.054.259-.112.52-.17.778l.016.033c.346-.02.45-.02.75-.015l.025-.029c.038-.215.043-.265.127-.7.04-.207.123-.66.164-.822a.523.523 0 01.22-.076c.167 0 .147.162.14.226a8.84 8.84 0 01-.13.764l-.043.195c-.03.145-.061.285-.09.428l.012.029c.34-.02.444-.02.735-.015l.034-.029c.053-.335.068-.425.161-.914l.047-.225c.091-.44.137-.662.068-.844-.073-.203-.247-.253-.408-.253zm1.652.46c-.18.039-.296.064-.41.08-.115.021-.225.04-.4.066l-.014.014-.013.01c-.018.144-.03.268-.055.414-.02.15-.052.321-.103.567-.04.189-.06.254-.083.32-.022.067-.046.131-.09.316l.01.017.008.016c.164-.009.27-.015.38-.016.11-.004.224 0 .4.001l.015-.013.017-.016c.025-.167.03-.212.045-.293.015-.087.042-.208.107-.531.03-.152.065-.303.097-.458.033-.154.068-.306.1-.458l-.004-.018-.007-.017zm.004-.62c-.164-.107-.453-.073-.647.075-.194.144-.216.35-.052.458.162.104.451.073.644-.076.193-.148.217-.351.055-.457zm.994 2.473c.333 0 .674-.1.93-.4.198-.243.288-.604.32-.753.102-.493.022-.723-.078-.863-.151-.214-.42-.283-.698-.283-.167 0-.565.019-.876.334-.224.228-.327.537-.389.833-.063.302-.135.846.319 1.048.14.066.342.084.472.084zm-.026-1.109c.077-.373.167-.687.398-.687.181 0 .194.233.114.608-.014.083-.08.392-.17.524-.062.097-.136.156-.218.156-.024 0-.169 0-.17-.236a1.76 1.76 0 01.046-.365zm2.107 1.061l.026-.029c.037-.215.043-.265.124-.7.041-.207.126-.66.165-.822.075-.038.148-.076.221-.076.167 0 .147.162.14.226-.006.108-.067.46-.131.764l-.04.195c-.03.145-.063.285-.093.428l.013.03c.342-.021.441-.021.734-.016l.035-.029c.051-.336.065-.425.161-.914l.046-.225c.091-.44.138-.662.07-.844-.075-.203-.251-.253-.41-.253-.104 0-.297.028-.468.121a3.058 3.058 0 00-.182.117l.052-.224-.028-.037c-.365.081-.448.092-.784.144l-.026.02c-.041.358-.074.626-.22 1.328-.055.259-.112.52-.17.778l.016.033c.346-.02.45-.02.749-.015zm2.509.015l.15-.8s.108-.5.115-.519c0 0 .034-.052.068-.073h.05c.475 0 1.01 0 1.43-.34.286-.233.481-.577.569-.996a1.65 1.65 0 00.039-.346c0-.16-.03-.32-.114-.443-.214-.33-.64-.336-1.132-.338l-.243.002c-.63.009-.883.006-.986-.008l-.026.14-.225 1.154-.566 2.563c.55-.008.776-.008.87.004zm.418-2.045l.239-1.145.007-.059.004-.045.096.011.506.048c.195.083.276.298.22.578-.052.255-.202.47-.396.574-.16.088-.355.095-.556.095h-.13l.01-.057zm1.494.99c-.064.298-.137.841.315 1.035a.81.81 0 00.404.08c.139-.008.267-.085.386-.195l-.032.136.02.03c.325-.016.426-.016.778-.013l.032-.027c.052-.332.1-.655.234-1.292.065-.305.13-.606.197-.91l-.01-.033c-.364.074-.462.09-.811.144l-.027.024-.01.09a.515.515 0 00-.255-.23c-.156-.068-.52.019-.835.334-.22.224-.326.532-.386.827zm.763.018c.078-.366.167-.677.399-.677.146 0 .223.15.208.403l-.042.205c-.023.11-.048.217-.073.325a.823.823 0 01-.085.19.387.387 0 01-.283.151c-.024 0-.166 0-.171-.232-.002-.115.02-.234.047-.365zm3.987-1.21l-.028-.036c-.36.08-.425.093-.756.142l-.024.027-.004.017v-.006c-.247.625-.24.49-.44.982l-.002-.06-.05-1.066-.032-.036c-.377.08-.385.093-.733.142l-.028.027c-.003.013-.003.027-.006.042l.003.006c.043.244.033.19.076.576.02.19.048.38.068.567.034.313.054.468.096.946-.235.426-.291.588-.517.963l.001.003-.159.278c-.018.029-.035.049-.058.057a.22.22 0 01-.104.017h-.089l-.13.48.45.009a.549.549 0 00.519-.32l.283-.534h-.005l.03-.038c.19-.45 1.639-3.185 1.639-3.185zm-4.75 6.308h-.191l.706-2.573h.235l.074-.265.007.295c-.008.182.122.344.464.317h.395l.137-.495h-.15c-.085 0-.125-.024-.12-.075l-.007-.3h-.732v.002c-.237.005-.944.025-1.088.067-.173.049-.355.193-.355.193l.071-.265h-.685l-.143.526-.716 2.613h-.139l-.136.492h1.365l-.046.164h.672l.045-.164h.189l.148-.532zm-.56-2.05c-.11.034-.314.135-.314.135l.181-.658h.545l-.132.48s-.168.01-.28.043zm.01.94s-.17.023-.283.051c-.111.037-.32.154-.32.154l.188-.684h.548l-.133.479zm-.305 1.116h-.546l.158-.577h.545l-.157.577zm1.315-1.595h.787l-.113.403h-.797l-.12.44h.698l-.529.82a.223.223 0 01-.107.098.293.293 0 01-.141.045h-.194l-.133.483h.506c.264 0 .419-.132.534-.305l.362-.546.078.554a.257.257 0 00.13.189c.05.028.103.076.177.083.08.004.137.007.175.007h.249l.15-.54h-.099c-.056 0-.153-.011-.17-.03-.016-.024-.016-.06-.025-.116l-.08-.556h-.322l.141-.185h.797l.122-.441h-.737l.115-.403h.735l.136-.498h-2.19l-.135.498zm-6.648 1.708l.184-.673h.755l.138-.5h-.756l.115-.415h.739l.137-.484H9.966l-.134.484h.42l-.112.414h-.421l-.14.51h.42l-.245.89c-.033.117.015.162.046.217a.205.205 0 00.135.109c.074.018.125.029.194.029h.851l.152-.555-.377.058c-.073 0-.275-.01-.253-.084zm.086-3.221l-.19.38a.438.438 0 01-.112.16c-.03.02-.087.028-.17.028h-.1l-.134.487h.331a.7.7 0 00.34-.097c.064-.037.08-.016.129-.067l.112-.107h1.035l.137-.507h-.757l.132-.277h-.753zm1.53 3.23c-.019-.027-.006-.077.021-.18l.283-1.03h1.007c.147-.003.253-.005.321-.01a.617.617 0 00.243-.09.474.474 0 00.176-.179c.043-.066.113-.21.173-.433l.356-1.305-1.045.007s-.321.052-.463.11a1.887 1.887 0 00-.347.244l.094-.358h-.645l-.904 3.298a2.218 2.218 0 00-.058.277c-.002.06.069.12.115.165.054.045.134.038.21.045.08.007.196.01.354.01h.496l.152-.565-.444.046a.114.114 0 01-.096-.052zm.487-1.907h1.057l-.067.232c-.01.005-.032-.012-.14.002h-.915l.065-.234zm.212-.778h1.066l-.077.28s-.502-.006-.583.01a1.15 1.15 0 00-.56.276l.154-.566zm.802 1.787a.126.126 0 01-.042.071c-.022.016-.057.021-.108.021h-.151l.009-.282H12.7l-.025 1.38c-.001.1.007.158.074.204.066.058.27.065.545.065h.392l.142-.517-.342.02-.113.008c-.016-.007-.03-.014-.047-.032-.015-.016-.039-.006-.035-.106l.003-.354.358-.016c.194 0 .277-.07.347-.136.068-.063.09-.136.115-.234l.06-.313h-.493l-.062.22z" fill="#FEFEFE"/></g></svg>