<?xml version="1.0" encoding="UTF-8"?>
<svg width="24px" height="16px" viewBox="0 0 24 16" version="1.1" xmlns="http://www.w3.org/2000/svg" xmlns:xlink="http://www.w3.org/1999/xlink">
    <title>SVG Layer</title>
    <g id="Design" stroke="none" stroke-width="1" fill="none" fill-rule="evenodd">
        <g id="2" transform="translate(-378.000000, -2960.000000)" fill-rule="nonzero">
            <g id="Group-18" transform="translate(115.000000, 2591.000000)">
                <g id="Group-19" transform="translate(90.000000, 90.000000)">
                    <g id="Group-7" transform="translate(0.000000, 279.000000)">
                        <g id="SVG-Layer" transform="translate(173.000000, 0.000000)">
                            <path d="M4.54588254,6.676e-05 L10.3396572,6.676e-05 C11.148416,6.676e-05 11.6514365,0.72573135 11.4627685,1.61897657 L8.76535242,14.3675416 C8.5749898,15.2576777 7.76524248,15.9839641 6.9559188,15.9839641 L1.16270904,15.9839641 C0.35507999,15.9839641 -0.14907033,15.2576777 0.03959769,14.3675416 L2.7381435,1.61897657 C2.92681153,0.72573135 3.7361352,6.676e-05 4.54588254,6.676e-05" id="Path" fill="#DD2423"></path>
                            <path d="M9.85756516,6.676e-05 L16.5202578,6.676e-05 C17.3288752,6.676e-05 16.9642489,0.72573135 16.7740275,1.61897657 L14.0770351,14.3675416 C13.8878022,15.2576777 13.9468315,15.9839641 13.1365193,15.9839641 L6.47382682,15.9839641 C5.66351461,15.9839641 5.16204743,15.2576777 5.3524101,14.3675416 L8.04926126,1.61897657 C8.24075364,0.72573135 9.0483827,6.676e-05 9.85756516,6.676e-05" id="Path" fill="#16315E"></path>
                            <path d="M16.2559813,6.676e-05 L22.0497558,6.676e-05 C22.8596444,6.676e-05 23.362665,0.72573135 23.1724436,1.61897657 L20.4754512,14.3675416 C20.2850886,15.2576777 19.4747763,15.9839641 18.665029,15.9839641 L12.8739375,15.9839641 C12.0636253,15.9839641 11.5610284,15.2576777 11.7508262,14.3675416 L14.4482422,1.61897657 C14.6369103,0.72573135 15.445669,6.676e-05 16.2559813,6.676e-05" id="Path" fill="#036862"></path>
                            <path d="M6.05901135,4.08561434 C5.46321019,4.09229891 5.28725184,4.08561434 5.23104685,4.07100156 C5.20944039,4.18401744 4.80739108,6.2256098 4.80626132,6.2273198 C4.71969433,6.6403641 4.65671089,6.9347961 4.44276473,7.12491775 C4.32131675,7.23544635 4.17953329,7.28876745 4.01515487,7.28876745 C3.75093491,7.28876745 3.59700665,7.14434965 3.57116365,6.8704377 L3.56622101,6.77638735 C3.56622101,6.77638735 3.64671559,6.2231225 3.64671559,6.2200134 C3.64671559,6.2200134 4.06867671,4.35952629 4.14422865,4.11359627 C4.14818277,4.09960531 4.14931252,4.09229891 4.15030104,4.08561434 C3.32897379,4.09354255 3.18337744,4.08561434 3.17335092,4.07100156 C3.16784339,4.09105527 3.14750792,4.20640298 3.14750792,4.20640298 L2.71665004,6.30333735 L2.67965077,6.48117805 L2.60805295,7.06289115 C2.60805295,7.23544635 2.6388386,7.3762887 2.70012747,7.49536735 C2.89642129,7.8729679 3.45635296,7.92955355 3.77310622,7.92955355 C4.18122791,7.92955355 4.56407147,7.8341041 4.82278389,7.6598389 C5.27185898,7.3677387 5.38935286,6.91116695 5.49413704,6.50542905 L5.54271621,6.2972746 C5.54271621,6.2972746 5.97738703,4.36496723 6.05124431,4.11359627 C6.05406872,4.09960531 6.05519844,4.09229891 6.05901135,4.08561434 L6.05901135,4.08561434 Z M7.53795117,5.6444252 C7.43316695,5.6444252 7.24167458,5.6724071 7.06967036,5.76521385 C7.00725176,5.80050215 6.9482224,5.8412314 6.88594497,5.8818052 L6.94214997,5.65841615 L6.91136434,5.620796 C6.54659673,5.70209905 6.46497241,5.7129809 6.12802489,5.76521385 L6.09978115,5.78588935 C6.06066363,6.14296985 6.02592382,6.41144085 5.88089237,7.1133208 C5.82567591,7.37199815 5.76834116,7.6331628 5.71086519,7.8912183 L5.72639922,7.92401935 C6.07167868,7.90396565 6.17646285,7.90396565 6.47655231,7.90940655 L6.50084192,7.88033645 C6.53897095,7.665342 6.54391357,7.61497455 6.62836231,7.1795447 C6.66804473,6.97310025 6.75079881,6.51948215 6.79161099,6.3579643 C6.86659803,6.3197223 6.94059657,6.28210215 7.01120585,6.28210215 C7.1793972,6.28210215 7.1589205,6.44362005 7.15242443,6.5079785 C7.1452223,6.6160198 7.08393342,6.968903 7.02109118,7.27188505 L6.97914924,7.4674476 C6.94991701,7.61186545 6.91786036,7.7522414 6.88862813,7.8954156 L6.90133779,7.92401935 C7.24167458,7.90396565 7.34547025,7.90396565 7.63609807,7.90940655 L7.67027297,7.88033645 C7.72280627,7.54455335 7.73819908,7.4547003 7.83140335,6.96579385 L7.87828792,6.7411612 C7.96937393,6.30153405 8.01512874,6.0786114 7.94621408,5.8970398 C7.87334529,5.693549 7.6985167,5.6444252 7.53795117,5.6444252 L7.53795117,5.6444252 Z M9.19009556,6.1047123 C9.00919455,6.1429543 8.89381897,6.1684489 8.7791495,6.18492715 C8.66546853,6.2049809 8.55461193,6.22316915 8.37978334,6.2499074 L8.36594393,6.2637429 L8.35323427,6.27478025 C8.33501708,6.4181099 8.32230737,6.5420076 8.29815902,6.6876691 C8.27768233,6.8383051 8.24619058,7.0094612 8.19492825,7.25539125 C8.15524582,7.4436474 8.13476912,7.5092495 8.11217413,7.5754734 C8.09014403,7.64169725 8.06585446,7.7060557 8.02122937,7.89120275 L8.03167956,7.90830285 L8.0404351,7.9240038 C8.203825,7.91545375 8.31072747,7.909391 8.42059553,7.90830285 C8.53032237,7.9039501 8.64400329,7.90830285 8.81996164,7.909391 L8.8353545,7.8955555 L8.85187707,7.8803209 C8.87729639,7.7133621 8.88110931,7.66843555 8.89664333,7.58697705 C8.91203615,7.49961125 8.93858527,7.3786672 9.00368702,7.0556314 C9.0344727,6.9039072 9.06878881,6.75264935 9.1007042,6.597816 C9.13389061,6.4436045 9.16863032,6.29172485 9.20167547,6.14000065 L9.19673284,6.12165695 L9.19009556,6.1047123 Z M9.19395081,5.4841043 C9.02957241,5.37730665 8.74106285,5.41119585 8.54688727,5.5587228 C8.35327664,5.70329605 8.33124655,5.90849685 8.49506009,6.0166936 C8.65661412,6.12053765 8.94625343,6.0896021 9.1387343,5.9408315 C9.33192138,5.79314915 9.35606973,5.5898138 9.19395081,5.4841043 L9.19395081,5.4841043 Z M10.1880589,7.9574733 C10.5206287,7.9574733 10.8615304,7.8565829 11.1181246,7.5571763 C11.3155481,7.3143554 11.4060692,6.95307765 11.4374198,6.8043071 C11.5395209,6.3112034 11.4600147,6.0809743 11.3601732,5.9407538 C11.2085045,5.72700295 10.9404716,5.65844725 10.6624122,5.65844725 C10.4952094,5.65844725 10.096973,5.6766355 9.78586856,5.9923649 C9.5624607,6.22010665 9.45922993,6.5291515 9.39695255,6.82544895 C9.33411031,7.12734285 9.26180634,7.670814 9.71582409,7.87306115 C9.85591293,7.93928505 10.0578555,7.9574733 10.1880589,7.9574733 L10.1880589,7.9574733 Z M10.1620748,6.84798995 C10.2387565,6.47458675 10.3292776,6.16118915 10.5603112,6.16118915 C10.7413534,6.16118915 10.7544867,6.3943719 10.6739921,6.76901875 C10.6595879,6.85218725 10.5934976,7.16138755 10.5041062,7.29305805 C10.4416876,7.3902175 10.3678303,7.449135 10.2862059,7.449135 C10.2619163,7.449135 10.1174497,7.449135 10.1151902,7.21299865 C10.1140605,7.0964073 10.1356669,6.97732865 10.1620748,6.84798995 Z M12.2687736,7.9094532 L12.2947577,7.8803831 C12.3316158,7.66538865 12.3376882,7.6148657 12.4193126,7.17959135 C12.4601247,6.9731469 12.5445734,6.5195288 12.5842559,6.3580109 C12.6593841,6.3196135 12.7321117,6.28199335 12.8049804,6.28199335 C12.972042,6.28199335 12.9517066,6.44351125 12.9450694,6.50786965 C12.9389969,6.61606645 12.8777081,6.96879415 12.813736,7.2717762 L12.7740536,7.4673388 C12.7436916,7.61191205 12.7106465,7.7521326 12.6814142,7.89546225 L12.6941239,7.924066 C13.0355904,7.90401225 13.1354319,7.90401225 13.4277544,7.9094532 L13.4630591,7.8803831 C13.5143214,7.54444455 13.5281608,7.45459145 13.6241895,6.9658405 L13.6699443,6.7410524 C13.7614539,6.30142525 13.8077735,6.07865805 13.7399887,5.89708645 C13.6650016,5.69359565 13.4890433,5.64447185 13.3307372,5.64447185 C13.2258118,5.64447185 13.0333309,5.6722983 12.8623152,5.7652605 C12.8011676,5.8005488 12.7398787,5.8411226 12.6797196,5.88185185 L12.7321117,5.6584628 L12.7040092,5.6206872 C12.3393829,5.7021457 12.2560639,5.71302755 11.91954,5.7652605 L11.893697,5.785936 C11.8528848,6.14301645 11.8196984,6.41133205 11.674667,7.11336745 C11.6194506,7.3720448 11.5621158,7.6332094 11.5047811,7.89126495 L11.5201739,7.924066 C11.8660181,7.90401225 11.969249,7.90401225 12.2687736,7.9094532 L12.2687736,7.9094532 Z M14.7775922,7.92398825 C14.7990574,7.80864055 14.9265778,7.12494885 14.9277075,7.12494885 C14.9277075,7.12494885 15.0363046,6.6232951 15.042942,6.60510685 C15.042942,6.60510685 15.0771168,6.55287395 15.1112917,6.5321984 L15.1615655,6.5321984 C15.6359187,6.5321984 16.1715608,6.5321984 16.5914036,6.192218 C16.8770888,5.9590353 17.0723941,5.61470215 17.1595259,5.19621695 C17.1821209,5.09361655 17.1987847,4.97158426 17.1987847,4.84955199 C17.1987847,4.68927774 17.1695525,4.53071349 17.0851038,4.40681575 C16.8710164,4.0770954 16.4446776,4.07103265 15.9525308,4.06854536 C15.9509774,4.06854536 15.7099172,4.07103265 15.7099172,4.07103265 C15.0799412,4.07958268 14.8273011,4.0770954 14.7235055,4.06310444 C14.7147499,4.11362735 14.6982273,4.20348043 14.6982273,4.20348043 C14.6982273,4.20348043 14.47256,5.3547812 14.47256,5.35664665 C14.47256,5.35664665 13.9325402,7.80444325 13.9071208,7.91979095 C14.4571672,7.9124846 14.6826933,7.9124846 14.7775922,7.92398825 L14.7775922,7.92398825 Z M15.1957404,5.87882045 C15.1957404,5.87882045 15.4356708,4.72985153 15.4345411,4.73420427 L15.442308,4.67528678 L15.4456973,4.63036024 L15.5415847,4.64124209 C15.5415847,4.64124209 16.0364146,4.68803409 16.0479946,4.68927774 C16.2432998,4.77244624 16.3237944,4.98681887 16.2675894,5.2666381 C16.2163271,5.5223618 16.0656469,5.7373563 15.8720362,5.8412003 C15.7126004,5.9291879 15.5172951,5.9364943 15.3160587,5.9364943 L15.1858552,5.9364943 L15.1957404,5.87882045 Z M16.6896071,6.8692718 C16.6261999,7.1668129 16.5533311,7.7102841 17.0050893,7.9039812 C17.1491322,7.9714487 17.278206,7.9915024 17.4093981,7.98419605 C17.5479336,7.9759569 17.6763012,7.899473 17.7952073,7.78941075 C17.7844747,7.8346482 17.7737421,7.87988565 17.7630095,7.92527855 L17.7834861,7.95434865 C18.1084301,7.9392695 18.2092602,7.9392695 18.561318,7.94222315 L18.5932334,7.91548485 C18.644637,7.58281085 18.693075,7.2597751 18.8266678,6.62334175 C18.8917695,6.3184942 18.95673,6.01660035 19.0235265,5.71299645 L19.0130764,5.6795736 C18.6495797,5.7537257 18.5524213,5.76958215 18.202764,5.8241469 L18.176215,5.8479315 C18.1726845,5.8788671 18.1690129,5.908559 18.1656236,5.93825095 C18.1112544,5.84155785 18.0324545,5.7590112 17.9108653,5.70755555 C17.7553836,5.64024345 17.3901924,5.7269874 17.0762635,6.0416286 C16.8556801,6.2662613 16.7497662,6.57406245 16.6896071,6.8692718 L16.6896071,6.8692718 Z M17.4530346,6.88746005 C17.5308461,6.52074135 17.6202374,6.2104529 17.851836,6.2104529 C17.9982796,6.2104529 18.0753849,6.35922345 18.0597097,6.61292625 C18.0472825,6.6761965 18.0338667,6.74288675 18.0179089,6.8182825 C17.9947492,6.92725655 17.9696122,7.03529785 17.9451814,7.14349465 C17.9203269,7.2174913 17.8913771,7.28729065 17.859603,7.33377175 C17.8000087,7.4267339 17.6582253,7.48440775 17.5766009,7.48440775 C17.553441,7.48440775 17.4105278,7.48440775 17.4055852,7.2524687 C17.4044554,7.13696555 17.4260619,7.01804235 17.4530346,6.88746005 Z M21.4397057,5.6766044 L21.4116033,5.6413161 C21.0519195,5.72153095 20.9868177,5.73427825 20.6563663,5.7834021 L20.6320766,5.81014035 C20.630947,5.8144931 20.6299584,5.8211777 20.6282638,5.82724045 L20.627134,5.8211777 C20.3811313,6.4459519 20.3883334,6.3111723 20.1880855,6.80303235 C20.1869557,6.7806468 20.1869557,6.76665585 20.185826,6.7428712 L20.1356933,5.6766044 L20.1042016,5.6413161 C19.7274305,5.72153095 19.7185337,5.73427825 19.3705711,5.7834021 L19.3434572,5.81014035 C19.3396442,5.8228877 19.3396442,5.83687865 19.3373848,5.85211325 L19.3396442,5.8575542 C19.3831396,6.1022406 19.3726894,6.04767585 19.416326,6.4338264 C19.4366614,6.6233262 19.4637754,6.8139142 19.4841108,7.0010822 C19.518427,7.3143243 19.5376327,7.4685358 19.5795746,7.94656035 C19.3445868,8.37344015 19.2889467,8.53495805 19.0627146,8.90960495 L19.064268,8.91333585 L18.9049734,9.1906678 C18.8867563,9.2198934 18.8702337,9.2399471 18.8470738,9.24849715 C18.8216545,9.26233265 18.7886094,9.2648199 18.7427133,9.2648199 L18.6544517,9.2648199 L18.5232597,9.7451763 L18.9733232,9.75372635 C19.2375432,9.7524827 19.4036163,9.61645945 19.4930076,9.4336442 L19.7760096,8.89981125 L19.7714906,8.89981125 L19.8012878,8.8621911 C19.9916504,8.4110603 21.4397057,5.6766044 21.4397057,5.6766044 L21.4397057,5.6766044 Z M16.6895929,11.9853625 L16.4986653,11.9853625 L17.2053232,9.41242455 L17.439746,9.41242455 L17.5141681,9.14737355 L17.5213703,9.4421165 C17.5126147,9.6243099 17.6428183,9.7858278 17.9848497,9.75908955 L18.3804029,9.75908955 L18.5165376,9.263654 L18.3676933,9.263654 C18.2821148,9.263654 18.2424324,9.23986935 18.2473751,9.1888801 L18.2401729,8.8890071 L17.5076721,8.8890071 L17.5076721,8.89056165 C17.2708486,8.8960026 16.5636259,8.91558995 16.4204303,8.95756285 C16.2471551,9.00668665 16.0645594,9.15125995 16.0645594,9.15125995 L16.1362984,8.885898 L15.4511059,8.885898 L15.308334,9.41242455 L14.5922146,12.0246927 L14.4532555,12.0246927 L14.3169795,12.5165528 L15.6817159,12.5165528 L15.6359611,12.6805579 L16.3084439,12.6805579 L16.353069,12.5165528 L16.5417371,12.5165528 L16.6895929,11.9853625 Z M16.1296613,9.9352202 C16.0199345,9.96864305 15.8157323,10.0699998 15.8157323,10.0699998 L15.9973394,9.41242455 L16.5417371,9.41242455 L16.4104038,9.8915373 C16.4104038,9.8915373 16.2422124,9.90241915 16.1296613,9.9352202 Z M16.1401115,10.8746356 C16.1401115,10.8746356 15.9690957,10.8982648 15.8565445,10.9262467 C15.7456879,10.9632451 15.5378142,11.0798364 15.5378142,11.0798364 L15.7253524,10.3955229 L16.2725745,10.3955229 L16.1401115,10.8746356 Z M15.8350793,11.9914253 L15.2889871,11.9914253 L15.4472931,11.4139095 L15.9916907,11.4139095 L15.8350793,11.9914253 Z M17.1501913,10.3955229 L17.9373438,10.3955229 L17.8242276,10.7987735 L17.0266252,10.7987735 L16.9068717,11.2396443 L17.604774,11.2396443 L17.0763342,12.0587374 C17.0393348,12.1188986 17.0061484,12.1401959 16.9692905,12.1571405 C16.9322911,12.177816 16.883712,12.202067 16.827507,12.202067 L16.6338963,12.202067 L16.5008683,12.6849107 L17.0072781,12.6849107 C17.2705096,12.6849107 17.4259912,12.5530847 17.540802,12.3800631 L17.9031689,11.8341047 L17.9809804,12.3884578 C17.9975029,12.4923017 18.0652878,12.5530847 18.1111838,12.5767139 C18.1618813,12.6046958 18.2142735,12.6527315 18.288272,12.6598824 C18.3676368,12.6636133 18.4249715,12.666567 18.4631005,12.666567 L18.7119277,12.666567 L18.8613369,12.1262049 L18.76319,12.1262049 C18.7068437,12.1262049 18.6098267,12.1157894 18.5933041,12.0963575 C18.5767815,12.0727283 18.5767815,12.0363518 18.5678847,11.9810098 L18.4889435,11.4254131 L18.1656941,11.4254131 L18.3074777,11.2396443 L19.1035267,11.2396443 L19.2259632,10.7987735 L18.4889435,10.7987735 L18.6037542,10.3955229 L19.3385145,10.3955229 L19.4747904,9.8982219 L17.2842078,9.8982219 L17.1501913,10.3955229 Z M10.501875,12.1037106 L10.6856003,11.4309008 L11.4406961,11.4309008 L11.5786666,10.9304907 L10.8228648,10.9304907 L10.9382404,10.5163582 L11.6768135,10.5163582 L11.8136543,10.0318045 L9.96566798,10.0318045 L9.83165157,10.5163582 L10.2514944,10.5163582 L10.1395081,10.9304907 L9.71853546,10.9304907 L9.57901157,11.4394508 L9.99871312,11.4394508 L9.75384011,12.3295869 C9.72079497,12.4474219 9.76937419,12.4923484 9.80015982,12.5470686 C9.83165157,12.6003897 9.863567,12.635678 9.93530603,12.6557317 C10.0093046,12.67392 10.060002,12.6848018 10.1289167,12.6848018 L10.9801823,12.6848018 L11.1318511,12.1304488 L10.754515,12.1875009 C10.6816462,12.1875009 10.4798449,12.1778627 10.501875,12.1037106 L10.501875,12.1037106 Z M10.5884843,8.88286665 L10.3971331,9.2635763 C10.3561797,9.34674475 10.3193217,9.3983559 10.2861353,9.4221405 C10.2569031,9.44219425 10.1990035,9.4505888 10.1151196,9.4505888 L10.0152781,9.4505888 L9.88182652,9.93762975 L10.2134078,9.93762975 C10.3728435,9.93762975 10.49528,9.87327135 10.5537446,9.8410921 C10.6165868,9.8040938 10.6331093,9.8252357 10.6816885,9.7736246 L10.7936749,9.6668269 L11.8290895,9.6668269 L11.9664952,9.15973225 L11.208575,9.15973225 L11.3408969,8.88286665 L10.5884843,8.88286665 Z M12.1170907,12.1134887 C12.0994383,12.0855067 12.112148,12.0362275 12.1391208,11.9336271 L12.4221228,10.9024932 L13.42887,10.9024932 C13.5755962,10.9001614 13.68151,10.8982959 13.7504247,10.892855 C13.8244232,10.8843049 13.9049179,10.8552348 13.9926146,10.8030019 C14.0831358,10.7482817 14.1294554,10.6906078 14.1685729,10.6243839 C14.2122095,10.5583155 14.2822539,10.4137422 14.342413,10.1908196 L14.6981426,8.8859291 L13.6534076,8.8926137 C13.6534076,8.8926137 13.3317117,8.9448466 13.1900695,9.00252045 C13.0471563,9.0668789 12.8429541,9.24658505 12.8429541,9.24658505 L12.9372882,8.88888275 L12.2919192,8.88888275 L11.3884028,12.1874854 C11.3563462,12.3155803 11.334881,12.4085425 11.3299084,12.4643509 C11.3282437,12.5245121 11.398853,12.5840514 11.4446078,12.6289779 C11.4986945,12.6739045 11.5786242,12.6665981 11.6553059,12.6739045 C11.7359417,12.6805891 11.8506112,12.6847863 12.0089172,12.6847863 L12.5048769,12.6847863 L12.6571105,12.1189296 L12.2131193,12.1650998 C12.1656699,12.1650998 12.1313538,12.1371178 12.1170907,12.1134887 Z M12.6047184,10.2060541 L13.6621631,10.2060541 L13.5949431,10.4379932 C13.5854815,10.4434341 13.5628865,10.4264895 13.4552779,10.4404805 L12.5396167,10.4404805 L12.6047184,10.2060541 Z M12.8165463,9.42815665 L13.8828877,9.42815665 L13.8062061,9.7075095 C13.8062061,9.7075095 13.3036092,9.7020686 13.2231146,9.71839135 C12.8689383,9.7858589 12.6620532,9.9941688 12.6620532,9.9941688 L12.8165463,9.42815665 Z M13.6186113,11.2146937 C13.6098558,11.2493602 13.5960164,11.2705021 13.5766695,11.2863585 C13.5552041,11.3015931 13.5204644,11.307034 13.4686372,11.307034 L13.3179569,11.307034 L13.3268537,11.0245721 L12.7001257,11.0245721 L12.6747064,12.4054801 C12.6737178,12.5051268 12.6824734,12.5628007 12.7487049,12.6089709 C12.8149364,12.6666447 13.0189972,12.6739511 13.2936673,12.6739511 L13.6863963,12.6739511 L13.8281797,12.1570628 L13.4862895,12.1777383 L13.3726086,12.1850447 C13.3570745,12.1777383 13.3422466,12.1710537 13.325724,12.1528655 C13.3113197,12.1371645 13.2870301,12.1468028 13.2909842,12.047156 L13.2936673,11.6931847 L13.6522214,11.6768619 C13.8458321,11.6768619 13.9285862,11.6075288 13.9991954,11.5414604 C14.0665566,11.4781902 14.0885867,11.4054372 14.1140061,11.307034 L14.1741653,10.9936365 L13.6814535,10.9936365 L13.6186113,11.2146937 Z" id="Shape" fill="#FEFEFE"></path>
                        </g>
                    </g>
                </g>
            </g>
        </g>
    </g>
</svg>