<svg xmlns="http://www.w3.org/2000/svg" width="240" height="240" viewBox="0 0 240 240">
  <path d="M140.384 39.627c4.16.602 4.56 3.388 4.376 6.913-.45 8.642-.594 17.3-1.01 25.943-.05 1.086-.987 2.13-2.072 2.96v3.814c4.676 0 9.43.004 14.187-.01.253-.002.61-.08.744-.254 3.95-5.177 9.52-3.498 14.28-2.592 5.21 1 10.26.59 15.4.56 4.18-.02 8.36 0 12.76 0v12.26c-7.41-.32-14.76-.63-22.04-.94l-1.57 6.51h7.13c0 4.23 1.16 8.63-.24 11.94-2.97 6.98-.13 13.74-.7 20.55-.53 6.29-2.48 8.7-8.84 8.71-7.06.02-14.11.06-21.16-.03-1.83-.02-2.66.63-2.71 2.4-.06 1.96-.13 3.92-.19 5.89-.07 2.14-1.11 3.245-3.31 3.27-4.59.05-8.12 1.637-9.76 6.37-.29.83-1.7 1.46-2.71 1.816-17.62 6.107-36.21-.41-46.87-16.36-3.57-5.34-6.07-11.1-6.99-17.5-.73-5.1.8-7.43 5.65-8.766 3.27-.9 6.52-1.857 9.71-2.99 1.64-.583 2.69-.297 3.61 1.125 1.44 2.23 2.96 4.41 4.44 6.61l.69-.354-7.78-15.275c2.34-1.032 4.87-2.235 7.462-3.272 2.786-1.11 3.03-1.9 1.01-4.07-3.758-4.04-5.244-7.52-4.948-11.89h6.88c.59 1.66 1.34 3.55 1.93 5.48.59 1.93 1.865 2.46 3.83 1.908 3 7.707 3.27 15.7 4.22 23.76.52-1.543 1.02-3.09 1.56-4.63.532-1.512 1.065-3.03 1.66-4.52 1.606-4.025 1.62-3.974 5.83-3.38 2.734.383 5.49.733 8.245.86 2.97.13 3.992-1.214 3.71-4.14-.098-.97.31-1.98.39-2.98.05-.62-.096-1.25-.166-2.02l1.48-4.59 2.88-.28c-1.67-8.05-5.77-11.63-11.79-10.37 2.19-2.262 5.864-2.13 9.24.34.615-2.252-.214-4.07-2.19-4.4-5.37-.91-10.73-.47-15.166 2.698-2.367 1.69-3.717 4.81-5.905 7.8l-4.7-3.79c-4.98.35-11.184 2.24-17.173-2.27 1.253 0 2.055-.01 2.856 0 4.39.05 6.47-1.626 7.92-5.737 1.86-5.29 3.7-10.62 6.08-15.683 2.89-6.137 6.937-11.5 13.188-14.68 2.2-1.12 4.63-1.796 6.95-2.67h9.64zM164 115.57c.065-1.36.188-1.9.1-2.402-.598-3.465-1.267-6.918-1.863-10.384-.807-4.7-.25-9.876-4.918-13.178-.54-.38-.52-1.482-.89-2.185-.26-.5-.71-1.26-1.11-1.28-4.1-.27-8.21-.42-12.49-.61 1.11 3.65 1.11 3.65-2.37 4.76-.72 2.34-1.57 4.34-1.86 6.41-.12.87.71 2.2 1.5 2.78.91.68 2.26.77 3.57 1.16l-3.41 8.89 23.71 6.06zm-4.082-32.25c-2.72 1.55-3.384 3.76-1.25 6.197 3.068 3.504 6.908 5.43 11.647 4.353 1.17-.265 2.107-1.548 3.152-2.362-1.14-.678-2.472-2.123-3.39-1.896-3.14.78-5.32-1.74-8.12-1.876-.44-.02-.844-.734-1.156-1.027 1.35-2.89 3.31-4.12 6.38-3.67.48.07 1.46-1.28 1.67-2.11.13-.51-.7-1.78-1.21-1.84-2.68-.35-5.4-.51-8.1-.51-.5 0-1.53 1.18-1.42 1.54.33 1.08 1.11 2.02 1.81 3.19zM28.934 200.373c.778-4.683 3.936-4.93 7.946-4.922 56.963.12 113.926.08 170.888.09 1.135 0 2.27.11 3.54.17.123 1.7.23 3.19.34 4.67H28.934zm91.036-33.627c2.3-1.102 4.225-2.293 6.315-2.97 4.17-1.35 7.37.467 8.204 4.767.48 2.508.4 5.142.43 7.72.06 4.546.01 9.092.01 13.924h-8.53v-10.162c-.01-1.964.05-3.932-.05-5.89-.09-1.492-.09-3.438-2.27-3.198-1.87.205-3.59.993-3.55 3.524.08 5.17.02 10.34.02 15.76h-8.54c0-5.09.05-10.07-.03-15.05-.03-1.73.67-4.12-2.24-4.26-2.16-.1-3.37 1.66-3.38 4.45-.01 4.9 0 9.79 0 14.9h-8.53v-26.4c5.02-1.14 6.84-.65 8.69 2.44 4.57-2.32 9.27-5.64 13.43.46zM32.768 190.48c2.667-7.777 5.183-15.08 7.674-22.39 1.244-3.65 3.293-7.136 1.957-11.284-.34-1.032-.05-2.262-.05-3.765 3.98 0 7.69-.04 11.4.06.48.02 1.19.75 1.38 1.29 3.99 11.82 7.91 23.66 12.03 36.02-2.99 0-5.69.06-8.39-.05-.42-.01-.95-.71-1.17-1.2-.4-.89-.6-1.86-.88-2.8-1.68-5.54-.31-4.63-6.12-4.69-6.36-.06-6.5-.05-8.16 5.95-.66 2.4-1.79 3.17-4.13 2.92-1.67-.18-3.37-.03-5.57-.03zm13.622-15.798h6.967l-3.108-10.77-.62.01-3.25 10.76zm37.117-11.247c0-3.026.058-5.598-.022-8.166-.048-1.54.396-2.21 2.08-2.29 6.574-.31 6.57-.36 6.572 6.3l.007 28.08v3.08c-2.208 0-4.353.43-6.206-.12-1.972-.59-3.502.02-5.237.45-6.07 1.5-11.8-1.76-13.07-7.85-.65-3.17-.81-6.59-.4-9.8.93-7.16 5.73-10.68 12.95-10.06.96.08 1.92.19 3.33.34zm-.008 13.56h.01c0-1.333-.01-2.666 0-3.998 0-1.5.29-3.065-1.97-3.348-2.14-.27-4.42-.51-5.27 1.86-1.35 3.75-1.4 7.69.19 11.44.83 1.95 2.69 2.13 4.57 1.76 1.87-.37 2.64-1.54 2.48-3.46-.12-1.41-.03-2.84-.03-4.27z"/>
  <path d="M86.724 147.76c-2.914 0-5.21.1-7.487-.063-.643-.046-1.38-.745-1.824-1.332-15.468-20.44-10.913-53.76 9.49-69.57.273-.21.597-.358 1.045-.622 1.022 1.702 2.012 3.35 3.155 5.25-9.66 8.393-15.444 18.945-16.404 31.867-.97 12.94 3.18 24.223 12.02 34.47zm89.173 22.742c0-1.472-.174-2.992.073-4.44.125-.733.96-1.86 1.558-1.916 4.236-.398 8.52-.962 12.74-.7 4.846.3 6.874 2.99 6.885 7.824.014 6.24.003 12.48.003 19.107-3.025-.374-6.204 1.573-8.4-1.614-2.433.715-4.756 1.668-7.168 2.05-4.553.718-7.572-1.834-8.015-6.41-.642-6.64 1.603-9.434 8.277-10.15 2.197-.235 4.416-.27 6.58-.392.505-3.15-.46-4.62-3.29-4.51-2.992.13-5.963.73-9.243 1.16zm10.414 8.648c-3.5-.01-4.62.756-4.62 2.994 0 1.604.53 2.813 2.38 2.893 2.41.103 4.56-1.655 4.75-3.6.23-2.322-1.11-2.45-2.5-2.287zm-68.6-134.665c-9.29 6.853-12.37 16.662-15.41 26.492-1.07 3.48-3.26 5.095-6.73 4.443-1-.19-2.51-1.48-2.57-2.353-.54-7.55-1.12-15.15.86-22.597 2.02-7.572 6.84-10.493 14.48-8.76 3.02.683 5.94 1.744 9.38 2.775zm85.02 108.57c2.54 0 4.85-.176 7.1.12.59.076 1.4 1.613 1.41 2.488.11 8.914.07 17.83.07 26.745 0 .713.02 1.427 0 2.14-.14 6.88 1.18 5.768-6.19 5.96-1.89.05-2.43-.602-2.41-2.458.08-9.27.04-18.543.04-27.815v-7.18zm-31.27 9.44v7.75c-.69.056-1.45.11-2.22.178-4.01.364-5.47 1.915-5.47 5.847v14.19c-2.65 0-5.03.067-7.39-.06-.46-.025-1.26-.804-1.27-1.24-.07-8.44-.05-16.878-.05-25.253 5.07-1.207 7.08-.7 8.56 1.913l7.86-3.325zM149 163.672v26.782c-2.49 0-4.87.07-7.234-.065-.413-.03-1.112-.9-1.116-1.38-.07-8.38-.05-16.75-.05-25.34h8.4zm16.567-22.936l-10.14 13.694-3.535-5.427c2.07-2.763 3.782-5.95 6.35-8.132 1.512-1.28 4.38-.97 6.64-1.38l.683 1.25zM149.6 157.152c-.026 3.08-1.467 4.464-4.665 4.484-3.286.02-4.788-1.462-4.74-4.676.045-3.105 1.444-4.445 4.67-4.47 3.29-.03 4.76 1.42 4.733 4.662zm-16.66-74.306c-.45-1.118-.81-2.003-1.42-3.518l4.92.71-.06.718c-1.05.636-2.095 1.273-3.44 2.09z"/>
</svg>
