<?xml version="1.0" encoding="UTF-8" standalone="no"?>
<svg width="148px" height="39px" viewBox="0 0 148 39" version="1.1" xmlns="http://www.w3.org/2000/svg" xmlns:xlink="http://www.w3.org/1999/xlink" xmlns:sketch="http://www.bohemiancoding.com/sketch/ns">
    <!-- Generator: Sketch 3.3.2 (12043) - http://www.bohemiancoding.com/sketch -->
    <title>Logo</title>
    <desc>Created with Sketch.</desc>
    <defs>
        <path id="path-1" d="M0.00839319471,0.119882798 L147.984612,0.119882798 L147.984612,38.740189 L0.00839319471,38.740189 L0.00839319471,0.119882798 Z"></path>
    </defs>
    <g id="Page-3" stroke="none" stroke-width="1" fill="none" fill-rule="evenodd" sketch:type="MSPage">
        <g id="Event" sketch:type="MSArtboardGroup" transform="translate(-155.000000, -24.000000)">
            <g id="Header" sketch:type="MSLayerGroup">
                <g id="Logo" transform="translate(155.000000, 24.000000)">
                    <path d="M120.739743,11.5553308 L120.739743,19.6502873 C120.739743,21.7344575 121.32265,23.3424537 122.489164,24.4741361 C123.655399,25.6059584 125.142533,26.1717996 126.950847,26.1717996 C128.758741,26.1717996 130.242658,25.6094556 131.401898,24.4843478 C132.561278,23.3596597 133.141108,21.7484461 133.141108,19.6502873 L133.141108,11.5553308 L129.911406,11.5553308 L129.911406,19.5466314 C129.911406,20.7061512 129.645482,21.6207297 129.114333,22.2899471 C128.582764,22.9595841 127.861788,23.2940529 126.950847,23.2940529 C126.039766,23.2940529 125.315153,22.9595841 124.777009,22.2899471 C124.238586,21.6207297 123.969444,20.7061512 123.969444,19.5466314 L123.969444,11.5553308 L120.739743,11.5553308" id="Fill-1" fill="#FFFFFF" sketch:type="MSShapeGroup"></path>
                    <path d="M53.2584575,22.9524499 C52.7958526,23.1801853 52.1022949,23.2940529 51.1777845,23.2940529 L48.9625406,23.2940529 L48.9625406,19.9606957 L50.8672363,19.9606957 C51.9438034,19.9606957 52.7268885,20.0678488 53.217051,20.2815955 C53.706794,20.4959017 53.9520151,20.9373837 53.9520151,21.606741 C53.9520151,22.2762382 53.7206427,22.7245747 53.2584575,22.9524499 L53.2584575,22.9524499 Z M48.9625406,14.288155 L50.5152817,14.288155 C51.4676295,14.288155 52.1437013,14.3916711 52.5441966,14.5987032 C52.9442722,14.8057353 53.1445898,15.2301512 53.1445898,15.8719509 C53.1445898,16.5137505 52.927206,16.9313119 52.4924386,17.1244953 C52.0576711,17.3178185 51.3915312,17.4143403 50.4945784,17.4143403 L48.9625406,17.4143403 L48.9625406,14.288155 L48.9625406,14.288155 Z M55.3805369,17.9112174 C56.1120038,17.3593648 56.4778072,16.5172476 56.4778072,15.3854253 C56.4778072,14.4469263 56.1532703,13.604949 55.5047561,12.8596333 C55.1456673,12.4594178 54.6108809,12.1420151 53.9002571,11.9072854 C53.1892136,11.6726957 52.343879,11.5553308 51.3641134,11.5553308 L45.7328393,11.5553308 L45.7328393,26.0268771 L52.0680227,26.0268771 C54.0555312,26.0268771 55.4493611,25.5785406 56.2500718,24.6811682 C56.9399924,23.9082949 57.2852325,23.0180567 57.2852325,22.0104537 C57.2852325,21.0995123 57.0193081,20.3369905 56.4881588,19.7226087 C55.9565898,19.1087864 55.2423289,18.7049338 54.3453762,18.5116106 C54.5938147,18.4012401 54.766155,18.3220643 54.8629565,18.2735236 C54.9593384,18.2252628 55.1320983,18.1045406 55.3805369,17.9112174 L55.3805369,17.9112174 Z" id="Fill-2" fill="#FFFFFF" sketch:type="MSShapeGroup"></path>
                    <path d="M144.092968,18.5426654 C143.706881,18.9774329 142.975274,19.1948166 141.898147,19.1948166 L139.72445,19.1948166 L139.72445,14.3295614 L141.566616,14.3295614 C142.629754,14.3295614 143.413119,14.5055388 143.916711,14.8574934 C144.420302,15.209448 144.672098,15.8029868 144.672098,16.6379698 C144.672098,17.4732325 144.479055,18.1078979 144.092968,18.5426654 L144.092968,18.5426654 Z M141.608582,11.5553308 L136.494749,11.5553308 L136.494749,26.0268771 L139.72445,26.0268771 L139.72445,21.9896106 L141.649149,21.9896106 C143.789414,21.9896106 145.379924,21.5755463 146.422079,20.7474178 C147.464234,19.9194291 147.984612,18.6117694 147.984612,16.8242987 C147.984612,15.0369679 147.478223,13.7119622 146.464045,12.8492817 C145.448469,11.986741 143.829981,11.5553308 141.608582,11.5553308 L141.608582,11.5553308 Z" id="Fill-3" fill="#FFFFFF" sketch:type="MSShapeGroup"></path>
                    <path d="M101.920802,14.4330775 L101.920802,11.5553308 L91.4863819,11.5553308 L91.4863819,26.0268771 L102.148537,26.0268771 L102.148537,23.1698336 L94.7160832,23.1698336 L94.7160832,20.1678677 L101.196329,20.1678677 L101.196329,17.4143403 L94.7160832,17.4143403 L94.7160832,14.4330775 L101.920802,14.4330775" id="Fill-4" fill="#FFFFFF" sketch:type="MSShapeGroup"></path>
                    <path d="M79.4165482,26.0268771 L82.4806238,21.265138 L85.5654026,26.0268771 L89.4990132,26.0268771 L84.6131947,18.5323138 L89.1263554,11.5553308 L85.2341512,11.5553308 L82.4806238,15.840896 L79.7270964,11.5553308 L75.8555955,11.5553308 L80.3895992,18.6151267 L75.524344,26.0268771 L79.4165482,26.0268771" id="Fill-5" fill="#FFFFFF" sketch:type="MSShapeGroup"></path>
                    <path d="M69.8312401,15.4061285 C70.6593686,16.3170699 71.0734329,17.4178374 71.0734329,18.7082911 C71.0734329,19.9990246 70.6593686,21.0962949 69.8312401,22.0001021 C69.0031115,22.904189 67.985017,23.3561626 66.7775161,23.3561626 C65.5695955,23.3561626 64.5519206,22.904189 63.7237921,22.0001021 C62.8956635,21.0962949 62.4815992,19.9990246 62.4815992,18.7082911 C62.4815992,17.4178374 62.8956635,16.3170699 63.7237921,15.4061285 C64.5519206,14.4951871 65.5695955,14.0397164 66.7775161,14.0397164 C67.985017,14.0397164 69.0031115,14.4951871 69.8312401,15.4061285 L69.8312401,15.4061285 Z M61.3636257,13.366862 C59.900552,14.7953837 59.1690851,16.5726427 59.1690851,18.6979395 C59.1690851,20.8235161 59.900552,22.6004953 61.3636257,24.0288771 C62.8264197,25.4573989 64.6275992,26.1717996 66.7671645,26.1717996 C68.90631,26.1717996 70.7074896,25.4573989 72.1707032,24.0288771 C73.6334972,22.6004953 74.3652439,20.8235161 74.3652439,18.6979395 C74.3652439,16.5726427 73.6334972,14.7953837 72.1707032,13.366862 C70.7074896,11.9383403 68.90631,11.2240794 66.7671645,11.2240794 C64.6275992,11.2240794 62.8264197,11.9383403 61.3636257,13.366862 L61.3636257,13.366862 Z" id="Fill-6" fill="#FFFFFF" sketch:type="MSShapeGroup"></path>
                    <g id="Group-11">
                        <mask id="mask-2" sketch:name="Clip 8" fill="white">
                            <use xlink:href="#path-1"></use>
                        </mask>
                        <g id="Clip-8"></g>
                        <path d="M113.711142,22.0518601 C112.917285,22.7971758 111.782106,23.1698336 110.305463,23.1698336 L108.255845,23.1698336 L108.255845,14.370828 L110.057025,14.370828 C111.699433,14.370828 112.917285,14.7539773 113.711142,15.5199962 C114.504578,16.2860151 114.901577,17.3800681 114.901577,18.8014556 C114.901577,20.2231229 114.504578,21.3065444 113.711142,22.0518601 L113.711142,22.0518601 Z M110.139837,11.5553308 L105.026144,11.5553308 L105.026144,26.0268771 L109.974212,26.0268771 C112.734594,26.0268771 114.787709,25.3713686 116.133418,24.0600718 C117.479127,22.7489149 118.151981,20.9685784 118.151981,18.7186427 C118.151981,16.4691267 117.461641,14.7125709 116.08166,13.4496749 C114.701259,12.1867788 112.720605,11.5553308 110.139837,11.5553308 L110.139837,11.5553308 Z" id="Fill-7" fill="#FFFFFF" sketch:type="MSShapeGroup" mask="url(#mask-2)"></path>
                        <path d="M32.9841361,8.9977845 L18.0785217,0.391962193 C17.4256711,0.0151077505 16.6511191,0.0422457467 16.0437316,0.395879017 C16.0019055,0.416302457 15.9606389,0.43826465 15.9196522,0.461905482 L1.01403781,9.06772779 C0.0439243856,9.62769376 -0.287746692,10.8670888 0.271939509,11.8363629 C0.831625709,12.8059168 2.07116068,13.1377278 3.04071456,12.5780416 L14.9958412,5.67561815 L14.9958412,27.7765784 C14.9958412,28.8967902 15.903845,29.8038147 17.0241966,29.8038147 C18.1445482,29.8038147 19.052552,28.8960907 19.052552,27.7765784 L19.052552,5.63463138 L30.9574594,12.5080983 C31.9275728,13.0680643 33.1666881,12.7356938 33.7262344,11.7664197 C34.2860605,10.7968658 33.95369,9.5574707 32.9841361,8.9977845" id="Fill-9" fill="#FFFFFF" sketch:type="MSShapeGroup" mask="url(#mask-2)"></path>
                        <path d="M31.9961172,17.4238526 C30.8780038,17.4238526 29.9719584,18.3301777 29.9719584,19.4482911 L29.9719584,26.9432741 L17.0506352,34.4035652 L4.0762949,26.9127788 L4.0762949,19.4482911 C4.0762949,18.3291985 3.17010964,17.4238526 2.05213611,17.4238526 C0.933882798,17.4238526 0.0279773157,18.3301777 0.0279773157,19.4482911 L0.0279773157,27.8491796 C0.0279773157,27.9588507 0.0366502836,28.0665633 0.053436673,28.1716181 C0.0784763705,28.8447524 0.43868431,29.4904688 1.06509641,29.8520756 L16.0035841,38.4769225 C16.3335766,38.667448 16.6949036,38.7545974 17.0499357,38.7483025 C17.4055274,38.7547372 17.7672741,38.6677278 18.0976862,38.4769225 L33.0361739,29.8520756 C33.7910019,29.4163289 34.1591834,28.5680567 34.0204159,27.7562949 L34.0204159,19.4482911 C34.0204159,18.3291985 33.1140907,17.4238526 31.9961172,17.4238526" id="Fill-10" fill="#FFFFFF" sketch:type="MSShapeGroup" mask="url(#mask-2)"></path>
                    </g>
                </g>
            </g>
        </g>
    </g>
</svg>