<svg xmlns="http://www.w3.org/2000/svg" width="240" height="240" viewBox="0 0 240 240">
  <path d="M233.477 100.598c-.255.05.64.346.448.384.954 1.094 1.946 1.29 2.013 2.52 0-.132-.15.088-.15-.08l.122-.025c.05.18.097.36.146.542l.046-.05c.123.14.276.27.364.44.156.29.334.59.394.91.1.52.11 1.07.187 1.6v-.52l.065-.01c.05.39.117.78.15 1.17.08.9.174 1.81.203 2.72.04 1.2.045 2.4.022 3.6-.03 1.54-.043 3.09-.172 4.62-.122 1.45-.268 2.9-.8 4.29-.41 1.06-.984 2.01-1.694 2.89-1.24 1.53-2.72 2.75-4.57 3.47-1.23.48-2.52.75-3.83.9-1.71.19-3.42.41-5.13.47-2.57.09-5.15.12-7.72.05-2.31-.06-4.61-.28-6.92-.45-1.77-.14-3.53-.34-5.25-.86-1.63-.5-3.13-1.24-4.36-2.46-1.13-1.11-1.86-2.46-2.16-4.03-.41-2.19-.48-4.4-.37-6.62.1-1.97.47-3.87 1.33-5.65 1.12-2.3 2.88-3.96 5.08-5.19 2.18-1.21 4.55-1.92 6.93-2.57 2.3-.62 4.6-1.21 6.92-1.75 1.82-.42 3.66-.76 5.49-1.1 1.33-.24 2.68-.46 4.02-.62 1.06-.13 2.13-.19 3.2-.23.76-.03 1.52-.02 2.27.07.93.11 1.8.42 2.68.87m-10.3 13.96c.34-.14.67-.29 1.02-.41.66-.22 1.23-.01 1.37.4.09.25.16.52.16.78.01 2.22.01 4.44.01 6.66 0 .374.14.513.51.515.65.01 1.3 0 1.95 0 .49 0 .6-.11.6-.603 0-1.926.01-3.85 0-5.775 0-.496-.03-.99-.06-1.488-.02-.19.05-.29.23-.33.32-.08.65-.16.98-.23.77-.157 1.21.15 1.34.92.04.22.07.443.07.666.01 2.11.01 4.21.01 6.31 0 .4.13.53.53.53h1.92c.5 0 .62-.12.62-.63 0-1.857.02-3.71 0-5.56-.01-.75-.045-1.508-.15-2.25-.12-.87-.48-1.633-1.253-2.126-.86-.55-1.82-.543-2.76-.37-.66.12-1.284.465-1.93.695-.105.035-.29.05-.35-.01-.817-.847-1.85-.874-2.88-.68-.7.13-1.35.474-2.016.72 0 .02-.01-.026-.01-.07-.015-.55-.036-.57-.56-.57h-1.85c-.41-.005-.516.084-.516.49-.004 3.28-.004 6.56 0 9.835 0 .37.15.51.51.51.66.004 1.328.002 1.99 0 .45 0 .55-.107.55-.56v-7.4zm-14.53 2.55c.04.59.04 1.18.13 1.77.25 1.6 1.05 2.82 2.59 3.45 1.05.42 2.14.43 3.24.25 1.74-.28 3.1-1.62 3.4-3.35.24-1.44.25-2.89-.01-4.32-.21-1.12-.76-2.06-1.75-2.68-1.39-.88-2.91-.92-4.45-.53-1.4.35-2.31 1.29-2.79 2.66-.31.88-.34 1.81-.35 2.73zm-8.81-.26c.05.87.04 1.53.14 2.17.26 1.7 1.13 2.93 2.83 3.45.91.28 1.85.21 2.77.14.45-.03.89-.11 1.33-.19.46-.08.57-.26.5-.72-.06-.41-.11-.82-.18-1.23-.08-.53-.18-.59-.72-.534-.63.06-1.27.102-1.91.115-.81.02-1.32-.34-1.49-1.127-.25-1.214-.26-2.45-.01-3.67.18-.864.65-1.184 1.52-1.164.7.015 1.39.07 2.08.12.34.025.47-.074.51-.423.06-.46.11-.91.18-1.37.07-.43-.01-.63-.44-.68-1.02-.11-2.06-.27-3.08-.23-1.97.07-3.33 1.21-3.78 3.12-.18.79-.18 1.62-.24 2.21zm-22.85-1.65v-7.65c0-.83.47-1.37 1.26-1.5 1.28-.22 2.55-.44 3.82-.67.94-.17 1.67.41 1.71 1.39.01.19 0 .38 0 .57v31.04c0 1.03-.28 1.49-1.29 1.74-1.37.34-2.76.66-4.17.84-1.68.22-3.37.38-5.07.41-1.97.03-3.91-.3-5.7-1.23-2.41-1.25-3.85-3.27-4.59-5.84-.38-1.32-.54-2.67-.56-4.03-.02-1.43-.03-2.85 0-4.28.05-1.83.32-3.63 1.05-5.33 1.22-2.83 3.37-4.54 6.31-5.29 1.89-.48 3.8-.48 5.73-.31.49.045.99.08 1.52.125zm-.01 5.81c-.08-.03-.13-.06-.19-.06-1.41-.06-2.82-.19-4.23-.15-1.31.04-2.27.75-2.81 1.99-.42.98-.55 2.03-.56 3.09-.02 1.53-.04 3.06.01 4.59.03.76.12 1.54.3 2.28.38 1.65 1.42 2.65 2.94 2.78 1.06.09 2.14.01 3.22-.02.45-.01.89-.08 1.34-.126v-14.38zM143.69 130c.07 1.14.3 2.18.98 3.07.7.92 1.67 1.363 2.78 1.5 1.8.227 3.58-.034 5.35-.32.92-.14 1.83-.34 2.75-.46.87-.11 1.31.25 1.54 1.1.22.81.44 1.62.65 2.43.23.84-.13 1.53-.94 1.78-.54.17-1.075.34-1.625.457-1.643.34-3.28.72-4.94.96-2.736.4-5.41.14-7.894-1.18-2.82-1.5-4.45-3.89-5.12-6.99-.24-1.14-.32-2.296-.31-3.46.01-1.354-.04-2.71.04-4.06.19-3.14 1.15-5.96 3.59-8.094 1.28-1.11 2.79-1.8 4.44-2.14 2.45-.51 4.88-.44 7.24.43 3.06 1.13 4.96 3.37 5.93 6.46.45 1.41.62 2.862.63 4.34.01.84-.04 1.69.01 2.53.06 1.04-.65 1.683-1.68 1.67-2.35-.038-4.7-.01-7.06-.01h-6.34zm8.21-5.198c-.03-2.55-1.54-4.7-4.4-4.49-2.55.183-3.75 2.345-3.72 4.482h8.127zm-45.79 14.08c-.99.572-1.98 1.06-3.06 1.34-1.98.512-3.99.572-5.98.09-2.3-.56-3.79-2.048-4.55-4.286-.48-1.42-.67-2.89-.73-4.39-.02-.55-.04-1.11-.04-1.67v-13.76c0-1.08.54-1.62 1.6-1.62 1.2 0 2.39.03 3.59-.01 1.1-.04 1.63.794 1.62 1.633-.01 4.95-.01 9.91.01 14.86 0 .64.08 1.3.213 1.93.22 1.04.937 1.56 1.985 1.72 1.61.24 2.99-.4 4.41-.98.798-.33 1.016-.78 1.008-1.64-.04-5.34-.02-10.67-.02-16.01 0-.98.526-1.52 1.508-1.52 1.24-.01 2.49 0 3.73 0 .96 0 1.51.53 1.568 1.5v22.57c0 .55-.07 1.09-.59 1.4-.253.15-.57.27-.855.27-1.31.03-2.622.02-3.935.01-.81 0-1.3-.49-1.44-1.45zM56.5 115.97c.77-.336 1.5-.714 2.27-.98 1.66-.575 3.38-.72 5.12-.605 1.338.086 2.61.367 3.76 1.07 1.58.96 2.42 2.44 2.9 4.17.333 1.215.5 2.46.503 3.72.02 5.19.02 10.384.03 15.577 0 .92-.56 1.478-1.48 1.482-1.27 0-2.53-.01-3.8 0-.94.01-1.5-.686-1.496-1.51.02-4.76.02-9.53 0-14.29-.005-.91-.08-1.827-.213-2.726-.13-.892-.734-1.363-1.64-1.504-1.63-.255-3.16.076-4.632.755-.363.16-.846.26-1.04.55-.184.27-.07.75-.07 1.14-.003 5.3-.003 10.6-.003 15.9 0 1.11-.57 1.68-1.68 1.68h-3.62c-.94 0-1.5-.57-1.5-1.51v-22.82c0-.8.52-1.4 1.32-1.42 1.32-.03 2.65-.02 3.97.01.64.01 1.11.47 1.23 1.11.01.07.03.13.04.17zm-9.384 11.6c-.035 1.15-.004 2.31-.12 3.45-.355 3.49-1.756 6.392-4.857 8.252-1.32.792-2.78 1.2-4.3 1.374-1.91.22-3.79.12-5.62-.48-3.52-1.14-5.62-3.61-6.55-7.154-.31-1.173-.44-2.37-.43-3.586 0-1.39-.04-2.78 0-4.17.08-2.69.75-5.19 2.49-7.31 1.37-1.66 3.13-2.7 5.2-3.2 2.54-.62 5.07-.56 7.54.34 3.08 1.124 5.03 3.355 6.01 6.47.39 1.27.58 2.58.58 3.917v2.103h.03zm-15.134.296c.05.89.04 2.09.22 3.27.29 1.88 1.43 3.33 3.39 3.55 1.22.14 2.35-.094 3.26-.984.98-.955 1.336-2.19 1.404-3.498.075-1.48.084-2.97.044-4.45-.02-.81-.12-1.64-.334-2.418-.925-3.373-4.446-3.502-6.143-2.25-1.1.82-1.57 1.998-1.71 3.3-.11 1.05-.095 2.11-.146 3.48zm-29.45-4.24c0-1.55-.06-3.11.01-4.67.136-2.8.78-5.47 2.446-7.8 1.4-1.96 3.295-3.21 5.55-3.96 2.183-.72 4.433-.803 6.71-.66 1.822.11 3.622.39 5.4.81.895.21 1.317.92 1.073 1.82-.23.84-.5 1.67-.69 2.522-.27 1.23-.96 1.42-1.99 1.34-1.52-.11-3.04-.184-4.55-.286-.98-.067-1.96-.058-2.91.192-1.95.51-3 1.88-3.52 3.75-.34 1.225-.44 2.49-.44 3.76 0 2.303-.03 4.61.02 6.913.03 1.7.26 3.38 1.18 4.87.83 1.338 2.07 2.028 3.61 2.206 1.62.186 3.23-.025 4.84-.123.85-.05 1.69-.107 2.54-.103.58 0 .97.384 1.14.915.32 1.02.61 2.053.85 3.1.18.812-.28 1.502-1.13 1.68-1.1.235-2.22.43-3.33.564-1.23.144-2.46.263-3.7.28-2.12.03-4.19-.33-6.15-1.206-3.58-1.61-5.63-4.46-6.51-8.236-.39-1.676-.48-3.377-.45-5.088.01-.863 0-1.73 0-2.6h.02zM125.89 141c-3.235-.11-6.06-.35-8.822-1.078-.76-.2-1.164-.857-.977-1.63.25-1.02.52-2.033.81-3.04.18-.624.89-.98 1.57-.875 1.7.26 3.4.543 5.1.744 1.04.13 2.09.19 3.13-.09 1.16-.31 1.41-1.54.65-2.36-.35-.38-.78-.72-1.22-1-2.18-1.38-4.4-2.7-6.57-4.1-1.39-.89-2.57-2.04-3.01-3.68-.73-2.74-.35-5.29 1.73-7.38 1.06-1.06 2.42-1.57 3.86-1.86 1.92-.38 3.84-.31 5.78-.09 1.75.2 3.45.6 5.14 1.08.6.17 1.22.81 1.01 1.67-.2.85-.41 1.7-.66 2.53-.25.81-.81 1.12-1.67 1-1.27-.17-2.54-.4-3.81-.52-1.17-.12-2.34-.31-3.52-.03-.26.06-.52.16-.75.29-.83.46-.92 1.53-.13 2.07.71.48 1.48.88 2.23 1.3 1.54.85 3.1 1.65 4.63 2.51 1.48.84 2.74 1.93 3.51 3.5.67 1.38.87 2.84.7 4.36-.38 3.49-2.87 5.77-6.22 6.43-.93.18-1.89.24-2.45.31zm-48.298-20.956c-1.002-.175-1.983-.347-2.964-.517-.173-.03-.35-.047-.523-.082-.84-.165-1.27-.687-1.268-1.54.004-.71-.01-1.426.06-2.132.06-.612.562-1.065 1.17-1.085 1.015-.034 2.03-.02 3.05-.026h.466v-.765c-.005-1.258.033-2.508.34-3.74.617-2.47 2.217-3.88 4.655-4.38 2.194-.45 4.383-.326 6.56.145.73.16 1.21.92 1.03 1.653-.19.767-.397 1.53-.616 2.288-.2.69-.696 1.05-1.42 1.037-.66-.012-1.32-.063-1.98-.064-.303 0-.608.064-.906.126-.478.098-.75.44-.787.892-.08.92-.09 1.843-.13 2.81h1.3c.73 0 1.47.02 2.2-.005 1-.04 1.57.76 1.52 1.55-.05.81-.01 1.64-.02 2.46-.01.77-.57 1.34-1.34 1.34h-3.63v18.93c0 .87-.56 1.44-1.44 1.44h-3.76c-1.05 0-1.6-.55-1.6-1.6v-18.77zM192.15 140.48c-.88-.09-1.754-.13-2.61-.28-1.582-.28-2.547-1.24-2.83-2.843-.217-1.247-.23-2.5.068-3.737.35-1.45 1.34-2.24 2.746-2.527 1.314-.27 2.648-.26 3.978-.153.57.045 1.147.13 1.698.28 1.258.343 2.036 1.194 2.317 2.465.29 1.31.28 2.635-.01 3.946-.32 1.46-1.278 2.29-2.694 2.56-.873.17-1.772.2-2.658.29z"/>
  <path d="M210.624 116.428c.05-.553.05-1.117.163-1.656.18-.844.78-1.297 1.58-1.293.765 0 1.36.43 1.513 1.27.213 1.17.24 2.36-.035 3.53-.177.75-.755 1.16-1.5 1.16-.72 0-1.313-.43-1.52-1.15-.086-.31-.122-.63-.147-.95-.024-.31-.005-.62-.005-.93-.017 0-.033 0-.05-.01z"/>
</svg>
