<?xml version="1.0" encoding="utf-8"?>
<!-- Generator: Adobe Illustrator 16.0.0, SVG Export Plug-In . SVG Version: 6.00 Build 0)  -->
<!DOCTYPE svg PUBLIC "-//W3C//DTD SVG 1.1//EN" "http://www.w3.org/Graphics/SVG/1.1/DTD/svg11.dtd">
<svg version="1.1" id="Layer_1" xmlns="http://www.w3.org/2000/svg" xmlns:xlink="http://www.w3.org/1999/xlink" x="0px" y="0px"
	 width="240px" height="240px" viewBox="0 0 240 240" enable-background="new 0 0 240 240" xml:space="preserve">
<g id="MKMACE.tif">
	<g>
		<path fill="#FFFFFF" d="M84.307,125.382c-2.012,0-3.946,0-5.91,0c-1.015,3.533-2.021,7.036-3.029,10.54
			c-0.162-0.157-0.221-0.311-0.264-0.469c-0.451-1.653-0.899-3.307-1.349-4.961c-0.408-1.507-0.819-3.013-1.222-4.521
			c-0.062-0.233-0.125-0.414-0.417-0.462c-1.175-0.191-2.349-0.19-3.53-0.063c-0.49,0.052-0.704,0.28-0.836,0.748
			c-0.865,3.06-1.76,6.11-2.646,9.164c-0.051,0.177-0.116,0.349-0.175,0.522c-0.037,0.007-0.075,0.013-0.113,0.02
			c-0.07-0.206-0.152-0.408-0.209-0.617c-0.838-3.067-1.671-6.136-2.506-9.203c-0.136-0.499-0.139-0.503-0.581-0.557
			c-1.537-0.189-3.079-0.216-4.622-0.106c-0.483,0.033-0.962,0.12-1.513,0.191c1.735,6.266,3.652,12.38,5.534,18.496
			c1.762,0,3.455,0,5.176,0c1.153-3.57,2.304-7.132,3.453-10.692c0.048-0.001,0.097-0.003,0.146-0.003
			c1.028,3.57,2.057,7.141,3.078,10.687c1.768,0,3.459,0,5.175,0C80.065,137.863,82.177,131.649,84.307,125.382z M155.579,120.844
			c0.624,0.136,5.414,0.125,5.896-0.002c0-6.198,0-12.403,0-18.639c-2.392,0-4.748,0-7.156,0c-0.727,1.383-1.472,2.776-2.194,4.181
			c-0.729,1.41-1.438,2.83-2.193,4.325c-1.316-2.833-2.58-5.56-3.837-8.267c-2.619-0.35-5.173-0.368-7.717-0.005
			c-0.111,1.001-0.067,18.037,0.04,18.446c0.644,0.104,4.978,0.077,5.474-0.051c0-3.874,0-7.768,0-11.66
			c0.05-0.012,0.1-0.024,0.149-0.036c1.617,3.219,3.096,6.505,4.513,9.795c0.756,0,1.455,0,2.114,0
			c1.561-3.213,3.101-6.383,4.641-9.552c0.033-0.067,0.08-0.127,0.123-0.189c0.01-0.014,0.031-0.026,0.049-0.028
			c0.018-0.003,0.036,0.008,0.099,0.022C155.579,113.054,155.579,116.937,155.579,120.844z M208.034,120.939
			c0-6.298,0-12.501,0-18.731c-1.854,0-3.672,0-5.565,0c0,0.545,0,1.054,0,1.563c0,0.534,0,1.067,0,1.601c0,0.515,0,1.029,0,1.544
			c0,0.534,0,1.067,0,1.602c0,0.515,0,1.03,0,1.544c0,0.533,0.011,1.067-0.004,1.601c-0.012,0.501,0.066,1.01-0.086,1.606
			c-0.155-0.238-0.263-0.39-0.357-0.55c-1.967-3.287-3.935-6.572-5.89-9.865c-0.183-0.307-0.376-0.458-0.747-0.495
			c-1.672-0.165-3.347-0.235-5.024-0.165c-0.812,0.034-1.62,0.136-2.436,0.208c0,6.2,0,12.329,0,18.448
			c0.601,0.134,5.055,0.114,5.527-0.027c0-0.784,0-1.581,0-2.378c0-0.801,0-1.602,0-2.402s0-1.602,0-2.402
			c0-0.8-0.005-1.601,0.002-2.401c0.006-0.785-0.031-1.573,0.087-2.372c0.181,0.171,0.302,0.355,0.415,0.544
			c2.2,3.679,4.404,7.357,6.59,11.044c0.211,0.356,0.439,0.496,0.856,0.49c2.001-0.021,4.003-0.009,6.005-0.009
			C207.596,120.939,207.783,120.939,208.034,120.939z M134.242,120.913c0-6.273,0-12.476,0-18.673
			c-0.785-0.121-6.002-0.085-6.453,0.056c0,2.355,0,4.729,0,7.137c-2.277,0-4.495,0-6.787,0c0-2.352,0-4.666,0-7
			c-2.188-0.345-4.301-0.353-6.438,0c0,6.168,0,12.295,0,18.417c0.603,0.142,5.961,0.12,6.439-0.035c0-2.434,0-4.885,0-7.323
			c0.578-0.151,6.313-0.139,6.81,0.017c0,0.59,0,1.197,0,1.805c0,0.629,0,1.258,0,1.887c0,0.61-0.004,1.22,0,1.83
			c0.006,0.62-0.022,1.242,0.023,1.883C130.004,120.913,132.096,120.913,134.242,120.913z M34.577,124.364
			c0.01-0.143,0.031-0.307,0.031-0.47c0.002-7.642,0-15.284,0.009-22.925c0-0.338-0.105-0.554-0.377-0.761
			c-3.032-2.307-6.055-4.628-9.08-6.944c-0.115-0.087-0.242-0.158-0.38-0.247c-0.119,0.932-0.075,29.728,0.034,30.104
			c1.639,0.138,3.276,0.22,4.897,0.426C31.327,123.753,32.926,124.082,34.577,124.364z M208.134,144.124c0.25,0,0.454,0,0.66,0
			c2.325,0,4.651,0.023,6.977-0.011c1.082-0.015,2.172-0.085,3.244-0.229c1.599-0.216,3.114-0.724,4.492-1.586
			c1.973-1.233,3.242-2.967,3.711-5.263c0.324-1.596,0.244-3.184-0.118-4.761c-0.605-2.625-2.138-4.505-4.573-5.651
			c-1.608-0.759-3.321-1.114-5.08-1.211c-2.84-0.156-5.677,0.013-8.514,0.13c-0.261,0.011-0.52,0.061-0.799,0.094
			C208.134,131.799,208.134,137.913,208.134,144.124z M113.046,135.52c0.053-0.017,0.106-0.033,0.159-0.051
			c0.135,0.179,0.274,0.354,0.406,0.536c1.844,2.57,3.692,5.139,5.525,7.717c0.21,0.296,0.427,0.415,0.797,0.412
			c2.249-0.019,4.498-0.01,6.748-0.01c0.144,0,0.286,0,0.56,0c-2.625-3.492-5.172-6.881-7.74-10.297
			c0.231-0.253,0.432-0.479,0.64-0.696c2.171-2.277,4.309-4.583,6.241-7.07c0.096-0.124,0.173-0.261,0.279-0.421
			c-0.133-0.023-0.188-0.042-0.243-0.042c-2.06-0.003-4.118,0.002-6.176-0.009c-0.285-0.001-0.445,0.123-0.605,0.339
			c-0.628,0.838-1.253,1.681-1.918,2.49c-1.331,1.62-2.683,3.224-4.034,4.825c-0.147,0.174-0.269,0.411-0.599,0.453
			c0-1.366,0.001-2.699,0-4.031c0-1.346-0.001-2.691-0.002-4.071c-2.198-0.326-4.308-0.336-6.41-0.007
			c-0.113,0.854-0.074,18.086,0.036,18.505c2.086,0,4.174,0,6.337,0C113.046,141.213,113.046,138.366,113.046,135.52z
			 M81.418,102.436c-2.205-0.351-4.318-0.361-6.443,0.003c-0.008,0.189-0.021,0.32-0.021,0.452
			c-0.001,3.432-0.013,6.864,0.009,10.295c0.005,0.72,0.084,1.449,0.224,2.156c0.469,2.384,1.824,4.073,4.098,4.971
			c0.634,0.25,1.3,0.44,1.968,0.576c1.673,0.341,3.367,0.368,5.066,0.245c1.069-0.076,2.119-0.253,3.134-0.598
			c2.333-0.791,3.83-2.376,4.394-4.775c0.194-0.828,0.3-1.694,0.308-2.545c0.034-3.489,0.015-6.978,0.013-10.467
			c0-0.182-0.031-0.362-0.048-0.545c-1.98,0-3.898,0-5.884,0c0,0.256,0,0.479,0,0.704c-0.003,3.527,0.007,7.054-0.022,10.581
			c-0.005,0.581-0.12,1.179-0.294,1.733c-0.288,0.916-0.942,1.529-1.883,1.744c-0.531,0.121-1.098,0.192-1.638,0.153
			c-1.702-0.125-2.614-1.001-2.878-2.706c-0.07-0.449-0.095-0.909-0.096-1.365c-0.007-3.298-0.004-6.597-0.004-9.896
			C81.418,102.929,81.418,102.703,81.418,102.436z M104.933,144.099c-0.071-0.216-0.122-0.396-0.188-0.57
			c-1.303-3.395-2.607-6.789-3.911-10.184c-0.935-2.435-1.875-4.868-2.804-7.305c-0.11-0.287-0.228-0.504-0.585-0.518
			c-0.628-0.022-1.254-0.083-1.882-0.117c-1.79-0.096-3.578-0.058-5.367,0.09c-1.183,0.098-0.958-0.058-1.405,0.971
			c-2.454,5.642-4.641,11.389-6.728,17.174c-0.051,0.14-0.08,0.286-0.125,0.454c1.949,0,3.863,0,5.784,0
			c0.366-1.221,0.725-2.418,1.081-3.61c2.766,0,5.464,0,8.184,0c0.36,1.227,0.712,2.427,1.061,3.615
			C100.361,144.099,102.621,144.099,104.933,144.099z M169.003,120.905c0.312-1.054,0.604-2.058,0.906-3.059
			c0.178-0.586,0.185-0.587,0.781-0.588c2.325,0,4.65,0,6.976,0.001c0.186,0,0.369,0.021,0.58,0.034
			c0.188,0.636,0.365,1.236,0.542,1.837c0.176,0.595,0.35,1.192,0.516,1.757c1.075,0.122,6.438,0.074,6.882-0.066
			c-2.354-6.131-4.708-12.259-7.054-18.367c-2.661-0.359-5.854-0.376-8.71,0.001c-2.639,6.014-4.985,12.178-7.248,18.449
			C165.17,120.905,167.066,120.905,169.003,120.905z M234.756,118.363c-1.879-0.73-2.728-1.25-3.26-1.983
			c0.53-0.601,0.779-1.338,0.905-2.117c0.09-0.562,0.155-1.135,0.167-1.704c0.025-1.258,0.013-2.517,0.012-3.774
			c0-0.127-0.027-0.254-0.045-0.404c-1.341,0-2.646,0-4.024,0c0,0.577,0,1.125,0,1.672c0,0.553,0.011,1.106-0.005,1.659
			c-0.013,0.537,0.067,1.083-0.069,1.676c-0.147-0.129-0.252-0.207-0.339-0.299c-1.418-1.499-2.929-2.894-4.551-4.169
			c-0.253-0.199-0.499-0.422-0.699-0.671c-0.213-0.264-0.419-0.554-0.539-0.866c-0.396-1.018,0.119-1.982,1.173-2.27
			c1.224-0.333,2.302,0.194,2.788,1.372c0.101,0.242,0.169,0.497,0.285,0.84c0.75-0.899,1.451-1.739,2.15-2.576
			c-0.218-0.508-0.527-0.887-0.912-1.209c-0.488-0.411-1.044-0.705-1.647-0.896c-1.922-0.609-3.86-0.651-5.797-0.092
			c-1.041,0.301-1.955,0.833-2.699,1.644c-1.471,1.6-1.589,4.995,1.385,6.159c0.112,0.043,0.214,0.113,0.351,0.187
			c-0.071,0.035-0.087,0.049-0.103,0.049c-0.172,0.007-0.344,0.01-0.514,0.018c-1.146,0.045-2.106,0.503-2.884,1.327
			c-1.776,1.88-1.753,5.051,0.032,6.923c0.822,0.862,1.829,1.424,2.943,1.803c1.78,0.604,3.614,0.74,5.475,0.581
			c1.642-0.142,3.181-0.59,4.494-1.641c0.071-0.057,0.16-0.09,0.247-0.139c0.271,0.211,0.52,0.417,0.779,0.607
			c0.636,0.467,1.323,0.832,2.09,1.029c0.213,0.055,0.445,0.13,0.632-0.097C233.289,120.136,234.006,119.273,234.756,118.363z
			 M173.999,125.604c-0.027,0.146-0.053,0.221-0.053,0.294c-0.003,5.966-0.003,11.932-0.002,17.897c0,0.074,0.023,0.149,0.037,0.223
			c0.005,0.018,0.02,0.033,0.032,0.047c0.012,0.014,0.028,0.021,0.054,0.041c4.847,0,9.704,0,14.557,0
			c0.133-0.515,0.124-3.539-0.027-4.047c-2.729,0-5.482,0-8.221,0c-0.134-0.7-0.108-3.055,0.037-3.498c0.613,0,1.24,0,1.868,0
			c0.629,0,1.258,0,1.887,0s1.258,0.005,1.887-0.003c0.619-0.007,1.242,0.035,1.849-0.029c0.094-1.063,0.059-3.461-0.062-3.91
			c-1.244,0-2.5,0.006-3.755-0.002c-1.248-0.008-2.497,0.033-3.732-0.024c-0.118-0.858-0.083-2.899,0.066-3.355
			c2.693,0,5.407,0,8.142,0c0-1.235,0-2.407,0-3.63C183.696,125.256,178.869,125.257,173.999,125.604z M135.262,136.55
			c2.567,0,5.058,0,7.617,0c-0.01-1.335,0.03-2.615-0.031-3.943c-2.556,0-5.046,0-7.592,0c-0.035-1.138-0.072-2.225,0.021-3.352
			c0.75,0,1.435,0,2.119,0c0.668,0,1.335,0,2.003,0c0.687,0,1.373,0.003,2.059-0.001c0.677-0.003,1.355,0.017,2.059-0.014
			c0.013-1.252,0.027-2.422-0.005-3.633c-4.901-0.34-9.726-0.352-14.534,0.001c-0.124,0.691-0.102,18.016,0.013,18.477
			c4.863,0,9.73,0,14.65,0c0-1.344,0.011-2.646-0.007-4.024c-2.834,0-5.587,0-8.372,0
			C135.262,138.871,135.262,137.756,135.262,136.55z M72.065,107.839c0-1.532-0.002-2.941,0.003-4.349
			c0-0.215-0.066-0.365-0.273-0.448c-0.142-0.057-0.274-0.131-0.414-0.192c-1.344-0.585-2.756-0.846-4.21-0.953
			c-2.079-0.153-4.114,0.051-6.079,0.749c-2.722,0.967-4.754,2.699-5.776,5.464c-0.557,1.505-0.732,3.069-0.531,4.668
			c0.482,3.834,2.504,6.461,6.151,7.789c1.935,0.704,3.948,0.794,5.977,0.628c1.545-0.126,3.052-0.44,4.471-1.093
			c0.534-0.245,1.055-0.516,1.466-0.892c-0.382-1.258-0.754-2.48-1.127-3.707c-0.322,0.217-0.624,0.451-0.955,0.632
			c-0.332,0.183-0.683,0.342-1.042,0.46c-1.362,0.447-2.76,0.585-4.171,0.312c-2.137-0.414-3.579-1.634-4.118-3.784
			c-0.288-1.145-0.245-2.306,0.043-3.452c0.438-1.741,1.525-2.875,3.255-3.34c2.399-0.646,4.639-0.206,6.73,1.09
			C71.639,107.526,71.8,107.652,72.065,107.839z M110.928,107.288c0-1.331-0.008-2.551,0.006-3.77
			c0.003-0.294-0.106-0.465-0.367-0.568c-0.372-0.146-0.733-0.325-1.113-0.442c-2.086-0.647-4.218-0.832-6.382-0.539
			c-1.08,0.146-2.127,0.43-3.094,0.956c-1.929,1.05-2.942,2.635-2.873,4.875c0.051,1.607,0.699,2.882,2.062,3.731
			c0.657,0.408,1.383,0.721,2.103,1.013c0.757,0.307,1.552,0.521,2.316,0.809c0.443,0.167,0.88,0.369,1.287,0.61
			c0.67,0.396,0.979,1,0.846,1.787c-0.123,0.726-0.606,1.15-1.285,1.295c-0.571,0.122-1.17,0.198-1.751,0.17
			c-1.852-0.088-3.522-0.749-5.062-1.761c-0.104-0.069-0.22-0.118-0.279-0.149c-0.307,1.394-0.608,2.765-0.919,4.18
			c0.009,0.006,0.06,0.064,0.125,0.099c0.253,0.132,0.503,0.273,0.766,0.383c2.938,1.241,5.983,1.598,9.12,1.023
			c1.363-0.25,2.616-0.784,3.712-1.67c2.523-2.041,2.414-6.46-0.598-8.147c-0.693-0.389-1.436-0.7-2.177-0.993
			c-0.849-0.335-1.731-0.585-2.579-0.925c-0.397-0.16-0.792-0.393-1.109-0.679c-0.707-0.638-0.615-1.741,0.174-2.272
			c0.277-0.187,0.611-0.334,0.938-0.393c2.069-0.372,4.017-0.076,5.777,1.141C110.662,107.114,110.754,107.172,110.928,107.288z
			 M153.034,136.676c2.468,0,4.877,0,7.34,0c0-1.354,0.021-2.635-0.015-3.963c-2.477,0-4.872,0-7.298,0c0-1.162,0-2.273,0-3.458
			c0.888,0,1.74,0,2.592,0c0.858,0,1.716,0.001,2.574-0.001c0.849-0.001,1.698-0.006,2.548-0.01c0-1.252,0-2.424,0-3.652
			c-4.751-0.315-9.461-0.332-14.226,0.006c0,1.614,0,3.155,0,4.696c0,1.525,0,3.051,0,4.575c0,1.544-0.008,3.089,0.002,4.633
			c0.009,1.533-0.041,3.068,0.03,4.58c2.181,0,4.287,0,6.452,0C153.034,141.609,153.034,139.178,153.034,136.676z M36.646,108.196
			c0,5.648,0,11.207,0,16.761c3.895,1.229,7.397,2.989,9.813,6.564c0.015-0.267,0.031-0.413,0.031-0.561
			c0-4.917-0.002-9.834,0.008-14.751c0.001-0.362-0.112-0.592-0.4-0.812c-3.017-2.297-6.023-4.607-9.034-6.913
			C36.947,108.394,36.822,108.317,36.646,108.196z M191.665,125.59c0,6.22,0,12.348,0,18.502c4.635,0,9.234,0,13.855,0
			c0-1.429,0-2.825,0-4.271c-0.854,0-1.671,0-2.487,0c-0.819,0-1.639,0.001-2.457,0c-0.812-0.002-1.624,0.008-2.49-0.008
			c0-4.779,0-9.477,0-14.217C195.917,125.267,193.805,125.269,191.665,125.59z M163.405,125.357
			c-0.013,0.223-0.027,0.354-0.027,0.484c0.007,6.059,0.017,12.118,0.027,18.178c0,0.014,0.021,0.029,0.034,0.042
			c0.013,0.014,0.027,0.026,0.021,0.021c2.146,0,4.272,0,6.41,0c0-6.245,0-12.448,0-18.738
			C167.707,125.346,165.584,125.326,163.405,125.357z M24.785,125.491c0,3.84,0,7.601,0,11.361c1.456,0.148,2.878,0.246,4.286,0.451
			c1.422,0.207,2.828,0.522,4.302,0.802c0.854-3.746,1.164-7.559,1.132-11.444C31.307,125.885,28.113,125.501,24.785,125.491z
			 M22.66,136.896c0.125-1.096,0.074-10.97-0.067-11.419c-3.246-0.009-6.455,0.358-9.649,1.202c0.067,3.891,0.366,7.689,1.21,11.492
			C16.953,137.305,19.786,137.038,22.66,136.896z M10.778,127.219c-0.41,0.141-0.73,0.245-1.045,0.361
			c-1.962,0.725-3.803,1.661-5.377,3.062c-1.099,0.978-1.957,2.125-2.475,3.516c-0.111,0.302-0.115,0.581-0.021,0.886
			c0.871,2.811,2.17,5.4,3.955,7.743c0.111,0.146,0.236,0.282,0.39,0.465c0.724-1.098,1.586-1.989,2.638-2.659
			c1.035-0.661,2.125-1.233,3.209-1.855C11.197,134.987,10.818,131.153,10.778,127.219z M41.3,143.202
			c0.088-0.099,0.18-0.189,0.257-0.29c1.844-2.396,3.192-5.044,4.067-7.938c0.084-0.277,0.066-0.514-0.041-0.77
			c-0.458-1.105-1.12-2.075-1.951-2.932c-1.835-1.891-4.094-3.074-6.558-3.91c-0.103-0.035-0.217-0.036-0.399-0.063
			c-0.028,3.904-0.403,7.738-1.264,11.496C39.777,141.041,39.447,141.151,41.3,143.202z M24.829,139.159
			c-0.135,0.595-0.114,11.651,0.018,12.036c0.052,0.005,0.11,0.022,0.163,0.012c0.11-0.022,0.22-0.057,0.328-0.093
			c0.825-0.273,1.542-0.732,2.201-1.291c0.953-0.809,1.721-1.775,2.388-2.824c1.235-1.941,2.099-4.048,2.756-6.244
			c0.042-0.141,0.068-0.285,0.099-0.416C31.837,139.717,26.386,138.949,24.829,139.159z M22.696,139.194
			c-1.457-0.31-7.106,0.522-8.063,1.206c0.388,1.071,0.749,2.175,1.186,3.248c0.757,1.86,1.715,3.613,3.055,5.129
			c0.919,1.039,1.963,1.916,3.312,2.353c0.152,0.049,0.315,0.064,0.511,0.103C22.696,147.183,22.696,143.205,22.696,139.194z
			 M22.708,92.973c-0.553,0.419-0.989,0.788-1.464,1.098c-0.384,0.251-0.487,0.567-0.485,1.006c0.016,2.744,0.008,5.488,0.008,8.232
			c0,6.383-0.001,12.767,0.002,19.152c0,0.257,0.03,0.515,0.047,0.787c0.668-0.034,1.268-0.065,1.892-0.097
			C22.708,113.097,22.708,103.101,22.708,92.973z M18.765,95.988c-0.574,0.436-1.028,0.812-1.514,1.142
			c-0.339,0.229-0.439,0.504-0.439,0.906c0.011,8.312,0.008,16.626,0.008,24.939c0,0.205,0,0.41,0,0.67
			c0.48-0.049,0.892-0.086,1.303-0.135c0.205-0.025,0.407-0.074,0.642-0.117C18.765,114.28,18.765,105.197,18.765,95.988z
			 M14.789,123.993c0-8.336,0-16.609,0-24.962c-0.513,0.392-0.945,0.764-1.418,1.072c-0.417,0.272-0.537,0.607-0.536,1.096
			c0.016,7.507,0.011,15.014,0.011,22.521c0,0.114-0.012,0.229,0.003,0.342c0.017,0.121,0.059,0.238,0.089,0.355
			C13.575,124.271,14.166,124.137,14.789,123.993z M7.663,144.96c2.966,3.02,6.421,5.088,10.494,6.103
			c-0.097-0.181-0.22-0.321-0.351-0.453c-1.032-1.026-1.906-2.174-2.641-3.428c-1.044-1.783-1.776-3.699-2.395-5.662
			c-0.055-0.175-0.122-0.348-0.199-0.564C10.556,141.832,8.82,142.965,7.663,144.96z M39.803,144.955
			c-1.145-1.984-2.883-3.13-4.927-3.999c-1.164,3.802-2.694,7.334-5.604,10.111C33.355,150.034,36.824,147.989,39.803,144.955z
			 M10.835,124.94c0.018-0.168,0.041-0.28,0.041-0.393c0-5.339-0.001-10.679-0.004-16.018c0-0.055-0.02-0.111-0.033-0.166
			c-0.004-0.018-0.015-0.037-0.028-0.049c-0.014-0.013-0.034-0.016-0.12-0.054c-0.45,0.345-0.917,0.729-1.413,1.073
			c-0.285,0.199-0.371,0.433-0.366,0.768c0.017,1.087,0.007,2.174,0.007,3.261c0,3.851-0.001,7.703,0,11.555
			c0.001,0.215,0.02,0.43,0.031,0.681C9.626,125.362,10.214,125.157,10.835,124.94z M6.878,126.513c0-5.11,0-10.167,0-15.327
			c-0.587,0.448-1.09,0.849-1.611,1.224c-0.243,0.175-0.336,0.377-0.331,0.674c0.015,0.876,0.005,1.753,0.005,2.63
			c0,3.716-0.002,7.433,0.004,11.148c0,0.211-0.082,0.45,0.107,0.646C5.669,127.173,6.268,126.846,6.878,126.513z M1,131.37
			c0.543-0.676,1.017-1.321,1.552-1.908c0.261-0.287,0.399-0.548,0.398-0.944c-0.014-4.534-0.008-9.068-0.009-13.603
			c0-0.183-0.018-0.366-0.033-0.675c-0.529,0.404-0.961,0.768-1.427,1.08c-0.356,0.238-0.476,0.518-0.475,0.946
			c0.011,4.84,0,9.679-0.006,14.518C1,130.972,1,131.159,1,131.37z M229.836,140.076c0.006,2.31,1.833,4.151,4.124,4.155
			c2.311,0.004,4.163-1.868,4.147-4.191c-0.016-2.309-1.843-4.118-4.155-4.113C231.652,135.931,229.832,137.766,229.836,140.076z"/>
		<path fill-rule="evenodd" clip-rule="evenodd" d="M84.307,125.382c-2.13,6.268-4.241,12.481-6.359,18.713
			c-1.716,0-3.407,0-5.175,0c-1.021-3.546-2.05-7.116-3.078-10.687c-0.049,0-0.098,0.002-0.146,0.003
			c-1.149,3.561-2.3,7.122-3.453,10.692c-1.722,0-3.414,0-5.176,0c-1.882-6.116-3.799-12.23-5.534-18.496
			c0.551-0.071,1.03-0.158,1.513-0.191c1.543-0.109,3.085-0.083,4.622,0.106c0.442,0.054,0.445,0.058,0.581,0.557
			c0.835,3.067,1.668,6.136,2.506,9.203c0.057,0.209,0.139,0.411,0.209,0.617c0.038-0.007,0.076-0.013,0.113-0.02
			c0.059-0.174,0.124-0.346,0.175-0.522c0.886-3.054,1.781-6.104,2.646-9.164c0.132-0.468,0.346-0.696,0.836-0.748
			c1.182-0.127,2.355-0.128,3.53,0.063c0.291,0.048,0.354,0.229,0.417,0.462c0.403,1.509,0.814,3.015,1.222,4.521
			c0.449,1.654,0.897,3.308,1.349,4.961c0.043,0.158,0.102,0.312,0.264,0.469c1.008-3.504,2.014-7.007,3.029-10.54
			C80.361,125.382,82.295,125.382,84.307,125.382z"/>
		<path fill-rule="evenodd" clip-rule="evenodd" d="M155.579,120.844c0-3.907,0-7.79,0-11.661c-0.062-0.015-0.081-0.025-0.099-0.022
			c-0.018,0.002-0.039,0.014-0.049,0.028c-0.043,0.062-0.09,0.122-0.123,0.189c-1.54,3.169-3.08,6.339-4.641,9.552
			c-0.659,0-1.358,0-2.114,0c-1.417-3.29-2.896-6.576-4.513-9.795c-0.05,0.012-0.1,0.024-0.149,0.036c0,3.893,0,7.786,0,11.66
			c-0.496,0.128-4.83,0.154-5.474,0.051c-0.107-0.409-0.151-17.444-0.04-18.446c2.544-0.363,5.098-0.345,7.717,0.005
			c1.257,2.708,2.521,5.434,3.837,8.267c0.756-1.495,1.465-2.915,2.193-4.325c0.723-1.404,1.468-2.798,2.194-4.181
			c2.408,0,4.765,0,7.156,0c0,6.236,0,12.441,0,18.639C160.993,120.969,156.203,120.979,155.579,120.844z"/>
		<path fill-rule="evenodd" clip-rule="evenodd" d="M208.034,120.939c-0.251,0-0.438,0-0.627,0c-2.002,0-4.004-0.013-6.005,0.009
			c-0.417,0.006-0.646-0.134-0.856-0.49c-2.186-3.688-4.39-7.365-6.59-11.044c-0.113-0.189-0.234-0.374-0.415-0.544
			c-0.118,0.799-0.081,1.587-0.087,2.372c-0.007,0.801-0.002,1.602-0.002,2.401c0,0.801,0,1.602,0,2.402s0,1.602,0,2.402
			c0,0.797,0,1.594,0,2.378c-0.473,0.142-4.927,0.161-5.527,0.027c0-6.12,0-12.248,0-18.448c0.815-0.072,1.624-0.174,2.436-0.208
			c1.678-0.071,3.353,0,5.024,0.165c0.371,0.037,0.564,0.188,0.747,0.495c1.955,3.293,3.923,6.578,5.89,9.865
			c0.095,0.16,0.202,0.312,0.357,0.55c0.152-0.597,0.074-1.105,0.086-1.606c0.015-0.533,0.004-1.067,0.004-1.601
			c0-0.515,0-1.03,0-1.544c0-0.534,0-1.067,0-1.602c0-0.515,0-1.029,0-1.544c0-0.534,0-1.067,0-1.601c0-0.51,0-1.019,0-1.563
			c1.894,0,3.711,0,5.565,0C208.034,108.438,208.034,114.642,208.034,120.939z"/>
		<path fill-rule="evenodd" clip-rule="evenodd" d="M134.242,120.913c-2.146,0-4.238,0-6.405,0
			c-0.046-0.641-0.018-1.263-0.023-1.883c-0.004-0.61,0-1.22,0-1.83c0-0.628,0-1.258,0-1.887c0-0.608,0-1.215,0-1.805
			c-0.496-0.155-6.231-0.167-6.81-0.017c0,2.438,0,4.889,0,7.323c-0.479,0.155-5.837,0.177-6.439,0.035c0-6.121,0-12.249,0-18.417
			c2.136-0.352,4.25-0.345,6.438,0c0,2.334,0,4.648,0,7c2.292,0,4.51,0,6.787,0c0-2.409,0-4.782,0-7.137
			c0.451-0.142,5.668-0.177,6.453-0.056C134.242,108.437,134.242,114.64,134.242,120.913z"/>
		<path fill-rule="evenodd" clip-rule="evenodd" d="M34.577,124.364c-1.651-0.282-3.25-0.611-4.866-0.816
			c-1.622-0.206-3.259-0.288-4.897-0.426c-0.109-0.376-0.153-29.172-0.034-30.104c0.138,0.089,0.265,0.16,0.38,0.247
			c3.025,2.316,6.048,4.637,9.08,6.944c0.272,0.207,0.377,0.422,0.377,0.761c-0.009,7.641-0.006,15.283-0.009,22.925
			C34.608,124.058,34.587,124.222,34.577,124.364z"/>
		<path fill-rule="evenodd" clip-rule="evenodd" d="M208.134,144.124c0-6.211,0-12.325,0-18.488
			c0.279-0.033,0.538-0.083,0.799-0.094c2.837-0.117,5.674-0.286,8.514-0.13c1.759,0.097,3.472,0.452,5.08,1.211
			c2.436,1.146,3.968,3.026,4.573,5.651c0.362,1.577,0.442,3.165,0.118,4.761c-0.469,2.296-1.738,4.029-3.711,5.263
			c-1.378,0.862-2.894,1.37-4.492,1.586c-1.072,0.145-2.162,0.215-3.244,0.229c-2.325,0.034-4.651,0.011-6.977,0.011
			C208.588,144.124,208.384,144.124,208.134,144.124z M214.536,140.059c0.269,0.019,0.455,0.043,0.64,0.04
			c0.59-0.009,1.182-0.017,1.771-0.046c1.932-0.096,3.257-1.161,3.763-3.017c0.328-1.197,0.329-2.419,0.159-3.63
			c-0.09-0.652-0.276-1.309-0.53-1.916c-0.47-1.116-1.334-1.828-2.504-2.169c-0.973-0.283-1.962-0.218-2.95-0.165
			c-0.227,0.012-0.348,0.133-0.345,0.366c0.002,0.134-0.004,0.268-0.004,0.4c0,3.146,0,6.29,0,9.436
			C214.536,139.566,214.536,139.773,214.536,140.059z"/>
		<path fill-rule="evenodd" clip-rule="evenodd" d="M113.046,135.52c0,2.847,0,5.693,0,8.572c-2.164,0-4.251,0-6.337,0
			c-0.11-0.419-0.148-17.651-0.036-18.505c2.102-0.329,4.212-0.319,6.41,0.007c0.001,1.38,0.001,2.726,0.002,4.071
			c0.001,1.332,0,2.665,0,4.031c0.33-0.042,0.451-0.279,0.599-0.453c1.351-1.602,2.703-3.205,4.034-4.825
			c0.665-0.81,1.291-1.652,1.918-2.49c0.161-0.216,0.321-0.34,0.605-0.339c2.058,0.011,4.116,0.006,6.176,0.009
			c0.056,0,0.11,0.019,0.243,0.042c-0.106,0.16-0.184,0.297-0.279,0.421c-1.932,2.487-4.069,4.793-6.241,7.07
			c-0.208,0.217-0.408,0.443-0.64,0.696c2.568,3.416,5.115,6.805,7.74,10.297c-0.273,0-0.416,0-0.56,0
			c-2.25,0-4.499-0.009-6.748,0.01c-0.37,0.003-0.587-0.116-0.797-0.412c-1.833-2.578-3.681-5.146-5.525-7.717
			c-0.132-0.182-0.271-0.357-0.406-0.536C113.152,135.486,113.099,135.503,113.046,135.52z"/>
		<path fill-rule="evenodd" clip-rule="evenodd" d="M81.418,102.436c0,0.267,0,0.493,0,0.718c0,3.299-0.003,6.597,0.004,9.896
			c0.001,0.456,0.026,0.916,0.096,1.365c0.264,1.705,1.176,2.582,2.878,2.706c0.541,0.04,1.107-0.032,1.638-0.153
			c0.941-0.215,1.595-0.829,1.883-1.744c0.175-0.555,0.29-1.153,0.294-1.733c0.029-3.527,0.019-7.054,0.022-10.581
			c0-0.224,0-0.448,0-0.704c1.986,0,3.904,0,5.884,0c0.017,0.183,0.048,0.364,0.048,0.545c0.002,3.489,0.021,6.978-0.013,10.467
			c-0.008,0.851-0.113,1.717-0.308,2.545c-0.564,2.399-2.062,3.984-4.394,4.775c-1.016,0.345-2.065,0.521-3.134,0.598
			c-1.699,0.123-3.393,0.096-5.066-0.245c-0.668-0.136-1.334-0.325-1.968-0.576c-2.273-0.898-3.629-2.587-4.098-4.971
			c-0.14-0.707-0.219-1.436-0.224-2.156c-0.022-3.432-0.011-6.863-0.009-10.295c0-0.132,0.013-0.263,0.021-0.452
			C77.1,102.075,79.213,102.085,81.418,102.436z"/>
		<path fill-rule="evenodd" clip-rule="evenodd" d="M104.933,144.099c-2.312,0-4.572,0-6.885,0
			c-0.349-1.188-0.701-2.389-1.061-3.615c-2.72,0-5.418,0-8.184,0c-0.356,1.192-0.715,2.39-1.081,3.61c-1.921,0-3.835,0-5.784,0
			c0.045-0.168,0.074-0.314,0.125-0.454c2.087-5.785,4.274-11.532,6.728-17.174c0.447-1.028,0.223-0.873,1.405-0.971
			c1.789-0.147,3.577-0.186,5.367-0.09c0.628,0.034,1.254,0.095,1.882,0.117c0.357,0.014,0.475,0.23,0.585,0.518
			c0.929,2.437,1.869,4.87,2.804,7.305c1.304,3.395,2.608,6.789,3.911,10.184C104.811,143.702,104.861,143.883,104.933,144.099z
			 M95.728,136.591c-0.794-2.642-1.558-5.219-2.55-7.738c-1.061,2.545-2.048,5.089-2.916,7.738
			C92.108,136.591,93.856,136.591,95.728,136.591z"/>
		<path fill-rule="evenodd" clip-rule="evenodd" d="M169.003,120.905c-1.937,0-3.833,0-5.829,0
			c2.263-6.271,4.609-12.435,7.248-18.449c2.856-0.377,6.049-0.36,8.71-0.001c2.346,6.108,4.699,12.236,7.054,18.367
			c-0.443,0.141-5.807,0.188-6.882,0.066c-0.166-0.565-0.34-1.162-0.516-1.757c-0.177-0.601-0.354-1.201-0.542-1.837
			c-0.211-0.013-0.395-0.034-0.58-0.034c-2.325-0.002-4.65-0.002-6.976-0.001c-0.597,0.001-0.604,0.001-0.781,0.588
			C169.607,118.848,169.314,119.851,169.003,120.905z M176.971,113.379c-0.112-0.388-0.203-0.734-0.311-1.075
			c-0.647-2.027-1.296-4.054-1.95-6.079c-0.059-0.18-0.067-0.41-0.339-0.516c-0.991,2.543-1.971,5.066-2.818,7.643
			C172.059,113.489,176.33,113.507,176.971,113.379z"/>
		<path fill-rule="evenodd" clip-rule="evenodd" d="M234.756,118.363c-0.75,0.91-1.467,1.773-2.179,2.641
			c-0.187,0.227-0.419,0.151-0.632,0.097c-0.767-0.197-1.454-0.562-2.09-1.029c-0.26-0.191-0.509-0.396-0.779-0.607
			c-0.087,0.048-0.176,0.082-0.247,0.139c-1.313,1.051-2.853,1.499-4.494,1.641c-1.86,0.159-3.694,0.023-5.475-0.581
			c-1.114-0.379-2.121-0.941-2.943-1.803c-1.785-1.872-1.809-5.042-0.032-6.923c0.777-0.824,1.738-1.282,2.884-1.327
			c0.17-0.007,0.342-0.011,0.514-0.018c0.016,0,0.031-0.014,0.103-0.049c-0.137-0.074-0.238-0.144-0.351-0.187
			c-2.974-1.165-2.855-4.56-1.385-6.159c0.744-0.812,1.658-1.343,2.699-1.644c1.937-0.56,3.875-0.518,5.797,0.092
			c0.604,0.191,1.159,0.485,1.647,0.896c0.385,0.322,0.694,0.701,0.912,1.209c-0.699,0.836-1.4,1.676-2.15,2.576
			c-0.116-0.343-0.185-0.598-0.285-0.84c-0.486-1.178-1.564-1.705-2.788-1.372c-1.054,0.288-1.568,1.251-1.173,2.27
			c0.12,0.312,0.326,0.603,0.539,0.866c0.2,0.25,0.446,0.472,0.699,0.671c1.622,1.275,3.133,2.67,4.551,4.169
			c0.087,0.093,0.191,0.17,0.339,0.299c0.137-0.594,0.057-1.14,0.069-1.676c0.016-0.553,0.005-1.106,0.005-1.659
			c0-0.548,0-1.095,0-1.672c1.378,0,2.684,0,4.024,0c0.018,0.149,0.045,0.277,0.045,0.404c0.001,1.258,0.014,2.517-0.012,3.774
			c-0.012,0.569-0.077,1.141-0.167,1.704c-0.126,0.779-0.375,1.517-0.905,2.117C232.028,117.114,232.877,117.633,234.756,118.363z
			 M221.304,112.248c-0.474,0.506-0.639,0.844-0.798,1.569c-0.472,2.162,0.581,3.825,2.737,4.296
			c0.771,0.168,1.551,0.142,2.312-0.077c0.44-0.127,0.847-0.331,1.179-0.761C225.107,115.409,223.344,113.701,221.304,112.248z"/>
		<path fill-rule="evenodd" clip-rule="evenodd" d="M173.999,125.604c4.87-0.347,9.697-0.348,14.563,0.003c0,1.223,0,2.395,0,3.63
			c-2.734,0-5.448,0-8.142,0c-0.149,0.456-0.185,2.497-0.066,3.355c1.235,0.058,2.484,0.017,3.732,0.024
			c1.255,0.008,2.511,0.002,3.755,0.002c0.12,0.449,0.155,2.847,0.062,3.91c-0.606,0.064-1.229,0.022-1.849,0.029
			c-0.629,0.008-1.258,0.003-1.887,0.003s-1.258,0-1.887,0c-0.628,0-1.255,0-1.868,0c-0.146,0.443-0.171,2.798-0.037,3.498
			c2.738,0,5.491,0,8.221,0c0.151,0.508,0.16,3.532,0.027,4.047c-4.853,0-9.71,0-14.557,0c-0.025-0.02-0.042-0.027-0.054-0.041
			c-0.013-0.014-0.027-0.029-0.032-0.047c-0.014-0.073-0.037-0.148-0.037-0.223c-0.001-5.966-0.001-11.932,0.002-17.897
			C173.946,125.824,173.972,125.75,173.999,125.604z"/>
		<path fill-rule="evenodd" clip-rule="evenodd" d="M135.262,136.55c0,1.206,0,2.321,0,3.511c2.785,0,5.538,0,8.372,0
			c0.018,1.378,0.007,2.681,0.007,4.024c-4.92,0-9.787,0-14.65,0c-0.114-0.461-0.137-17.785-0.013-18.477
			c4.809-0.353,9.633-0.341,14.534-0.001c0.032,1.211,0.018,2.381,0.005,3.633c-0.703,0.03-1.382,0.011-2.059,0.014
			c-0.686,0.004-1.372,0.001-2.059,0.001c-0.668,0-1.335,0-2.003,0c-0.685,0-1.369,0-2.119,0c-0.094,1.127-0.057,2.214-0.021,3.352
			c2.546,0,5.036,0,7.592,0c0.062,1.328,0.021,2.608,0.031,3.943C140.319,136.55,137.829,136.55,135.262,136.55z"/>
		<path fill-rule="evenodd" clip-rule="evenodd" d="M72.065,107.839c-0.265-0.187-0.427-0.312-0.601-0.42
			c-2.091-1.296-4.331-1.736-6.73-1.09c-1.73,0.465-2.817,1.599-3.255,3.34c-0.288,1.146-0.331,2.308-0.043,3.452
			c0.54,2.15,1.981,3.371,4.118,3.784c1.411,0.273,2.809,0.135,4.171-0.312c0.36-0.118,0.71-0.277,1.042-0.46
			c0.331-0.181,0.633-0.415,0.955-0.632c0.373,1.227,0.745,2.449,1.127,3.707c-0.411,0.376-0.932,0.646-1.466,0.892
			c-1.419,0.653-2.926,0.967-4.471,1.093c-2.029,0.166-4.042,0.076-5.977-0.628c-3.647-1.328-5.669-3.955-6.151-7.789
			c-0.202-1.599-0.026-3.163,0.531-4.668c1.022-2.765,3.055-4.497,5.776-5.464c1.965-0.698,4-0.901,6.079-0.749
			c1.454,0.107,2.867,0.368,4.21,0.953c0.139,0.061,0.272,0.136,0.414,0.192c0.207,0.083,0.273,0.233,0.273,0.448
			C72.063,104.898,72.065,106.307,72.065,107.839z"/>
		<path fill-rule="evenodd" clip-rule="evenodd" d="M110.928,107.288c-0.174-0.116-0.266-0.174-0.356-0.236
			c-1.76-1.217-3.708-1.513-5.777-1.141c-0.327,0.059-0.661,0.206-0.938,0.393c-0.789,0.531-0.881,1.634-0.174,2.272
			c0.317,0.286,0.712,0.519,1.109,0.679c0.847,0.34,1.73,0.589,2.579,0.925c0.742,0.293,1.484,0.604,2.177,0.993
			c3.011,1.687,3.121,6.106,0.598,8.147c-1.097,0.886-2.349,1.42-3.712,1.67c-3.137,0.575-6.182,0.218-9.12-1.023
			c-0.262-0.11-0.513-0.251-0.766-0.383c-0.064-0.034-0.116-0.092-0.125-0.099c0.311-1.415,0.612-2.787,0.919-4.18
			c0.059,0.031,0.175,0.081,0.279,0.149c1.54,1.012,3.21,1.672,5.062,1.761c0.581,0.028,1.18-0.048,1.751-0.17
			c0.678-0.145,1.162-0.57,1.285-1.295c0.133-0.786-0.176-1.39-0.846-1.787c-0.407-0.241-0.843-0.443-1.287-0.61
			c-0.765-0.288-1.559-0.501-2.316-0.809c-0.72-0.292-1.445-0.604-2.103-1.013c-1.363-0.849-2.012-2.124-2.062-3.731
			c-0.07-2.241,0.944-3.825,2.873-4.875c0.967-0.526,2.015-0.81,3.094-0.956c2.164-0.292,4.296-0.108,6.382,0.539
			c0.38,0.117,0.742,0.296,1.113,0.442c0.26,0.103,0.37,0.274,0.367,0.568C110.92,104.737,110.928,105.957,110.928,107.288z"/>
		<path fill-rule="evenodd" clip-rule="evenodd" d="M153.034,136.676c0,2.502,0,4.934,0,7.406c-2.165,0-4.271,0-6.452,0
			c-0.071-1.512-0.021-3.047-0.03-4.58c-0.01-1.544-0.002-3.089-0.002-4.633c0-1.524,0-3.05,0-4.575c0-1.541,0-3.082,0-4.696
			c4.765-0.338,9.475-0.321,14.226-0.006c0,1.229,0,2.4,0,3.652c-0.85,0.004-1.699,0.009-2.548,0.01
			c-0.858,0.002-1.716,0.001-2.574,0.001c-0.852,0-1.704,0-2.592,0c0,1.185,0,2.296,0,3.458c2.426,0,4.821,0,7.298,0
			c0.035,1.328,0.015,2.609,0.015,3.963C157.911,136.676,155.502,136.676,153.034,136.676z"/>
		<path fill-rule="evenodd" clip-rule="evenodd" d="M36.646,108.196c0.176,0.121,0.301,0.198,0.418,0.288
			c3.01,2.306,6.017,4.616,9.034,6.913c0.288,0.22,0.402,0.451,0.4,0.812c-0.01,4.917-0.007,9.834-0.008,14.751
			c0,0.147-0.016,0.294-0.031,0.561c-2.417-3.575-5.919-5.336-9.813-6.564C36.646,119.403,36.646,113.844,36.646,108.196z"/>
		<path fill-rule="evenodd" clip-rule="evenodd" d="M191.665,125.59c2.14-0.321,4.252-0.323,6.421,0.007c0,4.74,0,9.438,0,14.217
			c0.866,0.016,1.678,0.006,2.49,0.008c0.818,0.001,1.638,0,2.457,0c0.816,0,1.633,0,2.487,0c0,1.445,0,2.842,0,4.271
			c-4.621,0-9.221,0-13.855,0C191.665,137.938,191.665,131.81,191.665,125.59z"/>
		<path fill-rule="evenodd" clip-rule="evenodd" d="M163.405,125.357c2.179-0.031,4.302-0.012,6.466-0.014c0,6.29,0,12.493,0,18.738
			c-2.138,0-4.264,0-6.41,0c0.006,0.006-0.009-0.007-0.021-0.021c-0.013-0.013-0.034-0.028-0.034-0.042
			c-0.011-6.06-0.021-12.119-0.027-18.178C163.378,125.711,163.393,125.58,163.405,125.357z"/>
		<path fill-rule="evenodd" clip-rule="evenodd" d="M24.785,125.491c3.328,0.01,6.522,0.394,9.719,1.17
			c0.032,3.886-0.277,7.698-1.132,11.444c-1.474-0.279-2.88-0.595-4.302-0.802c-1.407-0.205-2.83-0.303-4.286-0.451
			C24.785,133.092,24.785,129.331,24.785,125.491z"/>
		<path fill-rule="evenodd" clip-rule="evenodd" d="M22.66,136.896c-2.874,0.142-5.707,0.408-8.506,1.275
			c-0.844-3.803-1.143-7.602-1.21-11.492c3.194-0.844,6.403-1.211,9.649-1.202C22.734,125.927,22.786,135.801,22.66,136.896z"/>
		<path fill-rule="evenodd" clip-rule="evenodd" d="M10.778,127.219c0.041,3.935,0.419,7.769,1.275,11.519
			c-1.084,0.622-2.175,1.194-3.209,1.855c-1.052,0.67-1.915,1.562-2.638,2.659c-0.154-0.183-0.279-0.318-0.39-0.465
			c-1.785-2.343-3.084-4.933-3.955-7.743c-0.095-0.305-0.091-0.584,0.021-0.886c0.518-1.391,1.375-2.538,2.475-3.516
			c1.574-1.401,3.415-2.338,5.377-3.062C10.048,127.464,10.368,127.359,10.778,127.219z"/>
		<path fill-rule="evenodd" clip-rule="evenodd" d="M41.3,143.202c-1.853-2.051-1.522-2.161-5.888-4.406
			c0.861-3.758,1.236-7.592,1.264-11.496c0.182,0.027,0.296,0.028,0.399,0.063c2.464,0.836,4.723,2.02,6.558,3.91
			c0.832,0.856,1.493,1.826,1.951,2.932c0.106,0.256,0.125,0.492,0.041,0.77c-0.875,2.894-2.223,5.541-4.067,7.938
			C41.479,143.013,41.388,143.104,41.3,143.202z"/>
		<path fill-rule="evenodd" clip-rule="evenodd" d="M24.829,139.159c1.558-0.21,7.008,0.558,7.952,1.18
			c-0.03,0.131-0.057,0.275-0.099,0.416c-0.658,2.196-1.521,4.303-2.756,6.244c-0.667,1.049-1.435,2.016-2.388,2.824
			c-0.659,0.559-1.376,1.018-2.201,1.291c-0.108,0.036-0.217,0.07-0.328,0.093c-0.053,0.011-0.111-0.007-0.163-0.012
			C24.715,150.811,24.694,139.754,24.829,139.159z"/>
		<path fill-rule="evenodd" clip-rule="evenodd" d="M22.696,139.194c0,4.011,0,7.988,0,12.038c-0.195-0.038-0.358-0.054-0.511-0.103
			c-1.349-0.437-2.392-1.313-3.312-2.353c-1.34-1.516-2.298-3.269-3.055-5.129c-0.437-1.073-0.798-2.177-1.186-3.248
			C15.589,139.717,21.239,138.885,22.696,139.194z"/>
		<path fill-rule="evenodd" clip-rule="evenodd" d="M22.708,92.973c0,10.127,0,20.124,0,30.178
			c-0.624,0.031-1.223,0.062-1.892,0.097c-0.017-0.272-0.047-0.53-0.047-0.787c-0.003-6.385-0.002-12.769-0.002-19.152
			c0-2.744,0.008-5.488-0.008-8.232c-0.002-0.438,0.101-0.754,0.485-1.006C21.719,93.761,22.155,93.392,22.708,92.973z"/>
		<path fill-rule="evenodd" clip-rule="evenodd" d="M18.765,95.988c0,9.209,0,18.292,0,27.405c-0.235,0.043-0.437,0.092-0.642,0.117
			c-0.411,0.049-0.822,0.086-1.303,0.135c0-0.26,0-0.465,0-0.67c0-8.313,0.003-16.626-0.008-24.939c0-0.402,0.101-0.676,0.439-0.906
			C17.737,96.8,18.191,96.424,18.765,95.988z"/>
		<path fill-rule="evenodd" clip-rule="evenodd" d="M14.789,123.993c-0.623,0.144-1.213,0.278-1.851,0.425
			c-0.031-0.117-0.072-0.234-0.089-0.355c-0.015-0.112-0.003-0.228-0.003-0.342c0-7.507,0.005-15.014-0.011-22.521
			c-0.001-0.489,0.119-0.824,0.536-1.096c0.473-0.309,0.906-0.68,1.418-1.072C14.789,107.384,14.789,115.657,14.789,123.993z"/>
		<path fill-rule="evenodd" clip-rule="evenodd" d="M7.663,144.96c1.158-1.995,2.894-3.128,4.908-4.005
			c0.077,0.217,0.144,0.39,0.199,0.564c0.619,1.963,1.351,3.879,2.395,5.662c0.735,1.254,1.609,2.401,2.641,3.428
			c0.131,0.132,0.254,0.272,0.351,0.453C14.083,150.048,10.629,147.979,7.663,144.96z"/>
		<path fill-rule="evenodd" clip-rule="evenodd" d="M39.803,144.955c-2.979,3.034-6.447,5.079-10.531,6.112
			c2.91-2.777,4.439-6.31,5.604-10.111C36.919,141.825,38.658,142.971,39.803,144.955z"/>
		<path fill-rule="evenodd" clip-rule="evenodd" d="M10.835,124.94c-0.621,0.217-1.209,0.422-1.884,0.658
			c-0.011-0.251-0.03-0.466-0.031-0.681c-0.002-3.852,0-7.704,0-11.555c0-1.087,0.01-2.174-0.007-3.261
			c-0.004-0.334,0.081-0.569,0.366-0.768c0.495-0.344,0.962-0.729,1.413-1.073c0.086,0.038,0.106,0.042,0.12,0.054
			c0.013,0.012,0.023,0.031,0.028,0.049c0.013,0.055,0.033,0.111,0.033,0.166c0.003,5.339,0.004,10.678,0.004,16.018
			C10.876,124.66,10.854,124.772,10.835,124.94z"/>
		<path fill-rule="evenodd" clip-rule="evenodd" d="M6.878,126.513c-0.611,0.333-1.209,0.66-1.826,0.996
			c-0.188-0.196-0.106-0.436-0.107-0.646c-0.006-3.716-0.004-7.432-0.004-11.148c0-0.877,0.01-1.754-0.005-2.63
			c-0.006-0.297,0.087-0.499,0.331-0.674c0.521-0.375,1.024-0.775,1.611-1.224C6.878,116.346,6.878,121.402,6.878,126.513z"/>
		<path fill-rule="evenodd" clip-rule="evenodd" d="M1,131.37c0-0.211,0-0.398,0-0.587c0.006-4.839,0.017-9.678,0.006-14.518
			c-0.001-0.429,0.119-0.708,0.475-0.946c0.466-0.312,0.898-0.675,1.427-1.08c0.015,0.309,0.033,0.492,0.033,0.675
			c0.001,4.535-0.004,9.069,0.009,13.603c0.001,0.396-0.137,0.657-0.398,0.944C2.017,130.049,1.543,130.694,1,131.37z"/>
		<path fill-rule="evenodd" clip-rule="evenodd" d="M229.836,140.076c-0.004-2.311,1.816-4.146,4.116-4.149
			c2.312-0.005,4.14,1.805,4.155,4.113c0.016,2.323-1.837,4.195-4.147,4.191C231.669,144.228,229.842,142.386,229.836,140.076z
			 M233.981,136.572c-1.865-0.062-3.522,1.567-3.52,3.506c0.002,1.689,1.366,3.482,3.472,3.51c1.934,0.024,3.569-1.56,3.557-3.492
			C237.476,137.736,235.491,136.503,233.981,136.572z"/>
		<path fill-rule="evenodd" clip-rule="evenodd" fill="#FFFFFF" d="M214.536,140.059c0-0.285,0-0.492,0-0.7c0-3.146,0-6.29,0-9.436
			c0-0.133,0.006-0.267,0.004-0.4c-0.003-0.233,0.118-0.354,0.345-0.366c0.988-0.053,1.978-0.118,2.95,0.165
			c1.17,0.341,2.034,1.053,2.504,2.169c0.254,0.607,0.44,1.264,0.53,1.916c0.17,1.211,0.169,2.433-0.159,3.63
			c-0.506,1.855-1.831,2.921-3.763,3.017c-0.59,0.029-1.182,0.037-1.771,0.046C214.991,140.102,214.805,140.077,214.536,140.059z"/>
		<path fill-rule="evenodd" clip-rule="evenodd" fill="#FFFFFF" d="M95.728,136.591c-1.872,0-3.62,0-5.466,0
			c0.867-2.649,1.854-5.193,2.916-7.738C94.17,131.372,94.934,133.949,95.728,136.591z"/>
		<path fill-rule="evenodd" clip-rule="evenodd" fill="#FFFFFF" d="M176.971,113.379c-0.641,0.128-4.912,0.11-5.418-0.026
			c0.848-2.577,1.827-5.1,2.818-7.643c0.271,0.106,0.28,0.336,0.339,0.516c0.654,2.024,1.303,4.051,1.95,6.079
			C176.768,112.645,176.858,112.991,176.971,113.379z"/>
		<path fill-rule="evenodd" clip-rule="evenodd" fill="#FFFFFF" d="M221.304,112.248c2.04,1.454,3.804,3.161,5.43,5.028
			c-0.332,0.43-0.738,0.634-1.179,0.761c-0.761,0.219-1.54,0.246-2.312,0.077c-2.156-0.471-3.209-2.135-2.737-4.296
			C220.665,113.091,220.83,112.754,221.304,112.248z"/>
		<path fill-rule="evenodd" clip-rule="evenodd" fill="#FFFFFF" d="M233.981,136.572c1.51-0.069,3.494,1.164,3.509,3.523
			c0.013,1.933-1.623,3.517-3.557,3.492c-2.105-0.027-3.47-1.82-3.472-3.51C230.459,138.14,232.116,136.51,233.981,136.572z
			 M232.826,140.536c0.744-0.21,1.199,0.05,1.521,0.609c0.143,0.247,0.291,0.491,0.435,0.739c0.305,0.525,0.315,0.531,1.018,0.376
			c-0.407-0.66-0.739-1.34-1.378-1.854c0.149-0.068,0.268-0.121,0.385-0.174c0.57-0.259,0.835-0.729,0.747-1.332
			c-0.072-0.5-0.473-0.882-1.076-0.933c-0.587-0.049-1.18-0.033-1.769-0.037c-0.165-0.001-0.329,0.033-0.507,0.052
			c0,1.465,0,2.883,0,4.354c0.219-0.011,0.395-0.02,0.624-0.032C232.826,141.683,232.826,141.117,232.826,140.536z"/>
		<path fill-rule="evenodd" clip-rule="evenodd" d="M232.826,140.536c0,0.581,0,1.146,0,1.768c-0.229,0.013-0.405,0.021-0.624,0.032
			c0-1.471,0-2.889,0-4.354c0.178-0.019,0.342-0.053,0.507-0.052c0.589,0.004,1.182-0.012,1.769,0.037
			c0.604,0.051,1.004,0.433,1.076,0.933c0.088,0.603-0.177,1.073-0.747,1.332c-0.117,0.053-0.235,0.105-0.385,0.174
			c0.639,0.515,0.971,1.194,1.378,1.854c-0.702,0.155-0.713,0.149-1.018-0.376c-0.144-0.248-0.292-0.492-0.435-0.739
			C234.025,140.586,233.57,140.326,232.826,140.536z M232.861,139.92c0.549-0.038,1.022-0.039,1.484-0.114
			c0.345-0.056,0.538-0.354,0.523-0.654s-0.237-0.595-0.567-0.623c-0.465-0.039-0.936-0.009-1.44-0.009
			C232.861,138.98,232.861,139.389,232.861,139.92z"/>
		<path fill-rule="evenodd" clip-rule="evenodd" fill="#FFFFFF" d="M232.861,139.92c0-0.531,0-0.939,0-1.4
			c0.505,0,0.976-0.03,1.44,0.009c0.33,0.028,0.553,0.322,0.567,0.623s-0.179,0.599-0.523,0.654
			C233.884,139.881,233.41,139.882,232.861,139.92z"/>
	</g>
</g>
</svg>
