<?xml version="1.0" encoding="iso-8859-1"?>
<!-- Generator: Adobe Illustrator 16.0.0, SVG Export Plug-In . SVG Version: 6.00 Build 0)  -->
<!DOCTYPE svg PUBLIC "-//W3C//DTD SVG 1.1//EN" "http://www.w3.org/Graphics/SVG/1.1/DTD/svg11.dtd">
<svg version="1.1" id="Layer_1" xmlns="http://www.w3.org/2000/svg" xmlns:xlink="http://www.w3.org/1999/xlink" x="0px" y="0px"
	 width="192.756px" height="192.756px" viewBox="0 0 192.756 192.756" style="enable-background:new 0 0 192.756 192.756;"
	 xml:space="preserve">
<g>
	<polygon style="fill-rule:evenodd;clip-rule:evenodd;fill:#FFFFFF;" points="0,0 192.756,0 192.756,192.756 0,192.756 0,0 	"/>
	<path style="fill-rule:evenodd;clip-rule:evenodd;fill:#4E4B78;" d="M96.229,75.404c-1.294,0-2.372,0.431-3.32,1.208
		c-1.38,1.121-2.242,2.975-2.673,5.605l-1.682-3.363c-1.596-2.371-3.751-3.535-6.381-3.578c-4.053-0.043-6.424,2.5-7.028,7.632
		l-0.216-0.776c-0.475-1.811-1.293-3.363-2.501-4.613c-1.466-1.682-3.406-2.544-5.648-2.501c-2.242-0.086-4.182,0.689-5.734,2.328
		c-1.164,1.207-2.026,2.717-2.587,4.57l-0.345,1.164c-1.164-2.5-2.889-4.527-5.174-6.079c-2.458-1.725-5.304-2.63-8.451-2.674
		l-6.037-0.042c-4.311-0.086-6.898,2.026-7.804,6.295c-1.423-2.242-3.061-3.967-5.001-5.217c-2.026-1.293-4.183-1.94-6.424-1.94
		c-5.304-0.129-9.529,2.458-12.633,7.674c-2.415,3.967-3.665,9.098-3.751,15.393c-0.086,6.123,1.38,11.297,4.397,15.564
		c1.466,1.984,3.062,3.58,4.958,4.656c1.983,1.164,4.053,1.725,6.209,1.77c2.329,0,4.484-0.518,6.467-1.639
		c1.94-1.078,3.579-2.588,5.045-4.613v1.725c-0.043,0.904,0.259,1.682,0.949,2.371c0.604,0.646,1.379,0.947,2.285,1.035L36.9,117.4
		c1.897,0,3.535-0.561,4.916-1.682c1.336-1.121,2.156-2.674,2.457-4.484l0.475,1.035l0.043,0.086
		c1.768,3.449,4.269,5.174,7.546,5.26l5.087,0.043c1.078,0,2.113-0.215,3.104-0.732c0.949-0.475,1.768-1.121,2.415-2.027
		l1.811-2.457c1.035-0.043,2.07-0.043,3.062,0.043l1.768,2.5c0.604,0.906,1.423,1.596,2.329,2.113
		c0.949,0.518,2.026,0.775,3.104,0.775l6.166,0.088c0.862,0.043,1.768-0.131,2.673-0.475c1.165-0.389,2.113-0.992,2.889-1.725
		c0.69-0.734,1.207-1.553,1.509-2.502l0.604,1.035c0.733,1.164,1.509,2.07,2.372,2.631c1.121,0.818,2.458,1.207,4.009,1.25
		c1.725,0,3.277-0.475,4.615-1.381c1.594-1.033,2.672-2.629,3.275-4.699c1.381,2.199,2.977,3.967,4.83,5.217
		c1.939,1.252,4.01,1.941,6.166,1.941c4.01,0.043,7.113-1.381,9.312-4.227v0.174c0,0.947,0.301,1.725,0.992,2.414
		c0.646,0.604,1.379,0.949,2.328,0.949l3.578,0.043c1.811,0.043,3.363-0.475,4.699-1.51c0.646,1.078,1.596,1.596,2.846,1.639
		l3.32,0.043c1.811,0,3.449-0.775,5.088-2.414c0.777-0.777,1.381-1.682,1.811-2.674l0.732,1.424
		c0.777,1.121,1.596,2.068,2.416,2.629c1.121,0.775,2.457,1.207,4.053,1.207c2.285,0.043,4.182-0.604,5.562-1.854
		c1.336,1.293,2.846,1.984,4.613,1.984c1.078,0.043,2.113-0.217,3.104-0.691c0.949-0.518,1.768-1.164,2.457-2.068l1.77-2.414
		c1.033-0.088,2.068-0.088,3.104,0l1.725,2.543c0.604,0.861,1.424,1.553,2.371,2.068c0.949,0.518,1.984,0.777,3.062,0.82
		c1.854,0,3.449-0.604,4.742-1.939c1.379-1.295,2.025-2.846,2.113-4.701c-0.043-1.551-0.217-2.932-0.604-4.139l-6.338-24.964
		c-0.475-1.854-1.295-3.363-2.459-4.656c-1.508-1.682-3.449-2.501-5.691-2.501c-2.242-0.086-4.182,0.732-5.734,2.372
		c-1.207,1.207-2.07,2.759-2.586,4.527l-2.631,9.442l0.086-3.622c0-3.665-0.301-6.338-0.861-8.106
		c-1.207-3.147-3.449-4.786-6.855-4.829c-1.295-0.043-2.373,0.388-3.32,1.208c-1.338,1.078-2.242,2.975-2.674,5.562l-1.725-3.363
		c-1.553-2.328-3.664-3.535-6.338-3.579c-2.414,0-4.182,0.862-5.391,2.631c-1.336-1.94-3.232-2.889-5.82-2.932
		c-1.164,0-2.285,0.345-3.277,1.078c-1.207,0.776-2.111,1.94-2.758,3.492c-1.252-1.854-2.803-3.277-4.658-4.269
		c-1.725-0.862-3.535-1.336-5.389-1.336c-4.742-0.086-8.537,2.242-11.469,6.898C102.523,77.56,100.109,75.447,96.229,75.404
		L96.229,75.404z M93.21,86.183h0.043c0-2.285,0.259-4.053,0.733-5.347c0.517-1.379,1.25-2.069,2.199-2.069
		c1.681,0,2.845,0.69,3.492,2.026c0.646,1.38,0.949,3.88,0.906,7.502l-0.26,20.007c-0.043,2.543-0.689,4.354-1.939,5.475
		c-0.818,0.689-1.854,1.035-3.104,1.035c-0.863-0.043-1.553-0.258-2.113-0.646c-0.518-0.346-1.035-0.906-1.509-1.639l-6.295-12.418
		l-0.129,11.168c0.043,1.121-0.517,1.982-1.509,2.631c-0.863,0.43-1.639,0.689-2.501,0.732l-6.166-0.086
		c-1.164,0-2.07-0.518-2.716-1.467l-1.897-2.76c-0.604-0.732-1.336-1.121-2.199-1.207c-1.25-0.086-2.543-0.086-3.837-0.043
		c-0.905,0.043-1.596,0.432-2.199,1.121l-1.983,2.717c-0.646,0.947-1.595,1.422-2.759,1.422l-5.087-0.086
		c-1.94-0.086-3.45-1.207-4.613-3.406c-2.976-6.467-4.7-9.744-5.131-9.787l-1.078,0.129c-0.259,0.174-0.389,0.646-0.432,1.338
		l-0.086,7.459c0,1.207-0.388,2.154-1.078,2.889c-0.776,0.818-1.768,1.207-3.018,1.164l-3.665-0.043l0.388-29.579
		c0.043-2.63,0.431-4.441,1.208-5.476c0.733-0.862,1.897-1.294,3.536-1.294l6.036,0.086c3.579,0.043,6.511,1.336,8.753,3.88
		c2.026,2.242,3.018,4.829,2.975,7.675c-0.043,4.656-1.768,8.062-5.131,10.218l3.794,7.545l6.855-24.188
		c0.345-1.337,0.949-2.415,1.768-3.191c0.862-0.948,1.939-1.38,3.233-1.336c1.336,0,2.415,0.431,3.32,1.423
		c0.776,0.862,1.336,1.94,1.681,3.233l6.295,24.836l0.302-22.249c0.043-2.458,0.345-4.226,0.905-5.26
		c0.604-1.208,1.552-1.768,2.932-1.768c0.819,0.043,1.553,0.216,2.113,0.561c0.518,0.345,1.035,0.862,1.509,1.639
		c0.388,0.518,2.716,5.476,7.114,14.832l0.216-0.302L93.21,86.183L93.21,86.183z M114.727,87.692c-0.82,0-1.51,0.69-2.199,2.027
		c-0.777,1.596-1.207,3.794-1.25,6.51c-0.043,3.32,0.344,5.951,1.121,7.805c0.689,1.51,1.465,2.242,2.414,2.242
		c0.604,0,1.207-0.561,1.768-1.854c0.604-1.338,0.818-2.846,0.775-4.484c-0.818-0.518-1.422-1.51-1.725-2.889
		c-0.344-1.25-0.344-2.415-0.043-3.32c0.561-0.345,1.854-0.517,3.838-0.517c2.113-0.043,3.707,0.172,4.742,0.604
		c0.561,2.802,0.646,5.865,0.217,9.183c-0.389,3.492-1.252,6.295-2.545,8.365c-1.596,3.061-4.139,4.613-7.674,4.527
		c-3.191-0.043-5.865-1.768-8.062-5.346c-2.242-3.58-3.32-7.891-3.234-12.936c0.043-5.605,1.035-10.089,2.975-13.539
		c2.285-4.096,5.303-6.08,9.012-5.993c2.068,0.043,3.881,0.689,5.52,2.026c1.854,1.595,3.104,3.966,3.707,7.114
		c0.215,0.991,0,1.897-0.518,2.63c-0.518,0.646-1.207,1.078-2.068,1.38l-2.459,0.043c-0.861-0.216-1.422-0.604-1.725-1.25
		C116.623,88.512,115.717,87.692,114.727,87.692L114.727,87.692z M142.148,79.371c0.818,0,1.508,0.172,2.113,0.561
		c0.516,0.302,1.033,0.819,1.508,1.595l7.072,14.833c0.129,0,0.215-0.086,0.258-0.26l0.129-9.14
		c0.043-2.242,0.303-4.053,0.777-5.304c0.518-1.423,1.293-2.113,2.199-2.113c1.68,0.043,2.846,0.69,3.449,2.027
		c0.689,1.379,0.99,3.88,0.947,7.545l-0.301,20.438c-0.086,2.586-0.691,4.311-1.811,5.217c-0.734,0.561-1.77,0.818-3.148,0.863
		c-0.906-0.088-1.639-0.26-2.242-0.691c-0.475-0.301-0.949-0.818-1.467-1.639l-6.252-12.416l-0.129,10.174
		c0,1.166-0.518,2.199-1.551,3.191c-0.906,0.775-1.725,1.164-2.459,1.164l-3.32-0.043l0.389-29.018
		c0.043-2.415,0.303-4.225,0.863-5.26C139.82,79.931,140.768,79.371,142.148,79.371L142.148,79.371z M127.188,86.485
		c0-2.199,0.344-3.967,1.078-5.303c0.689-1.423,1.551-2.113,2.672-2.07c1.596,0.043,2.76,0.69,3.406,2.026
		c0.732,1.466,1.078,3.967,1.035,7.503l-0.26,19.662c-0.129,4.656-1.68,6.984-4.742,6.984l-3.578-0.043L127.188,86.485
		L127.188,86.485z M169.742,84.286c0.389-1.337,0.992-2.372,1.768-3.191c0.906-0.948,1.941-1.38,3.277-1.336
		c1.293,0,2.414,0.474,3.277,1.423c0.775,0.818,1.336,1.896,1.725,3.233l6.598,26.43l0.129,1.811c0,0.906-0.346,1.682-0.992,2.328
		c-0.689,0.691-1.467,0.992-2.414,0.992c-1.164,0-2.07-0.518-2.717-1.465l-1.896-2.76c-0.604-0.734-1.338-1.121-2.199-1.164
		c-1.25-0.131-2.545-0.131-3.838-0.086c-0.861,0.043-1.596,0.43-2.156,1.164l-1.982,2.715c-0.689,0.906-1.596,1.381-2.803,1.381
		c-0.906-0.043-1.682-0.346-2.371-1.035c-0.646-0.689-0.949-1.467-0.949-2.371l0.215-1.854L169.742,84.286L169.742,84.286z
		 M19.18,76.698c1.681,0.043,3.277,0.561,4.786,1.552c1.423,0.992,2.76,2.329,3.881,4.053c2.328,3.751,3.535,8.278,3.449,13.711
		c-0.086,5.648-1.337,10.305-3.794,13.883c-2.458,3.58-5.433,5.305-9.054,5.262c-1.725-0.043-3.32-0.561-4.829-1.51
		c-1.466-0.949-2.803-2.285-3.881-4.01c-2.458-3.578-3.622-7.934-3.492-13.107c0.043-5.648,1.121-10.262,3.19-13.711
		C11.936,78.681,15.126,76.654,19.18,76.698L19.18,76.698z"/>
	<path style="fill-rule:evenodd;clip-rule:evenodd;fill:#FFFFFF;" d="M93.253,86.183H93.21l-0.129,9.098l-0.216,0.302
		c-4.398-9.356-6.726-14.314-7.114-14.832c-0.475-0.776-0.991-1.293-1.509-1.639c-0.56-0.345-1.293-0.517-2.113-0.561
		c-1.379,0-2.328,0.561-2.932,1.768c-0.561,1.035-0.862,2.802-0.905,5.26l-0.302,22.249l-6.295-24.836
		c-0.345-1.293-0.905-2.371-1.681-3.233c-0.906-0.992-1.984-1.423-3.32-1.423c-1.294-0.043-2.371,0.388-3.233,1.336
		c-0.819,0.776-1.423,1.854-1.768,3.191l-6.855,24.188l-3.794-7.545c3.363-2.156,5.088-5.562,5.131-10.218
		c0.043-2.846-0.948-5.433-2.975-7.675c-2.242-2.544-5.174-3.837-8.753-3.88l-6.036-0.086c-1.639,0-2.803,0.432-3.536,1.294
		c-0.776,1.034-1.165,2.846-1.208,5.476l-0.388,29.579l3.665,0.043c1.25,0.043,2.242-0.346,3.018-1.164
		c0.69-0.734,1.078-1.682,1.078-2.889l0.086-7.459c0.043-0.691,0.173-1.164,0.432-1.338l1.078-0.129
		c0.431,0.043,2.156,3.32,5.131,9.787c1.164,2.199,2.673,3.32,4.613,3.406l5.087,0.086c1.164,0,2.113-0.475,2.759-1.422l1.983-2.717
		c0.604-0.689,1.294-1.078,2.199-1.121c1.294-0.043,2.587-0.043,3.837,0.043c0.862,0.086,1.595,0.475,2.199,1.207l1.897,2.76
		c0.646,0.949,1.552,1.467,2.716,1.467l6.166,0.086c0.862-0.043,1.638-0.303,2.501-0.732c0.992-0.648,1.552-1.51,1.509-2.631
		l0.129-11.168l6.295,12.418c0.474,0.732,0.991,1.293,1.509,1.639c0.561,0.389,1.25,0.604,2.113,0.646
		c1.25,0,2.286-0.346,3.104-1.035c1.25-1.121,1.896-2.932,1.939-5.475l0.26-20.007c0.043-3.622-0.26-6.123-0.906-7.502
		c-0.646-1.336-1.811-2.026-3.492-2.026c-0.949,0-1.682,0.69-2.199,2.069C93.512,82.13,93.253,83.898,93.253,86.183L93.253,86.183z
		 M41.514,84.976l3.794,0.043c1.078,0.043,1.94,0.474,2.501,1.121c0.561,0.733,0.819,1.638,0.819,2.803
		c-0.044,0.991-0.302,1.768-0.906,2.457c-0.604,0.733-1.422,1.121-2.5,1.208l-3.837-0.087L41.514,84.976L41.514,84.976z
		 M66.608,90.84c0.216,0,0.431,0.172,0.474,0.431l1.768,9.917c0,0.217-0.086,0.346-0.215,0.518l-0.518,0.215l-3.363-0.043
		l-0.474-0.215c-0.173-0.172-0.216-0.346-0.216-0.518l1.983-9.874C66.176,91.012,66.349,90.84,66.608,90.84L66.608,90.84z"/>
	<path style="fill-rule:evenodd;clip-rule:evenodd;fill:#4E4B78;" d="M45.308,85.019l-3.794-0.043l-0.129,7.545l3.837,0.087
		c1.078-0.087,1.897-0.475,2.5-1.208c0.604-0.689,0.862-1.466,0.906-2.457c0-1.165-0.259-2.07-0.819-2.803
		C47.249,85.493,46.386,85.062,45.308,85.019L45.308,85.019z"/>
	<path style="fill-rule:evenodd;clip-rule:evenodd;fill:#4E4B78;" d="M67.082,91.271c-0.043-0.259-0.258-0.431-0.474-0.431
		c-0.259,0-0.432,0.172-0.561,0.431l-1.983,9.874c0,0.172,0.043,0.346,0.216,0.518l0.474,0.215l3.363,0.043l0.518-0.215
		c0.129-0.172,0.215-0.301,0.215-0.518L67.082,91.271L67.082,91.271z"/>
	<path style="fill-rule:evenodd;clip-rule:evenodd;fill:#FFFFFF;" d="M112.527,89.719c0.689-1.336,1.379-2.027,2.199-2.027
		c0.99,0,1.896,0.82,2.586,2.329c0.303,0.647,0.863,1.035,1.725,1.25l2.459-0.043c0.861-0.302,1.551-0.733,2.068-1.38
		c0.518-0.733,0.732-1.639,0.518-2.63c-0.604-3.148-1.854-5.52-3.707-7.114c-1.639-1.337-3.451-1.983-5.52-2.026
		c-3.709-0.087-6.727,1.896-9.012,5.993c-1.939,3.45-2.932,7.934-2.975,13.539c-0.086,5.045,0.992,9.355,3.234,12.936
		c2.197,3.578,4.871,5.303,8.062,5.346c3.535,0.086,6.078-1.467,7.674-4.527c1.293-2.07,2.156-4.873,2.545-8.365
		c0.43-3.318,0.344-6.381-0.217-9.183c-1.035-0.432-2.629-0.646-4.742-0.604c-1.984,0-3.277,0.172-3.838,0.517
		c-0.301,0.905-0.301,2.07,0.043,3.32c0.303,1.379,0.906,2.371,1.725,2.889c0.043,1.639-0.172,3.146-0.775,4.484
		c-0.561,1.293-1.164,1.854-1.768,1.854c-0.949,0-1.725-0.732-2.414-2.242c-0.777-1.854-1.164-4.484-1.121-7.805
		C111.32,93.513,111.75,91.314,112.527,89.719L112.527,89.719z"/>
	<path style="fill-rule:evenodd;clip-rule:evenodd;fill:#FFFFFF;" d="M144.262,79.931c-0.605-0.388-1.295-0.561-2.113-0.561
		c-1.381,0-2.328,0.561-2.975,1.725c-0.561,1.035-0.82,2.846-0.863,5.26l-0.389,29.018l3.32,0.043c0.734,0,1.553-0.389,2.459-1.164
		c1.033-0.992,1.551-2.025,1.551-3.191l0.129-10.174l6.252,12.416c0.518,0.82,0.992,1.338,1.467,1.639
		c0.604,0.432,1.336,0.604,2.242,0.691c1.379-0.045,2.414-0.303,3.148-0.863c1.119-0.906,1.725-2.631,1.811-5.217l0.301-20.438
		c0.043-3.665-0.258-6.166-0.947-7.545c-0.604-1.337-1.77-1.983-3.449-2.027c-0.906,0-1.682,0.69-2.199,2.113
		c-0.475,1.251-0.734,3.062-0.777,5.304L153.1,96.1c-0.043,0.174-0.129,0.26-0.258,0.26l-7.072-14.833
		C145.295,80.75,144.777,80.233,144.262,79.931L144.262,79.931z"/>
	<path style="fill-rule:evenodd;clip-rule:evenodd;fill:#FFFFFF;" d="M128.266,81.182c-0.734,1.336-1.078,3.104-1.078,5.303
		l-0.389,28.759l3.578,0.043c3.062,0,4.613-2.328,4.742-6.984l0.26-19.662c0.043-3.536-0.303-6.037-1.035-7.503
		c-0.646-1.336-1.811-1.983-3.406-2.026C129.816,79.069,128.955,79.759,128.266,81.182L128.266,81.182z"/>
	<path style="fill-rule:evenodd;clip-rule:evenodd;fill:#FFFFFF;" d="M171.51,81.095c-0.775,0.819-1.379,1.854-1.768,3.191
		l-7.33,26.216l-0.215,1.854c0,0.904,0.303,1.682,0.949,2.371c0.689,0.689,1.465,0.992,2.371,1.035c1.207,0,2.113-0.475,2.803-1.381
		l1.982-2.715c0.561-0.734,1.295-1.121,2.156-1.164c1.293-0.045,2.588-0.045,3.838,0.086c0.861,0.043,1.596,0.43,2.199,1.164
		l1.896,2.76c0.646,0.947,1.553,1.465,2.717,1.465c0.947,0,1.725-0.301,2.414-0.992c0.646-0.646,0.992-1.422,0.992-2.328
		l-0.129-1.811l-6.598-26.43c-0.389-1.337-0.949-2.415-1.725-3.233c-0.863-0.949-1.984-1.423-3.277-1.423
		C173.451,79.715,172.416,80.147,171.51,81.095L171.51,81.095z M174.098,92.737c0.129-0.345,0.346-0.475,0.561-0.431
		c0.301,0,0.432,0.129,0.475,0.431l1.768,9.917l-0.217,0.518c-0.172,0.129-0.344,0.172-0.516,0.172l-3.277-0.043l-0.561-0.217
		c-0.172-0.172-0.217-0.301-0.217-0.518L174.098,92.737L174.098,92.737z"/>
	<path style="fill-rule:evenodd;clip-rule:evenodd;fill:#4E4B78;" d="M174.658,92.306c-0.215-0.044-0.432,0.086-0.561,0.431
		l-1.984,9.83c0,0.217,0.045,0.346,0.217,0.518l0.561,0.217l3.277,0.043c0.172,0,0.344-0.043,0.516-0.172l0.217-0.518l-1.768-9.917
		C175.09,92.435,174.959,92.306,174.658,92.306L174.658,92.306z"/>
	<path style="fill-rule:evenodd;clip-rule:evenodd;fill:#FFFFFF;" d="M23.965,78.25c-1.509-0.991-3.104-1.509-4.786-1.552
		c-4.053-0.043-7.244,1.983-9.745,6.122c-2.069,3.45-3.147,8.063-3.19,13.711c-0.13,5.174,1.035,9.529,3.492,13.107
		c1.078,1.725,2.415,3.061,3.881,4.01c1.509,0.949,3.104,1.467,4.829,1.51c3.621,0.043,6.597-1.682,9.054-5.262
		c2.458-3.578,3.708-8.234,3.794-13.883c0.086-5.433-1.121-9.96-3.449-13.711C26.725,80.578,25.388,79.242,23.965,78.25
		L23.965,78.25z M18.749,87.088c1.207,0,2.156,0.949,2.846,2.846c0.517,1.596,0.776,3.536,0.732,5.907
		c0,2.543-0.388,4.7-1.121,6.381c-0.689,1.768-1.595,2.586-2.716,2.586c-1.035,0-1.897-0.861-2.458-2.543
		c-0.646-1.768-0.992-4.139-0.948-7.071c0.043-2.415,0.431-4.355,1.121-5.864C16.894,87.778,17.756,87.088,18.749,87.088
		L18.749,87.088z"/>
	<path style="fill-rule:evenodd;clip-rule:evenodd;fill:#4E4B78;" d="M21.594,89.934c-0.69-1.897-1.639-2.846-2.846-2.846
		c-0.992,0-1.854,0.69-2.544,2.242c-0.69,1.509-1.078,3.449-1.121,5.864c-0.043,2.932,0.302,5.303,0.948,7.071
		c0.561,1.682,1.423,2.543,2.458,2.543c1.121,0,2.026-0.818,2.716-2.586c0.733-1.682,1.121-3.838,1.121-6.381
		C22.37,93.47,22.111,91.53,21.594,89.934L21.594,89.934z"/>
</g>
</svg>
