<?xml version="1.0" encoding="utf-8"?>
<!-- Generator: Adobe Illustrator 16.0.0, SVG Export Plug-In . SVG Version: 6.00 Build 0)  -->
<!DOCTYPE svg PUBLIC "-//W3C//DTD SVG 1.1//EN" "http://www.w3.org/Graphics/SVG/1.1/DTD/svg11.dtd">
<svg version="1.1" id="Layer_1" xmlns="http://www.w3.org/2000/svg" xmlns:xlink="http://www.w3.org/1999/xlink" x="0px" y="0px"
	 width="240px" height="240px" viewBox="0 0 240 240" enable-background="new 0 0 240 240" xml:space="preserve">
<g>
	<path d="M135.854,117.96c1.3,0.08,1.779-0.523,1.812-1.959h-6.311v-5.15c-0.388,0.092-0.774,0.069-0.842,0.216
		c-1.266,2.542-3.272,4.307-5.754,5.583c-0.217,0.113-0.354,0.604-0.33,0.911c0.011,0.148,0.455,0.364,0.715,0.388
		c0.673,0.057,1.347,0.022,2.144,0.022c0,2.062-0.034,3.931,0.012,5.81c0.057,2.246,0,4.523,0.353,6.723
		c0.398,2.394,2.165,3.543,4.58,3.748c2.279,0.193,3.554-1.539,5.299-2.349l-0.047-0.057c-0.081-1.369-0.797-0.902-1.504-0.684
		c-2.678,0.825-4.454-0.198-4.545-2.81c-0.126-3.392-0.024-6.79-0.024-10.412C132.961,117.941,134.42,117.876,135.854,117.96z"/>
	<path d="M122.071,132.792c-1.392-0.264-1.892-1.061-1.869-2.439c0.057-2.882,0.057-5.766,0-8.635
		c-0.046-2.438-0.788-4.568-3.133-5.73c-2.428-1.208-4.774-0.854-6.973,0.614c-0.592,0.388-1.128,0.854-1.856,1.402l-0.125-2.632
		c-2.404,0.069-6.528,2.226-6.643,3.541l-0.035,0.049c2.401-0.289,2.626-0.091,2.628,2.226c0.003,3.036-0.049,6.072,0.023,9.108
		c0.036,1.424-0.402,2.301-1.892,2.54c-0.296,0.045-0.531,0.456-0.792,0.695c0.331,0.17,0.649,0.479,0.98,0.49
		c2.562,0.034,5.126,0.034,7.69,0c0.318-0.012,0.638-0.341,0.957-0.514c-0.262-0.237-0.512-0.637-0.809-0.684
		c-1.549-0.272-2.005-1.207-1.971-2.688c0.068-3.042,0.012-6.071,0.034-9.114c0-0.455,0.034-0.98,0.273-1.344
		c0.82-1.242,3.588-2.051,5.15-1.584c1.48,0.434,2.277,1.663,2.302,3.704c0.045,2.722-0.058,5.445,0.045,8.167
		c0.056,1.606-0.365,2.632-2.096,2.871c-0.263,0.035-0.49,0.399-0.729,0.605c0.296,0.191,0.593,0.558,0.9,0.558
		c2.62,0.046,5.229,0.046,7.85,0c0.329,0,0.673-0.298,1.002-0.457C122.686,133.28,122.412,132.848,122.071,132.792z"/>
	<path d="M156.546,131.117c-2.566,0.645-2.877,0.396-2.879-2.327c-0.005-2.668,0.047-5.339-0.028-8.006
		c-0.067-2.782-1.765-4.69-4.453-5.291c-2.884-0.643-5.207,0.596-7.383,2.239c-1.868,1.413-2.097,2.962-0.787,5.184
		c0.867-0.387,1.733-0.787,2.256-1.024c0.137-1.242-0.012-2.268,0.376-3.009c0.706-1.31,2.029-1.754,3.51-1.458
		c1.401,0.285,2.198,1.664,2.368,3.667c0.125,1.426-0.181,2.256-1.73,2.736c-2.222,0.694-4.421,1.594-6.46,2.723
		c-1.856,1.025-2.312,2.894-1.686,4.933c0.536,1.73,2.085,3.063,4.009,2.905c1.448-0.114,2.871-0.786,4.262-1.31
		c0.592-0.218,1.082-0.697,1.642-1.06c1.149,2.62,1.149,2.62,3.714,1.663c0.877-0.331,1.799-0.581,2.631-1.014
		c0.456-0.239,0.751-0.776,1.116-1.186l-0.05-0.048L156.546,131.117z M149.48,129.179c-0.007,1.525-0.64,2.146-2.646,2.605
		c-1.385,0.317-2.493-0.079-3.172-1.355c-0.682-1.273-0.376-2.835,0.886-3.586c1.459-0.864,3.062-1.492,4.934-2.368l-0.002,0.001
		C149.48,126.279,149.485,127.73,149.48,129.179z"/>
	<path d="M39.213,115.255c-1.128-0.365-2.272-0.67-3.41-1.003l0.433-0.256c-0.546-1.702-0.9-3.506-1.697-5.077
		c-0.877-1.704-2.13-3.212-3.281-4.766c-2.165-2.921-4.763-5.637-4.204-9.81c-1.493,0.853-2.222,2.082-2.495,3.898
		c-0.445,2.968,0.456,5.589,2.141,7.963c1.265,1.789,2.803,3.411,3.931,5.278c0.979,1.62,1.777,3.425,2.244,5.255
		c0.524,2.084-0.569,4.34-1.993,4.909c0.228-2.141-0.604-3.919-1.845-5.525c-0.958-1.241-1.971-2.437-2.962-3.656
		c-2.302-2.826-4.91-5.503-4.58-9.729c-0.821,0.877-1.572,1.754-1.915,2.769c-0.968,2.871-0.376,5.605,1.288,8.055
		c1.219,1.811,2.803,3.406,3.919,5.274c1.116,1.892,2.096,3.953,2.711,6.061c0.479,1.642-0.068,3.326-1.378,4.673
		c-1.694-6.06-6.992-9.567-9.38-15.081c-4.519,1.275-8.861,2.8-12.108,6.384c-2.362,2.609-2.592,5.806-0.159,8.349
		c1.754,1.834,3.964,3.508,6.294,4.469c9.125,3.761,18.51,3.801,27.935,1.101c3.247-0.928,6.272-2.348,8.697-4.783
		c3.19-3.202,3.155-7.04-0.048-10.229C45.065,117.502,42.217,116.234,39.213,115.255z"/>
	<path d="M72.75,117.8c-1.845-0.991-3.76-1.846-5.526-2.939c-2.038-1.252-2.791-3.303-2.164-5.229
		c0.627-1.937,2.438-3.122,4.75-3.122c3.292,0,5.366,1.789,6.597,5.616c0.114,0.365,0.513,0.649,0.775,0.969
		c0.193-0.342,0.558-0.684,0.569-1.037c0.057-1.663,0.068-3.349-0.012-5.013c-0.022-0.398-0.388-1.037-0.729-1.151
		c-3.532-1.127-7.132-1.753-10.767-0.569c-2.723,0.877-4.591,2.712-5.229,5.561c-0.672,3.015,0.17,5.615,2.609,7.564
		c1.048,0.837,2.256,1.489,3.429,2.16c1.937,1.116,3.987,2.062,5.856,3.292c1.572,1.042,2.357,2.639,2.005,4.613
		c-0.616,3.393-4.637,5.263-8.215,3.792c-2.574-1.06-3.964-3.109-4.761-5.685c-0.137-0.434-0.536-0.774-0.82-1.164l0.041-0.08
		l-0.513,0.248c0,2.348-0.047,4.694,0.05,7.029c0.012,0.365,0.661,0.968,1.071,1.015c3.098,0.307,6.244,0.935,9.296,0.638
		c5.594-0.546,8.92-5.458,7.497-10.471C77.705,120.842,75.324,119.191,72.75,117.8z"/>
	<path d="M96.947,128.741c-0.012-2.564,0.023-5.127-0.012-7.69c-0.045-3.174-1.834-5.257-4.967-5.647
		c-3.248-0.403-5.833,1.05-7.873,3.384c-1.071,1.219-0.786,2.705,0.205,4.158c0.889-0.422,1.709-0.812,2.518-1.19
		c-0.523-2.759,0.331-4.166,2.598-4.409c1.971-0.212,3.247,1.237,3.337,3.808c0,0.159-0.022,0.317,0,0.472
		c0.171,1.093-0.239,1.664-1.355,2.034c-2.13,0.706-4.237,1.505-6.254,2.473c-1.721,0.822-2.712,2.262-2.473,4.316
		c0.342,2.831,2.882,4.638,5.685,3.802c1.572-0.469,3.008-1.376,4.545-2.104c0.023,0.068,0.091,0.256,0.172,0.434
		c0.831,1.785,0.923,2.159,2.859,1.278c1.083-0.497,2.268-0.791,3.35-1.298c0.421-0.2,0.696-0.73,1.025-1.111h0.052
		c-0.135-0.108-0.27-0.218-0.405-0.33C97.267,131.751,96.958,131.513,96.947,128.741z M92.766,129.169
		c-0.007,1.597-0.667,2.233-2.772,2.639c-1.387,0.27-2.479-0.164-3.08-1.494c-0.593-1.307-0.171-2.763,1.048-3.572
		c0.604-0.4,1.287-0.681,1.948-0.974c0.854-0.376,1.721-0.708,2.86-1.181l-0.003,0.002C92.766,126.268,92.77,127.719,92.766,129.169
		z"/>
	<path d="M176.797,130.274c0.059-2.767,0-5.535,0.024-8.315c0.013-2.54-0.797-4.693-3.134-5.879
		c-2.394-1.219-4.773-0.865-6.972,0.639c-0.581,0.388-1.128,0.821-1.868,1.379v-2.586c-0.251-0.057-0.422-0.148-0.535-0.103
		c-1.983,0.786-3.977,1.549-5.926,2.426c-0.272,0.123-0.307,0.775-0.49,1.311c2.521-0.483,2.837-0.228,2.837,2.075
		c0,3.086-0.045,6.175,0.023,9.258c0.023,1.397-0.501,2.147-1.867,2.428c-0.376,0.08-0.672,0.543-1.004,0.831l0.296,0.391
		c2.814,0,5.641,0,8.453-0.008c0.309,0,0.616-0.043,0.924-0.067l0.056-0.063l0.263-0.386c-0.365-0.263-0.689-0.673-1.096-0.775
		c-1.236-0.306-1.855-0.945-1.833-2.302c0.061-3.189,0.008-6.379,0.034-9.568c0.005-0.444,0.074-0.969,0.325-1.299
		c0.961-1.276,3.621-1.994,5.165-1.47c1.461,0.49,2.22,1.789,2.235,3.931c0.015,2.562-0.063,5.127,0.026,7.69
		c0.057,1.687-0.256,2.904-2.21,3.11c-0.224,0.022-0.406,0.456-0.607,0.694c0.216,0.159,0.431,0.467,0.649,0.467
		c2.995,0.035,6.004,0.023,9.012,0.023c0.067-0.158,0.137-0.32,0.193-0.479c-0.318-0.249-0.605-0.672-0.958-0.717
		C177.242,132.668,176.764,131.77,176.797,130.274z"/>
	<path d="M211.253,115.781c-3.513,1.135-6.11,4.407-6.449,8.123c-0.379,4.2,1.438,7.902,4.678,9.541
		c3.358,1.697,8.336,1.178,11.084-1.265c0.46-0.406,0.569-1.21,0.839-1.83l-0.382-0.229c-2.881,1.767-5.866,2.451-8.839,0.484
		c-2.472-1.626-3.076-4.185-3.052-7.168h0.008h12.538C222.051,117.615,216.927,113.946,211.253,115.781z M217.257,121.605h-7.854
		c0.343-2.989,2.125-4.667,4.629-4.444C216.11,117.347,217.376,119.047,217.257,121.605L217.257,121.605L217.257,121.605z"/>
	<path d="M199.814,128.556c-0.024-4.648,0-9.297,0-13.956v-12.942l-0.054-0.028c-2.569,1.103-4.811,2.034-7.013,3.053
		c-0.204,0.097-0.157,0.741-0.248,1.27c0.75-0.18,1.194-0.327,1.662-0.388c0.889-0.122,1.458,0.276,1.471,1.188
		c0.033,3.019,0.012,6.036,0.012,9.004c-0.194,0.064-0.252,0.1-0.297,0.091c-0.353-0.066-0.707-0.139-1.061-0.214
		c-2.63-0.567-5.205-0.448-7.599,0.909c-3.804,2.167-5.41,5.565-5.047,9.838c0.309,3.636,2.143,6.289,5.663,7.555
		c3.166,1.151,5.936,0.33,8.407-1.983c0.261,0.547,0.456,0.957,0.661,1.367c0.467,0.935,1.094,1.241,2.142,0.752
		c1.229-0.569,2.563-0.911,3.782-1.491c0.433-0.196,0.694-0.777,1.037-1.175C200.2,131.758,199.837,131.483,199.814,128.556z
		 M195.645,124.576l-0.016,0.004v3.449c0,2.603-1.474,3.945-4.117,3.765c-2.388-0.161-4.038-1.389-4.876-3.588
		c-1.005-2.645-1.017-5.34,0.19-7.933c1.219-2.62,4.329-3.839,6.868-2.79c1.266,0.524,2.052,1.344,1.962,2.858
		C195.576,121.749,195.645,123.163,195.645,124.576z"/>
	<path d="M237.18,115.374c-1.605-0.285-3.132,0.012-4.327,1.242c-0.64,0.661-1.209,1.379-1.938,2.222v-3.862l-0.055-0.026
		c-2.326,1.025-4.375,1.887-6.369,2.843c-0.251,0.119-0.263,0.726-0.423,1.211c2.563-0.341,2.757-0.17,2.757,2.176
		c0,2.93-0.056,5.861,0.024,8.789c0.044,1.555-0.218,2.694-2.019,2.903c-0.237,0.029-0.443,0.424-0.659,0.649
		c0.263,0.18,0.522,0.512,0.798,0.512c3.177,0.039,6.368,0.023,9.546,0.023l0.217-0.544c-0.432-0.229-0.844-0.569-1.31-0.667
		c-1.106-0.236-2.268-0.362-2.268-1.859c-0.024-3.189-0.092-6.386,0.033-9.571c0.068-1.588,1.289-2.484,2.724-2.874
		c1.241-0.331,2.519-0.411,3.269,1.047c0.129,0.229,0.501,0.32,0.981,0.604c0-1.447,0.09-2.598-0.047-3.726
		C238.069,116.058,237.567,115.443,237.18,115.374z"/>
	
		<line stroke="#000000" stroke-width="0" stroke-linecap="round" stroke-linejoin="round" x1="217.257" y1="121.605" x2="217.258" y2="121.605"/>
</g>
</svg>
