<svg xmlns="http://www.w3.org/2000/svg" viewBox="0 0 163 84"><defs><style>.a{fill:#22a1ff;fill-rule:evenodd;}</style></defs><title>Artboard 1 copy 2</title><path class="a" d="M105.011,16.762c5.065,0-.574,11.36-8.576,12.613C98.211,22.693,102.541,16.762,105.011,16.762ZM66.066,19.848c5.065,0-.574,11.36-8.576,12.613C59.266,25.778,63.6,19.848,66.066,19.848ZM14.223,61.289c-.931-8.958.752-17.969,3.138-26.056,2.688,12.06,6.979,23.7,17.285,23.7,5.513,0,10.521-3.85,13.1-7.538a12.753,12.753,0,0,0,10.545,4.787c9.351,0,18.454-6.943,25.2-16.83.892,8.349,5.7,13.5,13.57,13.5,7.989,0,15.731-5.149,22.007-12.832a18.516,18.516,0,0,0-1.561,5.636c0,5.634,6.773,6.932,12.177,4.383.466-18.252,13.956-33.087,17.794-33.087,6.35,0-5.362,18.486-5.362,26.115,0,6.772,6.209,9.429,12.474,6.192C152.9,33.753,163,21.5,163,13.924c0-5.115-2.5-8.429-7.789-8.429-6.886,0-13.941,7.229-16.488,11.644a23.833,23.833,0,0,0,.8-5.673c0-5.543-6.209-6.857-13-3.6A37.61,37.61,0,0,1,123.756,24.8l-.006-.037c-5.419,10.858-14,17.829-21.223,17.829-4.467,0-6.778-2.429-6.881-7.207,11.9-1.011,21.895-8.306,21.895-17.633,0-6.357-4.4-10.406-11.052-10.406-8.519,0-17.936,10.249-21.586,20.683-5.24,10.365-14.319,17.649-21.321,17.649-4.467,0-6.777-2.429-6.881-7.2,11.9-.992,21.9-8.156,21.9-17.483,0-6.357-4.259-10.571-10.909-10.571-10.847,0-23.295,16.972-23.295,29.43A22.239,22.239,0,0,0,45.6,47.44C34.856,60.03,28.982,39.093,27.7,25.371,40.521,22.955,49.387,16.016,49.387,8.94c0-4.979-2.709-8.94-9.576-8.94-2.6,12.416-9.954,17.306-17.035,19.879,2.046-5.305,3.639-9.468,3.639-11.906,0-4.536-2.43-6.929-6.579-7.022C11.37.951,1.154,12.009,1.154,18.293c0,1.232,1.026,1.73,2.035.5,2.038-3.008,6.662-8.675,10.019-7.861C17.753,12.03,0,46.8,0,55.889,0,63.861,8.128,64,14.223,61.289ZM152.085,59.7c-45.155.951-80.47,2.995-138.511,11.809-9.03,1.372-7.958,14-.338,12.343,55.37-11.655,102.612-16.8,138.678-18C157.161,65.675,157.408,59.7,152.085,59.7Z"/></svg>