<svg width="22" height="21" xmlns="http://www.w3.org/2000/svg"><path d="M7.35846774 16.9091693c0 .0868473-.10201613.1563251-.23064516.1563251-.14637097.0130271-.2483871-.0564507-.2483871-.1563251 0-.0868473.10201613-.1563251.23064517-.1563251.13306451-.0130271.24838709.0564507.24838709.1563251zm-1.37943548-.1954064c-.03104839.0868473.05766129.1867217.1907258.2127759.11532259.0434236.2483871 0 .275-.0868473.02661291-.0868473-.05766129-.1867217-.1907258-.225803-.11532258-.0303966-.24395161.0130271-.275.0998744zm1.96048387-.0738202c-.12862903.0303965-.21733871.1129015-.20403226.2127758.01330645.0868473.12862903.1432981.26169355.1129015.12862903-.0303965.21733871-.1129015.20403226-.1997488-.01330645-.0825049-.13306452-.1389556-.26169355-.1259285zM10.8580645 0C4.70604839 0 0 4.57251034 0 10.5953706c0 4.8156828 3.09596774 8.9365871 7.51814516 10.3869371.56774194.0998744.76733871-.2431725.76733871-.5254262 0-.2692266-.01330645-1.7543155-.01330645-2.6662121 0 0-3.10483871.6513547-3.75685484-1.2940248 0 0-.50564516-1.2636282-1.23306452-1.5893056 0 0-1.0157258-.6817513.07096775-.6687242 0 0 1.10443548.0868473 1.71209677 1.1203302.97137097 1.6761529 2.59919355 1.1941504 3.23346774.9075543.10201613-.6947784.39032258-1.1767809.70967742-1.463377-2.47943548-.2692267-4.98104839-.6209582-4.98104839-4.7983134 0-1.19415033.33709678-1.79339669 1.0467742-2.55765293-.11532258-.28225373-.49233871-1.44600755.11532258-2.94846584C6.11653226 4.21643641 8.25 5.67112868 8.25 5.67112868c.88709677-.24317244 1.8407258-.36910102 2.7854839-.36910102.944758 0 1.8983871.12592858 2.7854838.36910102 0 0 2.1334678-1.45903463 3.0604839-1.17243855.6076613 1.50680066.2306452 2.66621211.1153226 2.94846584.7096774.7685986 1.1443548 1.36784497 1.1443548 2.55765293 0 4.1903823-2.6125 4.5247444-5.0919355 4.7983134.4080646.3430468.7540323.9944016.7540323 2.0148573 0 1.463377-.0133064 3.2741432-.0133064 3.6302172 0 .2822537.2040322.6253005.7673387.5254261C18.9927419 19.5319577 22 15.4110534 22 10.5953706 22 4.57251034 17.0100806 0 10.8580645 0zM4.31129032 14.9768169c-.05766129.0434236-.04435484.143298.03104839.2258029.07096774.0694779.17298387.0998744.23064516.0434237.05766129-.0434237.04435484-.143298-.03104839-.225803-.07096774-.0694778-.17298387-.0998744-.23064516-.0434236zm-.47903226-.3517316c-.03104838.0564507.01330646.1259286.10201613.1693522.07096775.0434237.15967742.0303966.19072581-.0303965.03104839-.0564508-.01330645-.1259286-.10201613-.1693523-.08870968-.0260541-.15967742-.013027-.19072581.0303966zm1.43709678 1.5458819c-.07096774.0564508-.04435484.1867217.05766129.2692267.10201613.0998744.23064516.1129015.28830645.0434236.05766129-.0564507.03104839-.1867217-.05766129-.2692266-.09758064-.0998744-.23064516-.1129015-.28830645-.0434237zm-.50564516-.6383276c-.07096774.0434236-.07096774.1563251 0 .2561995.07096774.0998744.1907258.1432981.24838709.0998744.07096775-.0564507.07096775-.1693522 0-.2692266-.06209677-.0998744-.17741935-.1432981-.24838709-.0868473z" fill="#FFF" fill-rule="nonzero"/></svg>