<?xml version="1.0" encoding="UTF-8"?>
<svg width="22px" height="21px" viewBox="0 0 22 21" version="1.1" xmlns="http://www.w3.org/2000/svg" xmlns:xlink="http://www.w3.org/1999/xlink">
    <title>Shape</title>
    <g id="Symbols" stroke="none" stroke-width="1" fill="none" fill-rule="evenodd">
        <g id="Atoms-/-Icon-/-Github" transform="translate(0.000000, -1.000000)" fill="#FFFFFF" fill-rule="nonzero">
            <path d="M7.35846774,17.9091693 C7.35846774,17.9960166 7.25645161,18.0654944 7.12782258,18.0654944 C6.98145161,18.0785215 6.87943548,18.0090437 6.87943548,17.9091693 C6.87943548,17.822322 6.98145161,17.7528442 7.11008065,17.7528442 C7.24314516,17.7398171 7.35846774,17.8092949 7.35846774,17.9091693 Z M5.97903226,17.7137629 C5.94798387,17.8006102 6.03669355,17.9004846 6.16975806,17.9265388 C6.28508065,17.9699624 6.41814516,17.9265388 6.44475806,17.8396915 C6.47137097,17.7528442 6.38709677,17.6529698 6.25403226,17.6138885 C6.13870968,17.5834919 6.01008065,17.6269156 5.97903226,17.7137629 Z M7.93951613,17.6399427 C7.8108871,17.6703392 7.72217742,17.7528442 7.73548387,17.8527185 C7.74879032,17.9395658 7.8641129,17.9960166 7.99717742,17.96562 C8.12580645,17.9352235 8.21451613,17.8527185 8.20120968,17.7658712 C8.18790323,17.6833663 8.06814516,17.6269156 7.93951613,17.6399427 Z M10.8580645,1 C4.70604839,1 0,5.57251034 0,11.5953706 C0,16.4110534 3.09596774,20.5319577 7.51814516,21.9823077 C8.0858871,22.0821821 8.28548387,21.7391352 8.28548387,21.4568815 C8.28548387,21.1876549 8.27217742,19.702566 8.27217742,18.7906694 C8.27217742,18.7906694 5.16733871,19.4420241 4.51532258,17.4966446 C4.51532258,17.4966446 4.00967742,16.2330164 3.28225806,15.907339 C3.28225806,15.907339 2.26653226,15.2255877 3.35322581,15.2386148 C3.35322581,15.2386148 4.45766129,15.3254621 5.06532258,16.358945 C6.03669355,18.0350979 7.66451613,17.5530954 8.29879032,17.2664993 C8.40080645,16.5717209 8.6891129,16.0897184 9.00846774,15.8031223 C6.52903226,15.5338956 4.02741935,15.1821641 4.02741935,11.0048089 C4.02741935,9.81065857 4.36451613,9.21141221 5.07419355,8.44715597 C4.95887097,8.16490224 4.58185484,7.00114842 5.18951613,5.49869013 C6.11653226,5.21643641 8.25,6.67112868 8.25,6.67112868 C9.13709677,6.42795624 10.0907258,6.30202766 11.0354839,6.30202766 C11.9802419,6.30202766 12.933871,6.42795624 13.8209677,6.67112868 C13.8209677,6.67112868 15.9544355,5.21209405 16.8814516,5.49869013 C17.4891129,7.00549079 17.1120968,8.16490224 16.9967742,8.44715597 C17.7064516,9.21575457 18.141129,9.81500094 18.141129,11.0048089 C18.141129,15.1951912 15.528629,15.5295533 13.0491935,15.8031223 C13.4572581,16.1461691 13.8032258,16.7975239 13.8032258,17.8179796 C13.8032258,19.2813566 13.7899194,21.0921228 13.7899194,21.4481968 C13.7899194,21.7304505 13.9939516,22.0734973 14.5572581,21.9736229 C18.9927419,20.5319577 22,16.4110534 22,11.5953706 C22,5.57251034 17.0100806,1 10.8580645,1 Z M4.31129032,15.9768169 C4.25362903,16.0202405 4.26693548,16.1201149 4.34233871,16.2026198 C4.41330645,16.2720977 4.51532258,16.3024942 4.57298387,16.2460435 C4.63064516,16.2026198 4.61733871,16.1027455 4.54193548,16.0202405 C4.47096774,15.9507627 4.36895161,15.9203661 4.31129032,15.9768169 Z M3.83225806,15.6250853 C3.80120968,15.681536 3.84556452,15.7510139 3.93427419,15.7944375 C4.00524194,15.8378612 4.09395161,15.8248341 4.125,15.764041 C4.15604839,15.7075902 4.11169355,15.6381124 4.02298387,15.5946887 C3.93427419,15.5686346 3.86330645,15.5816617 3.83225806,15.6250853 Z M5.26935484,17.1709672 C5.1983871,17.227418 5.225,17.3576889 5.32701613,17.4401939 C5.42903226,17.5400683 5.55766129,17.5530954 5.61532258,17.4836175 C5.67298387,17.4271668 5.64637097,17.2968958 5.55766129,17.2143909 C5.46008065,17.1145165 5.32701613,17.1014894 5.26935484,17.1709672 Z M4.76370968,16.5326396 C4.69274194,16.5760632 4.69274194,16.6889647 4.76370968,16.7888391 C4.83467742,16.8887135 4.95443548,16.9321372 5.01209677,16.8887135 C5.08306452,16.8322628 5.08306452,16.7193613 5.01209677,16.6194869 C4.95,16.5196125 4.83467742,16.4761888 4.76370968,16.5326396 Z" id="Shape"></path>
        </g>
    </g>
</svg>