<svg viewBox="0 0 24 23" version="1.1" xmlns="http://www.w3.org/2000/svg" xmlns:xlink="http://www.w3.org/1999/xlink">
  <g stroke="none" stroke-width="1" fill="none" fill-rule="evenodd">
    <g transform="translate(-1536.000000, -842.000000)" fill="#35363D" fill-rule="nonzero" class="social__fill">
      <g transform="translate(80.000000, 70.000000)">
        <g transform="translate(1456.000000, 667.000000)">
          <path d="M4.98,107.5 C4.98,108.881 3.87,110 2.5,110 C1.13,110 0.02,108.881 0.02,107.5 C0.02,106.12 1.13,105 2.5,105 C3.87,105 4.98,106.12 4.98,107.5 Z M5,112 L0,112 L0,128 L5,128 L5,112 Z M12.982,112 L8.014,112 L8.014,128 L12.983,128 L12.983,119.601 C12.983,114.931 19.012,114.549 19.012,119.601 L19.012,128 L24,128 L24,117.869 C24,109.989 15.078,110.276 12.982,114.155 L12.982,112 Z" id="LinkedIn"></path>
        </g>
      </g>
    </g>
  </g>
</svg>
