<svg viewBox="0 0 24 19" version="1.1" xmlns="http://www.w3.org/2000/svg" xmlns:xlink="http://www.w3.org/1999/xlink">
  <g stroke="none" stroke-width="1" fill="none" fill-rule="evenodd">
    <g transform="translate(-1536.000000, -898.000000)" fill="#35363D" class="social__fill">
      <g transform="translate(80.000000, 70.000000)">
        <g transform="translate(1456.000000, 667.000000)">
          <path d="M2.846,164.876187 C2.876,164.582008 2.763,164.291818 2.543,164.094368 L0.303,161.401879 L0.303,161 L7.261,161 L12.639,172.76219 L17.367,161 L24,161 L24,161.401879 L22.084,163.233769 C21.919,163.359418 21.837,163.565843 21.871,163.770272 L21.871,177.230725 C21.837,177.434157 21.919,177.640582 22.084,177.766231 L23.955,179.598121 L23.955,180 L14.543,180 L14.543,179.598121 L16.482,177.721356 C16.672,177.531885 16.672,177.476041 16.672,177.18585 L16.672,166.306198 L11.283,179.956122 L10.555,179.956122 L4.28,166.306198 L4.28,175.454679 C4.228,175.838608 4.356,176.226526 4.627,176.503753 L7.148,179.553246 L7.148,179.956122 L0,179.956122 L0,179.553246 L2.521,176.503753 C2.791,176.225529 2.911,175.835616 2.846,175.454679 L2.846,164.876187 Z" id="Medium"></path>
        </g>
      </g>
    </g>
  </g>
</svg>
