<svg width="24" height="19" xmlns="http://www.w3.org/2000/svg">
  <g fill-rule="nonzero" fill="none">
    <path d="M-3-5h30v30H-3z"/>
    <path d="M24 2.25c-.883.381-1.832.638-2.828.754A4.829 4.829 0 0023.337.351c-.951.55-2.005.949-3.127 1.164A4.977 4.977 0 0016.616 0c-3.179 0-5.515 2.89-4.797 5.889A14.104 14.104 0 011.671.878c-1.29 2.156-.669 4.976 1.523 6.404a5.002 5.002 0 01-2.229-.6c-.054 2.222 1.581 4.3 3.949 4.763a5.062 5.062 0 01-2.224.082c.626 1.906 2.444 3.292 4.6 3.33A10.09 10.09 0 010 16.846 14.209 14.209 0 007.548 19c9.142 0 14.307-7.521 13.995-14.268A9.885 9.885 0 0024 2.25z" fill="#FFF"/>
  </g>
</svg>