<?xml version="1.0" encoding="UTF-8"?>
<svg width="24px" height="19px" viewBox="0 0 24 19" version="1.1" xmlns="http://www.w3.org/2000/svg" xmlns:xlink="http://www.w3.org/1999/xlink">
    <!-- Generator: Sketch 61 (89581) - https://sketch.com -->
    <title>Twitter</title>
    <desc>Created with Sketch.</desc>
    <g id="Symbols" stroke="none" stroke-width="1" fill="none" fill-rule="evenodd">
        <g id="Icons-/-Social-/-Twitter" transform="translate(-3.000000, -5.000000)" fill="#FFFFFF" fill-rule="nonzero">
            <path d="M27,7.24933347 C26.117,7.63120386 25.168,7.88838187 24.172,8.00430681 C25.189,7.41104389 25.97,6.47098031 26.337,5.35069729 C25.386,5.90012305 24.332,6.2995283 23.21,6.51481747 C22.313,5.58254717 21.032,5 19.616,5 C16.437,5 14.101,7.88935603 14.819,10.888792 C10.728,10.6890894 7.1,8.77973749 4.671,5.87771739 C3.381,8.03353158 4.002,10.8537223 6.194,12.2818396 C5.388,12.2565115 4.628,12.0412223 3.965,11.6817576 C3.911,13.9038146 5.546,15.9826702 7.914,16.4453958 C7.221,16.6285377 6.462,16.6714007 5.69,16.5272252 C6.316,18.4326805 8.134,19.8189089 10.29,19.8578753 C8.22,21.4389356 5.612,22.145201 3,21.84516 C5.179,23.2060603 7.768,24 10.548,24 C19.69,24 24.855,16.4785172 24.543,9.73246514 C25.505,9.05542453 26.34,8.21082855 27,7.24933347 Z" id="Twitter"></path>
        </g>
    </g>
</svg>