<svg xmlns="http://www.w3.org/2000/svg" viewBox="0 0 210 84"><defs><style>.a{fill:#c91a30;}</style></defs><title>Artboard 1</title><path class="a" d="M210,29.048l-9.6.006.021,27.332-8.921.006-.021-27.331-5.938,0-8.925-8.672,32.928-.026h.454ZM171.723,20.4l8.921,8.673-20.271.012,0,6.464,14.9-.009.006,8.678-14.9.01.011,12.189-8.919.006-.024-36.011Zm-32.885.022,8.92,0,.024,36.008-8.921.009-.02-33.585ZM127.327,44.273h-1.643L138.2,56.443l-12.544.01L104.288,35.681l22.038,0-.007-6.645-24.145.014.021,27.411-8.559.01h-.35V20.449h34.025a7.732,7.732,0,0,1,7.833,7.615l.006,8.583h0A7.728,7.728,0,0,1,127.327,44.273ZM69.29,56.4l9.436-26.892H69.518L66.707,40q-.505,1.968-.924,3.88t-.872,3.882h-.227q-.5-2.076-.953-3.962T62.664,40L59.293,29.511H49.634L60.306,55.854l-.338,1.2a4.189,4.189,0,0,1-1.432,1.995,4.891,4.891,0,0,1-2.949.738,4.189,4.189,0,0,1-.926-.11c-.32-.074-.608-.146-.87-.218l-1.685,7.1a14.666,14.666,0,0,0,1.88.41,17,17,0,0,0,2.388.136,14.712,14.712,0,0,0,4.521-.628,9.891,9.891,0,0,0,3.454-1.94,12.591,12.591,0,0,0,2.668-3.335A40.127,40.127,0,0,0,69.29,56.4Zm-20.75.437V21.313H38.207l-5.28,14.538q-.507,1.475-.956,3.06t-.954,3.17h-.224q-.507-1.582-.956-3.17t-.954-3.06l-5.5-14.538H13.046V56.84h8.648V46.346q0-1.366-.141-3.006t-.308-3.362q-.169-1.724-.394-3.362t-.392-2.952h.225l2.92,8.527L28.1,53.943h5.167l4.494-11.752,3.031-8.527h.224q-.166,1.313-.391,2.952t-.394,3.362q-.168,1.722-.309,3.362c-.1,1.093-.14,2.095-.14,3.006V56.84ZM9.152,9.151c12.2-11.614,58.18-12.775,69.028,0s10.846,52.923,0,65.7-56.826,11.614-69.028,0S-3.051,20.766,9.152,9.151Z"/></svg>