<?xml version="1.0" encoding="utf-8"?>
<!-- Generator: Adobe Illustrator 22.1.0, SVG Export Plug-In . SVG Version: 6.00 Build 0)  -->
<svg version="1.1" id="Layer_1" xmlns="http://www.w3.org/2000/svg" xmlns:xlink="http://www.w3.org/1999/xlink" x="0px" y="0px"
	 viewBox="0 0 66 40" style="enable-background:new 0 0 66 40;" xml:space="preserve">
<style type="text/css">
	.st0{fill:#66CC88;}
</style>
<title>Leaf Home</title>
<g>
	<g transform="translate(-80.000000, -80.000000)">
		<g transform="translate(80.000000, 70.000000)">
			<path id="Logo" class="st0" d="M9,41.8c6.8-0.2,19.9,1,19.9,5.4c0,1-0.5,1.6-1.3,2.1c-1.3-1.4-3.9-2.4-7.8-2.6
				c-4.7-0.3-11.1,0.8-14.3,0.8c-3,0-5.4-1.2-5.4-4.6c1.2-0.3,2.9-0.6,4-0.7c0.2-4.3,1.7-10.6,3.3-15.2c1-3,3.3-8.2,4.8-11.6
				c0.8-1.8,1.5-3.9,0.9-5.3c3.3-0.3,5.1,1.5,5.1,4c0,3.2-3.8,9.8-5.7,14.7C10.4,33.6,9,39.3,9,41.8z M49.6,32.7
				c0,0-1.2-1.1-1.6-1.6c-0.2-0.3-0.4-0.8,0.3-1.2c0.5-0.2,1.4-0.6,2.7-0.8c2.5-6.4,5.8-13.9,9.9-13.9c2.1,0,5.1,1.9,5.1,4
				c0,2.1-1.3,5.5-3.7,5.5c-0.8,0-1.6-0.3-2-0.8c1.4-1.2,2.4-4.2,2.4-5.2c0-0.4,0-0.9-0.4-0.9c-1.3,0-4.6,6-6.6,10.8
				c3.6,0,7.9,0.8,7.9,3.1c0,0.8-0.4,1.3-1.1,1.8c-0.6-1-3.5-1.6-6-1.7c-0.7,0-1.5,0-2.1,0.1c-1.4,4.2-3.2,10.1-3.7,12.8
				c-0.4,2-0.2,2.7,0.6,3.4c-0.6,0.9-1.9,1.7-3.2,1.7c-1.5,0-2.3-1.3-2.3-2.5c0-2,0.9-5.5,1.9-9c-1.4,1.1-3.1,2.1-4.7,2.1
				c-2.2,0-3.3-1.9-3.2-4.1c-1,1.9-3,4.1-5,4.1c-2.1,0-3.3-1.6-3.5-4.6c-2.1,2.1-5.9,4.6-9.4,4.6c-3.6,0-6-2.3-6-7
				c0-5,4-13.3,9.4-13.3c2,0,6.1,1.6,6.1,4.4c0,4-2.6,7.8-7.2,7.8c-1.1,0-2.3-0.3-3.1-0.5c-0.1,0.6-0.2,1.2-0.2,1.7
				c0,2,0.9,3.9,3,3.9c2.3,0,5.8-2.1,7.5-4.4c0.8-5.3,4.4-12.6,9.3-12.6c1.7,0,3.1,1.2,4,2.9c1.5-0.5,2.9-0.9,3.5-0.9
				c0.4,0,0.8,0.4,0.5,1.1c-1.1,2.5-4.3,9.8-4.3,12.2c0,1.1,0.4,1.7,1.3,1.7c0.7,0,1.8-0.6,2.9-1.6C48.9,34.8,49.3,33.7,49.6,32.7z
				 M40.4,31.8c1.4-3.3,2.1-5.4,2.8-7.1c-0.3-0.6-0.8-1.1-1.4-1.1c-2.5,0-5.9,8.1-5.9,11.5c0,1,0.2,1.9,1,1.9
				C37.7,37.1,38.9,35.1,40.4,31.8z M26.6,22.8c-1.5,0-3.9,3.8-5.1,7.4c0.3,0.1,0.7,0.1,1,0.1c2.7,0,4.9-4,4.9-6.3
				C27.3,23.3,27.1,22.8,26.6,22.8z"/>
		</g>
	</g>
</g>
</svg>
