<?xml version="1.0" encoding="UTF-8"?>
<svg width="307px" height="44px" viewBox="0 0 307 44" version="1.1" xmlns="http://www.w3.org/2000/svg" xmlns:xlink="http://www.w3.org/1999/xlink">
    <!-- Generator: Sketch 42 (36781) - http://www.bohemiancoding.com/sketch -->
    <title>CakeBoxx Logo (On white, cargo solutions logo)</title>
    <desc>Created with Sketch.</desc>
    <defs></defs>
    <g id="Design-(v2)" stroke="none" stroke-width="1" fill="none" fill-rule="evenodd">
        <g id="Company" transform="translate(-1378.000000, -3793.000000)" fill-rule="nonzero" fill="#B6BABF">
            <g id="CakeBoxx-Logo-(On-white,-cargo-solutions-logo)" transform="translate(1378.000000, 3793.000000)">
                <g id="Group">
                    <g id="Shape">
                        <path d="M59.8557794,32.7830706 L46.7901587,32.7830706 L46.7901587,32.7843655 L10.329674,32.7843655 L10.329674,32.7830706 L0,32.7830706 L0,43.1372549 L52.0071048,43.1372549 L52.0071048,43.1372549 L70.1837307,43.1372549 L70.1837307,32.7830706 L59.8557794,32.7830706 L59.8557794,32.7830706 Z M46.7901587,0 L46.7901587,0 L0,0 L0,27.607705 L10.3292433,27.607705 L10.3292433,10.3528894 L52.0071048,10.3528894 L52.0071048,10.3528894 L59.8553487,10.3528894 L59.8553487,27.6055468 L70.1837307,27.6055468 L70.1837307,0 L46.7901587,0 Z"></path>
                        <g transform="translate(78.795231, 0.000000)">
                            <g transform="translate(0.000000, 26.756019)">
                                <polygon points="10.2265288 3.70106726 10.2265288 16.0399603 6.49042819 16.0399603 6.49042819 3.70106726 0.0853715681 3.70106726 0.0853715681 0.505088111 16.6326799 0.505088111 16.6326799 3.70106726"></polygon>
                                <polygon points="19.9736634 16.0399603 19.9736634 0.505088111 34.230168 0.505088111 34.230168 3.70106726 23.709764 3.70106726 23.709764 6.58580293 30.1596954 6.58580293 30.1596954 9.78232812 23.709764 9.78232812 23.709764 12.8439811 34.3855881 12.8439811 34.3855881 16.0399603 19.9736634 16.0399603"></polygon>
                                <path d="M50.8486194,16.0399603 L42.1741019,16.0399603 C40.5285102,16.0399603 38.5490938,14.0862249 38.5490938,12.4235294 L38.5490938,4.12206503 C38.5490938,2.45882353 40.5285102,0.505088111 42.1741019,0.505088111 L50.8486194,0.505088111 C52.4947583,0.505088111 54.4736275,2.45882353 54.4736275,4.12206503 L54.4736275,6.16425912 L50.8267292,6.76272028 L50.8267292,3.79061802 L42.3738495,3.79061802 L42.3738495,12.7555225 L50.826182,12.7555225 L50.826182,9.51422189 L54.4730802,10.0706379 L54.4730802,12.4240755 C54.4730802,14.0862249 52.4942111,16.0399603 50.8486194,16.0399603 Z"></path>
                                <polygon points="72.0273353 16.0399603 72.0273353 9.58302308 63.1306329 9.58302308 63.1306329 16.0399603 59.3934377 16.0399603 59.3934377 0.505088111 63.1306329 0.505088111 63.1306329 6.38649789 72.0273353 6.38649789 72.0273353 0.505088111 75.7634359 0.505088111 75.7634359 16.0399603"></polygon>
                                <polygon points="94.784878 16.0399603 84.532081 6.2090345 84.532081 16.0399603 81.1062732 16.0399603 81.1062732 0.505088111 83.7752292 0.505088111 94.027479 10.3354679 94.027479 0.505088111 97.4532868 0.505088111 97.4532868 16.0399603"></polygon>
                                <path d="M115.82897,16.0399603 L106.154072,16.0399603 C104.507933,16.0399603 102.529612,14.0862249 102.529612,12.4235294 L102.529612,4.12206503 C102.529612,2.45882353 104.507933,0.505088111 106.154072,0.505088111 L115.82897,0.505088111 C117.475108,0.505088111 119.455072,2.45882353 119.455072,4.12206503 L119.455072,12.4235294 C119.455072,14.0862249 117.475108,16.0399603 115.82897,16.0399603 Z M115.630316,3.79007198 L106.354367,3.79007198 L106.354367,12.7549764 L115.630316,12.7549764 L115.630316,3.79007198 Z"></path>
                                <polygon points="124.531397 16.0399603 124.531397 0.505088111 128.26695 0.505088111 128.26695 12.8002978 138.276767 12.8002978 138.276767 16.0399603"></polygon>
                                <path d="M154.716266,16.0399603 L145.040274,16.0399603 C143.394683,16.0399603 141.415266,14.0862249 141.415266,12.4235294 L141.415266,4.12206503 C141.415266,2.45882353 143.394683,0.505088111 145.040274,0.505088111 L154.716266,0.505088111 C156.362405,0.505088111 158.341821,2.45882353 158.341821,4.12206503 L158.341821,12.4235294 C158.341821,14.0862249 156.362405,16.0399603 154.716266,16.0399603 Z M154.516518,3.79007198 L145.241117,3.79007198 L145.241117,12.7549764 L154.515971,12.7549764 L154.515971,3.79007198 L154.516518,3.79007198 Z"></path>
                                <path d="M176.228259,16.0399603 L166.775547,16.0399603 C164.88588,16.0399603 163.151086,14.3084636 163.151086,12.4235294 L163.151086,4.12206503 C163.151086,2.21365103 164.88588,0.505088111 166.775547,0.505088111 L176.228259,0.505088111 C178.139816,0.505088111 179.853815,2.21310499 179.853815,4.12206503 L179.853815,4.89908166 L176.205822,5.49918094 L176.205822,3.79061802 L166.975842,3.79061802 L166.975842,12.7555225 L176.205822,12.7555225 L176.205822,10.0034748 L171.113627,10.0034748 L171.113627,7.09689749 L179.853815,7.09689749 L179.853815,12.4240755 C179.853815,14.3084636 178.140364,16.0399603 176.228259,16.0399603 Z"></path>
                                <polygon points="184.929592 16.0399603 184.929592 0.505088111 188.66624 0.505088111 188.66624 16.0399603"></polygon>
                                <polygon points="194.006341 16.0399603 194.006341 0.505088111 208.263393 0.505088111 208.263393 3.70106726 197.743536 3.70106726 197.743536 6.58580293 204.192921 6.58580293 204.192921 9.78232812 197.743536 9.78232812 197.743536 12.8439811 208.418266 12.8439811 208.418266 16.0399603 194.006341 16.0399603"></polygon>
                                <path d="M224.035243,16.0399603 L215.584005,16.0399603 C213.716776,16.0399603 212.003872,14.3084636 212.003872,12.6889054 L212.003872,11.9342765 L215.60699,11.3341772 L215.60699,12.8002978 L224.0139,12.8002978 L224.0139,9.91447009 L215.695645,9.91447009 C214.049506,9.91447009 212.337149,8.2288409 212.337149,6.5628692 L212.337149,4.12151899 C212.337149,2.45827749 214.317113,0.50454207 215.963252,0.50454207 L223.90226,0.50454207 C225.771679,0.50454207 227.484583,2.23549268 227.484583,3.85559692 L227.484583,4.49992554 L223.881465,5.09947878 L223.881465,3.7452966 L215.985142,3.7452966 L215.985142,6.63003227 L224.303397,6.63003227 C225.949536,6.63003227 227.66244,8.3162075 227.66244,9.98163316 L227.66244,12.4235294 C227.66244,14.0862249 225.682477,16.0399603 224.035243,16.0399603 Z"></path>
                            </g>
                            <g>
                                <path d="M44.7817655,0.0174733184 L40.3648814,0.0174733184 L29.2616522,21.4397617 L34.5683708,21.4397617 L36.4388837,17.6753537 L48.2168766,17.6753537 L50.0873896,21.4397617 L55.7000229,21.4397617 L44.7817655,0.0174733184 Z M38.5545663,13.3916605 L42.3273329,5.80168776 L46.1017413,13.3916605 L38.5545663,13.3916605 Z"></path>
                                <polygon points="83.4047385 0.0174733184 76.8716245 0.0174733184 66.6883288 9.25976669 66.6883288 0.0174733184 61.536483 0.0174733184 61.536483 21.4397617 66.6883288 21.4397617 66.6883288 11.4330107 77.761459 21.4397617 85.3069922 21.4397617 72.4251887 9.93248945"></polygon>
                                <path d="M18.4254829,0.0174733184 L5.08398633,0.0174733184 C2.81397823,0.0174733184 0.0848243145,2.71109456 0.0848243145,5.00555969 L0.0848243145,16.4516754 C0.0848243145,18.7461405 2.81397823,21.4392157 5.08398633,21.4392157 L18.4254829,21.4392157 C20.6960382,21.4392157 23.4257394,18.7461405 23.4257394,16.4516754 L23.4257394,13.2993795 L18.149667,13.2993795 L18.149667,16.91035 L5.35980217,16.91035 L5.35980217,4.545793 L18.149667,4.545793 L18.149667,8.15730951 L23.4257394,8.15730951 L23.4257394,5.00501365 C23.4262866,2.71109456 20.6960382,0.0174733184 18.4254829,0.0174733184 Z"></path>
                                <polygon points="96.295298 12.8101266 105.189264 12.8101266 105.189264 8.40302805 96.295298 8.40302805 96.295298 4.42457185 110.803539 4.42457185 110.803539 0.0174733184 91.1418105 0.0174733184 91.1418105 21.4397617 111.016968 21.4397617 111.016968 17.0332092 96.295298 17.0332092"></polygon>
                                <polygon points="195.870287 0.016381236 190.10497 0.016381236 184.61328 6.87138248 178.939901 0.016381236 172.620216 0.016381236 181.485178 10.3911641 172.314849 21.4392157 178.080713 21.4392157 184.430497 13.5429139 190.963064 21.4392157 197.28056 21.4392157 187.526858 10.0548027"></polygon>
                                <polygon points="217.909833 10.0548027 226.253809 0.016381236 220.486303 0.016381236 214.996802 6.87138248 209.322876 0.016381236 203.004286 0.016381236 211.868153 10.3911641 202.698371 21.4392157 208.464782 21.4392157 214.812377 13.5429139 221.344944 21.4392157 227.664629 21.4392157"></polygon>
                                <path d="M133.906399,10.3605858 C136.17586,10.0542566 137.98508,8.06502854 137.98508,5.73889303 L137.98508,4.54524696 C137.98508,2.25078183 135.716167,0.016381236 133.448348,0.016381236 L116.853428,0.016381236 L116.853428,21.4386696 L133.448348,21.4386696 C135.716714,21.4386696 138.138859,19.204269 138.138859,16.9092579 L138.138859,15.0734674 C138.138859,12.6555969 136.114568,10.5751799 133.906399,10.3605858 Z M121.730006,4.1176967 L131.820268,4.1176967 C132.678909,4.1176967 133.17089,4.82154381 133.17089,5.67882849 L133.17089,6.96366344 C133.17089,7.82094813 132.679456,8.3719037 131.820268,8.3719037 L121.730006,8.3719037 L121.730006,4.1176967 Z M133.231635,15.6855795 C133.231635,16.5428642 132.740749,17.2461653 131.882108,17.2461653 L121.729458,17.2461653 L121.729458,12.4420948 L131.882108,12.4420948 C132.740202,12.4420948 133.231635,12.9925043 133.231635,13.8486969 L133.231635,15.6855795 Z"></path>
                                <path d="M161.897876,0.016381236 L148.555832,0.016381236 C146.286371,0.016381236 143.55667,2.71000248 143.55667,5.00446761 L143.55667,16.4505833 C143.55667,18.7450484 146.285824,21.4386696 148.555832,21.4386696 L161.897876,21.4386696 C164.167336,21.4386696 166.897038,18.7450484 166.897038,16.4505833 L166.897038,5.00446761 C166.897038,2.71000248 164.167336,0.016381236 161.897876,0.016381236 Z M161.621513,16.9098039 L148.832742,16.9098039 L148.832742,4.545793 L161.621513,4.545793 L161.621513,16.9098039 Z"></path>
                            </g>
                        </g>
                    </g>
                </g>
            </g>
        </g>
    </g>
</svg>