<?xml version="1.0" encoding="UTF-8"?>
<svg width="138px" height="89px" viewBox="0 0 138 89" version="1.1" xmlns="http://www.w3.org/2000/svg" xmlns:xlink="http://www.w3.org/1999/xlink">
    <!-- Generator: Sketch 42 (36781) - http://www.bohemiancoding.com/sketch -->
    <title>Holiday Extras</title>
    <desc>Created with Sketch.</desc>
    <defs></defs>
    <g id="Design-(v2)" stroke="none" stroke-width="1" fill="none" fill-rule="evenodd">
        <g id="Company" transform="translate(-1315.000000, -3762.000000)" fill="#B6BABF">
            <g id="Section" transform="translate(0.000000, 3439.000000)">
                <g id="Logos" transform="translate(395.000000, 312.000000)">
                    <g id="Holiday-Extras" transform="translate(919.000000, 11.000000)">
                        <path d="M54.71328,26.0557367 C54.37048,25.8257864 54.02768,25.71061 53.57048,25.5954335 C52.88448,25.480257 52.08448,25.480257 51.28448,25.5954335 C50.48448,25.71061 49.68448,26.0557367 48.88448,26.4008633 C48.08448,26.8611665 47.17048,27.4366462 46.37048,28.3568498 C45.45608,29.3926326 44.88448,30.3128362 44.77048,31.1182661 C44.65608,31.6937457 44.77048,32.1540489 44.99888,32.614352 C45.34168,33.0746552 45.91328,33.3046054 46.71328,33.5345557 C48.08448,33.8800851 49.91328,33.5345557 52.19888,32.614352 C54.71328,31.5785692 56.08448,30.4280127 56.31328,29.0475059 C56.54168,28.242076 56.31328,27.4366462 55.62768,26.74599 C55.39888,26.5160398 55.05608,26.2856869 54.71328,26.0557367" id="Fill-11"></path>
                        <path d="M77.57052,40.4384588 C78.14172,40.5536353 78.71292,40.3232824 79.62772,39.8629792 C80.08452,39.633029 80.65612,39.1727258 81.34172,38.5976489 C81.79892,38.2521195 82.25612,37.792219 82.71292,37.3319158 C83.17052,36.7564362 83.51292,36.1813593 83.62772,35.6058796 C83.62772,35.0304 83.51292,34.5704995 83.28452,34.1101964 C83.05612,33.7650697 82.71292,33.5347167 82.37052,33.4195403 C81.34172,33.18959 80.19892,33.6498932 78.94172,34.8004498 C77.57052,35.9510063 76.77052,37.1015629 76.54172,38.2521195 C76.42772,38.5976489 76.42772,38.9427756 76.42772,39.1727258 C76.42772,39.4030787 76.65612,39.7482054 76.77052,39.9781557 C76.99892,40.2085086 77.22772,40.4384588 77.57052,40.4384588" id="Fill-13"></path>
                        <path d="M37.11328,49.0683176 L37.22768,48.723191 C37.45608,48.2628878 37.34168,47.6870054 36.88448,47.1123312 C36.42768,46.5368516 36.08448,46.1913222 35.74168,45.9613719 C35.39888,45.7314217 34.94168,45.6162452 34.59888,45.5014715 C33.79888,45.2707158 32.99888,45.5014715 32.08448,45.9613719 C31.62768,46.1913222 30.82768,46.7668018 29.91328,47.5722317 C30.94168,48.1477113 32.08448,48.4924353 33.45608,48.723191 C34.71328,48.9531412 35.85608,49.0683176 37.11328,49.0683176" id="Fill-15"></path>
                        <path d="M96.99904,58.2729312 L96.65624,58.1577548 L96.19904,58.3881077 C95.85624,58.6180579 95.39904,58.5028814 95.05624,58.8484109 C94.71304,58.9631846 94.48464,59.4234878 94.14144,59.7686145 C92.99904,61.0343475 92.08464,61.9553566 91.62744,62.7607864 C90.48464,64.0261167 89.91304,65.177076 89.68464,66.0972796 L89.57064,66.4424063 C89.22744,68.0532661 93.22744,65.9825059 94.14144,64.256067 C95.85624,63.4506371 96.54144,61.3794742 96.77064,59.539067 C97.11304,59.1935376 97.34144,58.3881077 96.99904,58.2729312" id="Fill-17"></path>
                        <path d="M96.08456,39.2879425 C97.79896,38.3673362 98.48456,36.1813995 98.71296,34.3401869 C99.05616,33.76511 99.39896,32.8445036 98.94176,32.8445036 L98.59896,32.7293271 L98.14176,33.0744538 C97.79896,33.3048068 97.34176,33.1896303 96.99896,33.534757 C96.65616,33.6499335 96.42736,34.1102367 96.08456,34.5705398 C94.94176,35.8358701 93.91296,36.8716529 93.45616,37.6770828 C92.31296,39.0575896 91.62736,40.2085489 91.51296,41.1287525 L91.39896,41.5890557 C91.05616,43.3150919 95.05616,41.1287525 96.08456,39.2879425" id="Fill-22"></path>
                        <g id="Group-21">
                            <path d="M118.28456,34.6655403 C118.17056,35.2410199 118.05616,35.8160968 117.71296,36.5063502 C117.25616,37.7720833 116.34176,39.382943 115.08456,41.2241557 C113.59896,43.5252688 112.68456,45.020952 112.22736,45.8263819 C111.42736,47.3224679 110.51296,48.8181511 109.48456,50.4290109 C109.03896,51.064495 108.86056,51.2964588 108.79696,51.3669339 C108.77296,51.4249249 108.71136,51.5497665 108.57056,51.8099204 C107.88456,53.0752507 107.42736,53.8806805 107.19896,54.1110335 C106.62736,54.9164633 105.82736,55.1464136 105.02736,55.0316398 C104.91296,55.0316398 104.68456,54.9164633 104.45616,54.8012869 C103.99896,54.5713367 103.65616,54.3409837 103.54176,53.995857 C103.42736,53.6507303 103.31296,53.3056036 103.42736,52.8453005 C103.54176,52.5001738 103.54176,52.2698208 103.77056,51.9246941 C103.88456,51.9246941 105.25616,49.623581 105.82736,48.7029747 C105.94176,48.4730244 107.08456,46.517038 107.19896,46.1719113 C107.31296,45.8263819 107.42736,45.4812552 107.42736,45.1361285 C107.77056,43.6404452 107.65616,41.914409 106.97056,39.8432462 C106.39896,38.11721 105.71296,36.3915765 105.02736,34.5503638 C104.34176,32.4792009 104.22736,30.638391 104.57056,29.0275312 C105.82736,29.6030109 106.85616,30.638391 107.65616,32.0193005 C107.99896,32.8247303 108.57056,34.3204136 109.14176,36.3915765 C109.71296,38.3475629 110.17056,39.7280697 110.62736,40.648676 C111.54176,39.2681692 112.45616,37.7720833 113.37056,36.3915765 C114.51296,34.6655403 115.19896,33.0546805 115.65616,31.7889475 C115.77056,30.9835176 115.99896,30.4084407 116.11296,30.1780878 C116.34176,29.9481376 116.57056,29.8329611 116.68456,29.8329611 C116.91296,29.8329611 117.25616,30.0629113 117.59896,30.5232145 C118.05616,31.0986941 118.28456,31.7889475 118.39896,32.4792009 C118.51296,33.169857 118.51296,33.8601104 118.28456,34.6655403 L118.28456,34.6655403 Z M118.05616,73.2109973 C117.48456,74.3619566 116.34176,75.1673864 114.97056,75.6272869 C113.48456,75.9728163 111.08456,76.08759 107.65616,75.7424633 C106.51296,75.6272869 105.59896,75.5125131 104.91296,75.3973367 C104.22736,75.2821602 103.54176,75.1673864 102.97056,75.05221 C101.71296,74.821857 100.68456,74.4767303 99.77056,74.1316036 C98.85616,73.7864769 98.28456,73.3261738 98.05616,72.7510968 C97.97416,72.5859837 97.93016,72.3846262 97.90176,72.1703819 C97.71016,72.9391647 97.47376,73.8903774 97.02736,73.4413502 C96.57056,74.3619566 95.42736,72.4055674 95.19896,71.6001376 C94.97056,71.3701873 95.42736,67.9185176 94.39896,68.9538977 C94.39896,68.9538977 94.39896,69.0690742 94.28456,69.0690742 C93.94176,69.4142009 93.48456,69.4142009 93.25616,69.5293774 C93.02736,69.6441511 92.34176,70.3348072 90.62736,70.9098842 C89.94176,71.2550109 89.37056,71.4853638 88.91296,71.4853638 C88.68456,71.6001376 88.45616,71.6001376 88.22736,71.4853638 C87.42736,71.3701873 86.62736,71.1402371 86.28456,70.449581 C85.48456,69.9892778 85.37056,69.0690742 85.37056,68.3784181 C85.02736,67.6881647 85.25616,66.8827348 85.59896,66.1924814 C85.71296,64.8115719 86.28456,63.4310652 87.31296,62.3952824 C87.54176,61.9349792 89.02736,59.864219 92.34176,56.9876262 C93.14176,56.1821964 93.71296,55.26159 94.39896,55.1464136 C95.19896,54.4561602 96.22736,54.1110335 96.79896,54.5713367 C97.37056,54.4561602 98.28456,54.9164633 98.51296,55.7218932 C99.19896,56.1821964 99.65616,57.5627032 99.54176,59.1735629 C99.99896,60.5544724 99.65616,61.8202054 99.42736,62.8555855 C99.42736,63.6610154 99.08456,64.4664452 98.97056,65.2718751 C98.51296,67.8033412 98.51296,69.183848 98.39896,69.4142009 C98.43176,69.5458887 98.45256,69.673952 98.46776,69.8000018 C99.15576,69.9614905 100.68336,70.4072959 102.97056,71.1402371 C104.22736,71.4853638 105.25616,71.8304905 105.94216,71.945667 C107.31296,72.2907937 108.57056,72.2907937 109.59896,72.2907937 C110.85616,72.1756172 111.99896,71.715314 113.02736,71.0250606 L112.79896,70.6799339 L112.11296,70.5647575 C111.88456,70.449581 111.54176,70.2196308 111.08456,69.9892778 C110.62736,69.7593276 110.17056,69.5293774 109.82736,69.4142009 C108.57056,68.8387213 107.54176,68.3784181 106.97056,67.8033412 C105.94216,66.9979113 105.37056,66.077305 105.14176,65.0419249 C105.02736,64.3512688 105.02736,63.7761919 105.14176,63.0859385 C105.48456,61.5898525 106.51296,60.3241195 108.22736,59.6338661 C110.05616,58.8284362 111.77056,58.598486 113.37056,58.9436127 C114.39896,59.1735629 115.19896,59.6338661 115.88456,60.2093457 C116.45616,60.8995991 116.79896,61.705029 116.91296,62.740409 C115.08456,62.6256353 113.71296,62.5104588 112.79896,62.3952824 C111.19896,62.3952824 109.94176,62.740409 108.91296,63.5458389 C112.79896,65.3870516 114.85616,66.4224317 115.08456,66.5376081 C117.59896,68.1484679 118.62736,69.8745041 118.28456,71.715314 C118.39896,72.2907937 118.28456,72.7510968 118.05616,73.2109973 L118.05616,73.2109973 Z M76.91296,64.236495 C76.22736,65.1566986 75.77056,65.7321783 75.42736,66.077305 C74.85616,66.6527846 74.28456,66.8827348 73.82736,66.8827348 C73.37056,66.7675584 73.02736,66.4224317 72.79896,65.6170018 C72.45616,64.8115719 72.34176,64.0061421 72.45616,63.2007122 C72.45616,62.2805086 72.68456,61.3599023 72.91296,60.2093457 L73.02736,59.4039158 C73.25616,58.2533593 73.37056,56.7572733 73.37056,55.1464136 C73.34736,54.8012869 73.30936,54.4617982 73.26856,54.1255312 C72.98296,54.4924045 72.77456,54.6861104 72.57056,54.6861104 L71.54176,54.6861104 C70.97056,54.6861104 70.17056,54.5713367 69.14176,54.3409837 C68.11296,54.1110335 67.19896,54.22621 66.51296,54.4561602 C66.17056,54.5713367 65.94176,54.8012869 65.71296,55.0316398 C65.48456,55.26159 65.37056,55.6067167 65.25616,56.0670199 C65.14176,56.4121466 65.14176,56.6424995 65.14176,56.9876262 C65.14176,57.3327529 65.14176,57.5627032 65.02736,57.7930561 C64.91296,58.4833095 64.68456,59.2887394 64.34216,60.2093457 C63.54216,62.3952824 63.08456,63.6610154 63.08456,64.0061421 C62.97056,64.8115719 62.85616,65.5022281 62.97056,66.077305 L62.28456,65.9621285 C61.59896,65.8473548 61.14216,65.6170018 60.91296,65.3870516 C60.57056,65.0419249 60.45616,64.5816217 60.34216,63.6610154 C60.22736,62.740409 60.34216,61.8202054 60.57056,60.7844226 C60.68456,60.2093457 60.91296,59.2887394 61.37056,58.0230063 C61.71296,56.7572733 62.05616,55.9518434 62.17056,55.26159 C62.39896,54.1110335 62.28456,53.3056036 61.71296,52.9604769 C61.59896,52.9604769 60.79896,52.6153502 59.31296,52.0398706 C58.39896,51.8099204 57.82736,51.3496172 57.59896,50.7741376 C57.25616,50.1990606 57.25616,49.5084045 57.37016,48.7029747 C57.37016,48.5882009 57.48456,48.357848 57.48456,48.2426715 C57.48456,48.1278977 57.59896,47.782771 57.82736,47.3224679 C58.39896,47.5524181 58.97056,47.782771 59.65616,48.0127213 C60.34216,48.2426715 60.91296,48.4730244 61.48456,48.5882009 C62.39896,48.8181511 63.08456,48.8181511 63.54216,48.7029747 C64.11296,48.4730244 64.57056,48.1278977 64.79896,47.5524181 C65.02736,46.9773412 65.14216,46.4018615 65.25616,45.8263819 C65.82736,43.0649656 68.45616,45.1361285 67.99896,47.3224679 C67.99896,47.5524181 67.88456,47.6675946 67.88456,47.8975448 C67.88456,48.0127213 67.77056,48.2426715 67.77056,48.357848 C67.65616,48.7029747 67.65616,49.0481014 67.77056,49.1632778 C67.88456,49.3936308 68.11296,49.5084045 68.57056,49.623581 C69.02736,49.7387575 69.25616,49.8535312 69.37056,49.8535312 C69.48456,49.8535312 69.71296,49.9687077 69.82736,49.9687077 C70.05616,49.9687077 70.28456,50.0838842 70.74216,50.0838842 C71.19896,50.0838842 71.42736,50.1990606 71.65616,50.1990606 C72.20176,50.2900742 72.67136,50.5256624 73.07256,50.7346715 C73.09136,50.5937213 73.10976,50.452771 73.14176,50.3138344 C73.37056,49.3936308 73.71296,49.5084045 73.82736,49.3936308 C74.17056,49.1632778 74.74176,49.7387575 74.97056,49.623581 C75.08456,49.8535312 75.42736,50.1990606 76.11296,50.7741376 C76.57056,51.2344407 76.79896,51.6947439 76.91296,52.2698208 C76.91296,52.6153502 76.91296,53.4207801 76.79896,54.4561602 C76.68456,55.4915403 76.79896,56.4121466 76.91296,56.9876262 C77.14176,56.7572733 77.94176,56.0670199 79.08456,55.0316398 C80.68456,53.5355538 82.17056,52.730124 83.42736,52.6153502 C84.22736,52.5001738 85.14176,52.6153502 86.17056,52.730124 C86.74176,52.8453005 87.19896,52.9604769 87.54176,53.0752507 C87.88456,53.1904271 88.34176,53.4207801 88.91296,53.6507303 C89.37016,53.8806805 89.82736,54.3409837 90.17056,54.9164633 C90.62736,55.4915403 90.74176,56.0670199 90.62736,56.6424995 C90.62736,56.9876262 90.39896,57.2175765 89.94176,57.4479294 L89.59896,57.4479294 C89.48456,57.4479294 89.25616,57.2175765 88.91296,56.9876262 C88.79896,56.8724498 88.68456,56.7572733 88.57056,56.7572733 C88.45616,56.7572733 88.34176,56.7572733 88.11296,56.6424995 C87.88456,56.5273231 87.77056,56.5273231 87.65616,56.5273231 C86.62736,56.2969701 85.94176,56.4121466 85.25616,56.6424995 C84.57056,56.8724498 83.88456,57.4479294 83.08456,58.2533593 C81.02736,60.3241195 78.97056,62.2805086 76.91296,64.236495 L76.91296,64.236495 Z M51.31336,36.2764 C49.37016,36.8518796 47.54176,37.1970063 45.82736,37.1970063 C45.14176,37.1970063 44.57016,37.0818299 44.11336,36.9666534 C43.08456,36.7367032 42.39896,36.3915765 41.94176,35.9312733 C41.25616,35.3557937 41.02736,34.5503638 41.02736,33.7449339 C41.02736,32.8247303 41.02736,32.0193005 41.25616,31.3286443 C41.71296,29.3726579 42.51296,27.531848 43.88456,25.8058118 C45.25616,24.0797756 46.85616,22.929219 48.68456,22.1237891 C48.68456,22.1237891 49.14176,21.8938389 50.05616,21.3183593 C50.62736,20.9732326 51.08456,20.7432824 51.42736,20.7432824 L51.99896,20.7432824 C52.22736,20.8580561 52.68456,20.9732326 53.14176,21.2031828 C53.59896,21.4335357 54.05616,21.5487122 54.39896,21.7786624 C55.31296,22.2389656 56.34176,22.8140425 57.25616,23.5046986 C58.39896,24.4249023 59.19896,25.3455086 59.42736,26.2661149 C59.54176,26.7264181 59.65616,27.1867213 59.65616,27.6466217 C59.65616,28.2221014 59.65616,28.6824045 59.54176,29.2574814 C59.19896,30.2932643 58.85616,31.2138706 58.28456,32.1340742 C57.71296,32.9395041 57.02736,33.6301602 56.34176,33.9752869 C54.51336,35.010667 52.79896,35.7009204 51.31336,36.2764 L51.31336,36.2764 Z M56.11336,48.0127213 C55.99896,48.7029747 55.77016,49.2784543 55.42736,49.9687077 C55.31336,50.0838842 55.19896,50.5441873 54.85616,51.0044905 C54.51336,51.5795674 53.94176,52.1550471 53.02736,52.8453005 C52.22736,53.4207801 51.88456,53.8806805 51.77016,54.3409837 C51.65616,54.8012869 51.77016,55.26159 52.11336,55.7218932 C52.91336,57.2175765 53.82736,58.598486 54.74176,59.9789928 C54.97016,60.5544724 55.08456,61.0147756 55.08456,61.4750787 L55.08456,62.740409 C55.31336,63.0859385 55.19896,63.3158887 55.08456,63.5458389 C55.08456,63.7761919 54.97016,64.0061421 54.85616,64.3512688 L54.85616,64.5816217 C53.59896,64.0061421 52.68456,63.2007122 51.99896,62.1653321 C50.17016,59.4039158 49.02736,57.7930561 48.45616,57.5627032 C47.54176,58.4833095 46.28456,59.5186896 44.57016,60.7844226 C43.08456,61.8202054 42.28456,62.5104588 42.17016,62.6256353 C42.05616,62.3952824 41.71336,61.8202054 41.14176,61.0147756 C40.68456,60.4392959 40.57016,59.864219 40.68456,59.4039158 C40.79896,59.0587891 41.02736,58.598486 41.37016,58.0230063 C41.71336,57.5627032 42.17016,57.1024 42.85616,56.6424995 C44.34176,55.4915403 45.37016,54.8012869 45.59896,54.3409837 C45.94176,53.8806805 46.17016,53.4207801 46.28456,52.9604769 C46.39896,52.5001738 46.39896,51.9246941 46.28456,51.3496172 C46.28456,51.2344407 46.17016,50.7741376 46.05616,50.1990606 C45.94176,49.623581 45.59896,48.7029747 45.02736,47.5524181 C44.57016,46.6318118 44.45616,45.8263819 44.57016,45.251305 C44.57016,45.020952 44.68456,44.7910018 44.68456,44.6758253 C44.79896,44.5610516 44.91336,44.3306986 45.14176,43.9855719 C45.37016,43.6404452 45.71336,43.5252688 46.05616,43.6404452 C46.28456,43.755219 46.62736,43.9855719 46.85616,44.4458751 C47.08456,44.9061783 47.42736,45.5964317 47.65616,46.4018615 C47.88456,47.0921149 48.11336,47.782771 48.45616,48.357848 C48.79896,49.0481014 49.25616,49.623581 49.82736,50.1990606 C50.62736,49.1632778 51.31336,48.2426715 51.77016,47.6675946 C52.68456,46.517038 53.48456,45.8263819 54.17016,45.7116081 C54.51336,45.5964317 54.97016,45.5964317 55.19896,45.7116081 C55.65616,45.8263819 55.88456,46.0567348 56.11336,46.517038 C56.22736,46.9773412 56.22736,47.4372416 56.11336,48.0127213 L56.11336,48.0127213 Z M37.02736,59.6338661 C35.54176,59.9789928 34.05616,59.9789928 32.57016,59.6338661 C30.74176,59.2887394 29.25616,58.598486 27.99896,57.4479294 C26.62736,56.2969701 25.94176,54.8012869 25.71336,53.0752507 C25.59896,52.1550471 25.59896,51.1192643 25.82736,50.0838842 C26.39896,47.5524181 27.77016,45.4812552 29.94176,43.8703955 C32.22736,42.2595357 34.39896,41.5692824 36.45616,42.0295855 C37.48456,42.2595357 38.39896,42.7198389 39.08456,43.4100923 C39.77016,44.1007484 40.34176,45.1361285 40.79896,46.4018615 C41.14176,47.6675946 41.25616,48.7029747 41.14176,49.5084045 C40.79896,51.3496172 38.97016,52.1550471 35.54176,51.9246941 C33.14176,51.8099204 30.85616,51.464391 28.45616,51.2344407 L28.34176,52.0398706 C28.22736,52.5001738 28.57016,53.0752507 29.02736,53.7659068 C29.59896,54.3409837 30.05616,54.8012869 30.51336,55.0316398 C30.74176,55.1464136 30.97016,55.1464136 31.31336,55.26159 C31.65616,55.3767665 31.88456,55.3767665 31.88456,55.3767665 C32.68456,55.6067167 33.71336,55.4915403 34.97016,55.3767665 C35.54176,55.26159 36.22736,55.1464136 36.79896,55.0316398 C37.02736,54.9164633 37.59896,54.8012869 38.28456,54.5713367 C39.08456,54.3409837 39.65616,54.22621 39.99896,54.22621 C40.45616,54.3409837 40.79896,54.5713367 41.02736,55.0316398 C41.37016,55.4915403 41.37016,55.9518434 41.37016,56.4121466 C41.37016,56.8724498 41.37016,57.1024 41.25616,57.2175765 C41.14176,57.3327529 40.91336,57.5627032 40.57016,57.9078299 C39.65616,58.8284362 38.51336,59.4039158 37.02736,59.6338661 L37.02736,59.6338661 Z M26.85616,30.2932643 C27.19896,27.6466217 27.54176,24.5400787 28.22736,21.3183593 C28.79896,18.0966398 28.68456,18.3269928 29.37016,14.9900968 C29.48456,14.4146172 29.59896,13.4944136 29.82736,12.1135041 C29.94176,10.7325946 30.05616,9.92716471 30.17016,9.58203801 C30.51336,8.43148145 30.85616,7.97117828 31.31336,8.08635475 C31.54176,8.08635475 31.77016,8.43148145 31.99896,8.89178462 C32.22736,9.35208778 32.45616,9.92716471 32.57016,10.5026443 C32.79896,11.9983276 32.91336,13.7243638 32.79896,15.7955267 C32.68456,17.8666896 33.02736,17.0612597 32.22736,20.7432824 L31.31336,23.9650018 C32.22736,22.929219 33.02736,22.1237891 33.82736,21.5487122 C34.85616,20.7432824 35.77016,20.3977529 36.57016,20.5129294 C36.91336,20.6281059 37.25616,20.7432824 37.48456,20.9732326 C37.82736,21.2031828 38.05616,21.663486 38.28456,22.1237891 C39.19896,23.9650018 39.65616,26.2661149 39.77016,29.2574814 C39.88456,31.7889475 39.65616,34.3204136 39.08456,36.7367032 L38.51336,36.6215267 C37.82736,36.5063502 37.25616,36.2764 37.02736,35.9312733 C36.68456,35.4709701 36.45616,34.6655403 36.45616,33.3998072 C36.45616,32.1340742 36.57016,30.638391 36.45616,29.1427077 C36.45616,27.301495 35.99896,26.035762 35.31336,25.3455086 C34.17016,26.9563683 33.14176,28.4520516 31.99896,30.0629113 C30.85616,32.3644271 29.59896,36.3915765 27.54176,35.2410199 C27.19896,35.010667 26.74176,35.1258434 26.85616,33.169857 C26.97016,32.0193005 26.74176,31.0986941 26.85616,30.2932643 L26.85616,30.2932643 Z M59.99896,38.5775131 C60.11296,37.3117801 60.34176,36.0464498 60.57056,34.7807167 C60.79896,33.5149837 61.02736,32.1340742 61.37056,30.4084407 C61.59896,29.3726579 61.82736,27.4166715 62.17056,24.4249023 C62.28456,22.929219 62.51296,21.7786624 62.74176,20.8580561 L63.42736,17.29121 C63.65616,16.3706036 63.77056,15.7955267 63.99896,15.4504 C64.22736,15.1052733 64.34176,14.8749204 64.68456,14.9900968 C64.91296,14.9900968 65.37056,15.4504 65.82736,16.2558299 C66.17056,16.8309068 66.28456,17.6363367 66.17056,18.7868932 C66.05616,19.5923231 65.94176,20.3977529 65.71296,21.5487122 C65.25616,23.9650018 65.37056,23.6194724 64.91296,26.1509385 C64.45616,28.6824045 64.11296,31.2138706 63.65616,33.9752869 C63.19896,36.7367032 62.85616,39.0378163 62.39896,40.879029 L62.05616,40.879029 L61.82736,40.879029 L61.48456,40.879029 C61.02736,40.7638525 60.79896,40.648676 60.68456,40.648676 C60.22736,40.4187258 59.99896,40.0735991 59.99896,39.8432462 L59.99896,38.5775131 Z M67.19896,29.2574814 C67.99896,26.3812914 68.34176,24.8852054 68.34176,24.6552552 C68.57056,24.7704317 68.91296,24.7704317 69.25616,24.6552552 C69.59896,24.5400787 69.82736,24.5400787 70.17056,24.5400787 C70.28456,24.4249023 70.39896,24.4249023 70.51296,24.4249023 C70.85616,24.5400787 71.08456,25.2303321 71.19896,26.6112416 C71.42736,27.9921511 71.42736,28.9123548 71.31296,29.4878344 L70.97056,30.9835176 C70.39896,33.5149837 70.05616,35.4709701 69.59896,37.0818299 C69.14176,38.6926896 68.68456,40.3035493 67.99896,41.7992326 C66.85616,41.3389294 66.28456,40.648676 66.05616,39.6132959 C65.94176,39.2681692 65.94176,38.0024362 66.05616,35.8160968 C66.05616,35.2410199 66.17056,34.5503638 66.17056,33.9752869 C66.28456,33.2846308 66.39896,32.7095538 66.51296,32.0193005 C66.74176,30.9835176 66.97056,30.0629113 67.19896,29.2574814 L67.19896,29.2574814 Z M70.28456,17.5215629 C70.39896,17.0612597 70.62736,16.716133 70.97056,16.4857801 C71.19896,16.3706036 71.54176,16.2558299 71.77056,16.3706036 C72.22736,16.4857801 72.68456,16.8309068 73.02736,17.5215629 C73.37056,18.2118163 73.48456,18.9020697 73.37056,19.4775493 C73.37056,19.9378525 73.02736,20.2829792 72.68456,20.5129294 C72.34176,20.6281059 72.11296,20.6281059 71.88456,20.6281059 C71.31296,20.5129294 70.97056,20.1678027 70.62736,19.4775493 C70.28456,18.7868932 70.17056,18.2118163 70.28456,17.5215629 L70.28456,17.5215629 Z M76.11296,31.5589973 C77.02736,30.7535674 77.94176,30.1780878 78.62736,29.9481376 C79.42736,29.6030109 80.11296,29.6030109 80.91296,29.7177846 C81.59896,29.8329611 82.51296,30.2932643 83.65616,30.8683412 C83.99896,30.2932643 84.45616,28.4520516 85.14176,25.5758615 C85.82736,22.6992688 86.74176,20.7432824 87.77056,19.9378525 C88.68456,20.6281059 89.25616,21.3183593 89.37056,22.2389656 C89.59896,22.929219 89.48456,23.8498253 89.25616,25.0003819 C89.25616,25.3455086 89.02736,26.035762 88.79896,26.9563683 C88.57056,27.8769747 88.34176,28.4520516 88.34176,28.5672281 L85.25616,43.1801421 C84.34176,42.8350154 83.42736,42.4898887 82.51296,42.2595357 C82.17056,42.1443593 81.59896,42.3747122 81.02736,42.7198389 C80.22736,43.1801421 79.65616,43.5252688 79.54176,43.5252688 C78.97056,43.6404452 78.28456,43.755219 77.71296,43.8703955 C77.02736,43.8703955 76.45616,43.8703955 75.99896,43.755219 C75.42736,43.6404452 74.85616,43.4100923 74.28456,43.0649656 C73.82736,42.7198389 73.37056,42.1443593 73.02736,41.4541059 C72.22736,39.9584226 71.99896,38.4627394 72.34176,37.0818299 C72.57056,36.0464498 73.02736,35.1258434 73.59896,34.3204136 C74.28456,33.3998072 75.08456,32.4792009 76.11296,31.5589973 L76.11296,31.5589973 Z M94.51296,31.3286443 C95.31296,30.4084407 95.88456,29.6030109 96.57056,29.3726579 C97.37056,28.6824045 98.39896,28.3372778 98.97056,28.797581 C99.54176,28.6824045 100.45616,29.1427077 100.68456,29.9481376 C101.37056,30.4084407 101.82736,31.7889475 101.71296,33.5149837 C102.17056,34.8954905 101.71296,36.2764 101.59896,37.3117801 C101.59896,38.11721 101.25616,39.0378163 101.14176,39.8432462 C100.68456,42.4898887 100.57056,43.8703955 100.57056,44.2155222 C100.45616,45.3664814 100.34176,46.1719113 99.99896,46.7469882 C99.77056,47.4372416 99.54176,49.2784543 98.97056,48.7029747 C98.51296,49.623581 97.37056,47.6675946 97.14176,46.7469882 C96.91296,46.517038 97.48456,42.8350154 96.45616,43.9855719 C96.45616,43.9855719 96.45616,44.1007484 96.34176,44.1007484 C95.99896,44.4458751 95.54176,44.4458751 95.31296,44.5610516 C95.08456,44.6758253 94.39896,45.3664814 92.68456,46.0567348 C91.99896,46.4018615 91.42736,46.7469882 90.97056,46.7469882 C90.74176,46.8621647 90.51296,46.8621647 90.28456,46.7469882 C89.48456,46.7469882 88.68456,46.4018615 88.34176,45.5964317 C87.54176,45.1361285 87.42736,44.2155222 87.42736,43.4100923 C87.19896,42.7198389 87.31296,41.7992326 87.65616,41.1089792 C87.77056,39.7280697 88.34176,38.2323864 89.48456,37.0818299 C89.71296,36.6215267 91.19896,34.43559 94.51296,31.3286443 L94.51296,31.3286443 Z M4.57016,31.904124 C3.08456,31.5589973 2.05616,29.9481376 2.39896,28.4520516 C2.56096,27.7444814 3.00656,27.1420199 3.58656,26.7380968 C4.57016,26.079568 5.78736,26.2568525 5.82736,26.2661149 C7.31336,26.6112416 8.34176,28.1069249 7.99896,29.7177846 C7.65616,31.2138706 6.05616,32.2492507 4.57016,31.904124 Z M29.94176,0.377182805 C27.54176,-0.083120362 24.45616,0.952662443 22.85616,2.67829593 L2.97016,25.0003819 C0.720898438,27.7617982 0.68456,29.9481376 1.37016,32.2492507 L10.62736,61.2447258 C11.31336,63.4310652 13.82736,65.7321783 16.11336,66.1924814 L121.25616,88.5141647 C123.54176,88.9744679 125.82736,87.4787846 126.28456,85.1772688 L138.51296,27.7617982 C138.97056,25.4606851 137.48456,23.1595719 135.19896,22.6992688 L29.94176,0.377182805 Z" id="Fill-19"></path>
                        </g>
                    </g>
                </g>
            </g>
        </g>
    </g>
</svg>