<?xml version="1.0" encoding="UTF-8"?>
<svg width="161px" height="32px" viewBox="0 0 161 32" version="1.1" xmlns="http://www.w3.org/2000/svg" xmlns:xlink="http://www.w3.org/1999/xlink">
    <!-- Generator: Sketch 61 (89581) - https://sketch.com -->
    <title>Laced</title>
    <desc>Created with Sketch.</desc>
    <g id="Symbols" stroke="none" stroke-width="1" fill="none" fill-rule="evenodd">
        <g id="Brands-/-Logos-/-Laced" fill="#8C8CD9" fill-rule="nonzero">
            <path d="M18.8963381,0.929373713 C19.2827174,1.53566965 19.3016524,2.29829422 18.9458146,2.92207991 L3.80481239,30.9478042 C3.4560973,31.5945926 2.7680991,32 2.01817414,32 C1.3114309,32 0.656260852,31.6395384 0.290824363,31.0502133 C-0.0746121271,30.4608883 -0.097099778,29.7283023 0.231535879,29.118757 L15.372538,1.09303264 C15.6979599,0.453677899 16.3533569,0.0362225856 17.0850631,0.00223931335 C17.8167693,-0.031743959 18.5099588,0.323077779 18.8963381,0.929373713 Z M24.5624499,0.226622091 C25.4947994,0.724745681 25.8656505,1.8885373 25.3977722,2.84800025 L10.8545857,30.9451237 C10.519639,31.5935597 9.85880517,32 9.1384897,32 C8.45965094,32 7.83034913,31.6386201 7.47934125,31.0477937 C7.12833337,30.4569673 7.10673361,29.7225149 7.42239367,29.1114167 L21.9655802,1.01429325 C22.4771896,0.0781943621 23.6301004,-0.271501498 24.5624499,0.226622091 Z M160.79999,2.08753903e-10 L160.79999,31.5076904 L153.889352,31.5076904 L153.889352,29.4153829 C152.566459,31.0153828 150.646289,32 147.965949,32 C141.697013,32 137.599992,26.7076907 137.599992,20.1846142 C137.599992,13.6615377 141.697013,8.3692303 147.965949,8.3692303 C150.646289,8.3692303 152.566459,9.3538456 153.889352,10.9538455 L153.889352,10.9538455 L153.889352,2.08753903e-10 L160.79999,2.08753903e-10 Z M30.9557745,14.6221846 C31.8941222,15.1105564 32.2673593,16.2515643 31.7964709,17.1922438 L24.4780964,30.965775 C24.1409948,31.6015166 23.4759096,31.999775 22.75096,31.9999981 C22.067754,31.9997879 21.4344036,31.6456948 21.0811375,31.0664351 C20.7278715,30.4871754 20.7061328,29.7671014 21.0238236,29.1679667 L28.3421982,15.3944355 C28.8570988,14.4766627 30.0174268,14.1338128 30.9557745,14.6221846 Z M24.5075525,15.30937 C24.8796621,15.9026166 24.8978979,16.6488272 24.5552017,17.2591871 L17.264293,30.9704506 C16.9284565,31.6033181 16.2658674,31.999776 15.5436385,31.9999981 C14.8629966,31.9997888 14.2320232,31.6472966 13.8800829,31.0706556 C13.5281426,30.4940146 13.5064855,29.777196 13.8229841,29.1807699 L21.1138928,15.4695064 C21.4272962,14.8439126 22.0584882,14.4354421 22.7631712,14.4021903 C23.4678542,14.3689384 24.1354429,14.7161233 24.5075525,15.30937 Z M100.88321,7.99999952 C105.416181,8.05008976 109.479601,10.8603162 111.199993,15.1349991 L111.199993,15.1349991 L105.067811,17.134999 C104.249535,15.5438985 102.645461,14.5338303 100.88321,14.4999995 C98.1752381,14.4999995 95.9774639,16.959999 95.9774639,19.9999995 C95.9774639,23.0399986 98.1752381,25.4999995 100.88321,25.4999995 C102.645461,25.4661674 104.249535,24.4560991 105.067811,22.8649986 L105.067811,22.8649986 L111.185276,24.8649985 C109.466966,29.1347032 105.410803,31.9439185 100.88321,31.9999995 C94.6529128,31.9999995 89.5999947,26.6249984 89.5999947,19.9999995 C89.5999947,13.3749992 94.6529128,7.99999952 100.88321,7.99999952 Z M74.365953,7.99999952 C77.0462932,7.99999952 78.9664634,8.99999952 80.2893568,10.6249994 L80.2893568,10.6249994 L80.2893568,8.49999952 L87.1999948,8.49999952 L87.1999948,31.4999995 L80.2893568,31.4999995 L80.2893568,29.3749982 C78.9664634,30.9999995 77.0462932,31.9999995 74.365953,31.9999995 C68.0970172,31.9999995 63.9999962,26.6249984 63.9999962,19.9999995 C63.9999962,13.3749992 68.0970172,7.99999952 74.365953,7.99999952 Z M124.399993,7.99999952 C130.80521,7.99999952 135.999992,13.3749992 135.999992,19.9999995 C135.999992,20.6698663 135.94613,21.3386679 135.838601,21.9999995 L135.838601,21.9999995 L119.699471,21.9999995 C120.356185,24.0367584 122.238917,25.440143 124.394949,25.4999995 C125.843254,25.4828996 127.206731,24.8198944 128.106949,23.6949986 L128.106949,23.6949986 L134.567644,25.7449985 C132.623191,29.5493138 128.701739,31.961738 124.399993,31.9999995 C117.994775,31.9999995 112.799993,26.6249984 112.799993,19.9999995 C112.799993,13.3749992 117.994775,7.99999952 124.399993,7.99999952 Z M48.5333305,2.08755679e-10 L48.5333305,24.3749985 L62.3999963,24.3749985 L62.3999963,31.1999981 L41.5999975,31.1999981 L41.5999975,2.08755679e-10 L48.5333305,2.08755679e-10 Z M148.953182,14.7692299 C146.228417,14.7692299 144.017013,17.1913836 144.017013,20.1846142 C144.017013,23.1778448 146.228417,25.5999985 148.953182,25.5999985 C151.677949,25.5999985 153.889352,23.1729217 153.889352,20.1846142 C153.889352,17.1963067 151.677949,14.7692299 148.953182,14.7692299 Z M75.353187,14.4999991 C72.6284212,14.4999991 70.4170171,16.959999 70.4170171,19.9999991 C70.4170171,23.0399986 72.6284212,25.4999991 75.353187,25.4999991 C78.0779528,25.4999991 80.2893568,23.0349986 80.2893568,19.9999991 C80.2893568,16.964999 78.0779528,14.4999991 75.353187,14.4999991 Z M124.394949,14.4999991 C122.435889,14.5443457 120.682474,15.716232 119.906254,17.4999991 L119.906254,17.4999991 L128.883644,17.4999991 C128.10844,15.7153971 126.354409,14.543099 124.394949,14.4999991 Z" id="Laced"></path>
        </g>
    </g>
</svg>