<?xml version="1.0" encoding="UTF-8"?>
<svg width="201px" height="40px" viewBox="0 0 201 40" version="1.1" xmlns="http://www.w3.org/2000/svg" xmlns:xlink="http://www.w3.org/1999/xlink">
    <!-- Generator: Sketch 57.1 (83088) - https://sketch.com -->
    <title>laced</title>
    <desc>Created with Sketch.</desc>
    <g id="Site-Pages" stroke="none" stroke-width="1" fill="none" fill-rule="evenodd">
        <g id="Landing-page-|-Leaf" transform="translate(-497.000000, -2119.000000)" fill="#6F7075" fill-rule="nonzero">
            <g id="Group" transform="translate(240.000000, 2109.000000)">
                <g id="laced" transform="translate(257.000000, 10.000000)">
                    <path d="M2.52271782,40 C1.63928872,40 0.820326114,39.5494254 0.363530475,38.812769 C-0.0932651647,38.0761127 -0.12137473,37.1603801 0.289419866,36.3984484 L19.2156737,1.36629088 C19.622451,0.567097407 20.4416973,0.0452782345 21.3563302,0.00279914159 C22.270963,-0.0396799514 23.1374499,0.403847248 23.620424,1.16171721 C24.1033982,1.91958718 24.127067,2.87286795 23.6822696,3.6526001 L4.75601577,38.6847576 C4.32012188,39.4932431 3.46012408,40 2.52271782,40 Z" id="Path"></path>
                    <path d="M11.4231128,40 C10.5745643,40 9.78793699,39.5482775 9.34917712,38.8097444 C8.91041724,38.0712114 8.88341754,37.1531458 9.27799264,36.389273 L27.4569769,1.26786664 C28.0964887,0.0977429583 29.5376272,-0.339376893 30.7030642,0.283277631 C31.8685011,0.905932155 32.3320651,2.36067176 31.7472172,3.56000053 L13.5682329,38.6814069 C13.1495495,39.491952 12.3235072,40 11.4231128,40 Z" id="Path"></path>
                    <path d="M28.4387017,40 C27.5846941,39.9997372 26.7930061,39.5571209 26.3514235,38.8330462 C25.9098409,38.1089715 25.8826675,37.208879 26.2797811,36.4599606 L35.4277498,19.2430455 C36.0713757,18.0958294 37.5217857,17.6672671 38.6947204,18.2777319 C39.8676551,18.8881966 40.3342015,20.3144566 39.745591,21.490306 L30.5976223,38.7072211 C30.1762453,39.5018981 29.3448887,39.9997211 28.4387017,40 Z" id="Path"></path>
                    <path d="M19.4295493,40 C18.5787468,39.9997384 17.79003,39.5591231 17.3501046,38.8383218 C16.9101793,38.1175205 16.8831079,37.2214972 17.2787311,36.4759645 L26.3923676,19.3368842 C26.7841218,18.5548918 27.5731119,18.0443037 28.4539657,18.0027389 C29.3348195,17.9611741 30.1693054,18.3951552 30.6344425,19.1367136 C31.0995795,19.8782719 31.1223742,20.8110352 30.694004,21.5739852 L21.5803675,38.7130655 C21.1605719,39.50415 20.3323354,39.9997224 19.4295493,40 Z" id="Path"></path>
                    <polygon id="Path" points="60.6666667 30.46875 60.6666667 0 52 0 52 39 78 39 78 30.46875"></polygon>
                    <path d="M131.334772,28.58125 C130.311926,30.5701257 128.306834,31.8327111 126.10402,31.875 C122.719055,31.875 119.971837,28.8 119.971837,25 C119.971837,21.2 122.719055,18.125 126.10402,18.125 C128.306834,18.1672889 130.311926,19.4298743 131.334772,21.41875 L139,18.91875 C136.849509,13.5753961 131.770234,10.0626128 126.10402,10 C118.316148,10 112,16.71875 112,25 C112,33.28125 118.316148,40 126.10402,40 C131.763512,39.9299005 136.833716,36.4183812 138.981603,31.08125 L131.334772,28.58125 Z" id="Path"></path>
                    <path d="M192.361702,0 L192.361702,13.6923077 C190.708085,11.6923077 188.307872,10.4615385 184.957447,10.4615385 C177.121277,10.4615385 172,17.0769231 172,25.2307692 C172,33.3846154 177.121277,40 184.957447,40 C188.307872,40 190.708085,38.7692308 192.361702,36.7692308 L192.361702,39.3846154 L201,39.3846154 L201,0 L192.361702,0 Z M186.191489,32 C182.785532,32 180.021277,28.9723077 180.021277,25.2307692 C180.021277,21.4892308 182.785532,18.4615385 186.191489,18.4615385 C189.597447,18.4615385 192.361702,21.4953846 192.361702,25.2307692 C192.361702,28.9661538 189.597447,32 186.191489,32 Z" id="Shape"></path>
                    <path d="M100.361702,10.625 L100.361702,13.28125 C98.7080851,11.25 96.3078723,10 92.9574468,10 C85.1212766,10 80,16.71875 80,25 C80,33.28125 85.1212766,40 92.9574468,40 C96.3078723,40 98.7080851,38.75 100.361702,36.71875 L100.361702,39.375 L109,39.375 L109,10.625 L100.361702,10.625 Z M94.1914894,31.875 C90.7855319,31.875 88.0212766,28.8 88.0212766,25 C88.0212766,21.2 90.7855319,18.125 94.1914894,18.125 C97.5974468,18.125 100.361702,21.20625 100.361702,25 C100.361702,28.79375 97.5974468,31.875 94.1914894,31.875 Z" id="Shape"></path>
                    <path d="M160.133696,29.61875 C159.008423,31.0248699 157.304077,31.8536264 155.493696,31.875 C152.798655,31.8001806 150.44524,30.0459498 149.624348,27.5 L169.798261,27.5 C169.932673,26.6733365 170,25.8373344 170,25 C170,16.71875 163.506522,10 155.5,10 C147.493478,10 141,16.71875 141,25 C141,33.28125 147.493478,40 155.5,40 C160.877183,39.9521749 165.778999,36.9366445 168.209565,32.18125 L160.133696,29.61875 Z M155.493696,18.125 C157.943021,18.1788748 160.135559,19.6442475 161.104565,21.875 L149.882826,21.875 C150.853102,19.6452912 153.04487,18.1804332 155.493696,18.125 L155.493696,18.125 Z" id="Shape"></path>
                </g>
            </g>
        </g>
    </g>
</svg>