<?xml version="1.0" encoding="UTF-8"?>
<svg width="152px" height="60px" viewBox="0 0 152 60" version="1.1" xmlns="http://www.w3.org/2000/svg" xmlns:xlink="http://www.w3.org/1999/xlink">
    <!-- Generator: Sketch 57.1 (83088) - https://sketch.com -->
    <title>myrift</title>
    <desc>Created with Sketch.</desc>
    <g id="Site-Pages" stroke="none" stroke-width="1" fill="none" fill-rule="evenodd">
        <g id="Landing-page-|-Leaf" transform="translate(-240.000000, -2109.000000)" fill="#6F7075" fill-rule="nonzero">
            <g id="Group" transform="translate(240.000000, 2109.000000)">
                <g id="myrift">
                    <path d="M152,20.747899 L145.051424,20.7521846 L145.066624,40.2743751 L138.609516,40.2786607 L138.594316,20.7571844 L134.296332,20.7571844 L127.836328,14.5631102 L151.669943,14.5445394 L151.998552,14.5445394 L152,20.747899 Z M124.294726,14.5709671 L130.751835,20.7657555 L116.079483,20.7743267 L116.079483,25.3913119 L126.864252,25.3848835 L126.868595,31.5832433 L116.083826,31.5903859 L116.091788,40.2965172 L109.636127,40.3008028 L109.618756,14.5795382 L124.294726,14.5709671 Z M100.492236,14.5866808 L106.948621,14.5866808 L106.965992,40.3058026 L100.508884,40.3122309 L100.494407,16.3237644 L100.492236,14.5866808 Z M92.1604596,31.6225277 L90.9712399,31.6225277 L100.030445,40.315088 L90.9509732,40.3222306 L75.4846021,25.4855944 L91.4359259,25.4855944 L91.4308592,20.7393279 L73.9544678,20.7493275 L73.9696678,40.3279447 L67.7745784,40.3350873 L67.521245,40.3350873 L67.521245,14.6059659 L92.1488787,14.6059659 C95.2353864,14.5658317 97.7720411,16.9993563 97.818482,20.0450659 L97.8228249,26.1755708 L97.8228249,26.1755708 C97.7823085,29.2222144 95.2478616,31.6602455 92.1604596,31.6225277 L92.1604596,31.6225277 Z M50.1527013,40.2843747 L56.982572,21.0764592 L50.31773,21.0764592 L48.2831002,28.570489 C48.0394175,29.5075999 47.816484,30.4313779 47.6142998,31.341823 C47.4121155,32.2522681 47.2017281,33.1765222 46.9831375,34.1145854 L46.8188326,34.1145854 C46.5775626,33.1260478 46.3476324,32.1827466 46.1290417,31.2846821 C45.9104511,30.3866175 45.6530161,29.4818865 45.3567365,28.570489 L42.9167732,21.078602 L35.9254928,21.078602 L43.6499927,39.8943881 L43.4053449,40.7515017 C43.2118598,41.3179994 42.8508449,41.8143147 42.368849,42.176453 C41.7321453,42.5714366 40.9845159,42.7560659 40.2343335,42.7035779 C40.0086506,42.7020856 39.783842,42.6757327 39.5640855,42.6250091 C39.3324663,42.5721538 39.124009,42.520727 38.9343708,42.4693001 L37.714751,47.5405555 C38.1613533,47.6674606 38.615919,47.7652868 39.0755137,47.8334027 C39.6486406,47.9057891 40.2262226,47.9382493 40.8039719,47.9305422 C41.9117586,47.9499265 43.0158247,47.7985868 44.0763167,47.4819861 C44.9958295,47.1911921 45.8462299,46.7198509 46.5763563,46.0963191 C47.3528303,45.4166113 48.0059321,44.6110038 48.5074813,43.7142576 C49.1320675,42.6080834 49.6816785,41.4622784 50.1527013,40.2843747 Z M35.1336447,40.5965069 L35.1336447,15.2230877 L27.6545165,15.2230877 L23.8327999,25.6070188 C23.5881521,26.3093758 23.357498,27.0379223 23.1408376,27.7926584 C22.9241771,28.5473946 22.6940056,29.3021307 22.4503229,30.0568668 L22.2881895,30.0568668 C22.0435417,29.3035592 21.8128876,28.5488231 21.5962271,27.7926584 C21.3795667,27.0364938 21.1493951,26.3079472 20.9057124,25.6070188 L16.9247577,15.2230877 L9.44273419,15.2230877 L9.44273419,40.5986497 L15.7022427,40.5986497 L15.7022427,33.1031914 C15.7022427,32.4527374 15.6682236,31.7370476 15.6001855,30.9561219 C15.5321473,30.1751961 15.4578362,29.3747473 15.377252,28.5547753 C15.2957028,27.7338509 15.2006424,26.9334021 15.0920709,26.1534287 C14.9834994,25.3734553 14.8889216,24.6706222 14.8083374,24.0449293 L14.9711946,24.0449293 L17.0847197,30.1354356 L20.3389693,38.5294347 L24.0788953,38.5294347 L27.3316972,30.1354356 L29.5255652,24.0449293 L29.6876986,24.0449293 C29.607597,24.670146 29.5132604,25.3729792 29.4046889,26.1534287 C29.2961174,26.9338782 29.2010571,27.7343271 29.1195078,28.5547753 C29.0384411,29.3747473 28.9638887,30.1751961 28.8958505,30.9561219 C28.8234695,31.7368095 28.7945171,32.4524993 28.7945171,33.1031914 L28.7945171,40.5986497 L35.1336447,40.5965069 Z M6.62421823,6.53624143 C15.4546997,-1.75918959 48.7354814,-2.58844698 56.5873718,6.53624143 C64.4392622,15.6609299 64.4378145,44.3370935 56.5873718,53.4632104 C48.736929,62.5893274 15.4561473,61.7586415 6.62421823,53.4632104 C-2.20771084,45.1677794 -2.20843465,14.8323867 6.62421823,6.53624143 Z" id="Shape"></path>
                </g>
            </g>
        </g>
    </g>
</svg>