<?xml version="1.0" encoding="UTF-8"?>
<svg width="122px" height="48px" viewBox="0 0 122 48" version="1.1" xmlns="http://www.w3.org/2000/svg" xmlns:xlink="http://www.w3.org/1999/xlink">
    <!-- Generator: Sketch 61 (89581) - https://sketch.com -->
    <title>MyRIFT</title>
    <desc>Created with Sketch.</desc>
    <g id="Symbols" stroke="none" stroke-width="1" fill="none" fill-rule="evenodd">
        <g id="Brands-/-Logos-/-MyRIFT" transform="translate(0.000000, 0.000000)" fill="#8C8CD9" fill-rule="nonzero">
            <path d="M121.599993,16.5983182 L116.041132,16.6017467 L116.053292,32.2194982 L110.887606,32.2229266 L110.875446,16.6057465 L107.437059,16.6057465 L102.269056,11.6504875 L121.335947,11.6356308 L121.598834,11.6356308 L121.599993,16.5983182 Z M99.4357749,11.656773 L104.601462,16.6126034 L92.8635809,16.6194604 L92.8635809,20.3130483 L101.491396,20.3079056 L101.49487,25.2665931 L92.8670553,25.2723072 L92.8734249,32.2372118 L87.7088964,32.2406403 L87.6949996,11.6636299 L99.4357749,11.656773 Z M80.393784,11.6693439 L85.5588917,11.6693439 L85.5727885,32.2446402 L80.4071024,32.2497828 L80.3955208,13.0590107 L80.393784,11.6693439 Z M73.7283633,25.2980207 L72.7769876,25.2980207 L80.0243512,32.2520685 L72.7607742,32.2577826 L60.3876781,20.3884743 L73.1487364,20.3884743 L73.144683,16.5914613 L59.1635707,16.599461 L59.1757307,32.2623538 L54.2196595,32.2680679 L54.0169928,32.2680679 L54.0169928,11.684772 L73.7190986,11.684772 C76.1883046,11.6526647 78.2176282,13.5994842 78.2547809,16.0360518 L78.2582553,20.9404554 L78.2582553,20.9404554 C78.2258421,23.3777701 76.1982847,25.3281949 73.7283633,25.2980207 L73.7283633,25.2980207 Z M40.1221587,32.2274978 L45.5860549,16.8611664 L40.2541816,16.8611664 L38.6264779,22.8563898 C38.4315317,23.6060785 38.2531849,24.3451009 38.0914376,25.0734569 C37.9296901,25.8018129 37.7613802,26.5412162 37.5865078,27.2916667 L37.4550639,27.2916667 C37.2620479,26.5008367 37.0781037,25.7461957 36.9032312,25.0277442 C36.7283587,24.3092926 36.5224107,23.5855078 36.285387,22.8563898 L34.3334165,16.8628806 L28.7403925,16.8628806 L34.9199921,31.9155086 L34.7242739,32.6011994 C34.5694858,33.0543976 34.2806739,33.4514498 33.8950772,33.7411604 C33.3857143,34.0571473 32.7876108,34.2048507 32.1874649,34.1628603 C32.0069186,34.1616664 31.8270717,34.1405841 31.6512665,34.1000052 C31.4659712,34.057721 31.2992053,34.0165796 31.1474948,33.9754381 L30.171799,38.0324421 C30.5290808,38.1339662 30.8927334,38.2122272 31.2604091,38.2667199 C31.7189106,38.324629 32.1809762,38.3505972 32.6431756,38.3444315 C33.5294049,38.3599389 34.4126577,38.2388672 35.2610513,37.9855866 C35.9966615,37.7529514 36.6769817,37.3758785 37.2610828,36.8770531 C37.882262,36.3332869 38.4047434,35.6888009 38.8059827,34.971404 C39.3056517,34.0864647 39.7453404,33.1698207 40.1221587,32.2274978 Z M28.1069141,32.4772036 L28.1069141,12.1784694 L22.1236119,12.1784694 L19.0662388,20.4856138 C18.8705206,21.0474994 18.6859973,21.6303366 18.512669,22.2341254 C18.3393406,22.8379143 18.1552034,23.4417032 17.9602573,24.045492 L17.8305505,24.045492 C17.6348323,23.442846 17.450309,22.8390571 17.2769807,22.2341254 C17.1036523,21.6291938 16.9195151,21.0463565 16.7245689,20.4856138 L13.5398054,12.1784694 L7.5541869,12.1784694 L7.5541869,32.4789178 L12.5617934,32.4789178 L12.5617934,26.4825515 C12.5617934,25.9621884 12.5345781,25.3896366 12.4801477,24.764896 C12.4257171,24.1401554 12.3662682,23.4997964 12.3018009,22.8438189 C12.2365615,22.1870794 12.1605132,21.5467204 12.073656,20.9227417 C11.9867988,20.298763 11.9111366,19.7364966 11.8466692,19.2359423 L11.976955,19.2359423 L13.6677749,24.108347 L16.2711745,30.8235459 L19.2631151,30.8235459 L21.8653565,24.108347 L23.6204508,19.2359423 L23.7501575,19.2359423 C23.6860762,19.7361156 23.6106069,20.2983822 23.5237497,20.9227417 C23.4368925,21.5471013 23.3608443,22.1874604 23.2956049,22.8438189 C23.2307515,23.4997964 23.1711096,24.1401554 23.116679,24.764896 C23.0587742,25.3894461 23.0356123,25.9619979 23.0356123,26.4825515 L23.0356123,32.4789178 L28.1069141,32.4772036 Z M5.29937427,5.22899283 C12.363759,-1.40735159 38.9883828,-2.07075746 45.2698947,5.22899283 C51.5514067,12.5287432 51.5502485,35.4696727 45.2698947,42.7705658 C38.9895409,50.0714589 12.3649171,49.4069103 5.29937427,42.7705658 C-1.76616856,36.1342214 -1.76674761,11.8659087 5.29937427,5.22899283 Z" id="MyRIFT"></path>
        </g>
    </g>
</svg>