<?xml version="1.0" encoding="UTF-8"?>
<svg height="70px" viewBox="0 0 461 297" version="1.1" xmlns="http://www.w3.org/2000/svg" xmlns:xlink="http://www.w3.org/1999/xlink">
    <!-- Generator: Sketch 42 (36781) - http://www.bohemiancoding.com/sketch -->
    <title>holidayextras</title>
    <desc>Created with Sketch.</desc>
    <defs></defs>
    <g id="Page-1" stroke="none" stroke-width="1" fill="none" fill-rule="evenodd">
        <g id="holidayextras" fill-rule="nonzero" fill="#B6BABF">
            <g id="Page-1">
                <g id="HX-2013-logo-2-col-SPOT">
                    <path d="M326.5771,110.3271 C327.8231,110.5831 326.9071,113.4181 326.0351,114.9791 C325.2951,121.0951 323.0301,128.2951 317.3381,131.1701 C313.9951,137.3301 300.7841,144.5551 301.9771,138.8751 L302.2591,137.5431 C302.9091,134.4191 305.0151,130.5651 308.7611,126.1171 C310.3031,123.4201 313.3771,120.1101 317.3051,115.8201 C318.4621,114.4351 319.3061,112.9861 320.2581,112.5981 C321.3891,111.3281 323.1301,111.8081 324.1441,111.0921 L325.5421,110.1081 L326.5771,110.3271 Z M319.9043,193.8994 C321.1453,194.1614 320.2503,196.8814 319.3933,198.3684 C318.7063,204.2514 316.5073,211.1454 310.8483,213.8564 C307.5603,219.7394 294.4293,226.5754 295.5733,221.1284 L295.8483,219.8484 C296.4693,216.8664 298.5423,213.1724 302.2463,208.9324 C303.7603,206.3504 306.8003,203.2024 310.6893,199.1164 C311.8323,197.7904 312.6633,196.4014 313.6083,196.0454 C314.7283,194.8274 316.4643,195.2974 317.4773,194.6224 L318.8633,193.6824 L319.9043,193.8994 Z M122.7837,162.4229 L122.5317,163.6339 C118.7017,163.8309 114.6577,163.4889 110.6127,162.6439 C106.3587,161.7569 102.5217,160.4459 99.0917,158.7199 C102.1327,156.0929 104.5567,154.3349 106.1597,153.4209 C108.9747,151.8719 111.6587,151.4249 114.3607,151.9929 C115.5037,152.2339 116.6937,152.7349 117.9707,153.3759 C119.2437,154.0229 120.4867,155.2919 121.8207,157.1999 C123.1527,159.1119 123.4537,160.8119 122.7837,162.4229 Z M274.6162,114.4331 C275.4752,116.0111 275.7742,117.7021 275.4062,119.4771 C275.0272,121.2591 273.9792,123.1321 272.3802,125.1181 C271.1002,126.5961 269.7062,128.0521 268.0332,129.3271 C265.6922,131.1651 263.7912,132.5021 262.3132,133.3541 C259.5932,134.9961 257.4042,135.5861 255.6462,135.2171 C254.7142,135.0201 253.8472,134.4931 253.1572,133.6491 C252.4692,132.8111 252.0102,131.8971 251.8642,131.0491 C251.7142,130.2051 251.8202,129.1861 252.0772,127.9621 C252.8942,124.0601 255.5432,120.1961 259.9782,116.5911 C264.4162,112.9931 268.2002,111.4641 271.4112,112.1391 C272.8642,112.4421 273.8942,113.2371 274.6162,114.4331 Z M183.3105,90.3032 C185.5815,92.8792 186.3415,95.4762 185.8035,98.0392 C184.8495,102.6012 180.3435,106.5392 172.1845,109.8242 C164.7425,112.8002 158.7775,113.8782 154.1095,112.8982 C151.3045,112.3102 149.4545,111.3402 148.3365,109.9452 C147.3315,108.5662 147.0075,106.9962 147.4055,105.1012 C147.9865,102.3192 149.8045,99.3262 152.8775,96.0192 C155.6765,93.0022 158.4975,90.9152 161.3045,89.4162 C163.8535,88.0882 166.4395,87.1192 169.1365,86.6402 C171.8405,86.1572 174.4415,86.1272 176.8245,86.6232 C178.0765,86.8852 179.2735,87.3652 180.4235,88.0742 C181.4945,88.6472 182.5185,89.4422 183.3105,90.3032 Z M323.799167,240.383739 C323.909036,240.996415 324.085782,241.563854 324.3293,242.0854 C325.0733,243.6924 326.9243,245.1904 329.9013,246.4794 C332.9013,247.6714 336.3603,248.7234 340.4003,249.5714 C342.2703,249.9654 344.3633,250.2924 346.7953,250.5834 C349.1043,250.9504 352.1473,251.3704 355.8723,251.6984 C367.0083,252.8054 374.9603,252.5774 379.8863,251.2704 C384.7133,249.9444 388.1863,247.3254 390.1953,243.4014 C390.9433,241.8914 391.4663,240.4424 391.7583,239.0494 C393.0523,232.8644 389.5003,227.1044 381.1663,221.9014 C380.4073,221.4134 373.6073,218.2064 360.7153,212.0514 C364.0053,209.2784 368.2893,207.9424 373.4413,208.1304 C376.3353,208.2904 380.8033,208.6714 386.9733,209.1764 C386.9393,205.7154 385.7943,202.9154 383.7443,200.8114 C381.6743,198.8234 378.9423,197.3544 375.5273,196.6414 C369.9233,195.4634 364.2533,196.1724 358.3883,198.8384 C352.5473,201.4074 349.1413,205.2764 348.0833,210.2944 C347.6603,212.3194 347.7583,214.4564 348.1853,216.5494 C348.9893,219.9564 350.9653,222.9304 354.3153,225.5244 C356.4583,227.1964 359.5733,228.8524 363.8553,230.6434 C364.9533,231.0964 366.3143,231.8234 367.8583,232.7024 C369.4103,233.5874 370.4763,234.1494 371.1383,234.6184 L373.3173,235.0794 L374.2363,236.3814 C370.8343,238.6764 366.9673,240.0944 362.7763,240.4424 C359.3583,240.7294 355.2003,240.4174 350.5393,239.4424 C348.0513,238.9214 344.7733,238.0064 340.6073,236.6944 C333.432569,234.42039 328.580236,232.967362 326.111863,232.344935 C326.198394,231.846855 326.277767,231.332576 326.3503,230.8034 C326.6333,229.9794 326.8483,225.3404 328.2393,217.1634 C328.5893,214.4524 329.4803,211.7394 329.6023,209.0924 C330.1953,205.7644 331.3953,201.5574 329.9693,197.0144 C330.1313,191.5864 328.7563,187.2904 326.3893,185.6784 C325.5283,183.0514 322.6213,181.4324 320.5703,181.8974 C318.4943,180.4614 315.1323,181.5344 312.6243,183.6824 C310.3433,184.2154 308.3703,186.9154 305.7263,189.7084 C294.7343,199.3384 289.8453,206.1184 289.2193,207.5494 C285.7333,211.2704 283.8153,215.7664 283.4383,220.1494 C282.4523,222.2804 281.8663,225.0554 282.8153,227.2584 C282.6323,229.6694 283.3173,232.6044 285.8363,234.0204 C286.8613,236.3564 289.5743,237.3684 292.1333,237.5694 C292.8073,237.9364 293.6613,237.9994 294.4823,237.7254 C295.9793,237.8174 297.8013,236.8604 299.9763,235.7584 C305.4813,233.7904 307.9313,231.4054 308.6393,231.1104 C309.4823,230.7294 311.0563,230.9444 312.1733,229.7294 C312.3023,229.6494 312.3713,229.3274 312.4543,229.4544 C315.8753,226.0454 314.0443,237.3664 314.9423,238.2254 C315.7823,240.9604 319.4333,247.3034 321.0173,244.3954 C322.338297,245.749774 323.18452,242.834488 323.799167,240.383739 Z M242.230943,180.835161 C242.328972,181.761634 242.409168,182.69548 242.4515,183.6358 C242.5975,189.1258 242.2875,193.7368 241.4565,197.6868 L240.9225,200.2508 C240.1365,203.9868 239.6725,207.2318 239.5065,210.0888 C239.3635,212.8508 239.7805,215.4968 240.7645,218.0458 C241.6655,220.4638 242.8965,221.8288 244.3485,222.1378 C245.7955,222.4388 247.4955,221.5708 249.5215,219.6568 C250.6225,218.5498 252.2305,216.5478 254.3535,213.6498 C261.1245,207.1538 268.0045,200.6868 274.8235,193.9798 C277.4185,191.4028 279.8625,189.5708 282.1005,188.7018 C284.3135,187.9368 286.9435,187.8158 290.1525,188.4908 C290.4675,188.5578 290.8805,188.6458 291.4795,188.8818 C292.0815,189.1158 292.6015,189.2258 292.9105,189.2978 C293.2195,189.3618 293.6925,189.6828 294.1475,190.1108 C295.0515,190.9678 295.8125,191.4578 296.3315,191.5728 C296.6425,191.6358 297.0745,191.6138 297.4355,191.4658 C298.9655,190.8898 299.8115,189.9558 300.1015,188.5698 C300.4385,186.9638 299.9625,185.0828 298.5595,183.0088 C297.2355,181.0578 295.7935,179.6438 294.2315,178.8738 C292.6585,178.0968 291.1705,177.4448 289.8655,176.9538 C288.5615,176.4518 287.0325,176.0228 285.2665,175.6528 C282.1555,175.0048 279.1635,174.8198 276.3915,175.1298 C272.0535,175.6748 267.2735,178.3448 262.0355,183.1568 C258.1155,186.9108 255.6075,189.0638 254.7035,189.7628 C254.1715,187.6498 254.1075,184.8468 254.3085,181.3178 C254.4995,177.7878 254.5795,175.3548 254.5185,174.1138 C254.3795,172.1888 253.5265,170.5658 251.9665,169.2338 C249.8455,167.4538 248.5965,166.1868 248.1885,165.5478 C247.2475,165.9068 245.5125,164.1118 244.2975,164.7468 C243.5635,165.1458 242.5485,165.0538 241.8505,167.8978 C241.73311,168.374362 241.641884,168.854773 241.573072,169.338866 C240.428047,168.749608 239.075988,168.255148 237.4378,167.9094 C236.8098,167.7824 235.8778,167.5884 234.5138,167.4074 C233.1448,167.2374 232.2038,167.0444 231.4778,166.8854 C230.9608,166.7784 230.4438,166.6704 229.9248,166.5614 C229.4058,166.4544 228.5968,166.1694 227.2748,165.7864 C226.0538,165.4154 225.1858,164.8974 224.7778,164.2544 C224.3468,163.7214 224.3198,162.8234 224.5908,161.5494 C224.6558,161.2234 224.7688,160.6944 224.8838,160.1574 C225.0948,159.6394 225.2058,159.1084 225.3618,158.3624 C226.8598,151.2154 218.2718,144.4934 216.2148,153.4404 C215.8228,155.1374 215.3488,157.0474 214.6158,159.0124 C213.9858,160.9914 212.6118,162.3764 210.5458,162.9504 C208.9328,163.3874 206.6668,163.3624 203.7638,162.7544 C201.7928,162.3364 199.7658,161.6884 197.5718,160.7864 C195.3578,159.9854 193.3748,159.1264 191.5698,158.4174 C190.9278,159.9544 190.6208,160.8854 190.5078,161.4264 C190.2908,161.9384 190.1798,162.4674 190.0718,162.9994 C189.5308,165.5674 189.7068,167.8354 190.7208,169.7154 C191.7358,171.6064 193.6288,172.8934 196.4668,173.8214 C201.5178,175.5514 204.2248,176.5634 204.5118,176.7374 C206.3078,178.0084 206.7468,180.5474 205.9618,184.2844 C205.5398,186.3174 204.7058,189.2564 203.4428,193.2274 C202.1758,197.1964 201.3218,200.2474 200.8968,202.2824 C200.1588,205.8014 199.9278,208.9814 200.1948,211.8254 C200.3868,214.5384 201.0898,216.3544 202.0698,217.3424 C202.7948,218.0454 204.3008,218.5904 206.5808,219.0694 L208.9658,219.5694 C208.6648,217.3894 208.8238,215.0814 209.3428,212.6224 C209.6298,211.2374 211.0438,207.0754 213.5978,200.0364 C214.6218,197.2394 215.3858,194.6184 215.8798,192.2684 C216.0528,191.4134 216.1308,190.5424 216.2298,189.5574 C216.3278,188.5734 216.5308,187.6104 216.7328,186.6514 C217.0228,185.2624 217.4758,184.1294 218.0848,183.2604 C218.6008,182.3664 219.5048,181.6654 220.5498,181.3254 C222.7728,180.5634 225.6018,180.4854 229.1518,181.1144 C232.5938,181.7274 235.2078,182.1614 237.0418,182.2104 C238.8528,182.3704 239.9118,182.4794 240.2668,182.3314 C240.87867,182.203959 241.502917,181.67927 242.230943,180.835161 Z M403.7799,296.6502 C402.6099,296.6502 401.4339,296.5282 400.2819,296.2852 L52.7529,223.0102 C44.0759,221.1812 35.1539,213.1352 32.4409,204.6912 L1.9069,109.6252 C-0.8031,101.1922 1.7029,89.4192 7.6119,82.8232 L73.2619,9.5022 C78.0689,4.1362 86.6709,0.5312 94.6659,0.5312 C96.2829,0.5312 97.8329,0.6852 99.2739,0.9892 L446.8009,74.2602 C455.9889,76.1982 461.8989,85.2532 459.9759,94.4452 L420.4479,283.1202 C418.8059,290.9602 411.7959,296.6502 403.7799,296.6502 Z M17.5879,91.9902 C14.5319,91.9902 11.8579,94.1642 11.2289,97.1602 C10.8729,98.8592 11.1999,100.5962 12.1509,102.0502 C13.1019,103.5042 14.5629,104.5012 16.2629,104.8562 C16.7069,104.9492 17.1589,104.9962 17.6059,104.9962 C20.6569,104.9972 23.3279,102.8232 23.9569,99.8272 C24.6919,96.3182 22.4359,92.8652 18.9289,92.1302 C18.4869,92.0372 18.0349,91.9902 17.5879,91.9902 Z M91.1924,118.6636 C98.0274,122.6176 102.3404,109.3716 106.6094,102.9266 C110.2014,97.6766 113.8714,92.5726 117.5614,87.3576 C120.0404,89.4596 121.4624,93.5526 121.4764,99.6766 C121.5334,104.5876 121.3244,109.1856 121.2954,113.4666 C121.2904,117.6226 121.9164,120.3246 123.0424,121.6666 C123.8284,122.5666 125.4114,123.2606 127.7954,123.7586 L129.6654,124.1536 C131.3374,116.1796 132.0674,108.0136 131.7734,99.6236 C131.4264,89.8886 129.6864,82.1806 126.8304,76.1976 C125.9794,74.5516 125.0834,73.1436 124.0684,72.3146 C123.0484,71.4906 122.0884,70.9196 120.9454,70.6866 C118.3534,70.1386 115.3124,71.2186 111.8244,73.9106 C109.3894,75.7256 106.5454,78.4406 103.5594,81.8476 L105.8664,70.8296 C108.4234,58.6386 107.3254,61.2766 107.7424,54.6366 C108.1584,47.9896 107.9674,42.1996 107.0534,37.2366 C106.6974,35.3226 106.1084,33.4896 105.3444,31.9846 C104.6794,30.5016 103.8914,29.6006 103.1694,29.4456 C101.8174,29.1656 100.5164,30.7286 99.5464,34.3226 C99.1714,35.5866 98.9204,38.3486 98.4274,42.7756 C97.8304,47.1736 97.4004,50.2666 96.9814,52.2596 C94.6714,63.2766 95.1114,62.2156 93.1874,72.9476 C91.1584,83.6576 89.7444,93.5146 88.7544,102.3656 C88.4994,105.1256 89.1304,108.2856 88.9154,111.9446 C88.5544,118.2256 89.9654,117.7896 91.1924,118.6636 Z M192.8255,108.4562 C194.5935,105.6862 195.8945,102.5872 196.5955,99.2482 C196.9465,97.5782 197.0875,95.8662 197.0465,93.9972 C196.9785,92.2402 196.7615,90.6872 196.2925,89.3072 C195.2755,86.4192 192.8615,83.4772 188.9725,80.3322 C185.9215,77.8322 182.7575,75.8972 179.5795,74.5272 C178.1995,73.8962 176.8145,73.2532 175.3295,72.5962 C173.8425,71.9342 172.6445,71.4512 171.7125,71.2552 C170.9865,71.0992 170.3435,71.0852 169.7695,71.1952 C168.5605,71.2952 167.0305,71.8992 165.1705,73.0202 C162.3415,74.6392 160.8625,75.4912 160.7345,75.5812 C154.8045,78.0582 149.5235,82.0692 145.0035,87.6302 C140.5055,93.0802 137.6215,99.0972 136.2435,105.6722 C135.7095,108.2312 135.4805,110.8562 135.5225,113.7702 C135.4795,116.5492 136.4915,118.9712 138.5695,120.9192 C140.1785,122.5322 142.5545,123.6162 145.7665,124.2872 C147.5325,124.6562 149.4435,124.8242 151.5915,124.9202 C157.2985,125.0792 163.3375,124.1332 169.6215,122.0772 C174.6175,120.4492 180.2345,117.9052 186.3305,114.6512 C188.7795,113.3022 190.9525,111.2002 192.8255,108.4562 Z M205.0811,137.2915 L206.2201,137.5335 C207.5031,131.4085 208.8581,123.9015 210.3131,114.9165 C211.7631,105.9135 213.1201,97.3625 214.5131,89.1705 C215.9011,80.9745 215.5121,81.8235 217.1431,74.0275 C217.8671,70.5755 218.2631,67.6385 218.4651,65.1235 C218.7201,61.3445 218.3421,58.4735 217.3191,56.6345 C215.8151,53.9885 214.4951,52.5515 213.5631,52.3635 C212.6261,52.1645 211.9721,52.7185 211.4031,53.8815 C210.8391,55.0405 210.2911,57.1355 209.6831,60.0335 L207.2551,71.6105 C206.6231,74.6195 206.0171,78.5575 205.5321,83.4535 C204.4351,93.3365 203.6051,99.9075 202.9271,103.1345 C201.8101,108.4755 200.9271,113.1745 200.2741,117.3415 C199.5371,121.3685 198.9881,125.5595 198.5431,129.7625 C198.3721,131.5925 198.3021,132.9665 198.4491,133.8075 C198.4901,134.6385 199.2871,135.4975 200.6241,136.3585 C201.0141,136.5565 201.9191,136.8625 203.3751,137.1675 C203.7071,137.1215 204.0191,137.1865 204.4341,137.2745 C204.7461,137.3435 204.9541,137.3835 205.0811,137.2915 Z M240.4023,70.5068 C241.6943,69.8598 242.5733,68.7278 242.9033,67.1718 C243.3273,65.1328 242.8803,63.0008 241.6823,60.7218 C240.4683,58.5378 239.0673,57.2318 237.4693,56.8958 C236.6063,56.7148 235.6793,56.8288 234.8033,57.3528 C233.6123,58.1198 232.8523,59.2808 232.5293,60.8368 C232.1023,62.8798 232.4283,64.9768 233.5263,67.1348 C234.4913,69.2658 235.9113,70.4708 237.6363,70.8368 C238.4953,71.0208 239.4173,70.9058 240.4023,70.5068 Z M230.127,124.6958 C231.518,119.6148 233.016,112.9968 234.69,105.0028 L235.738,99.9978 C236.105,98.2288 236.005,95.1048 235.433,90.5988 C234.968,86.1168 234.146,83.8268 233.108,83.6118 C232.794,83.5438 232.456,83.6118 232.164,83.9788 C231.148,84.1868 230.157,84.2668 229.138,84.4708 C228.146,84.5488 227.18,84.4928 226.251,84.2928 C226.106,84.9728 224.855,89.9408 222.347,99.3058 C221.677,101.9988 220.948,104.9588 220.239,108.3388 C219.817,110.3758 219.493,112.4278 219.14,114.6138 C218.821,116.6718 218.707,118.7648 218.618,120.7288 C218.416,127.8978 218.398,132.1338 218.612,133.1668 C219.306,136.5668 221.424,138.8478 225.02,140.3078 C227.091,135.0838 228.712,129.9138 230.127,124.6958 Z M293.7142,91.4671 C294.4532,88.4851 295.0452,86.1671 295.3962,84.4951 C296.1672,80.8211 296.2552,77.8231 295.6822,75.3751 C295.0192,72.3311 293.1552,69.8451 290.2422,67.7231 C286.8712,70.3861 284.0682,76.5421 281.7302,86.1621 C279.4952,95.8111 277.8442,101.6231 276.8782,103.6301 C273.2952,101.6021 270.3032,100.3911 267.9162,99.8911 C265.3212,99.3501 262.7992,99.5171 260.3172,100.5081 C257.8432,101.5041 254.9822,103.2331 251.9192,105.9571 C248.4502,109.0641 245.6552,112.0891 243.5022,115.1171 C241.3762,118.0441 239.9712,121.1251 239.2992,124.3501 C238.2922,129.1361 239.0182,133.9481 241.5842,138.7801 C242.7372,140.9981 244.1982,142.8131 245.8832,144.0951 C247.5912,145.2691 249.4642,146.1251 251.4342,146.5401 C253.1922,146.9111 255.1322,146.9631 257.2172,146.8221 C259.3112,146.6801 261.3342,146.2881 263.3902,145.7871 C263.9792,145.5641 265.5892,144.6221 268.4132,143.0041 C270.3992,141.7921 272.0152,141.3151 273.2622,141.5791 C276.1742,142.6551 279.1922,143.7541 282.2362,144.7351 L292.2632,96.8611 C292.3822,96.3021 292.8822,94.4331 293.7142,91.4671 Z M330.6741,156.3971 C331.6151,154.4991 332.2761,151.8481 332.7231,148.6901 C333.0111,147.8211 333.2671,142.9891 334.7331,134.4661 C335.1051,131.6371 336.0221,128.8071 336.1681,126.0481 C336.7871,122.5741 338.0291,118.1871 336.6381,113.4791 C336.8451,107.8251 335.5091,103.3631 333.1421,101.7031 C332.3101,98.9721 329.4101,97.3181 327.3551,97.8171 C325.2841,96.3381 321.9101,97.4881 319.3751,99.7441 C317.0911,100.3141 315.0861,103.1461 312.4171,106.0771 C301.3111,116.1851 296.3591,123.2881 295.7231,124.7851 C292.1971,128.6931 290.2371,133.3981 289.8221,137.9551 C288.8121,140.1881 288.2061,143.0861 289.1321,145.3711 C288.9391,147.8811 289.5991,150.9291 292.1051,152.3881 C293.1181,154.8021 295.8241,155.8391 298.3831,156.0261 C299.0571,156.4011 299.9111,156.4621 300.7351,156.1711 C302.2291,156.2511 304.0651,155.2451 306.2631,154.0691 C311.7901,151.9731 314.2651,149.4771 314.9771,149.1551 C315.8261,148.7521 317.3981,148.9621 318.5281,147.6921 C318.6641,147.6031 318.7281,147.2711 318.8091,147.4051 C322.2681,143.8241 320.3371,155.6201 321.2371,156.5111 C322.0421,159.3541 325.6461,165.9191 327.2601,162.8901 C329.0331,164.7661 330.0041,158.5831 330.6741,156.3971 Z M136.3757,190.8859 C136.8097,190.3509 137.0687,189.6499 137.2457,188.8059 C137.5417,187.3719 137.2227,185.7899 136.2577,184.2059 C135.3687,182.7669 134.1737,181.7629 132.8227,181.4799 C131.6827,181.2409 129.7657,181.5929 127.2117,182.4349 C124.7527,183.3039 123.0507,183.7019 122.2457,183.9049 C120.2297,184.2389 118.2087,184.5709 116.1887,184.8999 C112.0517,185.5439 108.6857,185.5829 105.8867,185.0009 C105.7787,184.9819 105.1587,184.8529 104.0467,184.4839 C102.9257,184.1279 102.0217,183.8079 101.4217,183.5659 C99.9457,182.8759 98.2997,181.3999 96.4517,179.3839 C94.7077,177.3879 93.9167,175.4619 94.1397,173.8779 L94.6707,171.3549 C102.4167,172.0969 110.1387,172.9659 117.9357,173.4659 C128.9187,174.2649 135.0207,171.5229 136.2547,165.6279 C136.8077,162.9839 136.4527,159.5089 135.1607,155.3409 C133.9717,151.2019 132.0597,147.9159 129.6387,145.5229 C127.2127,143.1349 124.2787,141.6419 120.9647,140.9409 C114.0137,139.4909 106.8747,141.5079 99.3447,146.9619 C91.9427,152.3289 87.3687,159.1569 85.6357,167.4499 C84.9537,170.7019 84.7877,174.0579 85.2797,177.4209 C86.0367,183.1029 88.6047,187.9049 93.0047,191.7159 C96.9337,195.1809 101.9717,197.4859 107.9817,198.7489 C112.9657,199.7899 117.8347,199.8039 122.6997,198.8159 C127.4297,197.9229 131.3037,195.9759 134.2897,193.0809 C135.2447,192.1569 135.9367,191.4229 136.3757,190.8859 Z M182.3916,211.4482 C182.6876,210.6752 182.8316,209.9812 182.9366,209.4832 C183.2266,208.0912 183.2416,206.7472 183.1056,205.4772 C182.9706,204.2022 182.6206,202.6752 181.8226,200.7432 C178.9086,196.0892 176.0056,191.4342 173.2456,186.7062 C172.2586,185.0442 171.9206,183.4232 172.2126,182.0262 C172.5246,180.5442 173.9276,178.9712 176.4606,177.1102 C179.4586,174.9362 181.4766,172.9772 182.5566,171.0222 C183.6156,169.1632 184.1406,167.9252 184.3766,167.4502 C185.3696,165.2702 186.0816,163.1392 186.5216,161.0552 C186.9376,159.0652 186.8826,157.3932 186.4946,156.0692 C186.1016,154.7412 185.1996,153.9302 183.6626,153.6102 C182.6386,153.3992 181.4386,153.3482 180.1796,153.6022 C177.9606,153.9662 175.2396,156.0962 172.1626,159.9132 C170.5336,161.9582 168.3266,164.8132 165.5626,168.3972 C163.6956,166.4482 162.2546,164.3822 160.9666,162.2372 C159.6716,160.1002 158.7816,157.9442 158.1946,155.6342 C157.4536,152.7862 156.4386,150.6022 155.5326,149.1632 C154.6266,147.7322 153.5996,146.8952 152.7026,146.7042 C151.5436,146.4642 150.6546,146.8982 149.7556,147.9572 C148.8716,149.0152 148.4466,149.7592 148.2116,150.2252 C147.9836,150.6982 147.8546,151.2962 147.6956,152.0912 C147.2936,153.9772 147.8436,156.4792 149.3306,159.5942 C151.1866,163.5162 152.3116,166.4502 152.7336,168.2982 C153.1456,170.1572 153.4296,171.3522 153.5836,171.9052 C153.9526,173.9562 153.9836,175.7232 153.6706,177.2162 C153.3416,178.8022 152.6206,180.3072 151.3936,181.7142 C150.3066,183.0442 147.2286,185.6142 142.1826,189.2252 C139.9766,190.8372 138.3136,192.3582 137.2346,193.6902 C135.9596,195.2862 135.2466,196.7942 134.9766,198.0892 C134.6426,199.6772 135.0806,201.4272 136.4356,203.2662 C138.3906,206.0652 139.6206,207.8782 139.8626,208.6572 C140.5126,208.0692 143.2176,206.0382 147.9596,202.5752 C153.5136,198.4442 157.7466,194.8682 160.6486,191.8502 C162.4306,192.9522 166.3026,198.1162 172.1856,207.1242 C174.5296,210.6282 177.5746,213.3432 181.6206,215.1162 L181.8086,214.2292 C182.0426,213.1342 182.2246,212.2412 182.3916,211.4482 Z M349.9102,162.833 C347.9842,165.835 343.3942,173.524 343.2142,173.851 C342.6842,174.833 342.3662,175.86 342.1442,176.907 C341.8482,178.302 341.9192,179.536 342.4732,180.501 C343.0262,181.472 344.0192,182.407 345.6092,183.101 C346.4922,183.534 347.2192,183.683 347.6332,183.771 C350.2262,184.312 352.6942,183.372 354.7582,180.769 C355.3432,180.04 356.8372,177.556 359.1412,173.296 C361.4362,169.042 357.7642,175.085 362.1542,168.587 C365.6702,163.396 368.7272,158.353 371.2792,153.413 C372.6692,150.911 375.7862,145.851 380.6872,138.488 C384.7732,132.416 387.6822,127.312 389.3062,123.159 C390.1902,121.029 390.7092,119.074 391.0982,117.209 C391.6602,114.536 391.7282,112.115 391.4422,109.871 C391.1582,107.62 390.3302,105.377 388.7792,103.476 C387.6702,102.029 386.6332,101.326 385.8022,101.152 C385.0722,100.998 384.3532,101.333 383.7412,102.178 C383.2632,102.926 382.6882,104.627 382.1312,107.307 C380.9152,111.554 378.4202,116.745 374.7212,122.533 C371.6742,127.24 368.5272,131.932 365.5072,136.526 C363.8402,133.624 362.1242,128.892 360.4212,122.572 C358.5142,115.612 356.9352,110.781 355.6262,108.203 C353.1662,103.432 349.8672,100.062 345.5732,98.319 C344.4802,103.554 344.9422,109.609 347.2012,116.402 C349.2142,122.296 351.5072,127.88 353.5472,133.655 C355.8542,140.215 356.2622,146.014 355.2392,150.903 C355.0202,151.956 354.6742,153.099 354.2992,154.353 C353.9522,155.501 350.4582,161.987 349.9102,162.833 Z" id="Combined-Shape"></path>
                </g>
            </g>
        </g>
    </g>
</svg>