<svg viewBox="0 0 24 24" version="1.1" xmlns="http://www.w3.org/2000/svg" xmlns:xlink="http://www.w3.org/1999/xlink">
  <g stroke="none" stroke-width="1" fill="none" fill-rule="evenodd">
    <g transform="translate(-1536.000000, -950.000000)" fill="#35363D" fill-rule="nonzero" class="social__fill">
      <g transform="translate(80.000000, 70.000000)">
        <g transform="translate(1456.000000, 667.000000)">
          <path d="M12,213 C5.372,213 0,218.373 0,225 C0,231.627 5.372,237 12,237 C18.628,237 24,231.627 24,225 C24,218.373 18.628,213 12,213 Z M21.885,224.441 C19.31,224.019 16.942,223.996 14.782,224.368 C14.538,223.805 14.285,223.243 14.015,222.688 C16.325,221.688 18.18,220.33 19.563,218.606 C20.913,220.2 21.76,222.225 21.885,224.441 Z M18.043,217.159 C16.838,218.713 15.175,219.942 13.057,220.839 C12.041,218.978 10.879,217.163 9.569,215.401 C10.348,215.204 11.16,215.087 12,215.087 C14.275,215.087 16.368,215.866 18.043,217.159 Z M7.527,216.166 C8.858,217.908 10.038,219.704 11.064,221.547 C8.634,222.262 5.733,222.629 2.38,222.652 C3.072,219.817 4.981,217.459 7.527,216.166 Z M2.087,225 L2.1,224.744 C5.949,224.739 9.269,224.296 12.05,223.422 C12.283,223.897 12.506,224.374 12.72,224.854 C9.34,225.911 6.555,228.076 4.383,231.334 C2.951,229.615 2.087,227.407 2.087,225 Z M5.916,232.81 C7.885,229.722 10.398,227.712 13.514,226.783 C14.442,229.203 15.123,231.693 15.557,234.243 C12.208,235.534 8.604,234.909 5.916,232.81 Z M17.502,233.24 C17.064,230.887 16.422,228.587 15.582,226.343 C17.458,226.078 19.522,226.147 21.781,226.539 C21.344,229.325 19.753,231.731 17.502,233.24 Z" id="Dribbble"></path>
        </g>
      </g>
    </g>
  </g>
</svg>
