<?xml version="1.0" encoding="UTF-8"?>
<svg width="24px" height="24px" viewBox="0 0 24 24" version="1.1" xmlns="http://www.w3.org/2000/svg" xmlns:xlink="http://www.w3.org/1999/xlink">
    <!-- Generator: Sketch 61 (89581) - https://sketch.com -->
    <title>dribbble</title>
    <desc>Created with Sketch.</desc>
    <g id="Page-1" stroke="none" stroke-width="1" fill="none" fill-rule="evenodd">
        <g id="Icons-/-Social-/-Dribbble" transform="translate(-3.000000, -3.000000)" fill-rule="nonzero">
            <g id="dribbble">
                <rect id="Background" x="0" y="0" width="30" height="30"></rect>
                <path d="M15,3 C8.372,3 3,8.373 3,15 C3,21.627 8.372,27 15,27 C21.628,27 27,21.627 27,15 C27,8.373 21.628,3 15,3 Z M24.885,14.441 C22.31,14.019 19.942,13.996 17.782,14.368 C17.538,13.805 17.285,13.243 17.015,12.688 C19.325,11.688 21.18,10.33 22.563,8.606 C23.913,10.2 24.76,12.225 24.885,14.441 Z M21.043,7.159 C19.838,8.713 18.175,9.942 16.057,10.839 C15.041,8.978 13.879,7.163 12.569,5.401 C13.348,5.204 14.16,5.087 15,5.087 C17.275,5.087 19.368,5.866 21.043,7.159 Z M10.527,6.166 C11.858,7.908 13.038,9.704 14.064,11.547 C11.634,12.262 8.733,12.629 5.38,12.652 C6.072,9.817 7.981,7.459 10.527,6.166 Z M5.087,15 L5.1,14.744 C8.949,14.739 12.269,14.296 15.05,13.422 C15.283,13.897 15.506,14.374 15.72,14.854 C12.34,15.911 9.555,18.076 7.383,21.334 C5.951,19.615 5.087,17.407 5.087,15 Z M8.916,22.81 C10.885,19.722 13.398,17.712 16.514,16.783 C17.442,19.203 18.123,21.693 18.557,24.243 C15.208,25.534 11.604,24.909 8.916,22.81 Z M20.502,23.24 C20.064,20.887 19.422,18.587 18.582,16.343 C20.458,16.078 22.522,16.147 24.781,16.539 C24.344,19.325 22.753,21.731 20.502,23.24 Z" id="Dribbble" fill="#FFFFFF"></path>
            </g>
        </g>
    </g>
</svg>