<svg width="22" height="21" xmlns="http://www.w3.org/2000/svg">
  <path d="M7.358 16.91c0 .086-.102.155-.23.155-.147.014-.249-.056-.249-.156 0-.087.102-.156.231-.156.133-.013.248.056.248.156zm-1.379-.196c-.031.087.058.186.19.213.116.043.25 0 .276-.087.026-.087-.058-.187-.191-.226-.115-.03-.244.013-.275.1zm1.96-.074c-.128.03-.217.113-.204.213.014.087.13.143.262.113.129-.03.218-.113.204-.2-.013-.083-.133-.14-.261-.126zM10.86 0C4.705 0 0 4.573 0 10.595c0 4.816 3.096 8.937 7.518 10.387.568.1.767-.243.767-.525 0-.27-.013-1.754-.013-2.666 0 0-3.105.651-3.757-1.294 0 0-.505-1.264-1.233-1.59 0 0-1.015-.681.071-.668 0 0 1.105.086 1.712 1.12.972 1.676 2.6 1.194 3.234.907.102-.694.39-1.176.71-1.463-2.48-.27-4.982-.62-4.982-4.798 0-1.194.338-1.794 1.047-2.558-.115-.282-.492-1.446.116-2.948.927-.283 3.06 1.172 3.06 1.172a10.63 10.63 0 012.785-.369c.945 0 1.899.126 2.786.37 0 0 2.133-1.46 3.06-1.173.608 1.506.231 2.666.116 2.948.71.769 1.144 1.368 1.144 2.558 0 4.19-2.612 4.525-5.092 4.798.408.343.754.995.754 2.015 0 1.463-.013 3.274-.013 3.63 0 .282.204.625.767.526C18.993 19.532 22 15.41 22 10.595 22 4.573 17.01 0 10.858 0zM4.31 14.977c-.057.043-.044.143.031.226.071.07.173.1.231.043.058-.043.044-.143-.031-.226-.071-.07-.173-.1-.23-.043zm-.479-.352c-.03.057.014.126.102.17.071.043.16.03.191-.031.031-.056-.013-.126-.102-.17-.089-.025-.16-.012-.19.031zm1.437 1.546c-.07.056-.044.187.058.27.102.1.23.112.288.043.058-.057.031-.187-.057-.27-.098-.1-.231-.113-.289-.043zm-.505-.638c-.071.043-.071.156 0 .256.07.1.19.143.248.1.071-.057.071-.17 0-.27-.062-.1-.177-.143-.248-.086z" fill="#FFF"/>
</svg>