<?xml version="1.0" encoding="UTF-8"?>
<svg width="105px" height="60px" viewBox="0 0 105 60" version="1.1" xmlns="http://www.w3.org/2000/svg" xmlns:xlink="http://www.w3.org/1999/xlink">
    <!-- Generator: Sketch 57.1 (83088) - https://sketch.com -->
    <title>heha</title>
    <desc>Created with Sketch.</desc>
    <g id="Site-Pages" stroke="none" stroke-width="1" fill="none" fill-rule="evenodd">
        <g id="Landing-page-|-Leaf" transform="translate(-1335.000000, -2109.000000)">
            <g id="Group" transform="translate(240.000000, 2109.000000)">
                <g id="heha" transform="translate(1095.000000, 0.000000)">
                    <path d="M19.6765536,8.31910899 C19.6667541,7.74310657 19.8790827,7.18679899 20.2665725,6.77324084 C20.6540624,6.35968268 21.184778,6.12295775 21.7413259,6.1154293 L24.9232195,5.99801426 L25,1.53982277 C24.9976369,1.48577099 24.975651,1.43463372 24.9384373,1.39663371 C24.8999818,1.35796247 24.8488526,1.33572068 24.7952521,1.33434646 L24.7302308,1.33434646 C22.7934259,1.30069703 21.2626584,1.27420706 20.1240939,1.27420706 C16.5852747,1.27420706 16.3196558,1.48899065 16.2975209,2.80847787 L15.9620386,21.5146971 C15.9620743,21.5764687 15.9378579,21.6356039 15.8949457,21.6785342 C15.8520335,21.7214645 15.7941095,21.7445045 15.7344641,21.7423678 L9.47650932,21.6313962 C9.41700697,21.6304574 9.36032507,21.6049881 9.31903199,21.5606358 C9.27773891,21.5162835 9.25524705,21.4567134 9.25654363,21.3951343 L9.62176969,1.26776355 C9.61740201,1.21259108 9.59262172,1.1612945 9.55259809,1.12457449 C9.5135248,1.08527022 9.46178332,1.06231856 9.40733772,1.06013941 C7.45462343,1.02648998 5.91278845,1 4.75900614,1 C1.20151071,1 0.93935034,1.2147836 0.91859886,2.53785054 L0,53.4601772 C0.00125432993,53.5140594 0.0225662927,53.5653582 0.0594875768,53.6033663 C0.0977977575,53.6427012 0.149405189,53.6650431 0.203364507,53.6656535 C2.16576282,53.7000189 3.7158984,53.7265089 4.87175585,53.7265089 C8.41334182,53.7265089 8.6761939,53.5117253 8.69902053,52.1922381 L9.10229096,29.8912574 C9.10418037,29.7649415 9.20365955,29.6635716 9.32571523,29.6635868 L9.32986553,29.6635868 L15.5878203,29.7738423 C15.6472134,29.7754367 15.7036158,29.8011539 15.7448398,29.8454369 C15.7863377,29.8896392 15.8090069,29.9491998 15.807786,30.0108202 L15.3782303,53.7322365 C15.3770688,53.8448954 15.4637736,53.9375116 15.5726025,53.9398606 C17.5336174,53.97351 19.0823695,54 20.2423773,54 C20.6954513,54 21.0945714,54 21.4466549,53.9878289 L19.6765536,8.33128006 L19.6765536,8.31910899 Z" id="Path" fill="#6F7075" fill-rule="nonzero"></path>
                    <path d="M73,1.20486716 C73,1.15053301 72.9788153,1.09842425 72.9411064,1.0600042 C72.9033975,1.02158416 72.8522532,1 72.7989247,1 C66.6286024,1 65.1623101,1 64.6065208,1.56699151 C64.3799589,1.8707438 64.2852988,2.25574247 64.3445565,2.63244501 L64.3445565,21.4254002 C64.3445565,21.5544811 64.2418525,21.6591218 64.1151607,21.6591218 L57.9016497,21.6591218 C57.8408101,21.6591218 57.7824624,21.6344977 57.7394424,21.5906663 C57.6964223,21.546835 57.6722539,21.487387 57.6722539,21.4254002 L57.6722539,1.20486716 C57.6722539,1.09172215 57.5822294,1 57.4711785,1 C51.3022723,1 49.836688,1 49.2808988,1.56699151 C49.0537783,1.87022902 48.9583532,2.25495689 49.0168104,2.63172365 L49.0168104,53.7951328 C49.0168104,53.9082778 49.1068349,54 49.2178857,54 C55.386792,54 56.8523763,54 57.4081655,53.4330085 C57.6342105,53.1298484 57.7286147,52.745632 57.6694218,52.3697191 L57.6694218,29.9677836 C57.6694218,29.8387027 57.7721258,29.734062 57.8988176,29.734062 L64.1123287,29.734062 C64.2390205,29.734062 64.3417245,29.8387027 64.3417245,29.9677836 L64.3417245,53.7951328 C64.3417245,53.9082778 64.4317489,54 64.5427998,54 L66.666835,54 L72.998584,21.9714721 L73,1.20486716 Z" id="Path" fill="#6F7075" fill-rule="nonzero"></path>
                    <path d="M72.9823655,52.4068337 L72.9823655,25 L67,54 C71.1028539,53.9880107 72.2383621,53.9139591 72.7158245,53.4470817 C72.9464811,53.150439 73.0427884,52.7745737 72.9823655,52.4068337 Z" id="Path" fill="#FFFFFF" fill-rule="nonzero"></path>
                    <path d="M94.2337747,0.84731543 C94.0496619,1.08016594 93.9684792,1.38696681 94.0111238,1.68874463 L95.4450771,35 L95.9897888,35 C101.77735,35 102.934862,34.7715808 103.135044,32.141476 C103.549705,24.8517654 104.881525,1.49097593 105,0 C104.383795,0 103.803677,0 103.25488,0 C97.1588761,-0.00287105945 94.8792579,0.125569131 94.2337747,0.84731543 Z" id="Path" fill="#6F7075" fill-rule="nonzero"></path>
                    <path d="M42.8549002,49.6643583 L42.8469922,49.4606094 L32.0799331,49.8471542 C31.9522293,49.8508268 31.8452695,49.7507326 31.8398184,49.6224525 L31.2021486,33.6151592 C31.1972899,33.4857116 31.297654,33.3767615 31.4264473,33.371672 L38.9433312,33.0992843 C39.3050716,33.1121658 39.6559435,32.973781 39.9124168,32.7170745 C40.5903455,31.9815554 40.5105469,30.0242656 40.3193178,25.2954127 L40.309972,25.0743235 L31.1079718,25.4045123 C30.9799645,25.4093959 30.8722017,25.3091748 30.8671382,25.180533 L30.3976924,13.4664167 C30.3928338,13.3369692 30.4931979,13.2280191 30.6219912,13.2229296 L40.1683475,12.8797355 C40.5731484,12.9051938 40.9711161,12.7658832 41.2725875,12.4931906 C41.8930036,11.8198078 41.8261453,10.1558585 41.6277272,5.21675414 L41.6191003,5 L26.7269571,5.53466021 L26.7269571,5.53466021 L25.9757,5.56500579 L22.6982064,5.68277554 C21.7472501,5.69782851 20.9877471,6.48344105 21,7.4392066 L22.8412687,53.5088542 L22.877214,54.3939336 L23.0209953,58 L41.3948016,57.3381774 C41.809435,57.376847 42.2217354,57.2431626 42.5357058,56.9682503 C43.1216144,56.3331607 43.0597885,54.7862586 42.8549002,49.6643583 Z" id="Path" fill="#6F7075" fill-rule="nonzero"></path>
                    <path d="M83.4271635,33.2016644 C82.7737068,30.6427792 82.1115995,27.2733498 81.4588082,23.1853577 C81.4400783,23.0744025 81.3450007,22.9951479 81.2367217,23.0002313 C81.1284427,23.0053146 81.0406276,23.0931555 81.0315992,23.2054138 C80.7141869,27.5728085 80.3694918,30.90835 79.9782163,33.4022257 L79.0026893,39.7406535 C78.9927547,39.8054307 79.0106292,39.8714792 79.0515977,39.9213763 C79.0925663,39.9712734 79.1525143,40 79.2156284,40 L79.2269407,40 L84.7933006,39.6818683 C84.8585192,39.6790669 84.9190052,39.6457083 84.9577963,39.5911475 C84.9965875,39.5365867 85.0095067,39.4666987 84.992931,39.4010825 L83.4271635,33.2016644 Z" id="Path"></path>
                    <path d="M99.9255894,56.6316775 L98.6514898,52.4850629 C94.6106306,52.4137908 93.4325542,50.4987077 93.4397201,47.2237517 C93.3958959,45.4631549 94.2267987,43.7940619 95.6611536,42.7614014 L84.4185502,6.15459206 L84.2924302,6.13534857 C83.5430813,6.03618911 82.7874698,5.99140692 82.0315841,6.0013569 C81.4439791,6.0013569 80.8011966,6.02060039 80.1204347,6.05837463 C79.2949213,6.1032761 76.785418,6.23940593 76.5174128,7.97773404 L73.6639456,22.0803573 L67.1823759,54.136439 L67.1701939,54.136439 L66,59.9151861 L66.2343254,59.9287278 C67.0290253,59.974342 67.9297808,60 68.9107945,60 C69.9140225,60 70.9889097,59.974342 71.7821765,59.9287278 C75.229698,59.7405693 75.6374385,59.2402387 75.8574321,57.9630415 L77.5335395,47.6741918 C77.5507706,47.5675053 77.6400811,47.4869678 77.748517,47.4803315 L87.3723402,46.9543429 C87.4820645,46.9480705 87.5810082,47.0196409 87.6088154,47.1253961 L90.7044905,58.7334936 L90.8592743,58.7334936 C93.129436,58.7570134 94.7732968,58.6693487 95.9320252,58.6073419 C98.2566479,58.4804774 99.4203924,58.1854107 99.8216836,57.6202224 C100.014876,57.326761 100.05358,56.9585348 99.9255894,56.6316775 L99.9255894,56.6316775 Z M85.3443864,38.9718604 C85.3036031,39.0278664 85.239667,39.0626712 85.1702547,39.0666524 L79.1759671,39.3945044 L79.1630685,39.3945044 C79.0952277,39.3943043 79.0308686,39.3646025 78.9869114,39.3132078 C78.9429542,39.261813 78.9237968,39.1938673 78.9344758,39.1272338 L79.9842823,32.5951398 C80.4056381,30.0250656 80.7768325,26.587609 81.1193632,22.0867718 C81.127676,21.9702349 81.2224368,21.8783698 81.339781,21.8730896 C81.4571251,21.8678094 81.5598392,21.9507887 81.5786983,22.0661029 C82.2823911,26.2790006 82.9953996,29.7520932 83.6983758,32.3884506 L85.3816492,38.7772874 C85.3995629,38.8444085 85.3858545,38.9159891 85.3443864,38.9718604 L85.3443864,38.9718604 Z" id="Shape" fill="#6F7075" fill-rule="nonzero"></path>
                    <path d="M98.7315664,53 C97.0042467,52.9601192 95.8503141,52.5772634 95.1001148,51.7941493 C94.3499154,51.0110353 94.0027335,49.8269378 94.0063127,48.0663813 C93.9228509,46.4320237 94.6714034,44.8681997 95.9899028,43.9224027 L96.3893409,43.670791 C97.1889521,43.2262715 98.0871847,42.9954375 98.9992902,43 L99.0171862,43 C100.861903,43.004419 102.14755,43.4539844 102.946427,44.377769 C103.657255,45.1956882 104.000142,46.4124154 103.995847,48.0961107 C104.049178,49.3728918 103.587045,50.6166415 102.715866,51.5409568 C101.844687,52.4652722 100.639551,52.9904839 99.3779691,52.9956494 L99.373674,52.9956494 C99.3321554,52.9949243 99.013607,52.9978247 98.7315664,53 Z" id="Path" fill="#6F7075" fill-rule="nonzero"></path>
                </g>
            </g>
        </g>
    </g>
</svg>