<?xml version="1.0" encoding="UTF-8"?>
<svg width="113px" height="60px" viewBox="0 0 113 60" version="1.1" xmlns="http://www.w3.org/2000/svg" xmlns:xlink="http://www.w3.org/1999/xlink">
    <!-- Generator: Sketch 57.1 (83088) - https://sketch.com -->
    <title>hx logo</title>
    <desc>Created with Sketch.</desc>
    <g id="Site-Pages" stroke="none" stroke-width="1" fill="none" fill-rule="evenodd">
        <g id="Landing-page-|-Leaf" transform="translate(-802.000000, -2109.000000)" fill="#6F7075" fill-rule="nonzero">
            <g id="Group" transform="translate(240.000000, 2109.000000)">
                <g id="hx-logo" transform="translate(562.000000, 0.000000)">
                    <path d="M85.5483679,42.3141295 L85.21606,42.3141295 L84.7508289,42.6503628 C84.4185209,42.986596 84.0197514,42.986596 83.6874435,43.390076 C83.3551355,43.5245693 83.2222124,44.1297892 82.956366,44.6005158 C82.0259038,46.2816822 81.2948263,47.693862 80.9625184,48.5680685 C80.0320562,50.2492349 79.7662098,51.795908 79.7662098,52.8718545 L79.7662098,53.3425811 C79.7662098,55.3599807 83.4215971,51.9976479 84.0197514,49.644015 C85.5483679,48.2990819 85.8142143,45.8109556 85.6812911,43.6590626 C85.8142143,43.390076 86.013599,42.4486228 85.5483679,42.3141295 L85.5483679,42.3141295 Z M17.5581639,47.693862 L17.5581639,47.2231354 C17.691087,46.6179155 17.4252407,45.8782022 16.8270864,45.2057357 C16.0960089,44.6005158 15.6307778,44.2642825 15.1655467,43.9952959 C14.7003156,43.8608026 14.1021613,43.8608026 13.6369302,43.6590626 C12.5735448,43.5245693 11.6430826,44.1297892 10.7790819,44.8695024 C10.3138508,45.340229 9.44985018,46.2144355 8.65231113,47.492122 C9.98154288,47.9628486 11.5101594,48.0973419 13.1716991,47.9628486 C14.7003156,48.1645886 16.0960089,47.9628486 17.5581639,47.693862 Z M112.930542,54.5530209 C112.598234,55.897954 111.60131,56.9739005 110.072694,57.7808604 C108.544077,58.5205736 105.819152,59.1257935 102.030842,59.5965201 C100.70161,59.7310134 99.7711477,59.7310134 98.8406854,59.9327533 L96.5809915,59.9327533 C95.0523749,59.9327533 93.8560664,59.79826 92.792681,59.5965201 C91.7292956,59.3947801 90.9982181,59.1257935 90.532987,58.5205736 C90.4000638,58.3860803 90.4000638,58.1843403 90.2006791,57.9153537 C90.2006791,58.8568068 90.2006791,59.9327533 89.6025248,59.4620268 C89.2702168,60.5379732 87.6086771,58.7223135 87.2099076,57.9153537 C86.8775997,57.7808604 86.6117533,53.947801 85.6812911,55.2927341 C85.6812911,55.2927341 85.6812911,55.4272274 85.5483679,55.4272274 C85.21606,55.897954 84.8172905,56.0324473 84.4849825,56.1669406 C84.3520593,56.3014339 83.7539051,57.2428871 81.8929806,58.3188336 C81.2948263,58.7895602 80.696672,59.2602868 80.0985177,59.3947801 C79.9655946,59.5292734 79.6332866,59.5292734 79.3674403,59.5292734 C78.4369781,59.5292734 77.5729774,59.5292734 76.9748231,58.9240535 C75.9114377,58.5878202 75.6455914,57.7136137 75.4462066,56.9066538 C74.8480523,56.3014339 74.9809755,55.3599807 75.1138987,54.4857742 C74.9809755,52.9391011 75.2468219,51.392428 76.1772841,50.0474949 C76.3102073,49.442275 77.5065158,46.9541487 80.4308257,43.188336 C81.1619031,42.1123895 81.4942111,41.036443 82.2252885,40.7674564 C82.956366,39.8260032 84.0197514,39.2207833 84.8172905,39.5570166 C85.4154447,39.2207833 86.4788301,39.5570166 86.9440613,40.2967298 C87.8745235,40.6329631 88.605601,41.9778962 88.9379089,43.7935559 C89.6689864,45.138489 89.6689864,46.5506688 89.6689864,47.7611086 C89.8019095,48.7025618 89.6689864,49.5767683 89.6689864,50.5182215 C89.8019095,53.2753344 90.1342175,54.8220075 90.0012943,55.0909941 C90.0012943,55.2254874 90.1342175,55.4272274 90.1342175,55.5617207 C90.8652949,55.5617207 92.7262194,55.696214 95.4511445,56.0324473 C96.979761,56.1669406 98.1760696,56.1669406 98.907147,56.1669406 C100.568687,56.1669406 101.96438,56.0324473 102.961304,55.696214 C104.290536,55.2254874 105.553306,54.4857742 106.417306,53.544321 L106.084998,53.2080877 L105.353921,53.2080877 C105.021613,53.2080877 104.622844,52.8718545 104.157612,52.8718545 C103.559458,52.7373612 103.094227,52.5356212 102.628996,52.5356212 C101.100379,52.1993879 99.9040708,51.9304013 99.1729934,51.4596747 C97.8437616,50.8544548 97.0462226,49.9130016 96.4480683,48.8370551 C96.1157603,48.0973419 95.9828372,47.492122 95.9828372,46.6851621 C95.9828372,45.0039957 96.9132994,43.4573226 98.5748391,42.2468828 C100.369302,41.036443 102.230226,40.4312231 104.157612,40.4312231 C105.353921,40.4312231 106.284383,40.7674564 107.214845,41.1709363 C107.945923,41.7761562 108.544077,42.5158694 108.876385,43.5918159 C106.749614,43.9280492 105.220998,44.0625425 104.157612,44.1970358 C102.36315,44.5332691 101.100379,45.2729823 100.103456,46.3489288 C104.822228,47.4248753 107.347769,48.0300952 107.680077,48.1645886 C110.870233,49.3750284 112.398849,50.9217014 112.398849,52.9391011 C113.063465,53.4770744 113.063465,54.1495409 112.930542,54.5530209 L112.930542,54.5530209 Z M64.6794294,53.4770744 C64.0812751,54.5530209 63.7489672,55.2927341 63.4831209,55.7634607 C63.0178897,56.5031739 62.4197355,56.8394072 61.8215812,56.9739005 C61.2234269,56.9739005 60.7581958,56.6376672 60.2929647,55.897954 C59.6948104,55.1582408 59.3625024,54.3512809 59.3625024,53.4770744 C59.2295793,52.5356212 59.2295793,51.4596747 59.2295793,50.2492349 L59.2295793,49.3077817 C59.2295793,48.0973419 58.8972713,46.4161755 58.631425,44.7350091 C58.4985018,44.3987758 58.299117,43.9952959 58.299117,43.6590626 C57.9668091,44.1297892 57.8338859,44.3987758 57.7009627,44.3987758 L56.5046542,44.7350091 C55.9064999,44.8695024 54.9760377,44.8695024 53.7797291,44.8695024 C52.5834205,44.8695024 51.5200351,45.2057357 50.9218808,45.6092156 C50.5895729,45.7437089 50.3237265,46.0799422 50.1908033,46.3489288 C50.0578802,46.6851621 49.8584954,46.9541487 49.8584954,47.5593686 C49.8584954,48.0300952 49.8584954,48.1645886 49.9914186,48.6353151 C50.1243418,48.9715484 50.1243418,49.240535 49.9914186,49.5767683 C49.9914186,50.3164815 49.9914186,51.2579347 49.8584954,52.3338812 C49.5261875,54.7547608 49.2603411,56.3014339 49.3932643,56.6376672 C49.3932643,57.5791204 49.5261875,58.3188336 49.7255722,58.7895602 L48.9944948,58.7895602 C48.2634173,58.7895602 47.665263,58.6550669 47.3329551,58.4533269 C46.867724,58.1170936 46.6018776,57.7136137 46.2695697,56.7721605 C45.9372617,55.8307073 45.8043386,54.7547608 45.8043386,53.6788143 C45.8043386,53.0735944 45.8043386,51.9976479 46.1366465,50.5854682 C46.2695697,49.240535 46.4689544,48.2990819 46.4689544,47.492122 C46.4689544,46.2816822 46.1366465,45.340229 45.405569,45.2057357 C45.2726459,45.2057357 44.3421836,45.0712424 42.5477208,44.7350091 C41.4843354,44.7350091 40.7532579,44.2642825 40.2880268,43.7935559 C39.8227957,43.3228293 39.5569493,42.5831161 39.5569493,41.6416629 L39.5569493,41.1709363 C39.5569493,41.036443 39.5569493,40.7002097 39.6898725,40.0949898 C40.42095,40.2294831 41.0191043,40.2294831 41.9495665,40.4312231 C42.680644,40.5657164 43.478183,40.5657164 44.2092605,40.5657164 C45.2726459,40.5657164 46.0037233,40.4312231 46.4689544,40.2294831 C47.0671087,39.8932499 47.5323398,39.4897699 47.665263,38.6828101 C47.7981862,38.0775902 47.7981862,37.4723703 47.7981862,36.6654104 C47.7981862,33.5720642 51.2541887,35.3204773 51.2541887,37.6068636 L51.2541887,38.6828101 C51.2541887,39.1535367 51.2541887,39.4225233 51.3871119,39.6242632 C51.5200351,39.7587566 51.852343,39.9604965 52.4504973,39.9604965 C53.0486516,39.9604965 53.1815748,40.0949898 53.3809595,39.9604965 L53.9791138,39.9604965 C54.3114218,39.9604965 54.5772681,39.9604965 55.0424992,39.8260032 C55.5077304,39.6915099 55.7735767,39.8260032 56.1058846,39.6915099 C56.7040389,39.6915099 57.3021932,39.8260032 57.7674243,40.0277432 L57.7674243,39.5570166 C57.7674243,38.4810701 58.2326554,38.6155634 58.3655786,38.4810701 C58.6978866,38.1448368 59.428964,38.6155634 59.6948104,38.4810701 C59.8277335,38.6155634 60.2929647,38.9517967 61.2234269,39.4225233 C61.8215812,39.7587566 62.2868123,40.1622365 62.4197355,40.7674564 C62.5526586,41.1036897 62.7520434,41.9778962 62.8849666,43.0538427 C63.0178897,44.1297892 63.3501977,45.0712424 63.616044,45.6764623 C63.7489672,45.340229 64.5465063,44.4660225 65.6098917,43.0538427 C67.1385082,41.036443 68.4677399,39.9604965 69.8634333,39.5570166 C70.7938955,39.2207833 71.8572809,39.08629 73.0535895,39.08629 L74.7151292,39.08629 C74.7151292,39.08629 75.6455914,39.2207833 76.3766688,39.4225233 C76.9748231,39.5570166 77.5729774,39.8932499 78.0382085,40.4984698 C78.6363628,40.9691964 78.9686708,41.5744163 78.9686708,42.1796362 C79.1015939,42.5158694 78.8357476,42.7848561 78.3705165,43.2555827 L77.9052854,43.390076 C77.7723622,43.390076 77.4400542,43.2555827 76.9748231,43.0538427 C76.8419,42.9193494 76.6425152,42.9193494 76.509592,42.9193494 L75.3132834,42.9193494 C74.1169749,42.9193494 73.3194358,43.2555827 72.5883584,43.5245693 C71.8572809,43.9952959 71.2591266,44.7350091 70.4615875,45.6764623 C68.2683552,48.4335752 66.4738923,50.9217014 64.6794294,53.4770744 L64.6794294,53.4770744 Z M36.3667931,41.7089096 C36.3667931,42.4486228 36.23387,43.0538427 36.0344852,43.8608026 C35.901562,43.9952959 35.901562,44.4660225 35.5692541,45.0712424 C35.2369461,45.6764623 34.8381766,46.4161755 34.0406376,47.3576287 C33.3095601,48.0973419 32.9772522,48.7025618 32.9772522,49.1732884 C32.9772522,49.644015 33.1101753,50.1147416 33.7083296,50.5182215 C34.9046382,51.8631546 36.3003315,53.1408411 37.4966401,54.3512809 C37.9618712,54.9565008 38.0947944,55.4272274 38.2277176,55.897954 L38.5600255,57.2428871 C38.8923335,57.5791204 38.8923335,57.848107 38.6929487,57.9826003 L38.6929487,59.2602868 C37.1643322,58.9240535 35.9680236,58.3188336 35.0375614,57.4446271 C32.4455595,55.0237475 30.7840198,53.6115677 30.1858655,53.4770744 C29.454788,54.6875142 28.1920179,55.897954 26.7298629,57.5791204 C25.4006312,58.9240535 24.6030921,59.8655067 24.6030921,60 C24.470169,59.8655067 23.8720147,59.2602868 23.0744756,58.6550669 C22.4763213,58.1843403 22.1440134,57.5791204 22.1440134,57.1083938 C22.1440134,56.6376672 22.2769366,56.1669406 22.6092445,55.5617207 C22.9415525,54.9565008 23.2073988,54.4857742 23.9384763,53.746061 C25.267708,52.1993879 26.1981702,51.3251814 26.3310934,50.6527148 C26.6634014,50.0474949 26.7963245,49.5767683 26.7963245,49.1060417 C26.7963245,48.6353151 26.6634014,48.0300952 26.4640166,47.4248753 C26.4640166,47.290382 26.1317087,46.8196554 25.9987855,46.3489288 C25.6664775,45.7437089 25.0683233,44.8022558 24.3372458,43.9280492 C23.6061683,42.986596 23.2738604,42.2468828 23.2738604,41.6416629 L23.2738604,41.036443 C23.4067836,40.9019497 23.4067836,40.5657164 23.6061683,40.2967298 C23.7390915,39.8260032 24.0713994,39.6915099 24.5366306,39.6915099 C24.8689385,39.6915099 25.267708,40.0277432 25.600016,40.2967298 C25.9323239,40.7674564 26.5304782,41.3726763 26.9292477,42.1123895 C27.3944788,42.7176094 27.6603252,43.4573226 28.2584795,43.9280492 C28.8566337,44.5332691 29.454788,45.0039957 30.2523271,45.6092156 C30.8504814,44.3987758 31.4486357,43.3228293 31.7809436,42.5158694 C32.5120211,41.1709363 33.1101753,40.2294831 33.9077144,39.8932499 C34.2400223,39.7587566 34.8381766,39.5570166 34.9710998,39.7587566 C35.4363309,39.7587566 35.7021773,39.8932499 36.1674084,40.3639765 C36.3667931,40.6329631 36.3667931,41.1036897 36.3667931,41.7089096 L36.3667931,41.7089096 Z M19.4190883,57.5118737 C17.7575486,58.1170936 16.0960089,58.5878202 14.3015461,58.4533269 C12.0418521,58.4533269 10.2473892,58.1170936 8.38646478,57.2428871 C6.59200191,56.3014339 5.32923175,54.9565008 4.59815429,53.2753344 C4.26584635,52.3338812 4,51.2579347 4,50.1819882 C4,47.4248753 5.0633854,45.0039957 7.1901562,42.8521027 C9.44985018,40.7002097 11.7095442,39.4897699 14.3015461,39.4897699 C15.4978546,39.4897699 16.6941632,39.8260032 17.6246254,40.4312231 C18.5550877,41.036443 19.4190883,41.9778962 20.3495505,43.188336 C21.080628,44.3987758 21.4129359,45.4747223 21.5458591,46.4161755 C21.5458591,48.4335752 19.7513962,49.644015 15.6307778,50.1147416 C12.7729296,50.5854682 10.0480045,50.7199615 7.32307938,51.0561948 L7.32307938,51.9976479 C7.32307938,52.4683745 7.78831049,53.0735944 8.51938795,53.6788143 C9.25046542,54.1495409 10.0480045,54.6202675 10.5132356,54.6202675 L12.1747753,54.6202675 C13.1052375,54.6202675 14.3015461,54.2840342 15.8301626,54.0150476 C16.4283169,53.6788143 17.1593943,53.544321 17.8240102,53.2753344 C18.1563181,53.1408411 18.7544724,52.8046078 19.4855499,52.5356212 C20.4160121,52.0648946 21.0141664,51.9304013 21.4793975,51.795908 C22.0775518,51.795908 22.5427829,51.9304013 22.8086293,52.4011279 C23.2738604,52.8718545 23.4067836,53.3425811 23.5397067,53.746061 C23.6726299,54.1495409 23.6726299,54.4857742 23.5397067,54.6875142 C23.4067836,54.8220075 23.2073988,55.1582408 22.9415525,55.6289674 C22.2769366,56.099694 21.080628,57.0411471 19.4190883,57.5118737 L19.4190883,57.5118737 Z" id="extras"></path>
                    <path d="M105,12.3801104 C105,12.9774653 105,13.7075658 104.665818,14.504039 C104.331636,16.0306128 103.730108,17.9554231 102.660726,20.2784701 C101.45767,23.1324993 100.655633,24.9909369 100.388288,26.0529012 C99.6530872,28.0440843 98.8510503,29.8361492 98.1158498,31.8273323 C97.7816677,32.5574328 97.5143221,32.8892966 97.5143221,33.0220422 C97.5143221,33.0220422 97.5143221,33.1547877 97.3806493,33.6193971 C96.9127944,35.1459708 96.4449395,36.2079352 96.3112667,36.4734263 C95.8434118,37.5353906 94.9745385,37.8008817 94.0388288,38 C93.905156,38 93.5709739,38 93.3036283,37.8672545 C92.7021006,37.7345089 92.2342457,37.5353906 92.1005729,37.137154 C91.9669001,36.8052901 91.632718,36.4070535 91.7663908,35.9424441 C91.7663908,35.4778347 91.7663908,35.3450892 91.9000637,34.8804798 C92.0337365,34.8804798 93.103119,32.0264506 93.5709739,30.8317407 C93.7046467,30.4998769 94.6403565,28.1104571 94.6403565,27.6458477 C94.6403565,27.1812383 94.7740293,26.9157472 94.6403565,26.4511378 C94.7740293,24.659073 94.1725016,22.8006354 93.103119,20.5439612 C92.0337365,18.7518964 90.9643539,16.8934588 89.8949714,14.9686484 C88.691916,12.8447198 88.2240611,10.7207911 88.2240611,8.92872627 C89.7612985,9.39333567 91.0980267,10.2561817 92.3010821,11.6500099 C92.9026098,12.5792287 93.8383195,14.0394296 94.9077021,16.1633583 C95.9770847,18.287287 96.7122852,19.6147424 97.5143221,20.6767067 C98.2495226,19.0173875 99.0515595,17.0262043 99.78676,15.3668851 C100.72247,13.2429564 101.123488,11.318146 101.45767,9.79157229 C101.45767,8.8623535 101.591343,8.13225302 101.591343,7.80038916 C101.725016,7.4685253 102.059198,7.33577976 102.192871,7.33577976 C102.527053,7.33577976 102.928071,7.4685253 103.395926,7.9331347 C103.997454,8.53048964 104.465309,9.12784458 104.732654,9.92431783 C105,10.5880455 105,11.4508916 105,12.3801104 L105,12.3801104 Z M81.2062381,22.2032805 C83.0108211,20.8758251 83.478676,18.4200325 83.3450032,16.2961039 C83.6791852,15.5660034 83.8128581,14.504039 83.3450032,14.6367846 L82.8771483,14.6367846 L82.4092934,15.101394 C82.0751114,15.4332578 81.4735837,15.4332578 81.2062381,15.8314945 C80.7383832,15.96424 80.6047104,16.5615949 80.2705283,17.1589499 C79.2011458,18.8182692 78.1317632,20.012979 77.6639083,21.0749434 C76.5945258,22.7342627 75.9929981,24.2608364 75.9929981,25.1236824 L75.9929981,25.5882918 C76.0598345,27.5131022 80.3373647,24.3272092 81.2062381,22.2032805 L81.2062381,22.2032805 Z M31.145767,14.8359029 C30.6779122,14.7031574 30.4105665,14.504039 29.8090388,14.504039 C29.0738383,14.504039 28.1381286,14.6367846 27.4029281,14.9686484 C26.4672183,15.3005123 25.7320178,15.6987489 24.9968173,16.2961039 C24.2616168,16.8934588 23.3259071,17.8226776 22.5907066,19.0173875 C21.855506,20.3448429 21.3876512,21.4068072 21.3876512,22.336026 C21.3876512,22.933381 21.521324,23.5307359 21.9891789,23.9953453 C22.4570337,24.4599547 23.0585614,24.5927002 23.9942712,24.7254458 C25.5315086,24.8581913 27.4697645,24.1280908 29.8090388,22.6015171 C32.4156588,20.9421978 33.6187142,19.4156241 33.6187142,17.7563048 C33.752387,16.827086 33.2845321,15.96424 32.4156588,15.3668851 C31.9478039,15.2341395 31.4799491,14.9686484 31.145767,14.8359029 L31.145767,14.8359029 Z M59.4844048,27.6458477 C60.0859325,27.6458477 60.6874602,27.3139839 61.7568428,26.5838834 C62.2246976,26.2520195 62.8262253,25.6546646 63.427753,24.9245641 C63.8956079,24.4599547 64.3634628,23.8625998 64.7644812,23.2652448 C65.2323361,22.5351443 65.3660089,21.9377894 65.4996817,21.1413161 C65.3660089,20.5439612 65.1654997,20.0793518 64.7644812,19.4819969 C64.4302992,19.150133 64.0292807,19.0173875 63.5614258,18.8846419 C62.3583705,18.8846419 61.1553151,19.4819969 59.8854233,21.1413161 C58.5486951,22.6678899 57.880331,24.1944636 57.880331,25.3891735 L57.880331,26.4511378 C57.880331,26.4511378 58.214513,27.0484928 58.4818587,27.1812383 C58.6823679,27.5131022 59.01655,27.6458477 59.4844048,27.6458477 L59.4844048,27.6458477 Z M28.7396563,28.2432027 C26.734564,29.305167 24.7963081,30.0352675 22.7912158,30.3671313 C22.0560153,30.4998769 21.4544876,30.4998769 20.7861235,30.4998769 C19.5830681,30.4998769 18.7810312,30.168013 18.1795035,29.7697764 C17.2437938,29.305167 16.9764481,28.442321 16.8427753,27.5131022 C16.7091025,26.4511378 16.5085933,25.521919 16.7091025,24.659073 C16.8427753,22.2696533 17.3106302,19.9466063 18.5136856,17.6899321 C19.7167409,15.4332578 21.2539784,13.7739386 23.0585614,12.3801104 C23.0585614,12.3801104 23.5264163,12.0482465 24.3952896,11.1854005 C24.9968173,10.7207911 25.4646722,10.2561817 25.7320178,10.2561817 L26.3335455,10.1234361 C26.6677276,10.2561817 27.068746,10.2561817 27.6702737,10.4553 C28.2718014,10.5880455 28.7396563,10.5880455 29.2075111,10.9199094 C30.2768937,11.2517733 31.4799491,11.6500099 32.6830045,12.2473648 C34.0197327,12.9774653 35.0891152,13.9066841 35.5569701,14.9686484 C35.6906429,15.4332578 36.024825,16.0306128 36.024825,16.4952222 C36.1584978,17.0925771 36.1584978,17.6899321 36.1584978,18.287287 C36.024825,19.4819969 35.8243157,20.6767067 35.4232973,21.9377894 C34.9554424,22.9997537 34.3539147,23.9289725 33.6187142,24.5263275 C32.0814768,26.119274 30.2768937,27.1812383 28.7396563,28.2432027 L28.7396563,28.2432027 Z M0.40101846,25.0573096 C0.26734564,22.0705349 0.13367282,18.7518964 0.13367282,14.9686484 C0.13367282,11.318146 0,11.6500099 0.13367282,7.86676193 L0.13367282,4.68086892 C0,3.15429518 0,2.29144916 0,1.82683976 C0.13367282,0.499384342 0.46785487,-0.164343369 0.935709739,0.0347749442 C1.26989179,0.0347749442 1.53723743,0.3666388 1.87141948,0.764875426 C2.20560153,1.22948482 2.60661999,1.82683976 2.80712922,2.4241947 C3.40865691,4.08351398 3.87651178,5.8755788 4.0101846,8.19862579 C4.34436665,10.4553 4.47803947,9.52608121 4.34436665,13.7739386 L4.21069383,17.424441 C4.94589433,16.0969855 5.74793125,15.0350212 6.48313176,14.238548 C7.4188415,13.1765836 8.48822406,12.5792287 9.35709739,12.5792287 C9.82495226,12.5792287 10.0922979,12.7119742 10.4264799,12.9110925 C10.8943348,13.0438381 11.1616805,13.5084475 11.4958625,13.9730569 C12.8325907,15.7651217 13.7683004,18.2209142 14.5703374,21.5395528 C15.1718651,24.2608364 15.5060471,27.1148655 15.3055379,29.8361492 L14.7040102,29.8361492 C13.9688097,29.8361492 13.1667728,29.7034036 12.8994271,29.3715398 C12.4315722,28.9069304 11.9637174,28.1768299 11.8300446,26.6502561 C11.6963717,25.1236824 11.3621897,23.5971087 11.094844,21.9377894 C10.760662,19.9466063 10.0254615,18.6191508 9.08975175,18.0217959 C8.15404201,20.012979 7.28516868,21.8050439 6.34945894,23.796227 C5.61425843,26.5175106 5.01273074,31.2299774 2.40611076,30.3007586 C1.93825589,30.168013 1.47040102,30.3007586 1.20305538,28.1768299 C0.868873329,27.0484928 0.40101846,25.9865284 0.40101846,25.0573096 L0.40101846,25.0573096 Z M39.9681731,28.2432027 C39.8345003,26.9157472 39.8345003,25.3891735 39.8345003,23.9953453 L39.8345003,19.0173875 C39.8345003,17.8226776 39.8345003,15.6987489 39.5003183,12.2473648 C39.3666454,10.5880455 39.3666454,9.19421735 39.5003183,8.19862579 L39.5003183,4.14988675 C39.5003183,3.08792241 39.5003183,2.49056747 39.6339911,2.02595808 C39.7676639,1.56134868 39.7676639,1.29585759 40.2355188,1.42860314 C40.3691916,1.42860314 40.9707193,1.76046699 41.4385742,2.62331302 C41.906429,3.22066796 42.0401018,3.95076844 42.1737747,5.34459663 L42.1737747,13.641193 C42.1737747,13.641193 42.3074475,19.4156241 42.3074475,22.4023988 C42.3074475,25.5882918 42.4411203,28.1768299 42.3074475,30.2343858 L41.3717377,30.3671313 C40.9038829,30.3671313 40.7702101,30.2343858 40.6365372,30.2343858 C40.1686824,30.1016402 39.9013367,29.7697764 39.9013367,29.5042853 L39.9681731,28.2432027 L39.9681731,28.2432027 Z M45.7829408,16.2961039 C46.1171229,12.8447198 46.2507957,10.9862822 46.1171229,10.8535366 C46.4513049,10.9862822 46.7186505,10.8535366 47.0528326,10.7207911 C47.3870146,10.5880455 47.6543603,10.3889272 47.9885423,10.3889272 C48.1222151,10.2561817 48.1222151,10.2561817 48.3227244,10.2561817 C48.7905792,10.2561817 49.0579249,10.9862822 49.3921069,12.6456014 C49.8599618,14.1721752 49.9936346,15.2341395 49.9936346,15.96424 L49.8599618,17.7563048 C49.726289,20.8094523 49.726289,23.0661265 49.5257798,24.9909369 C49.3921069,26.98212 49.1915977,28.9069304 48.7905792,30.765368 C47.5875239,30.4335041 46.785487,29.8361492 46.3844685,28.6414393 C46.2507957,28.3095754 45.9166136,26.8493745 45.649268,24.2608364 C45.5155952,23.6634814 45.5155952,22.7342627 45.5155952,22.1369077 L45.5155952,19.8802335 C45.649268,18.4200325 45.7829408,17.3580682 45.7829408,16.2961039 L45.7829408,16.2961039 Z M47.119669,2.8888041 C47.119669,2.4241947 47.4538511,1.95958531 47.7211967,1.69409422 C48.0553787,1.56134868 48.4563972,1.36223037 48.7905792,1.36223037 C49.3921069,1.36223037 50.1273074,1.69409422 50.7956715,2.29144916 C51.3971992,2.8888041 51.7313813,3.61890458 51.7313813,4.28263229 C51.8650541,4.74724169 51.3971992,5.21185109 51.1298536,5.47734217 C50.6619987,5.61008771 50.3946531,5.61008771 50.060471,5.80920603 C49.3252705,5.80920603 48.7237428,5.47734217 48.0553787,4.87998723 C47.4538511,4.21625952 47.119669,3.61890458 47.119669,2.8888041 Z M56.40993,16.7607133 C57.3456397,15.6987489 58.214513,14.7695301 59.01655,14.504039 C59.7517505,13.9066841 60.6874602,13.7739386 61.62317,13.7739386 C62.3583705,13.7739386 63.6282623,14.1058024 64.9649905,14.504039 C65.2991725,13.7739386 65.4328453,11.6500099 65.5665181,8.33137133 C65.700191,5.01273277 66.5022279,2.55694025 67.3711012,1.56134868 C68.5741566,2.15870362 69.3761935,2.75605856 69.6435391,3.8180229 C70.111394,4.54812338 70.111394,5.61008771 70.111394,7.00391591 C70.111394,7.4685253 70.111394,8.19862579 69.9777212,9.26059012 C69.9777212,10.3225545 69.8440484,11.0526549 69.8440484,11.2517733 L69.1088479,28.0440843 C68.0394653,27.9113388 66.9700827,27.5794749 65.7670274,27.5794749 C65.2991725,27.5794749 64.6976448,27.9113388 64.2297899,28.3095754 C63.4945894,28.9069304 62.8930617,29.5042853 62.6925525,29.5042853 C62.0910248,29.8361492 61.3558243,29.9688947 60.6874602,30.2343858 C59.9522597,30.3671313 59.350732,30.5662496 58.6823679,30.3671313 C58.0808402,30.3671313 57.3456397,30.2343858 56.5436028,29.9025219 C55.9420751,29.5706581 55.3405474,28.9733031 54.8726926,28.3759482 C53.6696372,26.8493745 53.0681095,25.1900552 53.2017823,23.5307359 C53.2017823,22.336026 53.6696372,21.2740617 54.137492,20.2120974 C54.7390197,19.2165058 55.3405474,17.9554231 56.40993,16.7607133 L56.40993,16.7607133 Z M77.4633991,14.0394296 C78.1985996,12.8447198 78.6664545,11.7827554 79.4684914,11.318146 C80.2036919,10.3889272 81.2730745,9.79157229 82.0751114,10.1234361 C82.6766391,9.79157229 83.7460216,10.2561817 84.2138765,11.0526549 C85.1495863,11.5172643 85.8847868,12.8447198 86.0184596,14.9686484 C86.7536601,16.4952222 86.6199873,18.1545414 86.6199873,19.3492513 C86.7536601,20.2784701 86.6199873,21.47318 86.6199873,22.4023988 C86.6199873,25.5882918 86.7536601,27.1148655 86.7536601,27.5131022 C86.8873329,28.8405576 86.8873329,29.7697764 86.6199873,30.5662496 C86.4863144,31.4954684 86.6199873,33.6193971 85.8847868,32.9556694 C85.5506047,34.1503793 83.8796945,32.0264506 83.478676,31.1636046 C83.144494,31.030859 83.0108211,26.6502561 82.1419478,28.1104571 C82.1419478,28.1104571 82.1419478,28.2432027 82.008275,28.2432027 C81.6740929,28.707812 81.2730745,28.8405576 80.9388924,28.9733031 C80.6047104,29.1060487 80.0031827,30.0352675 78.3322724,31.2299774 C77.5970719,31.8273323 77.1292171,32.2919417 76.5276894,32.4246872 C76.1935073,32.5574328 76.0598345,32.5574328 75.7924889,32.5574328 C74.8567791,32.6901783 73.9879058,32.5574328 73.3863781,31.628214 C72.4506684,31.2963501 72.1833227,30.3007586 71.8491407,29.3715398 C71.3812858,28.6414393 71.3812858,27.5794749 71.7154679,26.6502561 C71.581795,24.9909369 71.8491407,23.198872 72.9185232,21.6722983 C72.9853596,21.1413161 74.2552514,18.287287 77.4633991,14.0394296 L77.4633991,14.0394296 Z" id="holiday"></path>
                </g>
            </g>
        </g>
    </g>
</svg>