<?xml version="1.0" encoding="UTF-8"?>
<svg width="210px" height="40px" viewBox="0 0 210 40" version="1.1" xmlns="http://www.w3.org/2000/svg" xmlns:xlink="http://www.w3.org/1999/xlink">
    <!-- Generator: Sketch 57.1 (83088) - https://sketch.com -->
    <title>zendesk</title>
    <desc>Created with Sketch.</desc>
    <g id="Site-Pages" stroke="none" stroke-width="1" fill="none" fill-rule="evenodd">
        <g id="Landing-page-|-Leaf" transform="translate(-1020.000000, -2119.000000)" fill="#6F7075" fill-rule="nonzero">
            <g id="Group" transform="translate(240.000000, 2109.000000)">
                <g id="zendesk" transform="translate(780.000000, 10.000000)">
                    <path d="M138.988734,34.5660457 C141.794681,34.6221825 144.509015,33.5872647 146.5374,31.6879004 L150.266014,35.6504489 C147.787045,38.1435814 144.368301,40 139.039532,40 C129.904935,40 124.003159,34.0566747 124.003159,26.0012504 C123.922483,22.2802227 125.390168,18.6869752 128.069121,16.046789 C130.748075,13.4066028 134.40806,11.9463829 138.208468,12.0015059 C147.279059,12.0015059 152.413777,18.7765386 151.973862,28.1740362 L130.556173,28.1740362 C131.315103,32.0739082 134.112072,34.5660457 138.988734,34.5660457 L138.988734,34.5660457 Z M145.520413,23.6981372 C144.951469,20.0539456 142.730556,17.3757683 138.290762,17.3757683 C134.41364,17.1593891 131.029438,19.9242337 130.552109,23.6981372 L145.520413,23.6981372 Z" id="Shape"></path>
                    <polygon id="Path" points="0 33.7103101 16.2498645 17.1837762 0.380301072 17.1837762 0.380301072 12 23.7828281 12 23.7828281 17.2906891 7.52896043 33.817223 24 33.817223 24 39 0 39"></polygon>
                    <path d="M41.9865594,34.5660573 C44.7921382,34.6224122 47.5061606,33.5874654 49.5341296,31.6879181 L53.2622027,35.6504582 C50.7876561,38.1435853 47.365346,40 42.0373506,40 C32.9040794,40 27.0031594,34.0566874 27.0031594,26.0012802 C26.9224642,22.2795595 28.3904871,18.6856925 31.0699419,16.0453897 C33.7493967,13.4050868 37.409914,11.9453514 41.21047,12.0015655 C50.2797443,12.0015655 55.4137174,18.7765838 54.9738657,28.1740614 L33.5552225,28.1740614 C34.3140428,32.073925 37.1106055,34.5660573 41.9865594,34.5660573 L41.9865594,34.5660573 Z M48.5172901,23.7011565 C47.9484288,20.0579676 45.7278381,17.378801 41.2886885,17.378801 C37.4122985,17.1629227 34.0288916,19.9275134 33.5511592,23.7011565 L48.5172901,23.7011565 Z" id="Shape"></path>
                    <path d="M90.0075946,25.9445603 C90.0075946,17.2957069 96.6139784,11.8967984 103.883872,11.8967984 C107.420742,11.8528894 110.795909,13.3388037 113.101223,15.9547296 L113.101223,0 L119,0 L119,39.4673312 L113.101223,39.4673312 L113.101223,35.7283946 C110.838674,38.4542271 107.425743,40.0263632 103.82952,39.9996654 C100.071293,39.9684401 96.4849111,38.4598565 93.8829393,35.815371 C91.2809675,33.1708855 89.8836564,29.6143469 90.0075946,25.9515602 M113.436568,25.8975611 C113.294271,21.206111 109.303365,17.5018086 104.490951,17.5943661 C99.6785378,17.6869236 95.8405381,21.5418 95.8880739,26.2350727 C95.9356096,30.9283453 99.8509412,34.7084118 104.664291,34.7084118 C107.036878,34.7084118 109.308355,33.7715922 110.961018,32.1116625 C112.61368,30.4517329 113.506708,28.2100623 113.436568,25.8975611" id="Shape"></path>
                    <path d="M155.007065,33.7682563 L160.249934,31.0823659 C161.660663,33.5687665 164.353592,35.0792713 167.242782,35.0047607 C170.52172,35.0047607 172.216191,33.3414982 172.216191,31.4583906 C172.216191,29.3086835 169.047258,28.8232337 165.606845,28.1308708 C160.964458,27.1629555 156.155551,25.6558725 156.155551,20.1189592 C156.155551,15.8702785 160.252962,11.9439046 166.700834,12.0006067 C171.78122,12.0006067 175.552655,13.9971186 177.684116,17.2142184 L172.824748,19.8424119 C171.461631,17.8459425 169.147547,16.6868273 166.707898,16.7785073 C163.592453,16.7785073 161.993857,18.2855903 161.993857,20.0055549 C161.993857,21.9423803 164.505792,22.4775689 168.441729,23.3330747 C172.919614,24.30099 178,25.7523656 178,31.3449863 C178,35.0554942 174.72409,40.0562242 166.963229,39.9995221 C161.28337,39.9995221 157.292935,37.7403898 155,33.7602981" id="Path"></path>
                    <polygon id="Path" points="193.624345 27.138299 188.923645 32.0545643 188.923645 39 183 39 183 0 188.923645 0 188.923645 25.535126 201.505323 12.2847331 208.721119 12.2847331 197.814794 23.7204369 209 39 202.290323 39"></polygon>
                    <path d="M72.4995014,12 C65.695281,12 60,16.5009612 60,23.967357 L60,40 L65.8319039,40 L65.8319039,24.7107468 C65.8319039,20.2108012 68.3669073,17.516521 72.6859867,17.516521 C77.005066,17.516521 79.1680961,20.2108012 79.1680961,24.7107468 L79.1680961,40 L85,40 L85,23.967357 C85,16.4938522 79.304719,12 72.5004986,12" id="Path"></path>
                    <path d="M206.591606,8.58237549 C207.373097,7.80410211 208.63678,7.80613793 209.415763,8.58692527 C210.194746,9.36771261 210.194746,10.6322874 209.415763,11.4130747 C208.63678,12.1938621 207.373097,12.1958979 206.591606,11.4176245 C206.213044,11.0431664 206,10.5326625 206,10 C206,9.46733751 206.213044,8.95683362 206.591606,8.58237549 L206.591606,8.58237549 Z M209.069746,11.0680077 C209.665682,10.4684806 209.663756,9.49922245 209.065441,8.90207211 C208.467127,8.30492177 207.498549,8.3055643 206.901026,8.90350794 C206.303503,9.50145157 206.302861,10.4707114 206.899591,11.0694473 C207.496321,11.6681832 208.464897,11.6701108 209.064003,11.0737548 L209.069746,11.0680077 Z M208.169039,8.71360154 L208.77302,9.31896552 C208.936562,9.44463299 209.041646,9.63175172 209.06388,9.83688788 C209.086115,10.042024 209.023566,10.247338 208.890753,10.4051724 C208.701242,10.6177636 208.393973,10.6791043 208.137452,10.5555556 L207.955588,11.3275862 L207.556443,10.9272031 L207.850298,9.86015326 L208.013019,10.0239464 C208.062962,10.0923727 208.13806,10.1381005 208.221743,10.151039 C208.305425,10.1639776 208.390813,10.1430636 208.459065,10.0929119 C208.473018,10.082451 208.486139,10.0709221 208.498309,10.0584291 C208.611589,9.92288408 208.594045,9.72119877 208.459065,9.6072797 L208.438007,9.59099617 L208.230298,9.35440614 L207.115183,10.4683908 L206.761026,10.1130268 L208.169039,8.71360154 Z" id="Shape"></path>
                </g>
            </g>
        </g>
    </g>
</svg>